<svg xmlns="http://www.w3.org/2000/svg" direction="ltr" width="2048.000000000002" height="2048" viewBox="14751.999999999998 11504.739468397205 2048.000000000002 2048" stroke-linecap="round" stroke-linejoin="round" data-color-mode="light" class="tl-container tl-theme__force-sRGB tl-theme__light" style="background-color: transparent;"><defs/><g transform="matrix(1, 0, 0, 1, 14752, 11504.7395)" opacity="1"><g data-lovart-layer-name="SVG 5"><g transform="scale(1.4143646408839778, 1.4143646408839778)"><g>
<g xmlns="http://www.w3.org/2000/svg" stroke-width="2.00" fill="none" stroke-linecap="butt">
<path stroke="#8a8a8a" d="M 358.19 494.12   Q 353.11 494.13 269.51 494.21   C 267.11 494.21 262.51 494.29 261.40 491.84   Q 260.43 489.69 261.39 487.63   Q 267.65 474.17 288.97 429.72   C 292.88 421.57 295.16 417.68 304.75 417.68   Q 377.36 417.72 392.19 417.67   A 1.01 1.01 0.0 0 0 393.09 417.12   L 409.97 383.70   A 0.38 0.38 0.0 0 0 409.63 383.14   Q 313.50 383.12 310.00 383.08   Q 291.31 382.88 286.04 383.79   C 271.60 386.30 259.79 392.88 250.02 403.84   Q 246.78 407.46 241.15 419.39   Q 211.76 481.66 204.38 497.87   C 201.79 503.57 201.02 511.56 204.52 517.18   C 209.13 524.59 217.84 527.52 226.27 527.51   Q 296.77 527.43 341.95 527.48   A 1.48 1.47 -76.6 0 0 343.29 526.65   L 358.70 494.92   A 0.56 0.56 0.0 0 0 358.19 494.12"/>
<path stroke="#8a8a8a" d="M 581.92 398.13   C 579.68 390.92 571.68 386.00 564.74 384.46   Q 558.65 383.11 551.50 383.11   Q 464.53 383.12 458.74 383.12   Q 447.16 383.11 434.94 388.69   Q 417.53 396.64 409.58 413.36   Q 381.64 472.05 373.47 489.95   Q 370.96 495.44 369.35 499.35   C 365.39 508.97 367.88 519.33 377.54 524.24   Q 383.80 527.42 389.64 527.42   Q 483.51 527.54 499.26 527.43   C 517.34 527.30 534.70 516.38 541.90 499.88   C 545.99 490.51 550.53 481.79 554.94 471.67   C 556.18 468.83 558.05 465.67 559.25 462.98   Q 565.99 447.92 571.92 436.08   C 575.07 429.80 577.01 424.76 579.37 420.09   C 583.16 412.59 584.27 405.69 581.92 398.13"/>
<path stroke="#8a8a8a" d="M 544.55 527.45   L 595.10 527.45   A 0.98 0.97 12.2 0 0 595.99 526.88   L 612.95 490.05   A 1.16 1.15 12.4 0 1 614.00 489.38   L 673.41 489.38   A 0.46 0.46 0.0 0 1 673.83 490.03   L 656.92 526.76   A 0.49 0.49 0.0 0 0 657.37 527.46   L 706.65 527.46   A 1.61 1.61 0.0 0 0 708.13 526.49   C 712.27 516.90 716.94 508.28 720.53 499.81   Q 721.80 496.81 728.09 483.45   Q 734.49 469.88 741.69 454.51   C 748.94 439.02 754.50 428.42 760.56 414.07   Q 763.72 406.59 762.32 399.16   C 760.10 387.40 748.72 383.19 738.00 383.16   Q 708.04 383.10 651.13 383.12   Q 640.96 383.12 635.48 384.44   C 620.87 387.96 604.91 397.88 598.13 412.09   Q 589.71 429.76 581.35 447.20   Q 577.82 454.55 576.97 456.50   C 573.33 464.86 569.07 472.37 566.05 479.74   C 563.33 486.39 558.91 494.21 555.49 502.16   Q 555.02 503.27 544.07 526.71   A 0.53 0.52 12.2 0 0 544.55 527.45"/>
<path stroke="#8a8a8a" d="M 925.98 383.10   Q 906.97 383.20 826.25 383.05   Q 815.37 383.03 810.76 383.75   C 796.87 385.89 782.80 394.60 776.29 407.58   Q 769.87 420.37 762.38 437.36   C 758.87 445.32 756.42 449.32 757.23 456.76   C 758.43 467.83 770.12 472.95 780.01 472.94   Q 832.21 472.92 846.12 472.86   Q 848.27 472.85 849.45 473.39   A 2.12 2.12 0.0 0 1 850.53 476.13   Q 848.95 479.96 844.46 489.03   Q 841.86 494.27 836.25 494.21   Q 835.27 494.20 738.39 494.22   A 1.09 1.07 12.4 0 0 737.41 494.83   L 722.20 526.57   A 0.60 0.60 0.0 0 0 722.73 527.43   Q 724.86 527.48 741.25 527.49   Q 795.98 527.53 848.70 527.37   Q 856.33 527.35 859.75 526.59   C 868.17 524.71 876.04 519.68 881.58 513.32   Q 884.58 509.89 888.85 500.46   C 894.66 487.62 898.09 479.27 902.64 470.16   C 906.81 461.82 907.26 450.89 898.84 444.88   C 893.82 441.30 888.53 440.58 882.09 440.54   Q 860.55 440.40 811.46 440.48   A 0.42 0.42 0.0 0 1 811.09 439.87   Q 815.20 431.72 817.97 425.21   C 820.10 420.21 822.51 417.71 828.00 417.72   Q 890.10 417.74 908.69 417.68   A 1.26 1.24 12.9 0 0 909.79 417.00   L 926.50 383.93   A 0.58 0.57 13.3 0 0 925.98 383.10"/>
<path stroke="#8a8a8a" d="M 921.74 416.97   A 0.78 0.78 0.0 0 0 922.44 418.10   L 971.18 418.10   A 0.78 0.78 0.0 0 1 971.89 419.21   L 922.55 526.36   A 0.78 0.78 0.0 0 0 923.26 527.47   L 971.26 527.47   A 0.78 0.78 0.0 0 0 971.96 527.03   L 1023.94 418.55   A 0.78 0.78 0.0 0 1 1024.64 418.11   L 1069.71 418.11   A 0.78 0.78 0.0 0 0 1070.41 417.68   L 1087.30 384.24   A 0.78 0.78 0.0 0 0 1086.60 383.11   L 939.33 383.11   A 0.78 0.78 0.0 0 0 938.63 383.54   L 921.74 416.97"/>
<path stroke="#8a8a8a" d="M 1156.88 490.12   L 1139.95 526.89   A 0.41 0.40 12.2 0 0 1140.32 527.46   L 1189.56 527.46   A 1.27 1.26 12.4 0 0 1190.71 526.73   Q 1205.64 494.82 1207.87 490.26   C 1210.35 485.23 1213.24 477.97 1215.53 473.53   Q 1219.38 466.10 1221.49 461.10   C 1224.56 453.82 1229.15 445.73 1232.18 438.40   Q 1235.51 430.38 1240.80 420.13   C 1242.99 415.89 1245.52 409.19 1245.56 404.98   C 1245.69 388.43 1231.81 383.09 1217.51 383.11   Q 1153.21 383.22 1139.60 383.06   Q 1124.45 382.88 1117.52 384.58   Q 1101.29 388.56 1089.59 400.58   Q 1085.20 405.09 1082.33 411.11   C 1064.64 448.26 1052.53 474.68 1028.42 526.76   A 0.50 0.50 0.0 0 0 1028.88 527.47   L 1078.33 527.47   A 1.56 1.54 12.1 0 0 1079.74 526.57   L 1096.68 489.78   A 0.71 0.71 0.0 0 1 1097.33 489.36   L 1156.40 489.36   A 0.54 0.53 -77.5 0 1 1156.88 490.12"/>
<path stroke="#8a8a8a" d="M 1273.37 493.77   L 1326.77 383.81   A 0.50 0.49 13.0 0 0 1326.32 383.10   L 1275.31 383.10   A 1.74 1.74 0.0 0 0 1273.77 384.03   Q 1272.05 387.35 1268.14 395.09   Q 1263.82 403.64 1240.19 453.13   Q 1229.07 476.43 1205.15 526.79   A 0.48 0.48 0.0 0 0 1205.58 527.47   L 1340.63 527.47   A 1.23 1.22 -77.5 0 0 1341.74 526.76   L 1356.48 494.73   A 0.38 0.38 0.0 0 0 1356.13 494.19   L 1273.64 494.19   A 0.30 0.29 12.6 0 1 1273.37 493.77"/>
<path stroke="#dbc6ab" d="M 492.81 757.11   A 0.44 0.44 0.0 0 0 493.21 756.85   L 542.31 647.80   A 0.44 0.44 0.0 0 1 543.11 647.81   L 591.87 756.85   A 0.44 0.44 0.0 0 0 592.28 757.11   L 650.98 757.11   A 0.44 0.44 0.0 0 0 651.38 756.85   L 736.87 571.16   A 0.44 0.44 0.0 0 0 736.47 570.54   L 679.71 570.54   A 0.44 0.44 0.0 0 0 679.31 570.80   L 632.19 675.48   A 0.44 0.44 0.0 0 1 631.38 675.46   L 587.74 571.00   A 0.44 0.44 0.0 0 0 587.34 570.73   L 513.89 570.73   A 0.44 0.44 0.0 0 0 513.49 570.99   L 429.97 756.49   A 0.44 0.44 0.0 0 0 430.37 757.11   L 492.81 757.11"/>
<path stroke="#dbc6ab" d="M 771.49 642.42   A 0.23 0.23 0.0 0 1 771.45 641.97   L 791.67 637.90   A 2.98 2.97 6.5 0 0 793.79 636.22   L 802.81 616.63   A 0.90 0.87 -77.3 0 1 803.61 616.11   L 930.96 616.11   A 1.55 1.54 12.8 0 0 932.35 615.24   C 938.94 601.63 941.00 596.50 947.28 585.11   Q 949.85 580.45 953.74 571.15   A 0.48 0.47 11.4 0 0 953.30 570.49   L 756.85 570.49   A 1.80 1.79 -76.5 0 0 755.25 571.48   Q 748.53 584.88 743.19 596.98   C 737.34 610.22 732.97 619.43 727.40 631.37   C 723.84 639.02 721.09 646.25 717.78 652.80   Q 715.07 658.17 710.47 668.81   C 706.05 679.03 695.99 700.63 689.02 716.46   C 684.20 727.43 680.19 734.74 676.33 744.60   Q 674.22 750.00 670.87 756.09   A 0.70 0.70 0.0 0 0 671.49 757.13   L 870.63 757.13   A 1.87 1.86 12.9 0 0 872.31 756.08   Q 877.87 744.67 884.51 729.88   C 886.94 724.48 889.67 719.65 892.12 714.86   A 0.76 0.76 0.0 0 0 891.44 713.75   L 760.40 713.75   A 0.23 0.23 0.0 0 1 760.19 713.43   L 772.12 686.95   A 1.36 1.34 -77.8 0 1 773.35 686.15   L 888.22 686.15   A 1.61 1.60 12.3 0 0 889.68 685.22   L 908.96 643.35   A 0.66 0.66 0.0 0 0 908.36 642.42   L 771.49 642.42"/>
<path stroke="#dbc6ab" d="M 999.57 642.20   Q 1005.17 630.42 1006.34 627.37   C 1009.10 620.13 1012.31 615.92 1019.70 615.85   Q 1032.35 615.75 1127.62 615.78   A 1.81 1.81 0.0 0 0 1129.22 614.82   Q 1136.19 601.58 1142.12 588.09   Q 1144.14 583.49 1146.25 579.67   Q 1150.12 572.64 1150.60 571.39   Q 1150.76 570.97 1150.71 570.79   Q 1150.55 570.24 1149.95 570.25   Q 1138.64 570.50 1133.75 570.50   Q 1065.21 570.57 1029.75 570.46   Q 1007.65 570.38 1001.78 570.95   C 990.23 572.06 976.93 576.72 967.45 584.98   C 961.13 590.49 956.67 594.80 954.09 600.35   Q 945.87 617.98 939.12 633.14   C 933.68 645.37 924.28 661.12 933.81 674.35   C 938.40 680.73 947.99 684.31 956.01 685.07   Q 959.27 685.38 964.51 685.37   Q 1024.17 685.32 1044.75 685.42   C 1047.63 685.43 1051.44 686.27 1049.46 690.22   Q 1046.37 696.42 1043.84 702.97   C 1041.02 710.25 1038.58 713.78 1030.52 713.78   Q 922.16 713.76 908.04 713.90   A 1.15 1.14 11.7 0 0 907.01 714.57   L 887.71 756.48   A 0.49 0.49 0.0 0 0 888.15 757.17   Q 1019.06 757.05 1035.08 757.14   Q 1053.84 757.24 1060.30 755.70   C 1074.95 752.22 1089.24 742.36 1095.87 728.37   Q 1098.32 723.19 1116.62 682.48   C 1121.81 670.92 1124.25 658.27 1113.43 649.26   C 1107.94 644.69 1100.73 642.99 1093.98 642.92   Q 1072.83 642.70 999.88 642.70   A 0.35 0.35 0.0 0 1 999.57 642.20"/>
<path stroke="#dbc6ab" d="M 223.13 642.24   Q 233.83 639.53 244.05 638.10   Q 246.21 637.80 246.90 636.18   Q 251.82 624.62 252.76 622.99   Q 256.72 616.12 265.03 616.09   Q 319.57 615.93 375.50 616.13   Q 383.37 616.16 388.26 615.93   A 1.92 1.89 -78.0 0 0 389.88 614.86   L 411.09 571.19   A 0.55 0.55 0.0 0 0 410.59 570.40   Q 405.95 570.39 398.75 570.40   Q 319.86 570.48 260.70 570.55   Q 245.81 570.57 238.94 572.02   C 220.78 575.85 203.54 586.12 193.95 602.31   Q 192.29 605.12 185.62 620.10   Q 157.87 682.42 125.65 756.53   A 0.41 0.41 0.0 0 0 126.03 757.10   L 191.97 757.10   A 1.67 1.66 12.0 0 0 193.49 756.12   L 224.64 686.93   A 1.29 1.28 12.1 0 1 225.81 686.18   L 352.07 686.18   A 1.56 1.55 12.0 0 0 353.49 685.26   L 372.44 643.18   A 0.50 0.50 0.0 0 0 371.98 642.47   L 223.16 642.47   A 0.12 0.12 0.0 0 1 223.13 642.24"/>
<path stroke="#dbc6ab" d="M 494.41 570.54   L 430.50 570.54   A 1.82 1.81 -76.2 0 0 428.89 571.52   C 422.15 584.36 417.37 597.50 410.79 610.30   C 405.76 620.10 401.82 631.40 396.76 641.77   C 392.81 649.87 390.68 655.85 386.74 663.53   Q 383.29 670.27 380.32 678.09   C 376.88 687.15 372.54 694.95 368.82 703.72   Q 358.50 728.07 345.87 756.20   A 0.64 0.64 0.0 0 0 346.45 757.10   L 408.81 757.10   A 0.90 0.87 -77.3 0 0 409.61 756.58   L 494.91 571.32   A 0.55 0.55 0.0 0 0 494.41 570.54"/>
<path stroke="#dbc6ab" d="M 1329.93 616.04   A 0.58 0.58 0.0 0 0 1330.46 615.70   L 1350.88 571.33   A 0.58 0.58 0.0 0 0 1350.35 570.51   L 1165.50 570.51   A 0.58 0.58 0.0 0 0 1164.97 570.85   L 1144.65 615.00   A 0.58 0.58 0.0 0 0 1145.18 615.82   L 1208.17 615.82   A 0.58 0.58 0.0 0 1 1208.70 616.63   L 1147.27 756.29   A 0.58 0.58 0.0 0 0 1147.80 757.10   L 1209.68 757.10   A 0.58 0.58 0.0 0 0 1210.20 756.76   L 1273.42 616.38   A 0.58 0.58 0.0 0 1 1273.94 616.04   L 1329.93 616.04"/>
<path stroke="#8a8a8a" d="M 788.48 794.48   A 0.65 0.65 0.0 0 0 787.88 794.87   L 728.54 933.92   A 0.65 0.65 0.0 0 0 729.13 934.83   L 778.21 934.83   A 0.65 0.65 0.0 0 0 778.81 934.44   L 838.15 795.39   A 0.65 0.65 0.0 0 0 837.56 794.48   L 788.48 794.48"/>
<path stroke="#8a8a8a" d="M 1148.46 869.24   A 0.37 0.36 45.6 0 1 1147.79 869.23   L 1116.78 794.98   A 0.82 0.81 -11.4 0 0 1116.03 794.49   L 1065.30 794.49   A 1.56 1.54 11.4 0 0 1063.87 795.43   L 1004.68 934.11   A 0.51 0.51 0.0 0 0 1005.15 934.82   L 1047.91 934.82   A 0.76 0.74 10.9 0 0 1048.61 934.36   L 1082.88 854.07   A 0.35 0.35 0.0 0 1 1083.52 854.06   L 1119.25 933.95   A 1.48 1.47 -12.0 0 0 1120.60 934.82   L 1161.18 934.82   A 1.21 1.20 11.4 0 0 1162.29 934.09   L 1221.51 795.33   A 0.48 0.48 0.0 0 0 1221.09 794.66   C 1207.35 794.15 1192.71 794.62 1181.23 794.66   A 1.43 1.42 -78.4 0 0 1179.92 795.53   L 1148.46 869.24"/>
<path stroke="#8a8a8a" d="M 67.48 934.82   Q 121.36 934.81 192.11 934.82   C 203.06 934.82 209.74 933.81 218.91 929.41   Q 234.00 922.16 240.67 906.64   C 244.85 896.91 247.32 890.28 251.51 880.46   Q 260.50 859.43 273.29 828.11   Q 276.89 819.31 274.46 811.13   C 271.44 801.00 261.11 795.89 251.28 794.84   Q 248.48 794.54 235.20 794.55   Q 195.75 794.57 125.99 794.55   A 0.78 0.78 0.0 0 0 125.27 795.03   L 67.02 934.13   A 0.50 0.49 11.6 0 0 67.48 934.82"/>
<path stroke="#8a8a8a" d="M 312.00 848.07   L 327.27 844.99   A 3.24 3.23 5.6 0 0 329.62 843.06   C 330.88 840.05 333.14 833.30 335.75 831.12   Q 338.69 828.66 341.77 828.67   Q 402.25 828.74 435.49 828.64   A 1.55 1.52 11.6 0 0 436.88 827.74   L 451.59 795.08   A 0.40 0.40 0.0 0 0 451.22 794.51   Q 365.21 794.65 344.68 794.47   Q 329.74 794.34 323.44 795.96   C 308.84 799.70 295.83 808.24 289.69 822.39   C 282.13 839.79 271.80 865.40 262.06 888.02   Q 255.41 903.44 253.19 909.38   C 247.50 924.59 258.00 934.79 272.75 934.80   Q 347.70 934.84 397.22 934.80   A 0.71 0.70 11.3 0 0 397.87 934.37   L 411.09 903.40   A 0.63 0.62 11.9 0 0 410.52 902.53   C 375.49 902.24 338.52 902.64 311.76 902.44   Q 309.46 902.42 308.08 901.41   A 1.54 1.52 14.1 0 1 307.49 900.44   Q 307.12 898.18 307.61 897.09   Q 313.12 884.78 314.65 880.93   A 1.18 1.17 10.5 0 1 315.75 880.18   L 405.79 880.18   A 1.04 1.03 -78.3 0 0 406.74 879.55   L 419.78 849.00   A 0.47 0.47 0.0 0 0 419.35 848.35   L 312.03 848.35   A 0.14 0.14 0.0 0 1 312.00 848.07"/>
<path stroke="#8a8a8a" d="M 588.71 828.89   A 0.68 0.68 0.0 0 0 589.33 828.49   L 604.19 795.50   A 0.68 0.68 0.0 0 0 603.57 794.54   L 463.27 794.54   A 0.68 0.68 0.0 0 0 462.65 794.95   L 448.13 827.95   A 0.68 0.68 0.0 0 0 448.75 828.90   L 493.65 828.90   A 0.68 0.68 0.0 0 1 494.28 829.84   L 450.70 933.88   A 0.68 0.68 0.0 0 0 451.33 934.82   L 498.50 934.82   A 0.68 0.68 0.0 0 0 499.13 934.41   L 543.98 829.30   A 0.68 0.68 0.0 0 1 544.61 828.89   L 588.71 828.89"/>
<path stroke="#8a8a8a" d="M 555.22 934.84   L 602.57 934.81   A 1.00 0.99 -78.2 0 0 603.48 934.21   L 618.10 899.95   A 1.10 1.10 0.0 0 1 619.11 899.29   L 677.10 899.29   A 0.45 0.45 0.0 0 1 677.51 899.91   L 662.96 933.99   A 0.61 0.60 11.5 0 0 663.52 934.83   L 711.05 934.83   A 1.23 1.21 -78.9 0 0 712.18 934.06   C 716.14 924.22 719.97 916.29 723.87 906.68   Q 728.02 896.44 732.39 886.30   Q 744.98 857.13 757.54 828.26   C 766.21 808.34 755.42 794.57 734.75 794.57   Q 726.62 794.57 654.18 794.50   Q 642.64 794.49 638.35 795.23   C 623.83 797.73 611.36 805.42 603.39 818.01   Q 601.17 821.52 598.87 827.89   C 595.88 836.17 592.15 843.60 588.28 852.92   Q 563.64 912.12 556.34 929.36   Q 554.55 933.61 554.62 934.29   A 0.60 0.60 0.0 0 0 555.22 934.84"/>
<path stroke="#8a8a8a" d="M 861.31 902.45   A 0.72 0.72 0.0 0 1 860.65 901.44   L 907.24 795.56   A 0.72 0.72 0.0 0 0 906.58 794.55   L 857.19 794.55   A 0.72 0.72 0.0 0 0 856.52 794.99   L 797.28 933.82   A 0.72 0.72 0.0 0 0 797.94 934.82   L 927.39 934.82   A 0.72 0.72 0.0 0 0 928.06 934.38   L 941.25 903.45   A 0.72 0.72 0.0 0 0 940.59 902.45   L 861.31 902.45"/>
<path stroke="#8a8a8a" d="M 999.61 794.48   A 0.77 0.77 0.0 0 0 998.90 794.95   L 939.67 933.73   A 0.77 0.77 0.0 0 0 940.38 934.80   L 987.95 934.80   A 0.77 0.77 0.0 0 0 988.66 934.33   L 1047.89 795.55   A 0.77 0.77 0.0 0 0 1047.18 794.48   L 999.61 794.48"/>
<path stroke="#8a8a8a" d="M 1307.16 882.58   Q 1306.81 883.35 1301.58 895.46   C 1299.66 899.90 1297.33 902.55 1292.49 902.52   Q 1271.82 902.37 1249.51 902.57   Q 1246.79 902.60 1244.71 901.76   C 1241.75 900.58 1242.77 895.98 1243.79 893.80   Q 1248.41 883.93 1252.84 873.05   C 1258.12 860.10 1261.52 852.95 1266.90 839.95   C 1269.52 833.63 1271.00 828.92 1277.74 828.87   Q 1313.49 828.60 1356.28 828.80   A 0.95 0.95 0.0 0 0 1357.15 828.23   L 1371.54 795.52   A 0.61 0.60 13.2 0 0 1371.01 794.67   Q 1365.97 794.47 1363.76 794.47   Q 1319.73 794.63 1277.48 794.45   Q 1264.41 794.39 1258.18 795.95   C 1245.16 799.19 1232.14 808.00 1226.64 820.64   Q 1215.82 845.56 1190.58 905.32   Q 1188.62 909.95 1188.10 914.50   C 1186.59 927.78 1197.75 934.80 1209.76 934.81   Q 1260.40 934.85 1302.75 934.79   C 1318.96 934.77 1333.62 925.80 1340.26 910.74   Q 1341.80 907.26 1365.15 852.48   A 0.45 0.45 0.0 0 0 1364.74 851.86   L 1285.33 851.86   A 1.25 1.24 -78.7 0 0 1284.18 852.63   L 1272.26 881.10   A 0.58 0.58 0.0 0 0 1272.80 881.91   Q 1279.85 881.78 1286.48 882.07   C 1292.87 882.35 1299.63 881.81 1306.54 881.63   A 0.67 0.67 0.0 0 1 1307.16 882.58"/>
<path stroke="#8a8a8a" d="M 1207.15 1022.13   Q 1207.15 1022.09 1222.21 1023.88   C 1229.40 1024.74 1236.86 1027.75 1240.50 1034.43   Q 1244.33 1041.47 1245.42 1053.53   A 0.24 0.24 0.0 0 0 1245.56 1053.73   L 1245.82 1053.84   A 0.21 0.21 0.0 0 0 1246.11 1053.65   Q 1246.33 1045.66 1249.02 1038.30   C 1252.86 1027.85 1261.86 1024.04 1272.21 1023.33   Q 1283.62 1022.54 1283.62 1022.17   Q 1283.62 1021.79 1272.22 1021.00   C 1261.86 1020.28 1252.87 1016.46 1249.03 1006.00   Q 1246.35 998.64 1246.14 990.65   A 0.21 0.21 0.0 0 0 1245.85 990.46   L 1245.59 990.57   A 0.24 0.24 0.0 0 0 1245.45 990.77   Q 1244.35 1002.83 1240.51 1009.87   C 1236.87 1016.54 1229.40 1019.55 1222.22 1020.40   Q 1207.15 1022.18 1207.15 1022.13"/>
<path stroke="#8a8a8a" d="M 200.99 1034.38   Q 201.49 1034.38 201.86 1033.84   Q 207.59 1025.59 214.20 1016.27   A 0.27 0.27 0.0 0 1 214.69 1016.43   L 214.69 1037.48   A 0.82 0.82 0.0 0 0 215.51 1038.30   L 218.93 1038.30   A 0.76 0.76 0.0 0 0 219.69 1037.54   L 219.69 1008.74   A 0.74 0.74 0.0 0 0 218.95 1008.00   L 215.17 1008.00   A 1.12 1.10 -73.3 0 0 214.24 1008.51   Q 210.78 1013.75 201.76 1026.31   Q 201.28 1027.00 200.98 1027.00   Q 200.72 1027.00 200.23 1026.31   Q 191.21 1013.75 187.75 1008.51   A 1.12 1.10 73.3 0 0 186.82 1008.00   L 183.04 1008.00   A 0.74 0.74 0.0 0 0 182.30 1008.74   L 182.31 1037.54   A 0.76 0.76 0.0 0 0 183.07 1038.30   L 186.49 1038.30   A 0.82 0.82 0.0 0 0 187.31 1037.48   L 187.30 1016.43   A 0.27 0.27 0.0 0 1 187.79 1016.27   Q 194.41 1025.59 200.13 1033.84   Q 200.51 1034.38 200.99 1034.38"/>
<path stroke="#8a8a8a" d="M 295.8845 1014.2811   A 6.30 6.30 0.0 0 0 289.5735 1007.9922   L 269.0936 1008.0279   A 6.30 6.30 0.0 0 0 262.8046 1014.3389   L 262.8355 1032.0389   A 6.30 6.30 0.0 0 0 269.1465 1038.3278   L 289.6264 1038.2921   A 6.30 6.30 0.0 0 0 295.9154 1031.9811   L 295.8845 1014.2811"/>
<path stroke="#8a8a8a" d="M 367.42 1022.17   C 370.92 1020.61 370.22 1017.20 370.14 1013.89   Q 369.99 1007.84 362.53 1007.98   Q 349.83 1008.22 340.21 1007.98   A 0.56 0.55 -89.5 0 0 339.65 1008.54   L 339.65 1037.89   A 0.36 0.36 0.0 0 0 339.99 1038.25   Q 350.86 1038.71 364.42 1038.09   C 371.63 1037.76 371.08 1030.11 370.02 1025.17   A 1.49 1.48 7.5 0 0 369.25 1024.17   L 367.40 1023.24   A 0.59 0.59 0.0 0 1 367.42 1022.17"/>
<path stroke="#8a8a8a" d="M 416.36 1008.59   A 0.59 0.59 0.0 0 0 415.77 1008.00   L 411.71 1008.00   A 0.59 0.59 0.0 0 0 411.12 1008.59   L 411.12 1037.69   A 0.59 0.59 0.0 0 0 411.71 1038.28   L 415.77 1038.28   A 0.59 0.59 0.0 0 0 416.36 1037.69   L 416.36 1008.59"/>
<path stroke="#8a8a8a" d="M 485.48 1038.30   A 0.66 0.66 0.0 0 0 486.14 1037.64   L 486.14 1034.40   A 0.66 0.66 0.0 0 0 485.48 1033.74   L 464.33 1033.74   A 0.66 0.66 0.0 0 1 463.67 1033.08   L 463.67 1008.73   A 0.66 0.66 0.0 0 0 463.01 1008.07   L 459.02 1008.07   A 0.66 0.66 0.0 0 0 458.36 1008.73   L 458.36 1037.64   A 0.66 0.66 0.0 0 0 459.02 1038.30   L 485.48 1038.30"/>
<path stroke="#8a8a8a" d="M 529.54 1033.81   A 0.65 0.65 0.0 0 1 528.89 1033.16   L 528.89 1025.48   A 0.65 0.65 0.0 0 1 529.54 1024.83   L 544.09 1024.83   A 0.65 0.65 0.0 0 0 544.74 1024.18   L 544.74 1021.23   A 0.65 0.65 0.0 0 0 544.09 1020.58   L 529.50 1020.58   A 0.65 0.65 0.0 0 1 528.85 1019.93   L 528.85 1013.16   A 0.65 0.65 0.0 0 1 529.50 1012.51   L 551.94 1012.51   A 0.65 0.65 0.0 0 0 552.59 1011.86   L 552.59 1008.71   A 0.65 0.65 0.0 0 0 551.94 1008.06   L 524.07 1008.06   A 0.65 0.65 0.0 0 0 523.42 1008.71   L 523.42 1037.61   A 0.65 0.65 0.0 0 0 524.07 1038.26   L 552.02 1038.26   A 0.65 0.65 0.0 0 0 552.67 1037.61   L 552.67 1034.46   A 0.65 0.65 0.0 0 0 552.02 1033.81   L 529.54 1033.81"/>
<path stroke="#8a8a8a" d="M 703.15 1030.79   Q 709.14 1030.79 711.95 1030.89   A 1.07 1.06 -13.2 0 1 712.85 1031.44   L 716.13 1037.40   A 1.70 1.68 -14.4 0 0 717.62 1038.27   L 721.23 1038.27   A 0.63 0.63 0.0 0 0 721.78 1037.33   L 706.00 1008.73   A 1.23 1.22 -11.4 0 0 705.02 1008.09   Q 704.12 1008.00 703.13 1008.00   Q 702.15 1008.01 701.24 1008.09   A 1.23 1.22 11.3 0 0 700.27 1008.73   L 684.53 1037.35   A 0.63 0.63 0.0 0 0 685.08 1038.29   L 688.70 1038.29   A 1.70 1.68 14.3 0 0 690.18 1037.42   L 693.46 1031.45   A 1.07 1.06 13.1 0 1 694.35 1030.90   Q 697.16 1030.80 703.15 1030.79"/>
<path stroke="#8a8a8a" d="M 787.03 1033.67   L 766.07 1033.84   A 0.65 0.65 0.0 0 1 765.42 1033.20   L 765.37 1008.69   A 0.64 0.64 0.0 0 0 764.73 1008.05   L 760.73 1008.10   A 0.61 0.60 -0.4 0 0 760.13 1008.70   L 760.06 1037.81   A 0.40 0.40 0.0 0 0 760.46 1038.21   L 786.85 1038.39   A 1.00 0.99 1.2 0 0 787.86 1037.43   L 787.94 1034.60   A 0.90 0.90 0.0 0 0 787.03 1033.67"/>
<path stroke="#8a8a8a" d="M 840.48 1030.77   Q 846.48 1030.78 849.28 1030.88   A 1.07 1.06 -13.0 0 1 850.18 1031.44   L 853.45 1037.41   A 1.70 1.68 -14.3 0 0 854.93 1038.28   L 858.54 1038.28   A 0.63 0.63 0.0 0 0 859.10 1037.34   L 843.38 1008.71   A 1.23 1.22 -11.2 0 0 842.41 1008.07   Q 841.51 1007.98 840.52 1007.98   Q 839.54 1007.97 838.63 1008.06   A 1.23 1.22 11.4 0 0 837.66 1008.70   L 821.85 1037.28   A 0.63 0.63 0.0 0 0 822.40 1038.22   L 826.01 1038.23   A 1.70 1.68 14.5 0 0 827.49 1037.36   L 830.79 1031.40   A 1.07 1.06 13.2 0 1 831.69 1030.85   Q 834.49 1030.76 840.48 1030.77"/>
<path stroke="#8a8a8a" d="M 925.76 1022.23   C 929.26 1020.69 928.57 1017.29 928.50 1013.99   Q 928.37 1007.96 920.93 1008.07   Q 908.27 1008.27 898.68 1008.00   A 0.56 0.55 -89.3 0 0 898.12 1008.56   L 898.03 1037.82   A 0.36 0.36 0.0 0 0 898.37 1038.18   Q 909.21 1038.67 922.72 1038.09   C 929.91 1037.79 929.39 1030.16 928.35 1025.23   A 1.48 1.48 0.0 0 0 927.58 1024.23   L 925.74 1023.30   A 0.59 0.59 0.0 0 1 925.76 1022.23"/>
<path stroke="#8a8a8a" d="M 985.05 1030.80   Q 991.04 1030.81 993.84 1030.91   A 1.07 1.06 -13.1 0 1 994.74 1031.46   L 998.02 1037.42   A 1.69 1.68 -14.3 0 0 999.50 1038.29   L 1003.11 1038.29   A 0.63 0.63 0.0 0 0 1003.66 1037.35   L 987.92 1008.76   A 1.23 1.22 -11.3 0 0 986.95 1008.12   Q 986.04 1008.03 985.06 1008.03   Q 984.08 1008.03 983.17 1008.12   A 1.23 1.22 11.3 0 0 982.20 1008.76   L 966.44 1037.34   A 0.63 0.63 0.0 0 0 966.99 1038.28   L 970.60 1038.28   A 1.69 1.68 14.4 0 0 972.08 1037.41   L 975.36 1031.45   A 1.07 1.06 13.2 0 1 976.26 1030.90   Q 979.06 1030.80 985.05 1030.80"/>
<path stroke="#8a8a8a" d="M 1061.00 1034.28   Q 1061.50 1034.28 1061.88 1033.74   Q 1067.58 1025.53 1074.16 1016.24   A 0.27 0.27 0.0 0 1 1074.64 1016.40   L 1074.65 1037.36   A 0.82 0.82 0.0 0 0 1075.47 1038.18   L 1078.87 1038.18   A 0.76 0.76 0.0 0 0 1079.63 1037.42   L 1079.62 1008.74   A 0.74 0.74 0.0 0 0 1078.88 1008.01   L 1075.12 1008.01   A 1.11 1.10 -73.3 0 0 1074.19 1008.52   Q 1070.75 1013.73 1061.78 1026.25   Q 1061.29 1026.93 1061.00 1026.93   Q 1060.74 1026.93 1060.25 1026.25   Q 1051.27 1013.74 1047.82 1008.53   A 1.11 1.10 73.3 0 0 1046.89 1008.02   L 1043.13 1008.02   A 0.74 0.74 0.0 0 0 1042.39 1008.76   L 1042.41 1037.44   A 0.76 0.76 0.0 0 0 1043.16 1038.19   L 1046.57 1038.19   A 0.82 0.82 0.0 0 0 1047.39 1037.37   L 1047.37 1016.41   A 0.27 0.27 0.0 0 1 1047.86 1016.25   Q 1054.45 1025.53 1060.15 1033.74   Q 1060.53 1034.28 1061.00 1034.28"/>
<path stroke="#8a8a8a" d="M 1136.88 1030.77   Q 1142.88 1030.78 1145.68 1030.88   A 1.08 1.06 -13.1 0 1 1146.58 1031.43   L 1149.85 1037.40   A 1.70 1.68 -14.3 0 0 1151.34 1038.28   L 1154.95 1038.28   A 0.63 0.63 0.0 0 0 1155.50 1037.34   L 1139.78 1008.70   A 1.23 1.22 -11.2 0 0 1138.81 1008.06   Q 1137.90 1007.97 1136.92 1007.97   Q 1135.93 1007.97 1135.03 1008.06   A 1.23 1.22 11.4 0 0 1134.05 1008.69   L 1118.25 1037.28   A 0.63 0.63 0.0 0 0 1118.79 1038.23   L 1122.41 1038.23   A 1.70 1.68 14.4 0 0 1123.89 1037.36   L 1127.18 1031.40   A 1.08 1.06 13.2 0 1 1128.09 1030.85   Q 1130.89 1030.76 1136.88 1030.77"/>
<path stroke="#8a8a8a" d="M 596.66 1032.57   L 592.59 1032.57   A 0.75 0.75 0.0 0 0 591.84 1033.32   L 591.84 1037.52   A 0.84 0.84 0.0 0 0 592.68 1038.36   L 593.58 1038.36   A 0.54 0.54 0.0 0 1 594.06 1039.14   L 592.36 1042.51   A 1.07 1.07 0.0 0 0 593.55 1044.03   C 597.65 1043.08 597.72 1036.61 597.29 1033.12   A 0.64 0.63 -3.6 0 0 596.66 1032.57"/>
<path stroke="#8a8a8a" d="M 527.21 427.01   C 528.30 424.55 528.64 420.07 525.52 418.91   Q 522.15 417.65 517.75 417.69   Q 506.78 417.78 468.54 417.66   Q 459.78 417.64 456.41 424.47   C 447.79 441.89 436.71 466.16 426.60 486.86   C 422.37 495.51 434.64 494.27 439.50 494.28   Q 454.69 494.33 485.61 494.26   C 491.43 494.24 495.32 493.52 497.89 488.37   Q 507.14 469.82 516.76 448.79   C 519.96 441.78 524.06 434.06 527.21 427.01"/>
<path stroke="#8a8a8a" d="M 629.29 456.16   Q 629.50 456.34 629.90 456.34   Q 683.55 456.40 690.88 456.36   A 0.96 0.96 0.0 0 0 691.72 455.83   Q 699.97 438.84 705.64 425.83   C 707.86 420.72 704.99 417.94 699.98 417.89   Q 677.48 417.69 660.95 417.65   C 652.07 417.64 647.17 418.41 643.22 426.39   Q 636.91 439.14 629.20 455.74   A 0.37 0.36 33.5 0 0 629.29 456.16"/>
<path stroke="#8a8a8a" d="M 1112.63 456.11   Q 1112.84 456.29 1113.24 456.29   Q 1166.63 456.36 1173.93 456.32   A 0.96 0.96 0.0 0 0 1174.77 455.79   Q 1182.98 438.88 1188.62 425.94   C 1190.83 420.85 1187.98 418.08 1182.99 418.03   Q 1160.60 417.83 1144.15 417.79   C 1135.31 417.77 1130.43 418.54 1126.50 426.48   Q 1120.22 439.17 1112.54 455.69   A 0.37 0.36 33.5 0 0 1112.63 456.11"/>
<path stroke="#8a8a8a" d="M 129.49 901.90   A 0.59 0.58 -76.6 0 0 129.99 902.72   Q 133.82 902.94 137.50 902.90   Q 148.34 902.78 183.67 902.85   C 189.69 902.87 194.02 902.16 196.49 896.74   C 205.06 877.93 212.70 859.04 221.10 839.80   C 222.01 837.71 222.98 834.55 222.23 832.52   Q 220.95 829.08 216.77 829.03   Q 196.00 828.77 161.43 828.91   A 1.20 1.19 -78.4 0 0 160.33 829.64   L 129.49 901.90"/>
<path stroke="#8a8a8a" d="M 632.40 866.63   L 692.43 866.63   A 1.39 1.38 -77.7 0 0 693.69 865.81   Q 698.62 854.78 705.95 837.21   C 708.04 832.18 705.66 828.75 700.32 828.65   Q 692.55 828.50 656.77 828.63   C 649.98 828.66 646.74 831.90 644.15 838.60   C 642.85 841.99 640.50 846.07 639.06 849.86   Q 636.16 857.47 632.02 866.02   A 0.43 0.42 -77.2 0 0 632.40 866.63"/>
<path stroke="#8a8a8a" d="M 290.6360 1013.9895   A 1.45 1.45 0.0 0 0 289.1885 1012.5369   L 269.7885 1012.5031   A 1.45 1.45 0.0 0 0 268.3360 1013.9506   L 268.3040 1032.2505   A 1.45 1.45 0.0 0 0 269.7515 1033.7031   L 289.1515 1033.7369   A 1.45 1.45 0.0 0 0 290.6040 1032.2894   L 290.6360 1013.9895"/>
<path stroke="#8a8a8a" d="M 344.92 1012.83   L 344.94 1020.21   A 0.41 0.41 0.0 0 0 345.35 1020.62   L 361.69 1020.59   A 3.21 2.94 -0.1 0 0 364.89 1017.64   L 364.89 1015.32   A 3.21 2.94 -0.1 0 0 361.67 1012.39   L 345.33 1012.42   A 0.41 0.41 0.0 0 0 344.92 1012.83"/>
<path stroke="#8a8a8a" d="M 345.00 1025.17   L 344.88 1032.97   A 0.58 0.58 0.0 0 0 345.45 1033.56   L 362.11 1033.82   A 2.78 2.55 0.9 0 0 364.93 1031.32   L 364.99 1027.46   A 2.78 2.55 0.9 0 0 362.25 1024.86   L 345.59 1024.60   A 0.58 0.58 0.0 0 0 345.00 1025.17"/>
<path stroke="#8a8a8a" d="M 696.14 1025.96   A 0.40 0.40 0.0 0 0 696.49 1026.55   L 709.71 1026.57   A 0.40 0.40 0.0 0 0 710.07 1025.99   L 703.48 1013.38   A 0.40 0.40 0.0 0 0 702.77 1013.37   L 696.14 1025.96"/>
<path stroke="#8a8a8a" d="M 833.53 1026.02   A 0.39 0.39 0.0 0 0 833.88 1026.59   L 847.11 1026.54   A 0.39 0.39 0.0 0 0 847.46 1025.97   L 840.80 1013.44   A 0.39 0.39 0.0 0 0 840.11 1013.44   L 833.53 1026.02"/>
<path stroke="#8a8a8a" d="M 903.39 1013.17   L 903.47 1020.09   A 0.68 0.68 0.0 0 0 904.16 1020.76   L 920.32 1020.56   A 2.86 2.77 -0.7 0 0 923.15 1017.76   L 923.11 1015.02   A 2.86 2.77 -0.7 0 0 920.22 1012.28   L 904.06 1012.48   A 0.68 0.68 0.0 0 0 903.39 1013.17"/>
<path stroke="#8a8a8a" d="M 903.42 1024.97   L 903.32 1033.25   A 0.31 0.31 0.0 0 0 903.63 1033.56   L 920.18 1033.76   A 3.10 2.36 0.7 0 0 923.30 1031.44   L 923.35 1027.26   A 3.10 2.36 0.7 0 0 920.28 1024.86   L 903.74 1024.66   A 0.31 0.31 0.0 0 0 903.42 1024.97"/>
<path stroke="#8a8a8a" d="M 977.79 1026.12   A 0.33 0.33 0.0 0 0 978.08 1026.61   L 991.82 1026.61   A 0.33 0.33 0.0 0 0 992.11 1026.12   L 985.24 1013.57   A 0.33 0.33 0.0 0 0 984.66 1013.57   L 977.79 1026.12"/>
<path stroke="#8a8a8a" d="M 1136.92 1013.25   A 0.30 0.30 0.0 0 0 1136.39 1013.26   L 1129.91 1026.11   A 0.30 0.30 0.0 0 0 1130.18 1026.55   L 1143.74 1026.55   A 0.30 0.30 0.0 0 0 1144.01 1026.11   L 1136.92 1013.25"/>
</g>
<path xmlns="http://www.w3.org/2000/svg" fill="#ffffff" d="M 1448.00 0.00   L 1448.00 1448.00   L 0.00 1448.00   L 0.00 0.00   L 1448.00 0.00   Z   M 358.19 494.12   Q 353.11 494.13 269.51 494.21   C 267.11 494.21 262.51 494.29 261.40 491.84   Q 260.43 489.69 261.39 487.63   Q 267.65 474.17 288.97 429.72   C 292.88 421.57 295.16 417.68 304.75 417.68   Q 377.36 417.72 392.19 417.67   A 1.01 1.01 0.0 0 0 393.09 417.12   L 409.97 383.70   A 0.38 0.38 0.0 0 0 409.63 383.14   Q 313.50 383.12 310.00 383.08   Q 291.31 382.88 286.04 383.79   C 271.60 386.30 259.79 392.88 250.02 403.84   Q 246.78 407.46 241.15 419.39   Q 211.76 481.66 204.38 497.87   C 201.79 503.57 201.02 511.56 204.52 517.18   C 209.13 524.59 217.84 527.52 226.27 527.51   Q 296.77 527.43 341.95 527.48   A 1.48 1.47 -76.6 0 0 343.29 526.65   L 358.70 494.92   A 0.56 0.56 0.0 0 0 358.19 494.12   Z   M 581.92 398.13   C 579.68 390.92 571.68 386.00 564.74 384.46   Q 558.65 383.11 551.50 383.11   Q 464.53 383.12 458.74 383.12   Q 447.16 383.11 434.94 388.69   Q 417.53 396.64 409.58 413.36   Q 381.64 472.05 373.47 489.95   Q 370.96 495.44 369.35 499.35   C 365.39 508.97 367.88 519.33 377.54 524.24   Q 383.80 527.42 389.64 527.42   Q 483.51 527.54 499.26 527.43   C 517.34 527.30 534.70 516.38 541.90 499.88   C 545.99 490.51 550.53 481.79 554.94 471.67   C 556.18 468.83 558.05 465.67 559.25 462.98   Q 565.99 447.92 571.92 436.08   C 575.07 429.80 577.01 424.76 579.37 420.09   C 583.16 412.59 584.27 405.69 581.92 398.13   Z   M 544.55 527.45   L 595.10 527.45   A 0.98 0.97 12.2 0 0 595.99 526.88   L 612.95 490.05   A 1.16 1.15 12.4 0 1 614.00 489.38   L 673.41 489.38   A 0.46 0.46 0.0 0 1 673.83 490.03   L 656.92 526.76   A 0.49 0.49 0.0 0 0 657.37 527.46   L 706.65 527.46   A 1.61 1.61 0.0 0 0 708.13 526.49   C 712.27 516.90 716.94 508.28 720.53 499.81   Q 721.80 496.81 728.09 483.45   Q 734.49 469.88 741.69 454.51   C 748.94 439.02 754.50 428.42 760.56 414.07   Q 763.72 406.59 762.32 399.16   C 760.10 387.40 748.72 383.19 738.00 383.16   Q 708.04 383.10 651.13 383.12   Q 640.96 383.12 635.48 384.44   C 620.87 387.96 604.91 397.88 598.13 412.09   Q 589.71 429.76 581.35 447.20   Q 577.82 454.55 576.97 456.50   C 573.33 464.86 569.07 472.37 566.05 479.74   C 563.33 486.39 558.91 494.21 555.49 502.16   Q 555.02 503.27 544.07 526.71   A 0.53 0.52 12.2 0 0 544.55 527.45   Z   M 925.98 383.10   Q 906.97 383.20 826.25 383.05   Q 815.37 383.03 810.76 383.75   C 796.87 385.89 782.80 394.60 776.29 407.58   Q 769.87 420.37 762.38 437.36   C 758.87 445.32 756.42 449.32 757.23 456.76   C 758.43 467.83 770.12 472.95 780.01 472.94   Q 832.21 472.92 846.12 472.86   Q 848.27 472.85 849.45 473.39   A 2.12 2.12 0.0 0 1 850.53 476.13   Q 848.95 479.96 844.46 489.03   Q 841.86 494.27 836.25 494.21   Q 835.27 494.20 738.39 494.22   A 1.09 1.07 12.4 0 0 737.41 494.83   L 722.20 526.57   A 0.60 0.60 0.0 0 0 722.73 527.43   Q 724.86 527.48 741.25 527.49   Q 795.98 527.53 848.70 527.37   Q 856.33 527.35 859.75 526.59   C 868.17 524.71 876.04 519.68 881.58 513.32   Q 884.58 509.89 888.85 500.46   C 894.66 487.62 898.09 479.27 902.64 470.16   C 906.81 461.82 907.26 450.89 898.84 444.88   C 893.82 441.30 888.53 440.58 882.09 440.54   Q 860.55 440.40 811.46 440.48   A 0.42 0.42 0.0 0 1 811.09 439.87   Q 815.20 431.72 817.97 425.21   C 820.10 420.21 822.51 417.71 828.00 417.72   Q 890.10 417.74 908.69 417.68   A 1.26 1.24 12.9 0 0 909.79 417.00   L 926.50 383.93   A 0.58 0.57 13.3 0 0 925.98 383.10   Z   M 921.74 416.97   A 0.78 0.78 0.0 0 0 922.44 418.10   L 971.18 418.10   A 0.78 0.78 0.0 0 1 971.89 419.21   L 922.55 526.36   A 0.78 0.78 0.0 0 0 923.26 527.47   L 971.26 527.47   A 0.78 0.78 0.0 0 0 971.96 527.03   L 1023.94 418.55   A 0.78 0.78 0.0 0 1 1024.64 418.11   L 1069.71 418.11   A 0.78 0.78 0.0 0 0 1070.41 417.68   L 1087.30 384.24   A 0.78 0.78 0.0 0 0 1086.60 383.11   L 939.33 383.11   A 0.78 0.78 0.0 0 0 938.63 383.54   L 921.74 416.97   Z   M 1156.88 490.12   L 1139.95 526.89   A 0.41 0.40 12.2 0 0 1140.32 527.46   L 1189.56 527.46   A 1.27 1.26 12.4 0 0 1190.71 526.73   Q 1205.64 494.82 1207.87 490.26   C 1210.35 485.23 1213.24 477.97 1215.53 473.53   Q 1219.38 466.10 1221.49 461.10   C 1224.56 453.82 1229.15 445.73 1232.18 438.40   Q 1235.51 430.38 1240.80 420.13   C 1242.99 415.89 1245.52 409.19 1245.56 404.98   C 1245.69 388.43 1231.81 383.09 1217.51 383.11   Q 1153.21 383.22 1139.60 383.06   Q 1124.45 382.88 1117.52 384.58   Q 1101.29 388.56 1089.59 400.58   Q 1085.20 405.09 1082.33 411.11   C 1064.64 448.26 1052.53 474.68 1028.42 526.76   A 0.50 0.50 0.0 0 0 1028.88 527.47   L 1078.33 527.47   A 1.56 1.54 12.1 0 0 1079.74 526.57   L 1096.68 489.78   A 0.71 0.71 0.0 0 1 1097.33 489.36   L 1156.40 489.36   A 0.54 0.53 -77.5 0 1 1156.88 490.12   Z   M 1273.37 493.77   L 1326.77 383.81   A 0.50 0.49 13.0 0 0 1326.32 383.10   L 1275.31 383.10   A 1.74 1.74 0.0 0 0 1273.77 384.03   Q 1272.05 387.35 1268.14 395.09   Q 1263.82 403.64 1240.19 453.13   Q 1229.07 476.43 1205.15 526.79   A 0.48 0.48 0.0 0 0 1205.58 527.47   L 1340.63 527.47   A 1.23 1.22 -77.5 0 0 1341.74 526.76   L 1356.48 494.73   A 0.38 0.38 0.0 0 0 1356.13 494.19   L 1273.64 494.19   A 0.30 0.29 12.6 0 1 1273.37 493.77   Z   M 492.81 757.11   A 0.44 0.44 0.0 0 0 493.21 756.85   L 542.31 647.80   A 0.44 0.44 0.0 0 1 543.11 647.81   L 591.87 756.85   A 0.44 0.44 0.0 0 0 592.28 757.11   L 650.98 757.11   A 0.44 0.44 0.0 0 0 651.38 756.85   L 736.87 571.16   A 0.44 0.44 0.0 0 0 736.47 570.54   L 679.71 570.54   A 0.44 0.44 0.0 0 0 679.31 570.80   L 632.19 675.48   A 0.44 0.44 0.0 0 1 631.38 675.46   L 587.74 571.00   A 0.44 0.44 0.0 0 0 587.34 570.73   L 513.89 570.73   A 0.44 0.44 0.0 0 0 513.49 570.99   L 429.97 756.49   A 0.44 0.44 0.0 0 0 430.37 757.11   L 492.81 757.11   Z   M 771.49 642.42   A 0.23 0.23 0.0 0 1 771.45 641.97   L 791.67 637.90   A 2.98 2.97 6.5 0 0 793.79 636.22   L 802.81 616.63   A 0.90 0.87 -77.3 0 1 803.61 616.11   L 930.96 616.11   A 1.55 1.54 12.8 0 0 932.35 615.24   C 938.94 601.63 941.00 596.50 947.28 585.11   Q 949.85 580.45 953.74 571.15   A 0.48 0.47 11.4 0 0 953.30 570.49   L 756.85 570.49   A 1.80 1.79 -76.5 0 0 755.25 571.48   Q 748.53 584.88 743.19 596.98   C 737.34 610.22 732.97 619.43 727.40 631.37   C 723.84 639.02 721.09 646.25 717.78 652.80   Q 715.07 658.17 710.47 668.81   C 706.05 679.03 695.99 700.63 689.02 716.46   C 684.20 727.43 680.19 734.74 676.33 744.60   Q 674.22 750.00 670.87 756.09   A 0.70 0.70 0.0 0 0 671.49 757.13   L 870.63 757.13   A 1.87 1.86 12.9 0 0 872.31 756.08   Q 877.87 744.67 884.51 729.88   C 886.94 724.48 889.67 719.65 892.12 714.86   A 0.76 0.76 0.0 0 0 891.44 713.75   L 760.40 713.75   A 0.23 0.23 0.0 0 1 760.19 713.43   L 772.12 686.95   A 1.36 1.34 -77.8 0 1 773.35 686.15   L 888.22 686.15   A 1.61 1.60 12.3 0 0 889.68 685.22   L 908.96 643.35   A 0.66 0.66 0.0 0 0 908.36 642.42   L 771.49 642.42   Z   M 999.57 642.20   Q 1005.17 630.42 1006.34 627.37   C 1009.10 620.13 1012.31 615.92 1019.70 615.85   Q 1032.35 615.75 1127.62 615.78   A 1.81 1.81 0.0 0 0 1129.22 614.82   Q 1136.19 601.58 1142.12 588.09   Q 1144.14 583.49 1146.25 579.67   Q 1150.12 572.64 1150.60 571.39   Q 1150.76 570.97 1150.71 570.79   Q 1150.55 570.24 1149.95 570.25   Q 1138.64 570.50 1133.75 570.50   Q 1065.21 570.57 1029.75 570.46   Q 1007.65 570.38 1001.78 570.95   C 990.23 572.06 976.93 576.72 967.45 584.98   C 961.13 590.49 956.67 594.80 954.09 600.35   Q 945.87 617.98 939.12 633.14   C 933.68 645.37 924.28 661.12 933.81 674.35   C 938.40 680.73 947.99 684.31 956.01 685.07   Q 959.27 685.38 964.51 685.37   Q 1024.17 685.32 1044.75 685.42   C 1047.63 685.43 1051.44 686.27 1049.46 690.22   Q 1046.37 696.42 1043.84 702.97   C 1041.02 710.25 1038.58 713.78 1030.52 713.78   Q 922.16 713.76 908.04 713.90   A 1.15 1.14 11.7 0 0 907.01 714.57   L 887.71 756.48   A 0.49 0.49 0.0 0 0 888.15 757.17   Q 1019.06 757.05 1035.08 757.14   Q 1053.84 757.24 1060.30 755.70   C 1074.95 752.22 1089.24 742.36 1095.87 728.37   Q 1098.32 723.19 1116.62 682.48   C 1121.81 670.92 1124.25 658.27 1113.43 649.26   C 1107.94 644.69 1100.73 642.99 1093.98 642.92   Q 1072.83 642.70 999.88 642.70   A 0.35 0.35 0.0 0 1 999.57 642.20   Z   M 223.13 642.24   Q 233.83 639.53 244.05 638.10   Q 246.21 637.80 246.90 636.18   Q 251.82 624.62 252.76 622.99   Q 256.72 616.12 265.03 616.09   Q 319.57 615.93 375.50 616.13   Q 383.37 616.16 388.26 615.93   A 1.92 1.89 -78.0 0 0 389.88 614.86   L 411.09 571.19   A 0.55 0.55 0.0 0 0 410.59 570.40   Q 405.95 570.39 398.75 570.40   Q 319.86 570.48 260.70 570.55   Q 245.81 570.57 238.94 572.02   C 220.78 575.85 203.54 586.12 193.95 602.31   Q 192.29 605.12 185.62 620.10   Q 157.87 682.42 125.65 756.53   A 0.41 0.41 0.0 0 0 126.03 757.10   L 191.97 757.10   A 1.67 1.66 12.0 0 0 193.49 756.12   L 224.64 686.93   A 1.29 1.28 12.1 0 1 225.81 686.18   L 352.07 686.18   A 1.56 1.55 12.0 0 0 353.49 685.26   L 372.44 643.18   A 0.50 0.50 0.0 0 0 371.98 642.47   L 223.16 642.47   A 0.12 0.12 0.0 0 1 223.13 642.24   Z   M 494.41 570.54   L 430.50 570.54   A 1.82 1.81 -76.2 0 0 428.89 571.52   C 422.15 584.36 417.37 597.50 410.79 610.30   C 405.76 620.10 401.82 631.40 396.76 641.77   C 392.81 649.87 390.68 655.85 386.74 663.53   Q 383.29 670.27 380.32 678.09   C 376.88 687.15 372.54 694.95 368.82 703.72   Q 358.50 728.07 345.87 756.20   A 0.64 0.64 0.0 0 0 346.45 757.10   L 408.81 757.10   A 0.90 0.87 -77.3 0 0 409.61 756.58   L 494.91 571.32   A 0.55 0.55 0.0 0 0 494.41 570.54   Z   M 1329.93 616.04   A 0.58 0.58 0.0 0 0 1330.46 615.70   L 1350.88 571.33   A 0.58 0.58 0.0 0 0 1350.35 570.51   L 1165.50 570.51   A 0.58 0.58 0.0 0 0 1164.97 570.85   L 1144.65 615.00   A 0.58 0.58 0.0 0 0 1145.18 615.82   L 1208.17 615.82   A 0.58 0.58 0.0 0 1 1208.70 616.63   L 1147.27 756.29   A 0.58 0.58 0.0 0 0 1147.80 757.10   L 1209.68 757.10   A 0.58 0.58 0.0 0 0 1210.20 756.76   L 1273.42 616.38   A 0.58 0.58 0.0 0 1 1273.94 616.04   L 1329.93 616.04   Z   M 788.48 794.48   A 0.65 0.65 0.0 0 0 787.88 794.87   L 728.54 933.92   A 0.65 0.65 0.0 0 0 729.13 934.83   L 778.21 934.83   A 0.65 0.65 0.0 0 0 778.81 934.44   L 838.15 795.39   A 0.65 0.65 0.0 0 0 837.56 794.48   L 788.48 794.48   Z   M 1148.46 869.24   A 0.37 0.36 45.6 0 1 1147.79 869.23   L 1116.78 794.98   A 0.82 0.81 -11.4 0 0 1116.03 794.49   L 1065.30 794.49   A 1.56 1.54 11.4 0 0 1063.87 795.43   L 1004.68 934.11   A 0.51 0.51 0.0 0 0 1005.15 934.82   L 1047.91 934.82   A 0.76 0.74 10.9 0 0 1048.61 934.36   L 1082.88 854.07   A 0.35 0.35 0.0 0 1 1083.52 854.06   L 1119.25 933.95   A 1.48 1.47 -12.0 0 0 1120.60 934.82   L 1161.18 934.82   A 1.21 1.20 11.4 0 0 1162.29 934.09   L 1221.51 795.33   A 0.48 0.48 0.0 0 0 1221.09 794.66   C 1207.35 794.15 1192.71 794.62 1181.23 794.66   A 1.43 1.42 -78.4 0 0 1179.92 795.53   L 1148.46 869.24   Z   M 67.48 934.82   Q 121.36 934.81 192.11 934.82   C 203.06 934.82 209.74 933.81 218.91 929.41   Q 234.00 922.16 240.67 906.64   C 244.85 896.91 247.32 890.28 251.51 880.46   Q 260.50 859.43 273.29 828.11   Q 276.89 819.31 274.46 811.13   C 271.44 801.00 261.11 795.89 251.28 794.84   Q 248.48 794.54 235.20 794.55   Q 195.75 794.57 125.99 794.55   A 0.78 0.78 0.0 0 0 125.27 795.03   L 67.02 934.13   A 0.50 0.49 11.6 0 0 67.48 934.82   Z   M 312.00 848.07   L 327.27 844.99   A 3.24 3.23 5.6 0 0 329.62 843.06   C 330.88 840.05 333.14 833.30 335.75 831.12   Q 338.69 828.66 341.77 828.67   Q 402.25 828.74 435.49 828.64   A 1.55 1.52 11.6 0 0 436.88 827.74   L 451.59 795.08   A 0.40 0.40 0.0 0 0 451.22 794.51   Q 365.21 794.65 344.68 794.47   Q 329.74 794.34 323.44 795.96   C 308.84 799.70 295.83 808.24 289.69 822.39   C 282.13 839.79 271.80 865.40 262.06 888.02   Q 255.41 903.44 253.19 909.38   C 247.50 924.59 258.00 934.79 272.75 934.80   Q 347.70 934.84 397.22 934.80   A 0.71 0.70 11.3 0 0 397.87 934.37   L 411.09 903.40   A 0.63 0.62 11.9 0 0 410.52 902.53   C 375.49 902.24 338.52 902.64 311.76 902.44   Q 309.46 902.42 308.08 901.41   A 1.54 1.52 14.1 0 1 307.49 900.44   Q 307.12 898.18 307.61 897.09   Q 313.12 884.78 314.65 880.93   A 1.18 1.17 10.5 0 1 315.75 880.18   L 405.79 880.18   A 1.04 1.03 -78.3 0 0 406.74 879.55   L 419.78 849.00   A 0.47 0.47 0.0 0 0 419.35 848.35   L 312.03 848.35   A 0.14 0.14 0.0 0 1 312.00 848.07   Z   M 588.71 828.89   A 0.68 0.68 0.0 0 0 589.33 828.49   L 604.19 795.50   A 0.68 0.68 0.0 0 0 603.57 794.54   L 463.27 794.54   A 0.68 0.68 0.0 0 0 462.65 794.95   L 448.13 827.95   A 0.68 0.68 0.0 0 0 448.75 828.90   L 493.65 828.90   A 0.68 0.68 0.0 0 1 494.28 829.84   L 450.70 933.88   A 0.68 0.68 0.0 0 0 451.33 934.82   L 498.50 934.82   A 0.68 0.68 0.0 0 0 499.13 934.41   L 543.98 829.30   A 0.68 0.68 0.0 0 1 544.61 828.89   L 588.71 828.89   Z   M 555.22 934.84   L 602.57 934.81   A 1.00 0.99 -78.2 0 0 603.48 934.21   L 618.10 899.95   A 1.10 1.10 0.0 0 1 619.11 899.29   L 677.10 899.29   A 0.45 0.45 0.0 0 1 677.51 899.91   L 662.96 933.99   A 0.61 0.60 11.5 0 0 663.52 934.83   L 711.05 934.83   A 1.23 1.21 -78.9 0 0 712.18 934.06   C 716.14 924.22 719.97 916.29 723.87 906.68   Q 728.02 896.44 732.39 886.30   Q 744.98 857.13 757.54 828.26   C 766.21 808.34 755.42 794.57 734.75 794.57   Q 726.62 794.57 654.18 794.50   Q 642.64 794.49 638.35 795.23   C 623.83 797.73 611.36 805.42 603.39 818.01   Q 601.17 821.52 598.87 827.89   C 595.88 836.17 592.15 843.60 588.28 852.92   Q 563.64 912.12 556.34 929.36   Q 554.55 933.61 554.62 934.29   A 0.60 0.60 0.0 0 0 555.22 934.84   Z   M 861.31 902.45   A 0.72 0.72 0.0 0 1 860.65 901.44   L 907.24 795.56   A 0.72 0.72 0.0 0 0 906.58 794.55   L 857.19 794.55   A 0.72 0.72 0.0 0 0 856.52 794.99   L 797.28 933.82   A 0.72 0.72 0.0 0 0 797.94 934.82   L 927.39 934.82   A 0.72 0.72 0.0 0 0 928.06 934.38   L 941.25 903.45   A 0.72 0.72 0.0 0 0 940.59 902.45   L 861.31 902.45   Z   M 999.61 794.48   A 0.77 0.77 0.0 0 0 998.90 794.95   L 939.67 933.73   A 0.77 0.77 0.0 0 0 940.38 934.80   L 987.95 934.80   A 0.77 0.77 0.0 0 0 988.66 934.33   L 1047.89 795.55   A 0.77 0.77 0.0 0 0 1047.18 794.48   L 999.61 794.48   Z   M 1307.16 882.58   Q 1306.81 883.35 1301.58 895.46   C 1299.66 899.90 1297.33 902.55 1292.49 902.52   Q 1271.82 902.37 1249.51 902.57   Q 1246.79 902.60 1244.71 901.76   C 1241.75 900.58 1242.77 895.98 1243.79 893.80   Q 1248.41 883.93 1252.84 873.05   C 1258.12 860.10 1261.52 852.95 1266.90 839.95   C 1269.52 833.63 1271.00 828.92 1277.74 828.87   Q 1313.49 828.60 1356.28 828.80   A 0.95 0.95 0.0 0 0 1357.15 828.23   L 1371.54 795.52   A 0.61 0.60 13.2 0 0 1371.01 794.67   Q 1365.97 794.47 1363.76 794.47   Q 1319.73 794.63 1277.48 794.45   Q 1264.41 794.39 1258.18 795.95   C 1245.16 799.19 1232.14 808.00 1226.64 820.64   Q 1215.82 845.56 1190.58 905.32   Q 1188.62 909.95 1188.10 914.50   C 1186.59 927.78 1197.75 934.80 1209.76 934.81   Q 1260.40 934.85 1302.75 934.79   C 1318.96 934.77 1333.62 925.80 1340.26 910.74   Q 1341.80 907.26 1365.15 852.48   A 0.45 0.45 0.0 0 0 1364.74 851.86   L 1285.33 851.86   A 1.25 1.24 -78.7 0 0 1284.18 852.63   L 1272.26 881.10   A 0.58 0.58 0.0 0 0 1272.80 881.91   Q 1279.85 881.78 1286.48 882.07   C 1292.87 882.35 1299.63 881.81 1306.54 881.63   A 0.67 0.67 0.0 0 1 1307.16 882.58   Z   M 1207.15 1022.13   Q 1207.15 1022.09 1222.21 1023.88   C 1229.40 1024.74 1236.86 1027.75 1240.50 1034.43   Q 1244.33 1041.47 1245.42 1053.53   A 0.24 0.24 0.0 0 0 1245.56 1053.73   L 1245.82 1053.84   A 0.21 0.21 0.0 0 0 1246.11 1053.65   Q 1246.33 1045.66 1249.02 1038.30   C 1252.86 1027.85 1261.86 1024.04 1272.21 1023.33   Q 1283.62 1022.54 1283.62 1022.17   Q 1283.62 1021.79 1272.22 1021.00   C 1261.86 1020.28 1252.87 1016.46 1249.03 1006.00   Q 1246.35 998.64 1246.14 990.65   A 0.21 0.21 0.0 0 0 1245.85 990.46   L 1245.59 990.57   A 0.24 0.24 0.0 0 0 1245.45 990.77   Q 1244.35 1002.83 1240.51 1009.87   C 1236.87 1016.54 1229.40 1019.55 1222.22 1020.40   Q 1207.15 1022.18 1207.15 1022.13   Z   M 200.99 1034.38   Q 201.49 1034.38 201.86 1033.84   Q 207.59 1025.59 214.20 1016.27   A 0.27 0.27 0.0 0 1 214.69 1016.43   L 214.69 1037.48   A 0.82 0.82 0.0 0 0 215.51 1038.30   L 218.93 1038.30   A 0.76 0.76 0.0 0 0 219.69 1037.54   L 219.69 1008.74   A 0.74 0.74 0.0 0 0 218.95 1008.00   L 215.17 1008.00   A 1.12 1.10 -73.3 0 0 214.24 1008.51   Q 210.78 1013.75 201.76 1026.31   Q 201.28 1027.00 200.98 1027.00   Q 200.72 1027.00 200.23 1026.31   Q 191.21 1013.75 187.75 1008.51   A 1.12 1.10 73.3 0 0 186.82 1008.00   L 183.04 1008.00   A 0.74 0.74 0.0 0 0 182.30 1008.74   L 182.31 1037.54   A 0.76 0.76 0.0 0 0 183.07 1038.30   L 186.49 1038.30   A 0.82 0.82 0.0 0 0 187.31 1037.48   L 187.30 1016.43   A 0.27 0.27 0.0 0 1 187.79 1016.27   Q 194.41 1025.59 200.13 1033.84   Q 200.51 1034.38 200.99 1034.38   Z   M 295.8845 1014.2811   A 6.30 6.30 0.0 0 0 289.5735 1007.9922   L 269.0936 1008.0279   A 6.30 6.30 0.0 0 0 262.8046 1014.3389   L 262.8355 1032.0389   A 6.30 6.30 0.0 0 0 269.1465 1038.3278   L 289.6264 1038.2921   A 6.30 6.30 0.0 0 0 295.9154 1031.9811   L 295.8845 1014.2811   Z   M 367.42 1022.17   C 370.92 1020.61 370.22 1017.20 370.14 1013.89   Q 369.99 1007.84 362.53 1007.98   Q 349.83 1008.22 340.21 1007.98   A 0.56 0.55 -89.5 0 0 339.65 1008.54   L 339.65 1037.89   A 0.36 0.36 0.0 0 0 339.99 1038.25   Q 350.86 1038.71 364.42 1038.09   C 371.63 1037.76 371.08 1030.11 370.02 1025.17   A 1.49 1.48 7.5 0 0 369.25 1024.17   L 367.40 1023.24   A 0.59 0.59 0.0 0 1 367.42 1022.17   Z   M 416.36 1008.59   A 0.59 0.59 0.0 0 0 415.77 1008.00   L 411.71 1008.00   A 0.59 0.59 0.0 0 0 411.12 1008.59   L 411.12 1037.69   A 0.59 0.59 0.0 0 0 411.71 1038.28   L 415.77 1038.28   A 0.59 0.59 0.0 0 0 416.36 1037.69   L 416.36 1008.59   Z   M 485.48 1038.30   A 0.66 0.66 0.0 0 0 486.14 1037.64   L 486.14 1034.40   A 0.66 0.66 0.0 0 0 485.48 1033.74   L 464.33 1033.74   A 0.66 0.66 0.0 0 1 463.67 1033.08   L 463.67 1008.73   A 0.66 0.66 0.0 0 0 463.01 1008.07   L 459.02 1008.07   A 0.66 0.66 0.0 0 0 458.36 1008.73   L 458.36 1037.64   A 0.66 0.66 0.0 0 0 459.02 1038.30   L 485.48 1038.30   Z   M 529.54 1033.81   A 0.65 0.65 0.0 0 1 528.89 1033.16   L 528.89 1025.48   A 0.65 0.65 0.0 0 1 529.54 1024.83   L 544.09 1024.83   A 0.65 0.65 0.0 0 0 544.74 1024.18   L 544.74 1021.23   A 0.65 0.65 0.0 0 0 544.09 1020.58   L 529.50 1020.58   A 0.65 0.65 0.0 0 1 528.85 1019.93   L 528.85 1013.16   A 0.65 0.65 0.0 0 1 529.50 1012.51   L 551.94 1012.51   A 0.65 0.65 0.0 0 0 552.59 1011.86   L 552.59 1008.71   A 0.65 0.65 0.0 0 0 551.94 1008.06   L 524.07 1008.06   A 0.65 0.65 0.0 0 0 523.42 1008.71   L 523.42 1037.61   A 0.65 0.65 0.0 0 0 524.07 1038.26   L 552.02 1038.26   A 0.65 0.65 0.0 0 0 552.67 1037.61   L 552.67 1034.46   A 0.65 0.65 0.0 0 0 552.02 1033.81   L 529.54 1033.81   Z   M 703.15 1030.79   Q 709.14 1030.79 711.95 1030.89   A 1.07 1.06 -13.2 0 1 712.85 1031.44   L 716.13 1037.40   A 1.70 1.68 -14.4 0 0 717.62 1038.27   L 721.23 1038.27   A 0.63 0.63 0.0 0 0 721.78 1037.33   L 706.00 1008.73   A 1.23 1.22 -11.4 0 0 705.02 1008.09   Q 704.12 1008.00 703.13 1008.00   Q 702.15 1008.01 701.24 1008.09   A 1.23 1.22 11.3 0 0 700.27 1008.73   L 684.53 1037.35   A 0.63 0.63 0.0 0 0 685.08 1038.29   L 688.70 1038.29   A 1.70 1.68 14.3 0 0 690.18 1037.42   L 693.46 1031.45   A 1.07 1.06 13.1 0 1 694.35 1030.90   Q 697.16 1030.80 703.15 1030.79   Z   M 787.03 1033.67   L 766.07 1033.84   A 0.65 0.65 0.0 0 1 765.42 1033.20   L 765.37 1008.69   A 0.64 0.64 0.0 0 0 764.73 1008.05   L 760.73 1008.10   A 0.61 0.60 -0.4 0 0 760.13 1008.70   L 760.06 1037.81   A 0.40 0.40 0.0 0 0 760.46 1038.21   L 786.85 1038.39   A 1.00 0.99 1.2 0 0 787.86 1037.43   L 787.94 1034.60   A 0.90 0.90 0.0 0 0 787.03 1033.67   Z   M 840.48 1030.77   Q 846.48 1030.78 849.28 1030.88   A 1.07 1.06 -13.0 0 1 850.18 1031.44   L 853.45 1037.41   A 1.70 1.68 -14.3 0 0 854.93 1038.28   L 858.54 1038.28   A 0.63 0.63 0.0 0 0 859.10 1037.34   L 843.38 1008.71   A 1.23 1.22 -11.2 0 0 842.41 1008.07   Q 841.51 1007.98 840.52 1007.98   Q 839.54 1007.97 838.63 1008.06   A 1.23 1.22 11.4 0 0 837.66 1008.70   L 821.85 1037.28   A 0.63 0.63 0.0 0 0 822.40 1038.22   L 826.01 1038.23   A 1.70 1.68 14.5 0 0 827.49 1037.36   L 830.79 1031.40   A 1.07 1.06 13.2 0 1 831.69 1030.85   Q 834.49 1030.76 840.48 1030.77   Z   M 925.76 1022.23   C 929.26 1020.69 928.57 1017.29 928.50 1013.99   Q 928.37 1007.96 920.93 1008.07   Q 908.27 1008.27 898.68 1008.00   A 0.56 0.55 -89.3 0 0 898.12 1008.56   L 898.03 1037.82   A 0.36 0.36 0.0 0 0 898.37 1038.18   Q 909.21 1038.67 922.72 1038.09   C 929.91 1037.79 929.39 1030.16 928.35 1025.23   A 1.48 1.48 0.0 0 0 927.58 1024.23   L 925.74 1023.30   A 0.59 0.59 0.0 0 1 925.76 1022.23   Z   M 985.05 1030.80   Q 991.04 1030.81 993.84 1030.91   A 1.07 1.06 -13.1 0 1 994.74 1031.46   L 998.02 1037.42   A 1.69 1.68 -14.3 0 0 999.50 1038.29   L 1003.11 1038.29   A 0.63 0.63 0.0 0 0 1003.66 1037.35   L 987.92 1008.76   A 1.23 1.22 -11.3 0 0 986.95 1008.12   Q 986.04 1008.03 985.06 1008.03   Q 984.08 1008.03 983.17 1008.12   A 1.23 1.22 11.3 0 0 982.20 1008.76   L 966.44 1037.34   A 0.63 0.63 0.0 0 0 966.99 1038.28   L 970.60 1038.28   A 1.69 1.68 14.4 0 0 972.08 1037.41   L 975.36 1031.45   A 1.07 1.06 13.2 0 1 976.26 1030.90   Q 979.06 1030.80 985.05 1030.80   Z   M 1061.00 1034.28   Q 1061.50 1034.28 1061.88 1033.74   Q 1067.58 1025.53 1074.16 1016.24   A 0.27 0.27 0.0 0 1 1074.64 1016.40   L 1074.65 1037.36   A 0.82 0.82 0.0 0 0 1075.47 1038.18   L 1078.87 1038.18   A 0.76 0.76 0.0 0 0 1079.63 1037.42   L 1079.62 1008.74   A 0.74 0.74 0.0 0 0 1078.88 1008.01   L 1075.12 1008.01   A 1.11 1.10 -73.3 0 0 1074.19 1008.52   Q 1070.75 1013.73 1061.78 1026.25   Q 1061.29 1026.93 1061.00 1026.93   Q 1060.74 1026.93 1060.25 1026.25   Q 1051.27 1013.74 1047.82 1008.53   A 1.11 1.10 73.3 0 0 1046.89 1008.02   L 1043.13 1008.02   A 0.74 0.74 0.0 0 0 1042.39 1008.76   L 1042.41 1037.44   A 0.76 0.76 0.0 0 0 1043.16 1038.19   L 1046.57 1038.19   A 0.82 0.82 0.0 0 0 1047.39 1037.37   L 1047.37 1016.41   A 0.27 0.27 0.0 0 1 1047.86 1016.25   Q 1054.45 1025.53 1060.15 1033.74   Q 1060.53 1034.28 1061.00 1034.28   Z   M 1136.88 1030.77   Q 1142.88 1030.78 1145.68 1030.88   A 1.08 1.06 -13.1 0 1 1146.58 1031.43   L 1149.85 1037.40   A 1.70 1.68 -14.3 0 0 1151.34 1038.28   L 1154.95 1038.28   A 0.63 0.63 0.0 0 0 1155.50 1037.34   L 1139.78 1008.70   A 1.23 1.22 -11.2 0 0 1138.81 1008.06   Q 1137.90 1007.97 1136.92 1007.97   Q 1135.93 1007.97 1135.03 1008.06   A 1.23 1.22 11.4 0 0 1134.05 1008.69   L 1118.25 1037.28   A 0.63 0.63 0.0 0 0 1118.79 1038.23   L 1122.41 1038.23   A 1.70 1.68 14.4 0 0 1123.89 1037.36   L 1127.18 1031.40   A 1.08 1.06 13.2 0 1 1128.09 1030.85   Q 1130.89 1030.76 1136.88 1030.77   Z   M 596.66 1032.57   L 592.59 1032.57   A 0.75 0.75 0.0 0 0 591.84 1033.32   L 591.84 1037.52   A 0.84 0.84 0.0 0 0 592.68 1038.36   L 593.58 1038.36   A 0.54 0.54 0.0 0 1 594.06 1039.14   L 592.36 1042.51   A 1.07 1.07 0.0 0 0 593.55 1044.03   C 597.65 1043.08 597.72 1036.61 597.29 1033.12   A 0.64 0.63 -3.6 0 0 596.66 1032.57   Z"/>
<path xmlns="http://www.w3.org/2000/svg" fill="#141415" d="M 358.19 494.12   A 0.56 0.56 0.0 0 1 358.70 494.92   L 343.29 526.65   A 1.48 1.47 -76.6 0 1 341.95 527.48   Q 296.77 527.43 226.27 527.51   C 217.84 527.52 209.13 524.59 204.52 517.18   C 201.02 511.56 201.79 503.57 204.38 497.87   Q 211.76 481.66 241.15 419.39   Q 246.78 407.46 250.02 403.84   C 259.79 392.88 271.60 386.30 286.04 383.79   Q 291.31 382.88 310.00 383.08   Q 313.50 383.12 409.63 383.14   A 0.38 0.38 0.0 0 1 409.97 383.70   L 393.09 417.12   A 1.01 1.01 0.0 0 1 392.19 417.67   Q 377.36 417.72 304.75 417.68   C 295.16 417.68 292.88 421.57 288.97 429.72   Q 267.65 474.17 261.39 487.63   Q 260.43 489.69 261.40 491.84   C 262.51 494.29 267.11 494.21 269.51 494.21   Q 353.11 494.13 358.19 494.12   Z"/>
<path xmlns="http://www.w3.org/2000/svg" fill="#141415" d="M 564.74 384.46   C 571.68 386.00 579.68 390.92 581.92 398.13   C 584.27 405.69 583.16 412.59 579.37 420.09   C 577.01 424.76 575.07 429.80 571.92 436.08   Q 565.99 447.92 559.25 462.98   C 558.05 465.67 556.18 468.83 554.94 471.67   C 550.53 481.79 545.99 490.51 541.90 499.88   C 534.70 516.38 517.34 527.30 499.26 527.43   Q 483.51 527.54 389.64 527.42   Q 383.80 527.42 377.54 524.24   C 367.88 519.33 365.39 508.97 369.35 499.35   Q 370.96 495.44 373.47 489.95   Q 381.64 472.05 409.58 413.36   Q 417.53 396.64 434.94 388.69   Q 447.16 383.11 458.74 383.12   Q 464.53 383.12 551.50 383.11   Q 558.65 383.11 564.74 384.46   Z   M 527.21 427.01   C 528.30 424.55 528.64 420.07 525.52 418.91   Q 522.15 417.65 517.75 417.69   Q 506.78 417.78 468.54 417.66   Q 459.78 417.64 456.41 424.47   C 447.79 441.89 436.71 466.16 426.60 486.86   C 422.37 495.51 434.64 494.27 439.50 494.28   Q 454.69 494.33 485.61 494.26   C 491.43 494.24 495.32 493.52 497.89 488.37   Q 507.14 469.82 516.76 448.79   C 519.96 441.78 524.06 434.06 527.21 427.01   Z"/>
<path xmlns="http://www.w3.org/2000/svg" fill="#141415" d="M 544.55 527.45   A 0.53 0.52 12.2 0 1 544.07 526.71   Q 555.02 503.27 555.49 502.16   C 558.91 494.21 563.33 486.39 566.05 479.74   C 569.07 472.37 573.33 464.86 576.97 456.50   Q 577.82 454.55 581.35 447.20   Q 589.71 429.76 598.13 412.09   C 604.91 397.88 620.87 387.96 635.48 384.44   Q 640.96 383.12 651.13 383.12   Q 708.04 383.10 738.00 383.16   C 748.72 383.19 760.10 387.40 762.32 399.16   Q 763.72 406.59 760.56 414.07   C 754.50 428.42 748.94 439.02 741.69 454.51   Q 734.49 469.88 728.09 483.45   Q 721.80 496.81 720.53 499.81   C 716.94 508.28 712.27 516.90 708.13 526.49   A 1.61 1.61 0.0 0 1 706.65 527.46   L 657.37 527.46   A 0.49 0.49 0.0 0 1 656.92 526.76   L 673.83 490.03   A 0.46 0.46 0.0 0 0 673.41 489.38   L 614.00 489.38   A 1.16 1.15 12.4 0 0 612.95 490.05   L 595.99 526.88   A 0.98 0.97 12.2 0 1 595.10 527.45   L 544.55 527.45   Z   M 629.29 456.16   Q 629.50 456.34 629.90 456.34   Q 683.55 456.40 690.88 456.36   A 0.96 0.96 0.0 0 0 691.72 455.83   Q 699.97 438.84 705.64 425.83   C 707.86 420.72 704.99 417.94 699.98 417.89   Q 677.48 417.69 660.95 417.65   C 652.07 417.64 647.17 418.41 643.22 426.39   Q 636.91 439.14 629.20 455.74   A 0.37 0.36 33.5 0 0 629.29 456.16   Z"/>
<path xmlns="http://www.w3.org/2000/svg" fill="#141415" d="M 925.98 383.10   A 0.58 0.57 13.3 0 1 926.50 383.93   L 909.79 417.00   A 1.26 1.24 12.9 0 1 908.69 417.68   Q 890.10 417.74 828.00 417.72   C 822.51 417.71 820.10 420.21 817.97 425.21   Q 815.20 431.72 811.09 439.87   A 0.42 0.42 0.0 0 0 811.46 440.48   Q 860.55 440.40 882.09 440.54   C 888.53 440.58 893.82 441.30 898.84 444.88   C 907.26 450.89 906.81 461.82 902.64 470.16   C 898.09 479.27 894.66 487.62 888.85 500.46   Q 884.58 509.89 881.58 513.32   C 876.04 519.68 868.17 524.71 859.75 526.59   Q 856.33 527.35 848.70 527.37   Q 795.98 527.53 741.25 527.49   Q 724.86 527.48 722.73 527.43   A 0.60 0.60 0.0 0 1 722.20 526.57   L 737.41 494.83   A 1.09 1.07 12.4 0 1 738.39 494.22   Q 835.27 494.20 836.25 494.21   Q 841.86 494.27 844.46 489.03   Q 848.95 479.96 850.53 476.13   A 2.12 2.12 0.0 0 0 849.45 473.39   Q 848.27 472.85 846.12 472.86   Q 832.21 472.92 780.01 472.94   C 770.12 472.95 758.43 467.83 757.23 456.76   C 756.42 449.32 758.87 445.32 762.38 437.36   Q 769.87 420.37 776.29 407.58   C 782.80 394.60 796.87 385.89 810.76 383.75   Q 815.37 383.03 826.25 383.05   Q 906.97 383.20 925.98 383.10   Z"/>
<path xmlns="http://www.w3.org/2000/svg" fill="#141415" d="M 921.74 416.97   L 938.63 383.54   A 0.78 0.78 0.0 0 1 939.33 383.11   L 1086.60 383.11   A 0.78 0.78 0.0 0 1 1087.30 384.24   L 1070.41 417.68   A 0.78 0.78 0.0 0 1 1069.71 418.11   L 1024.64 418.11   A 0.78 0.78 0.0 0 0 1023.94 418.55   L 971.96 527.03   A 0.78 0.78 0.0 0 1 971.26 527.47   L 923.26 527.47   A 0.78 0.78 0.0 0 1 922.55 526.36   L 971.89 419.21   A 0.78 0.78 0.0 0 0 971.18 418.10   L 922.44 418.10   A 0.78 0.78 0.0 0 1 921.74 416.97   Z"/>
<path xmlns="http://www.w3.org/2000/svg" fill="#141415" d="M 1156.88 490.12   A 0.54 0.53 -77.5 0 0 1156.40 489.36   L 1097.33 489.36   A 0.71 0.71 0.0 0 0 1096.68 489.78   L 1079.74 526.57   A 1.56 1.54 12.1 0 1 1078.33 527.47   L 1028.88 527.47   A 0.50 0.50 0.0 0 1 1028.42 526.76   C 1052.53 474.68 1064.64 448.26 1082.33 411.11   Q 1085.20 405.09 1089.59 400.58   Q 1101.29 388.56 1117.52 384.58   Q 1124.45 382.88 1139.60 383.06   Q 1153.21 383.22 1217.51 383.11   C 1231.81 383.09 1245.69 388.43 1245.56 404.98   C 1245.52 409.19 1242.99 415.89 1240.80 420.13   Q 1235.51 430.38 1232.18 438.40   C 1229.15 445.73 1224.56 453.82 1221.49 461.10   Q 1219.38 466.10 1215.53 473.53   C 1213.24 477.97 1210.35 485.23 1207.87 490.26   Q 1205.64 494.82 1190.71 526.73   A 1.27 1.26 12.4 0 1 1189.56 527.46   L 1140.32 527.46   A 0.41 0.40 12.2 0 1 1139.95 526.89   L 1156.88 490.12   Z   M 1112.63 456.11   Q 1112.84 456.29 1113.24 456.29   Q 1166.63 456.36 1173.93 456.32   A 0.96 0.96 0.0 0 0 1174.77 455.79   Q 1182.98 438.88 1188.62 425.94   C 1190.83 420.85 1187.98 418.08 1182.99 418.03   Q 1160.60 417.83 1144.15 417.79   C 1135.31 417.77 1130.43 418.54 1126.50 426.48   Q 1120.22 439.17 1112.54 455.69   A 0.37 0.36 33.5 0 0 1112.63 456.11   Z"/>
<path xmlns="http://www.w3.org/2000/svg" fill="#141415" d="M 1273.37 493.77   A 0.30 0.29 12.6 0 0 1273.64 494.19   L 1356.13 494.19   A 0.38 0.38 0.0 0 1 1356.48 494.73   L 1341.74 526.76   A 1.23 1.22 -77.5 0 1 1340.63 527.47   L 1205.58 527.47   A 0.48 0.48 0.0 0 1 1205.15 526.79   Q 1229.07 476.43 1240.19 453.13   Q 1263.82 403.64 1268.14 395.09   Q 1272.05 387.35 1273.77 384.03   A 1.74 1.74 0.0 0 1 1275.31 383.10   L 1326.32 383.10   A 0.50 0.49 13.0 0 1 1326.77 383.81   L 1273.37 493.77   Z"/>
<path xmlns="http://www.w3.org/2000/svg" fill="#ffffff" d="M 525.52 418.91   C 528.64 420.07 528.30 424.55 527.21 427.01   C 524.06 434.06 519.96 441.78 516.76 448.79   Q 507.14 469.82 497.89 488.37   C 495.32 493.52 491.43 494.24 485.61 494.26   Q 454.69 494.33 439.50 494.28   C 434.64 494.27 422.37 495.51 426.60 486.86   C 436.71 466.16 447.79 441.89 456.41 424.47   Q 459.78 417.64 468.54 417.66   Q 506.78 417.78 517.75 417.69   Q 522.15 417.65 525.52 418.91   Z"/>
<path xmlns="http://www.w3.org/2000/svg" fill="#ffffff" d="M 629.29 456.16   A 0.37 0.36 33.5 0 1 629.20 455.74   Q 636.91 439.14 643.22 426.39   C 647.17 418.41 652.07 417.64 660.95 417.65   Q 677.48 417.69 699.98 417.89   C 704.99 417.94 707.86 420.72 705.64 425.83   Q 699.97 438.84 691.72 455.83   A 0.96 0.96 0.0 0 1 690.88 456.36   Q 683.55 456.40 629.90 456.34   Q 629.50 456.34 629.29 456.16   Z"/>
<path xmlns="http://www.w3.org/2000/svg" fill="#ffffff" d="M 1112.63 456.11   A 0.37 0.36 33.5 0 1 1112.54 455.69   Q 1120.22 439.17 1126.50 426.48   C 1130.43 418.54 1135.31 417.77 1144.15 417.79   Q 1160.60 417.83 1182.99 418.03   C 1187.98 418.08 1190.83 420.85 1188.62 425.94   Q 1182.98 438.88 1174.77 455.79   A 0.96 0.96 0.0 0 1 1173.93 456.32   Q 1166.63 456.36 1113.24 456.29   Q 1112.84 456.29 1112.63 456.11   Z"/>
<path xmlns="http://www.w3.org/2000/svg" fill="#b68c56" d="M 492.81 757.11   L 430.37 757.11   A 0.44 0.44 0.0 0 1 429.97 756.49   L 513.49 570.99   A 0.44 0.44 0.0 0 1 513.89 570.73   L 587.34 570.73   A 0.44 0.44 0.0 0 1 587.74 571.00   L 631.38 675.46   A 0.44 0.44 0.0 0 0 632.19 675.48   L 679.31 570.80   A 0.44 0.44 0.0 0 1 679.71 570.54   L 736.47 570.54   A 0.44 0.44 0.0 0 1 736.87 571.16   L 651.38 756.85   A 0.44 0.44 0.0 0 1 650.98 757.11   L 592.28 757.11   A 0.44 0.44 0.0 0 1 591.87 756.85   L 543.11 647.81   A 0.44 0.44 0.0 0 0 542.31 647.80   L 493.21 756.85   A 0.44 0.44 0.0 0 1 492.81 757.11   Z"/>
<path xmlns="http://www.w3.org/2000/svg" fill="#b68c56" d="M 771.49 642.42   L 908.36 642.42   A 0.66 0.66 0.0 0 1 908.96 643.35   L 889.68 685.22   A 1.61 1.60 12.3 0 1 888.22 686.15   L 773.35 686.15   A 1.36 1.34 -77.8 0 0 772.12 686.95   L 760.19 713.43   A 0.23 0.23 0.0 0 0 760.40 713.75   L 891.44 713.75   A 0.76 0.76 0.0 0 1 892.12 714.86   C 889.67 719.65 886.94 724.48 884.51 729.88   Q 877.87 744.67 872.31 756.08   A 1.87 1.86 12.9 0 1 870.63 757.13   L 671.49 757.13   A 0.70 0.70 0.0 0 1 670.87 756.09   Q 674.22 750.00 676.33 744.60   C 680.19 734.74 684.20 727.43 689.02 716.46   C 695.99 700.63 706.05 679.03 710.47 668.81   Q 715.07 658.17 717.78 652.80   C 721.09 646.25 723.84 639.02 727.40 631.37   C 732.97 619.43 737.34 610.22 743.19 596.98   Q 748.53 584.88 755.25 571.48   A 1.80 1.79 -76.5 0 1 756.85 570.49   L 953.30 570.49   A 0.48 0.47 11.4 0 1 953.74 571.15   Q 949.85 580.45 947.28 585.11   C 941.00 596.50 938.94 601.63 932.35 615.24   A 1.55 1.54 12.8 0 1 930.96 616.11   L 803.61 616.11   A 0.90 0.87 -77.3 0 0 802.81 616.63   L 793.79 636.22   A 2.98 2.97 6.5 0 1 791.67 637.90   L 771.45 641.97   A 0.23 0.23 0.0 0 0 771.49 642.42   Z"/>
<path xmlns="http://www.w3.org/2000/svg" fill="#b68c56" d="M 999.57 642.20   A 0.35 0.35 0.0 0 0 999.88 642.70   Q 1072.83 642.70 1093.98 642.92   C 1100.73 642.99 1107.94 644.69 1113.43 649.26   C 1124.25 658.27 1121.81 670.92 1116.62 682.48   Q 1098.32 723.19 1095.87 728.37   C 1089.24 742.36 1074.95 752.22 1060.30 755.70   Q 1053.84 757.24 1035.08 757.14   Q 1019.06 757.05 888.15 757.17   A 0.49 0.49 0.0 0 1 887.71 756.48   L 907.01 714.57   A 1.15 1.14 11.7 0 1 908.04 713.90   Q 922.16 713.76 1030.52 713.78   C 1038.58 713.78 1041.02 710.25 1043.84 702.97   Q 1046.37 696.42 1049.46 690.22   C 1051.44 686.27 1047.63 685.43 1044.75 685.42   Q 1024.17 685.32 964.51 685.37   Q 959.27 685.38 956.01 685.07   C 947.99 684.31 938.40 680.73 933.81 674.35   C 924.28 661.12 933.68 645.37 939.12 633.14   Q 945.87 617.98 954.09 600.35   C 956.67 594.80 961.13 590.49 967.45 584.98   C 976.93 576.72 990.23 572.06 1001.78 570.95   Q 1007.65 570.38 1029.75 570.46   Q 1065.21 570.57 1133.75 570.50   Q 1138.64 570.50 1149.95 570.25   Q 1150.55 570.24 1150.71 570.79   Q 1150.76 570.97 1150.60 571.39   Q 1150.12 572.64 1146.25 579.67   Q 1144.14 583.49 1142.12 588.09   Q 1136.19 601.58 1129.22 614.82   A 1.81 1.81 0.0 0 1 1127.62 615.78   Q 1032.35 615.75 1019.70 615.85   C 1012.31 615.92 1009.10 620.13 1006.34 627.37   Q 1005.17 630.42 999.57 642.20   Z"/>
<path xmlns="http://www.w3.org/2000/svg" fill="#b68c56" d="M 223.16 642.47   L 371.98 642.47   A 0.50 0.50 0.0 0 1 372.44 643.18   L 353.49 685.26   A 1.56 1.55 12.0 0 1 352.07 686.18   L 225.81 686.18   A 1.29 1.28 12.1 0 0 224.64 686.93   L 193.49 756.12   A 1.67 1.66 12.0 0 1 191.97 757.10   L 126.03 757.10   A 0.41 0.41 0.0 0 1 125.65 756.53   Q 157.87 682.42 185.62 620.10   Q 192.29 605.12 193.95 602.31   C 203.54 586.12 220.78 575.85 238.94 572.02   Q 245.81 570.57 260.70 570.55   Q 319.86 570.48 398.75 570.40   Q 405.95 570.39 410.59 570.40   A 0.55 0.55 0.0 0 1 411.09 571.19   L 389.88 614.86   A 1.92 1.89 -78.0 0 1 388.26 615.93   Q 383.37 616.16 375.50 616.13   Q 319.57 615.93 265.03 616.09   Q 256.72 616.12 252.76 622.99   Q 251.82 624.62 246.90 636.18   Q 246.21 637.80 244.05 638.10   Q 233.83 639.53 223.13 642.24   A 0.12 0.12 0.0 0 0 223.16 642.47   Z"/>
<path xmlns="http://www.w3.org/2000/svg" fill="#b68c56" d="M 494.41 570.54   A 0.55 0.55 0.0 0 1 494.91 571.32   L 409.61 756.58   A 0.90 0.87 -77.3 0 1 408.81 757.10   L 346.45 757.10   A 0.64 0.64 0.0 0 1 345.87 756.20   Q 358.50 728.07 368.82 703.72   C 372.54 694.95 376.88 687.15 380.32 678.09   Q 383.29 670.27 386.74 663.53   C 390.68 655.85 392.81 649.87 396.76 641.77   C 401.82 631.40 405.76 620.10 410.79 610.30   C 417.37 597.50 422.15 584.36 428.89 571.52   A 1.82 1.81 -76.2 0 1 430.50 570.54   L 494.41 570.54   Z"/>
<path xmlns="http://www.w3.org/2000/svg" fill="#b68c56" d="M 1329.93 616.04   L 1273.94 616.04   A 0.58 0.58 0.0 0 0 1273.42 616.38   L 1210.20 756.76   A 0.58 0.58 0.0 0 1 1209.68 757.10   L 1147.80 757.10   A 0.58 0.58 0.0 0 1 1147.27 756.29   L 1208.70 616.63   A 0.58 0.58 0.0 0 0 1208.17 615.82   L 1145.18 615.82   A 0.58 0.58 0.0 0 1 1144.65 615.00   L 1164.97 570.85   A 0.58 0.58 0.0 0 1 1165.50 570.51   L 1350.35 570.51   A 0.58 0.58 0.0 0 1 1350.88 571.33   L 1330.46 615.70   A 0.58 0.58 0.0 0 1 1329.93 616.04   Z"/>
<path xmlns="http://www.w3.org/2000/svg" fill="#141415" d="M 788.48 794.48   L 837.56 794.48   A 0.65 0.65 0.0 0 1 838.15 795.39   L 778.81 934.44   A 0.65 0.65 0.0 0 1 778.21 934.83   L 729.13 934.83   A 0.65 0.65 0.0 0 1 728.54 933.92   L 787.88 794.87   A 0.65 0.65 0.0 0 1 788.48 794.48   Z"/>
<path xmlns="http://www.w3.org/2000/svg" fill="#141415" d="M 1148.46 869.24   L 1179.92 795.53   A 1.43 1.42 -78.4 0 1 1181.23 794.66   C 1192.71 794.62 1207.35 794.15 1221.09 794.66   A 0.48 0.48 0.0 0 1 1221.51 795.33   L 1162.29 934.09   A 1.21 1.20 11.4 0 1 1161.18 934.82   L 1120.60 934.82   A 1.48 1.47 -12.0 0 1 1119.25 933.95   L 1083.52 854.06   A 0.35 0.35 0.0 0 0 1082.88 854.07   L 1048.61 934.36   A 0.76 0.74 10.9 0 1 1047.91 934.82   L 1005.15 934.82   A 0.51 0.51 0.0 0 1 1004.68 934.11   L 1063.87 795.43   A 1.56 1.54 11.4 0 1 1065.30 794.49   L 1116.03 794.49   A 0.82 0.81 -11.4 0 1 1116.78 794.98   L 1147.79 869.23   A 0.37 0.36 45.6 0 0 1148.46 869.24   Z"/>
<path xmlns="http://www.w3.org/2000/svg" fill="#141415" d="M 67.48 934.82   A 0.50 0.49 11.6 0 1 67.02 934.13   L 125.27 795.03   A 0.78 0.78 0.0 0 1 125.99 794.55   Q 195.75 794.57 235.20 794.55   Q 248.48 794.54 251.28 794.84   C 261.11 795.89 271.44 801.00 274.46 811.13   Q 276.89 819.31 273.29 828.11   Q 260.50 859.43 251.51 880.46   C 247.32 890.28 244.85 896.91 240.67 906.64   Q 234.00 922.16 218.91 929.41   C 209.74 933.81 203.06 934.82 192.11 934.82   Q 121.36 934.81 67.48 934.82   Z   M 129.49 901.90   A 0.59 0.58 -76.6 0 0 129.99 902.72   Q 133.82 902.94 137.50 902.90   Q 148.34 902.78 183.67 902.85   C 189.69 902.87 194.02 902.16 196.49 896.74   C 205.06 877.93 212.70 859.04 221.10 839.80   C 222.01 837.71 222.98 834.55 222.23 832.52   Q 220.95 829.08 216.77 829.03   Q 196.00 828.77 161.43 828.91   A 1.20 1.19 -78.4 0 0 160.33 829.64   L 129.49 901.90   Z"/>
<path xmlns="http://www.w3.org/2000/svg" fill="#141415" d="M 312.03 848.35   L 419.35 848.35   A 0.47 0.47 0.0 0 1 419.78 849.00   L 406.74 879.55   A 1.04 1.03 -78.3 0 1 405.79 880.18   L 315.75 880.18   A 1.18 1.17 10.5 0 0 314.65 880.93   Q 313.12 884.78 307.61 897.09   Q 307.12 898.18 307.49 900.44   A 1.54 1.52 14.1 0 0 308.08 901.41   Q 309.46 902.42 311.76 902.44   C 338.52 902.64 375.49 902.24 410.52 902.53   A 0.63 0.62 11.9 0 1 411.09 903.40   L 397.87 934.37   A 0.71 0.70 11.3 0 1 397.22 934.80   Q 347.70 934.84 272.75 934.80   C 258.00 934.79 247.50 924.59 253.19 909.38   Q 255.41 903.44 262.06 888.02   C 271.80 865.40 282.13 839.79 289.69 822.39   C 295.83 808.24 308.84 799.70 323.44 795.96   Q 329.74 794.34 344.68 794.47   Q 365.21 794.65 451.22 794.51   A 0.40 0.40 0.0 0 1 451.59 795.08   L 436.88 827.74   A 1.55 1.52 11.6 0 1 435.49 828.64   Q 402.25 828.74 341.77 828.67   Q 338.69 828.66 335.75 831.12   C 333.14 833.30 330.88 840.05 329.62 843.06   A 3.24 3.23 5.6 0 1 327.27 844.99   L 312.00 848.07   A 0.14 0.14 0.0 0 0 312.03 848.35   Z"/>
<path xmlns="http://www.w3.org/2000/svg" fill="#141415" d="M 588.71 828.89   L 544.61 828.89   A 0.68 0.68 0.0 0 0 543.98 829.30   L 499.13 934.41   A 0.68 0.68 0.0 0 1 498.50 934.82   L 451.33 934.82   A 0.68 0.68 0.0 0 1 450.70 933.88   L 494.28 829.84   A 0.68 0.68 0.0 0 0 493.65 828.90   L 448.75 828.90   A 0.68 0.68 0.0 0 1 448.13 827.95   L 462.65 794.95   A 0.68 0.68 0.0 0 1 463.27 794.54   L 603.57 794.54   A 0.68 0.68 0.0 0 1 604.19 795.50   L 589.33 828.49   A 0.68 0.68 0.0 0 1 588.71 828.89   Z"/>
<path xmlns="http://www.w3.org/2000/svg" fill="#141415" d="M 554.62 934.29   Q 554.55 933.61 556.34 929.36   Q 563.64 912.12 588.28 852.92   C 592.15 843.60 595.88 836.17 598.87 827.89   Q 601.17 821.52 603.39 818.01   C 611.36 805.42 623.83 797.73 638.35 795.23   Q 642.64 794.49 654.18 794.50   Q 726.62 794.57 734.75 794.57   C 755.42 794.57 766.21 808.34 757.54 828.26   Q 744.98 857.13 732.39 886.30   Q 728.02 896.44 723.87 906.68   C 719.97 916.29 716.14 924.22 712.18 934.06   A 1.23 1.21 -78.9 0 1 711.05 934.83   L 663.52 934.83   A 0.61 0.60 11.5 0 1 662.96 933.99   L 677.51 899.91   A 0.45 0.45 0.0 0 0 677.10 899.29   L 619.11 899.29   A 1.10 1.10 0.0 0 0 618.10 899.95   L 603.48 934.21   A 1.00 0.99 -78.2 0 1 602.57 934.81   L 555.22 934.84   A 0.60 0.60 0.0 0 1 554.62 934.29   Z   M 632.40 866.63   L 692.43 866.63   A 1.39 1.38 -77.7 0 0 693.69 865.81   Q 698.62 854.78 705.95 837.21   C 708.04 832.18 705.66 828.75 700.32 828.65   Q 692.55 828.50 656.77 828.63   C 649.98 828.66 646.74 831.90 644.15 838.60   C 642.85 841.99 640.50 846.07 639.06 849.86   Q 636.16 857.47 632.02 866.02   A 0.43 0.42 -77.2 0 0 632.40 866.63   Z"/>
<path xmlns="http://www.w3.org/2000/svg" fill="#141415" d="M 861.31 902.45   L 940.59 902.45   A 0.72 0.72 0.0 0 1 941.25 903.45   L 928.06 934.38   A 0.72 0.72 0.0 0 1 927.39 934.82   L 797.94 934.82   A 0.72 0.72 0.0 0 1 797.28 933.82   L 856.52 794.99   A 0.72 0.72 0.0 0 1 857.19 794.55   L 906.58 794.55   A 0.72 0.72 0.0 0 1 907.24 795.56   L 860.65 901.44   A 0.72 0.72 0.0 0 0 861.31 902.45   Z"/>
<path xmlns="http://www.w3.org/2000/svg" fill="#141415" d="M 999.61 794.48   L 1047.18 794.48   A 0.77 0.77 0.0 0 1 1047.89 795.55   L 988.66 934.33   A 0.77 0.77 0.0 0 1 987.95 934.80   L 940.38 934.80   A 0.77 0.77 0.0 0 1 939.67 933.73   L 998.90 794.95   A 0.77 0.77 0.0 0 1 999.61 794.48   Z"/>
<path xmlns="http://www.w3.org/2000/svg" fill="#141415" d="M 1307.16 882.58   A 0.67 0.67 0.0 0 0 1306.54 881.63   C 1299.63 881.81 1292.87 882.35 1286.48 882.07   Q 1279.85 881.78 1272.80 881.91   A 0.58 0.58 0.0 0 1 1272.26 881.10   L 1284.18 852.63   A 1.25 1.24 -78.7 0 1 1285.33 851.86   L 1364.74 851.86   A 0.45 0.45 0.0 0 1 1365.15 852.48   Q 1341.80 907.26 1340.26 910.74   C 1333.62 925.80 1318.96 934.77 1302.75 934.79   Q 1260.40 934.85 1209.76 934.81   C 1197.75 934.80 1186.59 927.78 1188.10 914.50   Q 1188.62 909.95 1190.58 905.32   Q 1215.82 845.56 1226.64 820.64   C 1232.14 808.00 1245.16 799.19 1258.18 795.95   Q 1264.41 794.39 1277.48 794.45   Q 1319.73 794.63 1363.76 794.47   Q 1365.97 794.47 1371.01 794.67   A 0.61 0.60 13.2 0 1 1371.54 795.52   L 1357.15 828.23   A 0.95 0.95 0.0 0 1 1356.28 828.80   Q 1313.49 828.60 1277.74 828.87   C 1271.00 828.92 1269.52 833.63 1266.90 839.95   C 1261.52 852.95 1258.12 860.10 1252.84 873.05   Q 1248.41 883.93 1243.79 893.80   C 1242.77 895.98 1241.75 900.58 1244.71 901.76   Q 1246.79 902.60 1249.51 902.57   Q 1271.82 902.37 1292.49 902.52   C 1297.33 902.55 1299.66 899.90 1301.58 895.46   Q 1306.81 883.35 1307.16 882.58   Z"/>
<path xmlns="http://www.w3.org/2000/svg" fill="#ffffff" d="M 632.40 866.63   A 0.43 0.42 -77.2 0 1 632.02 866.02   Q 636.16 857.47 639.06 849.86   C 640.50 846.07 642.85 841.99 644.15 838.60   C 646.74 831.90 649.98 828.66 656.77 828.63   Q 692.55 828.50 700.32 828.65   C 705.66 828.75 708.04 832.18 705.95 837.21   Q 698.62 854.78 693.69 865.81   A 1.39 1.38 -77.7 0 1 692.43 866.63   L 632.40 866.63   Z"/>
<path xmlns="http://www.w3.org/2000/svg" fill="#ffffff" d="M 129.49 901.90   L 160.33 829.64   A 1.20 1.19 -78.4 0 1 161.43 828.91   Q 196.00 828.77 216.77 829.03   Q 220.95 829.08 222.23 832.52   C 222.98 834.55 222.01 837.71 221.10 839.80   C 212.70 859.04 205.06 877.93 196.49 896.74   C 194.02 902.16 189.69 902.87 183.67 902.85   Q 148.34 902.78 137.50 902.90   Q 133.82 902.94 129.99 902.72   A 0.59 0.58 -76.6 0 1 129.49 901.90   Z"/>
<path xmlns="http://www.w3.org/2000/svg" fill="#141415" d="M 1283.62 1022.17   Q 1283.62 1022.54 1272.21 1023.33   C 1261.86 1024.04 1252.86 1027.85 1249.02 1038.30   Q 1246.33 1045.66 1246.11 1053.65   A 0.21 0.21 0.0 0 1 1245.82 1053.84   L 1245.56 1053.73   A 0.24 0.24 0.0 0 1 1245.42 1053.53   Q 1244.33 1041.47 1240.50 1034.43   C 1236.86 1027.75 1229.40 1024.74 1222.21 1023.88   Q 1207.15 1022.09 1207.15 1022.13   Q 1207.15 1022.18 1222.22 1020.40   C 1229.40 1019.55 1236.87 1016.54 1240.51 1009.87   Q 1244.35 1002.83 1245.45 990.77   A 0.24 0.24 0.0 0 1 1245.59 990.57   L 1245.85 990.46   A 0.21 0.21 0.0 0 1 1246.14 990.65   Q 1246.35 998.64 1249.03 1006.00   C 1252.87 1016.46 1261.86 1020.28 1272.22 1021.00   Q 1283.62 1021.79 1283.62 1022.17   Z"/>
<path xmlns="http://www.w3.org/2000/svg" fill="#141415" d="M 200.98 1027.00   Q 201.28 1027.00 201.76 1026.31   Q 210.78 1013.75 214.24 1008.51   A 1.12 1.10 -73.3 0 1 215.17 1008.00   L 218.95 1008.00   A 0.74 0.74 0.0 0 1 219.69 1008.74   L 219.69 1037.54   A 0.76 0.76 0.0 0 1 218.93 1038.30   L 215.51 1038.30   A 0.82 0.82 0.0 0 1 214.69 1037.48   L 214.69 1016.43   A 0.27 0.27 0.0 0 0 214.20 1016.27   Q 207.59 1025.59 201.86 1033.84   Q 201.49 1034.38 200.99 1034.38   Q 200.51 1034.38 200.13 1033.84   Q 194.41 1025.59 187.79 1016.27   A 0.27 0.27 0.0 0 0 187.30 1016.43   L 187.31 1037.48   A 0.82 0.82 0.0 0 1 186.49 1038.30   L 183.07 1038.30   A 0.76 0.76 0.0 0 1 182.31 1037.54   L 182.30 1008.74   A 0.74 0.74 0.0 0 1 183.04 1008.00   L 186.82 1008.00   A 1.12 1.10 73.3 0 1 187.75 1008.51   Q 191.21 1013.75 200.23 1026.31   Q 200.72 1027.00 200.98 1027.00   Z"/>
<path xmlns="http://www.w3.org/2000/svg" fill="#141415" d="M 295.9154 1031.9811   A 6.30 6.30 0.0 0 1 289.6264 1038.2921   L 269.1465 1038.3278   A 6.30 6.30 0.0 0 1 262.8355 1032.0389   L 262.8046 1014.3389   A 6.30 6.30 0.0 0 1 269.0936 1008.0279   L 289.5735 1007.9922   A 6.30 6.30 0.0 0 1 295.8845 1014.2811   L 295.9154 1031.9811   Z   M 290.6360 1013.9895   A 1.45 1.45 0.0 0 0 289.1885 1012.5369   L 269.7885 1012.5031   A 1.45 1.45 0.0 0 0 268.3360 1013.9506   L 268.3040 1032.2505   A 1.45 1.45 0.0 0 0 269.7515 1033.7031   L 289.1515 1033.7369   A 1.45 1.45 0.0 0 0 290.6040 1032.2894   L 290.6360 1013.9895   Z"/>
<path xmlns="http://www.w3.org/2000/svg" fill="#141415" d="M 367.40 1023.24   L 369.25 1024.17   A 1.49 1.48 7.5 0 1 370.02 1025.17   C 371.08 1030.11 371.63 1037.76 364.42 1038.09   Q 350.86 1038.71 339.99 1038.25   A 0.36 0.36 0.0 0 1 339.65 1037.89   L 339.65 1008.54   A 0.56 0.55 -89.5 0 1 340.21 1007.98   Q 349.83 1008.22 362.53 1007.98   Q 369.99 1007.84 370.14 1013.89   C 370.22 1017.20 370.92 1020.61 367.42 1022.17   A 0.59 0.59 0.0 0 0 367.40 1023.24   Z   M 344.92 1012.83   L 344.94 1020.21   A 0.41 0.41 0.0 0 0 345.35 1020.62   L 361.69 1020.59   A 3.21 2.94 -0.1 0 0 364.89 1017.64   L 364.89 1015.32   A 3.21 2.94 -0.1 0 0 361.67 1012.39   L 345.33 1012.42   A 0.41 0.41 0.0 0 0 344.92 1012.83   Z   M 345.00 1025.17   L 344.88 1032.97   A 0.58 0.58 0.0 0 0 345.45 1033.56   L 362.11 1033.82   A 2.78 2.55 0.9 0 0 364.93 1031.32   L 364.99 1027.46   A 2.78 2.55 0.9 0 0 362.25 1024.86   L 345.59 1024.60   A 0.58 0.58 0.0 0 0 345.00 1025.17   Z"/>
<rect xmlns="http://www.w3.org/2000/svg" fill="#141415" x="411.12" y="1008.00" width="5.24" height="30.28" rx="0.59"/>
<path xmlns="http://www.w3.org/2000/svg" fill="#141415" d="M 485.48 1038.30   L 459.02 1038.30   A 0.66 0.66 0.0 0 1 458.36 1037.64   L 458.36 1008.73   A 0.66 0.66 0.0 0 1 459.02 1008.07   L 463.01 1008.07   A 0.66 0.66 0.0 0 1 463.67 1008.73   L 463.67 1033.08   A 0.66 0.66 0.0 0 0 464.33 1033.74   L 485.48 1033.74   A 0.66 0.66 0.0 0 1 486.14 1034.40   L 486.14 1037.64   A 0.66 0.66 0.0 0 1 485.48 1038.30   Z"/>
<path xmlns="http://www.w3.org/2000/svg" fill="#141415" d="M 529.54 1033.81   L 552.02 1033.81   A 0.65 0.65 0.0 0 1 552.67 1034.46   L 552.67 1037.61   A 0.65 0.65 0.0 0 1 552.02 1038.26   L 524.07 1038.26   A 0.65 0.65 0.0 0 1 523.42 1037.61   L 523.42 1008.71   A 0.65 0.65 0.0 0 1 524.07 1008.06   L 551.94 1008.06   A 0.65 0.65 0.0 0 1 552.59 1008.71   L 552.59 1011.86   A 0.65 0.65 0.0 0 1 551.94 1012.51   L 529.50 1012.51   A 0.65 0.65 0.0 0 0 528.85 1013.16   L 528.85 1019.93   A 0.65 0.65 0.0 0 0 529.50 1020.58   L 544.09 1020.58   A 0.65 0.65 0.0 0 1 544.74 1021.23   L 544.74 1024.18   A 0.65 0.65 0.0 0 1 544.09 1024.83   L 529.54 1024.83   A 0.65 0.65 0.0 0 0 528.89 1025.48   L 528.89 1033.16   A 0.65 0.65 0.0 0 0 529.54 1033.81   Z"/>
<path xmlns="http://www.w3.org/2000/svg" fill="#141415" d="M 703.15 1030.79   Q 697.16 1030.80 694.35 1030.90   A 1.07 1.06 13.1 0 0 693.46 1031.45   L 690.18 1037.42   A 1.70 1.68 14.3 0 1 688.70 1038.29   L 685.08 1038.29   A 0.63 0.63 0.0 0 1 684.53 1037.35   L 700.27 1008.73   A 1.23 1.22 11.3 0 1 701.24 1008.09   Q 702.15 1008.01 703.13 1008.00   Q 704.12 1008.00 705.02 1008.09   A 1.23 1.22 -11.4 0 1 706.00 1008.73   L 721.78 1037.33   A 0.63 0.63 0.0 0 1 721.23 1038.27   L 717.62 1038.27   A 1.70 1.68 -14.4 0 1 716.13 1037.40   L 712.85 1031.44   A 1.07 1.06 -13.2 0 0 711.95 1030.89   Q 709.14 1030.79 703.15 1030.79   Z   M 696.14 1025.96   A 0.40 0.40 0.0 0 0 696.49 1026.55   L 709.71 1026.57   A 0.40 0.40 0.0 0 0 710.07 1025.99   L 703.48 1013.38   A 0.40 0.40 0.0 0 0 702.77 1013.37   L 696.14 1025.96   Z"/>
<path xmlns="http://www.w3.org/2000/svg" fill="#141415" d="M 787.03 1033.67   A 0.90 0.90 0.0 0 1 787.94 1034.60   L 787.86 1037.43   A 1.00 0.99 1.2 0 1 786.85 1038.39   L 760.46 1038.21   A 0.40 0.40 0.0 0 1 760.06 1037.81   L 760.13 1008.70   A 0.61 0.60 -0.4 0 1 760.73 1008.10   L 764.73 1008.05   A 0.64 0.64 0.0 0 1 765.37 1008.69   L 765.42 1033.20   A 0.65 0.65 0.0 0 0 766.07 1033.84   L 787.03 1033.67   Z"/>
<path xmlns="http://www.w3.org/2000/svg" fill="#141415" d="M 840.48 1030.77   Q 834.49 1030.76 831.69 1030.85   A 1.07 1.06 13.2 0 0 830.79 1031.40   L 827.49 1037.36   A 1.70 1.68 14.5 0 1 826.01 1038.23   L 822.40 1038.22   A 0.63 0.63 0.0 0 1 821.85 1037.28   L 837.66 1008.70   A 1.23 1.22 11.4 0 1 838.63 1008.06   Q 839.54 1007.97 840.52 1007.98   Q 841.51 1007.98 842.41 1008.07   A 1.23 1.22 -11.2 0 1 843.38 1008.71   L 859.10 1037.34   A 0.63 0.63 0.0 0 1 858.54 1038.28   L 854.93 1038.28   A 1.70 1.68 -14.3 0 1 853.45 1037.41   L 850.18 1031.44   A 1.07 1.06 -13.0 0 0 849.28 1030.88   Q 846.48 1030.78 840.48 1030.77   Z   M 833.53 1026.02   A 0.39 0.39 0.0 0 0 833.88 1026.59   L 847.11 1026.54   A 0.39 0.39 0.0 0 0 847.46 1025.97   L 840.80 1013.44   A 0.39 0.39 0.0 0 0 840.11 1013.44   L 833.53 1026.02   Z"/>
<path xmlns="http://www.w3.org/2000/svg" fill="#141415" d="M 925.76 1022.23   A 0.59 0.59 0.0 0 0 925.74 1023.30   L 927.58 1024.23   A 1.48 1.48 0.0 0 1 928.35 1025.23   C 929.39 1030.16 929.91 1037.79 922.72 1038.09   Q 909.21 1038.67 898.37 1038.18   A 0.36 0.36 0.0 0 1 898.03 1037.82   L 898.12 1008.56   A 0.56 0.55 -89.3 0 1 898.68 1008.00   Q 908.27 1008.27 920.93 1008.07   Q 928.37 1007.96 928.50 1013.99   C 928.57 1017.29 929.26 1020.69 925.76 1022.23   Z   M 903.39 1013.17   L 903.47 1020.09   A 0.68 0.68 0.0 0 0 904.16 1020.76   L 920.32 1020.56   A 2.86 2.77 -0.7 0 0 923.15 1017.76   L 923.11 1015.02   A 2.86 2.77 -0.7 0 0 920.22 1012.28   L 904.06 1012.48   A 0.68 0.68 0.0 0 0 903.39 1013.17   Z   M 903.42 1024.97   L 903.32 1033.25   A 0.31 0.31 0.0 0 0 903.63 1033.56   L 920.18 1033.76   A 3.10 2.36 0.7 0 0 923.30 1031.44   L 923.35 1027.26   A 3.10 2.36 0.7 0 0 920.28 1024.86   L 903.74 1024.66   A 0.31 0.31 0.0 0 0 903.42 1024.97   Z"/>
<path xmlns="http://www.w3.org/2000/svg" fill="#141415" d="M 985.06 1008.03   Q 986.04 1008.03 986.95 1008.12   A 1.23 1.22 -11.3 0 1 987.92 1008.76   L 1003.66 1037.35   A 0.63 0.63 0.0 0 1 1003.11 1038.29   L 999.50 1038.29   A 1.69 1.68 -14.3 0 1 998.02 1037.42   L 994.74 1031.46   A 1.07 1.06 -13.1 0 0 993.84 1030.91   Q 991.04 1030.81 985.05 1030.80   Q 979.06 1030.80 976.26 1030.90   A 1.07 1.06 13.2 0 0 975.36 1031.45   L 972.08 1037.41   A 1.69 1.68 14.4 0 1 970.60 1038.28   L 966.99 1038.28   A 0.63 0.63 0.0 0 1 966.44 1037.34   L 982.20 1008.76   A 1.23 1.22 11.3 0 1 983.17 1008.12   Q 984.08 1008.03 985.06 1008.03   Z   M 977.79 1026.12   A 0.33 0.33 0.0 0 0 978.08 1026.61   L 991.82 1026.61   A 0.33 0.33 0.0 0 0 992.11 1026.12   L 985.24 1013.57   A 0.33 0.33 0.0 0 0 984.66 1013.57   L 977.79 1026.12   Z"/>
<path xmlns="http://www.w3.org/2000/svg" fill="#141415" d="M 1061.00 1034.28   Q 1060.53 1034.28 1060.15 1033.74   Q 1054.45 1025.53 1047.86 1016.25   A 0.27 0.27 0.0 0 0 1047.37 1016.41   L 1047.39 1037.37   A 0.82 0.82 0.0 0 1 1046.57 1038.19   L 1043.16 1038.19   A 0.76 0.76 0.0 0 1 1042.41 1037.44   L 1042.39 1008.76   A 0.74 0.74 0.0 0 1 1043.13 1008.02   L 1046.89 1008.02   A 1.11 1.10 73.3 0 1 1047.82 1008.53   Q 1051.27 1013.74 1060.25 1026.25   Q 1060.74 1026.93 1061.00 1026.93   Q 1061.29 1026.93 1061.78 1026.25   Q 1070.75 1013.73 1074.19 1008.52   A 1.11 1.10 -73.3 0 1 1075.12 1008.01   L 1078.88 1008.01   A 0.74 0.74 0.0 0 1 1079.62 1008.74   L 1079.63 1037.42   A 0.76 0.76 0.0 0 1 1078.87 1038.18   L 1075.47 1038.18   A 0.82 0.82 0.0 0 1 1074.65 1037.36   L 1074.64 1016.40   A 0.27 0.27 0.0 0 0 1074.16 1016.24   Q 1067.58 1025.53 1061.88 1033.74   Q 1061.50 1034.28 1061.00 1034.28   Z"/>
<path xmlns="http://www.w3.org/2000/svg" fill="#141415" d="M 1136.88 1030.77   Q 1130.89 1030.76 1128.09 1030.85   A 1.08 1.06 13.2 0 0 1127.18 1031.40   L 1123.89 1037.36   A 1.70 1.68 14.4 0 1 1122.41 1038.23   L 1118.79 1038.23   A 0.63 0.63 0.0 0 1 1118.25 1037.28   L 1134.05 1008.69   A 1.23 1.22 11.4 0 1 1135.03 1008.06   Q 1135.93 1007.97 1136.92 1007.97   Q 1137.90 1007.97 1138.81 1008.06   A 1.23 1.22 -11.2 0 1 1139.78 1008.70   L 1155.50 1037.34   A 0.63 0.63 0.0 0 1 1154.95 1038.28   L 1151.34 1038.28   A 1.70 1.68 -14.3 0 1 1149.85 1037.40   L 1146.58 1031.43   A 1.08 1.06 -13.1 0 0 1145.68 1030.88   Q 1142.88 1030.78 1136.88 1030.77   Z   M 1136.92 1013.25   A 0.30 0.30 0.0 0 0 1136.39 1013.26   L 1129.91 1026.11   A 0.30 0.30 0.0 0 0 1130.18 1026.55   L 1143.74 1026.55   A 0.30 0.30 0.0 0 0 1144.01 1026.11   L 1136.92 1013.25   Z"/>
<path xmlns="http://www.w3.org/2000/svg" fill="#ffffff" d="M 903.39 1013.17   A 0.68 0.68 0.0 0 1 904.06 1012.48   L 920.22 1012.28   A 2.86 2.77 -0.7 0 1 923.11 1015.02   L 923.15 1017.76   A 2.86 2.77 -0.7 0 1 920.32 1020.56   L 904.16 1020.76   A 0.68 0.68 0.0 0 1 903.47 1020.09   L 903.39 1013.17   Z"/>
<rect xmlns="http://www.w3.org/2000/svg" fill="#ffffff" x="-11.15" y="-10.60" transform="translate(279.47,1023.12) rotate(0.1)" width="22.30" height="21.20" rx="1.45"/>
<path xmlns="http://www.w3.org/2000/svg" fill="#ffffff" d="M 344.92 1012.83   A 0.41 0.41 0.0 0 1 345.33 1012.42   L 361.67 1012.39   A 3.21 2.94 -0.1 0 1 364.89 1015.32   L 364.89 1017.64   A 3.21 2.94 -0.1 0 1 361.69 1020.59   L 345.35 1020.62   A 0.41 0.41 0.0 0 1 344.94 1020.21   L 344.92 1012.83   Z"/>
<path xmlns="http://www.w3.org/2000/svg" fill="#ffffff" d="M 696.14 1025.96   L 702.77 1013.37   A 0.40 0.40 0.0 0 1 703.48 1013.38   L 710.07 1025.99   A 0.40 0.40 0.0 0 1 709.71 1026.57   L 696.49 1026.55   A 0.40 0.40 0.0 0 1 696.14 1025.96   Z"/>
<path xmlns="http://www.w3.org/2000/svg" fill="#ffffff" d="M 833.53 1026.02   L 840.11 1013.44   A 0.39 0.39 0.0 0 1 840.80 1013.44   L 847.46 1025.97   A 0.39 0.39 0.0 0 1 847.11 1026.54   L 833.88 1026.59   A 0.39 0.39 0.0 0 1 833.53 1026.02   Z"/>
<path xmlns="http://www.w3.org/2000/svg" fill="#ffffff" d="M 977.79 1026.12   L 984.66 1013.57   A 0.33 0.33 0.0 0 1 985.24 1013.57   L 992.11 1026.12   A 0.33 0.33 0.0 0 1 991.82 1026.61   L 978.08 1026.61   A 0.33 0.33 0.0 0 1 977.79 1026.12   Z"/>
<path xmlns="http://www.w3.org/2000/svg" fill="#ffffff" d="M 1136.92 1013.25   L 1144.01 1026.11   A 0.30 0.30 0.0 0 1 1143.74 1026.55   L 1130.18 1026.55   A 0.30 0.30 0.0 0 1 1129.91 1026.11   L 1136.39 1013.26   A 0.30 0.30 0.0 0 1 1136.92 1013.25   Z"/>
<path xmlns="http://www.w3.org/2000/svg" fill="#ffffff" d="M 345.00 1025.17   A 0.58 0.58 0.0 0 1 345.59 1024.60   L 362.25 1024.86   A 2.78 2.55 0.9 0 1 364.99 1027.46   L 364.93 1031.32   A 2.78 2.55 0.9 0 1 362.11 1033.82   L 345.45 1033.56   A 0.58 0.58 0.0 0 1 344.88 1032.97   L 345.00 1025.17   Z"/>
<path xmlns="http://www.w3.org/2000/svg" fill="#ffffff" d="M 903.42 1024.97   A 0.31 0.31 0.0 0 1 903.74 1024.66   L 920.28 1024.86   A 3.10 2.36 0.7 0 1 923.35 1027.26   L 923.30 1031.44   A 3.10 2.36 0.7 0 1 920.18 1033.76   L 903.63 1033.56   A 0.31 0.31 0.0 0 1 903.32 1033.25   L 903.42 1024.97   Z"/>
<path xmlns="http://www.w3.org/2000/svg" fill="#141415" d="M 597.29 1033.12   C 597.72 1036.61 597.65 1043.08 593.55 1044.03   A 1.07 1.07 0.0 0 1 592.36 1042.51   L 594.06 1039.14   A 0.54 0.54 0.0 0 0 593.58 1038.36   L 592.68 1038.36   A 0.84 0.84 0.0 0 1 591.84 1037.52   L 591.84 1033.32   A 0.75 0.75 0.0 0 1 592.59 1032.57   L 596.66 1032.57   A 0.64 0.63 -3.6 0 1 597.29 1033.12   Z"/>
</g></g></g></g></svg>