<svg xmlns="http://www.w3.org/2000/svg" direction="ltr" width="2048" height="2048" viewBox="16800 11504.739468397205 2048 2048" stroke-linecap="round" stroke-linejoin="round" data-color-mode="light" class="tl-container tl-theme__force-sRGB tl-theme__light" style="background-color: transparent;"><defs/><g transform="matrix(1, 0, 0, 1, 16800, 11504.7395)" opacity="1"><g data-lovart-layer-name="SVG 6"><g transform="scale(1.4143646408839778, 1.4143646408839778)"><g>
<g xmlns="http://www.w3.org/2000/svg" stroke-width="2.00" fill="none" stroke-linecap="butt">
<path stroke="#6c5637" d="M 693.95 580.18   Q 737.42 580.33 815.15 580.31   Q 824.31 580.31 828.31 579.38   C 837.68 577.19 844.88 572.80 851.22 565.58   Q 853.76 562.68 857.95 553.42   Q 861.15 546.34 865.88 536.94   C 869.71 529.35 869.91 520.21 861.22 515.98   Q 856.71 513.79 848.75 513.75   C 822.72 513.62 796.50 514.02 770.25 513.60   Q 768.62 513.57 767.68 512.88   A 2.31 2.24 -60.0 0 1 766.98 510.11   C 769.56 504.33 770.41 500.07 778.00 500.06   Q 824.65 500.00 844.75 500.15   Q 866.97 500.32 873.79 500.18   A 1.66 1.66 0.0 0 0 875.30 499.10   Q 877.74 492.56 881.49 486.66   C 883.88 482.91 886.32 478.11 887.42 475.44   A 0.94 0.94 0.0 0 0 886.66 474.15   Q 883.79 473.82 875.20 474.13   Q 871.70 474.26 863.81 474.27   Q 807.33 474.31 768.81 474.24   Q 759.31 474.22 755.32 475.41   C 747.89 477.64 740.85 481.11 735.49 487.51   Q 729.98 494.08 726.49 501.98   Q 721.47 513.37 718.02 519.97   Q 716.29 523.27 716.91 528.44   C 717.59 534.00 722.57 537.91 727.56 539.48   Q 729.53 540.09 734.99 540.13   Q 782.80 540.49 816.26 540.15   Q 816.66 540.15 817.14 540.28   C 822.08 541.59 817.99 547.23 816.10 550.36   C 814.27 553.37 811.90 554.07 808.22 554.22   Q 802.71 554.44 800.75 554.43   Q 761.05 554.34 715.50 554.36   Q 712.01 554.36 706.92 554.69   A 2.07 2.06 -78.0 0 0 705.21 555.81   L 693.28 579.08   A 0.76 0.75 13.8 0 0 693.95 580.18"/>
<path stroke="#6c5637" d="M 902.21 580.32   L 944.03 580.32   A 1.41 1.41 0.0 0 0 945.29 579.54   L 983.52 501.87   A 1.32 1.31 -77.0 0 1 984.70 501.13   L 1036.94 501.13   A 1.53 1.53 0.0 0 0 1038.33 500.24   C 1040.80 494.96 1042.44 490.66 1045.38 485.64   Q 1048.33 480.60 1050.85 475.35   Q 1051.15 474.73 1050.64 474.34   Q 1050.46 474.20 1050.00 474.20   Q 1002.21 474.44 904.57 474.33   Q 902.37 474.33 901.59 474.54   A 1.33 1.33 0.0 0 0 900.70 475.32   Q 899.08 479.26 894.44 487.00   C 891.88 491.28 890.41 495.34 888.11 500.09   A 0.69 0.68 12.9 0 0 888.73 501.07   L 938.63 501.07   A 0.86 0.86 0.0 0 1 939.43 502.24   C 936.56 509.71 932.61 516.48 929.39 523.13   Q 917.65 547.40 909.62 563.39   C 907.23 568.14 904.83 573.66 901.62 579.30   A 0.68 0.68 0.0 0 0 902.21 580.32"/>
<path stroke="#6c5637" d="M 370.49 474.28   Q 313.71 474.40 254.50 474.35   Q 247.92 474.34 242.07 476.31   C 235.88 478.38 228.33 481.80 223.82 486.48   C 219.43 491.05 215.86 494.24 213.25 500.08   Q 211.57 503.84 189.08 548.68   Q 184.34 558.13 184.12 562.11   Q 183.69 570.12 190.30 575.54   C 195.90 580.14 203.74 580.37 210.50 580.34   Q 226.40 580.27 314.77 580.27   Q 318.28 580.27 321.92 580.14   A 1.25 1.25 0.0 0 0 322.99 579.45   L 335.19 554.65   A 0.58 0.58 0.0 0 0 334.66 553.81   Q 296.10 554.21 254.41 553.95   C 248.74 553.91 241.51 554.59 235.79 553.97   C 229.18 553.25 232.75 546.82 234.52 543.77   Q 238.72 536.50 240.86 531.84   Q 244.84 523.19 246.85 519.73   Q 250.86 512.85 252.49 508.76   C 255.98 499.95 263.48 501.07 272.00 501.09   Q 308.69 501.19 357.06 501.04   A 1.79 1.78 -76.9 0 0 358.64 500.05   L 370.95 475.03   A 0.52 0.52 0.0 0 0 370.49 474.28"/>
<path stroke="#6c5637" d="M 508.08 552.83   C 509.82 548.57 513.46 542.87 515.91 537.72   Q 527.05 514.29 534.62 499.13   C 537.22 493.92 536.69 487.27 532.82 482.41   Q 526.51 474.47 516.25 474.43   Q 479.26 474.31 420.98 474.32   Q 408.25 474.32 402.66 475.83   Q 385.61 480.45 376.09 495.55   Q 369.88 505.40 364.24 518.32   C 359.97 528.09 356.05 533.93 351.63 543.98   Q 349.38 549.10 347.25 552.81   Q 344.57 557.49 344.30 560.23   C 342.90 574.20 353.68 580.30 365.76 580.28   Q 389.58 580.23 454.00 580.32   Q 454.62 580.33 467.21 580.02   C 474.61 579.83 482.75 578.76 487.72 575.48   Q 492.16 572.55 497.37 568.34   C 502.92 563.85 505.40 559.41 508.08 552.83"/>
<path stroke="#6c5637" d="M 499.37 579.99   Q 504.75 580.35 513.00 580.38   Q 525.24 580.42 547.85 580.13   A 2.50 2.49 -67.2 0 0 549.51 579.45   L 569.62 560.24   A 1.63 1.62 -66.4 0 1 570.73 559.80   L 638.40 559.80   A 1.02 1.01 -2.8 0 1 639.41 560.71   L 641.13 578.83   A 1.59 1.59 0.0 0 0 642.71 580.28   L 685.25 580.28   A 0.86 0.85 83.1 0 0 686.08 579.22   Q 684.60 573.16 684.19 567.31   C 683.44 556.48 681.03 543.16 680.00 535.00   Q 676.08 503.84 672.06 475.10   A 0.92 0.91 86.0 0 0 671.16 474.31   L 615.93 474.31   A 3.16 3.15 -66.0 0 0 613.82 475.12   Q 577.27 508.03 532.43 548.93   Q 524.64 556.04 521.96 558.76   C 517.56 563.23 514.95 565.20 509.84 569.41   C 505.94 572.63 502.80 576.13 499.20 579.52   A 0.27 0.27 0.0 0 0 499.37 579.99"/>
<path stroke="#6c5637" d="M 980.64 580.33   L 1029.33 580.33   A 2.10 2.10 0.0 0 0 1030.79 579.74   L 1051.11 560.33   A 1.99 1.97 23.1 0 1 1052.47 559.79   L 1119.53 559.79   A 0.94 0.93 -3.5 0 1 1120.46 560.61   L 1122.82 579.19   A 1.15 1.15 0.0 0 0 1123.96 580.20   L 1166.25 580.20   A 0.94 0.94 0.0 0 0 1167.18 579.14   L 1153.98 474.89   A 0.64 0.63 -3.6 0 0 1153.35 474.34   L 1097.46 474.34   A 4.08 4.06 -66.6 0 0 1094.66 475.46   Q 1083.64 485.98 1072.92 494.94   C 1069.07 498.16 1067.34 499.99 1063.75 503.73   C 1059.99 507.65 1055.62 511.32 1050.88 515.13   C 1047.22 518.08 1043.58 522.20 1040.56 524.80   Q 1033.53 530.87 1022.90 540.65   Q 1004.16 557.90 994.26 566.54   C 989.21 570.95 985.01 575.29 980.33 579.52   A 0.47 0.46 -66.1 0 0 980.64 580.33"/>
<path stroke="#6c5637" d="M 1233.76 554.00   A 0.74 0.74 0.0 0 1 1233.10 552.93   L 1271.26 475.40   A 0.74 0.74 0.0 0 0 1270.60 474.33   L 1228.32 474.33   A 0.74 0.74 0.0 0 0 1227.66 474.74   L 1176.23 579.21   A 0.74 0.74 0.0 0 0 1176.89 580.28   L 1310.61 580.28   A 0.74 0.74 0.0 0 0 1311.27 579.87   L 1323.48 555.07   A 0.74 0.74 0.0 0 0 1322.82 554.00   L 1233.76 554.00"/>
<path stroke="#6c5637" d="M 882.43 661.94   L 765.70 661.94   A 0.54 0.53 -77.5 0 1 765.22 661.18   L 772.73 644.98   A 1.64 1.64 0.0 0 1 774.15 644.03   Q 779.82 643.84 782.46 643.85   Q 826.99 644.07 870.32 643.94   C 880.94 643.90 891.29 644.41 902.31 643.63   A 1.84 1.82 18.3 0 0 903.58 643.00   Q 905.21 641.12 906.41 638.62   C 912.55 625.83 916.28 617.92 920.69 610.42   A 0.56 0.56 0.0 0 0 920.21 609.57   L 732.55 609.57   A 1.31 1.30 14.2 0 0 731.40 610.25   C 727.00 618.29 724.24 625.25 720.01 633.41   C 716.13 640.89 711.51 651.66 706.82 660.59   Q 705.70 662.73 702.42 669.65   Q 686.88 702.43 679.95 717.48   C 677.25 723.33 673.39 730.05 670.67 737.06   C 668.94 741.50 666.84 745.43 664.37 749.59   A 0.65 0.65 0.0 0 0 664.93 750.57   L 855.71 750.57   A 1.93 1.93 0.0 0 0 857.42 749.53   C 859.47 745.55 862.05 741.10 864.01 736.16   Q 867.13 728.26 871.58 720.35   Q 873.26 717.37 873.43 715.89   A 0.38 0.36 -86.5 0 0 873.07 715.47   L 740.13 715.47   A 0.62 0.61 -77.4 0 1 739.58 714.59   L 748.21 695.97   A 2.01 1.99 -77.4 0 1 750.02 694.81   L 865.92 694.81   A 2.32 2.32 0.0 0 0 868.00 693.52   L 883.05 662.93   A 0.69 0.69 0.0 0 0 882.43 661.94"/>
<path stroke="#6c5637" d="M 1131.19 610.32   A 0.81 0.81 0.0 0 0 1130.40 609.21   Q 1125.30 609.42 1116.50 609.43   Q 1098.32 609.46 973.28 609.49   Q 961.87 609.49 951.61 614.59   C 946.10 617.33 939.53 620.91 935.31 625.78   Q 930.84 630.94 929.51 632.58   C 925.17 637.95 923.24 644.60 919.82 651.16   Q 913.50 663.29 910.70 669.88   C 907.52 677.34 909.03 686.86 915.83 691.77   C 922.50 696.58 927.76 696.84 936.25 696.83   Q 966.96 696.78 1037.50 696.85   C 1039.11 696.85 1041.67 697.22 1042.11 699.23   Q 1042.57 701.34 1042.03 702.54   C 1039.30 708.55 1036.26 716.06 1028.24 716.05   Q 927.61 716.02 897.75 715.96   Q 896.60 715.95 894.12 716.18   A 1.15 1.13 10.2 0 0 893.20 716.81   L 876.90 749.92   A 0.73 0.72 12.7 0 0 877.56 750.96   Q 880.49 750.93 890.25 750.82   Q 915.18 750.56 1032.55 750.74   Q 1047.13 750.76 1052.83 749.35   Q 1063.02 746.83 1071.35 741.09   Q 1076.91 737.27 1084.10 728.56   Q 1087.52 724.42 1090.67 717.07   Q 1094.38 708.39 1100.90 695.25   Q 1105.20 686.58 1105.47 681.97   C 1105.98 673.26 1101.22 666.16 1092.99 663.50   Q 1087.38 661.69 1083.24 661.68   Q 1047.94 661.59 978.51 661.71   Q 973.96 661.72 973.88 658.31   A 2.42 2.29 -35.4 0 1 974.07 657.34   Q 974.25 656.92 977.25 650.91   C 981.01 643.36 986.59 643.69 993.51 643.70   Q 1004.87 643.72 1083.91 643.77   C 1093.35 643.78 1103.30 644.14 1113.51 643.58   A 1.01 1.00 -77.1 0 0 1114.34 643.05   Q 1120.39 631.91 1124.45 622.62   Q 1125.89 619.32 1127.64 616.39   Q 1131.07 610.63 1131.19 610.32"/>
<path stroke="#6c5637" d="M 1198.12 645.77   L 1149.34 749.56   A 0.66 0.66 0.0 0 0 1149.94 750.50   L 1205.44 750.50   A 0.87 0.86 -76.5 0 0 1206.21 750.02   L 1256.20 646.26   A 1.44 1.44 0.0 0 1 1257.50 645.44   L 1325.49 645.44   A 1.13 1.13 0.0 0 0 1326.51 644.80   L 1343.70 609.88   A 0.34 0.34 0.0 0 0 1343.39 609.39   L 1147.82 609.39   A 2.11 2.09 -76.8 0 0 1145.94 610.56   L 1129.12 644.75   A 0.48 0.48 0.0 0 0 1129.55 645.44   L 1197.91 645.44   A 0.23 0.23 0.0 0 1 1198.12 645.77"/>
<path stroke="#6c5637" d="M 239.97 669.46   Q 242.60 663.78 247.29 654.57   Q 249.78 649.70 251.49 648.49   C 256.33 645.09 260.26 645.34 266.27 645.38   Q 286.22 645.51 382.00 645.52   A 1.00 1.00 0.0 0 0 382.89 644.98   L 400.65 610.34   A 0.62 0.62 0.0 0 0 400.10 609.44   Q 392.68 609.42 384.50 609.51   Q 360.35 609.77 248.00 609.57   Q 231.18 609.54 217.22 618.28   C 209.71 622.98 202.61 629.49 197.92 637.12   Q 197.07 638.51 192.00 649.23   Q 161.58 713.59 153.21 731.41   Q 152.32 733.31 149.60 739.36   Q 147.71 743.58 144.51 749.53   A 0.65 0.65 0.0 0 0 145.08 750.49   L 200.33 750.49   A 1.91 1.91 0.0 0 0 202.05 749.41   L 224.26 703.32   A 0.88 0.87 12.9 0 1 225.05 702.83   L 343.94 702.83   A 0.93 0.93 0.0 0 0 344.80 702.26   C 347.75 695.48 351.36 687.46 355.38 680.74   Q 358.13 676.14 360.75 670.92   A 0.51 0.50 -76.8 0 0 360.30 670.19   L 240.44 670.19   A 0.52 0.52 0.0 0 1 239.97 669.46"/>
<path stroke="#6c5637" d="M 477.90 610.18   A 0.87 0.87 0.0 0 0 477.02 609.37   L 420.19 609.79   A 2.03 2.03 0.0 0 0 418.41 610.84   C 416.81 613.57 414.03 618.19 412.06 622.50   Q 405.02 637.87 403.54 640.83   Q 403.26 641.39 396.87 654.18   C 390.83 666.26 387.82 673.39 380.74 687.57   Q 375.69 697.68 372.05 706.05   C 367.90 715.61 363.65 722.98 359.45 732.40   Q 355.76 740.68 351.11 749.43   A 0.73 0.73 0.0 0 0 351.75 750.50   L 408.60 750.50   A 2.11 2.09 12.7 0 0 410.50 749.31   C 413.37 743.40 415.46 740.03 417.72 734.92   Q 422.14 724.94 425.51 717.74   Q 449.84 665.93 467.91 629.89   Q 473.89 617.96 477.79 610.52   Q 477.90 610.31 477.90 610.18"/>
<path stroke="#6c5637" d="M 533.14 660.70   Q 533.59 660.79 533.96 661.30   Q 542.65 673.43 548.49 682.52   C 551.04 686.48 554.09 690.41 557.16 694.86   Q 573.59 718.70 594.76 749.97   A 1.21 1.20 72.3 0 0 595.74 750.48   L 643.58 750.48   A 1.55 1.54 12.1 0 0 644.99 749.57   Q 649.63 739.25 655.58 726.10   C 656.56 723.93 658.21 721.40 659.26 719.09   Q 669.75 696.02 677.03 681.34   C 681.18 672.97 684.87 663.69 689.36 655.47   C 693.03 648.76 695.56 642.59 699.36 634.38   Q 700.99 630.87 705.61 622.50   Q 708.47 617.32 711.34 610.33   A 0.57 0.57 0.0 0 0 710.81 609.54   L 661.72 609.54   A 1.45 1.45 0.0 0 0 660.42 610.35   L 621.81 688.79   A 0.63 0.63 0.0 0 1 620.73 688.87   L 566.14 610.57   A 2.21 2.19 72.3 0 0 564.34 609.63   L 502.00 609.63   A 1.94 1.94 0.0 0 0 500.25 610.73   L 433.38 749.52   A 0.71 0.71 0.0 0 0 434.02 750.54   L 488.30 750.54   A 1.80 1.79 12.8 0 0 489.92 749.53   L 532.58 660.98   A 0.52 0.51 17.9 0 1 533.14 660.70"/>
<path stroke="#6c5637" d="M 327.34 856.80   L 334.16 842.64   A 0.94 0.92 12.5 0 1 335.00 842.12   L 418.55 842.12   A 1.57 1.57 0.0 0 0 419.92 841.32   Q 425.88 830.84 431.10 819.39   Q 431.29 818.98 431.18 818.66   Q 430.97 818.08 430.45 818.11   C 417.82 818.80 404.85 818.20 390.84 818.26   Q 389.91 818.26 346.58 818.34   A 0.47 0.46 13.1 0 1 346.16 817.67   L 351.47 806.88   A 2.36 2.34 -76.7 0 1 353.57 805.57   L 442.77 805.57   A 1.36 1.35 -77.1 0 0 443.99 804.80   L 455.40 781.13   A 0.56 0.56 0.0 0 0 454.89 780.33   Q 385.50 780.32 330.25 780.10   Q 326.41 780.08 324.33 780.68   A 1.58 1.57 6.5 0 0 323.43 781.39   Q 317.60 791.48 314.50 799.14   C 311.67 806.14 308.58 811.39 305.26 818.74   C 298.52 833.65 290.16 849.73 283.34 865.73   Q 280.68 871.98 275.43 881.66   A 0.67 0.67 0.0 0 0 276.02 882.65   L 410.99 882.65   A 1.00 0.98 12.9 0 0 411.88 882.10   L 423.59 857.80   A 0.51 0.51 0.0 0 0 423.13 857.07   L 327.51 857.07   A 0.19 0.19 0.0 0 1 327.34 856.80"/>
<path stroke="#6c5637" d="M 503.71 806.60   L 468.37 881.78   A 0.59 0.59 0.0 0 0 468.91 882.62   L 507.09 882.62   A 0.91 0.89 12.2 0 0 507.91 882.10   L 543.62 806.14   A 1.00 1.00 0.0 0 1 544.52 805.57   Q 562.26 805.64 588.07 805.64   Q 589.53 805.64 592.28 805.10   A 1.54 1.52 -81.9 0 0 593.36 804.28   L 605.04 780.55   A 0.19 0.18 12.2 0 0 604.87 780.29   L 469.15 780.29   A 1.54 1.53 13.0 0 0 467.77 781.15   L 456.20 804.67   A 0.68 0.67 -70.4 0 0 456.65 805.63   Q 457.60 805.85 458.75 805.86   Q 465.73 805.95 479.50 805.49   Q 489.43 805.16 503.23 805.81   A 0.55 0.55 0.0 0 1 503.71 806.60"/>
<path stroke="#6c5637" d="M 804.26 780.63   C 797.78 780.60 792.24 779.60 785.88 780.09   Q 776.49 780.83 766.49 780.28   A 1.93 1.91 12.0 0 0 764.60 781.50   Q 760.62 791.86 756.23 800.25   C 752.16 808.04 749.21 815.41 744.92 824.43   Q 733.56 848.39 729.37 857.92   Q 726.72 863.96 723.61 869.81   Q 720.92 874.86 718.38 881.92   A 0.56 0.56 0.0 0 0 718.91 882.68   L 757.01 882.68   A 0.93 0.92 -77.5 0 0 757.85 882.14   L 804.63 781.22   A 0.42 0.41 12.9 0 0 804.26 780.63"/>
<path stroke="#6c5637" d="M 828.04 857.04   A 0.71 0.71 0.0 0 1 827.39 856.03   Q 829.46 851.46 832.57 845.64   Q 834.52 841.99 837.62 835.20   Q 848.92 810.45 862.94 781.05   A 0.53 0.53 0.0 0 0 862.47 780.29   L 823.98 780.29   A 1.04 1.04 0.0 0 0 823.01 780.95   Q 819.03 791.21 814.62 799.77   C 806.84 814.89 801.40 828.29 793.41 844.90   C 791.34 849.21 789.13 854.95 786.41 860.35   Q 781.18 870.74 778.26 877.83   Q 777.03 880.81 776.45 881.92   A 0.49 0.48 14.0 0 0 776.88 882.63   L 899.23 882.63   A 0.85 0.84 -77.1 0 0 899.99 882.15   L 911.30 857.75   A 0.50 0.50 0.0 0 0 910.85 857.04   L 828.04 857.04"/>
<path stroke="#6c5637" d="M 976.06 882.69   L 1013.33 882.69   A 0.90 0.89 12.4 0 0 1014.14 882.18   L 1043.94 818.79   A 0.46 0.46 0.0 0 1 1044.65 818.63   Q 1045.88 819.66 1046.57 820.78   Q 1052.68 830.81 1056.48 835.87   C 1063.35 845.02 1069.31 855.77 1076.21 864.70   C 1080.29 869.97 1083.47 875.60 1087.99 882.11   A 1.05 1.04 -17.2 0 0 1088.85 882.56   L 1121.90 882.56   A 0.77 0.76 -80.3 0 0 1122.62 882.04   Q 1123.85 878.57 1125.45 875.72   C 1130.01 867.54 1132.67 859.29 1136.54 851.18   Q 1141.24 841.32 1153.39 815.06   C 1157.71 805.72 1160.30 798.78 1164.87 790.56   C 1166.31 787.97 1168.18 783.55 1169.12 781.35   A 0.78 0.78 0.0 0 0 1168.40 780.27   L 1134.41 780.27   A 1.32 1.32 0.0 0 0 1133.22 781.02   L 1106.29 836.90   A 0.41 0.41 0.0 0 1 1105.60 836.98   Q 1101.45 831.63 1098.67 826.91   C 1094.91 820.55 1090.09 815.07 1086.31 808.97   Q 1082.03 802.05 1075.25 793.00   C 1072.46 789.29 1070.16 785.48 1067.49 781.03   A 1.81 1.80 -15.6 0 0 1065.92 780.15   Q 1053.06 780.22 1035.08 780.13   C 1031.50 780.11 1027.56 780.53 1023.71 780.72   A 1.82 1.80 13.3 0 0 1022.23 781.62   C 1015.44 793.46 1011.05 805.62 1005.23 817.40   Q 998.96 830.06 986.92 856.80   Q 984.92 861.27 980.87 869.15   Q 977.39 875.93 975.36 881.71   A 0.74 0.74 0.0 0 0 976.06 882.69"/>
<path stroke="#6c5637" d="M 116.21 882.57   Q 161.58 882.75 219.40 882.61   Q 235.63 882.58 237.17 882.37   Q 244.94 881.35 253.95 876.64   Q 263.71 871.54 268.89 861.41   Q 280.61 838.49 291.74 813.12   Q 293.03 810.17 294.98 806.54   C 298.39 800.18 298.80 793.56 293.96 787.75   Q 287.71 780.23 277.62 780.25   Q 230.17 780.30 172.75 780.27   Q 169.16 780.26 164.58 780.52   A 1.98 1.95 10.5 0 0 162.91 781.65   L 115.79 881.90   A 0.47 0.47 0.0 0 0 116.21 882.57"/>
<path stroke="#6c5637" d="M 539.18 881.81   A 0.48 0.48 0.0 0 0 539.51 882.63   L 584.27 882.63   A 1.79 1.79 0.0 0 0 585.51 882.13   C 592.13 875.77 597.17 869.43 603.98 863.50   A 3.02 2.99 -65.3 0 1 605.95 862.76   L 666.91 862.76   A 1.02 1.02 0.0 0 1 667.93 863.69   L 669.67 882.01   A 0.69 0.68 87.2 0 0 670.35 882.63   L 709.62 882.63   A 1.34 1.33 -3.6 0 0 710.95 881.13   L 698.27 780.96   A 0.81 0.80 -3.6 0 0 697.47 780.26   L 645.36 780.26   A 2.32 2.31 24.5 0 0 643.85 780.82   Q 637.69 786.25 634.33 789.72   C 626.76 797.53 620.70 802.31 613.44 809.81   Q 608.33 815.09 601.95 821.08   Q 587.54 834.61 539.18 881.81"/>
<path stroke="#6c5637" d="M 956.55 882.61   A 0.34 0.34 0.0 0 0 956.86 882.41   L 1003.98 780.75   A 0.34 0.34 0.0 0 0 1003.67 780.27   L 964.90 780.27   A 0.34 0.34 0.0 0 0 964.59 780.47   L 916.81 882.13   A 0.34 0.34 0.0 0 0 917.12 882.61   L 956.55 882.61"/>
<path stroke="#6c5637" d="M 1327.24 780.40   C 1321.72 779.98 1316.19 780.33 1310.64 780.32   Q 1261.28 780.23 1217.22 780.26   Q 1207.90 780.26 1203.89 781.21   C 1194.22 783.48 1181.78 792.34 1177.38 801.61   Q 1155.27 848.12 1150.83 858.27   Q 1146.73 867.63 1152.57 875.49   C 1155.85 879.88 1162.25 882.48 1167.51 882.54   Q 1184.64 882.72 1254.77 882.63   Q 1264.64 882.62 1269.19 881.31   Q 1280.73 877.98 1289.05 868.35   Q 1292.39 864.47 1296.99 854.09   Q 1305.07 835.87 1312.09 821.46   A 0.54 0.53 -77.1 0 0 1311.61 820.69   L 1236.58 820.69   A 1.45 1.44 -76.6 0 0 1235.29 821.49   L 1224.08 844.27   A 0.53 0.53 0.0 0 0 1224.55 845.04   L 1261.03 845.04   A 0.91 0.91 0.0 0 1 1261.85 846.33   C 1259.03 852.49 1257.54 856.72 1249.81 857.01   Q 1244.52 857.20 1244.25 857.19   Q 1219.59 856.85 1199.25 857.29   C 1195.09 857.38 1191.19 856.03 1193.51 851.29   Q 1195.59 847.07 1211.85 812.67   Q 1213.72 808.71 1215.24 807.72   Q 1217.84 806.02 1221.03 805.85   Q 1227.02 805.54 1237.75 805.61   Q 1251.66 805.70 1314.62 805.51   A 1.43 1.43 0.0 0 0 1315.88 804.72   L 1327.57 780.97   A 0.40 0.40 0.0 0 0 1327.24 780.40"/>
<path stroke="#6c5637" d="M 1184.56 950.04   Q 1184.77 950.07 1191.24 950.48   Q 1195.97 950.77 1202.38 952.63   C 1207.77 954.19 1211.49 956.92 1213.66 961.92   C 1216.15 967.66 1216.96 974.26 1217.27 980.61   A 0.18 0.18 0.0 0 0 1217.44 980.78   L 1217.45 980.78   A 0.23 0.23 0.0 0 0 1217.69 980.57   C 1218.20 974.34 1218.48 969.30 1220.65 962.86   Q 1222.81 956.46 1228.36 954.13   Q 1238.30 949.95 1249.37 950.32   A 0.04 0.04 0.0 0 0 1249.41 950.28   L 1249.41 950.01   A 0.33 0.32 -90.0 0 0 1249.09 949.68   C 1241.92 949.52 1235.34 949.06 1228.59 945.90   C 1218.80 941.32 1218.62 929.15 1217.42 920.21   A 0.14 0.13 42.5 0 0 1217.15 920.22   Q 1216.92 926.34 1215.55 932.35   C 1213.75 940.24 1210.71 944.81 1202.92 947.21   Q 1195.17 949.59 1184.57 949.85   A 0.10 0.10 0.0 0 0 1184.56 950.04"/>
<path stroke="#6c5637" d="M 259.48 948.64   L 269.77 962.43   A 1.80 1.79 44.1 0 0 272.68 962.39   L 282.57 948.19   A 0.46 0.46 0.0 0 1 283.41 948.46   L 283.41 965.91   A 0.78 0.78 0.0 0 0 284.19 966.69   L 288.38 966.69   A 0.77 0.77 0.0 0 0 289.15 965.92   L 289.15 940.13   A 0.69 0.68 4.5 0 0 288.57 939.46   Q 286.08 939.09 284.37 939.42   A 1.15 1.14 -76.5 0 0 283.66 939.86   L 272.34 954.96   A 0.91 0.90 45.1 0 1 270.89 954.95   L 259.64 939.88   A 1.21 1.20 -18.1 0 0 258.67 939.39   L 254.17 939.39   A 0.65 0.65 0.0 0 0 253.52 940.04   L 253.52 965.89   A 0.82 0.82 0.0 0 0 254.34 966.71   L 257.86 966.71   A 0.85 0.85 0.0 0 0 258.71 965.86   L 258.71 948.90   A 0.43 0.43 0.0 0 1 259.48 948.64"/>
<path stroke="#6c5637" d="M 358.13 944.91   A 5.57 5.57 0.0 0 0 352.56 939.34   L 330.04 939.34   A 5.57 5.57 0.0 0 0 324.47 944.91   L 324.47 961.29   A 5.57 5.57 0.0 0 0 330.04 966.86   L 352.56 966.86   A 5.57 5.57 0.0 0 0 358.13 961.29   L 358.13 944.91"/>
<path stroke="#6c5637" d="M 419.98 952.94   A 0.46 0.45 46.8 0 1 420.00 952.11   C 422.99 950.89 423.04 948.83 422.89 945.57   C 422.74 942.15 422.22 939.86 418.24 939.57   Q 407.61 938.81 394.10 939.57   A 0.57 0.57 0.0 0 0 393.56 940.14   L 393.56 966.07   A 0.57 0.57 0.0 0 0 394.12 966.64   Q 402.95 966.75 412.27 966.95   Q 416.14 967.03 418.90 966.34   C 422.85 965.36 423.07 962.28 423.18 958.77   Q 423.28 955.47 422.36 954.22   A 1.18 1.17 83.8 0 0 421.94 953.88   L 419.98 952.94"/>
<path stroke="#6c5637" d="M 464.6754 940.0712   A 0.69 0.69 0.0 0 0 463.9878 939.3788   L 459.0078 939.3614   A 0.69 0.69 0.0 0 0 458.3154 940.0490   L 458.2246 966.0688   A 0.69 0.69 0.0 0 0 458.9122 966.7612   L 463.8922 966.7786   A 0.69 0.69 0.0 0 0 464.5846 966.0910   L 464.6754 940.0712"/>
<path stroke="#6c5637" d="M 568.52 950.42   A 0.88 0.88 0.0 0 1 567.64 949.54   L 567.64 944.90   A 0.88 0.88 0.0 0 1 568.52 944.02   L 588.02 944.02   A 0.88 0.88 0.0 0 0 588.90 943.14   L 588.90 940.24   A 0.88 0.88 0.0 0 0 588.02 939.36   L 562.18 939.36   A 0.88 0.88 0.0 0 0 561.30 940.24   L 561.30 965.76   A 0.88 0.88 0.0 0 0 562.18 966.64   L 588.29 966.64   A 0.88 0.88 0.0 0 0 589.17 965.76   L 589.17 962.68   A 0.88 0.88 0.0 0 0 588.29 961.80   L 568.55 961.80   A 0.88 0.88 0.0 0 1 567.67 960.92   L 567.67 955.39   A 0.88 0.88 0.0 0 1 568.55 954.51   L 579.37 954.51   A 0.88 0.88 0.0 0 0 580.25 953.63   L 580.25 951.30   A 0.88 0.88 0.0 0 0 579.37 950.42   L 568.52 950.42"/>
<path stroke="#6c5637" d="M 729.11 965.85   L 714.72 940.07   A 1.11 1.10 75.6 0 0 713.76 939.50   L 709.29 939.47   A 1.99 1.98 14.8 0 0 707.55 940.48   L 693.38 965.50   A 0.79 0.78 -76.2 0 0 694.09 966.68   L 697.87 966.54   A 2.20 2.20 0.0 0 0 699.78 965.31   L 701.78 961.25   A 1.52 1.51 13.5 0 1 703.16 960.41   L 718.72 960.58   A 1.00 0.99 76.7 0 1 719.60 961.13   L 721.95 965.81   A 1.79 1.78 -12.6 0 0 723.50 966.79   L 728.47 966.90   A 0.71 0.70 -13.9 0 0 729.11 965.85"/>
<path stroke="#6c5637" d="M 769.97 961.66   A 0.83 0.83 0.0 0 1 769.14 960.83   L 769.14 940.20   A 0.83 0.83 0.0 0 0 768.31 939.37   L 763.59 939.37   A 0.83 0.83 0.0 0 0 762.76 940.20   L 762.76 965.94   A 0.83 0.83 0.0 0 0 763.59 966.77   L 788.78 966.77   A 0.83 0.83 0.0 0 0 789.61 965.94   L 789.61 962.49   A 0.83 0.83 0.0 0 0 788.78 961.66   L 769.97 961.66"/>
<path stroke="#6c5637" d="M 917.79 952.85   A 0.45 0.45 0.0 0 1 917.81 952.03   C 920.77 950.80 920.81 948.76 920.64 945.52   C 920.48 942.13 919.95 939.86 916.00 939.59   Q 905.44 938.88 892.03 939.70   A 0.57 0.57 0.0 0 0 891.50 940.27   L 891.63 966.01   A 0.57 0.57 0.0 0 0 892.19 966.58   Q 900.95 966.64 910.20 966.79   Q 914.05 966.86 916.78 966.16   C 920.70 965.17 920.90 962.11 920.99 958.62   Q 921.08 955.35 920.16 954.11   A 1.17 1.16 83.5 0 0 919.74 953.77   L 917.79 952.85"/>
<path stroke="#6c5637" d="M 1029.19 947.73   A 0.31 0.31 0.0 0 1 1029.76 947.55   L 1040.61 962.57   A 1.61 1.61 0.0 0 0 1042.73 963.02   Q 1042.99 962.85 1043.26 962.51   Q 1044.49 960.94 1052.90 948.66   Q 1053.07 948.41 1053.39 948.39   A 0.65 0.63 -0.4 0 1 1054.08 949.05   Q 1053.66 957.25 1054.00 965.93   A 0.75 0.74 -0.8 0 0 1054.75 966.65   L 1059.10 966.65   A 0.78 0.78 0.0 0 0 1059.88 965.87   L 1059.88 940.51   A 1.02 1.01 -84.5 0 0 1059.06 939.51   Q 1056.71 939.06 1054.54 939.83   A 0.88 0.86 8.0 0 0 1054.12 940.14   L 1042.98 954.74   A 1.15 1.15 0.0 0 1 1041.14 954.73   L 1029.97 939.76   A 1.17 1.17 0.0 0 0 1029.04 939.30   L 1024.82 939.30   A 0.77 0.77 0.0 0 0 1024.05 940.07   L 1024.05 965.87   A 0.93 0.92 90.0 0 0 1024.97 966.80   L 1028.33 966.80   A 0.86 0.86 0.0 0 0 1029.19 965.94   L 1029.19 947.73"/>
<path stroke="#6c5637" d="M 1131.03 965.82   L 1116.28 939.86   A 1.12 1.11 75.2 0 0 1115.31 939.29   L 1110.79 939.29   A 2.01 2.00 14.4 0 0 1109.04 940.33   L 1094.90 965.73   A 0.80 0.79 -76.7 0 0 1095.62 966.92   L 1099.45 966.75   A 2.23 2.22 -78.2 0 0 1101.36 965.49   L 1103.35 961.37   A 1.53 1.53 0.0 0 1 1104.75 960.51   L 1120.48 960.56   A 1.01 1.00 76.3 0 1 1121.38 961.12   L 1123.78 965.83   A 1.81 1.80 -13.0 0 0 1125.36 966.81   L 1130.39 966.89   A 0.72 0.71 -14.4 0 0 1131.03 965.82"/>
<path stroke="#6c5637" d="M 501.76 939.48   A 0.56 0.55 -89.9 0 0 501.22 940.03   L 501.15 966.14   A 0.47 0.47 0.0 0 0 501.62 966.61   L 526.80 966.72   A 1.01 1.01 0.0 0 0 527.81 965.71   L 527.78 962.59   A 0.93 0.92 89.8 0 0 526.86 961.67   L 508.21 961.53   A 0.83 0.83 0.0 0 1 507.39 960.70   L 507.58 940.05   A 0.53 0.53 0.0 0 0 507.06 939.53   L 501.76 939.48"/>
<path stroke="#6c5637" d="M 851.69 966.51   A 0.72 0.72 0.0 0 0 852.32 966.87   L 857.86 966.87   A 0.72 0.72 0.0 0 0 858.49 965.79   L 843.48 939.79   A 0.72 0.72 0.0 0 0 842.85 939.43   L 837.75 939.43   A 0.72 0.72 0.0 0 0 837.12 939.79   L 822.14 965.72   A 0.72 0.72 0.0 0 0 822.77 966.80   L 827.48 966.80   A 0.72 0.72 0.0 0 0 828.11 966.44   L 831.28 960.93   A 0.72 0.72 0.0 0 1 831.91 960.57   L 847.85 960.57   A 0.72 0.72 0.0 0 1 848.48 960.93   L 851.69 966.51"/>
<path stroke="#6c5637" d="M 990.07 965.67   L 975.56 940.10   A 1.10 1.10 0.0 0 0 974.60 939.54   L 970.15 939.54   A 1.98 1.97 14.4 0 0 968.42 940.56   L 954.50 965.57   A 0.79 0.78 -76.6 0 0 955.21 966.74   L 958.98 966.57   A 2.19 2.19 0.0 0 0 960.86 965.34   L 962.83 961.28   A 1.51 1.50 13.1 0 1 964.20 960.43   L 979.69 960.49   A 1.00 0.98 76.3 0 1 980.57 961.03   L 982.94 965.67   A 1.78 1.78 0.0 0 0 984.49 966.64   L 989.44 966.71   A 0.71 0.70 -14.3 0 0 990.07 965.67"/>
<path stroke="#6c5637" d="M 622.50 972.73   A 1.17 1.16 73.1 0 0 624.54 973.82   L 629.75 966.33   A 1.33 1.31 63.0 0 0 629.99 965.57   L 629.99 959.88   A 1.19 1.19 0.0 0 0 628.80 958.69   L 623.24 958.69   A 1.20 1.20 0.0 0 0 622.04 959.89   L 622.04 965.17   A 0.86 0.85 -0.0 0 0 622.90 966.02   L 625.15 966.02   A 0.72 0.72 0.0 0 1 625.75 967.13   Q 623.04 971.33 622.50 972.73"/>
<path stroke="#6c5637" d="M 392.57 552.64   Q 394.46 554.31 397.51 554.23   Q 415.27 553.73 434.38 554.03   C 441.39 554.15 448.72 553.88 456.83 553.87   C 462.76 553.86 465.82 551.57 468.36 545.77   Q 471.17 539.34 475.52 532.00   C 477.64 528.43 480.28 520.80 483.08 516.02   C 484.92 512.87 493.11 500.82 483.26 501.01   Q 472.18 501.23 429.76 501.04   C 424.24 501.02 420.13 500.71 415.64 504.01   Q 414.03 505.20 412.00 509.87   C 410.29 513.81 406.33 520.17 403.80 525.74   Q 398.20 538.09 393.44 545.93   Q 391.35 549.36 392.03 551.79   A 1.80 1.72 13.8 0 0 392.57 552.64"/>
<path stroke="#6c5637" d="M 595.15 536.28   L 635.16 536.28   A 0.85 0.85 0.0 0 0 635.99 535.26   C 634.57 528.40 633.54 522.41 633.05 513.92   Q 632.67 507.20 631.86 502.21   A 0.80 0.80 0.0 0 0 630.51 501.76   L 594.93 535.74   A 0.31 0.31 0.0 0 0 595.15 536.28"/>
<path stroke="#6c5637" d="M 1076.70 536.35   Q 1089.40 537.28 1102.52 536.22   Q 1105.62 535.97 1116.76 536.37   A 0.62 0.62 0.0 0 0 1117.40 535.67   L 1113.17 502.24   A 0.54 0.53 65.9 0 0 1112.29 501.90   C 1107.04 506.42 1101.47 511.39 1095.47 517.79   C 1089.39 524.25 1082.10 529.36 1076.28 535.25   A 0.65 0.65 0.0 0 0 1076.70 536.35"/>
<path stroke="#6c5637" d="M 167.47 857.11   Q 167.83 857.25 168.50 857.24   Q 184.79 856.99 225.49 856.96   C 230.86 856.96 233.61 853.64 235.89 848.62   Q 243.25 832.37 253.02 812.45   C 255.49 807.43 253.12 805.58 247.91 805.59   Q 192.96 805.63 192.38 805.67   A 1.88 1.87 10.7 0 0 190.80 806.74   L 167.24 856.53   A 0.43 0.42 -67.0 0 0 167.47 857.11"/>
<path stroke="#6c5637" d="M 626.78 839.44   A 0.31 0.31 0.0 0 0 627.02 839.96   Q 637.63 839.42 648.15 840.21   C 653.48 840.61 657.10 840.25 664.05 840.07   A 0.67 0.67 0.0 0 0 664.70 839.32   L 660.62 807.11   A 0.63 0.62 -24.0 0 0 659.59 806.72   Q 651.15 814.14 646.24 819.71   Q 641.81 824.74 636.50 829.54   Q 632.69 832.99 626.78 839.44"/>
<path stroke="#6c5637" d="M 351.2842 944.6478   A 0.55 0.55 0.0 0 0 350.7351 944.0969   L 331.4152 944.0632   A 0.55 0.55 0.0 0 0 330.8642 944.6122   L 330.8358 960.8722   A 0.55 0.55 0.0 0 0 331.3849 961.4231   L 350.7048 961.4568   A 0.55 0.55 0.0 0 0 351.2558 960.9078   L 351.2842 944.6478"/>
<path stroke="#6c5637" d="M 416.16 943.77   L 400.94 943.59   A 1.01 1.01 0.0 0 0 399.92 944.58   L 399.88 947.81   A 2.78 2.52 0.7 0 0 402.63 950.37   L 414.31 950.51   A 2.78 2.52 0.7 0 0 417.12 948.03   L 417.16 944.80   A 1.01 1.01 0.0 0 0 416.16 943.77"/>
<path stroke="#6c5637" d="M 399.86 955.75   L 399.96 960.95   A 0.94 0.94 0.0 0 0 400.92 961.87   L 415.11 961.60   A 2.39 2.15 -1.1 0 0 417.46 959.40   L 417.40 956.62   A 2.39 2.15 -1.1 0 0 414.97 954.52   L 400.78 954.79   A 0.94 0.94 0.0 0 0 399.86 955.75"/>
<path stroke="#6c5637" d="M 710.76 955.95   Q 715.21 956.00 716.03 955.97   A 0.76 0.76 0.0 0 0 716.65 954.81   Q 712.90 948.68 711.38 945.62   C 711.29 945.44 711.04 945.35 710.88 945.34   C 710.71 945.34 710.46 945.43 710.37 945.61   Q 708.78 948.64 704.90 954.68   A 0.76 0.76 0.0 0 0 705.50 955.86   Q 706.32 955.91 710.76 955.95"/>
<path stroke="#6c5637" d="M 897.91 944.55   L 898.00 949.75   A 0.68 0.68 0.0 0 0 898.69 950.41   L 912.44 950.17   A 2.45 2.18 -1.0 0 0 914.85 947.95   L 914.81 945.75   A 2.45 2.18 -1.0 0 0 912.32 943.62   L 898.57 943.86   A 0.68 0.68 0.0 0 0 897.91 944.55"/>
<path stroke="#6c5637" d="M 897.76 955.25   L 897.76 961.17   A 0.61 0.61 0.0 0 0 898.37 961.78   L 911.95 961.78   A 3.01 1.85 0.0 0 0 914.96 959.93   L 914.96 956.49   A 3.01 1.85 -0.0 0 0 911.95 954.64   L 898.37 954.64   A 0.61 0.61 0.0 0 0 897.76 955.25"/>
<path stroke="#6c5637" d="M 1107.14 955.09   A 0.44 0.44 0.0 0 0 1107.53 955.74   L 1117.88 955.76   A 0.44 0.44 0.0 0 0 1118.27 955.11   L 1113.11 945.58   A 0.44 0.44 0.0 0 0 1112.33 945.58   L 1107.14 955.09"/>
<path stroke="#6c5637" d="M 840.53 945.63   A 0.44 0.44 0.0 0 0 839.76 945.61   L 834.09 955.25   A 0.44 0.44 0.0 0 0 834.47 955.91   L 845.16 955.72   A 0.44 0.44 0.0 0 0 845.54 955.07   L 840.53 945.63"/>
<path stroke="#6c5637" d="M 977.23 955.99   A 0.62 0.62 0.0 0 0 977.78 955.06   L 972.49 945.72   A 0.62 0.62 0.0 0 0 971.42 945.71   L 965.98 954.96   A 0.62 0.62 0.0 0 0 966.50 955.89   L 977.23 955.99"/>
</g>
<path xmlns="http://www.w3.org/2000/svg" fill="#be9252" d="M 1448.00 0.00   L 1448.00 1448.00   L 0.00 1448.00   L 0.00 0.00   L 1448.00 0.00   Z   M 693.95 580.18   Q 737.42 580.33 815.15 580.31   Q 824.31 580.31 828.31 579.38   C 837.68 577.19 844.88 572.80 851.22 565.58   Q 853.76 562.68 857.95 553.42   Q 861.15 546.34 865.88 536.94   C 869.71 529.35 869.91 520.21 861.22 515.98   Q 856.71 513.79 848.75 513.75   C 822.72 513.62 796.50 514.02 770.25 513.60   Q 768.62 513.57 767.68 512.88   A 2.31 2.24 -60.0 0 1 766.98 510.11   C 769.56 504.33 770.41 500.07 778.00 500.06   Q 824.65 500.00 844.75 500.15   Q 866.97 500.32 873.79 500.18   A 1.66 1.66 0.0 0 0 875.30 499.10   Q 877.74 492.56 881.49 486.66   C 883.88 482.91 886.32 478.11 887.42 475.44   A 0.94 0.94 0.0 0 0 886.66 474.15   Q 883.79 473.82 875.20 474.13   Q 871.70 474.26 863.81 474.27   Q 807.33 474.31 768.81 474.24   Q 759.31 474.22 755.32 475.41   C 747.89 477.64 740.85 481.11 735.49 487.51   Q 729.98 494.08 726.49 501.98   Q 721.47 513.37 718.02 519.97   Q 716.29 523.27 716.91 528.44   C 717.59 534.00 722.57 537.91 727.56 539.48   Q 729.53 540.09 734.99 540.13   Q 782.80 540.49 816.26 540.15   Q 816.66 540.15 817.14 540.28   C 822.08 541.59 817.99 547.23 816.10 550.36   C 814.27 553.37 811.90 554.07 808.22 554.22   Q 802.71 554.44 800.75 554.43   Q 761.05 554.34 715.50 554.36   Q 712.01 554.36 706.92 554.69   A 2.07 2.06 -78.0 0 0 705.21 555.81   L 693.28 579.08   A 0.76 0.75 13.8 0 0 693.95 580.18   Z   M 902.21 580.32   L 944.03 580.32   A 1.41 1.41 0.0 0 0 945.29 579.54   L 983.52 501.87   A 1.32 1.31 -77.0 0 1 984.70 501.13   L 1036.94 501.13   A 1.53 1.53 0.0 0 0 1038.33 500.24   C 1040.80 494.96 1042.44 490.66 1045.38 485.64   Q 1048.33 480.60 1050.85 475.35   Q 1051.15 474.73 1050.64 474.34   Q 1050.46 474.20 1050.00 474.20   Q 1002.21 474.44 904.57 474.33   Q 902.37 474.33 901.59 474.54   A 1.33 1.33 0.0 0 0 900.70 475.32   Q 899.08 479.26 894.44 487.00   C 891.88 491.28 890.41 495.34 888.11 500.09   A 0.69 0.68 12.9 0 0 888.73 501.07   L 938.63 501.07   A 0.86 0.86 0.0 0 1 939.43 502.24   C 936.56 509.71 932.61 516.48 929.39 523.13   Q 917.65 547.40 909.62 563.39   C 907.23 568.14 904.83 573.66 901.62 579.30   A 0.68 0.68 0.0 0 0 902.21 580.32   Z   M 370.49 474.28   Q 313.71 474.40 254.50 474.35   Q 247.92 474.34 242.07 476.31   C 235.88 478.38 228.33 481.80 223.82 486.48   C 219.43 491.05 215.86 494.24 213.25 500.08   Q 211.57 503.84 189.08 548.68   Q 184.34 558.13 184.12 562.11   Q 183.69 570.12 190.30 575.54   C 195.90 580.14 203.74 580.37 210.50 580.34   Q 226.40 580.27 314.77 580.27   Q 318.28 580.27 321.92 580.14   A 1.25 1.25 0.0 0 0 322.99 579.45   L 335.19 554.65   A 0.58 0.58 0.0 0 0 334.66 553.81   Q 296.10 554.21 254.41 553.95   C 248.74 553.91 241.51 554.59 235.79 553.97   C 229.18 553.25 232.75 546.82 234.52 543.77   Q 238.72 536.50 240.86 531.84   Q 244.84 523.19 246.85 519.73   Q 250.86 512.85 252.49 508.76   C 255.98 499.95 263.48 501.07 272.00 501.09   Q 308.69 501.19 357.06 501.04   A 1.79 1.78 -76.9 0 0 358.64 500.05   L 370.95 475.03   A 0.52 0.52 0.0 0 0 370.49 474.28   Z   M 508.08 552.83   C 509.82 548.57 513.46 542.87 515.91 537.72   Q 527.05 514.29 534.62 499.13   C 537.22 493.92 536.69 487.27 532.82 482.41   Q 526.51 474.47 516.25 474.43   Q 479.26 474.31 420.98 474.32   Q 408.25 474.32 402.66 475.83   Q 385.61 480.45 376.09 495.55   Q 369.88 505.40 364.24 518.32   C 359.97 528.09 356.05 533.93 351.63 543.98   Q 349.38 549.10 347.25 552.81   Q 344.57 557.49 344.30 560.23   C 342.90 574.20 353.68 580.30 365.76 580.28   Q 389.58 580.23 454.00 580.32   Q 454.62 580.33 467.21 580.02   C 474.61 579.83 482.75 578.76 487.72 575.48   Q 492.16 572.55 497.37 568.34   C 502.92 563.85 505.40 559.41 508.08 552.83   Z   M 499.37 579.99   Q 504.75 580.35 513.00 580.38   Q 525.24 580.42 547.85 580.13   A 2.50 2.49 -67.2 0 0 549.51 579.45   L 569.62 560.24   A 1.63 1.62 -66.4 0 1 570.73 559.80   L 638.40 559.80   A 1.02 1.01 -2.8 0 1 639.41 560.71   L 641.13 578.83   A 1.59 1.59 0.0 0 0 642.71 580.28   L 685.25 580.28   A 0.86 0.85 83.1 0 0 686.08 579.22   Q 684.60 573.16 684.19 567.31   C 683.44 556.48 681.03 543.16 680.00 535.00   Q 676.08 503.84 672.06 475.10   A 0.92 0.91 86.0 0 0 671.16 474.31   L 615.93 474.31   A 3.16 3.15 -66.0 0 0 613.82 475.12   Q 577.27 508.03 532.43 548.93   Q 524.64 556.04 521.96 558.76   C 517.56 563.23 514.95 565.20 509.84 569.41   C 505.94 572.63 502.80 576.13 499.20 579.52   A 0.27 0.27 0.0 0 0 499.37 579.99   Z   M 980.64 580.33   L 1029.33 580.33   A 2.10 2.10 0.0 0 0 1030.79 579.74   L 1051.11 560.33   A 1.99 1.97 23.1 0 1 1052.47 559.79   L 1119.53 559.79   A 0.94 0.93 -3.5 0 1 1120.46 560.61   L 1122.82 579.19   A 1.15 1.15 0.0 0 0 1123.96 580.20   L 1166.25 580.20   A 0.94 0.94 0.0 0 0 1167.18 579.14   L 1153.98 474.89   A 0.64 0.63 -3.6 0 0 1153.35 474.34   L 1097.46 474.34   A 4.08 4.06 -66.6 0 0 1094.66 475.46   Q 1083.64 485.98 1072.92 494.94   C 1069.07 498.16 1067.34 499.99 1063.75 503.73   C 1059.99 507.65 1055.62 511.32 1050.88 515.13   C 1047.22 518.08 1043.58 522.20 1040.56 524.80   Q 1033.53 530.87 1022.90 540.65   Q 1004.16 557.90 994.26 566.54   C 989.21 570.95 985.01 575.29 980.33 579.52   A 0.47 0.46 -66.1 0 0 980.64 580.33   Z   M 1233.76 554.00   A 0.74 0.74 0.0 0 1 1233.10 552.93   L 1271.26 475.40   A 0.74 0.74 0.0 0 0 1270.60 474.33   L 1228.32 474.33   A 0.74 0.74 0.0 0 0 1227.66 474.74   L 1176.23 579.21   A 0.74 0.74 0.0 0 0 1176.89 580.28   L 1310.61 580.28   A 0.74 0.74 0.0 0 0 1311.27 579.87   L 1323.48 555.07   A 0.74 0.74 0.0 0 0 1322.82 554.00   L 1233.76 554.00   Z   M 882.43 661.94   L 765.70 661.94   A 0.54 0.53 -77.5 0 1 765.22 661.18   L 772.73 644.98   A 1.64 1.64 0.0 0 1 774.15 644.03   Q 779.82 643.84 782.46 643.85   Q 826.99 644.07 870.32 643.94   C 880.94 643.90 891.29 644.41 902.31 643.63   A 1.84 1.82 18.3 0 0 903.58 643.00   Q 905.21 641.12 906.41 638.62   C 912.55 625.83 916.28 617.92 920.69 610.42   A 0.56 0.56 0.0 0 0 920.21 609.57   L 732.55 609.57   A 1.31 1.30 14.2 0 0 731.40 610.25   C 727.00 618.29 724.24 625.25 720.01 633.41   C 716.13 640.89 711.51 651.66 706.82 660.59   Q 705.70 662.73 702.42 669.65   Q 686.88 702.43 679.95 717.48   C 677.25 723.33 673.39 730.05 670.67 737.06   C 668.94 741.50 666.84 745.43 664.37 749.59   A 0.65 0.65 0.0 0 0 664.93 750.57   L 855.71 750.57   A 1.93 1.93 0.0 0 0 857.42 749.53   C 859.47 745.55 862.05 741.10 864.01 736.16   Q 867.13 728.26 871.58 720.35   Q 873.26 717.37 873.43 715.89   A 0.38 0.36 -86.5 0 0 873.07 715.47   L 740.13 715.47   A 0.62 0.61 -77.4 0 1 739.58 714.59   L 748.21 695.97   A 2.01 1.99 -77.4 0 1 750.02 694.81   L 865.92 694.81   A 2.32 2.32 0.0 0 0 868.00 693.52   L 883.05 662.93   A 0.69 0.69 0.0 0 0 882.43 661.94   Z   M 1131.19 610.32   A 0.81 0.81 0.0 0 0 1130.40 609.21   Q 1125.30 609.42 1116.50 609.43   Q 1098.32 609.46 973.28 609.49   Q 961.87 609.49 951.61 614.59   C 946.10 617.33 939.53 620.91 935.31 625.78   Q 930.84 630.94 929.51 632.58   C 925.17 637.95 923.24 644.60 919.82 651.16   Q 913.50 663.29 910.70 669.88   C 907.52 677.34 909.03 686.86 915.83 691.77   C 922.50 696.58 927.76 696.84 936.25 696.83   Q 966.96 696.78 1037.50 696.85   C 1039.11 696.85 1041.67 697.22 1042.11 699.23   Q 1042.57 701.34 1042.03 702.54   C 1039.30 708.55 1036.26 716.06 1028.24 716.05   Q 927.61 716.02 897.75 715.96   Q 896.60 715.95 894.12 716.18   A 1.15 1.13 10.2 0 0 893.20 716.81   L 876.90 749.92   A 0.73 0.72 12.7 0 0 877.56 750.96   Q 880.49 750.93 890.25 750.82   Q 915.18 750.56 1032.55 750.74   Q 1047.13 750.76 1052.83 749.35   Q 1063.02 746.83 1071.35 741.09   Q 1076.91 737.27 1084.10 728.56   Q 1087.52 724.42 1090.67 717.07   Q 1094.38 708.39 1100.90 695.25   Q 1105.20 686.58 1105.47 681.97   C 1105.98 673.26 1101.22 666.16 1092.99 663.50   Q 1087.38 661.69 1083.24 661.68   Q 1047.94 661.59 978.51 661.71   Q 973.96 661.72 973.88 658.31   A 2.42 2.29 -35.4 0 1 974.07 657.34   Q 974.25 656.92 977.25 650.91   C 981.01 643.36 986.59 643.69 993.51 643.70   Q 1004.87 643.72 1083.91 643.77   C 1093.35 643.78 1103.30 644.14 1113.51 643.58   A 1.01 1.00 -77.1 0 0 1114.34 643.05   Q 1120.39 631.91 1124.45 622.62   Q 1125.89 619.32 1127.64 616.39   Q 1131.07 610.63 1131.19 610.32   Z   M 1198.12 645.77   L 1149.34 749.56   A 0.66 0.66 0.0 0 0 1149.94 750.50   L 1205.44 750.50   A 0.87 0.86 -76.5 0 0 1206.21 750.02   L 1256.20 646.26   A 1.44 1.44 0.0 0 1 1257.50 645.44   L 1325.49 645.44   A 1.13 1.13 0.0 0 0 1326.51 644.80   L 1343.70 609.88   A 0.34 0.34 0.0 0 0 1343.39 609.39   L 1147.82 609.39   A 2.11 2.09 -76.8 0 0 1145.94 610.56   L 1129.12 644.75   A 0.48 0.48 0.0 0 0 1129.55 645.44   L 1197.91 645.44   A 0.23 0.23 0.0 0 1 1198.12 645.77   Z   M 239.97 669.46   Q 242.60 663.78 247.29 654.57   Q 249.78 649.70 251.49 648.49   C 256.33 645.09 260.26 645.34 266.27 645.38   Q 286.22 645.51 382.00 645.52   A 1.00 1.00 0.0 0 0 382.89 644.98   L 400.65 610.34   A 0.62 0.62 0.0 0 0 400.10 609.44   Q 392.68 609.42 384.50 609.51   Q 360.35 609.77 248.00 609.57   Q 231.18 609.54 217.22 618.28   C 209.71 622.98 202.61 629.49 197.92 637.12   Q 197.07 638.51 192.00 649.23   Q 161.58 713.59 153.21 731.41   Q 152.32 733.31 149.60 739.36   Q 147.71 743.58 144.51 749.53   A 0.65 0.65 0.0 0 0 145.08 750.49   L 200.33 750.49   A 1.91 1.91 0.0 0 0 202.05 749.41   L 224.26 703.32   A 0.88 0.87 12.9 0 1 225.05 702.83   L 343.94 702.83   A 0.93 0.93 0.0 0 0 344.80 702.26   C 347.75 695.48 351.36 687.46 355.38 680.74   Q 358.13 676.14 360.75 670.92   A 0.51 0.50 -76.8 0 0 360.30 670.19   L 240.44 670.19   A 0.52 0.52 0.0 0 1 239.97 669.46   Z   M 477.90 610.18   A 0.87 0.87 0.0 0 0 477.02 609.37   L 420.19 609.79   A 2.03 2.03 0.0 0 0 418.41 610.84   C 416.81 613.57 414.03 618.19 412.06 622.50   Q 405.02 637.87 403.54 640.83   Q 403.26 641.39 396.87 654.18   C 390.83 666.26 387.82 673.39 380.74 687.57   Q 375.69 697.68 372.05 706.05   C 367.90 715.61 363.65 722.98 359.45 732.40   Q 355.76 740.68 351.11 749.43   A 0.73 0.73 0.0 0 0 351.75 750.50   L 408.60 750.50   A 2.11 2.09 12.7 0 0 410.50 749.31   C 413.37 743.40 415.46 740.03 417.72 734.92   Q 422.14 724.94 425.51 717.74   Q 449.84 665.93 467.91 629.89   Q 473.89 617.96 477.79 610.52   Q 477.90 610.31 477.90 610.18   Z   M 533.14 660.70   Q 533.59 660.79 533.96 661.30   Q 542.65 673.43 548.49 682.52   C 551.04 686.48 554.09 690.41 557.16 694.86   Q 573.59 718.70 594.76 749.97   A 1.21 1.20 72.3 0 0 595.74 750.48   L 643.58 750.48   A 1.55 1.54 12.1 0 0 644.99 749.57   Q 649.63 739.25 655.58 726.10   C 656.56 723.93 658.21 721.40 659.26 719.09   Q 669.75 696.02 677.03 681.34   C 681.18 672.97 684.87 663.69 689.36 655.47   C 693.03 648.76 695.56 642.59 699.36 634.38   Q 700.99 630.87 705.61 622.50   Q 708.47 617.32 711.34 610.33   A 0.57 0.57 0.0 0 0 710.81 609.54   L 661.72 609.54   A 1.45 1.45 0.0 0 0 660.42 610.35   L 621.81 688.79   A 0.63 0.63 0.0 0 1 620.73 688.87   L 566.14 610.57   A 2.21 2.19 72.3 0 0 564.34 609.63   L 502.00 609.63   A 1.94 1.94 0.0 0 0 500.25 610.73   L 433.38 749.52   A 0.71 0.71 0.0 0 0 434.02 750.54   L 488.30 750.54   A 1.80 1.79 12.8 0 0 489.92 749.53   L 532.58 660.98   A 0.52 0.51 17.9 0 1 533.14 660.70   Z   M 327.34 856.80   L 334.16 842.64   A 0.94 0.92 12.5 0 1 335.00 842.12   L 418.55 842.12   A 1.57 1.57 0.0 0 0 419.92 841.32   Q 425.88 830.84 431.10 819.39   Q 431.29 818.98 431.18 818.66   Q 430.97 818.08 430.45 818.11   C 417.82 818.80 404.85 818.20 390.84 818.26   Q 389.91 818.26 346.58 818.34   A 0.47 0.46 13.1 0 1 346.16 817.67   L 351.47 806.88   A 2.36 2.34 -76.7 0 1 353.57 805.57   L 442.77 805.57   A 1.36 1.35 -77.1 0 0 443.99 804.80   L 455.40 781.13   A 0.56 0.56 0.0 0 0 454.89 780.33   Q 385.50 780.32 330.25 780.10   Q 326.41 780.08 324.33 780.68   A 1.58 1.57 6.5 0 0 323.43 781.39   Q 317.60 791.48 314.50 799.14   C 311.67 806.14 308.58 811.39 305.26 818.74   C 298.52 833.65 290.16 849.73 283.34 865.73   Q 280.68 871.98 275.43 881.66   A 0.67 0.67 0.0 0 0 276.02 882.65   L 410.99 882.65   A 1.00 0.98 12.9 0 0 411.88 882.10   L 423.59 857.80   A 0.51 0.51 0.0 0 0 423.13 857.07   L 327.51 857.07   A 0.19 0.19 0.0 0 1 327.34 856.80   Z   M 503.71 806.60   L 468.37 881.78   A 0.59 0.59 0.0 0 0 468.91 882.62   L 507.09 882.62   A 0.91 0.89 12.2 0 0 507.91 882.10   L 543.62 806.14   A 1.00 1.00 0.0 0 1 544.52 805.57   Q 562.26 805.64 588.07 805.64   Q 589.53 805.64 592.28 805.10   A 1.54 1.52 -81.9 0 0 593.36 804.28   L 605.04 780.55   A 0.19 0.18 12.2 0 0 604.87 780.29   L 469.15 780.29   A 1.54 1.53 13.0 0 0 467.77 781.15   L 456.20 804.67   A 0.68 0.67 -70.4 0 0 456.65 805.63   Q 457.60 805.85 458.75 805.86   Q 465.73 805.95 479.50 805.49   Q 489.43 805.16 503.23 805.81   A 0.55 0.55 0.0 0 1 503.71 806.60   Z   M 804.26 780.63   C 797.78 780.60 792.24 779.60 785.88 780.09   Q 776.49 780.83 766.49 780.28   A 1.93 1.91 12.0 0 0 764.60 781.50   Q 760.62 791.86 756.23 800.25   C 752.16 808.04 749.21 815.41 744.92 824.43   Q 733.56 848.39 729.37 857.92   Q 726.72 863.96 723.61 869.81   Q 720.92 874.86 718.38 881.92   A 0.56 0.56 0.0 0 0 718.91 882.68   L 757.01 882.68   A 0.93 0.92 -77.5 0 0 757.85 882.14   L 804.63 781.22   A 0.42 0.41 12.9 0 0 804.26 780.63   Z   M 828.04 857.04   A 0.71 0.71 0.0 0 1 827.39 856.03   Q 829.46 851.46 832.57 845.64   Q 834.52 841.99 837.62 835.20   Q 848.92 810.45 862.94 781.05   A 0.53 0.53 0.0 0 0 862.47 780.29   L 823.98 780.29   A 1.04 1.04 0.0 0 0 823.01 780.95   Q 819.03 791.21 814.62 799.77   C 806.84 814.89 801.40 828.29 793.41 844.90   C 791.34 849.21 789.13 854.95 786.41 860.35   Q 781.18 870.74 778.26 877.83   Q 777.03 880.81 776.45 881.92   A 0.49 0.48 14.0 0 0 776.88 882.63   L 899.23 882.63   A 0.85 0.84 -77.1 0 0 899.99 882.15   L 911.30 857.75   A 0.50 0.50 0.0 0 0 910.85 857.04   L 828.04 857.04   Z   M 976.06 882.69   L 1013.33 882.69   A 0.90 0.89 12.4 0 0 1014.14 882.18   L 1043.94 818.79   A 0.46 0.46 0.0 0 1 1044.65 818.63   Q 1045.88 819.66 1046.57 820.78   Q 1052.68 830.81 1056.48 835.87   C 1063.35 845.02 1069.31 855.77 1076.21 864.70   C 1080.29 869.97 1083.47 875.60 1087.99 882.11   A 1.05 1.04 -17.2 0 0 1088.85 882.56   L 1121.90 882.56   A 0.77 0.76 -80.3 0 0 1122.62 882.04   Q 1123.85 878.57 1125.45 875.72   C 1130.01 867.54 1132.67 859.29 1136.54 851.18   Q 1141.24 841.32 1153.39 815.06   C 1157.71 805.72 1160.30 798.78 1164.87 790.56   C 1166.31 787.97 1168.18 783.55 1169.12 781.35   A 0.78 0.78 0.0 0 0 1168.40 780.27   L 1134.41 780.27   A 1.32 1.32 0.0 0 0 1133.22 781.02   L 1106.29 836.90   A 0.41 0.41 0.0 0 1 1105.60 836.98   Q 1101.45 831.63 1098.67 826.91   C 1094.91 820.55 1090.09 815.07 1086.31 808.97   Q 1082.03 802.05 1075.25 793.00   C 1072.46 789.29 1070.16 785.48 1067.49 781.03   A 1.81 1.80 -15.6 0 0 1065.92 780.15   Q 1053.06 780.22 1035.08 780.13   C 1031.50 780.11 1027.56 780.53 1023.71 780.72   A 1.82 1.80 13.3 0 0 1022.23 781.62   C 1015.44 793.46 1011.05 805.62 1005.23 817.40   Q 998.96 830.06 986.92 856.80   Q 984.92 861.27 980.87 869.15   Q 977.39 875.93 975.36 881.71   A 0.74 0.74 0.0 0 0 976.06 882.69   Z   M 116.21 882.57   Q 161.58 882.75 219.40 882.61   Q 235.63 882.58 237.17 882.37   Q 244.94 881.35 253.95 876.64   Q 263.71 871.54 268.89 861.41   Q 280.61 838.49 291.74 813.12   Q 293.03 810.17 294.98 806.54   C 298.39 800.18 298.80 793.56 293.96 787.75   Q 287.71 780.23 277.62 780.25   Q 230.17 780.30 172.75 780.27   Q 169.16 780.26 164.58 780.52   A 1.98 1.95 10.5 0 0 162.91 781.65   L 115.79 881.90   A 0.47 0.47 0.0 0 0 116.21 882.57   Z   M 539.18 881.81   A 0.48 0.48 0.0 0 0 539.51 882.63   L 584.27 882.63   A 1.79 1.79 0.0 0 0 585.51 882.13   C 592.13 875.77 597.17 869.43 603.98 863.50   A 3.02 2.99 -65.3 0 1 605.95 862.76   L 666.91 862.76   A 1.02 1.02 0.0 0 1 667.93 863.69   L 669.67 882.01   A 0.69 0.68 87.2 0 0 670.35 882.63   L 709.62 882.63   A 1.34 1.33 -3.6 0 0 710.95 881.13   L 698.27 780.96   A 0.81 0.80 -3.6 0 0 697.47 780.26   L 645.36 780.26   A 2.32 2.31 24.5 0 0 643.85 780.82   Q 637.69 786.25 634.33 789.72   C 626.76 797.53 620.70 802.31 613.44 809.81   Q 608.33 815.09 601.95 821.08   Q 587.54 834.61 539.18 881.81   Z   M 956.55 882.61   A 0.34 0.34 0.0 0 0 956.86 882.41   L 1003.98 780.75   A 0.34 0.34 0.0 0 0 1003.67 780.27   L 964.90 780.27   A 0.34 0.34 0.0 0 0 964.59 780.47   L 916.81 882.13   A 0.34 0.34 0.0 0 0 917.12 882.61   L 956.55 882.61   Z   M 1327.24 780.40   C 1321.72 779.98 1316.19 780.33 1310.64 780.32   Q 1261.28 780.23 1217.22 780.26   Q 1207.90 780.26 1203.89 781.21   C 1194.22 783.48 1181.78 792.34 1177.38 801.61   Q 1155.27 848.12 1150.83 858.27   Q 1146.73 867.63 1152.57 875.49   C 1155.85 879.88 1162.25 882.48 1167.51 882.54   Q 1184.64 882.72 1254.77 882.63   Q 1264.64 882.62 1269.19 881.31   Q 1280.73 877.98 1289.05 868.35   Q 1292.39 864.47 1296.99 854.09   Q 1305.07 835.87 1312.09 821.46   A 0.54 0.53 -77.1 0 0 1311.61 820.69   L 1236.58 820.69   A 1.45 1.44 -76.6 0 0 1235.29 821.49   L 1224.08 844.27   A 0.53 0.53 0.0 0 0 1224.55 845.04   L 1261.03 845.04   A 0.91 0.91 0.0 0 1 1261.85 846.33   C 1259.03 852.49 1257.54 856.72 1249.81 857.01   Q 1244.52 857.20 1244.25 857.19   Q 1219.59 856.85 1199.25 857.29   C 1195.09 857.38 1191.19 856.03 1193.51 851.29   Q 1195.59 847.07 1211.85 812.67   Q 1213.72 808.71 1215.24 807.72   Q 1217.84 806.02 1221.03 805.85   Q 1227.02 805.54 1237.75 805.61   Q 1251.66 805.70 1314.62 805.51   A 1.43 1.43 0.0 0 0 1315.88 804.72   L 1327.57 780.97   A 0.40 0.40 0.0 0 0 1327.24 780.40   Z   M 1184.56 950.04   Q 1184.77 950.07 1191.24 950.48   Q 1195.97 950.77 1202.38 952.63   C 1207.77 954.19 1211.49 956.92 1213.66 961.92   C 1216.15 967.66 1216.96 974.26 1217.27 980.61   A 0.18 0.18 0.0 0 0 1217.44 980.78   L 1217.45 980.78   A 0.23 0.23 0.0 0 0 1217.69 980.57   C 1218.20 974.34 1218.48 969.30 1220.65 962.86   Q 1222.81 956.46 1228.36 954.13   Q 1238.30 949.95 1249.37 950.32   A 0.04 0.04 0.0 0 0 1249.41 950.28   L 1249.41 950.01   A 0.33 0.32 -90.0 0 0 1249.09 949.68   C 1241.92 949.52 1235.34 949.06 1228.59 945.90   C 1218.80 941.32 1218.62 929.15 1217.42 920.21   A 0.14 0.13 42.5 0 0 1217.15 920.22   Q 1216.92 926.34 1215.55 932.35   C 1213.75 940.24 1210.71 944.81 1202.92 947.21   Q 1195.17 949.59 1184.57 949.85   A 0.10 0.10 0.0 0 0 1184.56 950.04   Z   M 259.48 948.64   L 269.77 962.43   A 1.80 1.79 44.1 0 0 272.68 962.39   L 282.57 948.19   A 0.46 0.46 0.0 0 1 283.41 948.46   L 283.41 965.91   A 0.78 0.78 0.0 0 0 284.19 966.69   L 288.38 966.69   A 0.77 0.77 0.0 0 0 289.15 965.92   L 289.15 940.13   A 0.69 0.68 4.5 0 0 288.57 939.46   Q 286.08 939.09 284.37 939.42   A 1.15 1.14 -76.5 0 0 283.66 939.86   L 272.34 954.96   A 0.91 0.90 45.1 0 1 270.89 954.95   L 259.64 939.88   A 1.21 1.20 -18.1 0 0 258.67 939.39   L 254.17 939.39   A 0.65 0.65 0.0 0 0 253.52 940.04   L 253.52 965.89   A 0.82 0.82 0.0 0 0 254.34 966.71   L 257.86 966.71   A 0.85 0.85 0.0 0 0 258.71 965.86   L 258.71 948.90   A 0.43 0.43 0.0 0 1 259.48 948.64   Z   M 358.13 944.91   A 5.57 5.57 0.0 0 0 352.56 939.34   L 330.04 939.34   A 5.57 5.57 0.0 0 0 324.47 944.91   L 324.47 961.29   A 5.57 5.57 0.0 0 0 330.04 966.86   L 352.56 966.86   A 5.57 5.57 0.0 0 0 358.13 961.29   L 358.13 944.91   Z   M 419.98 952.94   A 0.46 0.45 46.8 0 1 420.00 952.11   C 422.99 950.89 423.04 948.83 422.89 945.57   C 422.74 942.15 422.22 939.86 418.24 939.57   Q 407.61 938.81 394.10 939.57   A 0.57 0.57 0.0 0 0 393.56 940.14   L 393.56 966.07   A 0.57 0.57 0.0 0 0 394.12 966.64   Q 402.95 966.75 412.27 966.95   Q 416.14 967.03 418.90 966.34   C 422.85 965.36 423.07 962.28 423.18 958.77   Q 423.28 955.47 422.36 954.22   A 1.18 1.17 83.8 0 0 421.94 953.88   L 419.98 952.94   Z   M 464.6754 940.0712   A 0.69 0.69 0.0 0 0 463.9878 939.3788   L 459.0078 939.3614   A 0.69 0.69 0.0 0 0 458.3154 940.0490   L 458.2246 966.0688   A 0.69 0.69 0.0 0 0 458.9122 966.7612   L 463.8922 966.7786   A 0.69 0.69 0.0 0 0 464.5846 966.0910   L 464.6754 940.0712   Z   M 568.52 950.42   A 0.88 0.88 0.0 0 1 567.64 949.54   L 567.64 944.90   A 0.88 0.88 0.0 0 1 568.52 944.02   L 588.02 944.02   A 0.88 0.88 0.0 0 0 588.90 943.14   L 588.90 940.24   A 0.88 0.88 0.0 0 0 588.02 939.36   L 562.18 939.36   A 0.88 0.88 0.0 0 0 561.30 940.24   L 561.30 965.76   A 0.88 0.88 0.0 0 0 562.18 966.64   L 588.29 966.64   A 0.88 0.88 0.0 0 0 589.17 965.76   L 589.17 962.68   A 0.88 0.88 0.0 0 0 588.29 961.80   L 568.55 961.80   A 0.88 0.88 0.0 0 1 567.67 960.92   L 567.67 955.39   A 0.88 0.88 0.0 0 1 568.55 954.51   L 579.37 954.51   A 0.88 0.88 0.0 0 0 580.25 953.63   L 580.25 951.30   A 0.88 0.88 0.0 0 0 579.37 950.42   L 568.52 950.42   Z   M 729.11 965.85   L 714.72 940.07   A 1.11 1.10 75.6 0 0 713.76 939.50   L 709.29 939.47   A 1.99 1.98 14.8 0 0 707.55 940.48   L 693.38 965.50   A 0.79 0.78 -76.2 0 0 694.09 966.68   L 697.87 966.54   A 2.20 2.20 0.0 0 0 699.78 965.31   L 701.78 961.25   A 1.52 1.51 13.5 0 1 703.16 960.41   L 718.72 960.58   A 1.00 0.99 76.7 0 1 719.60 961.13   L 721.95 965.81   A 1.79 1.78 -12.6 0 0 723.50 966.79   L 728.47 966.90   A 0.71 0.70 -13.9 0 0 729.11 965.85   Z   M 769.97 961.66   A 0.83 0.83 0.0 0 1 769.14 960.83   L 769.14 940.20   A 0.83 0.83 0.0 0 0 768.31 939.37   L 763.59 939.37   A 0.83 0.83 0.0 0 0 762.76 940.20   L 762.76 965.94   A 0.83 0.83 0.0 0 0 763.59 966.77   L 788.78 966.77   A 0.83 0.83 0.0 0 0 789.61 965.94   L 789.61 962.49   A 0.83 0.83 0.0 0 0 788.78 961.66   L 769.97 961.66   Z   M 917.79 952.85   A 0.45 0.45 0.0 0 1 917.81 952.03   C 920.77 950.80 920.81 948.76 920.64 945.52   C 920.48 942.13 919.95 939.86 916.00 939.59   Q 905.44 938.88 892.03 939.70   A 0.57 0.57 0.0 0 0 891.50 940.27   L 891.63 966.01   A 0.57 0.57 0.0 0 0 892.19 966.58   Q 900.95 966.64 910.20 966.79   Q 914.05 966.86 916.78 966.16   C 920.70 965.17 920.90 962.11 920.99 958.62   Q 921.08 955.35 920.16 954.11   A 1.17 1.16 83.5 0 0 919.74 953.77   L 917.79 952.85   Z   M 1029.19 947.73   A 0.31 0.31 0.0 0 1 1029.76 947.55   L 1040.61 962.57   A 1.61 1.61 0.0 0 0 1042.73 963.02   Q 1042.99 962.85 1043.26 962.51   Q 1044.49 960.94 1052.90 948.66   Q 1053.07 948.41 1053.39 948.39   A 0.65 0.63 -0.4 0 1 1054.08 949.05   Q 1053.66 957.25 1054.00 965.93   A 0.75 0.74 -0.8 0 0 1054.75 966.65   L 1059.10 966.65   A 0.78 0.78 0.0 0 0 1059.88 965.87   L 1059.88 940.51   A 1.02 1.01 -84.5 0 0 1059.06 939.51   Q 1056.71 939.06 1054.54 939.83   A 0.88 0.86 8.0 0 0 1054.12 940.14   L 1042.98 954.74   A 1.15 1.15 0.0 0 1 1041.14 954.73   L 1029.97 939.76   A 1.17 1.17 0.0 0 0 1029.04 939.30   L 1024.82 939.30   A 0.77 0.77 0.0 0 0 1024.05 940.07   L 1024.05 965.87   A 0.93 0.92 90.0 0 0 1024.97 966.80   L 1028.33 966.80   A 0.86 0.86 0.0 0 0 1029.19 965.94   L 1029.19 947.73   Z   M 1131.03 965.82   L 1116.28 939.86   A 1.12 1.11 75.2 0 0 1115.31 939.29   L 1110.79 939.29   A 2.01 2.00 14.4 0 0 1109.04 940.33   L 1094.90 965.73   A 0.80 0.79 -76.7 0 0 1095.62 966.92   L 1099.45 966.75   A 2.23 2.22 -78.2 0 0 1101.36 965.49   L 1103.35 961.37   A 1.53 1.53 0.0 0 1 1104.75 960.51   L 1120.48 960.56   A 1.01 1.00 76.3 0 1 1121.38 961.12   L 1123.78 965.83   A 1.81 1.80 -13.0 0 0 1125.36 966.81   L 1130.39 966.89   A 0.72 0.71 -14.4 0 0 1131.03 965.82   Z   M 501.76 939.48   A 0.56 0.55 -89.9 0 0 501.22 940.03   L 501.15 966.14   A 0.47 0.47 0.0 0 0 501.62 966.61   L 526.80 966.72   A 1.01 1.01 0.0 0 0 527.81 965.71   L 527.78 962.59   A 0.93 0.92 89.8 0 0 526.86 961.67   L 508.21 961.53   A 0.83 0.83 0.0 0 1 507.39 960.70   L 507.58 940.05   A 0.53 0.53 0.0 0 0 507.06 939.53   L 501.76 939.48   Z   M 851.69 966.51   A 0.72 0.72 0.0 0 0 852.32 966.87   L 857.86 966.87   A 0.72 0.72 0.0 0 0 858.49 965.79   L 843.48 939.79   A 0.72 0.72 0.0 0 0 842.85 939.43   L 837.75 939.43   A 0.72 0.72 0.0 0 0 837.12 939.79   L 822.14 965.72   A 0.72 0.72 0.0 0 0 822.77 966.80   L 827.48 966.80   A 0.72 0.72 0.0 0 0 828.11 966.44   L 831.28 960.93   A 0.72 0.72 0.0 0 1 831.91 960.57   L 847.85 960.57   A 0.72 0.72 0.0 0 1 848.48 960.93   L 851.69 966.51   Z   M 990.07 965.67   L 975.56 940.10   A 1.10 1.10 0.0 0 0 974.60 939.54   L 970.15 939.54   A 1.98 1.97 14.4 0 0 968.42 940.56   L 954.50 965.57   A 0.79 0.78 -76.6 0 0 955.21 966.74   L 958.98 966.57   A 2.19 2.19 0.0 0 0 960.86 965.34   L 962.83 961.28   A 1.51 1.50 13.1 0 1 964.20 960.43   L 979.69 960.49   A 1.00 0.98 76.3 0 1 980.57 961.03   L 982.94 965.67   A 1.78 1.78 0.0 0 0 984.49 966.64   L 989.44 966.71   A 0.71 0.70 -14.3 0 0 990.07 965.67   Z   M 622.50 972.73   A 1.17 1.16 73.1 0 0 624.54 973.82   L 629.75 966.33   A 1.33 1.31 63.0 0 0 629.99 965.57   L 629.99 959.88   A 1.19 1.19 0.0 0 0 628.80 958.69   L 623.24 958.69   A 1.20 1.20 0.0 0 0 622.04 959.89   L 622.04 965.17   A 0.86 0.85 -0.0 0 0 622.90 966.02   L 625.15 966.02   A 0.72 0.72 0.0 0 1 625.75 967.13   Q 623.04 971.33 622.50 972.73   Z"/>
<path xmlns="http://www.w3.org/2000/svg" fill="#19191b" d="M 693.95 580.18   A 0.76 0.75 13.8 0 1 693.28 579.08   L 705.21 555.81   A 2.07 2.06 -78.0 0 1 706.92 554.69   Q 712.01 554.36 715.50 554.36   Q 761.05 554.34 800.75 554.43   Q 802.71 554.44 808.22 554.22   C 811.90 554.07 814.27 553.37 816.10 550.36   C 817.99 547.23 822.08 541.59 817.14 540.28   Q 816.66 540.15 816.26 540.15   Q 782.80 540.49 734.99 540.13   Q 729.53 540.09 727.56 539.48   C 722.57 537.91 717.59 534.00 716.91 528.44   Q 716.29 523.27 718.02 519.97   Q 721.47 513.37 726.49 501.98   Q 729.98 494.08 735.49 487.51   C 740.85 481.11 747.89 477.64 755.32 475.41   Q 759.31 474.22 768.81 474.24   Q 807.33 474.31 863.81 474.27   Q 871.70 474.26 875.20 474.13   Q 883.79 473.82 886.66 474.15   A 0.94 0.94 0.0 0 1 887.42 475.44   C 886.32 478.11 883.88 482.91 881.49 486.66   Q 877.74 492.56 875.30 499.10   A 1.66 1.66 0.0 0 1 873.79 500.18   Q 866.97 500.32 844.75 500.15   Q 824.65 500.00 778.00 500.06   C 770.41 500.07 769.56 504.33 766.98 510.11   A 2.31 2.24 -60.0 0 0 767.68 512.88   Q 768.62 513.57 770.25 513.60   C 796.50 514.02 822.72 513.62 848.75 513.75   Q 856.71 513.79 861.22 515.98   C 869.91 520.21 869.71 529.35 865.88 536.94   Q 861.15 546.34 857.95 553.42   Q 853.76 562.68 851.22 565.58   C 844.88 572.80 837.68 577.19 828.31 579.38   Q 824.31 580.31 815.15 580.31   Q 737.42 580.33 693.95 580.18   Z"/>
<path xmlns="http://www.w3.org/2000/svg" fill="#19191b" d="M 902.21 580.32   A 0.68 0.68 0.0 0 1 901.62 579.30   C 904.83 573.66 907.23 568.14 909.62 563.39   Q 917.65 547.40 929.39 523.13   C 932.61 516.48 936.56 509.71 939.43 502.24   A 0.86 0.86 0.0 0 0 938.63 501.07   L 888.73 501.07   A 0.69 0.68 12.9 0 1 888.11 500.09   C 890.41 495.34 891.88 491.28 894.44 487.00   Q 899.08 479.26 900.70 475.32   A 1.33 1.33 0.0 0 1 901.59 474.54   Q 902.37 474.33 904.57 474.33   Q 1002.21 474.44 1050.00 474.20   Q 1050.46 474.20 1050.64 474.34   Q 1051.15 474.73 1050.85 475.35   Q 1048.33 480.60 1045.38 485.64   C 1042.44 490.66 1040.80 494.96 1038.33 500.24   A 1.53 1.53 0.0 0 1 1036.94 501.13   L 984.70 501.13   A 1.32 1.31 -77.0 0 0 983.52 501.87   L 945.29 579.54   A 1.41 1.41 0.0 0 1 944.03 580.32   L 902.21 580.32   Z"/>
<path xmlns="http://www.w3.org/2000/svg" fill="#19191b" d="M 370.49 474.28   A 0.52 0.52 0.0 0 1 370.95 475.03   L 358.64 500.05   A 1.79 1.78 -76.9 0 1 357.06 501.04   Q 308.69 501.19 272.00 501.09   C 263.48 501.07 255.98 499.95 252.49 508.76   Q 250.86 512.85 246.85 519.73   Q 244.84 523.19 240.86 531.84   Q 238.72 536.50 234.52 543.77   C 232.75 546.82 229.18 553.25 235.79 553.97   C 241.51 554.59 248.74 553.91 254.41 553.95   Q 296.10 554.21 334.66 553.81   A 0.58 0.58 0.0 0 1 335.19 554.65   L 322.99 579.45   A 1.25 1.25 0.0 0 1 321.92 580.14   Q 318.28 580.27 314.77 580.27   Q 226.40 580.27 210.50 580.34   C 203.74 580.37 195.90 580.14 190.30 575.54   Q 183.69 570.12 184.12 562.11   Q 184.34 558.13 189.08 548.68   Q 211.57 503.84 213.25 500.08   C 215.86 494.24 219.43 491.05 223.82 486.48   C 228.33 481.80 235.88 478.38 242.07 476.31   Q 247.92 474.34 254.50 474.35   Q 313.71 474.40 370.49 474.28   Z"/>
<path xmlns="http://www.w3.org/2000/svg" fill="#19191b" d="M 508.08 552.83   C 505.40 559.41 502.92 563.85 497.37 568.34   Q 492.16 572.55 487.72 575.48   C 482.75 578.76 474.61 579.83 467.21 580.02   Q 454.62 580.33 454.00 580.32   Q 389.58 580.23 365.76 580.28   C 353.68 580.30 342.90 574.20 344.30 560.23   Q 344.57 557.49 347.25 552.81   Q 349.38 549.10 351.63 543.98   C 356.05 533.93 359.97 528.09 364.24 518.32   Q 369.88 505.40 376.09 495.55   Q 385.61 480.45 402.66 475.83   Q 408.25 474.32 420.98 474.32   Q 479.26 474.31 516.25 474.43   Q 526.51 474.47 532.82 482.41   C 536.69 487.27 537.22 493.92 534.62 499.13   Q 527.05 514.29 515.91 537.72   C 513.46 542.87 509.82 548.57 508.08 552.83   Z   M 392.57 552.64   Q 394.46 554.31 397.51 554.23   Q 415.27 553.73 434.38 554.03   C 441.39 554.15 448.72 553.88 456.83 553.87   C 462.76 553.86 465.82 551.57 468.36 545.77   Q 471.17 539.34 475.52 532.00   C 477.64 528.43 480.28 520.80 483.08 516.02   C 484.92 512.87 493.11 500.82 483.26 501.01   Q 472.18 501.23 429.76 501.04   C 424.24 501.02 420.13 500.71 415.64 504.01   Q 414.03 505.20 412.00 509.87   C 410.29 513.81 406.33 520.17 403.80 525.74   Q 398.20 538.09 393.44 545.93   Q 391.35 549.36 392.03 551.79   A 1.80 1.72 13.8 0 0 392.57 552.64   Z"/>
<path xmlns="http://www.w3.org/2000/svg" fill="#19191b" d="M 499.37 579.99   A 0.27 0.27 0.0 0 1 499.20 579.52   C 502.80 576.13 505.94 572.63 509.84 569.41   C 514.95 565.20 517.56 563.23 521.96 558.76   Q 524.64 556.04 532.43 548.93   Q 577.27 508.03 613.82 475.12   A 3.16 3.15 -66.0 0 1 615.93 474.31   L 671.16 474.31   A 0.92 0.91 86.0 0 1 672.06 475.10   Q 676.08 503.84 680.00 535.00   C 681.03 543.16 683.44 556.48 684.19 567.31   Q 684.60 573.16 686.08 579.22   A 0.86 0.85 83.1 0 1 685.25 580.28   L 642.71 580.28   A 1.59 1.59 0.0 0 1 641.13 578.83   L 639.41 560.71   A 1.02 1.01 -2.8 0 0 638.40 559.80   L 570.73 559.80   A 1.63 1.62 -66.4 0 0 569.62 560.24   L 549.51 579.45   A 2.50 2.49 -67.2 0 1 547.85 580.13   Q 525.24 580.42 513.00 580.38   Q 504.75 580.35 499.37 579.99   Z   M 595.15 536.28   L 635.16 536.28   A 0.85 0.85 0.0 0 0 635.99 535.26   C 634.57 528.40 633.54 522.41 633.05 513.92   Q 632.67 507.20 631.86 502.21   A 0.80 0.80 0.0 0 0 630.51 501.76   L 594.93 535.74   A 0.31 0.31 0.0 0 0 595.15 536.28   Z"/>
<path xmlns="http://www.w3.org/2000/svg" fill="#19191b" d="M 980.64 580.33   A 0.47 0.46 -66.1 0 1 980.33 579.52   C 985.01 575.29 989.21 570.95 994.26 566.54   Q 1004.16 557.90 1022.90 540.65   Q 1033.53 530.87 1040.56 524.80   C 1043.58 522.20 1047.22 518.08 1050.88 515.13   C 1055.62 511.32 1059.99 507.65 1063.75 503.73   C 1067.34 499.99 1069.07 498.16 1072.92 494.94   Q 1083.64 485.98 1094.66 475.46   A 4.08 4.06 -66.6 0 1 1097.46 474.34   L 1153.35 474.34   A 0.64 0.63 -3.6 0 1 1153.98 474.89   L 1167.18 579.14   A 0.94 0.94 0.0 0 1 1166.25 580.20   L 1123.96 580.20   A 1.15 1.15 0.0 0 1 1122.82 579.19   L 1120.46 560.61   A 0.94 0.93 -3.5 0 0 1119.53 559.79   L 1052.47 559.79   A 1.99 1.97 23.1 0 0 1051.11 560.33   L 1030.79 579.74   A 2.10 2.10 0.0 0 1 1029.33 580.33   L 980.64 580.33   Z   M 1076.70 536.35   Q 1089.40 537.28 1102.52 536.22   Q 1105.62 535.97 1116.76 536.37   A 0.62 0.62 0.0 0 0 1117.40 535.67   L 1113.17 502.24   A 0.54 0.53 65.9 0 0 1112.29 501.90   C 1107.04 506.42 1101.47 511.39 1095.47 517.79   C 1089.39 524.25 1082.10 529.36 1076.28 535.25   A 0.65 0.65 0.0 0 0 1076.70 536.35   Z"/>
<path xmlns="http://www.w3.org/2000/svg" fill="#19191b" d="M 1233.76 554.00   L 1322.82 554.00   A 0.74 0.74 0.0 0 1 1323.48 555.07   L 1311.27 579.87   A 0.74 0.74 0.0 0 1 1310.61 580.28   L 1176.89 580.28   A 0.74 0.74 0.0 0 1 1176.23 579.21   L 1227.66 474.74   A 0.74 0.74 0.0 0 1 1228.32 474.33   L 1270.60 474.33   A 0.74 0.74 0.0 0 1 1271.26 475.40   L 1233.10 552.93   A 0.74 0.74 0.0 0 0 1233.76 554.00   Z"/>
<path xmlns="http://www.w3.org/2000/svg" fill="#be9252" d="M 392.03 551.79   Q 391.35 549.36 393.44 545.93   Q 398.20 538.09 403.80 525.74   C 406.33 520.17 410.29 513.81 412.00 509.87   Q 414.03 505.20 415.64 504.01   C 420.13 500.71 424.24 501.02 429.76 501.04   Q 472.18 501.23 483.26 501.01   C 493.11 500.82 484.92 512.87 483.08 516.02   C 480.28 520.80 477.64 528.43 475.52 532.00   Q 471.17 539.34 468.36 545.77   C 465.82 551.57 462.76 553.86 456.83 553.87   C 448.72 553.88 441.39 554.15 434.38 554.03   Q 415.27 553.73 397.51 554.23   Q 394.46 554.31 392.57 552.64   A 1.80 1.72 13.8 0 1 392.03 551.79   Z"/>
<path xmlns="http://www.w3.org/2000/svg" fill="#be9252" d="M 595.15 536.28   A 0.31 0.31 0.0 0 1 594.93 535.74   L 630.51 501.76   A 0.80 0.80 0.0 0 1 631.86 502.21   Q 632.67 507.20 633.05 513.92   C 633.54 522.41 634.57 528.40 635.99 535.26   A 0.85 0.85 0.0 0 1 635.16 536.28   L 595.15 536.28   Z"/>
<path xmlns="http://www.w3.org/2000/svg" fill="#be9252" d="M 1076.70 536.35   A 0.65 0.65 0.0 0 1 1076.28 535.25   C 1082.10 529.36 1089.39 524.25 1095.47 517.79   C 1101.47 511.39 1107.04 506.42 1112.29 501.90   A 0.54 0.53 65.9 0 1 1113.17 502.24   L 1117.40 535.67   A 0.62 0.62 0.0 0 1 1116.76 536.37   Q 1105.62 535.97 1102.52 536.22   Q 1089.40 537.28 1076.70 536.35   Z"/>
<path xmlns="http://www.w3.org/2000/svg" fill="#19191b" d="M 882.43 661.94   A 0.69 0.69 0.0 0 1 883.05 662.93   L 868.00 693.52   A 2.32 2.32 0.0 0 1 865.92 694.81   L 750.02 694.81   A 2.01 1.99 -77.4 0 0 748.21 695.97   L 739.58 714.59   A 0.62 0.61 -77.4 0 0 740.13 715.47   L 873.07 715.47   A 0.38 0.36 -86.5 0 1 873.43 715.89   Q 873.26 717.37 871.58 720.35   Q 867.13 728.26 864.01 736.16   C 862.05 741.10 859.47 745.55 857.42 749.53   A 1.93 1.93 0.0 0 1 855.71 750.57   L 664.93 750.57   A 0.65 0.65 0.0 0 1 664.37 749.59   C 666.84 745.43 668.94 741.50 670.67 737.06   C 673.39 730.05 677.25 723.33 679.95 717.48   Q 686.88 702.43 702.42 669.65   Q 705.70 662.73 706.82 660.59   C 711.51 651.66 716.13 640.89 720.01 633.41   C 724.24 625.25 727.00 618.29 731.40 610.25   A 1.31 1.30 14.2 0 1 732.55 609.57   L 920.21 609.57   A 0.56 0.56 0.0 0 1 920.69 610.42   C 916.28 617.92 912.55 625.83 906.41 638.62   Q 905.21 641.12 903.58 643.00   A 1.84 1.82 18.3 0 1 902.31 643.63   C 891.29 644.41 880.94 643.90 870.32 643.94   Q 826.99 644.07 782.46 643.85   Q 779.82 643.84 774.15 644.03   A 1.64 1.64 0.0 0 0 772.73 644.98   L 765.22 661.18   A 0.54 0.53 -77.5 0 0 765.70 661.94   L 882.43 661.94   Z"/>
<path xmlns="http://www.w3.org/2000/svg" fill="#19191b" d="M 1131.19 610.32   Q 1131.07 610.63 1127.64 616.39   Q 1125.89 619.32 1124.45 622.62   Q 1120.39 631.91 1114.34 643.05   A 1.01 1.00 -77.1 0 1 1113.51 643.58   C 1103.30 644.14 1093.35 643.78 1083.91 643.77   Q 1004.87 643.72 993.51 643.70   C 986.59 643.69 981.01 643.36 977.25 650.91   Q 974.25 656.92 974.07 657.34   A 2.42 2.29 -35.4 0 0 973.88 658.31   Q 973.96 661.72 978.51 661.71   Q 1047.94 661.59 1083.24 661.68   Q 1087.38 661.69 1092.99 663.50   C 1101.22 666.16 1105.98 673.26 1105.47 681.97   Q 1105.20 686.58 1100.90 695.25   Q 1094.38 708.39 1090.67 717.07   Q 1087.52 724.42 1084.10 728.56   Q 1076.91 737.27 1071.35 741.09   Q 1063.02 746.83 1052.83 749.35   Q 1047.13 750.76 1032.55 750.74   Q 915.18 750.56 890.25 750.82   Q 880.49 750.93 877.56 750.96   A 0.73 0.72 12.7 0 1 876.90 749.92   L 893.20 716.81   A 1.15 1.13 10.2 0 1 894.12 716.18   Q 896.60 715.95 897.75 715.96   Q 927.61 716.02 1028.24 716.05   C 1036.26 716.06 1039.30 708.55 1042.03 702.54   Q 1042.57 701.34 1042.11 699.23   C 1041.67 697.22 1039.11 696.85 1037.50 696.85   Q 966.96 696.78 936.25 696.83   C 927.76 696.84 922.50 696.58 915.83 691.77   C 909.03 686.86 907.52 677.34 910.70 669.88   Q 913.50 663.29 919.82 651.16   C 923.24 644.60 925.17 637.95 929.51 632.58   Q 930.84 630.94 935.31 625.78   C 939.53 620.91 946.10 617.33 951.61 614.59   Q 961.87 609.49 973.28 609.49   Q 1098.32 609.46 1116.50 609.43   Q 1125.30 609.42 1130.40 609.21   A 0.81 0.81 0.0 0 1 1131.19 610.32   Z"/>
<path xmlns="http://www.w3.org/2000/svg" fill="#19191b" d="M 1198.12 645.77   A 0.23 0.23 0.0 0 0 1197.91 645.44   L 1129.55 645.44   A 0.48 0.48 0.0 0 1 1129.12 644.75   L 1145.94 610.56   A 2.11 2.09 -76.8 0 1 1147.82 609.39   L 1343.39 609.39   A 0.34 0.34 0.0 0 1 1343.70 609.88   L 1326.51 644.80   A 1.13 1.13 0.0 0 1 1325.49 645.44   L 1257.50 645.44   A 1.44 1.44 0.0 0 0 1256.20 646.26   L 1206.21 750.02   A 0.87 0.86 -76.5 0 1 1205.44 750.50   L 1149.94 750.50   A 0.66 0.66 0.0 0 1 1149.34 749.56   L 1198.12 645.77   Z"/>
<path xmlns="http://www.w3.org/2000/svg" fill="#19191b" d="M 239.97 669.46   A 0.52 0.52 0.0 0 0 240.44 670.19   L 360.30 670.19   A 0.51 0.50 -76.8 0 1 360.75 670.92   Q 358.13 676.14 355.38 680.74   C 351.36 687.46 347.75 695.48 344.80 702.26   A 0.93 0.93 0.0 0 1 343.94 702.83   L 225.05 702.83   A 0.88 0.87 12.9 0 0 224.26 703.32   L 202.05 749.41   A 1.91 1.91 0.0 0 1 200.33 750.49   L 145.08 750.49   A 0.65 0.65 0.0 0 1 144.51 749.53   Q 147.71 743.58 149.60 739.36   Q 152.32 733.31 153.21 731.41   Q 161.58 713.59 192.00 649.23   Q 197.07 638.51 197.92 637.12   C 202.61 629.49 209.71 622.98 217.22 618.28   Q 231.18 609.54 248.00 609.57   Q 360.35 609.77 384.50 609.51   Q 392.68 609.42 400.10 609.44   A 0.62 0.62 0.0 0 1 400.65 610.34   L 382.89 644.98   A 1.00 1.00 0.0 0 1 382.00 645.52   Q 286.22 645.51 266.27 645.38   C 260.26 645.34 256.33 645.09 251.49 648.49   Q 249.78 649.70 247.29 654.57   Q 242.60 663.78 239.97 669.46   Z"/>
<path xmlns="http://www.w3.org/2000/svg" fill="#19191b" d="M 477.90 610.18   Q 477.90 610.31 477.79 610.52   Q 473.89 617.96 467.91 629.89   Q 449.84 665.93 425.51 717.74   Q 422.14 724.94 417.72 734.92   C 415.46 740.03 413.37 743.40 410.50 749.31   A 2.11 2.09 12.7 0 1 408.60 750.50   L 351.75 750.50   A 0.73 0.73 0.0 0 1 351.11 749.43   Q 355.76 740.68 359.45 732.40   C 363.65 722.98 367.90 715.61 372.05 706.05   Q 375.69 697.68 380.74 687.57   C 387.82 673.39 390.83 666.26 396.87 654.18   Q 403.26 641.39 403.54 640.83   Q 405.02 637.87 412.06 622.50   C 414.03 618.19 416.81 613.57 418.41 610.84   A 2.03 2.03 0.0 0 1 420.19 609.79   L 477.02 609.37   A 0.87 0.87 0.0 0 1 477.90 610.18   Z"/>
<path xmlns="http://www.w3.org/2000/svg" fill="#19191b" d="M 533.14 660.70   A 0.52 0.51 17.9 0 0 532.58 660.98   L 489.92 749.53   A 1.80 1.79 12.8 0 1 488.30 750.54   L 434.02 750.54   A 0.71 0.71 0.0 0 1 433.38 749.52   L 500.25 610.73   A 1.94 1.94 0.0 0 1 502.00 609.63   L 564.34 609.63   A 2.21 2.19 72.3 0 1 566.14 610.57   L 620.73 688.87   A 0.63 0.63 0.0 0 0 621.81 688.79   L 660.42 610.35   A 1.45 1.45 0.0 0 1 661.72 609.54   L 710.81 609.54   A 0.57 0.57 0.0 0 1 711.34 610.33   Q 708.47 617.32 705.61 622.50   Q 700.99 630.87 699.36 634.38   C 695.56 642.59 693.03 648.76 689.36 655.47   C 684.87 663.69 681.18 672.97 677.03 681.34   Q 669.75 696.02 659.26 719.09   C 658.21 721.40 656.56 723.93 655.58 726.10   Q 649.63 739.25 644.99 749.57   A 1.55 1.54 12.1 0 1 643.58 750.48   L 595.74 750.48   A 1.21 1.20 72.3 0 1 594.76 749.97   Q 573.59 718.70 557.16 694.86   C 554.09 690.41 551.04 686.48 548.49 682.52   Q 542.65 673.43 533.96 661.30   Q 533.59 660.79 533.14 660.70   Z"/>
<path xmlns="http://www.w3.org/2000/svg" fill="#19191b" d="M 327.34 856.80   A 0.19 0.19 0.0 0 0 327.51 857.07   L 423.13 857.07   A 0.51 0.51 0.0 0 1 423.59 857.80   L 411.88 882.10   A 1.00 0.98 12.9 0 1 410.99 882.65   L 276.02 882.65   A 0.67 0.67 0.0 0 1 275.43 881.66   Q 280.68 871.98 283.34 865.73   C 290.16 849.73 298.52 833.65 305.26 818.74   C 308.58 811.39 311.67 806.14 314.50 799.14   Q 317.60 791.48 323.43 781.39   A 1.58 1.57 6.5 0 1 324.33 780.68   Q 326.41 780.08 330.25 780.10   Q 385.50 780.32 454.89 780.33   A 0.56 0.56 0.0 0 1 455.40 781.13   L 443.99 804.80   A 1.36 1.35 -77.1 0 1 442.77 805.57   L 353.57 805.57   A 2.36 2.34 -76.7 0 0 351.47 806.88   L 346.16 817.67   A 0.47 0.46 13.1 0 0 346.58 818.34   Q 389.91 818.26 390.84 818.26   C 404.85 818.20 417.82 818.80 430.45 818.11   Q 430.97 818.08 431.18 818.66   Q 431.29 818.98 431.10 819.39   Q 425.88 830.84 419.92 841.32   A 1.57 1.57 0.0 0 1 418.55 842.12   L 335.00 842.12   A 0.94 0.92 12.5 0 0 334.16 842.64   L 327.34 856.80   Z"/>
<path xmlns="http://www.w3.org/2000/svg" fill="#19191b" d="M 503.71 806.60   A 0.55 0.55 0.0 0 0 503.23 805.81   Q 489.43 805.16 479.50 805.49   Q 465.73 805.95 458.75 805.86   Q 457.60 805.85 456.65 805.63   A 0.68 0.67 -70.4 0 1 456.20 804.67   L 467.77 781.15   A 1.54 1.53 13.0 0 1 469.15 780.29   L 604.87 780.29   A 0.19 0.18 12.2 0 1 605.04 780.55   L 593.36 804.28   A 1.54 1.52 -81.9 0 1 592.28 805.10   Q 589.53 805.64 588.07 805.64   Q 562.26 805.64 544.52 805.57   A 1.00 1.00 0.0 0 0 543.62 806.14   L 507.91 882.10   A 0.91 0.89 12.2 0 1 507.09 882.62   L 468.91 882.62   A 0.59 0.59 0.0 0 1 468.37 881.78   L 503.71 806.60   Z"/>
<path xmlns="http://www.w3.org/2000/svg" fill="#19191b" d="M 804.26 780.63   A 0.42 0.41 12.9 0 1 804.63 781.22   L 757.85 882.14   A 0.93 0.92 -77.5 0 1 757.01 882.68   L 718.91 882.68   A 0.56 0.56 0.0 0 1 718.38 881.92   Q 720.92 874.86 723.61 869.81   Q 726.72 863.96 729.37 857.92   Q 733.56 848.39 744.92 824.43   C 749.21 815.41 752.16 808.04 756.23 800.25   Q 760.62 791.86 764.60 781.50   A 1.93 1.91 12.0 0 1 766.49 780.28   Q 776.49 780.83 785.88 780.09   C 792.24 779.60 797.78 780.60 804.26 780.63   Z"/>
<path xmlns="http://www.w3.org/2000/svg" fill="#19191b" d="M 828.04 857.04   L 910.85 857.04   A 0.50 0.50 0.0 0 1 911.30 857.75   L 899.99 882.15   A 0.85 0.84 -77.1 0 1 899.23 882.63   L 776.88 882.63   A 0.49 0.48 14.0 0 1 776.45 881.92   Q 777.03 880.81 778.26 877.83   Q 781.18 870.74 786.41 860.35   C 789.13 854.95 791.34 849.21 793.41 844.90   C 801.40 828.29 806.84 814.89 814.62 799.77   Q 819.03 791.21 823.01 780.95   A 1.04 1.04 0.0 0 1 823.98 780.29   L 862.47 780.29   A 0.53 0.53 0.0 0 1 862.94 781.05   Q 848.92 810.45 837.62 835.20   Q 834.52 841.99 832.57 845.64   Q 829.46 851.46 827.39 856.03   A 0.71 0.71 0.0 0 0 828.04 857.04   Z"/>
<path xmlns="http://www.w3.org/2000/svg" fill="#19191b" d="M 975.36 881.71   Q 977.39 875.93 980.87 869.15   Q 984.92 861.27 986.92 856.80   Q 998.96 830.06 1005.23 817.40   C 1011.05 805.62 1015.44 793.46 1022.23 781.62   A 1.82 1.80 13.3 0 1 1023.71 780.72   C 1027.56 780.53 1031.50 780.11 1035.08 780.13   Q 1053.06 780.22 1065.92 780.15   A 1.81 1.80 -15.6 0 1 1067.49 781.03   C 1070.16 785.48 1072.46 789.29 1075.25 793.00   Q 1082.03 802.05 1086.31 808.97   C 1090.09 815.07 1094.91 820.55 1098.67 826.91   Q 1101.45 831.63 1105.60 836.98   A 0.41 0.41 0.0 0 0 1106.29 836.90   L 1133.22 781.02   A 1.32 1.32 0.0 0 1 1134.41 780.27   L 1168.40 780.27   A 0.78 0.78 0.0 0 1 1169.12 781.35   C 1168.18 783.55 1166.31 787.97 1164.87 790.56   C 1160.30 798.78 1157.71 805.72 1153.39 815.06   Q 1141.24 841.32 1136.54 851.18   C 1132.67 859.29 1130.01 867.54 1125.45 875.72   Q 1123.85 878.57 1122.62 882.04   A 0.77 0.76 -80.3 0 1 1121.90 882.56   L 1088.85 882.56   A 1.05 1.04 -17.2 0 1 1087.99 882.11   C 1083.47 875.60 1080.29 869.97 1076.21 864.70   C 1069.31 855.77 1063.35 845.02 1056.48 835.87   Q 1052.68 830.81 1046.57 820.78   Q 1045.88 819.66 1044.65 818.63   A 0.46 0.46 0.0 0 0 1043.94 818.79   L 1014.14 882.18   A 0.90 0.89 12.4 0 1 1013.33 882.69   L 976.06 882.69   A 0.74 0.74 0.0 0 1 975.36 881.71   Z"/>
<path xmlns="http://www.w3.org/2000/svg" fill="#19191b" d="M 116.21 882.57   A 0.47 0.47 0.0 0 1 115.79 881.90   L 162.91 781.65   A 1.98 1.95 10.5 0 1 164.58 780.52   Q 169.16 780.26 172.75 780.27   Q 230.17 780.30 277.62 780.25   Q 287.71 780.23 293.96 787.75   C 298.80 793.56 298.39 800.18 294.98 806.54   Q 293.03 810.17 291.74 813.12   Q 280.61 838.49 268.89 861.41   Q 263.71 871.54 253.95 876.64   Q 244.94 881.35 237.17 882.37   Q 235.63 882.58 219.40 882.61   Q 161.58 882.75 116.21 882.57   Z   M 167.47 857.11   Q 167.83 857.25 168.50 857.24   Q 184.79 856.99 225.49 856.96   C 230.86 856.96 233.61 853.64 235.89 848.62   Q 243.25 832.37 253.02 812.45   C 255.49 807.43 253.12 805.58 247.91 805.59   Q 192.96 805.63 192.38 805.67   A 1.88 1.87 10.7 0 0 190.80 806.74   L 167.24 856.53   A 0.43 0.42 -67.0 0 0 167.47 857.11   Z"/>
<path xmlns="http://www.w3.org/2000/svg" fill="#19191b" d="M 539.18 881.81   Q 587.54 834.61 601.95 821.08   Q 608.33 815.09 613.44 809.81   C 620.70 802.31 626.76 797.53 634.33 789.72   Q 637.69 786.25 643.85 780.82   A 2.32 2.31 24.5 0 1 645.36 780.26   L 697.47 780.26   A 0.81 0.80 -3.6 0 1 698.27 780.96   L 710.95 881.13   A 1.34 1.33 -3.6 0 1 709.62 882.63   L 670.35 882.63   A 0.69 0.68 87.2 0 1 669.67 882.01   L 667.93 863.69   A 1.02 1.02 0.0 0 0 666.91 862.76   L 605.95 862.76   A 3.02 2.99 -65.3 0 0 603.98 863.50   C 597.17 869.43 592.13 875.77 585.51 882.13   A 1.79 1.79 0.0 0 1 584.27 882.63   L 539.51 882.63   A 0.48 0.48 0.0 0 1 539.18 881.81   Z   M 626.78 839.44   A 0.31 0.31 0.0 0 0 627.02 839.96   Q 637.63 839.42 648.15 840.21   C 653.48 840.61 657.10 840.25 664.05 840.07   A 0.67 0.67 0.0 0 0 664.70 839.32   L 660.62 807.11   A 0.63 0.62 -24.0 0 0 659.59 806.72   Q 651.15 814.14 646.24 819.71   Q 641.81 824.74 636.50 829.54   Q 632.69 832.99 626.78 839.44   Z"/>
<path xmlns="http://www.w3.org/2000/svg" fill="#19191b" d="M 956.55 882.61   L 917.12 882.61   A 0.34 0.34 0.0 0 1 916.81 882.13   L 964.59 780.47   A 0.34 0.34 0.0 0 1 964.90 780.27   L 1003.67 780.27   A 0.34 0.34 0.0 0 1 1003.98 780.75   L 956.86 882.41   A 0.34 0.34 0.0 0 1 956.55 882.61   Z"/>
<path xmlns="http://www.w3.org/2000/svg" fill="#19191b" d="M 1327.24 780.40   A 0.40 0.40 0.0 0 1 1327.57 780.97   L 1315.88 804.72   A 1.43 1.43 0.0 0 1 1314.62 805.51   Q 1251.66 805.70 1237.75 805.61   Q 1227.02 805.54 1221.03 805.85   Q 1217.84 806.02 1215.24 807.72   Q 1213.72 808.71 1211.85 812.67   Q 1195.59 847.07 1193.51 851.29   C 1191.19 856.03 1195.09 857.38 1199.25 857.29   Q 1219.59 856.85 1244.25 857.19   Q 1244.52 857.20 1249.81 857.01   C 1257.54 856.72 1259.03 852.49 1261.85 846.33   A 0.91 0.91 0.0 0 0 1261.03 845.04   L 1224.55 845.04   A 0.53 0.53 0.0 0 1 1224.08 844.27   L 1235.29 821.49   A 1.45 1.44 -76.6 0 1 1236.58 820.69   L 1311.61 820.69   A 0.54 0.53 -77.1 0 1 1312.09 821.46   Q 1305.07 835.87 1296.99 854.09   Q 1292.39 864.47 1289.05 868.35   Q 1280.73 877.98 1269.19 881.31   Q 1264.64 882.62 1254.77 882.63   Q 1184.64 882.72 1167.51 882.54   C 1162.25 882.48 1155.85 879.88 1152.57 875.49   Q 1146.73 867.63 1150.83 858.27   Q 1155.27 848.12 1177.38 801.61   C 1181.78 792.34 1194.22 783.48 1203.89 781.21   Q 1207.90 780.26 1217.22 780.26   Q 1261.28 780.23 1310.64 780.32   C 1316.19 780.33 1321.72 779.98 1327.24 780.40   Z"/>
<path xmlns="http://www.w3.org/2000/svg" fill="#be9252" d="M 167.47 857.11   A 0.43 0.42 -67.0 0 1 167.24 856.53   L 190.80 806.74   A 1.88 1.87 10.7 0 1 192.38 805.67   Q 192.96 805.63 247.91 805.59   C 253.12 805.58 255.49 807.43 253.02 812.45   Q 243.25 832.37 235.89 848.62   C 233.61 853.64 230.86 856.96 225.49 856.96   Q 184.79 856.99 168.50 857.24   Q 167.83 857.25 167.47 857.11   Z"/>
<path xmlns="http://www.w3.org/2000/svg" fill="#be9252" d="M 626.78 839.44   Q 632.69 832.99 636.50 829.54   Q 641.81 824.74 646.24 819.71   Q 651.15 814.14 659.59 806.72   A 0.63 0.62 -24.0 0 1 660.62 807.11   L 664.70 839.32   A 0.67 0.67 0.0 0 1 664.05 840.07   C 657.10 840.25 653.48 840.61 648.15 840.21   Q 637.63 839.42 627.02 839.96   A 0.31 0.31 0.0 0 1 626.78 839.44   Z"/>
<path xmlns="http://www.w3.org/2000/svg" fill="#19191b" d="M 1184.57 949.85   Q 1195.17 949.59 1202.92 947.21   C 1210.71 944.81 1213.75 940.24 1215.55 932.35   Q 1216.92 926.34 1217.15 920.22   A 0.14 0.13 42.5 0 1 1217.42 920.21   C 1218.62 929.15 1218.80 941.32 1228.59 945.90   C 1235.34 949.06 1241.92 949.52 1249.09 949.68   A 0.33 0.32 -90.0 0 1 1249.41 950.01   L 1249.41 950.28   A 0.04 0.04 0.0 0 1 1249.37 950.32   Q 1238.30 949.95 1228.36 954.13   Q 1222.81 956.46 1220.65 962.86   C 1218.48 969.30 1218.20 974.34 1217.69 980.57   A 0.23 0.23 0.0 0 1 1217.45 980.78   L 1217.44 980.78   A 0.18 0.18 0.0 0 1 1217.27 980.61   C 1216.96 974.26 1216.15 967.66 1213.66 961.92   C 1211.49 956.92 1207.77 954.19 1202.38 952.63   Q 1195.97 950.77 1191.24 950.48   Q 1184.77 950.07 1184.56 950.04   A 0.10 0.10 0.0 0 1 1184.57 949.85   Z"/>
<path xmlns="http://www.w3.org/2000/svg" fill="#19191b" d="M 259.48 948.64   A 0.43 0.43 0.0 0 0 258.71 948.90   L 258.71 965.86   A 0.85 0.85 0.0 0 1 257.86 966.71   L 254.34 966.71   A 0.82 0.82 0.0 0 1 253.52 965.89   L 253.52 940.04   A 0.65 0.65 0.0 0 1 254.17 939.39   L 258.67 939.39   A 1.21 1.20 -18.1 0 1 259.64 939.88   L 270.89 954.95   A 0.91 0.90 45.1 0 0 272.34 954.96   L 283.66 939.86   A 1.15 1.14 -76.5 0 1 284.37 939.42   Q 286.08 939.09 288.57 939.46   A 0.69 0.68 4.5 0 1 289.15 940.13   L 289.15 965.92   A 0.77 0.77 0.0 0 1 288.38 966.69   L 284.19 966.69   A 0.78 0.78 0.0 0 1 283.41 965.91   L 283.41 948.46   A 0.46 0.46 0.0 0 0 282.57 948.19   L 272.68 962.39   A 1.80 1.79 44.1 0 1 269.77 962.43   L 259.48 948.64   Z"/>
<path xmlns="http://www.w3.org/2000/svg" fill="#19191b" d="M 358.13 961.29   A 5.57 5.57 0.0 0 1 352.56 966.86   L 330.04 966.86   A 5.57 5.57 0.0 0 1 324.47 961.29   L 324.47 944.91   A 5.57 5.57 0.0 0 1 330.04 939.34   L 352.56 939.34   A 5.57 5.57 0.0 0 1 358.13 944.91   L 358.13 961.29   Z   M 351.2842 944.6478   A 0.55 0.55 0.0 0 0 350.7351 944.0969   L 331.4152 944.0632   A 0.55 0.55 0.0 0 0 330.8642 944.6122   L 330.8358 960.8722   A 0.55 0.55 0.0 0 0 331.3849 961.4231   L 350.7048 961.4568   A 0.55 0.55 0.0 0 0 351.2558 960.9078   L 351.2842 944.6478   Z"/>
<path xmlns="http://www.w3.org/2000/svg" fill="#19191b" d="M 419.98 952.94   L 421.94 953.88   A 1.18 1.17 83.8 0 1 422.36 954.22   Q 423.28 955.47 423.18 958.77   C 423.07 962.28 422.85 965.36 418.90 966.34   Q 416.14 967.03 412.27 966.95   Q 402.95 966.75 394.12 966.64   A 0.57 0.57 0.0 0 1 393.56 966.07   L 393.56 940.14   A 0.57 0.57 0.0 0 1 394.10 939.57   Q 407.61 938.81 418.24 939.57   C 422.22 939.86 422.74 942.15 422.89 945.57   C 423.04 948.83 422.99 950.89 420.00 952.11   A 0.46 0.45 46.8 0 0 419.98 952.94   Z   M 416.16 943.77   L 400.94 943.59   A 1.01 1.01 0.0 0 0 399.92 944.58   L 399.88 947.81   A 2.78 2.52 0.7 0 0 402.63 950.37   L 414.31 950.51   A 2.78 2.52 0.7 0 0 417.12 948.03   L 417.16 944.80   A 1.01 1.01 0.0 0 0 416.16 943.77   Z   M 399.86 955.75   L 399.96 960.95   A 0.94 0.94 0.0 0 0 400.92 961.87   L 415.11 961.60   A 2.39 2.15 -1.1 0 0 417.46 959.40   L 417.40 956.62   A 2.39 2.15 -1.1 0 0 414.97 954.52   L 400.78 954.79   A 0.94 0.94 0.0 0 0 399.86 955.75   Z"/>
<rect xmlns="http://www.w3.org/2000/svg" fill="#19191b" x="-3.18" y="-13.70" transform="translate(461.45,953.07) rotate(0.2)" width="6.36" height="27.40" rx="0.69"/>
<path xmlns="http://www.w3.org/2000/svg" fill="#19191b" d="M 568.52 950.42   L 579.37 950.42   A 0.88 0.88 0.0 0 1 580.25 951.30   L 580.25 953.63   A 0.88 0.88 0.0 0 1 579.37 954.51   L 568.55 954.51   A 0.88 0.88 0.0 0 0 567.67 955.39   L 567.67 960.92   A 0.88 0.88 0.0 0 0 568.55 961.80   L 588.29 961.80   A 0.88 0.88 0.0 0 1 589.17 962.68   L 589.17 965.76   A 0.88 0.88 0.0 0 1 588.29 966.64   L 562.18 966.64   A 0.88 0.88 0.0 0 1 561.30 965.76   L 561.30 940.24   A 0.88 0.88 0.0 0 1 562.18 939.36   L 588.02 939.36   A 0.88 0.88 0.0 0 1 588.90 940.24   L 588.90 943.14   A 0.88 0.88 0.0 0 1 588.02 944.02   L 568.52 944.02   A 0.88 0.88 0.0 0 0 567.64 944.90   L 567.64 949.54   A 0.88 0.88 0.0 0 0 568.52 950.42   Z"/>
<path xmlns="http://www.w3.org/2000/svg" fill="#19191b" d="M 729.11 965.85   A 0.71 0.70 -13.9 0 1 728.47 966.90   L 723.50 966.79   A 1.79 1.78 -12.6 0 1 721.95 965.81   L 719.60 961.13   A 1.00 0.99 76.7 0 0 718.72 960.58   L 703.16 960.41   A 1.52 1.51 13.5 0 0 701.78 961.25   L 699.78 965.31   A 2.20 2.20 0.0 0 1 697.87 966.54   L 694.09 966.68   A 0.79 0.78 -76.2 0 1 693.38 965.50   L 707.55 940.48   A 1.99 1.98 14.8 0 1 709.29 939.47   L 713.76 939.50   A 1.11 1.10 75.6 0 1 714.72 940.07   L 729.11 965.85   Z   M 710.76 955.95   Q 715.21 956.00 716.03 955.97   A 0.76 0.76 0.0 0 0 716.65 954.81   Q 712.90 948.68 711.38 945.62   C 711.29 945.44 711.04 945.35 710.88 945.34   C 710.71 945.34 710.46 945.43 710.37 945.61   Q 708.78 948.64 704.90 954.68   A 0.76 0.76 0.0 0 0 705.50 955.86   Q 706.32 955.91 710.76 955.95   Z"/>
<path xmlns="http://www.w3.org/2000/svg" fill="#19191b" d="M 769.97 961.66   L 788.78 961.66   A 0.83 0.83 0.0 0 1 789.61 962.49   L 789.61 965.94   A 0.83 0.83 0.0 0 1 788.78 966.77   L 763.59 966.77   A 0.83 0.83 0.0 0 1 762.76 965.94   L 762.76 940.20   A 0.83 0.83 0.0 0 1 763.59 939.37   L 768.31 939.37   A 0.83 0.83 0.0 0 1 769.14 940.20   L 769.14 960.83   A 0.83 0.83 0.0 0 0 769.97 961.66   Z"/>
<path xmlns="http://www.w3.org/2000/svg" fill="#19191b" d="M 917.79 952.85   L 919.74 953.77   A 1.17 1.16 83.5 0 1 920.16 954.11   Q 921.08 955.35 920.99 958.62   C 920.90 962.11 920.70 965.17 916.78 966.16   Q 914.05 966.86 910.20 966.79   Q 900.95 966.64 892.19 966.58   A 0.57 0.57 0.0 0 1 891.63 966.01   L 891.50 940.27   A 0.57 0.57 0.0 0 1 892.03 939.70   Q 905.44 938.88 916.00 939.59   C 919.95 939.86 920.48 942.13 920.64 945.52   C 920.81 948.76 920.77 950.80 917.81 952.03   A 0.45 0.45 0.0 0 0 917.79 952.85   Z   M 897.91 944.55   L 898.00 949.75   A 0.68 0.68 0.0 0 0 898.69 950.41   L 912.44 950.17   A 2.45 2.18 -1.0 0 0 914.85 947.95   L 914.81 945.75   A 2.45 2.18 -1.0 0 0 912.32 943.62   L 898.57 943.86   A 0.68 0.68 0.0 0 0 897.91 944.55   Z   M 897.76 955.25   L 897.76 961.17   A 0.61 0.61 0.0 0 0 898.37 961.78   L 911.95 961.78   A 3.01 1.85 0.0 0 0 914.96 959.93   L 914.96 956.49   A 3.01 1.85 -0.0 0 0 911.95 954.64   L 898.37 954.64   A 0.61 0.61 0.0 0 0 897.76 955.25   Z"/>
<path xmlns="http://www.w3.org/2000/svg" fill="#19191b" d="M 1029.19 947.73   L 1029.19 965.94   A 0.86 0.86 0.0 0 1 1028.33 966.80   L 1024.97 966.80   A 0.93 0.92 90.0 0 1 1024.05 965.87   L 1024.05 940.07   A 0.77 0.77 0.0 0 1 1024.82 939.30   L 1029.04 939.30   A 1.17 1.17 0.0 0 1 1029.97 939.76   L 1041.14 954.73   A 1.15 1.15 0.0 0 0 1042.98 954.74   L 1054.12 940.14   A 0.88 0.86 8.0 0 1 1054.54 939.83   Q 1056.71 939.06 1059.06 939.51   A 1.02 1.01 -84.5 0 1 1059.88 940.51   L 1059.88 965.87   A 0.78 0.78 0.0 0 1 1059.10 966.65   L 1054.75 966.65   A 0.75 0.74 -0.8 0 1 1054.00 965.93   Q 1053.66 957.25 1054.08 949.05   A 0.65 0.63 -0.4 0 0 1053.39 948.39   Q 1053.07 948.41 1052.90 948.66   Q 1044.49 960.94 1043.26 962.51   Q 1042.99 962.85 1042.73 963.02   A 1.61 1.61 0.0 0 1 1040.61 962.57   L 1029.76 947.55   A 0.31 0.31 0.0 0 0 1029.19 947.73   Z"/>
<path xmlns="http://www.w3.org/2000/svg" fill="#19191b" d="M 1131.03 965.82   A 0.72 0.71 -14.4 0 1 1130.39 966.89   L 1125.36 966.81   A 1.81 1.80 -13.0 0 1 1123.78 965.83   L 1121.38 961.12   A 1.01 1.00 76.3 0 0 1120.48 960.56   L 1104.75 960.51   A 1.53 1.53 0.0 0 0 1103.35 961.37   L 1101.36 965.49   A 2.23 2.22 -78.2 0 1 1099.45 966.75   L 1095.62 966.92   A 0.80 0.79 -76.7 0 1 1094.90 965.73   L 1109.04 940.33   A 2.01 2.00 14.4 0 1 1110.79 939.29   L 1115.31 939.29   A 1.12 1.11 75.2 0 1 1116.28 939.86   L 1131.03 965.82   Z   M 1107.14 955.09   A 0.44 0.44 0.0 0 0 1107.53 955.74   L 1117.88 955.76   A 0.44 0.44 0.0 0 0 1118.27 955.11   L 1113.11 945.58   A 0.44 0.44 0.0 0 0 1112.33 945.58   L 1107.14 955.09   Z"/>
<path xmlns="http://www.w3.org/2000/svg" fill="#19191b" d="M 501.76 939.48   L 507.06 939.53   A 0.53 0.53 0.0 0 1 507.58 940.05   L 507.39 960.70   A 0.83 0.83 0.0 0 0 508.21 961.53   L 526.86 961.67   A 0.93 0.92 89.8 0 1 527.78 962.59   L 527.81 965.71   A 1.01 1.01 0.0 0 1 526.80 966.72   L 501.62 966.61   A 0.47 0.47 0.0 0 1 501.15 966.14   L 501.22 940.03   A 0.56 0.55 -89.9 0 1 501.76 939.48   Z"/>
<path xmlns="http://www.w3.org/2000/svg" fill="#19191b" d="M 851.69 966.51   L 848.48 960.93   A 0.72 0.72 0.0 0 0 847.85 960.57   L 831.91 960.57   A 0.72 0.72 0.0 0 0 831.28 960.93   L 828.11 966.44   A 0.72 0.72 0.0 0 1 827.48 966.80   L 822.77 966.80   A 0.72 0.72 0.0 0 1 822.14 965.72   L 837.12 939.79   A 0.72 0.72 0.0 0 1 837.75 939.43   L 842.85 939.43   A 0.72 0.72 0.0 0 1 843.48 939.79   L 858.49 965.79   A 0.72 0.72 0.0 0 1 857.86 966.87   L 852.32 966.87   A 0.72 0.72 0.0 0 1 851.69 966.51   Z   M 840.53 945.63   A 0.44 0.44 0.0 0 0 839.76 945.61   L 834.09 955.25   A 0.44 0.44 0.0 0 0 834.47 955.91   L 845.16 955.72   A 0.44 0.44 0.0 0 0 845.54 955.07   L 840.53 945.63   Z"/>
<path xmlns="http://www.w3.org/2000/svg" fill="#19191b" d="M 990.07 965.67   A 0.71 0.70 -14.3 0 1 989.44 966.71   L 984.49 966.64   A 1.78 1.78 0.0 0 1 982.94 965.67   L 980.57 961.03   A 1.00 0.98 76.3 0 0 979.69 960.49   L 964.20 960.43   A 1.51 1.50 13.1 0 0 962.83 961.28   L 960.86 965.34   A 2.19 2.19 0.0 0 1 958.98 966.57   L 955.21 966.74   A 0.79 0.78 -76.6 0 1 954.50 965.57   L 968.42 940.56   A 1.98 1.97 14.4 0 1 970.15 939.54   L 974.60 939.54   A 1.10 1.10 0.0 0 1 975.56 940.10   L 990.07 965.67   Z   M 977.23 955.99   A 0.62 0.62 0.0 0 0 977.78 955.06   L 972.49 945.72   A 0.62 0.62 0.0 0 0 971.42 945.71   L 965.98 954.96   A 0.62 0.62 0.0 0 0 966.50 955.89   L 977.23 955.99   Z"/>
<path xmlns="http://www.w3.org/2000/svg" fill="#be9252" d="M 416.16 943.77   A 1.01 1.01 0.0 0 1 417.16 944.80   L 417.12 948.03   A 2.78 2.52 0.7 0 1 414.31 950.51   L 402.63 950.37   A 2.78 2.52 0.7 0 1 399.88 947.81   L 399.92 944.58   A 1.01 1.01 0.0 0 1 400.94 943.59   L 416.16 943.77   Z"/>
<path xmlns="http://www.w3.org/2000/svg" fill="#be9252" d="M 897.91 944.55   A 0.68 0.68 0.0 0 1 898.57 943.86   L 912.32 943.62   A 2.45 2.18 -1.0 0 1 914.81 945.75   L 914.85 947.95   A 2.45 2.18 -1.0 0 1 912.44 950.17   L 898.69 950.41   A 0.68 0.68 0.0 0 1 898.00 949.75   L 897.91 944.55   Z"/>
<rect xmlns="http://www.w3.org/2000/svg" fill="#be9252" x="-10.21" y="-8.68" transform="translate(341.06,952.76) rotate(0.1)" width="20.42" height="17.36" rx="0.55"/>
<path xmlns="http://www.w3.org/2000/svg" fill="#be9252" d="M 710.88 945.34   C 711.04 945.35 711.29 945.44 711.38 945.62   Q 712.90 948.68 716.65 954.81   A 0.76 0.76 0.0 0 1 716.03 955.97   Q 715.21 956.00 710.76 955.95   Q 706.32 955.91 705.50 955.86   A 0.76 0.76 0.0 0 1 704.90 954.68   Q 708.78 948.64 710.37 945.61   C 710.46 945.43 710.71 945.34 710.88 945.34   Z"/>
<path xmlns="http://www.w3.org/2000/svg" fill="#be9252" d="M 977.23 955.99   L 966.50 955.89   A 0.62 0.62 0.0 0 1 965.98 954.96   L 971.42 945.71   A 0.62 0.62 0.0 0 1 972.49 945.72   L 977.78 955.06   A 0.62 0.62 0.0 0 1 977.23 955.99   Z"/>
<path xmlns="http://www.w3.org/2000/svg" fill="#be9252" d="M 1107.14 955.09   L 1112.33 945.58   A 0.44 0.44 0.0 0 1 1113.11 945.58   L 1118.27 955.11   A 0.44 0.44 0.0 0 1 1117.88 955.76   L 1107.53 955.74   A 0.44 0.44 0.0 0 1 1107.14 955.09   Z"/>
<path xmlns="http://www.w3.org/2000/svg" fill="#be9252" d="M 840.53 945.63   L 845.54 955.07   A 0.44 0.44 0.0 0 1 845.16 955.72   L 834.47 955.91   A 0.44 0.44 0.0 0 1 834.09 955.25   L 839.76 945.61   A 0.44 0.44 0.0 0 1 840.53 945.63   Z"/>
<path xmlns="http://www.w3.org/2000/svg" fill="#be9252" d="M 399.86 955.75   A 0.94 0.94 0.0 0 1 400.78 954.79   L 414.97 954.52   A 2.39 2.15 -1.1 0 1 417.40 956.62   L 417.46 959.40   A 2.39 2.15 -1.1 0 1 415.11 961.60   L 400.92 961.87   A 0.94 0.94 0.0 0 1 399.96 960.95   L 399.86 955.75   Z"/>
<path xmlns="http://www.w3.org/2000/svg" fill="#be9252" d="M 897.76 955.25   A 0.61 0.61 0.0 0 1 898.37 954.64   L 911.95 954.64   A 3.01 1.85 -0.0 0 1 914.96 956.49   L 914.96 959.93   A 3.01 1.85 -0.0 0 1 911.95 961.78   L 898.37 961.78   A 0.61 0.61 0.0 0 1 897.76 961.17   L 897.76 955.25   Z"/>
<path xmlns="http://www.w3.org/2000/svg" fill="#19191b" d="M 622.50 972.73   Q 623.04 971.33 625.75 967.13   A 0.72 0.72 0.0 0 0 625.15 966.02   L 622.90 966.02   A 0.86 0.85 0.0 0 1 622.04 965.17   L 622.04 959.89   A 1.20 1.20 0.0 0 1 623.24 958.69   L 628.80 958.69   A 1.19 1.19 0.0 0 1 629.99 959.88   L 629.99 965.57   A 1.33 1.31 63.0 0 1 629.75 966.33   L 624.54 973.82   A 1.17 1.16 73.1 0 1 622.50 972.73   Z"/>
</g></g></g></g></svg>