<svg xmlns="http://www.w3.org/2000/svg" height="1024" preserveAspectRatio="none" style="display: block;" version="1.1" viewBox="0 0 2048 2048" width="1024">
<path d="M 0 0 L 2048 0 L 2048 2048 L 0 2048 L 0 0 z" fill="rgb(254,254,254)" transform="translate(0,0)"></path>
<path d="M 978.62 552.445 C 991.506 551.556 1007.36 552.081 1020.53 551.855 C 1061.99 551.141 1101.85 553.604 1143.09 557.866 C 1283.28 573.737 1421.44 604.136 1555.35 648.573 C 1576.1 655.309 1596.25 663.14 1616.86 670.227 C 1610.74 691.654 1605.89 725.047 1602.55 747.595 C 1594.18 804.25 1587.83 861.183 1583.5 918.288 C 1575.37 1013.44 1568.21 1108.67 1562.02 1203.96 L 1546.21 1203.89 C 1548.04 1166.63 1551.46 1128.16 1554.12 1090.85 C 1557.39 1037.48 1561.34 984.162 1565.95 930.896 C 1572.61 853.989 1579.58 766.491 1596.05 691.518 C 1580.23 700.247 1564.7 709.485 1549.48 719.217 C 1546.29 838.296 1541.09 957.314 1533.87 1076.22 C 1531.48 1117.53 1529.64 1162.6 1526.15 1203.67 L 1510.99 1203.6 C 1511.02 1191.42 1512.76 1173.53 1513.4 1160.56 L 1520.36 1036.99 C 1525.89 931.856 1529.82 826.641 1532.15 721.385 C 1507.53 707.328 1463.03 693.417 1435.4 685.345 C 1354.47 661.878 1271.99 644.125 1188.56 632.215 C 1151.39 626.835 1108.74 621.382 1071.26 620.775 C 1052.25 619.25 1022.59 619.346 1003.63 619.705 C 847.271 622.672 663.062 661.177 517.005 718.76 C 516.927 759.688 518.624 802.822 519.853 843.781 C 523.53 964.17 530.661 1084.43 541.237 1204.41 L 523.499 1204.69 C 520.682 1142.41 514.21 1075.05 510.32 1012.08 C 504.07 914.27 500.885 816.286 500.767 718.274 C 487.226 712.6 468.445 701.378 453.611 694.336 C 459.249 717.481 462.488 743.621 465.674 767.309 C 471.934 813.118 476.871 859.099 480.48 905.193 C 486.928 975.142 492.087 1045.21 495.954 1115.34 C 497.821 1145.09 500.269 1174.69 501.554 1204.46 L 484.827 1204.73 C 482.887 1190.64 482.385 1167.61 481.539 1152.61 L 475.998 1063.82 C 472.108 998.124 466.703 932.53 459.785 867.088 C 453.349 800.524 446.874 734.773 431.861 669.555 C 445.888 664.009 464.124 658.338 478.705 653.562 C 507.167 644.082 535.825 635.198 564.658 626.915 C 701.326 587.53 835.798 557.486 978.62 552.445 z" fill="rgb(0,0,0)" transform="translate(0,0)"></path>
<path d="M 974.477 569.43 C 1166.41 556.338 1405.68 616.031 1586.57 676.987 C 1571.7 686.455 1553.95 696.18 1538.5 705.62 C 1500.91 686.81 1467.08 676.914 1426.76 665.262 C 1311.75 632.15 1193.48 611.686 1074.03 604.233 C 1031.03 602.562 987.97 602.968 945.006 605.449 C 797.386 614.631 647.314 652.227 508.977 703.879 L 458.295 678.118 C 590.425 633.487 741.444 592.481 879.934 576.513 C 911.362 573.115 942.893 570.753 974.477 569.43 z" fill="rgb(254,254,254)" transform="translate(0,0)"></path>
<path d="M 1023.6 104.572 C 1047.39 124.416 1069.54 205.515 1068.89 235.084 C 1068.69 244.312 1066.65 255.271 1064.4 264.196 C 1084.15 250.2 1108.28 246.976 1130.84 255.816 C 1162.71 268.306 1187.14 309.028 1175.22 342.602 C 1170.73 355.258 1156.54 360.243 1145.27 364.347 C 1145.76 363.491 1146.23 362.629 1146.7 361.762 C 1155.58 345.124 1147.96 328.781 1131.05 321.692 C 1096.15 307.073 1056.74 353.526 1072.58 386.737 C 1086.14 415.176 1120.27 427.028 1149.99 427.004 C 1178.98 427.644 1197.74 421.552 1223.13 409.86 C 1218.3 396.991 1215.25 394.916 1211.76 379.436 C 1212.6 378.684 1213.45 377.943 1214.31 377.214 C 1231.02 362.995 1254.82 367.816 1275.62 369.422 C 1285.02 363.618 1294.49 357.931 1304.03 352.363 C 1290.86 385.19 1271.59 430.051 1269.06 465.208 C 1268.73 469.735 1270.33 485.226 1270.67 490.78 C 1271.73 507.873 1272.08 522.809 1271.13 539.976 C 1239.55 535.782 1208.57 530.303 1176.66 526.377 C 1126.62 520.45 1076.29 517.338 1025.91 517.057 C 942.904 517.63 860.092 525.12 778.331 539.448 C 778.495 522.772 784.38 481.889 782.078 468.869 C 775.364 430.889 756.606 384.386 742.361 348.678 C 752.191 356.489 762.438 362.602 772.02 371.226 C 787.554 371.044 806.59 369.262 822.343 368.178 C 826.902 374.718 828.634 377.877 831.796 385.07 C 830.004 393.177 826.899 400.084 823.759 407.735 C 850.222 424.156 889.646 430.648 920.051 424.496 C 950.96 417.802 984.431 397.461 975.959 360.647 C 970.437 336.654 945.269 312.599 919.522 320.092 C 910.072 322.926 902.22 329.551 897.835 338.389 C 893.761 346.65 896.748 356.546 899.433 364.654 C 896.923 363.48 894.458 362.211 892.045 360.85 C 883.567 356.079 872.895 347.99 871.7 337.845 C 863.63 269.339 926.478 228.44 984.4 264.821 C 983.603 261.706 982.92 258.564 982.352 255.4 C 973 205.54 995.633 145.403 1023.6 104.572 z" fill="rgb(0,0,0)" transform="translate(0,0)"></path>
<path d="M 1024.17 137.808 C 1045.11 176.43 1056.83 223.493 1046.19 266.94 C 1043.91 276.671 1037.31 285.906 1036.66 295.972 C 1035.76 302.15 1043.83 308.575 1048.47 303.478 C 1062.43 288.138 1075.62 271.58 1097.94 267.725 C 1111.49 265.438 1125.39 268.808 1136.39 277.047 C 1154.58 290.468 1159.76 307.707 1162.87 328.876 C 1153.75 316.417 1145.12 308.667 1129.63 304.544 C 1115.26 300.767 1099.97 302.872 1087.16 310.391 C 1070.83 319.889 1059.39 336.662 1054.89 354.764 C 1042.23 405.617 1083.51 430.444 1125.94 440.267 L 1125.1 442.457 C 1096.62 439.544 1069.87 438.863 1041.39 438.895 C 1035.83 429.394 1030.3 421.295 1023.02 412.963 C 1015.66 421.825 1012.25 427.822 1007.16 438.159 C 976.832 439.284 948.172 439.941 917.985 443.088 L 918.7 441.045 C 954.132 436.111 993.801 412.975 993.744 372.926 C 993.661 315.304 931.838 277.134 887.011 322.768 C 889.762 295.395 907.773 269.792 937.406 267.282 C 964.463 264.989 983.351 285.672 1000.74 302.783 C 1002.74 304.746 1004.38 304.959 1006.94 304.72 C 1010.3 302.454 1011.09 300.19 1013.18 296.529 C 1006.11 277.171 1000.05 261.373 999.088 240.479 C 997.393 203.689 1006.62 169.938 1024.17 137.808 z" fill="rgb(254,254,254)" transform="translate(0,0)"></path>
<path d="M 1018.72 318.141 C 1038.44 315.82 1035.72 326.681 1030.24 339.747 C 1031.25 353.646 1042.53 368.559 1028.46 377.016 C 1002.55 379.295 1017.02 354.483 1019.17 338.103 C 1014.3 329.901 1010.15 325.319 1018.72 318.141 z" fill="rgb(0,0,0)" transform="translate(0,0)"></path>
<path d="M 963.643 481.44 C 1042.29 477.496 1176.79 483.984 1253.16 500.929 C 1253.7 507.747 1253.57 515.383 1253.6 522.287 C 1204.33 512.639 1138.01 504.131 1088.32 502.802 C 1066.33 500.836 1042.68 501.146 1020.59 500.97 C 943.382 500.356 872.01 508.167 796.128 520.607 C 796.903 513.655 798.01 506.58 799.016 499.644 C 826.22 495.661 852.528 490.773 880.046 487.541 C 908.41 484.209 935.195 482.724 963.643 481.44 z" fill="rgb(254,254,254)" transform="translate(0,0)"></path>
<path d="M 966.746 455.439 C 986.033 454.281 1013.45 454.552 1032.85 454.748 C 1103.14 455.351 1173.29 461.046 1242.75 471.789 C 1248.11 472.604 1254.59 475.715 1252.19 482.184 C 1247.45 486.197 1234.82 482.004 1228.72 480.904 C 1219.1 479.261 1209.44 477.809 1199.76 476.547 C 1162.62 471.262 1125.24 467.946 1087.75 466.613 C 999.023 460.361 886.611 468.553 799.673 483.905 C 799.491 480.643 799.602 476.419 799.589 473.071 C 856.609 463.255 909.313 458.523 966.746 455.439 z" fill="rgb(254,254,254)" transform="translate(0,0)"></path>
<path d="M 1227.31 386.093 C 1243.78 381.336 1255.67 382.949 1271.91 387.556 C 1262.32 414.031 1255.79 431.288 1250.17 459.317 C 1227.29 452.474 1180.69 447.877 1155.3 445.1 L 1161.46 443.067 C 1173.25 441.929 1188.45 439.708 1199.09 435.618 C 1211.94 430.68 1240.94 422.943 1240.23 405.723 C 1240.01 400.457 1230.51 390.241 1227.31 386.093 z" fill="rgb(254,254,254)" transform="translate(0,0)"></path>
<path d="M 775.531 386.86 C 788.085 385.192 804.754 384.78 817.289 385.238 C 810.035 399.97 807.18 398.529 806.673 416.587 C 829.052 432.12 869.714 442.379 896.705 442.748 L 894.144 445.101 C 873.461 445.228 818.08 453.277 797.415 457.575 C 790.274 433.999 782.33 410.493 775.531 386.86 z" fill="rgb(254,254,254)" transform="translate(0,0)"></path>
<path d="M 1125.94 440.267 C 1139.63 442.209 1147.53 443.175 1161.46 443.067 L 1155.3 445.1 C 1148.59 445.127 1131.84 443.613 1125.1 442.457 L 1125.94 440.267 z" fill="rgb(157,156,161)" transform="translate(0,0)"></path>
<path d="M 896.705 442.748 C 904.043 442.261 911.375 441.693 918.7 441.045 L 917.985 443.088 C 910.054 443.937 902.105 444.608 894.144 445.101 L 896.705 442.748 z" fill="rgb(157,156,161)" transform="translate(0,0)"></path>
<path d="M 1441.46 1493.33 C 1446.27 1492.56 1451.24 1492.07 1456.09 1491.52 C 1449.52 1520.61 1431.39 1552.5 1415.41 1577.84 C 1347.14 1686.1 1244.04 1782.19 1139.91 1855.41 C 1124.37 1866.21 1108.67 1876.77 1092.81 1887.08 C 1072.07 1900.35 1037.77 1918.07 1023.96 1936.62 C 1009.77 1920.86 967.475 1897.2 948.065 1884.32 C 846.583 1816.94 755.925 1743.23 682.33 1645.32 C 659.602 1615.08 636.493 1585.49 618.796 1551.65 C 612.564 1539.73 593.154 1504.97 590.551 1492.47 C 595.957 1492 602.652 1491.99 608.195 1491.85 C 638.178 1567.28 709.905 1659.84 766.502 1717.01 C 834.388 1785.59 931.256 1858.14 1015.01 1906.2 L 1015.08 1878.2 C 1008.83 1874.16 1002.21 1870.7 995.686 1866.9 C 866.577 1791.69 745.977 1689.6 667.486 1561.16 C 653.94 1538.99 643.859 1515.82 633.521 1492.51 C 639.437 1492 645.572 1492.08 651.526 1492.05 C 665.89 1523.55 676.332 1544.88 695.449 1574.42 C 770.303 1690.05 903.863 1798.74 1023.89 1864.06 C 1038.64 1856.73 1064.98 1839.86 1079.71 1830.54 C 1191.72 1759.59 1304.61 1660.11 1371.96 1544.46 C 1380.98 1528.96 1388.28 1510.76 1395.18 1494.35 C 1402.08 1493.2 1406.24 1493.08 1413.21 1492.84 C 1405.35 1519.2 1388.58 1550.04 1373.86 1573.41 C 1313.99 1667.36 1222.12 1751.55 1131.6 1816.15 C 1099.65 1838.96 1064.71 1858.22 1031.52 1878.87 C 1030.95 1887.97 1031.16 1898.49 1031.13 1907.7 C 1042.84 1898.01 1065.07 1884.98 1078.44 1876.42 C 1100.7 1862.01 1122.63 1847.09 1144.21 1831.68 C 1249.86 1756.18 1351.4 1656.83 1416.79 1543.73 C 1426.02 1527.76 1433.76 1510.17 1441.46 1493.33 z" fill="rgb(0,0,0)" transform="translate(0,0)"></path>
<path d="M 1019.91 1516.11 C 1020.81 1516.13 1021.71 1516.15 1022.61 1516.19 C 1050.75 1517.5 1051.05 1564.13 1049.94 1584.08 C 1082.36 1555.65 1140.13 1600.93 1103.18 1634.98 C 1100.63 1637.33 1097.09 1639.28 1093.55 1639 C 1088.58 1634.08 1090.63 1618.57 1078.77 1617.97 C 1058.18 1616.93 1044.03 1664.33 1058.33 1676.37 C 1064.16 1681.27 1069.46 1670.85 1075.29 1669.24 C 1088.65 1671.66 1086.52 1690.22 1078.94 1697.94 C 1069.19 1707.85 1058.74 1708.57 1045.9 1709.34 C 1037.93 1716.81 1038.74 1724.95 1026.33 1736.2 C 1016.77 1737.94 1010.65 1722.52 1006.55 1715.47 C 1001.62 1706.99 992.842 1708.25 983.686 1706.4 C 964.665 1702.56 956.043 1682.14 972.082 1669.82 C 975.729 1666.96 981.322 1679.01 990.8 1676.87 C 1000.72 1666.45 990.857 1618.6 970.972 1618.16 C 955.766 1617.82 960.185 1633.56 953.849 1639.2 C 934.297 1639.51 926.163 1608.51 938.691 1593.1 C 954.483 1573.67 976.426 1570.83 998.453 1582.65 C 996.14 1562.78 998.534 1524.8 1019.91 1516.11 z" fill="rgb(0,0,0)" transform="translate(0,0)"></path>
<path d="M 1023.15 1537.36 C 1031.86 1540.7 1033.63 1549.08 1036.57 1556.7 C 1045.08 1578.84 1033.56 1593.45 1027.14 1613.6 C 1024.96 1620.43 1024.86 1632.13 1024.57 1639.74 C 1022.29 1634.42 1023.29 1622.31 1021 1615.61 C 1010.94 1586.21 999.055 1565.16 1023.15 1537.36 z" fill="rgb(254,254,254)" transform="translate(0,0)"></path>
<path d="M 1006.32 1646.79 C 995.051 1584.19 961.325 1613.89 949.179 1607.47 C 948.994 1604.71 949.45 1603.72 951.27 1601.46 C 960.535 1590 983.301 1590.27 993.904 1599.04 C 1006.69 1609.61 1007.16 1629.22 1008.48 1644.22 C 1009.06 1648.09 1009.23 1650.29 1009.35 1654.2 L 1008.18 1655.39 L 1007.27 1654.94 L 1006.32 1646.79 z" fill="rgb(254,254,254)" transform="translate(0,0)"></path>
<path d="M 1038.73 1645.18 C 1039.15 1641.43 1039.6 1637.68 1040.07 1633.94 C 1048.46 1569.02 1102.8 1595.27 1099.2 1608.61 C 1095.43 1609.69 1089.93 1605.91 1085.87 1605.21 C 1057.46 1600.29 1045.34 1621.26 1040.83 1645.06 L 1038.73 1645.18 z" fill="rgb(254,254,254)" transform="translate(0,0)"></path>
<path d="M 1024.68 1664.75 C 1026.74 1666.89 1029.18 1675.66 1031.43 1679.44 C 1034.37 1684.36 1036.11 1685.99 1040.09 1690.17 C 1032.68 1688.45 1029.51 1688.04 1021.9 1687.43 C 1014.24 1688.26 1010.64 1689.84 1003.55 1692.5 C 1015.05 1679.21 1015.62 1682.28 1024.68 1664.75 z" fill="rgb(254,254,254)" transform="translate(0,0)"></path>
<path d="M 1037.75 1670.96 L 1039.83 1671.67 C 1042.95 1692.27 1054.44 1689.84 1070.04 1684.72 C 1062.45 1701.13 1038.68 1694.88 1037.75 1670.96 z" fill="rgb(254,254,254)" transform="translate(0,0)"></path>
<path d="M 1010.15 1672.97 C 1011.74 1683.52 1004.55 1691.46 994.32 1692.87 C 989.942 1693.51 985.5 1692.23 982.143 1689.34 C 980.298 1687.74 980.153 1688.16 980.028 1686.43 C 992.03 1691.02 1005.13 1690.36 1008.15 1675.22 L 1010.15 1672.97 z" fill="rgb(254,254,254)" transform="translate(0,0)"></path>
<path d="M 1016.37 1701.27 C 1020.19 1701.09 1025.37 1700.24 1028.39 1702.11 C 1029.29 1705.38 1028.85 1704.56 1026.91 1708.59 C 1021.17 1710.99 1017.86 1706.05 1016.37 1701.27 z" fill="rgb(254,254,254)" transform="translate(0,0)"></path>
<path d="M 1040.83 1645.06 C 1040.04 1654.37 1039.94 1662.37 1039.83 1671.67 L 1037.75 1670.96 C 1038.48 1662.12 1037.51 1654.69 1038.73 1645.18 L 1040.83 1645.06 z" fill="rgb(157,156,161)" transform="translate(0,0)"></path>
<path d="M 1009.35 1654.2 C 1010.35 1658.93 1010.12 1667.83 1010.15 1672.97 L 1008.15 1675.22 C 1008.04 1668.31 1007.68 1661.84 1007.27 1654.94 L 1008.18 1655.39 L 1009.35 1654.2 z" fill="rgb(157,156,161)" transform="translate(0,0)"></path>
<path d="M 852.013 1131.42 C 901.669 1126.64 961.881 1140.61 1013.19 1141.13 C 1068.66 1141.7 1119.52 1133.3 1174.51 1131.04 C 1223.19 1129.04 1275.93 1144.16 1323.91 1145.03 C 1371.06 1145.88 1422.8 1136.78 1470.43 1134.19 C 1464.21 1136.84 1430.24 1142.9 1420.76 1144.45 C 1388.94 1149.66 1351.34 1157.48 1319.46 1157.71 C 1302.51 1157.83 1277.02 1154.02 1259.49 1152.07 C 1238.34 1149.74 1217.09 1148.32 1195.82 1147.82 C 1179.51 1147.66 1160.98 1147.51 1144.73 1149.03 C 1106.73 1152.58 1070.79 1157.26 1032.48 1158.22 C 980.579 1159.52 931.134 1149.2 879.956 1147.03 C 830.278 1144.93 778.749 1157.16 729.174 1157.55 C 692.964 1157.83 656.369 1151.19 620.641 1145.97 C 603.009 1143.51 585.318 1141.48 567.586 1139.9 C 608.97 1130.72 680.246 1145.34 726.136 1143.31 C 769.703 1141.38 808.904 1134.32 852.013 1131.42 z" fill="rgb(0,0,0)" transform="translate(0,0)"></path>
<path d="M 1091.1 769.455 C 1098.44 768.086 1136.53 768.922 1145.75 768.969 L 1257.28 769.087 C 1258.04 777.626 1259.61 810.344 1255.32 816.47 L 1253.5 816.498 C 1250.96 812.717 1251.34 808.488 1250.2 804.124 C 1242.96 776.53 1207.35 781.119 1185.25 780.348 C 1171.48 779.867 1156.7 780.444 1142.9 780.542 C 1141.92 821.6 1141.67 862.671 1142.13 903.738 C 1164.27 903.576 1204.85 905.939 1225.14 898.435 C 1233.74 895.252 1235.39 881.668 1238.33 872.387 C 1239.48 880.598 1240.17 934.57 1236.73 938.566 C 1234.64 936.748 1234.63 934.382 1234.08 931.518 C 1233.12 928.154 1232.03 925.5 1229.52 922.978 C 1217.98 911.364 1160.88 915.56 1142.79 915.654 C 1142.27 937.179 1138.95 1020.15 1148 1033.99 C 1152.72 1041.21 1160.34 1039.97 1167.7 1041.71 C 1170.06 1042.27 1171.38 1042.64 1172.67 1044.77 C 1172.43 1044.99 1172.23 1045.25 1171.96 1045.43 C 1168.2 1048.07 1099.41 1047.7 1091.63 1046.33 C 1089.44 1045.95 1089.55 1045.84 1088.26 1044.06 L 1088.99 1042.44 C 1094.44 1039.71 1098.32 1040.9 1103.41 1039.44 C 1113.65 1035.96 1116.36 1018.87 1116.41 1009.29 C 1116.74 939.634 1117.5 869.795 1116.03 800.147 C 1115.59 794.085 1115.28 788.281 1113.13 782.594 C 1109 771.642 1094.29 777.662 1091.1 769.455 z" fill="rgb(0,0,0)" transform="translate(0,0)"></path>
<path d="M 884.077 764.42 C 914.196 762.228 953.535 769.577 981.861 779.583 C 982.535 793.176 982.58 816.618 981.865 829.796 C 978.985 825.587 976.309 820.437 973.6 816.058 C 951.725 780.701 916.218 768.89 875.961 772.356 C 797.035 779.15 767.789 856.483 775.815 926.407 C 779.411 961.998 794.992 994.552 823.463 1017.02 C 852.795 1040.17 885.026 1044.3 921.039 1040.35 C 937.944 1037.64 948.453 1031.78 962.964 1023.04 C 970.511 1018.49 988.02 998.349 993.277 998.114 L 994.178 999.964 C 993.847 1044.14 948.072 1047.51 913.979 1050.59 C 871.253 1054.46 827.043 1046.32 793.645 1017.83 C 735.41 968.161 731.79 865.496 781.179 808.673 C 807.872 777.938 844.083 766.887 884.077 764.42 z" fill="rgb(0,0,0)" transform="translate(0,0)"></path>
<path d="M 844.135 1163.41 C 895.124 1157.69 960.084 1172.86 1012.68 1173.32 C 1084.39 1173.95 1150.27 1157.33 1221.57 1166.08 C 1251.33 1169.74 1288.93 1175.86 1318.35 1176.44 C 1363.63 1177.33 1412.19 1169.9 1457.96 1168.29 C 1447.82 1170.98 1416.76 1174.58 1405.2 1176.09 C 1380.28 1179.34 1347.02 1185.8 1322.43 1185.58 C 1276.8 1185.18 1230.82 1179.88 1184.78 1178.4 C 1132.94 1177.94 1084.33 1187.83 1032.96 1188.96 C 982.586 1190.06 932.666 1180.46 882.112 1178.78 C 832.138 1176.77 782.728 1186.46 732.906 1186.94 C 695.725 1187.3 658.513 1179.52 621.661 1175.28 C 602.077 1173.03 582.507 1172.15 562.912 1170.15 C 618.005 1162.83 666.923 1174.74 719.773 1175.05 C 754.527 1175.25 806.544 1166.27 844.135 1163.41 z" fill="rgb(0,0,0)" transform="translate(0,0)"></path>
<path d="M 606.213 1267.31 C 616.595 1267.53 625.197 1268.83 634.055 1274.88 C 643.066 1281.08 649.239 1290.61 651.213 1301.37 C 656.012 1327.05 638.449 1345.09 614.102 1349 C 551.248 1350.54 546.607 1274.7 606.213 1267.31 z" fill="rgb(0,0,0)" transform="translate(0,0)"></path>
<path d="M 604.048 1275.88 C 621.837 1273.61 638.117 1286.15 640.476 1303.92 C 642.836 1321.7 630.388 1338.04 612.622 1340.49 C 594.729 1342.96 578.243 1330.4 575.867 1312.5 C 573.49 1294.59 586.131 1278.17 604.048 1275.88 z" fill="rgb(254,254,254)" transform="translate(0,0)"></path>
<path d="M 708.019 1268.92 C 712.09 1268.74 712.627 1268.73 716.637 1269.3 C 719.132 1271.8 749.343 1339.76 751.865 1346.73 L 751.129 1347.73 C 739.099 1348.6 737.777 1338.49 733.528 1328.9 L 715.83 1328.99 L 692.283 1329.01 C 689.082 1335.11 685.924 1342.41 683.013 1348.75 L 672.316 1348.7 C 682.647 1323 696.459 1294.36 708.019 1268.92 z" fill="rgb(0,0,0)" transform="translate(0,0)"></path>
<path d="M 712.18 1281.61 C 714.828 1284.13 727.031 1314.53 729.174 1319.66 L 713.955 1319.87 L 695.889 1319.89 L 712.18 1281.61 z" fill="rgb(254,254,254)" transform="translate(0,0)"></path>
<path d="M 955.117 1267.83 C 956.56 1267.81 958.665 1267.58 960.031 1267.98 C 966.042 1269.75 994.281 1337.3 999.056 1348.46 C 984.457 1349.66 985.349 1341.48 979.732 1329.29 C 974.165 1328.58 969.479 1328.36 963.914 1328.09 L 937.044 1328.21 C 934.763 1333.06 929.268 1346.42 925.122 1348.95 C 921.989 1348.88 919.99 1349.46 918.075 1347.92 C 923.484 1331.24 946.613 1286.63 955.117 1267.83 z" fill="rgb(0,0,0)" transform="translate(0,0)"></path>
<path d="M 958.622 1282.82 C 961.242 1285.78 973.636 1314.36 976.183 1319.92 L 959.5 1319.8 L 940.991 1319.59 C 945.228 1308.16 952.813 1293.5 958.622 1282.82 z" fill="rgb(254,254,254)" transform="translate(0,0)"></path>
<path d="M 1257.68 1265.85 C 1268.19 1270.44 1305.46 1317.29 1315.24 1329.16 C 1315.25 1319.36 1314.37 1276.92 1315.64 1270.18 L 1317.62 1268.94 C 1321.02 1268.91 1322 1268.27 1324.22 1269.85 C 1325.33 1277.34 1324.84 1342.95 1323.44 1349.34 C 1314.31 1347.06 1306.08 1333.6 1300.06 1326.27 C 1288.65 1312.37 1278.3 1297.82 1266.16 1284.46 C 1266.01 1295.8 1267.51 1339.45 1265.42 1347.13 C 1262.36 1348.42 1261.88 1348.07 1258.58 1347.68 C 1256.26 1344.01 1256.64 1273.77 1257.68 1265.85 z" fill="rgb(0,0,0)" transform="translate(0,0)"></path>
<path d="M 512.128 1267.26 C 524.135 1266.78 530.992 1269.93 541.244 1275 C 540.681 1278.33 540.52 1281.65 538.647 1284.33 C 529.558 1278.87 521.323 1275.65 510.397 1276.5 C 492.551 1277.89 480.484 1297.02 483.126 1314.16 C 484.303 1321.9 488.539 1328.85 494.884 1333.44 C 505.491 1341.17 515.75 1340.65 527.74 1338.5 C 532.459 1336.27 535.478 1333.91 539.99 1335.37 L 540.766 1337.46 C 534.508 1354.16 500.574 1351.61 489.273 1341.78 C 458.325 1314.84 470.979 1274.32 512.128 1267.26 z" fill="rgb(0,0,0)" transform="translate(0,0)"></path>
<path d="M 1363.09 1268.66 C 1372.58 1268.52 1398.31 1267.46 1406.46 1269.55 C 1407.35 1272.82 1407.39 1271.23 1406.21 1274.51 C 1400.6 1278.71 1381.01 1277.09 1372.55 1276.99 L 1372.54 1301.95 C 1378.43 1301.96 1401.27 1301.3 1405.35 1302.43 C 1411.84 1317.21 1379.88 1305.62 1372.42 1311.64 L 1372.03 1315.75 L 1372.11 1339.08 C 1380.96 1339.4 1405.07 1336.82 1410.11 1343.44 C 1409.76 1346.37 1410.29 1345.09 1408.45 1347.4 C 1397.56 1348.93 1374.75 1348.03 1363.01 1347.92 L 1363.09 1268.66 z" fill="rgb(0,0,0)" transform="translate(0,0)"></path>
<path d="M 796.934 1267.29 C 807.599 1266.79 814.171 1269.77 823.111 1274.64 C 821.288 1277.81 820.268 1279.35 818.093 1282.29 C 815.342 1281.51 784.586 1263.02 785.697 1289.14 C 786.17 1300.23 825.222 1305.44 824.446 1323.28 C 823.608 1342.52 815.334 1348.21 798.606 1349.52 C 790.156 1348.98 769.646 1342.24 774.505 1331.08 C 782.021 1328.72 788.304 1344.12 800.999 1341.08 C 804.807 1340.4 810.202 1338.74 812.221 1334.92 C 821.69 1317.19 801.578 1312.94 789.478 1306.68 C 777.508 1300.48 772.06 1289.62 778.522 1276.69 C 781.466 1270.79 790.847 1268.5 796.934 1267.29 z" fill="rgb(0,0,0)" transform="translate(0,0)"></path>
<path d="M 1458.4 1268.14 C 1466.8 1267.5 1481.3 1269.11 1483.25 1279.17 L 1481.6 1280.96 C 1473.1 1282.54 1472.56 1276.65 1464.62 1275.49 C 1461.85 1274.96 1454.64 1276.85 1452.94 1279.12 C 1440.75 1295.62 1467.61 1301.82 1477.69 1308.88 C 1490.7 1317.99 1491.06 1329.42 1481.37 1341.6 C 1476.39 1347.86 1468.43 1349.36 1460.72 1349.81 C 1452.38 1348.53 1439.19 1342.92 1439.34 1332.95 C 1445.13 1325.02 1451.65 1338.53 1456.55 1340.02 C 1479.57 1347.44 1486.48 1317.28 1462.85 1311.2 C 1438.44 1304.91 1430.23 1277.24 1458.4 1268.14 z" fill="rgb(0,0,0)" transform="translate(0,0)"></path>
<path d="M 1130.69 1269.04 C 1138.96 1269.02 1171.98 1267.54 1177.09 1270.62 C 1175.95 1280.78 1148.87 1277 1140.02 1276.91 L 1140.19 1303 C 1149.9 1303.17 1162.84 1301.34 1170.88 1303.99 C 1173.42 1306.83 1172.53 1306.64 1172.6 1311.7 L 1140.61 1311.8 L 1140.58 1348.52 L 1130.6 1348.51 C 1130.87 1322.02 1130.9 1295.53 1130.69 1269.04 z" fill="rgb(0,0,0)" transform="translate(0,0)"></path>
<path d="M 845.105 1269.1 C 858.817 1269.61 895.087 1267.65 905.055 1269.29 C 906.255 1271.97 905.737 1272.73 905.149 1275.67 C 902.122 1277.79 885.203 1276.99 880.027 1277.02 L 880.568 1325.83 C 880.676 1330.44 880.749 1335.05 880.789 1339.65 C 880.808 1343.43 881.127 1346.26 878.605 1348.81 C 875.625 1348.86 872.987 1349.37 870.739 1347.7 C 869.267 1330.2 870.279 1295.88 870.24 1277.33 C 861.19 1277.07 854.423 1279.15 846.585 1276.85 C 844.154 1274.16 845.061 1274.05 845.105 1269.1 z" fill="rgb(0,0,0)" transform="translate(0,0)"></path>
<path d="M 1509.4 1269.12 C 1519.64 1269.11 1557.83 1266.43 1563.38 1272.4 C 1563.75 1275.51 1564.05 1274.07 1562.25 1276.8 C 1556.17 1278.15 1548.03 1277.8 1541.58 1277.8 C 1541.79 1294.24 1541.83 1310.67 1541.72 1327.1 C 1541.8 1331.59 1542.58 1344.13 1540.85 1347.46 C 1537.07 1348.11 1537.27 1348.11 1533.54 1347.17 C 1530.41 1342.99 1531.81 1287.96 1531.83 1277.83 C 1523.54 1277.6 1517.55 1279.64 1510.62 1276.81 C 1508.51 1273.54 1509.27 1273.88 1509.4 1269.12 z" fill="rgb(0,0,0)" transform="translate(0,0)"></path>
<path d="M 1025.71 1269.05 C 1029.14 1268.93 1031.65 1268.47 1034.7 1269.92 C 1035.76 1276.9 1035.29 1288.91 1035.32 1296.33 L 1035.96 1339.53 C 1047.42 1339.88 1060.72 1339.11 1071.91 1340.27 C 1073.72 1342.99 1073.14 1344.46 1073.35 1348.3 L 1025.44 1348.37 C 1025.26 1321.93 1025.35 1295.49 1025.71 1269.05 z" fill="rgb(0,0,0)" transform="translate(0,0)"></path>
<path d="M 1206.47 1268.8 C 1209.97 1268.74 1212.23 1268.36 1215.38 1269.86 C 1217.7 1278.9 1216.21 1335.04 1216.2 1348.07 C 1212.79 1348.14 1210.34 1348.55 1207.32 1347.06 C 1206.24 1339.99 1206.73 1326.64 1206.71 1319.03 L 1206.47 1268.8 z" fill="rgb(0,0,0)" transform="translate(0,0)"></path>
<path d="M 697.019 1387.91 C 712.243 1388.64 728.098 1391.33 718.989 1411.17 C 710.627 1415.87 706.723 1414.92 697.021 1414.86 L 697.019 1387.91 z" fill="rgb(0,0,0)" transform="translate(0,0)"></path>
<path d="M 701.87 1391.4 C 713.064 1392.21 720.09 1396.38 715.025 1408.62 C 710.284 1410.51 706.499 1412.48 702.606 1408.73 C 700.843 1403.85 701.672 1396.84 701.87 1391.4 z" fill="rgb(254,254,254)" transform="translate(0,0)"></path>
<path d="M 937.408 1387.49 C 942.83 1390.33 951.973 1401.1 956.592 1406.15 C 956.411 1399.7 956.347 1396.38 957 1389.91 L 958.789 1388.47 L 960.063 1389.35 C 961.807 1395.26 961.236 1409.34 961.227 1415.9 C 956.475 1414.24 945.717 1401.86 941.665 1397.55 C 941.726 1403.82 942.279 1409.23 939.751 1414.99 L 938.581 1413.71 C 936.196 1402.72 936.937 1398.82 937.408 1387.49 z" fill="rgb(0,0,0)" transform="translate(0,0)"></path>
<path d="M 1283.35 1387.36 C 1287.97 1389.6 1298.14 1408.82 1298.41 1414.02 L 1296.48 1414.91 C 1292.09 1413.17 1293.97 1410.19 1289.25 1408.47 C 1275.47 1408.56 1283.7 1409.63 1272.04 1413.7 L 1271.33 1412.67 C 1274.69 1404.53 1279.44 1395.37 1283.35 1387.36 z" fill="rgb(0,0,0)" transform="translate(0,0)"></path>
<path d="M 819.67 1387.44 C 824.053 1389.64 832.053 1409.09 833.603 1414.42 L 831.989 1415.09 C 826.062 1412.77 829.265 1410.03 821.775 1408.4 C 808.535 1409.05 814.401 1412.81 806.777 1414.06 C 807.578 1409.07 816.695 1393 819.67 1387.44 z" fill="rgb(0,0,0)" transform="translate(0,0)"></path>
<path d="M 1054.79 1388.15 C 1058.58 1387.96 1064.81 1388.37 1068.28 1390 C 1065.73 1399.85 1062.42 1390.77 1054.56 1392.62 C 1046.83 1398.38 1048.64 1411.28 1060.39 1411.95 C 1063.91 1410.42 1062.67 1411.61 1064.47 1408.52 C 1064.13 1404.64 1063.85 1405.47 1060.98 1401.78 C 1063.44 1400.76 1063.93 1400.83 1066.61 1400.46 C 1069.34 1402 1071.9 1406.29 1070.52 1408.85 C 1058.97 1430.31 1029.77 1401.88 1054.79 1388.15 z" fill="rgb(0,0,0)" transform="translate(0,0)"></path>
<path d="M 994.496 1387.03 C 999.162 1387.75 999.365 1387.87 1003.59 1390.13 L 1003.61 1391.17 C 996.291 1392.42 987.687 1392.58 984.702 1400.21 C 985.23 1408.79 994.459 1414.33 1001.37 1409.66 L 1000.65 1407.63 C 998.709 1406.07 997.73 1405.49 996.278 1403.46 L 997.492 1401.19 C 1000.85 1400.96 1001.73 1400.66 1004.88 1401.98 C 1013.92 1413.66 985.572 1422.31 982.176 1408.93 C 979.051 1396.62 982.907 1390.93 994.496 1387.03 z" fill="rgb(0,0,0)" transform="translate(0,0)"></path>
<path d="M 1091.47 1387.21 C 1098.95 1391.15 1092.59 1398.3 1096.37 1408.48 C 1110.65 1421.96 1107.57 1392.32 1110.66 1388.26 L 1112.55 1388.83 L 1113.04 1391.75 C 1113.28 1398.98 1114.5 1406.01 1109.67 1412.05 C 1101.93 1421.74 1092.03 1413.22 1090.79 1403.72 C 1090.12 1398.58 1090.85 1392.32 1091.47 1387.21 z" fill="rgb(0,0,0)" transform="translate(0,0)"></path>
<path d="M 1323.92 1387 C 1328.24 1387.17 1331.98 1386.82 1334.02 1391.03 C 1330.81 1394.44 1324.88 1388.71 1321.57 1394.26 C 1324.11 1398.98 1331.26 1401.28 1336.15 1407.07 C 1337.46 1413.98 1331.12 1414.7 1325.67 1415.73 C 1321.61 1415.11 1318.7 1414.3 1315.55 1411.66 L 1315.53 1409.92 C 1318.81 1408.68 1322.86 1410.71 1328.06 1411.27 C 1330.8 1410.14 1329.92 1411.12 1331.08 1408.6 C 1327.1 1401.73 1314.6 1402.4 1316.77 1392.56 C 1319.56 1388.96 1319.69 1388.89 1323.92 1387 z" fill="rgb(0,0,0)" transform="translate(0,0)"></path>
<path d="M 738.902 1388.51 L 743.357 1388.57 C 748.773 1388.66 751.274 1387.67 754.243 1390.73 L 754.953 1390.5 L 753.918 1389.03 L 756.418 1389.75 C 752.653 1392.02 744.793 1391.87 742.99 1396.43 C 744.977 1398.99 750.285 1400.32 753.949 1402.34 C 750.082 1403.85 746.967 1403.59 742.815 1403.7 C 744.872 1418.72 749.692 1407.25 757.859 1412.53 L 757.73 1414.39 C 754.664 1415.54 742.908 1415.04 738.841 1415.01 L 738.902 1388.51 z" fill="rgb(0,0,0)" transform="translate(0,0)"></path>
<path d="M 1237 1388.22 C 1243.3 1387.58 1244.93 1387.37 1250.44 1390.43 C 1249.14 1393.65 1233.97 1390.07 1230.28 1400.74 C 1231.38 1409.03 1237.15 1412.5 1245.08 1411.17 C 1247.75 1410.65 1248.83 1410.17 1251.45 1410.77 L 1252.11 1412.07 C 1237.03 1425.42 1211.69 1402.76 1237 1388.22 z" fill="rgb(0,0,0)" transform="translate(0,0)"></path>
<path d="M 1168.81 1388.52 C 1172.8 1388.4 1181.62 1388.13 1185.18 1389.62 C 1180.21 1391.33 1172.85 1392.47 1172.68 1398.2 C 1176.21 1401.72 1179.76 1397.47 1184.82 1402.59 C 1180.29 1403.66 1176.54 1402.28 1173.31 1404.17 C 1173.01 1408.69 1172.93 1410.53 1171.93 1414.88 L 1170.51 1415.6 L 1168.64 1413.93 C 1168.01 1408.27 1167.8 1393.99 1168.81 1388.52 z" fill="rgb(0,0,0)" transform="translate(0,0)"></path>
<path d="M 771.3 1388.42 C 776.148 1388.24 792.432 1387.1 795.164 1390.16 C 792.968 1391.85 789.55 1392.2 786.61 1392.85 C 785.247 1395.95 785.884 1404.4 785.959 1408.25 C 786.098 1411.36 786.435 1413.43 784.226 1415.57 L 781.678 1414.71 C 779.706 1409.53 782.849 1397.46 780.421 1392.35 C 777.764 1392.06 775.105 1391.8 772.443 1391.56 L 771.3 1388.42 z" fill="rgb(0,0,0)" transform="translate(0,0)"></path>
<path d="M 1351.09 1388.48 C 1356.33 1388.05 1371.11 1387.03 1374.55 1390.38 L 1373.47 1391.75 C 1370.31 1391.81 1369.81 1391.72 1366.65 1392.48 C 1365.52 1395.5 1365.96 1403.61 1365.99 1407.25 C 1365.98 1409.53 1365.82 1411.64 1365.68 1413.91 L 1363.84 1415.08 L 1362.49 1414.19 C 1360.64 1407.78 1363.21 1395.31 1360.01 1392.13 C 1356.66 1392.24 1355.78 1392.44 1352.51 1391.39 L 1351.09 1388.48 z" fill="rgb(0,0,0)" transform="translate(0,0)"></path>
<path d="M 877.911 1387.3 L 880.747 1388.73 C 882.454 1393.4 881.792 1405.53 881.695 1411.04 C 887.87 1410.84 892.76 1409.03 895.624 1414.78 C 889.762 1415.58 883.027 1415.35 877.042 1415.35 C 877.063 1408.01 876.602 1393.99 877.911 1387.3 z" fill="rgb(0,0,0)" transform="translate(0,0)"></path>
<path d="M 1134.94 1387.46 C 1139.97 1390.04 1138.2 1405.3 1138.11 1411.14 C 1143.82 1410.93 1149.16 1409.18 1151.52 1414.7 C 1146.48 1415.24 1139.11 1415.07 1133.88 1415.1 C 1133.81 1407.99 1133.23 1393.78 1134.94 1387.46 z" fill="rgb(0,0,0)" transform="translate(0,0)"></path>
<path d="M 912.574 1388.24 L 915.549 1388.95 C 918.354 1393 916.963 1411.31 916.345 1416.79 L 913.671 1415.78 C 910.602 1411.61 912.264 1394.32 912.574 1388.24 z" fill="rgb(0,0,0)" transform="translate(0,0)"></path>
<path d="M 852.516 1388.21 C 854.613 1388.86 853.937 1388.57 855.753 1389.81 C 857.364 1395.99 856.695 1409.2 856.544 1415.86 C 855.042 1415.56 853.333 1415.59 852.894 1414.6 C 850.483 1409.11 851.921 1393.92 852.516 1388.21 z" fill="rgb(0,0,0)" transform="translate(0,0)"></path>
<metadata><recraft-signature>{"signed_by": "recraft", "signature_b64": "gcUZfDrbhGClg1uB88DpMk2t1MekyjJvFh7xm984xrUOKNxqzfKSxNZpG1pJK34e5+UEvQTWebMKKs8cd0B+Bg==", "signing_algo": "Ed25519", "generation_timestamp": 1778255485, "identifier": "59043854-bf3c-4bee-ab7b-97ad485bcd23"}</recraft-signature></metadata></svg>