<svg xmlns="http://www.w3.org/2000/svg" height="1024" preserveAspectRatio="none" style="display: block;" version="1.1" viewBox="0 0 2048 2048" width="1024">
<path d="M 0 0 L 2048 0 L 2048 2048 L 0 2048 L 0 0 z" fill="rgb(254,254,254)" transform="translate(0,0)"></path>
<path d="M 1964.31 497.994 C 1842.8 450.376 1689.98 419.49 1559.96 404.271 C 1535.24 401.412 1510.47 399.087 1485.66 397.298 C 1471.09 396.293 1370.53 392.73 1366.4 389.586 C 1363.59 387.447 1362.09 384.844 1361.75 381.329 C 1361.42 377.97 1363.06 373.896 1365.57 371.655 C 1372.15 365.774 1392.18 369.283 1400.59 369.838 C 1574.96 377.012 1746.4 400.653 1912.87 454.885 C 1932.22 461.189 1974.05 475.225 1990.3 484.751 C 1986.7 506.514 1984.34 548.984 1982.33 572.071 L 1967.14 751.907 L 1910.6 1435.88 L 1892.75 1642.5 C 1889.11 1688.74 1886.1 1735.05 1882.29 1781.28 C 1881.24 1794.08 1878.31 1798.91 1864.95 1800.27 C 1840.12 1802.78 1815.18 1804.22 1790.31 1806.36 L 1649.52 1819.37 C 1577.45 1825.85 1505.44 1832.93 1433.49 1840.61 L 1202 1862.38 L 1084.76 1874.2 C 1066 1876.23 1034.28 1881.48 1016.6 1881 C 976.459 1879.92 931.315 1874.51 891.236 1870.91 L 682.698 1852.82 C 566.913 1842.72 451.186 1831.97 335.521 1820.57 C 266.923 1814.22 194.514 1808.44 126.279 1800.63 C 123.59 1775.09 122.705 1740.42 121.177 1713.94 C 117.157 1644.5 113.562 1575.04 110.395 1505.56 L 80.8004 994.482 L 60.7055 627.835 L 55.5783 532.156 C 54.5339 513.76 52.1625 489.443 53.4871 471.828 C 59.7555 465.814 97.4374 454.499 107.795 451.236 C 282.103 396.328 455.726 379.657 636.606 369.431 C 644.385 368.795 654.866 368.842 662.862 368.64 C 663.293 376.214 663.959 383.408 663.032 390.959 C 625.845 390.86 571.338 394.946 534.185 397.877 C 435.742 405.005 337.895 418.798 241.318 439.161 C 187.936 450.576 127.83 466.037 76.768 485.748 C 77.0332 517.412 79.485 550.603 81.1496 582.367 L 88.3158 720.225 L 111.743 1134.33 L 137.965 1605.32 L 145.41 1733.61 C 146.342 1748.65 146.513 1766.31 148.113 1780.77 C 158.561 1782.45 173.716 1783.36 184.496 1784.29 L 250.943 1790.08 L 516.875 1814.39 L 859.641 1844.89 L 972.673 1854.05 C 983.015 1854.87 1010.24 1859.1 1018.41 1858.09 C 1044.63 1854.87 1074.13 1851.96 1100.32 1849.26 L 1287.19 1830.77 L 1680.51 1792.86 C 1739.62 1787.01 1799.76 1783.08 1858.62 1775.69 C 1858.85 1761.5 1861.23 1742.72 1862.45 1727.97 L 1871.63 1620.41 C 1881.3 1499.83 1891.62 1379.3 1902.57 1258.82 L 1964.31 497.994 z" fill="rgb(19,19,19)" transform="translate(0,0)"></path>
<path d="M 997.703 124.589 C 1018.92 122.305 1049.87 126.347 1069.97 132.201 C 1116.19 145.663 1159.41 174.403 1182.3 217.706 C 1198.14 247.667 1203.74 282.887 1193.47 315.716 C 1186.81 338.258 1171.82 357.83 1150.95 369.454 C 1126.66 382.978 1089.53 375.622 1076.23 349.602 C 1074.53 346.276 1072.4 341.074 1073.59 337.481 C 1079.04 337.997 1093.1 356.757 1110.44 357.151 C 1154.52 358.152 1179.36 318.028 1176.86 277.625 C 1174.97 247.085 1163.12 222.106 1141.93 200.143 C 1112.52 169.81 1072.25 152.408 1030 151.766 C 977.579 151.031 933.522 169.195 896.353 205.774 C 851.977 249.447 829.758 316.222 830.251 377.704 C 830.72 436.195 844.997 497.803 887.605 540.393 C 926.858 579.63 975.456 597.783 1028.58 608.269 C 1076.53 617.733 1125.43 616.428 1174 617.004 L 1309.83 619.14 C 1480.26 622.189 1650.72 624.1 1821.18 624.871 L 1822.86 626.027 C 1829.6 630.61 1833.01 638.93 1826.93 644.652 C 1819.77 651.394 1793.57 648.786 1784.6 648.643 L 1738.6 648.135 C 1687.82 647.276 1637.03 646.859 1586.25 646.885 C 1133.43 640.903 680.584 637.208 227.728 635.799 C 218.031 635.683 201.901 633.587 212.052 616.846 C 213.525 614.416 220.345 613.353 223.349 613.308 C 244.752 612.985 266.26 613.869 287.688 614.346 C 316.878 614.82 346.071 615.054 375.265 615.048 L 714.823 617.105 L 848.946 618.512 C 875.903 618.75 905.202 619.344 932.083 618.446 C 900.062 604.532 875 593.258 847.859 570.149 C 803.656 531.834 777.345 473.393 772.64 415.597 C 760.524 266.757 840.916 137.872 997.703 124.589 z" fill="rgb(19,19,19)" transform="translate(0,0)"></path>
<path d="M 571.624 755.52 C 571.755 755.504 571.886 755.489 572.017 755.473 C 691.569 753.558 733.945 894.65 642.128 965.431 C 616.651 985.071 591.724 987.746 562.715 989.93 C 530.37 990.466 497.252 983.421 472.539 960.73 C 427.216 919.149 431.252 838.902 471.999 795.741 C 498.897 767.251 533.624 756.906 571.624 755.52 z" fill="rgb(19,19,19)" transform="translate(0,0)"></path>
<path d="M 565.484 788.449 C 583.651 786.817 604.893 794.788 618.584 806.595 C 654.221 837.328 654.799 900.164 624.102 934.499 C 608.407 952.054 590.244 958.09 567.318 959.631 C 545.412 958.796 528.432 954.634 511.525 939.897 C 476.485 909.356 476.987 846.576 507.606 813.161 C 524.779 794.42 541.062 789.734 565.484 788.449 z" fill="rgb(254,254,254)" transform="translate(0,0)"></path>
<path d="M 244.027 1528.99 C 295.767 1528.08 353.139 1530.37 405.35 1530.81 L 768.363 1532.97 C 1006.62 1533.2 1244.87 1534.76 1483.1 1537.64 C 1568.99 1538.67 1655.01 1538.89 1740.91 1539.88 C 1757.54 1540.07 1765.51 1547.89 1752.27 1561.9 C 1743.95 1564.43 1673.32 1561.92 1660.6 1561.76 L 1506.62 1560.46 L 526.708 1553.26 L 337.156 1551.92 L 283.41 1551.71 C 274.89 1551.72 243.376 1554.44 237.558 1545.36 C 233.68 1539.3 238.649 1532.95 244.027 1528.99 z" fill="rgb(19,19,19)" transform="translate(0,0)"></path>
<path d="M 840.294 748.403 C 844.662 751.707 858.492 786.172 861.689 793.349 L 909.029 897.174 C 919.736 921.123 931.575 949.478 944.497 972.202 C 947.403 977.312 955.16 981.677 960.286 984.635 C 951.946 985.284 937.854 984.817 928.992 984.803 C 911.862 984.826 894.731 984.952 877.602 985.181 C 881.784 982.606 891.377 977.316 891.838 972.578 C 892.887 961.793 878.448 933.58 873.874 923.55 C 861.155 922.776 848.98 922.967 836.25 923.053 C 822.219 923.104 810.239 923.324 796.262 924.244 C 791.571 936.941 778.819 958.927 778.202 972.031 C 777.994 976.459 788.277 982.626 792.131 985.144 C 783.03 985.453 721.603 985.699 718.066 983.257 C 719.87 979.022 727.501 975.217 730.436 970.107 C 758.72 920.924 780.949 867.9 806.684 817.252 C 818.097 794.79 828.038 770.296 840.294 748.403 z" fill="rgb(19,19,19)" transform="translate(0,0)"></path>
<path d="M 836.194 831.62 C 840.487 836.776 860.152 887.998 863.152 896.815 C 853.727 897.626 844.404 897.36 834.971 897.971 C 826.564 897.787 815.137 896.896 807.138 898.387 C 814.98 876.833 826.02 852.235 836.194 831.62 z" fill="rgb(254,254,254)" transform="translate(0,0)"></path>
<path d="M 781.874 1082.05 C 787.308 1083.79 921.674 1208.86 934.98 1222.83 L 935.938 1160.76 C 936.238 1142.62 937.614 1115.77 933.584 1098.81 C 927.91 1092.75 924.857 1091.14 917.846 1086.57 C 926.066 1086.01 939.544 1086.62 948.26 1086.76 C 962.136 1086.99 978.354 1086.52 991.965 1087.94 C 982.088 1093.82 976.588 1096.33 975.647 1109.3 C 974.259 1128.42 974.383 1147.79 973.95 1166.99 C 972.956 1211.12 972.417 1255.25 972.331 1299.39 C 964.205 1294.04 941.48 1271.33 932.872 1263.89 C 894.428 1230.68 857.499 1193.46 819.71 1159.79 C 819.137 1180.4 816.226 1264.3 822.041 1279.08 C 824.581 1285.54 832.292 1285.98 834.662 1291.44 C 830.864 1293.84 772.355 1293.21 766.047 1291.62 C 768.229 1286.5 776.155 1286.34 777.648 1278.51 C 781.496 1258.3 780.964 1233.99 781.278 1213.51 C 781.755 1181.33 782.024 1149.16 782.085 1116.98 C 782.028 1107.42 781.131 1094.51 780.544 1084.58 C 780.987 1083.74 781.43 1082.89 781.874 1082.05 z" fill="rgb(19,19,19)" transform="translate(0,0)"></path>
<path d="M 1506.65 754.579 C 1509.6 757.075 1519.02 780.924 1521.22 786.009 C 1535.5 818.252 1549.56 850.591 1563.4 883.022 C 1575.53 912.113 1597.68 972.223 1614.53 995.056 C 1591.17 994.902 1570.2 992.25 1546.49 993.782 C 1550.02 986.657 1552.05 982.372 1554.68 974.927 C 1553.15 967.299 1543.81 942.379 1538.86 936.223 C 1536.94 933.837 1509.21 934.257 1502.68 934.074 L 1465.42 932.964 C 1459.88 942.036 1451.77 960.921 1448.1 971.031 C 1449.9 978.237 1452.77 984.611 1456.26 991.12 L 1387.26 989.357 C 1407.33 970.217 1425.83 924.144 1438.36 898.3 C 1461.6 850.619 1484.36 802.71 1506.65 754.579 z" fill="rgb(19,19,19)" transform="translate(0,0)"></path>
<path d="M 1504.35 839.668 C 1508.75 844.165 1526.75 896.184 1531.22 906.737 C 1521.25 906.68 1512.95 907.065 1502.77 906.497 C 1496.56 906.986 1482.58 905.477 1476.17 904.724 C 1486.44 884.366 1493.05 861.253 1504.35 839.668 z" fill="rgb(254,254,254)" transform="translate(0,0)"></path>
<path d="M 333.099 759.437 C 346.711 758.774 360.911 759.596 374.466 760.278 C 391.15 761.117 386.709 775.895 384.829 786.871 C 383.531 794.448 382.155 801.992 380.808 809.507 C 366.308 799.652 358.839 794.461 340.225 793.61 C 313.476 792.301 289.351 797.344 269.015 815.825 C 242.746 839.076 235.196 883.332 244.745 916.327 C 262.791 978.689 346.716 974.041 385.483 937.387 L 383.629 952.762 C 382.437 957.504 383.072 975.061 378.379 978.326 C 357.911 990.61 328.087 996.255 304.656 998.728 C 192.388 1010.57 162.561 878.01 226.216 805.459 C 253.984 773.81 291.327 761.539 333.099 759.437 z" fill="rgb(19,19,19)" transform="translate(0,0)"></path>
<path d="M 1075.56 755.399 C 1093.22 752.099 1126.04 758.967 1143.7 763.015 C 1145.29 774.154 1144.33 805.875 1142.87 817.221 C 1128.56 793.913 1114.97 787.941 1087.57 787.379 C 1069.97 787.018 1046.92 797.317 1048.95 818.099 C 1051.55 844.638 1084.86 852.742 1104.41 863.989 C 1115.65 869.653 1125.06 875.971 1134.91 883.826 C 1159.67 903.576 1161.63 939.859 1140.51 963.333 C 1119.57 986.608 1096.83 989.305 1066.81 991.013 C 1044.06 990.325 1022.05 985.003 1000.1 979.436 C 1000.05 971.676 998.898 931.543 1001.44 927.449 C 1005.33 930.666 1006.31 935.81 1010.15 939.311 C 1026.44 953.962 1047.54 959.296 1068.98 958.927 C 1088.92 958.584 1110.88 947.225 1109.06 924.529 C 1106.3 900.575 1071.73 891.636 1053.59 882.925 C 1028.64 871.539 1007.62 855.76 1005.21 825.947 C 1001.41 778.848 1035.16 759.623 1075.56 755.399 z" fill="rgb(19,19,19)" transform="translate(0,0)"></path>
<path d="M 1032.41 1087.16 C 1038.24 1086.15 1074.45 1087.63 1082.04 1087.71 C 1110.14 1088.01 1139.08 1088.98 1167.17 1088.22 C 1166.69 1102.56 1167.52 1116.62 1165.79 1130.85 C 1162.12 1127.41 1156.76 1121.7 1152.12 1120.87 C 1140.14 1118.73 1099.69 1115.44 1090.5 1120.76 C 1087.08 1127.01 1088.31 1165.94 1088.7 1175.34 C 1102.58 1175.23 1117.61 1176.06 1131.32 1175.23 C 1141.57 1174.61 1145.75 1171.6 1151.8 1164.21 C 1152.11 1171.82 1153.14 1205.9 1149.93 1210.78 C 1145.7 1210.13 1140.44 1203.57 1136.82 1203.19 C 1122.18 1201.65 1101.66 1202.62 1087.05 1202.78 C 1086.69 1218.28 1087.31 1235.63 1086.14 1250.92 C 1086.62 1252.92 1086.46 1263.3 1086.62 1266.69 C 1102.01 1268.58 1140.12 1270.67 1156.18 1266.43 C 1160.24 1265.36 1172.2 1253.53 1176.31 1251.22 C 1178.86 1257.78 1172.71 1287.9 1171.26 1296.34 C 1127.38 1293.18 1069.28 1296.32 1023.87 1295 C 1027.61 1292.76 1031.7 1291.12 1035.32 1288.69 C 1041.57 1284.51 1043.03 1277.86 1044.24 1270.89 C 1048.17 1248.33 1051.47 1120.29 1045.88 1101.68 C 1043.58 1094.03 1036.66 1094 1033.14 1088.42 C 1032.88 1088.01 1032.65 1087.58 1032.41 1087.16 z" fill="rgb(19,19,19)" transform="translate(0,0)"></path>
<path d="M 1301.77 1088.4 C 1310.7 1086.18 1352.86 1091.71 1362.66 1094.49 C 1365.23 1099.13 1360.96 1139.35 1359.71 1146.53 C 1353.58 1129.82 1345.94 1124.34 1328.51 1120.52 C 1310.98 1116.67 1274.21 1116.03 1276.58 1142.37 C 1277.73 1155.13 1302.05 1166.05 1311.65 1171.8 C 1326.83 1180.45 1340.34 1187.43 1353.77 1198.85 C 1387.07 1227.16 1375.59 1276.74 1337.34 1293.07 C 1321.18 1300 1309.45 1301.05 1291.92 1301.37 C 1270.69 1300.95 1249.84 1295.69 1230.95 1285.99 C 1230.61 1269.88 1232.71 1252.19 1233.6 1235.74 C 1237.26 1243.02 1238.81 1249.89 1246.24 1255.44 C 1266.99 1270.93 1307.94 1279.86 1327.86 1258.89 C 1336.84 1247.8 1333.94 1233.59 1323.67 1224.44 C 1297.82 1201.41 1240.55 1189.86 1237.09 1148.9 C 1233.66 1108.29 1266.96 1091.63 1301.77 1088.4 z" fill="rgb(19,19,19)" transform="translate(0,0)"></path>
<path d="M 1207.84 759.699 C 1220.23 761.524 1262.88 761.478 1277.99 761.482 C 1314.83 761.492 1354.54 763.662 1391.02 763.044 C 1391.53 776.897 1390.91 794.468 1390.83 808.661 C 1389.75 807.471 1388.64 806.304 1387.51 805.162 C 1372.52 790.21 1343.12 794.723 1321.33 794.941 C 1321.24 846.841 1319.9 898.248 1320.05 950.25 C 1319.99 969.676 1321.56 973.624 1333.12 988.745 C 1309.23 988.86 1283.95 986.859 1260.45 987.576 C 1262.08 985.548 1263.68 983.508 1265.28 981.456 C 1268.77 976.935 1274.14 969.265 1274.68 963.567 C 1277.53 933.878 1276.67 902.934 1277.15 873.219 L 1278.01 824.973 C 1278.26 814.81 1279.36 803.82 1278.08 793.849 C 1266.57 792.536 1240.55 792.368 1228.95 794.529 C 1217.36 796.685 1212.51 803.789 1206.77 812.746 C 1206.78 800.209 1206.06 770.893 1207.84 759.699 z" fill="rgb(19,19,19)" transform="translate(0,0)"></path>
<path d="M 1674.68 766.89 C 1691.14 769.764 1725.07 771.576 1743.03 773.306 C 1739.57 778.829 1730.46 792.555 1729.63 798.161 C 1727.11 815.351 1727.42 836.452 1726.75 854.006 C 1725.4 889.23 1723.35 924.611 1722.7 959.726 C 1724.91 962.71 1727.42 965.446 1729.88 968.237 C 1740.1 972.317 1772.75 974.506 1785.06 975.603 C 1797.96 976.752 1807.17 973.982 1816.68 965.239 C 1815.57 975.55 1813.35 987.577 1811.71 997.944 C 1810.99 1002.47 1810.36 1006.51 1807.22 1009.83 C 1804.9 1011.13 1802.98 1011.32 1800.35 1011.11 C 1755.58 1007.5 1710.35 1001.37 1665.54 999.016 C 1670 991.878 1677.81 982.727 1678.92 974.364 C 1680.66 961.202 1681 946.86 1681.61 933.535 C 1682.92 904.49 1683.96 875.433 1684.73 846.369 C 1685.17 830.158 1686.11 812.603 1685.63 796.391 C 1685.36 787.117 1676.17 776.886 1674.68 766.89 z" fill="rgb(19,19,19)" transform="translate(0,0)"></path>
<path d="M 592.57 1087.54 C 596.015 1087.66 596.715 1087.7 600.071 1088.38 C 601.222 1090.32 598.002 1125.02 597.612 1129.89 C 593.814 1126.35 590.629 1122.73 587.149 1118.9 C 571.743 1116.81 531.638 1115.61 516.566 1116.87 C 515.957 1135.62 515.757 1154.63 515.398 1173.4 C 529.762 1173.93 561.966 1173.78 576.213 1172.01 C 579.176 1169.44 583.58 1164.45 586.395 1161.45 C 586.076 1169.29 585.713 1205.43 583.296 1209.72 C 581.391 1208.76 569.329 1202.6 568.08 1202.38 C 553.858 1199.86 529.265 1200.61 515.04 1201.7 C 515.177 1222.74 511.528 1252.05 515.374 1271.76 C 518.939 1282.9 521.916 1283.31 531.437 1287.61 L 531.967 1289.82 L 530.753 1291.43 C 524.576 1292.42 510.871 1291.75 503.967 1291.66 C 487.776 1291.45 470.494 1292.26 454.45 1291.08 C 463.76 1283.96 470.982 1279.68 472.208 1267.17 C 473.244 1256.61 473.347 1246.46 473.618 1235.86 C 474.096 1216.77 474.404 1197.68 474.544 1178.59 C 474.771 1155.89 475.903 1130.88 473.946 1108.44 C 472.994 1097.53 466.137 1094.42 457.686 1088.02 C 499.688 1087.65 551.839 1090.17 592.57 1087.54 z" fill="rgb(19,19,19)" transform="translate(0,0)"></path>
<path d="M 1411.05 1090.69 C 1440.78 1094.89 1467.64 1094.44 1497.53 1095.1 C 1523.92 1095.68 1547.84 1096.46 1574.29 1094.67 C 1572.04 1108.03 1572.46 1129.35 1570.55 1144.62 C 1557.41 1121.24 1533.29 1123.22 1509.6 1124.76 C 1508.99 1173.98 1507.69 1226.03 1506.17 1275.16 C 1507.51 1295.34 1509.54 1295.65 1528.72 1301.16 C 1516.69 1302.16 1501.94 1301.13 1489.5 1301.02 C 1474.68 1300.9 1458.91 1301.4 1444.27 1300.34 C 1457.03 1295.6 1466.13 1295.54 1466.68 1278.53 C 1468.32 1227.48 1471.37 1174.52 1471.51 1123.5 C 1442.92 1122.07 1427.16 1115.98 1410.77 1143.06 C 1411.11 1128.22 1412.82 1104.74 1411.05 1090.69 z" fill="rgb(19,19,19)" transform="translate(0,0)"></path>
<path d="M 655.765 1087.39 L 663.788 1087.25 C 671.462 1087.15 719.574 1086.13 722.39 1088.87 C 719.839 1094.45 713.086 1091.15 710.263 1106.19 C 705.745 1130.27 707.339 1153.96 706.599 1178.24 C 705.674 1208.61 704.846 1238.97 706.306 1269.34 C 706.597 1275.42 709.82 1281.08 712.825 1286.19 C 716.867 1287.4 717.787 1287.54 721.305 1289.71 L 721.667 1291.83 C 713.868 1292.97 655.338 1292.38 646.652 1291.33 C 650.884 1288.54 656.461 1285.44 661.001 1282.58 C 668.334 1264.34 665.897 1208.41 666.579 1186.27 C 667.237 1164.9 669.137 1114.23 662.363 1095.96 C 659.273 1093.93 657.333 1093 655.168 1089.97 L 655.765 1087.39 z" fill="rgb(19,19,19)" transform="translate(0,0)"></path>
<path d="M 1020.2 1607.43 C 1043.6 1608.2 1058.61 1620.63 1069.63 1640.23 C 1013.8 1634.85 1037.47 1685.01 979.209 1678.66 C 1012.18 1691.33 1025.92 1682.2 1044.72 1656.19 C 1050.97 1647.54 1062.51 1646.54 1072.55 1646.18 C 1076.08 1687.17 1051.34 1720.1 1007.45 1715.11 C 985.49 1709.65 971.914 1696.92 965.779 1675.05 C 1007.41 1688.28 1003.71 1650.56 1025.05 1631.13 C 1030.97 1625.74 1043.44 1622.03 1051.54 1623.67 L 1050.93 1622.56 C 1003.26 1615.39 1007.67 1656.14 975.398 1671.36 C 972.548 1672.7 970.039 1672.39 967.239 1671.02 C 964.987 1668.59 964.029 1666.26 964.079 1662.93 C 964.572 1630.14 988.778 1608.81 1020.2 1607.43 z" fill="rgb(19,19,19)" transform="translate(0,0)"></path>
<path d="M 557.324 1374.9 C 587.94 1373.6 632.391 1370.83 629.925 1415.39 C 629.257 1427.45 624.965 1434.03 616.077 1441.82 C 605.401 1449.32 592.294 1451.19 579.477 1451.54 C 573.625 1451.7 563.373 1453.5 558.61 1450.26 C 559.345 1448.82 561.941 1443.92 561.94 1442.33 C 561.926 1422.58 564.05 1401.44 562.19 1381.93 C 562.011 1380.06 558.526 1376.25 557.324 1374.9 z" fill="rgb(19,19,19)" transform="translate(0,0)"></path>
<path d="M 576.036 1384.93 C 594.242 1384.05 612.597 1387.79 615.888 1410.66 C 617.045 1418.7 612.493 1426.09 607.306 1432.08 C 595.71 1441.27 589.782 1441.31 575.949 1440.88 C 575.651 1422.23 575.68 1403.58 576.036 1384.93 z" fill="rgb(254,254,254)" transform="translate(0,0)"></path>
<path d="M 1614.34 1196.29 C 1642.73 1195.89 1673.98 1197.87 1702.7 1197.81 C 1723.82 1198.54 1745.23 1198 1766.29 1199.48 C 1783.56 1200.69 1778.73 1213.19 1769.22 1220.89 C 1754.83 1221.68 1619.19 1220.23 1613.4 1218.41 C 1611.04 1217.67 1608.85 1215.22 1607.75 1213.05 C 1606.23 1210.07 1605.98 1206.6 1607.06 1203.43 C 1608.51 1199.12 1610.65 1198.13 1614.34 1196.29 z" fill="rgb(19,19,19)" transform="translate(0,0)"></path>
<path d="M 243.55 1185.32 C 248.449 1185.13 253.196 1185.26 258.092 1185.42 C 301.584 1186.88 345.105 1186.65 388.609 1187.07 C 396.023 1187.14 407.947 1187.89 406.63 1198.36 C 405.927 1203.95 403.128 1205.81 398.897 1208.86 C 377.301 1209.5 351.014 1208.01 328.763 1207.9 C 309.791 1207.87 290.82 1207.73 271.849 1207.46 C 263.473 1207.34 239.778 1209.53 236.012 1200.88 C 232.912 1193.76 236.728 1188.3 243.55 1185.32 z" fill="rgb(19,19,19)" transform="translate(0,0)"></path>
<path d="M 1276.88 1380.75 C 1282.09 1380.62 1296.16 1379.82 1300.43 1381.49 L 1298.3 1384.61 C 1299.67 1389.95 1329.11 1422.29 1335.11 1429.4 C 1335.35 1417.44 1335.4 1405.48 1335.26 1393.52 C 1335.11 1385.89 1335.64 1386.68 1331.31 1382.53 L 1332.54 1381.32 C 1336.06 1381.19 1349.65 1380.28 1351.69 1382.07 C 1346.72 1395.3 1351.85 1433.75 1349.28 1449.85 C 1348.65 1453.77 1352.07 1454.9 1351.81 1458.86 L 1346.25 1459.01 C 1342.13 1459.06 1340.67 1459.01 1336.61 1458.46 C 1335.57 1457.18 1335.76 1457.59 1335.18 1456.35 C 1326.92 1438.75 1306.59 1418.06 1293.91 1402.78 C 1295.9 1421.92 1290.36 1445.71 1298.6 1458.98 C 1294.13 1458.8 1279.33 1459.36 1276.23 1458.18 C 1277.42 1456.09 1278.68 1454.3 1280.03 1452.33 C 1281.26 1433.19 1282.14 1406.84 1280.68 1387.43 C 1280.55 1385.65 1278.03 1382.29 1276.88 1380.75 z" fill="rgb(19,19,19)" transform="translate(0,0)"></path>
<path d="M 927.052 1375.16 C 928.462 1376.87 932.421 1388.21 933.697 1390.96 C 942.389 1409.75 951.098 1440.8 964.895 1455.19 C 958.76 1455.52 945.315 1457.93 942.056 1453.1 C 941.924 1445.98 941.29 1444.41 938.841 1437.81 L 938.147 1435.96 L 920.751 1435.57 L 904.025 1434.99 L 903.49 1436 C 898.201 1446.43 900.529 1444.08 898.42 1454.1 C 894.599 1456.22 885.114 1454.82 880.016 1454.52 C 887.492 1444.89 913.547 1390.69 917.828 1378.69 L 927.052 1375.16 z" fill="rgb(19,19,19)" transform="translate(0,0)"></path>
<path d="M 920.794 1397.72 C 923.239 1400.46 931.57 1420.68 933.606 1425.39 C 930.592 1425.74 926.526 1425.77 923.423 1425.89 C 918.532 1425.91 913.578 1425.52 908.688 1425.22 L 920.794 1397.72 z" fill="rgb(254,254,254)" transform="translate(0,0)"></path>
<path d="M 1438.11 1382.21 C 1449.26 1381.31 1458.8 1382.83 1469.54 1385.46 C 1468.65 1390.06 1467.53 1394.79 1466.51 1399.38 C 1456.62 1391.82 1442.49 1389.44 1431.63 1396.47 C 1425.15 1400.63 1420.72 1407.34 1419.45 1414.94 C 1418.1 1423.3 1420.5 1432.52 1425.58 1439.28 C 1429.84 1445 1436.28 1448.7 1443.37 1449.5 C 1448.19 1450.07 1451.12 1450.23 1454.72 1447.28 C 1455.79 1443.7 1454.07 1437.5 1453.63 1432.76 C 1450.21 1429.55 1445.84 1427.04 1447.74 1422.13 C 1450.57 1420.13 1454.29 1420.86 1457.94 1421.04 C 1462.26 1420.94 1470.91 1419.89 1473.79 1423 C 1466.05 1432.51 1475.1 1449.88 1470.38 1457.89 C 1394.87 1478.57 1376.77 1393.59 1438.11 1382.21 z" fill="rgb(19,19,19)" transform="translate(0,0)"></path>
<path d="M 680.243 1375.25 C 697.535 1376.37 714.885 1376.23 732.158 1374.85 C 731.372 1379.85 731.637 1384.84 729.689 1389.4 C 722.2 1383.58 710.408 1385.22 700.465 1385.3 C 700.985 1392.56 700.888 1400.95 700.967 1408.32 C 707.763 1408.6 712.955 1409.15 719.597 1407.67 C 722.84 1406.95 725.02 1406.37 727.161 1407.96 C 727.574 1412.53 726.963 1417.13 726.564 1421.72 C 715.1 1416.8 712.798 1417.82 700.198 1418.05 L 700.117 1432.25 C 700.241 1436.51 699.571 1436.49 701.49 1439.58 C 708.367 1443.98 719.787 1442.17 728.402 1441.77 C 731.932 1439.29 735.869 1436.05 739.321 1433.35 C 736.722 1442.17 735.294 1445.1 730.589 1452.53 C 719.754 1451.93 688.536 1453.47 680.926 1451.31 C 683.467 1448.31 684.718 1445.98 684.673 1441.62 C 684.468 1422.26 686.531 1402.73 685.539 1383.45 C 685.442 1381.57 681.456 1377.72 680.243 1375.25 z" fill="rgb(19,19,19)" transform="translate(0,0)"></path>
<path d="M 781.99 1374.64 C 796.761 1378.94 815.834 1375.83 831.239 1376.97 C 838.419 1377.51 839.776 1375.53 845.383 1375.06 C 845.931 1377.97 844.278 1387.65 842.223 1389.78 C 841.175 1388.14 840.799 1387.68 839.511 1386.21 C 833.356 1387.07 826.143 1386.92 819.854 1386.97 C 819.949 1402.73 820.197 1420.17 819.251 1435.75 C 819.022 1440.73 821.358 1451.02 820.956 1452.7 C 816.912 1454.71 805.104 1454.35 800.519 1453.59 L 800.58 1451.49 C 801.475 1450.33 802.327 1449.15 803.206 1447.98 C 807.304 1442.51 805.255 1397.4 806.609 1386.44 L 785.323 1386.03 L 775.393 1393.45 C 777.158 1387.08 779.66 1380.84 781.99 1374.64 z" fill="rgb(19,19,19)" transform="translate(0,0)"></path>
<path d="M 1090.34 1379.16 C 1097.72 1379.52 1106.65 1378.35 1113.47 1379.8 C 1108.76 1388.15 1110.57 1393.73 1110.44 1402.97 L 1109.92 1444.98 C 1113.14 1445.22 1116.37 1445.38 1119.6 1445.45 C 1133.62 1445.84 1137.65 1447.75 1147.42 1438.51 C 1148.46 1440.91 1147.81 1443.16 1147.46 1445.84 L 1143.33 1456.97 C 1135.67 1456.66 1094.85 1458.35 1092.4 1455.06 C 1098.68 1446.52 1094.36 1399.4 1096.68 1386.11 C 1097.1 1383.74 1092.23 1380.56 1090.34 1379.16 z" fill="rgb(19,19,19)" transform="translate(0,0)"></path>
<path d="M 1197.17 1380.12 C 1202.19 1380.4 1215.74 1379.75 1218.89 1380.85 C 1216.91 1384.12 1215.57 1385.59 1215.6 1389.64 C 1215.74 1410.16 1213.6 1431.22 1215.74 1451.62 C 1215.94 1453.49 1218.89 1456.56 1220.19 1457.93 C 1216.38 1457.95 1200.45 1458.63 1198.05 1456.84 C 1200.28 1445.39 1200.86 1435.39 1200.78 1423.74 C 1200.69 1411.09 1202.37 1397.99 1200.9 1385.41 C 1200.76 1384.23 1198.03 1381.09 1197.17 1380.12 z" fill="rgb(19,19,19)" transform="translate(0,0)"></path>
<path d="M 1034.89 1378.8 L 1035.63 1379.45 C 1031.97 1383.21 1031.2 1388.12 1031.51 1393.15 C 1032.27 1405.26 1027.82 1445.97 1033.7 1454.25 L 1033.4 1455.5 C 1028.26 1456.36 1019.73 1455.58 1014.24 1455.29 L 1012.75 1454.62 C 1013.57 1453.53 1015.91 1450.81 1015.95 1449.56 C 1016.75 1428.55 1017.46 1407.55 1017.14 1386.51 C 1017.08 1382.73 1015.04 1381.88 1012.48 1379.63 C 1015.49 1378.21 1030.75 1378.79 1034.89 1378.8 z" fill="rgb(19,19,19)" transform="translate(0,0)"></path>
<path d="M 1202.3 1664.11 C 1223.28 1667.89 1224.26 1700.31 1202.72 1707.7 C 1180.45 1703.12 1178.2 1670.84 1202.3 1664.11 z" fill="rgb(19,19,19)" transform="translate(0,0)"></path>
<path d="M 1200.51 1671.38 C 1212.23 1675.16 1211.38 1692.27 1204.08 1700.2 C 1190.6 1695.95 1192.64 1680.38 1200.51 1671.38 z" fill="rgb(254,254,254)" transform="translate(0,0)"></path>
<path d="M 738.912 1660.07 C 745.588 1660.18 762.58 1658.65 766.415 1661.93 C 767.761 1665.25 767.31 1665.96 766.485 1669.41 C 760.842 1668.69 757.696 1666.62 752.523 1667.5 C 749.499 1670.11 748.389 1671.2 749.966 1674.77 C 753.64 1677.16 759.976 1677.34 764.79 1678.11 C 765.42 1681.29 765.529 1681.09 764.518 1684.12 C 760.063 1687.12 758.478 1684.24 751.938 1686.99 C 749.445 1690.39 750.313 1690.16 750.197 1695.36 C 756.7 1698.94 767.301 1695.47 770.543 1697.66 C 767.881 1711.26 752.077 1703.56 741.026 1704.57 C 740.609 1704.32 740.191 1704.06 739.773 1703.81 C 740.674 1692.4 742.983 1670.22 738.912 1660.07 z" fill="rgb(19,19,19)" transform="translate(0,0)"></path>
<path d="M 791.574 1660.23 C 796.631 1659.46 812 1659.09 811.556 1666.52 C 806.952 1671.41 800.431 1667.68 791.753 1668.79 L 790.896 1671.16 C 794.673 1679.02 833.808 1691.21 800.078 1705.06 C 794.476 1705.29 780.546 1704.61 780.512 1697 C 786.148 1690.77 797.334 1699.62 801.815 1694.16 C 799.362 1683.08 765.522 1676.63 791.574 1660.23 z" fill="rgb(19,19,19)" transform="translate(0,0)"></path>
<path d="M 1270.39 1664.23 C 1276.16 1664.98 1283.86 1664.79 1290.5 1665.49 C 1292.62 1667.82 1292 1666.49 1292.49 1669.56 C 1288.73 1673.8 1282.31 1673.36 1276.29 1673.94 L 1275.65 1674.99 C 1279.26 1682.08 1307.68 1687.48 1285.12 1706.48 C 1276.53 1708.12 1273.33 1707.67 1265.71 1703.48 C 1264.42 1700.69 1264.53 1702.11 1265.47 1699.08 C 1270.57 1696.37 1276.74 1701.31 1282.59 1698.62 C 1283.84 1696.45 1284.3 1695.81 1283.47 1692.63 C 1280.59 1681.62 1274.99 1689.55 1268.32 1685.74 C 1265.5 1679.1 1268.57 1671.48 1270.39 1664.23 z" fill="rgb(19,19,19)" transform="translate(0,0)"></path>
<path d="M 1159.2 1664.01 C 1188.2 1662.9 1170.58 1688.88 1162 1700.04 C 1166.98 1700.01 1175.51 1698.11 1177.6 1703.41 C 1172.28 1707.5 1165.67 1706.49 1159.18 1706.2 C 1155.03 1706.92 1152.56 1707.94 1149.28 1704.97 C 1148.31 1695.94 1172.24 1681.41 1165.65 1672.96 C 1156.08 1669.67 1158.72 1675.85 1152.55 1675.77 C 1150.13 1671.79 1150.58 1673.81 1150.4 1669.69 C 1152.36 1666.63 1155.8 1665.58 1159.2 1664.01 z" fill="rgb(19,19,19)" transform="translate(0,0)"></path>
<path d="M 1237.97 1664.08 C 1268.3 1664.37 1249.13 1688.39 1239.94 1699.96 C 1244.11 1699.79 1248.01 1699.27 1251.94 1700.47 C 1253.88 1703.17 1253.22 1701.58 1252.83 1705.82 C 1250.26 1707.53 1235.79 1706.91 1231.75 1706.89 L 1227.89 1706.78 L 1226.66 1705.4 C 1227.17 1696.16 1243.16 1688.43 1245.6 1677.97 C 1244.61 1674.63 1244.87 1674.6 1242.4 1672.24 C 1238.37 1672.12 1238.59 1672.96 1234.4 1675.53 C 1231.99 1675.74 1229.24 1675.69 1228.3 1673.11 C 1229.49 1668.62 1234.1 1666.43 1237.97 1664.08 z" fill="rgb(19,19,19)" transform="translate(0,0)"></path>
<path d="M 820.662 1658.67 C 827.403 1661.46 846.536 1659.89 855.284 1660.25 C 857.173 1663.6 857.371 1664.44 855.699 1667.5 C 851.995 1669.15 847.798 1668.22 843.635 1667.82 L 844.012 1700.1 C 844.236 1701 844.564 1702.95 844.745 1703.91 C 841.658 1705.98 839.045 1705.21 834.728 1705.21 C 835.136 1697.59 836.644 1674.63 832.752 1668.31 C 831.968 1667.04 831.246 1667.4 829.472 1667.25 C 826.734 1668.56 824.704 1669.98 821.788 1669.66 L 820.62 1667.65 C 821.816 1663.62 821.537 1662.81 820.662 1658.67 z" fill="rgb(19,19,19)" transform="translate(0,0)"></path>
<path d="M 954.022 1742.66 C 961.029 1740.53 968.449 1744.4 970.728 1751.35 C 973.006 1758.31 969.309 1765.82 962.403 1768.25 C 957.797 1769.87 952.674 1768.87 949.014 1765.64 C 945.353 1762.41 943.729 1757.45 944.769 1752.68 C 945.808 1747.91 949.349 1744.07 954.022 1742.66 z" fill="rgb(19,19,19)" transform="translate(0,0)"></path>
<path d="M 954.083 1745.9 C 966.857 1745.74 970.327 1756.72 961.154 1765.07 C 948.177 1764.82 946.14 1754.91 954.083 1745.9 z" fill="rgb(254,254,254)" transform="translate(0,0)"></path>
<path d="M 980.509 1741.93 C 985.365 1742.14 991.42 1742.01 995.887 1743.51 C 998.929 1747.88 996.517 1753.33 999.006 1757.45 C 1001.42 1761.46 1000.91 1760.23 1000.14 1765.18 C 993.313 1769.91 989.724 1769.04 981.369 1768.99 C 981.432 1759.5 981.653 1751.4 980.509 1741.93 z" fill="rgb(19,19,19)" transform="translate(0,0)"></path>
<path d="M 985.442 1757.16 C 989.425 1757.13 990.251 1757.02 994.045 1757.95 C 996.64 1760.89 995.824 1759.15 995.928 1763.62 C 992.76 1764.33 990.755 1765.05 987.544 1764.52 C 985.112 1761.63 985.894 1761.77 985.442 1757.16 z" fill="rgb(254,254,254)" transform="translate(0,0)"></path>
<path d="M 985.956 1746.04 C 988.936 1746.44 989.984 1746.7 992.804 1747.44 C 995.252 1750.45 994.388 1748.68 994.485 1753.37 C 991.361 1753.74 990.226 1754.06 987.101 1753.36 C 985.201 1750.65 985.936 1750.12 985.956 1746.04 z" fill="rgb(254,254,254)" transform="translate(0,0)"></path>
<path d="M 911.43 1741.58 C 913.928 1743.58 920.791 1755.21 922.876 1758.54 C 927.312 1751.86 930.211 1747.5 933.759 1740.39 C 934.367 1747.46 936.155 1762.16 934.495 1768.29 L 933.132 1768.96 C 930.522 1766.35 931.155 1767.89 931.144 1764.22 C 930.987 1761.19 931.073 1760.7 930.198 1757.71 L 928.768 1757.33 C 925.858 1760.33 923.759 1764.17 921.531 1767.75 C 919.565 1762.48 917.334 1758.06 914.886 1753.02 C 914.324 1757.53 914.325 1767.91 909.679 1769.18 C 908.331 1764.36 910.79 1747.52 911.43 1741.58 z" fill="rgb(19,19,19)" transform="translate(0,0)"></path>
<path d="M 1123.42 1741.19 C 1129.06 1742.53 1137.33 1761.89 1137.79 1767.29 L 1136.26 1768.34 C 1131.61 1766.48 1133.66 1764.07 1128.51 1762.49 C 1116.7 1762.3 1122.22 1764.15 1113.14 1767.03 C 1112.23 1762.58 1120.99 1746.24 1123.42 1741.19 z" fill="rgb(19,19,19)" transform="translate(0,0)"></path>
<path d="M 1054.81 1741.76 C 1060.32 1741.65 1067.81 1740.46 1071.26 1743.67 C 1068.42 1747.33 1063.07 1744.71 1059.17 1748.48 L 1059.5 1751.59 C 1063.07 1752.08 1067.47 1752.22 1070.28 1754.22 L 1069.87 1756.03 C 1066.68 1757.73 1062.93 1757.15 1058.95 1757.17 L 1059.2 1761.19 C 1061.7 1764.36 1065.25 1763.48 1070.83 1765.64 L 1070.9 1767.25 C 1067.76 1768.72 1058.83 1768.36 1054.88 1768.41 L 1054.81 1741.76 z" fill="rgb(19,19,19)" transform="translate(0,0)"></path>
<path d="M 1147.55 1741.18 L 1150.35 1742.55 C 1152.41 1747 1151.59 1758.33 1151.45 1763.67 C 1157.83 1763.75 1162.97 1761.84 1165.09 1768.09 L 1146.71 1768.15 C 1146.69 1760.79 1146.25 1748 1147.55 1741.18 z" fill="rgb(19,19,19)" transform="translate(0,0)"></path>
<path d="M 1029.92 1741.05 C 1031.86 1741.65 1031.56 1741.59 1033.35 1742.6 C 1035.07 1748.16 1034.31 1758.05 1034.17 1764.19 C 1040.02 1763.87 1044.18 1762.08 1046.67 1767.71 C 1041.41 1768.22 1034.86 1768.35 1029.47 1768.58 C 1029.53 1759.4 1029.68 1750.22 1029.92 1741.05 z" fill="rgb(19,19,19)" transform="translate(0,0)"></path>
<path d="M 1010.76 1740.25 C 1013.46 1740.87 1012.59 1740.37 1014.59 1742.21 C 1015.93 1749.2 1015.6 1761.96 1015.7 1769.47 L 1011.7 1768.39 C 1008.49 1763.39 1010.29 1746.78 1010.76 1740.25 z" fill="rgb(19,19,19)" transform="translate(0,0)"></path>
<path d="M 865.17 1695.6 C 866.77 1694.56 868.803 1694.47 870.488 1695.36 C 872.173 1696.25 873.249 1697.98 873.301 1699.88 C 873.354 1701.78 872.376 1703.57 870.743 1704.55 C 868.275 1706.03 865.076 1705.26 863.555 1702.81 C 862.034 1700.37 862.753 1697.16 865.17 1695.6 z" fill="rgb(19,19,19)" transform="translate(0,0)"></path>
<path d="M 1082.21 1762.28 C 1084.15 1763.21 1083.31 1762.51 1084.6 1764.51 C 1084.4 1768.7 1082.45 1771.23 1080.35 1774.95 L 1078.63 1773.55 C 1078.56 1769.27 1080.41 1766.27 1082.21 1762.28 z" fill="rgb(19,19,19)" transform="translate(0,0)"></path>
<metadata><recraft-signature>{"signed_by": "recraft", "signature_b64": "IToPmgHA0rPcMdShoQgijQzXBc/y9QsjLzpZNljtANgXR1B7U/CbUg0Lk3DHO+zySP+R8EdEeQRlCYyOFv4+DA==", "signing_algo": "Ed25519", "generation_timestamp": 1778255514, "identifier": "ddebc360-3f2c-4695-ae57-6937a96f33b7"}</recraft-signature></metadata></svg>