<svg xmlns="http://www.w3.org/2000/svg" height="1024" preserveAspectRatio="none" style="display: block;" version="1.1" viewBox="0 0 2048 2048" width="1024">
<path d="M 0 0 L 2048 0 L 2048 2048 L 0 2048 L 0 0 z" fill="rgb(254,254,254)" transform="translate(0,0)"></path>
<path d="M 1016.4 17.4548 C 1022.11 21.2449 1035.97 49.5452 1040.64 57.9377 C 1056.51 57.516 1080.33 55.9292 1095.51 56.685 C 1087.46 71.4066 1075.54 83.1201 1070.98 100.615 C 1068.03 111.916 1070.3 117.32 1066.13 128.429 L 1065.61 129.783 C 1080.84 135.478 1082.16 138.568 1085.95 154.241 C 1112.95 147.891 1126.82 154.455 1137.25 180.05 C 1163.07 173.769 1187.49 168.798 1196.37 201.285 C 1210.05 196.258 1228.61 190.247 1242.32 198.451 C 1251.58 203.992 1253.57 212.595 1256.04 222.288 C 1260.91 220.454 1265.85 218.839 1270.86 217.449 C 1287.76 212.857 1306.26 216.406 1314.63 233.201 C 1317.06 238.073 1318.22 244.492 1319.44 249.835 C 1351.74 240.298 1374.55 245.641 1374.16 284.213 C 1387.67 280.892 1407.45 278.091 1417.2 291.226 C 1427.63 305.292 1420.09 319.738 1417.23 334.302 C 1412.5 358.355 1432.14 353.633 1443.03 367.993 C 1454.06 388.659 1446.31 408.487 1425.74 418.226 C 1420.69 420.617 1413.11 435.071 1409.93 440.44 C 1385.71 481.271 1380.65 527.118 1374.88 573.2 C 1389.88 588.841 1377.18 608.184 1373.84 626.067 C 1372.6 632.701 1371.72 639.983 1370.73 646.699 C 1383.95 653.062 1408.21 660.367 1422.63 665.111 L 1510.87 694.207 C 1532.39 701.397 1570.17 709.259 1572.89 736.234 C 1575.86 765.641 1572.96 796.535 1571.59 826.076 C 1566.2 941.862 1557.73 1057.47 1535.75 1171.46 C 1531.23 1194.93 1523.88 1219.29 1521.57 1242.79 C 1521.13 1247.36 1556.19 1246.14 1560.72 1246.15 L 1772.84 1248.33 C 1783.69 1248.52 1794.91 1249.72 1805.57 1249.8 C 1834.4 1250 1863.33 1249.71 1892.17 1250.13 C 1895.19 1250.18 1900.09 1250.5 1902.59 1252.04 C 1903.29 1254.78 1903.43 1257.94 1902.9 1260.67 C 1888.19 1337.13 1879.5 1413.59 1891.44 1491.11 C 1893.1 1501.87 1902.41 1554.46 1900.17 1561.14 C 1891.43 1566.08 1693.09 1559.89 1667.16 1559.36 L 1555 1557.86 C 1544.23 1557.79 1533.23 1558.82 1522.5 1558.72 L 953.25 1558.88 C 791.326 1559.73 629.407 1561.42 467.5 1563.94 L 277.417 1568.22 C 227.582 1569.85 177.731 1570.95 127.872 1571.53 C 130.317 1550.04 134.414 1529.32 137.142 1508 C 143.752 1460.01 145.298 1411.47 141.756 1363.16 C 140.045 1341.54 135.718 1318.07 132.172 1296.62 C 130.807 1288.37 125.525 1266.68 125.521 1259.72 C 129.375 1256.88 162.388 1258.29 170.375 1257.92 C 189.792 1257.03 210.048 1257.35 229.498 1256.96 L 351.178 1254.9 C 400.669 1253.82 451.234 1252.46 500.55 1250.18 C 507.231 1249.88 494.745 1199.71 493.704 1194.06 C 470.064 1065.88 460.354 935.692 457.413 805.496 C 456.831 778.576 448.767 730.289 473.189 713.111 C 484.424 705.208 506.605 699.813 520.139 695.454 L 612.849 665.561 C 628.661 660.502 653.332 653.783 667.687 646.54 C 668.667 630.289 667.127 612.998 665.934 596.767 C 664.787 581.148 665.527 564.985 662.2 549.713 C 651.774 501.853 635.315 458.267 613.147 414.757 C 593.823 410.085 583.114 405.805 577.717 383.989 C 572.316 362.155 592.778 344.585 613.435 345.9 C 618.111 346.198 622.529 353.065 629.76 351.845 L 630.635 350.443 C 628.354 348.989 626.103 347.488 623.883 345.942 C 596.568 326.693 598.171 291.498 634.949 284.305 C 644.166 282.502 655.594 290.636 662.517 296.564 C 660.82 291.87 657.981 284.461 656.991 279.713 C 655.421 271.817 657.159 263.624 661.799 257.046 C 670.354 244.798 688.772 240.496 702.52 245.356 C 706.899 246.904 711.022 250.155 714.801 252.834 C 714.827 243.061 714.121 236.099 718.502 227.143 C 721.78 220.494 727.675 215.507 734.775 213.375 C 749.209 208.96 761.929 214.121 774.296 220.758 C 780.207 206.75 783.496 192.455 802.524 190.139 C 815.108 188.606 821.644 194.813 830.943 201.954 C 836.837 179.861 849.303 166.828 874.512 172.349 C 881.429 173.864 886.817 178.272 892.625 182.268 C 899.99 152.859 918.696 152.808 944.927 156.078 C 950.099 133.614 953.13 137.298 968.798 127.47 C 967.72 123.905 964.566 107.894 964.826 104.489 C 965.857 90.9804 938.601 66.291 939.969 58.1014 C 944.345 55.2947 987.384 56.8215 995.981 56.7646 C 1003.41 44.9312 1008.63 29.4292 1016.4 17.4548 z" fill="rgb(65,65,65)" transform="translate(0,0)"></path>
<path d="M 1152.99 1299.55 C 1172.08 1298.26 1195.56 1298.97 1214.86 1299.23 C 1243.74 1299.65 1272.62 1299.87 1301.5 1299.9 C 1462.21 1298.59 1622.93 1300.03 1783.6 1304.2 C 1802.53 1304.83 1859.88 1303.9 1873.65 1307.97 C 1875.66 1312.21 1871.11 1348.33 1870.58 1355.52 C 1868.47 1387.74 1868.46 1420.06 1870.54 1452.29 C 1871.34 1463.98 1876.54 1495.86 1872.81 1505.5 C 1867.25 1509.67 1755.28 1505.07 1738.46 1504.81 C 1680.55 1503.93 1621.91 1503.17 1563.88 1503.07 L 1427.07 1502.11 L 878.361 1504.43 C 830.066 1505.77 779.901 1505 731.5 1505.17 L 581 1506.92 L 256.242 1511.91 C 242.916 1511.99 162.86 1516.1 156.838 1512 C 154.808 1506.68 158.57 1462.91 159.562 1454.05 C 164.903 1406.41 157.918 1361.55 156.246 1314.33 C 173.265 1312.33 203.554 1313.32 222.173 1312.72 L 388.376 1307.73 C 551.373 1302.81 714.436 1300.35 877.507 1300.34 C 968.594 1299.8 1062.07 1301.33 1152.99 1299.55 z" fill="rgb(254,254,254)" transform="translate(0,0)"></path>
<path d="M 597.573 1358.26 C 666.634 1353.41 674.982 1445.69 609.542 1453.43 C 583.04 1455.63 557.578 1441.37 552.669 1413.75 C 550.405 1401.5 553.21 1388.86 560.442 1378.72 C 569.77 1365.9 582.633 1360.64 597.573 1358.26 z" fill="rgb(33,33,33)" transform="translate(0,0)"></path>
<path d="M 594.421 1371.04 C 613.73 1366.29 633.234 1378.1 637.972 1397.41 C 642.709 1416.72 630.883 1436.22 611.566 1440.94 C 592.272 1445.66 572.805 1433.85 568.073 1414.56 C 563.341 1395.27 575.134 1375.79 594.421 1371.04 z" fill="rgb(254,254,254)" transform="translate(0,0)"></path>
<path d="M 965.089 1355.5 C 970.383 1359.75 1006.95 1438.03 1013.54 1450.42 L 998.024 1450.71 C 995.237 1444.33 990.174 1435.35 986.833 1428.99 L 965.025 1429.09 L 943.235 1429.08 C 940.172 1435.82 935.144 1444.22 931.42 1450.83 L 915.93 1451.07 C 932.476 1419.92 948.339 1385.78 965.089 1355.5 z" fill="rgb(33,33,33)" transform="translate(0,0)"></path>
<path d="M 965.482 1382.63 C 967.773 1384.98 978.699 1411.22 980.931 1416.27 L 965.651 1416.54 L 949.186 1416.57 C 954.089 1405.2 959.982 1393.76 965.482 1382.63 z" fill="rgb(254,254,254)" transform="translate(0,0)"></path>
<path d="M 1260.18 1356.26 C 1265.22 1358.03 1318.64 1415.71 1325.8 1423.56 L 1325.92 1358.7 L 1338.99 1358.65 C 1339.01 1388.43 1340.59 1422.39 1339.38 1451.76 L 1338.17 1452.82 C 1337.58 1452.76 1336.98 1452.71 1336.39 1452.66 C 1318.1 1434.47 1291.79 1405.98 1273.96 1389.29 L 1273.99 1451.81 L 1260.07 1451.85 C 1259.94 1419.99 1259.98 1388.12 1260.18 1356.26 z" fill="rgb(33,33,33)" transform="translate(0,0)"></path>
<path d="M 713.29 1356.71 C 715.191 1358.95 725.537 1379.56 727.822 1384 L 762.313 1451.26 L 746.681 1451.24 L 736.037 1429.77 L 714.819 1429.83 L 691.075 1429.72 L 680.986 1451.2 L 665.724 1451.04 C 679.256 1420.68 697.934 1386.71 713.29 1356.71 z" fill="rgb(33,33,33)" transform="translate(0,0)"></path>
<path d="M 713.228 1384.62 C 715.494 1387.11 727.206 1412.43 729.335 1416.9 L 714.5 1416.91 L 697.782 1416.82 C 703.16 1406.2 708.31 1395.46 713.228 1384.62 z" fill="rgb(254,254,254)" transform="translate(0,0)"></path>
<path d="M 1369.86 1358.94 L 1424.02 1358.89 L 1424.04 1371.54 C 1411 1372.09 1396.1 1371.81 1382.92 1371.84 L 1382.88 1395.09 C 1396.03 1395.02 1409.82 1394.7 1422.89 1395.39 C 1423.07 1399.13 1423.02 1402.3 1422.95 1406.05 C 1419.34 1412.4 1391.51 1404.95 1383.43 1409.28 L 1382.89 1411.75 L 1382.92 1439.63 L 1425.86 1439.64 L 1425.8 1451.88 C 1407.34 1452.2 1388.12 1451.93 1369.59 1451.94 L 1369.86 1358.94 z" fill="rgb(33,33,33)" transform="translate(0,0)"></path>
<path d="M 499.239 1357.3 C 513.954 1355.75 526.277 1361.82 537.228 1370.91 L 530.415 1381.37 C 498.401 1352.93 456.647 1381.52 469.842 1420.36 C 477.093 1441.71 501.088 1444.1 520.446 1436.27 C 523.608 1434.43 527.134 1431.97 530.217 1429.93 L 539.084 1438.53 C 497.422 1482.18 427.095 1429.37 461.464 1377.4 C 469.818 1364.76 484.95 1359.54 499.239 1357.3 z" fill="rgb(33,33,33)" transform="translate(0,0)"></path>
<path d="M 1467.84 1357.12 C 1481.84 1355.9 1489.74 1360.68 1497.94 1371.56 L 1487.57 1377.89 C 1480.32 1371.29 1471.97 1364.75 1462.21 1373.1 C 1452.97 1381.01 1469.43 1392.39 1475.94 1395.85 C 1495.11 1406.05 1512.55 1426.34 1492.83 1445.87 C 1485.89 1452.72 1476.9 1454.08 1467.25 1453.63 L 1466.11 1453.32 C 1452.78 1449.57 1447 1444.35 1440.44 1432.73 L 1451.69 1424.74 C 1458.53 1435.86 1472.79 1450.83 1485.16 1431.77 C 1491.19 1419.77 1472.78 1410.33 1465.61 1406.34 C 1438.91 1391.5 1435.86 1367.01 1467.84 1357.12 z" fill="rgb(33,33,33)" transform="translate(0,0)"></path>
<path d="M 798.574 1357.15 C 813.402 1355.96 822.31 1360.56 830.985 1372.12 L 818.542 1379.36 C 812.257 1371.09 803.896 1366.7 793.745 1371.73 C 785.004 1382.71 806.701 1396.11 814.636 1401.07 C 842.694 1418.6 836.376 1451.03 802.705 1453.9 C 799.834 1453.5 796.993 1452.9 794.201 1452.12 C 783.696 1449.09 778.525 1441.61 773.621 1432.7 C 777.323 1430.06 781.256 1427.7 785.114 1425.29 C 790.176 1434.05 798.523 1445.75 809.018 1440.2 C 827.365 1430.36 813.244 1414.49 800.511 1408.34 C 775.505 1396.26 766.273 1367.77 798.574 1357.15 z" fill="rgb(33,33,33)" transform="translate(0,0)"></path>
<path d="M 1141.7 1359.05 L 1193.04 1359.13 L 1193.04 1371.85 L 1155.79 1371.85 L 1155.78 1395.87 C 1164.37 1395.84 1183.67 1394.24 1190.37 1397.63 C 1191.94 1400.95 1191.18 1401.84 1190.9 1406.12 C 1188.86 1408.47 1189.53 1407.72 1185.25 1408.02 L 1155.16 1408.04 L 1155.07 1451.69 L 1141.27 1451.79 C 1140.99 1420.88 1141.13 1389.96 1141.7 1359.05 z" fill="rgb(33,33,33)" transform="translate(0,0)"></path>
<path d="M 847.663 1359.35 L 912.248 1359.33 L 912.287 1371.98 L 885.98 1371.91 L 886.013 1426.5 L 886.066 1451.71 L 872.037 1451.45 L 871.946 1371.97 L 847.532 1371.94 L 847.663 1359.35 z" fill="rgb(33,33,33)" transform="translate(0,0)"></path>
<path d="M 1514.72 1359.33 L 1576.64 1359.27 L 1576.48 1371.63 C 1568.58 1371.84 1559.92 1371.62 1551.97 1371.57 L 1551.95 1424.23 L 1552 1448.33 L 1537.57 1448.41 C 1537.5 1422.63 1537.56 1396.85 1537.76 1371.07 L 1514.42 1370.95 L 1514.72 1359.33 z" fill="rgb(33,33,33)" transform="translate(0,0)"></path>
<path d="M 1034.09 1359.45 L 1048.09 1359.39 L 1048.15 1438.57 C 1057.3 1438.63 1077.23 1438.02 1085.19 1439.27 C 1086.67 1442.4 1086.12 1447.08 1086.04 1450.71 L 1033.98 1450.81 C 1033.79 1420.35 1033.83 1389.9 1034.09 1359.45 z" fill="rgb(33,33,33)" transform="translate(0,0)"></path>
<path d="M 1216.34 1359.16 L 1230 1359.09 L 1230.04 1451.33 C 1225.81 1451.46 1221.12 1451.36 1216.85 1451.36 C 1216.78 1420.6 1216.17 1389.94 1216.34 1359.16 z" fill="rgb(33,33,33)" transform="translate(0,0)"></path>
<path d="M 762.258 308.825 L 765.018 309.029 C 765.578 309.523 766.138 310.016 766.699 310.509 C 766.336 332.62 756.976 360.638 756.162 382.585 C 755.642 396.61 757.42 403.008 759.796 413.471 C 753.254 420.314 741.346 433.485 746.632 443.132 C 752.464 453.776 772.073 443.403 778.457 440.322 C 782.779 441.392 787.043 442.932 791.273 444.351 C 783.034 473.308 752.945 485.802 752.144 494.506 C 755.732 499.106 761.394 503.074 768.694 503.313 C 793.645 504.128 813.362 445.885 799.32 429.706 C 794.797 424.495 775.001 427.503 765.729 428.525 C 769.93 421.637 774.481 416.209 778.856 408.515 C 777.58 405.379 775.101 400.932 775.689 398.205 C 783.037 399.3 782.122 406.842 785.791 409.195 C 804.838 421.405 806.307 402.154 804.523 389.475 C 815.586 382.864 833.078 363.128 847.543 373.039 C 847.497 378.705 835.757 380.962 831.137 386.442 C 824.227 394.638 826.909 410.012 839.877 408.127 C 845.24 407.348 848.065 401.207 850.719 396.64 C 869.717 397.766 876.099 405.225 882.944 422.036 C 827.74 404.06 827.492 448.696 859.238 477.862 C 876.447 493.672 907.04 501.358 929.893 500.041 C 948.038 498.996 971.231 490.6 982.977 476.166 C 998.129 458.025 1003.35 423.747 982.016 408.03 C 967.776 397.542 954.53 403.267 945.179 416.536 L 944.332 417.757 C 937.921 406.209 936.745 398.289 944.203 386.189 C 950.486 376.121 960.481 368.933 972.024 366.18 C 990.65 361.807 1003.21 370.576 1018.15 379.599 C 1034.75 372.51 1047.33 359.083 1066.66 367.411 C 1091.09 377.94 1103.91 393.153 1094.16 419.412 C 1085.9 409.429 1072.13 397.42 1058.11 404.566 C 1038.47 414.574 1041.94 446.715 1051.11 463.04 C 1060.24 479.291 1076.52 494.835 1094.93 499.778 C 1117.41 505.654 1141.99 505.642 1162.99 493.874 C 1186.07 480.94 1214.31 449.334 1198.11 421.049 C 1189.7 406.387 1169.42 419.865 1162.49 418.515 C 1159.17 406.61 1167.24 400.778 1175.23 394.251 C 1175.33 389.225 1173.44 381.319 1177.54 378.522 C 1185.51 378.909 1189.91 386.599 1192.52 392.493 C 1202.83 415.793 1229.94 403.264 1214.86 382.702 C 1211.96 378.758 1210.96 379.592 1210.92 374.665 C 1215.97 367.869 1222.31 373.245 1228.57 375.815 L 1229.79 376.31 C 1248.98 384.247 1218.53 407.622 1236.9 413.248 C 1249.99 417.262 1261.99 413.438 1273.26 407.33 C 1273.09 416.211 1273.66 421.737 1274.61 430.653 C 1270.45 433.429 1243.05 428.559 1238.31 442.281 C 1238.72 455.816 1264.91 460.391 1261.79 472.361 C 1257.01 475.529 1249.28 473.594 1244.22 476.645 C 1239.66 479.395 1239.77 484.231 1241.99 488.275 C 1244.11 492.144 1249.08 494.91 1253.05 495.923 C 1267.18 499.528 1280.32 490.307 1282.95 476.213 C 1284.82 466.307 1281.43 461.864 1276.21 454.227 C 1282.92 450.397 1287.52 450.258 1294.72 447.311 C 1294.84 435.253 1288.44 416.1 1288.75 402.865 C 1288.83 399.146 1281.38 394.938 1278.1 392.786 C 1281.4 367.153 1277.36 339.801 1269.24 315.425 C 1273.33 317.146 1277.33 319.076 1281.22 321.207 C 1321.4 342.986 1344.08 377.063 1356.69 419.999 C 1339.18 424.5 1322.29 426.854 1308.9 441.465 C 1299.62 450.317 1297.58 469.917 1308.94 477.849 C 1319.61 485.299 1335.55 462.235 1346.52 469.391 C 1348.57 473.271 1348.66 476.108 1348.56 480.422 C 1347.74 517.999 1332.89 529.155 1295.98 526.984 C 1261.98 524.983 1225.39 500.032 1233.05 461.488 C 1233.83 457.582 1233.73 451.655 1231.03 448.536 C 1227.64 447.948 1220.4 447.338 1218.05 449.732 C 1213.54 454.326 1209.74 463.515 1206.22 469.117 C 1198.18 482.205 1186.81 491.893 1174.08 500.08 C 1129.9 528.475 1055.99 522.824 1032.93 469.966 C 1029.87 462.967 1027.89 454.746 1024.4 447.909 C 1023.3 445.745 1023.08 446.419 1020.69 445.888 C 1015.13 447.463 1013.02 452.282 1011.42 457.379 C 1006.36 473.583 1001.15 486.697 987.215 497.265 C 947.009 527.759 869.977 517.238 841.239 475.041 C 836.76 468.464 834.144 458.661 829.06 452.058 C 825.536 450.86 822.64 451.735 818.883 452.302 C 815.798 463.957 812.696 475.739 807.327 486.589 C 798.77 503.884 785.512 513.737 767.471 519.724 C 751.024 525.182 732.313 526.846 716.503 518.451 C 702.641 511.09 694.358 497.725 689.89 483.119 C 688.015 476.989 688.479 472.071 691.716 466.446 C 701.706 449.086 722.01 469.672 734.748 464.394 C 737.198 463.378 738.584 461.567 739.318 459.089 C 740.633 454.644 739.081 448.273 737.698 444.01 C 727.476 412.502 688.146 410.086 685.584 403.918 C 682.699 396.976 687.318 385.228 689.923 378.477 C 702.584 345.662 730.83 322.828 762.258 308.825 z" fill="rgb(254,254,254)" transform="translate(0,0)"></path>
<path d="M 1006.93 555.335 C 1022.84 552.456 1081.2 574.876 1100.51 580.984 C 1155.5 597.861 1210.32 615.32 1264.94 633.358 L 1417.03 682.396 C 1458.2 695.572 1499.47 708.24 1540.19 722.955 C 1529.57 731.154 1516.9 739.798 1505.65 747.136 C 1500.18 750.703 1495.23 751.697 1488.91 750.028 C 1473.99 746.086 1458.56 740.62 1443.91 735.641 C 1421.35 727.905 1398.69 720.475 1375.93 713.351 L 1128.82 634.085 C 1090.6 621.936 1057.18 609.786 1018.21 599.111 C 1001.34 595.142 879.636 639.923 855.243 647.809 C 780.923 671.838 703.912 696.389 629.882 721.663 C 611.891 727.843 593.97 734.226 576.123 740.81 C 567.641 743.891 539.182 755.563 531.785 752.487 C 517.72 746.637 500.569 735.067 487.365 726.683 C 505.105 717.525 547.969 705.287 569.115 698.421 L 716.888 649.766 L 906.719 585.419 C 934.632 576.133 978.349 559.838 1006.93 555.335 z" fill="rgb(254,254,254)" transform="translate(0,0)"></path>
<path d="M 1289 1518.56 C 1306.3 1516.7 1333.81 1518.12 1351.94 1518.44 C 1379.22 1518.8 1406.49 1518.96 1433.77 1518.95 C 1555.61 1518.88 1677.45 1520.86 1799.23 1524.88 C 1811.46 1525.27 1823.69 1525.47 1835.92 1525.49 C 1844.47 1525.45 1864.46 1524.53 1871.91 1526.42 C 1875.38 1530.06 1876.26 1538.53 1874.37 1542.76 C 1864.96 1548.04 1687.7 1542.51 1660.44 1542.22 C 1350.89 1538.48 1041.3 1538.86 731.75 1543.36 C 711.058 1544.27 689.887 1543.73 669.113 1544.17 L 467.5 1547.09 L 281.382 1550.92 C 250.226 1551.72 219.173 1554.06 187.964 1553.07 C 179.016 1552.78 161.343 1556.31 155.256 1550.31 C 152.326 1544.04 154.233 1539.09 155.581 1532.22 C 186.715 1529.65 221.54 1530 252.763 1529.65 L 389.998 1527.22 C 599.322 1523.4 808.668 1521.01 1018.02 1520.05 L 1179.01 1518.96 C 1210.17 1518.99 1259.64 1520.51 1289 1518.56 z" fill="rgb(254,254,254)" transform="translate(0,0)"></path>
<path d="M 1142.44 1261.55 C 1161.33 1260.59 1184.56 1261.76 1203.99 1261.84 L 1331.5 1262.19 C 1480.57 1261.27 1629.65 1262.41 1778.69 1265.59 C 1791.73 1265.82 1860.64 1264.48 1867.07 1266.7 C 1870.13 1267.75 1872.65 1269.57 1874 1272.62 C 1875.66 1276.37 1875.53 1280.48 1873.92 1284.19 C 1869.21 1288.81 1862.89 1286.65 1856.71 1286.58 L 1823.68 1285.99 C 1783.35 1285.31 1742.6 1284.26 1702.34 1284.04 C 1427.96 1281.09 1153.55 1280.56 879.161 1282.45 C 842.162 1283.2 804.995 1282.62 768.001 1282.94 L 499 1287.37 C 445.668 1288.77 390.775 1289.45 337.749 1291.55 C 304.003 1293.06 270.244 1294.26 236.476 1295.14 C 214.394 1295.89 192.095 1297.01 170.005 1296.72 C 164.598 1296.65 160.144 1296.9 156.176 1292.86 C 153.866 1287.53 155.319 1282.38 156.214 1276.56 C 178.287 1272.1 216.066 1273.89 240.359 1273.38 L 418.666 1269.77 L 1142.44 1261.55 z" fill="rgb(254,254,254)" transform="translate(0,0)"></path>
<path d="M 631.616 412.563 C 661.032 420.925 696.305 416.057 716.073 443.177 C 687.955 442.544 665.836 457.726 672.392 486.223 C 682.439 529.902 722.557 546.482 763.089 536.744 C 798.337 528.275 810.218 516.499 828.616 489.126 C 834.646 495.072 843.013 503.127 849.89 508.014 C 878.813 528.57 924.836 533.825 959.076 528.124 C 992.628 522.537 1000.64 512.827 1018.96 487.186 C 1047.45 524.867 1069.09 530.581 1115.72 529.631 C 1154.33 528.844 1187.68 517.902 1214.68 489.332 C 1236.33 533.971 1273.15 549.819 1321.4 543.438 C 1358.2 538.57 1365.39 502.329 1364.01 471.252 C 1363.71 464.403 1357.65 459.082 1352.59 455.624 C 1349.35 453.854 1345.21 452.587 1341.68 451.351 C 1329.66 454.363 1323.69 459.969 1312.96 466.261 L 1313.47 465.226 C 1328.66 434.914 1370.81 429.949 1402.07 419.372 C 1371.24 469.741 1364.11 512.402 1357.68 570.022 C 1343.65 570.218 1327.2 567.365 1312.92 565.932 C 1288.89 563.468 1264.81 561.493 1240.69 560.008 C 1203.22 557.655 1165.72 555.647 1128.21 553.986 C 1110.31 553.234 1091.73 553.21 1073.95 552.081 C 1052.82 550.74 1032.82 538.004 1010.99 538.107 C 990.565 538.203 968.402 551.05 948.894 552.441 C 933.126 553.566 912.783 551.034 896.35 552.022 C 884.673 552.725 873.081 553.688 861.463 554.257 C 833.001 555.429 804.553 556.91 776.123 558.698 C 763.68 559.562 699.786 565.841 690.066 564.171 C 678.501 556.594 675.512 515.353 672.1 505.529 C 660.311 471.585 649.555 442.969 631.616 412.563 z" fill="rgb(254,254,254)" transform="translate(0,0)"></path>
<path d="M 474.761 742.282 C 486.035 742.769 515.898 762.157 523.935 769.924 C 525.323 878.995 532.819 987.902 546.389 1096.13 C 550.785 1129.24 555.799 1162.27 561.426 1195.19 C 563.477 1206.61 570.897 1240.52 571.37 1249.95 C 560.29 1250.03 533.603 1252.24 525.744 1248.61 C 521.115 1242.81 517.29 1218.99 515.458 1210.37 C 482.732 1056.48 477.037 898.658 474.761 742.282 z" fill="rgb(254,254,254)" transform="translate(0,0)"></path>
<path d="M 1547.56 741.886 C 1551.13 742.424 1552.83 746.267 1554.74 749.136 C 1556.25 787.203 1552.21 829.97 1550.44 868.003 C 1546.1 961.294 1538.19 1052.84 1521.64 1144.79 C 1515.4 1179.52 1509.48 1212.21 1499.33 1246.18 C 1485.52 1246.68 1473.56 1247 1459.77 1246.62 C 1455.5 1246.27 1456.99 1247.16 1454.38 1244.99 C 1455.41 1235.28 1464.42 1201.57 1467.15 1189.36 C 1475.21 1154.19 1481.77 1118.7 1486.81 1082.97 C 1500.57 986.174 1505.79 884.886 1506.04 787.144 C 1506.06 781.052 1505.67 775.381 1505.89 769.139 C 1512.75 763.233 1539.64 745.586 1547.56 741.886 z" fill="rgb(254,254,254)" transform="translate(0,0)"></path>
<path d="M 1063.59 255.327 C 1091.85 252.743 1135.86 261.672 1160.43 276.263 C 1192.99 295.592 1204.24 311.197 1213.93 347.52 C 1200.66 352.992 1200.15 354.758 1194.49 368.164 C 1181.05 363.426 1167.94 358.923 1160.26 375.596 C 1153.5 391.535 1141.91 415.123 1148.29 432.937 C 1157.84 459.597 1173.43 435.58 1182.67 430.939 L 1184.34 431.59 C 1188.52 445.623 1179.13 457.066 1169.31 465.873 C 1166.88 467.913 1164.4 469.897 1161.88 471.823 C 1145.97 483.772 1128.11 487.924 1108.76 484.807 C 1086.04 481.148 1054.25 459.537 1058.73 433.416 C 1059.9 426.642 1066.71 421.174 1073.48 422.763 C 1079.33 426.36 1081.47 434.458 1084.1 441.023 L 1095.79 444.607 C 1101.7 434.479 1108.54 423.663 1111.86 412.416 C 1117 394.992 1108.45 376.136 1095.15 364.737 C 1084.11 355.279 1070.52 352.15 1056.83 348.548 C 1057.13 325.938 1057.96 303.335 1057.53 280.721 C 1057.39 273.166 1057.14 265.617 1058.21 258.114 C 1059.96 255.588 1059.77 256.343 1063.59 255.327 z" fill="rgb(254,254,254)" transform="translate(0,0)"></path>
<path d="M 961.203 254.582 C 965.53 254.03 971.335 253.975 975.803 253.801 C 978.12 280.333 979.026 321.922 978.038 348.529 C 957.092 350.752 942.427 357.426 929.987 376.767 C 916.944 397.045 926.331 428.445 944.5 442.934 C 946.764 444.74 950.358 444.435 953.123 443.624 C 957.053 440.117 957.995 413.671 970.415 422.395 C 1000.22 443.331 962.743 475.736 940.516 481.305 C 919.247 486.634 893.509 479.373 875.793 469.671 C 865.899 463.585 850.903 447.192 858.234 435.36 C 872.275 424.835 889.29 446.716 898.181 436.279 C 899.832 430.595 897.394 421.445 895.682 415.573 C 892.276 403.884 884.436 392.228 872.868 387.395 C 869.334 385.918 866.979 386.485 862.643 384.248 C 866.25 351.14 846.416 351.257 819.93 357.489 C 819.802 338.374 826.363 319.816 838.475 305.029 C 867.307 270.302 918.483 258.727 961.203 254.582 z" fill="rgb(254,254,254)" transform="translate(0,0)"></path>
<path d="M 748.596 1011.31 C 753.016 1010.57 766.173 1010.7 771.1 1010.75 C 826.041 1011.34 889.545 1045.93 926.017 1086.58 C 967.008 1132.26 989.213 1185.05 987.044 1247.02 C 968.626 1247.16 950.207 1247.19 931.789 1247.13 C 944.79 1188.76 923.686 1128.94 882.818 1086.47 C 856.963 1061.08 835.694 1045.85 800.112 1036 C 778.106 1029.78 755.811 1029.49 733.841 1035.95 C 724.246 1038.77 712.414 1039.74 710.132 1051.69 C 706.023 1073.19 736.075 1067.57 747.927 1068.16 L 748.59 1069.17 C 745.967 1077.01 736.682 1092.57 732.502 1102.3 C 733.491 1109.16 739.965 1127.11 736.401 1131.92 C 733.289 1132.45 705.689 1125.24 698.946 1124.14 C 694.676 1126.33 691.604 1127.96 687.778 1130.8 C 683.205 1134.19 671.852 1145.81 666.962 1147.36 C 662.012 1142.81 668.848 1119.88 663.487 1107.74 C 658.672 1096.84 658.968 1098.23 650.917 1088.19 C 670.147 1042 698.943 1019.89 748.596 1011.31 z" fill="rgb(254,254,254)" transform="translate(0,0)"></path>
<path d="M 1245.59 1012.38 C 1276.86 1008.96 1310.96 1017.84 1336.82 1035.86 C 1353.45 1047.45 1370.24 1062.76 1370.93 1084.8 C 1371.2 1093.44 1363.18 1100.78 1361.55 1108.66 C 1358.5 1123.43 1359.73 1138.22 1356.98 1153.21 C 1345.46 1140.43 1338 1130.82 1321.95 1124.36 C 1311.08 1126.28 1300.24 1128.32 1289.42 1130.49 C 1293.32 1117.88 1294.44 1110.21 1295.94 1097.06 C 1290.43 1085.09 1284.13 1078.05 1276.07 1067.8 C 1283.7 1067.96 1318.32 1073.12 1318.53 1059.06 C 1318.79 1042.28 1284.92 1032.38 1270.86 1031.27 C 1232.1 1028.23 1191.41 1046.39 1161.64 1070.37 C 1108.33 1113.62 1083.65 1179.35 1095.87 1246.96 C 1078.63 1247.4 1059.52 1246.87 1042.06 1246.92 C 1040.97 1199.48 1060.98 1143.32 1089.59 1105.55 C 1126.04 1057.43 1185.13 1019.91 1245.59 1012.38 z" fill="rgb(254,254,254)" transform="translate(0,0)"></path>
<path d="M 1005.87 613.155 C 1018.61 615.045 1026.3 615.946 1038.99 620.509 C 1072.31 632.498 1106.23 642.699 1139.84 653.877 L 1347.65 721.639 L 1439.11 751.029 C 1451.7 755.085 1467.76 758.585 1479.1 764.075 C 1472.05 768.724 1467.11 771.699 1459.68 775.675 C 1427.38 768.68 1384.58 752.452 1352.3 742.219 C 1291.93 722.919 1231.76 703.003 1171.8 682.475 C 1138.84 671.483 1105.55 661.799 1072.88 649.694 C 1055.91 643.408 1037.6 637.307 1020.25 632.137 L 1010.46 629.606 C 1000.15 632.692 986.182 638.334 975.653 642.118 C 953.991 649.915 932.257 657.507 910.453 664.893 L 667.901 746.062 C 639.064 755.557 598.566 770.866 569.799 778.278 C 561.877 774.504 558.347 771.615 551.406 766.337 C 563.275 761.036 592.52 752.325 606.417 747.581 C 653.384 731.628 700.456 715.984 747.629 700.65 L 911.681 645.586 C 932.425 638.458 953.279 631.668 973.888 624.193 C 984.564 620.32 994.931 616.295 1005.87 613.155 z" fill="rgb(254,254,254)" transform="translate(0,0)"></path>
<path d="M 1187.52 765.594 C 1193.66 765.156 1201.23 764.246 1207.1 765.224 C 1210.44 770.915 1210.59 804.482 1201.65 808.099 C 1195.24 805.405 1193.51 792.325 1189.22 786.789 C 1183.66 779.602 1121.55 780.48 1118.98 784.37 C 1113.82 792.203 1116.06 839.941 1117.29 850.774 C 1130.04 852.312 1140.42 852.492 1152.97 851.819 C 1178.94 850.426 1170.18 838.823 1176.77 830.944 C 1193.38 823.06 1185.44 860.703 1186.4 868.52 C 1187.11 874.26 1187.14 888.06 1185.45 893.199 C 1182.67 894.887 1182.37 894.619 1179.16 894.618 C 1170.9 889.796 1174.96 877.26 1168.56 871.581 C 1161.62 865.428 1126.47 867.819 1116.77 867.907 C 1116.59 880.458 1116.57 893.01 1116.69 905.561 C 1116.34 917.166 1114.96 936.275 1120.48 946.843 C 1124.48 953.939 1132.77 948.147 1138.63 950.451 C 1141.65 951.635 1146.36 955.157 1145.14 958.763 C 1142.34 961.191 1132.87 962.366 1129.75 961.358 C 1118.62 957.766 1066.38 967.194 1063.11 955.934 C 1066.01 949.468 1085.78 953.389 1087.86 946.883 C 1094.7 925.44 1092.22 877.915 1092.05 856.854 C 1091.89 835.035 1094.15 801.335 1090.26 783.801 C 1084.62 779.921 1079.27 776.539 1072.14 777.024 C 1067.15 777.364 1067.16 777.099 1065.56 773.095 C 1066.05 769.135 1065.29 770.795 1067.68 767.838 C 1077.65 763.98 1166.36 766.931 1187.52 765.594 z" fill="rgb(254,254,254)" transform="translate(0,0)"></path>
<path d="M 922.745 763.404 C 940.246 761.58 979.168 764.097 993.351 776.771 C 998.149 781.058 1000.94 818.275 1000.78 826.302 C 999.682 828.226 997.243 829.802 995.305 829.798 C 984.114 829.78 980.802 797.317 978.97 788.47 C 945.968 768.615 894.622 775.581 870.195 806.141 C 841.172 842.45 848.808 903.82 885.128 932.656 C 902.967 946.819 925.211 950.346 947.235 947.785 C 969.11 944.799 975.089 936.857 984.375 917.416 C 986.812 912.315 988.878 907.524 995.151 908.38 C 999.904 914.8 993.729 931.049 992.833 938.422 C 990.132 960.675 978.234 960.067 958.87 962.862 C 923.816 967.921 888.593 963.575 860.122 940.995 C 840.573 925.272 828.072 902.425 825.372 877.483 C 822.169 851.127 829.727 824.593 846.336 803.88 C 866.06 779.238 891.848 766.717 922.745 763.404 z" fill="rgb(254,254,254)" transform="translate(0,0)"></path>
<path d="M 1055.58 211.108 C 1065.79 211.242 1080.64 213.585 1090.9 215.184 C 1128.45 221.169 1167.17 229.546 1199.14 251.378 C 1236.23 276.712 1262.62 322.985 1263.24 368.275 C 1263.35 376.098 1264.22 386.918 1259.78 393.472 C 1256.73 395.219 1258.29 394.967 1254.98 394.483 C 1247.42 384.218 1261.73 364.295 1230.08 357.596 C 1229.71 335.022 1224.77 318.852 1213.01 299.552 C 1191.02 269.138 1158.53 252.906 1122.88 243.513 C 1110.15 240.159 1057.81 230.53 1046.72 239.166 C 1037.12 246.643 1042.1 335.819 1041.91 351.505 L 1030.3 354.882 C 1033.94 318.995 1013.85 222.462 1055.58 211.108 z" fill="rgb(254,254,254)" transform="translate(0,0)"></path>
<path d="M 973.551 213.426 C 976.787 213.049 983.899 213.038 987.44 212.919 C 994.956 219.36 1000.65 228.304 1002.54 238.128 C 1004.34 247.418 1005.01 257.16 1005.37 266.601 C 1005.8 277.908 1006.37 350.358 1001.2 356.686 C 1000.3 357.78 999.539 357.541 998.265 357.688 C 996.443 355.775 995.986 353.121 995.837 350.525 C 993.773 314.64 997.675 274.114 991.772 238.727 C 972.692 233.501 956.732 235.588 937.437 239.034 C 899.538 245.804 864.908 257.702 835.219 282.592 C 813.777 303.506 804.904 324.392 802.547 354.508 C 801.977 361.784 803.207 370.172 799.865 376.543 C 794.964 379.318 782.066 374.044 774.679 373.643 C 774.934 323.448 802.942 266.984 849.333 244.197 C 885.135 226.611 933.603 215.669 973.551 213.426 z" fill="rgb(254,254,254)" transform="translate(0,0)"></path>
<path d="M 1488.09 778.088 C 1490.55 781.31 1488.33 818.48 1488.14 824.712 C 1484.34 951.491 1473.26 1078.01 1445.54 1202 C 1443.88 1209.41 1437.83 1239.44 1434.09 1244.57 C 1430.89 1246.69 1427.22 1246.11 1423.28 1246.05 C 1422.68 1245.07 1443.64 1131.24 1445.81 1116.7 C 1456.48 1046.79 1463.92 976.422 1468.09 905.824 C 1470.29 866.614 1469.53 826.941 1470.15 787.668 L 1488.09 778.088 z" fill="rgb(254,254,254)" transform="translate(0,0)"></path>
<path d="M 546.697 784.2 C 552.159 785.003 555.409 788.658 559.469 792.257 C 560.261 801.605 560.021 816.558 560.199 826.343 C 560.574 844.573 561.168 862.799 561.984 881.015 C 565.133 942.471 570.018 1003.83 576.632 1065 C 581.583 1106.07 587.902 1146.95 595.577 1187.59 C 599.064 1205.84 604.2 1224.76 607.359 1243.13 C 608.046 1247.12 607.621 1247.63 605.719 1249.84 C 589.737 1250.85 591.48 1246.02 588.055 1231.72 C 576.078 1181.72 568.834 1130.93 562.518 1079.96 C 552.895 1005.83 547.148 931.26 545.298 856.538 C 544.752 836.038 543.06 815.968 542.874 795.591 C 542.826 790.328 543.061 787.549 546.697 784.2 z" fill="rgb(254,254,254)" transform="translate(0,0)"></path>
<path d="M 1233.71 260.802 C 1254.49 263.34 1281.94 278.256 1302.17 286.211 C 1342.01 301.881 1378.21 338.953 1388.26 381.211 C 1390.16 389.215 1397.44 401.919 1388.58 407.108 C 1384.39 409 1376.36 411.584 1371.74 413.206 C 1357.61 363.629 1334.81 331.327 1288.98 304.859 C 1277.4 298.171 1263.5 294.285 1252.4 287.43 C 1245.71 283.297 1235.26 269.152 1233.71 260.802 z" fill="rgb(254,254,254)" transform="translate(0,0)"></path>
<path d="M 788.441 262.15 C 791.644 261.911 791.682 261.61 794.425 263.1 C 802.724 282.199 776.296 287.385 763.532 291.882 C 708.341 311.329 675.367 343.766 665.96 401.816 L 653.757 400.797 C 640.662 399.798 645.871 392.611 647.356 384.617 C 660.027 316.396 725.073 277.061 788.441 262.15 z" fill="rgb(254,254,254)" transform="translate(0,0)"></path>
<path d="M 1133.14 570.112 C 1146.65 568.683 1199.94 572.916 1215.56 574.109 C 1263.71 577.433 1311.81 581.401 1359.85 586.011 L 1359.06 599.865 C 1350.33 600.353 1330.55 598.458 1321.43 597.746 L 1263.73 593.471 L 1214.13 589.828 C 1183.49 587.667 1161.29 584.328 1133.14 570.112 z" fill="rgb(254,254,254)" transform="translate(0,0)"></path>
<path d="M 896.539 567.406 C 899.098 567.119 899.946 567.213 902.542 567.366 L 902.599 568.238 C 893.401 572.951 880.534 575.079 870.752 579.136 C 847.213 588.9 821.88 587.595 796.36 589.273 C 761.262 591.348 726.213 594.199 691.24 597.824 C 690.548 597.805 688.662 597.378 687.899 597.228 C 684.709 594.624 684.845 594.801 683.107 591.068 C 683.209 589.545 682.914 588.243 683.992 587.04 C 694.301 575.534 868.268 569.796 896.539 567.406 z" fill="rgb(254,254,254)" transform="translate(0,0)"></path>
<path d="M 1240.07 606.022 C 1279.06 607.931 1316.24 611.888 1355.05 616.346 C 1354.43 624.672 1353.66 631.398 1352.48 639.672 C 1351.79 640.461 1351.14 640.437 1349.87 640.894 C 1336.25 638.534 1252.71 612.52 1240.07 606.022 z" fill="rgb(254,254,254)" transform="translate(0,0)"></path>
<path d="M 782.311 605.399 C 785.198 604.903 793.835 604.638 797.172 604.446 C 784.348 611.202 712.8 633.359 697.572 636.856 L 688.365 638.517 C 687.714 633.32 685.554 621.611 687.808 617.208 C 699.432 609.942 765.67 607.307 782.311 605.399 z" fill="rgb(254,254,254)" transform="translate(0,0)"></path>
<path d="M 929.638 167.224 C 937.986 167.466 946.2 171.539 947.673 180.504 C 948.384 184.758 947.284 189.116 944.64 192.523 C 940.678 197.695 936.372 198.735 930.339 199.686 C 907.113 196.984 902.717 173.949 929.638 167.224 z" fill="rgb(254,254,254)" transform="translate(0,0)"></path>
<path d="M 809.311 206.126 C 834.308 205.027 832.487 231.045 810.004 239.224 C 786.93 241.291 784.329 215.25 809.311 206.126 z" fill="rgb(254,254,254)" transform="translate(0,0)"></path>
<path d="M 612.874 362.128 C 637.829 362.664 636.547 385.536 615.054 394.798 C 590.339 395.191 587.199 367.781 612.874 362.128 z" fill="rgb(254,254,254)" transform="translate(0,0)"></path>
<path d="M 1273.04 229.074 C 1292.87 228.384 1315.03 251.476 1292.04 261.25 C 1281.09 261.049 1275.05 257.614 1266.76 250.957 C 1262.06 238.806 1261.58 236.129 1273.04 229.074 z" fill="rgb(254,254,254)" transform="translate(0,0)"></path>
<path d="M 747.657 224.95 C 751.381 225.207 755.054 225.956 758.581 227.178 C 765.111 229.479 769.674 235.775 766.729 242.736 C 763.938 249.334 757.625 252.498 751.318 254.998 C 746.601 255.986 742.315 256.448 737.829 254.181 C 734.828 252.691 732.565 250.039 731.567 246.84 C 727.904 234.962 737.874 228.109 747.657 224.95 z" fill="rgb(254,254,254)" transform="translate(0,0)"></path>
<path d="M 867.981 185.983 C 892.978 187.627 889.019 211.801 867.534 217.116 C 861.581 216.504 852.693 214.376 850.641 208.266 C 845.988 194.411 858.69 189.1 867.981 185.983 z" fill="rgb(254,254,254)" transform="translate(0,0)"></path>
<path d="M 690.575 257.073 C 717.609 259.196 712.12 279.225 691.731 286.931 C 666.11 288.433 667.316 263.795 690.575 257.073 z" fill="rgb(254,254,254)" transform="translate(0,0)"></path>
<path d="M 1384.19 293.108 C 1407.39 291.786 1417.41 314.673 1395.97 325.079 C 1378.63 322.252 1363.93 306.474 1384.19 293.108 z" fill="rgb(254,254,254)" transform="translate(0,0)"></path>
<path d="M 1216.2 209.009 C 1232.06 208.695 1254.81 226.468 1232.71 238.295 C 1212.32 241.088 1195.58 219.521 1216.2 209.009 z" fill="rgb(254,254,254)" transform="translate(0,0)"></path>
<path d="M 637.737 299.046 C 658.89 297.194 661.031 323.387 640.487 330.221 C 639.316 330.206 638.147 330.136 636.982 330.012 C 628.529 329.169 620.463 322.983 623.164 313.629 C 625.566 305.311 630.707 302.806 637.737 299.046 z" fill="rgb(254,254,254)" transform="translate(0,0)"></path>
<path d="M 1016.58 176.969 C 1024.13 178.231 1031.75 181.813 1033.91 189.831 C 1034.8 193.159 1034.29 196.706 1032.51 199.652 C 1029.46 204.759 1024.79 206.48 1019.42 207.945 C 995.764 207.387 996.343 187.601 1016.58 176.969 z" fill="rgb(254,254,254)" transform="translate(0,0)"></path>
<path d="M 1334.11 259.122 C 1357.08 256.418 1366.47 279.984 1347.19 287.736 C 1329.82 286.364 1311.86 271.692 1334.11 259.122 z" fill="rgb(254,254,254)" transform="translate(0,0)"></path>
<path d="M 1152.98 189.031 C 1171.27 187.243 1189.78 206.235 1169.26 216.448 C 1156.31 218.938 1143.32 211.291 1145.61 196.052 C 1146.14 192.497 1149.94 190.735 1152.98 189.031 z" fill="rgb(254,254,254)" transform="translate(0,0)"></path>
<path d="M 1098.62 165.846 C 1115.04 167.864 1127.36 188.173 1107.93 198.02 C 1095.31 198.103 1084.88 185.91 1089.31 173.393 C 1091.06 168.463 1094.07 167.814 1098.62 165.846 z" fill="rgb(254,254,254)" transform="translate(0,0)"></path>
<path d="M 1056.27 145.042 C 1074.07 145.57 1080.84 166.513 1063.02 176.899 C 1048.35 177.841 1043.02 166.999 1046.75 153.25 C 1047.96 148.834 1052.35 147.024 1056.27 145.042 z" fill="rgb(254,254,254)" transform="translate(0,0)"></path>
<path d="M 971.004 145.064 C 991.434 144.026 996.322 164.932 979.03 175.933 C 958.959 177.607 955.027 153.62 971.004 145.064 z" fill="rgb(254,254,254)" transform="translate(0,0)"></path>
<path d="M 1410.97 365.772 C 1419.06 366.759 1424.2 367.648 1428.97 374.832 C 1434.68 383.446 1432.14 392.058 1423.53 397.235 C 1406.04 399.001 1396.43 378.181 1410.97 365.772 z" fill="rgb(254,254,254)" transform="translate(0,0)"></path>
<path d="M 1017.16 52.6225 C 1023.12 59.9815 1023.23 65.5653 1033.16 75.5256 C 1029.43 83.3509 1024.78 91.0714 1020.44 98.6018 L 1019.19 99.7097 C 1017.87 98.5289 1008.04 77.1104 1006.07 73.5721 C 1011.64 66.2903 1013.81 61.0124 1017.16 52.6225 z" fill="rgb(254,254,254)" transform="translate(0,0)"></path>
<path d="M 1014.33 142.121 C 1031.86 141.826 1046.36 156.004 1024.14 164.76 C 1022.18 164.857 1013.74 165.378 1012.41 164.91 C 994.253 158.531 999.993 147.137 1014.33 142.121 z" fill="rgb(254,254,254)" transform="translate(0,0)"></path>
<path d="M 973.109 73.0798 C 988.053 72.4705 1002.16 93.7072 1003.4 106.353 L 1001.9 107.779 L 986.6 109.359 C 983.43 86.8188 979.977 90.4431 971.342 75.1891 L 973.109 73.0798 z" fill="rgb(254,254,254)" transform="translate(0,0)"></path>
<path d="M 1062.51 74.9794 L 1063.53 76.3629 C 1054.84 89.1016 1053.2 96.9793 1048.52 111.658 C 1044.18 110.836 1039.59 109.604 1035.28 108.549 L 1033.05 107.714 L 1032.81 106.475 C 1038.11 95.879 1051.4 80.1006 1062.51 74.9794 z" fill="rgb(254,254,254)" transform="translate(0,0)"></path>
<path d="M 1004.72 124.531 C 1022.69 123.738 1030.34 122.891 1047.25 128.634 C 1032.16 133.152 1037.43 128.828 1022.15 127.534 L 1020.98 127.446 C 1013.43 127.498 985.768 132.662 981.68 128.525 C 987.987 124.703 997.512 124.745 1004.72 124.531 z" fill="rgb(246,246,246)" transform="translate(0,0)"></path>
<path d="M 71.5554 1693.24 C 92.9249 1693.89 111.582 1692.72 133.498 1695.05 C 174.136 1699.38 211.579 1715.92 238.128 1747.75 C 262.919 1777.47 266.765 1821.33 263.067 1858.54 C 259.476 1894.69 242.219 1921.36 213.543 1943.54 C 174.374 1971.77 136.349 1969.04 90.1135 1970.11 C 85.8945 1970.2 76.4604 1970.04 73.4751 1967.8 C 59.0981 1957.04 81.2589 1954.04 83.5147 1945.36 C 84.9727 1875.68 84.5467 1805.53 82.6367 1735.8 C 82.3955 1727 80.4688 1717.79 77.0814 1710.76 C 70.7971 1708.95 63.0371 1706.77 64.5821 1698.56 C 67.0564 1695.08 67.5047 1695.08 71.5554 1693.24 z" fill="rgb(65,65,65)" transform="translate(0,0)"></path>
<path d="M 107.084 1718.34 C 110.907 1718.1 114.735 1717.95 118.565 1717.88 C 151.263 1717.38 191.432 1722.1 214.455 1746.98 C 257.66 1793.68 255.049 1876.35 211.857 1920.6 C 187.546 1943.14 164.457 1948.01 132.116 1948.24 C 103.663 1948.43 104.619 1952.43 105.029 1922.52 C 105.949 1855.35 102.811 1787.94 103.43 1720.86 C 103.442 1719.52 105.93 1718.89 107.084 1718.34 z" fill="rgb(254,254,254)" transform="translate(0,0)"></path>
<path d="M 852.366 1697.51 C 855.258 1698.09 857.242 1697.84 858.509 1700.39 C 865.418 1714.3 871.799 1732.4 877.532 1746.82 L 929.366 1876.31 C 937.174 1895.62 944.711 1915.79 953.174 1934.75 C 955.291 1939.5 959.347 1945.16 963.6 1948.11 C 967.731 1950.97 968.703 1951.55 969.688 1956.09 C 966.852 1962.85 953.759 1960.12 947.485 1960.42 C 942.126 1960.68 929.572 1962.8 927.869 1956.48 C 925.6 1948.05 934.566 1949.06 937.758 1941.82 C 937.457 1932.71 918.993 1891.48 914.294 1881.26 C 895.424 1880.62 874.298 1881 855.25 1880.91 C 834.531 1880.81 813.812 1881.04 793.101 1881.61 C 787.009 1893.17 768.418 1934.76 765.071 1945.44 C 769.489 1948.19 772.575 1949.54 774.856 1953.98 C 775.019 1965.61 742.536 1963.57 736.391 1956.86 C 734.953 1949.47 742.134 1947.49 747.662 1945.06 C 752.966 1937.92 771.225 1894.55 775.306 1884.69 C 792.89 1842.96 810.259 1801.14 827.412 1759.23 C 833.96 1743.18 845.213 1710.92 852.366 1697.51 z" fill="rgb(65,65,65)" transform="translate(0,0)"></path>
<path d="M 853.355 1734.42 C 859.386 1739.01 903.257 1850.87 906.289 1864.44 C 893.337 1865.87 869.001 1865.41 855.595 1865.27 C 845.629 1865.18 811.126 1866.05 803.703 1864.17 C 802.605 1860.81 804.775 1852.88 806.168 1849.45 C 818.424 1819.33 830.841 1789.28 842.72 1759.01 C 845.933 1750.82 849.102 1742.1 853.355 1734.42 z" fill="rgb(254,254,254)" transform="translate(0,0)"></path>
<path d="M 1496.6 1688.58 C 1500.85 1688.6 1502.45 1688.69 1505.51 1692.16 C 1519.33 1707.8 1531.64 1724.87 1544.53 1741.3 C 1573.85 1778.24 1603.56 1814.87 1633.67 1851.16 C 1644.79 1864.41 1655.3 1878.55 1667.1 1891.2 C 1670.71 1895.08 1677.8 1901.54 1682.35 1895.2 C 1684.44 1879.19 1683.38 1865.09 1683.13 1849.09 C 1682.47 1805.42 1684.18 1761.63 1681.41 1718.01 C 1680.94 1710.64 1677.77 1703.7 1669.7 1702.56 C 1665.59 1701.75 1664.82 1695.79 1667.8 1692.27 C 1676.24 1690.41 1706.3 1687.69 1711.57 1695.27 C 1711.09 1701.61 1706.47 1703.08 1701.45 1706.18 C 1698.87 1723.43 1700.76 1750.46 1700.85 1768.61 C 1701.14 1833.29 1702.02 1897.86 1702.05 1962.56 C 1699.82 1962.98 1697 1963.79 1694.96 1962.38 C 1687.34 1957.11 1665.85 1927.27 1658.96 1918.45 C 1644.1 1899.42 1536.53 1758.71 1524.99 1754.67 C 1522.59 1753.82 1522.17 1754.19 1520.13 1755.34 C 1517.16 1763.12 1518.82 1780.12 1518.84 1789.07 L 1519.86 1871.01 C 1519.94 1892.88 1518.97 1915.35 1519.58 1937.28 C 1519.79 1944.96 1531.54 1949.37 1530.57 1957.72 C 1526.67 1960.63 1514.99 1960.72 1509.98 1960.51 C 1501.16 1960.14 1494.6 1964.25 1489.8 1955.53 C 1490.08 1944.88 1502.81 1951.17 1502.43 1933.73 C 1501.4 1887.08 1502.53 1840.4 1500.18 1793.77 C 1499.16 1773.43 1500.73 1752.29 1499.71 1731.92 C 1499.05 1720.53 1497.69 1709.19 1495.63 1697.97 C 1494.8 1693.29 1494.44 1693.14 1496.6 1688.58 z" fill="rgb(65,65,65)" transform="translate(0,0)"></path>
<path d="M 1869.05 1689.32 C 1901.46 1687 1926.21 1695.86 1949.82 1719.14 C 1955.15 1724.39 1971.46 1744.07 1949.25 1748.83 C 1947.78 1749.14 1938.58 1738.88 1936.58 1736.9 C 1869.65 1670.67 1805.49 1748.48 1805.6 1819.41 C 1804.08 1853.79 1815.89 1888.54 1838.17 1914.74 C 1878.38 1962 1953.33 1926.77 1952.46 1868.1 C 1952.4 1864.43 1953.1 1861.24 1950.37 1858.28 C 1945.72 1856.56 1934.34 1856.79 1928.75 1856.63 C 1920.14 1856.2 1901.54 1859.24 1895.34 1853.07 C 1893.15 1850.9 1892.48 1846.93 1892.72 1843.95 C 1892.96 1841.04 1894.28 1837.78 1896.8 1836.11 C 1901.26 1833.18 1960.73 1835.29 1970.35 1835.78 C 1974.26 1869.08 1981.73 1890.05 1962.03 1919.05 C 1922.97 1976.52 1859.18 1977.5 1814.49 1926 C 1786.69 1893.95 1783.2 1856.05 1783.84 1815.3 C 1783.47 1759.7 1807.28 1698.64 1869.05 1689.32 z" fill="rgb(65,65,65)" transform="translate(0,0)"></path>
<path d="M 470.786 1692.85 C 474.837 1692.93 476.051 1692.85 478.934 1695.46 C 482.295 1702.01 482.638 1724.7 475.475 1729.46 C 469.881 1727.79 463.886 1715.07 456.212 1714.02 C 445.966 1712.62 435.877 1712.94 425.563 1712.98 C 405.045 1713.09 384.53 1713.43 364.02 1713.99 C 363.941 1745.72 364.114 1787.68 365.786 1818.9 C 383.597 1819.57 412.958 1821.52 428.996 1816.27 C 432.586 1811.4 433.407 1808.99 439.539 1808.24 C 447.319 1813.27 445.775 1840.24 443.611 1847.73 C 441.103 1850.02 442.544 1849.39 439.123 1849.64 C 434.694 1848.07 434.562 1845.67 431.425 1842.38 C 424.906 1835.38 415.142 1835.5 406.297 1835.6 C 392.882 1835.75 379.435 1835.92 366.005 1836.1 C 365.993 1853.44 364.45 1931.78 369.39 1941.72 C 375.692 1945.68 420.97 1944.59 431.514 1944.58 C 438.533 1944.25 459.836 1944.94 465.281 1942.45 C 468.495 1940.97 473.937 1928.59 481.924 1927.63 L 483.493 1929.14 C 486.376 1936.73 485.88 1962.41 479.031 1967.77 C 467.947 1965.2 456.453 1962.36 445.014 1962.67 C 419.608 1963.36 394.183 1964.09 368.763 1963.48 C 359.933 1963.27 343.787 1965.06 335.893 1962.58 C 332.773 1959.13 333.564 1961.05 332.953 1956.84 C 335.452 1949.84 340.079 1947.92 346.357 1944.05 C 348.84 1932.08 348.83 1915.3 349.227 1902.85 C 350.364 1867.25 348.367 1831.4 347.724 1795.76 C 347.329 1773.87 347.878 1752.31 346.756 1730.25 C 346.199 1721.01 342.431 1710.17 343.233 1701.1 C 343.818 1694.48 363.307 1696.77 368.597 1696.84 L 428.638 1697.4 C 441.968 1697.46 459.204 1699.35 470.786 1692.85 z" fill="rgb(65,65,65)" transform="translate(0,0)"></path>
<path d="M 536.415 1695.98 C 587.758 1697.02 638.91 1696.94 690.202 1697.07 C 694.803 1697.08 697.592 1729.14 687.668 1733.12 C 678.489 1729.64 684.093 1722.07 677.658 1715.14 C 670.02 1711.47 637.422 1712.51 627.309 1712.85 C 624.819 1731.07 626.322 1770.67 626.519 1789.88 L 627.824 1928.25 L 628.076 1942.8 C 633.435 1946.36 641.436 1950.67 640.53 1957.99 C 635.018 1963.04 598.841 1966.93 598.36 1954.64 C 601.328 1948.31 605.928 1946.41 611.912 1942.9 C 612.446 1906.19 610.122 1867.04 610.07 1829.62 L 610.08 1755.67 C 610.066 1742.53 610.502 1725.78 609.447 1713.07 C 597.186 1712.7 584.92 1712.49 572.654 1712.43 C 566.522 1712.45 556.639 1712.28 551.543 1715.78 C 545.57 1719.88 546.514 1729.08 541.427 1734.19 C 537.679 1735.06 539.421 1735.23 536.001 1733.91 C 529.932 1726.95 531.85 1703.67 536.415 1695.98 z" fill="rgb(65,65,65)" transform="translate(0,0)"></path>
<path d="M 1169.15 1691.36 C 1179.39 1691.29 1196.46 1688.81 1204.38 1693.92 C 1207.92 1700.68 1200.59 1704.56 1195.72 1707.97 C 1195.2 1712.01 1194.75 1716.15 1194.71 1720.22 C 1194.95 1764.32 1196.25 1808.29 1196.61 1852.39 C 1196.82 1878.09 1193.45 1917.03 1197.31 1941.66 C 1223.23 1942 1266.35 1948.07 1287.57 1936.82 C 1290.29 1932.16 1292.64 1925.94 1298.87 1928.42 C 1303.03 1933.7 1302.02 1938.36 1301.84 1945.06 C 1301.35 1951.57 1301.92 1954.09 1297.48 1958.31 C 1293.28 1959.15 1257.84 1959.19 1251.56 1959.04 C 1226.35 1958.47 1196.15 1960.65 1171.52 1958.97 C 1169.52 1956.43 1170.18 1957.49 1169.37 1954.11 C 1170.38 1947.91 1174.02 1945.64 1178.62 1941.76 C 1181.85 1921.75 1180.07 1893.51 1179.44 1873.21 C 1177.76 1819.02 1178.83 1764.64 1177.02 1710.51 C 1173.21 1706.21 1169.01 1702.6 1167.1 1697.48 C 1167.43 1693.02 1166.72 1694.97 1169.15 1691.36 z" fill="rgb(65,65,65)" transform="translate(0,0)"></path>
<path d="M 1399 1689.38 C 1403.6 1689.77 1408.83 1691.45 1408.73 1696.7 C 1406.91 1700.6 1400.45 1705.13 1396.75 1708.26 C 1392.63 1719.47 1395.91 1804.47 1396.18 1822 C 1396.76 1860.3 1394.92 1905.64 1398.28 1943.48 C 1403.74 1946.58 1412.17 1949.72 1409.74 1957.11 C 1403.16 1962.29 1389.59 1960.61 1381.16 1960.37 C 1374.65 1960.55 1368.39 1961.79 1367.51 1953.51 C 1369.99 1946.92 1372.64 1946.18 1378.82 1942.88 C 1380.66 1911.93 1379.14 1874.03 1378.72 1842.33 C 1378.17 1802.09 1381.02 1748.34 1377.43 1709.04 C 1372.84 1704.66 1362.81 1699.36 1365.97 1691.9 C 1371.36 1688.54 1389.41 1690.28 1399 1689.38 z" fill="rgb(65,65,65)" transform="translate(0,0)"></path>
<path d="M 1033.27 1692.01 C 1039.7 1691.82 1065.5 1690.31 1070.15 1693.92 C 1071.24 1694.77 1070.97 1696.08 1071.13 1697.79 C 1068.92 1703.84 1065.15 1706.06 1060.19 1710.19 C 1057.98 1743.51 1060.73 1792.41 1061.1 1826.42 C 1061.51 1863.06 1060.04 1904.3 1062.14 1940.44 C 1066.66 1945.47 1071.91 1947.25 1074.26 1953.41 C 1074.17 1956.99 1074.34 1956.8 1072.61 1959.88 C 1063.57 1960.25 1032.92 1964.12 1031.77 1953.16 C 1034.51 1947.94 1039.22 1945.35 1044.36 1942.91 C 1047.53 1911.74 1044.16 1857.5 1043.95 1825.21 L 1044.04 1757.69 C 1044.07 1742.36 1044.76 1725.14 1042.34 1710.22 C 1036.04 1703.44 1029.83 1701.87 1033.27 1692.01 z" fill="rgb(65,65,65)" transform="translate(0,0)"></path>
<metadata><recraft-signature>{"signed_by": "recraft", "signature_b64": "iEMIbx3T4m+n69GPXKID4tl00llmFFGrZ2sorWDJrMrQ65odNxfNfkHmXhLmoHgNPl4APTdAIX2tuq7EaFS3CA==", "signing_algo": "Ed25519", "generation_timestamp": 1778256955, "identifier": "cb364718-35f0-4d6e-aad4-01e51c25d363"}</recraft-signature></metadata></svg>