<svg xmlns="http://www.w3.org/2000/svg" height="1024" preserveAspectRatio="none" style="display: block;" version="1.1" viewBox="0 0 2048 2048" width="1024">
<path d="M 0 0 L 2048 0 L 2048 2048 L 0 2048 L 0 0 z" fill="rgb(254,254,254)" transform="translate(0,0)"></path>
<path d="M 829.196 451.505 C 881.157 449.969 938.334 451.108 990.429 451.207 L 1219.91 451.512 C 1204.23 492.4 1244.96 524.689 1275.77 543.569 C 1328.52 575.9 1388.65 592.352 1449.74 599.159 C 1453.42 806.208 1415.6 1067.25 1304.34 1244.7 L 1755.12 1243.36 C 1750.69 1278.56 1748.54 1333.81 1746.81 1369.75 C 1740.36 1525.19 1742.88 1680.88 1754.37 1836.03 L 1186.49 1832.68 L 1080.65 1832.02 C 1061.67 1845.11 1041.28 1863.1 1023.08 1877.88 C 1006.41 1864.25 983.289 1843.31 965.979 1832.01 L 295.692 1836.09 C 296.504 1812.01 298.629 1786.08 299.916 1761.8 C 302.291 1717.13 303.915 1672.41 304.788 1627.68 C 306.927 1497.43 302.065 1373.6 296.702 1244.09 L 736.687 1244.36 C 719.868 1214.86 699.244 1176.17 685.981 1144.56 C 615.448 976.428 593.999 778.498 596.286 597.369 C 675.751 586.653 755.249 565.938 811.666 503.104 C 819.158 494.76 829.337 480.763 830.554 469.359 C 830.831 466.764 829.45 454.967 829.196 451.505 z" fill="rgb(1,1,1)" transform="translate(0,0)"></path>
<path d="M 390.63 1259.29 C 539.591 1261.12 691.472 1259.72 840.647 1259.64 L 1659.22 1259.24 C 1666.33 1267.19 1676.27 1276.41 1683.91 1284.42 L 1732.91 1336.67 C 1729.68 1366.64 1729.18 1404.26 1728.44 1434.34 C 1726.62 1498.69 1726.65 1563.09 1728.52 1627.44 C 1729.7 1668.18 1732.85 1711.99 1733.11 1752.23 C 1714.11 1771.93 1695.64 1792.22 1676.27 1811.54 C 1668.09 1819.71 1668.65 1819.24 1657.75 1819.09 C 1232.35 1815.37 806.917 1815.37 381.512 1819.09 C 363.734 1801.58 334.218 1768.53 315.9 1753.92 C 320.246 1669 321.866 1583.96 320.759 1498.93 C 320.143 1443.56 318.088 1388.61 316.871 1333.38 C 336.792 1313.05 370.464 1276.27 390.63 1259.29 z" fill="rgb(254,254,254)" transform="translate(0,0)"></path>
<path d="M 433.074 1545.16 C 459.273 1545.1 495.752 1540.63 516.202 1560.65 C 538.39 1582.36 537.279 1618.03 516.424 1640.52 C 494.761 1659.61 460.813 1655.88 433.005 1655.75 L 433.074 1545.16 z" fill="rgb(1,1,1)" transform="translate(0,0)"></path>
<path d="M 443.775 1555.18 C 478.968 1554.75 520.07 1551.25 521.383 1601.31 C 521.725 1614.37 517.698 1623.23 509.224 1632.93 C 490.075 1649.08 467.981 1645.93 443.748 1645.83 L 443.775 1555.18 z" fill="rgb(254,254,254)" transform="translate(0,0)"></path>
<path d="M 571.781 1374.83 C 598.537 1370.25 623.956 1388.18 628.613 1414.92 C 633.269 1441.67 615.407 1467.14 588.676 1471.87 C 561.84 1476.62 536.249 1458.67 531.574 1431.82 C 526.9 1404.97 544.919 1379.43 571.781 1374.83 z" fill="rgb(1,1,1)" transform="translate(0,0)"></path>
<path d="M 572.589 1384.3 C 586.748 1381.64 601.239 1386.83 610.49 1397.88 C 619.741 1408.92 622.312 1424.1 617.213 1437.57 C 612.115 1451.04 600.142 1460.72 585.898 1462.87 C 564.411 1466.12 544.284 1451.55 540.654 1430.12 C 537.025 1408.7 551.231 1388.31 572.589 1384.3 z" fill="rgb(254,254,254)" transform="translate(0,0)"></path>
<path d="M 912.143 1545.09 C 913.116 1545.21 915.999 1545.5 916.329 1546.09 C 927.513 1565.86 960.833 1637.18 967.617 1654.5 C 964.792 1655.83 960.169 1655.28 956.716 1655.25 C 952.306 1645.64 947.746 1636.11 943.038 1626.64 C 932.725 1626.09 920.928 1626.25 910.5 1626.17 L 880.386 1626.07 C 878.272 1630.63 868.905 1654.03 863.253 1656.04 C 861.698 1656.59 857.458 1655.81 855.735 1654.68 C 858.67 1641.61 898.969 1565.17 905.338 1548.07 C 906.29 1545.51 909.254 1545.65 912.143 1545.09 z" fill="rgb(1,1,1)" transform="translate(0,0)"></path>
<path d="M 910.662 1557.49 C 916.115 1560.75 935.388 1607.67 939.297 1617.03 L 914.5 1617.04 L 884.383 1616.92 C 892.145 1597.76 902.335 1576.87 910.662 1557.49 z" fill="rgb(254,254,254)" transform="translate(0,0)"></path>
<path d="M 685.05 1375.57 L 695.543 1375.97 C 705.006 1395.65 714.324 1415.39 723.497 1435.2 C 728.844 1446.58 734.941 1458.37 739.612 1469.96 C 738.236 1471.25 735.462 1470.73 732.929 1470.78 C 728.01 1468.74 721.868 1453.86 718.599 1447.91 L 695.5 1448.23 L 661.12 1448.89 C 657.386 1456.16 651.304 1476.72 641.128 1470.2 C 641.095 1469.33 641.063 1468.47 641.031 1467.6 C 653.135 1442.97 675.725 1398.67 685.05 1375.57 z" fill="rgb(1,1,1)" transform="translate(0,0)"></path>
<path d="M 690.054 1386.47 C 693.387 1389.62 711.42 1432.33 714.421 1438.97 L 691.5 1439.07 L 666.486 1438.98 C 673.217 1422.52 682.468 1402.54 690.054 1386.47 z" fill="rgb(254,254,254)" transform="translate(0,0)"></path>
<path d="M 952.743 1375.46 L 963.379 1375.23 L 989.321 1432.78 C 993.877 1442.81 1002.05 1459.5 1005.06 1469.53 L 1003.18 1470.54 C 992.23 1470.61 989.219 1455.7 985.565 1446.8 L 964.25 1446.83 L 930.245 1446.89 C 927.202 1454.28 922.67 1463.25 919.197 1470.61 L 908.508 1470.51 L 952.743 1375.46 z" fill="rgb(1,1,1)" transform="translate(0,0)"></path>
<path d="M 957.397 1385.71 C 959.939 1388.22 978.897 1431.87 981.658 1437.87 L 959.4 1437.92 L 933.899 1437.9 C 939.543 1421.73 950.173 1401.98 957.397 1385.71 z" fill="rgb(254,254,254)" transform="translate(0,0)"></path>
<path d="M 1418.41 1637.79 L 1418.61 1552.07 C 1418.58 1548.43 1418.83 1547.33 1421.04 1545.09 C 1424.11 1544.93 1425.09 1544.53 1427.73 1545.98 C 1428.7 1553.35 1428.28 1576.81 1428.17 1585.37 C 1427.87 1607.89 1428.9 1632.54 1427.87 1654.8 C 1425.76 1656.63 1422.34 1656.33 1419.29 1656.51 C 1413.13 1647.02 1402.2 1633.31 1395.17 1623.91 L 1347.12 1560.03 C 1347.15 1588.96 1346.95 1618.21 1347.83 1647.09 C 1347.96 1651.45 1348.22 1652.73 1345.49 1655.69 C 1342.34 1655.92 1341.48 1656.32 1338.7 1654.91 C 1336.26 1646.48 1338.74 1567.59 1337.85 1553.32 C 1337.66 1550.38 1337.54 1547.5 1339.67 1545.44 C 1341.32 1545.34 1347.87 1544.91 1348.71 1545.95 C 1372.3 1574.87 1396.73 1607.8 1418.41 1637.79 z" fill="rgb(1,1,1)" transform="translate(0,0)"></path>
<path d="M 1541.07 1544.21 C 1558.63 1542.61 1572.69 1545.43 1587.87 1556.43 C 1589.96 1557.94 1589.95 1559.39 1590.01 1561.39 C 1582.56 1573 1572.5 1557.92 1562.89 1555.21 C 1551.5 1551.99 1539.87 1553.46 1530.09 1559.12 C 1520.07 1564.91 1512.89 1574.58 1510.24 1585.84 C 1504.45 1610.97 1515.33 1641.77 1543.9 1647.3 C 1560.2 1650.46 1570.48 1644.9 1583.48 1636.01 L 1583.2 1608.46 L 1570.95 1608.24 C 1564.83 1608.32 1553.53 1610.16 1549.94 1605.6 C 1549.97 1601.08 1549.25 1600.96 1551.21 1597.66 C 1559.32 1596.25 1583.91 1596.96 1593.43 1597.02 C 1592.51 1610.84 1592.89 1626.56 1592.94 1640.57 C 1585.26 1647.41 1577.14 1653.47 1566.93 1655.98 C 1492.87 1674.22 1467.59 1562.21 1541.07 1544.21 z" fill="rgb(1,1,1)" transform="translate(0,0)"></path>
<path d="M 595.257 1545.2 C 604.311 1545.22 666.885 1543.99 670.867 1547.26 C 671.067 1550.55 671.448 1551.86 669.973 1554.83 C 667.529 1556.47 613.107 1555.86 605.814 1555.88 L 605.852 1593.18 C 617.886 1593.38 652.941 1591.71 661.823 1595.47 C 664.154 1598.49 663.386 1596.7 663.112 1601.42 C 658.782 1604.74 614.49 1603.27 605.975 1603.29 C 605.354 1615.42 605.884 1632.27 605.891 1644.77 L 674.518 1644.66 L 674.531 1655.02 L 594.962 1655.01 L 595.257 1545.2 z" fill="rgb(1,1,1)" transform="translate(0,0)"></path>
<path d="M 1270.26 1375.74 C 1271.71 1375.66 1278.19 1375.39 1279.02 1376.43 C 1298.85 1401.4 1319.23 1428.54 1338.5 1453.75 L 1338.35 1400.83 C 1338.3 1392.55 1335.5 1380.75 1341.83 1375.85 C 1345.78 1375.32 1344.19 1374.8 1346.97 1376.68 C 1348.35 1386.59 1347.75 1402.34 1347.69 1412.89 L 1347.26 1471.07 C 1343.76 1470.76 1340.71 1470.76 1338.03 1468.12 C 1329.26 1459.46 1321.89 1448.54 1314.51 1438.69 L 1278.99 1391.55 L 1278.78 1443.67 C 1278.81 1449.95 1282.3 1474.49 1271.56 1470.83 C 1268.73 1462.99 1270.17 1390.07 1270.26 1375.74 z" fill="rgb(1,1,1)" transform="translate(0,0)"></path>
<path d="M 1379.21 1375.5 C 1387.56 1375.4 1436.74 1373.86 1440.64 1377.14 C 1440.56 1380.51 1441.12 1381.44 1439.57 1383.8 C 1432.43 1385.2 1397.61 1384.5 1387.8 1384.46 L 1387.79 1416.89 C 1396.59 1416.95 1430.23 1414.78 1435.29 1419.66 C 1435.59 1422.92 1435.68 1422.74 1434.75 1425.85 C 1428.53 1427.87 1396.86 1426.86 1387.77 1426.92 L 1387.83 1461.4 C 1395.35 1461.56 1441.66 1460.35 1444.47 1462.36 C 1444.64 1465.35 1445.08 1467.19 1443.66 1469.8 C 1438.18 1471.2 1387.59 1470.49 1378.98 1470.45 L 1378.88 1410.45 C 1378.85 1400.39 1378.36 1385.19 1379.21 1375.5 z" fill="rgb(1,1,1)" transform="translate(0,0)"></path>
<path d="M 777.539 1375.15 C 794.76 1373.53 803.868 1375.3 817.876 1385.52 L 813.073 1393.09 C 799.954 1384.84 768.208 1372.8 764.212 1401.9 C 764.615 1411.2 783.994 1417.3 790.181 1418.21 C 832.258 1424.42 835.838 1467.93 790.139 1472.76 C 778.2 1471.64 761.112 1467.56 752.361 1459.01 C 751.157 1455.55 751.173 1457.27 752.545 1453.68 C 758.282 1450.65 767.219 1457.75 773.611 1460.17 C 785.451 1465.45 806.244 1465.12 811.652 1450.86 C 819.202 1431.17 784.991 1428.39 772.59 1423.04 C 756.428 1416.08 749.039 1407.12 757.538 1389.56 C 761.732 1380.89 768.84 1377.94 777.539 1375.15 z" fill="rgb(1,1,1)" transform="translate(0,0)"></path>
<path d="M 1493.76 1373.3 C 1507.44 1374.28 1512.54 1376.79 1524.1 1383.24 C 1522.65 1386.01 1521.22 1389.19 1519.86 1392.05 C 1480.74 1365.41 1442.29 1405.42 1502.37 1419.61 C 1546.82 1430.1 1537.14 1477.29 1487.23 1471.11 C 1477.14 1468.54 1468.92 1465.78 1461.55 1457.85 C 1460.58 1454.76 1461.07 1454.03 1461.75 1450.83 C 1462.25 1450.25 1462.76 1449.66 1463.26 1449.08 C 1478.69 1456.06 1482.93 1465.47 1501.81 1462.66 C 1517.39 1461.22 1528.82 1443.9 1511.91 1433.86 C 1498.95 1425.93 1465.22 1424.24 1462.36 1404.58 C 1459.25 1383.17 1477.75 1375.88 1493.76 1373.3 z" fill="rgb(1,1,1)" transform="translate(0,0)"></path>
<path d="M 725.176 1545.21 L 812.565 1545.17 L 812.494 1555.55 L 775.102 1555.73 L 775.029 1618.5 L 774.979 1655.54 L 764.018 1655.49 L 763.471 1555.95 C 754.537 1555.84 733.958 1556.59 726.052 1555.38 C 724.564 1552.71 725.097 1548.48 725.176 1545.21 z" fill="rgb(1,1,1)" transform="translate(0,0)"></path>
<path d="M 471.931 1375.23 C 490.383 1373.44 499.922 1378.25 513.856 1389.07 L 508.384 1397.04 C 498.231 1388.62 487.365 1382.62 473.568 1384.22 C 463.161 1385.41 453.704 1390.84 447.421 1399.22 C 440.956 1407.97 438.209 1418.91 439.776 1429.67 C 443.484 1455.33 463.963 1465.62 488.009 1461.73 C 498.059 1458.46 499.712 1456.67 507.135 1449.59 L 513.185 1456.68 C 506.778 1462.84 500.13 1467.33 491.526 1469.95 C 478.55 1473.87 464.53 1472.25 452.789 1465.47 C 422.54 1447.9 420.93 1401.27 451.158 1382.89 C 458.32 1378.54 463.951 1376.87 471.931 1375.23 z" fill="rgb(1,1,1)" transform="translate(0,0)"></path>
<path d="M 1144.57 1375.64 C 1154.9 1375.75 1200.12 1374.36 1206.56 1376.77 L 1207.74 1379.41 C 1207.46 1380.8 1207.59 1381.81 1206.46 1382.81 C 1202.37 1386.45 1162.4 1384.49 1154.19 1384.45 L 1154.24 1419.45 C 1169.13 1419.78 1184.71 1419.46 1199.65 1419.36 C 1201.45 1422.18 1201.62 1424.03 1200.09 1427.03 C 1193.73 1430.47 1163.21 1428.93 1154.17 1428.84 C 1154.16 1435.11 1154.82 1466.93 1153.04 1470.27 C 1150.02 1471.15 1149.28 1470.77 1146.16 1470.32 C 1143.49 1465.89 1144.46 1386.63 1144.57 1375.64 z" fill="rgb(1,1,1)" transform="translate(0,0)"></path>
<path d="M 1115.94 1545.16 C 1119.45 1545.06 1121.06 1545.15 1124.56 1545.49 C 1127.52 1548.7 1126.19 1637.11 1126.17 1646.18 C 1135.81 1646.13 1180.44 1644.91 1186.64 1646.64 C 1188.21 1649.4 1187.52 1652.55 1187.3 1655.9 L 1115.41 1655.77 C 1116.09 1618.86 1115.48 1582.04 1115.94 1545.16 z" fill="rgb(1,1,1)" transform="translate(0,0)"></path>
<path d="M 834.379 1375.72 C 844.525 1375.8 904.205 1374.27 908.362 1377.23 C 909.286 1381.22 909.383 1379.3 908.018 1383.2 C 904.957 1385.48 880.429 1384.45 875.109 1384.4 L 875.024 1437.5 C 875.039 1442.58 875.624 1467.84 873.723 1470.74 C 870.988 1471.02 870.151 1471.44 867.791 1470.15 C 864.264 1464.38 865.984 1451.2 865.953 1443.95 L 865.923 1384.53 C 855.842 1384.11 843.88 1386.19 835.759 1383.06 C 833.631 1380.12 834.394 1380.25 834.379 1375.72 z" fill="rgb(1,1,1)" transform="translate(0,0)"></path>
<path d="M 1540.67 1375.2 C 1551.58 1375.3 1606.39 1373.9 1612.26 1376.72 C 1612.96 1380.31 1613.14 1378.61 1611.63 1381.99 C 1605.65 1386 1589.56 1384.12 1581.4 1384 L 1581.63 1440.58 C 1581.67 1447.89 1582.29 1465.25 1580.23 1471.29 C 1577.39 1471.97 1576.86 1471.63 1574.01 1471.08 C 1571.19 1466.6 1572.61 1396.07 1572.5 1383.93 C 1562.93 1383.71 1550.48 1385.5 1542.56 1382.89 C 1540 1380.13 1540.89 1380.17 1540.67 1375.2 z" fill="rgb(1,1,1)" transform="translate(0,0)"></path>
<path d="M 1026.62 1375.85 C 1029.92 1375.73 1032.64 1375.26 1035.59 1376.59 C 1036.48 1384.11 1036.07 1398.8 1036.07 1406.87 L 1036.02 1461.96 C 1046.69 1461.92 1082.27 1461.17 1090.35 1462.42 C 1091.97 1464.81 1091.47 1467.81 1091.44 1470.88 C 1070.63 1470.36 1047.84 1470.77 1026.88 1470.77 C 1027.04 1439.22 1026.01 1407.27 1026.62 1375.85 z" fill="rgb(1,1,1)" transform="translate(0,0)"></path>
<path d="M 1028.25 1545.21 C 1032.44 1545.05 1033.35 1544.97 1037.41 1545.69 C 1037.85 1546.18 1038.29 1546.67 1038.72 1547.15 C 1039.58 1574.86 1039.15 1630.07 1038.5 1655.08 C 1034.54 1655.17 1033.4 1655.18 1029.51 1654.6 C 1026.82 1651.51 1028.21 1557.39 1028.25 1545.21 z" fill="rgb(1,1,1)" transform="translate(0,0)"></path>
<path d="M 1285.15 1685.54 C 1291.99 1683.83 1299.22 1685.97 1304.02 1691.13 C 1308.82 1696.28 1310.45 1703.64 1308.27 1710.34 C 1306.09 1717.04 1300.44 1722.03 1293.52 1723.37 C 1283.21 1725.37 1273.18 1718.79 1270.92 1708.53 C 1268.65 1698.27 1274.96 1688.07 1285.15 1685.54 z" fill="rgb(1,1,1)" transform="translate(0,0)"></path>
<path d="M 1284.76 1689.37 C 1293.03 1686.59 1301.98 1691.08 1304.7 1699.36 C 1307.42 1707.65 1302.86 1716.56 1294.56 1719.22 C 1286.34 1721.85 1277.54 1717.36 1274.85 1709.16 C 1272.16 1700.96 1276.58 1692.13 1284.76 1689.37 z" fill="rgb(254,254,254)" transform="translate(0,0)"></path>
<path d="M 1250.92 1544.93 C 1254.26 1544.9 1257.6 1544.5 1260.56 1545.79 C 1261.64 1554.36 1261.31 1572.08 1261.35 1581.25 C 1261.39 1606.08 1261.28 1630.91 1261.03 1655.73 C 1257.29 1655.86 1255.39 1656.19 1251.79 1655.04 C 1249.89 1650.22 1250.92 1557.07 1250.92 1544.93 z" fill="rgb(1,1,1)" transform="translate(0,0)"></path>
<path d="M 823.19 1685.76 C 833.065 1682.46 843.751 1687.76 847.088 1697.63 C 850.426 1707.49 845.158 1718.2 835.307 1721.57 C 825.406 1724.96 814.635 1719.66 811.281 1709.75 C 807.926 1699.83 813.265 1689.08 823.19 1685.76 z" fill="rgb(1,1,1)" transform="translate(0,0)"></path>
<path d="M 826.101 1688.01 C 845.495 1687.65 851.323 1708.62 832.52 1718.83 C 812.027 1720.67 808.081 1696.82 826.101 1688.01 z" fill="rgb(254,254,254)" transform="translate(0,0)"></path>
<path d="M 695.346 1684.27 C 718.935 1686.22 720.213 1716.96 696.993 1723.63 C 693.251 1723.24 689.963 1722.78 686.66 1720.88 C 682.064 1718.19 678.754 1713.76 677.486 1708.59 C 676.118 1703.13 677.173 1697.36 680.38 1692.74 C 684.39 1686.93 688.865 1685.58 695.346 1684.27 z" fill="rgb(1,1,1)" transform="translate(0,0)"></path>
<path d="M 694.478 1688 C 713.913 1689.39 715.027 1712.02 696.609 1719.99 C 677.386 1716.51 674.336 1694.53 694.478 1688 z" fill="rgb(254,254,254)" transform="translate(0,0)"></path>
<path d="M 1367.04 1685.09 C 1373.6 1685.07 1380.27 1685.19 1386.84 1685.25 C 1399.72 1693.67 1401.53 1706.41 1392.61 1718.82 C 1384.78 1724.58 1377.46 1723.64 1367.84 1723.78 C 1367.91 1714.3 1368.43 1693.48 1367.04 1685.09 z" fill="rgb(1,1,1)" transform="translate(0,0)"></path>
<path d="M 1371.12 1688.76 C 1377.11 1688.69 1381.75 1687.96 1387.24 1691.05 C 1396.97 1696.52 1395.73 1706.1 1390.46 1714.73 C 1383.06 1720.2 1380.56 1719.27 1371.18 1719.4 L 1371.12 1688.76 z" fill="rgb(254,254,254)" transform="translate(0,0)"></path>
<path d="M 1229.04 1375.95 C 1232.42 1375.81 1235.98 1375.3 1238.42 1377.34 C 1239.29 1386.63 1238.87 1401.12 1238.87 1410.82 L 1238.78 1470.25 C 1235.78 1470.25 1231.78 1470.66 1229.32 1469.24 C 1228.47 1459.39 1228.88 1445.33 1228.9 1435.12 L 1229.04 1375.95 z" fill="rgb(1,1,1)" transform="translate(0,0)"></path>
<path d="M 727.499 1684.86 C 729.29 1684.82 731.081 1684.79 732.873 1684.77 C 740.426 1684.7 747.769 1684.54 753.463 1690.1 C 755.6 1697.49 750.869 1700.88 746.053 1705.75 C 742.292 1709.56 751.772 1716.67 751.574 1722.53 L 749.679 1722.65 L 747.605 1720.63 C 746.081 1717.93 741.821 1709.31 739.934 1708.15 C 725.499 1699.25 733.746 1718.21 729.529 1723.25 L 728.276 1723.06 C 726.383 1719.48 727.42 1691.26 727.499 1684.86 z" fill="rgb(1,1,1)" transform="translate(0,0)"></path>
<path d="M 731.091 1688.45 C 738.113 1688.32 746.333 1686.92 749.967 1693.88 C 750.065 1697.85 749.772 1697.86 748.01 1701.3 C 741.085 1702.84 738.071 1702.6 730.987 1702.52 L 731.091 1688.45 z" fill="rgb(254,254,254)" transform="translate(0,0)"></path>
<path d="M 861.16 1685.46 C 875.111 1685.15 902.36 1685.61 880.016 1705.99 C 877.99 1707.84 886.934 1718.75 887.271 1723.28 C 884.282 1723.03 885.742 1723.34 882.926 1721.2 C 879.696 1715.35 875.348 1704.79 867.457 1705.78 C 862.211 1710.54 865.494 1717.74 863.025 1723.21 L 861.836 1722.61 C 859.835 1717.63 860.98 1692.05 861.16 1685.46 z" fill="rgb(1,1,1)" transform="translate(0,0)"></path>
<path d="M 864.344 1689.11 C 871.639 1688.66 879.27 1687.21 883.835 1693.96 C 884.268 1697.91 884.012 1697.88 882.416 1701.37 C 875.532 1702.89 871.126 1702.62 864.092 1702.59 C 864.024 1698.16 864.222 1693.55 864.344 1689.11 z" fill="rgb(254,254,254)" transform="translate(0,0)"></path>
<path d="M 1135.98 1684.92 C 1173.08 1684.86 1164.19 1694.31 1154.98 1705.61 C 1154.66 1706 1164.27 1718.38 1164.55 1722.58 C 1161.26 1722.49 1162.81 1722.99 1160.02 1720.37 C 1156.35 1714.12 1150.56 1702.56 1141.89 1705.52 C 1136.66 1711.48 1139.74 1716.6 1138.04 1722.92 L 1136.91 1721.82 C 1134.81 1716.47 1135.86 1692.3 1135.98 1684.92 z" fill="rgb(1,1,1)" transform="translate(0,0)"></path>
<path d="M 1139.07 1689 C 1145.63 1688.69 1154.33 1686.92 1158.25 1692.85 C 1158.69 1696.41 1157.99 1697.3 1156.57 1700.56 C 1149.92 1701.98 1145.81 1701.93 1139.02 1702.1 L 1139.07 1689 z" fill="rgb(254,254,254)" transform="translate(0,0)"></path>
<path d="M 1222.11 1683.49 C 1226.8 1686.45 1236.11 1710.23 1238.83 1716.53 C 1243.7 1704.82 1249.7 1693.06 1255.28 1681.63 C 1256.64 1694.72 1256.85 1707.91 1255.88 1721.04 L 1255 1722.11 L 1255.43 1723.34 C 1252.73 1719.36 1253.14 1704.67 1253.18 1699.75 C 1253.17 1698.35 1252.84 1697.64 1252.48 1696.24 C 1248.79 1700.26 1241.73 1718.78 1239.13 1725.1 C 1234.26 1715.36 1229.87 1704.7 1224.93 1694.64 C 1224.54 1702.46 1225.31 1716.99 1222.67 1723.36 L 1221.61 1723.56 C 1219.77 1715.17 1220.74 1692.38 1222.11 1683.49 z" fill="rgb(1,1,1)" transform="translate(0,0)"></path>
<path d="M 1190.14 1682.7 C 1192.68 1685.15 1207.75 1719.5 1207.04 1722.27 C 1200.29 1716.54 1202.59 1712.43 1194.25 1712.21 L 1182.25 1712.56 C 1181.18 1715.82 1179.18 1722.24 1175.67 1723.41 C 1176.28 1716.09 1186.66 1691.84 1190.14 1682.7 z" fill="rgb(1,1,1)" transform="translate(0,0)"></path>
<path d="M 1190.44 1692.58 C 1193.17 1695.1 1197.68 1704.61 1196.97 1708.35 L 1194.23 1709.04 C 1189.31 1708.97 1188.91 1709.8 1185.51 1707.56 C 1185.13 1703.41 1188.56 1697.17 1190.44 1692.58 z" fill="rgb(254,254,254)" transform="translate(0,0)"></path>
<path d="M 913.01 1684.49 C 918.659 1690.81 930.139 1720.11 931.478 1729.51 C 925.594 1720.9 926.772 1713.15 916.25 1712.67 C 895.792 1713 908.41 1715.01 899.846 1723.59 L 897.939 1723.24 C 897.323 1718.93 910.246 1690.92 913.01 1684.49 z" fill="rgb(1,1,1)" transform="translate(0,0)"></path>
<path d="M 912.961 1692.64 L 914.005 1693.31 C 916.21 1697.29 920.098 1703.95 920.272 1708.42 L 918.25 1709.04 C 913.649 1709.24 910.712 1710.36 907.687 1706.85 C 907.425 1702.95 911.12 1696.53 912.961 1692.64 z" fill="rgb(254,254,254)" transform="translate(0,0)"></path>
<path d="M 793.401 1681.95 C 794.843 1688.37 799.573 1716.57 797.643 1722.25 L 796.789 1721.44 L 797.644 1721.27 L 796.416 1720.4 C 794.519 1714.92 793.873 1708.07 793.045 1702.23 C 792.61 1699.75 793.237 1700.71 791.61 1699.05 C 788.915 1702.28 783.689 1716.3 781.679 1721.05 L 771.556 1695.64 C 770.972 1701.46 770.314 1719.67 766.791 1722.56 L 765.372 1721.72 C 765.323 1719.09 765.188 1720.48 765.597 1718.52 C 767.798 1707.97 768.375 1695.28 769.326 1684.39 C 772.836 1686.09 779.805 1705.49 782.173 1710.92 C 785.991 1702.78 790.15 1690.62 793.401 1681.95 z" fill="rgb(1,1,1)" transform="translate(0,0)"></path>
<path d="M 1107.43 1683.77 C 1109.47 1685.62 1121.86 1716.16 1124.55 1721.98 L 1123.87 1722.25 C 1118.25 1717.88 1119.33 1717.27 1115.24 1712 L 1112.25 1711.64 L 1097.82 1711.76 C 1096.31 1716.12 1095.39 1719.45 1091.88 1722.51 C 1090.88 1716.07 1103.99 1690.99 1107.43 1683.77 z" fill="rgb(1,1,1)" transform="translate(0,0)"></path>
<path d="M 1107.19 1691.55 C 1110.37 1694.99 1114.12 1703.31 1112.42 1708.01 L 1108.25 1708.51 C 1103.88 1708.6 1103.68 1709.4 1101.09 1707.33 C 1100.59 1703.02 1104.98 1696.03 1107.19 1691.55 z" fill="rgb(254,254,254)" transform="translate(0,0)"></path>
<path d="M 1058.97 1685.08 C 1066.02 1684.79 1074.28 1684.5 1078.38 1691.69 L 1077.18 1692.85 C 1067.21 1688.84 1050.61 1686.01 1048.17 1702.6 C 1048.29 1710.45 1055.35 1720.15 1063.78 1719.49 C 1070.1 1719 1077.95 1716.12 1076.28 1708.79 C 1073.16 1706.45 1074.05 1707.2 1069.29 1707.13 C 1067.93 1707.55 1068.79 1707.42 1066.67 1706.9 L 1065.96 1705.07 C 1067.83 1703.3 1074.56 1703.24 1078.94 1702.21 L 1080.01 1701.95 C 1080.06 1706.71 1080.71 1716.71 1078.79 1720.33 L 1075.73 1719.46 C 1064.72 1724.62 1053.5 1725.33 1047.22 1712.82 C 1044.8 1708 1044.46 1702.39 1046.27 1697.31 C 1048.7 1690.61 1052.92 1687.95 1058.97 1685.08 z" fill="rgb(1,1,1)" transform="translate(0,0)"></path>
<path d="M 1322.33 1684.25 C 1326.08 1686.2 1344.55 1710.41 1348.31 1715.17 C 1348.16 1705.78 1347.81 1695.11 1349.04 1685.86 L 1349.85 1685.59 C 1352.27 1692.07 1353.89 1718.89 1350.29 1723.36 C 1341.89 1713.03 1333.61 1702.61 1325.45 1692.09 C 1325.47 1697.51 1325.91 1717.71 1324.97 1721.84 L 1323.44 1722.72 C 1320.5 1718.85 1321.93 1690.55 1322.33 1684.25 z" fill="rgb(1,1,1)" transform="translate(0,0)"></path>
<path d="M 942.14 1684.59 C 946.366 1686.44 963.282 1712.14 966.677 1717.17 C 966.263 1706.67 966.077 1700.11 966.879 1689.5 L 967.942 1688.22 L 967.48 1685.86 L 967.644 1685.9 C 970.728 1693.99 970.032 1715.37 969.801 1724.49 C 964.242 1721.2 950.292 1700.12 945.078 1693.02 C 945.051 1697.65 945.041 1720.33 943.605 1723.69 C 940.046 1716.28 941.121 1693.32 942.14 1684.59 z" fill="rgb(1,1,1)" transform="translate(0,0)"></path>
<path d="M 647.873 1685.09 C 649.34 1684.94 650.811 1684.82 652.284 1684.75 C 659.065 1684.46 662.587 1685.81 667.459 1690.31 L 667.1 1691.77 C 662.93 1692.86 657.592 1688.19 654.767 1688.25 C 634.149 1688.69 631.938 1718.42 656.901 1719.67 C 660.601 1717.68 663.031 1715.64 666.746 1716.29 L 666.47 1718.05 C 645.225 1737.24 618.279 1701.54 647.873 1685.09 z" fill="rgb(1,1,1)" transform="translate(0,0)"></path>
<path d="M 982.645 1685.5 C 992.468 1685.43 999.466 1685.17 1009.14 1686.86 L 1009.82 1687.86 C 1006 1689.42 1003.39 1689.03 999.155 1689.03 L 999.189 1710.13 L 999.205 1711.39 L 999.207 1713.42 C 999.234 1717.88 999.675 1719.12 997.89 1723.06 L 996.865 1722.35 C 995.159 1712.91 995.552 1699.01 995.437 1689 C 991.645 1688.88 985.281 1689.45 982.505 1687.92 L 982.645 1685.5 z" fill="rgb(1,1,1)" transform="translate(0,0)"></path>
<path d="M 875.918 509.02 L 1162.79 508.931 C 1163.65 510.386 1164.33 511.34 1165.25 512.715 C 1215.67 588.538 1304.68 629.247 1392.94 644.522 C 1393.42 809.56 1370.06 983.578 1301.24 1134.95 C 1283.68 1173.57 1263.63 1210.33 1238 1244.23 L 1168.5 1244.29 L 803.175 1244.12 C 709.314 1121.46 668.347 926.179 656.219 774.966 C 652.978 731.618 651.403 688.161 651.499 644.692 C 748.41 625.97 818.308 592.005 875.918 509.02 z" fill="rgb(254,254,254)" transform="translate(0,0)"></path>
<path d="M 928.667 773.339 C 953.517 770.842 994.592 773.634 1018.81 779.112 C 1028.34 781.268 1027.87 840.14 1015.92 842.728 C 1010.2 840.127 1008.28 834.181 1007.52 827.988 C 1003.07 791.851 949.645 781.22 919.333 789.043 C 816.739 815.52 828.54 1008.47 906.547 1055.98 C 927.856 1068.96 947.586 1068.09 970.926 1062.32 C 998.592 1052.24 1004.16 1042.04 1019.42 1019.65 C 1020.65 1017.84 1025.35 1017.84 1027.66 1018.09 C 1029.71 1019.47 1031.27 1020.19 1031.81 1023.21 C 1033.45 1032.4 1025.78 1055.88 1021.24 1063.3 C 1014.4 1074.48 994.467 1079.83 981.945 1081.65 C 946.774 1087.02 902.224 1087.33 872.469 1064.75 C 812.713 1019.4 804.805 924.9 828.891 858.54 C 845.446 812.93 879.376 780.283 928.667 773.339 z" fill="rgb(1,1,1)" transform="translate(0,0)"></path>
<path d="M 1080.34 774.305 C 1108.28 775.525 1135.31 777.025 1163.36 776.424 C 1170.74 776.266 1220.62 773.984 1224.12 776.983 C 1225.81 782.205 1224.27 817.913 1223 825.733 C 1222.37 829.604 1220.98 830.504 1218.13 832.176 C 1207.85 831.243 1210.1 807.899 1197.71 795.623 C 1184.33 793.004 1139.22 793.388 1125.62 794.75 C 1122.28 827.823 1123.46 870.169 1123.71 903.974 C 1145.07 904.059 1170.26 905.479 1191.44 902.381 C 1196.75 901.604 1203.49 897.364 1207.65 901.557 C 1208.55 905.114 1207.95 914.001 1207.61 918.055 C 1206.88 926.917 1211.06 944.648 1203.59 950.404 C 1182.55 949.972 1213.62 920.351 1165.82 922.082 C 1151.76 922.384 1137.7 922.594 1123.64 922.712 C 1122.58 943.014 1121.05 1040.12 1126.26 1054.1 C 1129.19 1061.96 1137.58 1064.01 1144.51 1066.94 C 1147.25 1068.1 1149.54 1069.57 1150.3 1072.64 C 1150.77 1074.51 1150.48 1076.14 1149.62 1077.82 C 1148.82 1079.41 1147.82 1079.86 1146.05 1080.2 C 1140.8 1081.23 1124.48 1079.31 1117.78 1079.33 C 1106.29 1079.37 1093.91 1081.89 1082.64 1081.09 C 1079.74 1080.88 1078.31 1080.37 1076.12 1078.52 L 1076 1076.17 C 1079.81 1067.29 1091.24 1060.81 1093.55 1051.39 C 1095.39 1043.86 1096.77 1035.09 1097.1 1027.36 C 1100.15 956.059 1098.53 884.426 1098 813.079 C 1097.8 785.33 1087.87 795.893 1074.73 784.365 C 1072.41 778.555 1075.12 776.337 1080.34 774.305 z" fill="rgb(1,1,1)" transform="translate(0,0)"></path>
<path d="M 1035.04 554.971 C 1041.01 554.439 1045.18 555.074 1048.54 560.247 C 1049.23 564.811 1046.21 573.555 1046.48 574.247 C 1049.85 582.858 1057.35 591.13 1042.17 597.243 C 1037.02 597.948 1033.23 597.385 1028.76 594.66 C 1022.86 586.831 1029.06 580.312 1030.95 572.493 C 1031.3 571.049 1029.81 564.975 1029.47 562.622 C 1030.91 558.459 1031.7 558.119 1035.04 554.971 z" fill="rgb(1,1,1)" transform="translate(0,0)"></path>
<path d="M 1034.2 577.628 C 1036.81 576.089 1040.03 576.07 1042.65 577.579 C 1045.27 579.088 1046.88 581.891 1046.85 584.914 C 1046.82 587.937 1045.17 590.711 1042.53 592.174 C 1038.52 594.39 1033.47 592.977 1031.2 589.001 C 1028.92 585.026 1030.26 579.961 1034.2 577.628 z" fill="rgb(254,254,254)" transform="translate(0,0)"></path>
<path d="M 1037.48 559.667 C 1040.69 558.756 1044.06 560.545 1045.1 563.722 C 1046.14 566.899 1044.49 570.333 1041.36 571.504 C 1039.22 572.306 1036.81 571.869 1035.08 570.366 C 1033.36 568.863 1032.59 566.536 1033.09 564.304 C 1033.59 562.071 1035.28 560.291 1037.48 559.667 z" fill="rgb(254,254,254)" transform="translate(0,0)"></path>
<path d="M 989.017 554.193 C 1011.98 556.793 999.482 581.507 990.339 591.761 C 985.642 597.029 987.228 597.51 980.135 598.418 C 982.925 593.934 992.396 582.204 992.827 578.358 C 973.437 576.24 973.239 558.477 989.017 554.193 z" fill="rgb(1,1,1)" transform="translate(0,0)"></path>
<path d="M 986.907 559.521 C 990.532 557.603 995.025 558.902 997.068 562.458 C 999.11 566.015 997.968 570.55 994.485 572.714 C 992.122 574.183 989.145 574.245 986.723 572.876 C 984.3 571.508 982.818 568.926 982.856 566.144 C 982.895 563.362 984.448 560.823 986.907 559.521 z" fill="rgb(254,254,254)" transform="translate(0,0)"></path>
<path d="M 937.962 565.232 C 946.291 564.592 954.756 565.024 958.013 574.297 L 957.252 575.468 C 949.819 572.42 939.837 566.827 932.398 572.135 C 926.531 581.845 933.423 593.649 946.573 592.521 C 950.31 590.034 952.662 585.493 957.275 587.218 C 956.5 590.278 953.188 594.045 950.513 595.399 C 930.221 605.672 914.346 576.657 937.962 565.232 z" fill="rgb(1,1,1)" transform="translate(0,0)"></path>
<path d="M 1124.02 565.092 C 1130.62 564.658 1142.03 565.1 1143.69 573.468 L 1142.68 574.774 C 1136 575.355 1119.85 558.071 1117.31 580.999 C 1116.28 590.376 1124.98 592.89 1132.11 593.151 C 1137.72 590.789 1138.86 585.193 1142.87 586.02 L 1142.91 588.436 C 1138.87 596.476 1133.27 599.775 1124.19 597.12 C 1119.92 595.882 1116.38 592.871 1114.48 588.852 C 1109.37 578.326 1114.51 569.993 1124.02 565.092 z" fill="rgb(1,1,1)" transform="translate(0,0)"></path>
<path d="M 1088.4 553.356 C 1089.75 553.493 1090.41 553.794 1091.72 554.191 C 1090.99 559.798 1079.27 576.338 1075.61 581.875 C 1079.5 581.99 1085.03 582.573 1088.46 581.221 L 1089.3 576.578 L 1090.87 575.643 L 1093.2 576.605 C 1095.54 584.511 1097.33 579.702 1100.28 584.165 L 1099.46 585.763 L 1093.46 586.482 C 1093.62 590.452 1094.33 594.008 1092 597.06 L 1090.54 596.77 C 1088.21 593.358 1088.8 590.941 1088.84 586.542 C 1084.05 586.597 1073.29 587.119 1069.35 585.529 C 1071.53 580.372 1084.57 560.058 1088.4 553.356 z" fill="rgb(1,1,1)" transform="translate(0,0)"></path>
<path d="M 894.215 555.171 C 897.831 556.092 896.408 555.196 898.855 557.567 C 898.667 561.435 897.972 562.141 900.639 564.645 C 903.712 564.737 904.197 564.645 907.246 565.453 L 907.965 567.193 L 907.383 568.326 C 905.274 568.531 899.566 568.747 899.279 571.602 C 898.736 577.013 898.85 591.117 901.478 595.608 L 900.769 597.324 C 897.48 597.487 896.267 597.509 893.006 597.258 C 890.22 594.172 899.317 579.586 893.844 569.193 C 891.146 568.978 890.434 569.08 887.923 568.178 L 887.762 566.091 C 895.232 563.159 893.973 562.748 894.215 555.171 z" fill="rgb(1,1,1)" transform="translate(0,0)"></path>
<path d="M 847.336 467.024 L 1198.74 467.282 C 1204.69 558.982 1357.48 602.377 1433.26 612.56 C 1434.67 793.407 1405.04 1011.32 1323.97 1174.96 C 1316.46 1190.1 1293.6 1233.43 1283.47 1244.92 C 1272.49 1244.97 1261.51 1244.82 1250.54 1244.47 C 1255.58 1234.89 1266.38 1219.93 1272.59 1209.75 C 1284.38 1190.01 1295.16 1169.67 1304.88 1148.83 C 1379.29 989.586 1402.34 811.676 1402.07 637.407 C 1319.69 624.845 1232.13 586.519 1180.86 518.824 L 1166.6 498.927 L 871.471 498.779 C 867.889 504.453 864.214 510.068 860.447 515.621 C 810.319 588.624 726.672 621.632 642.983 637 C 642.998 676.37 642.719 716.442 645.658 756.032 C 655.361 886.726 679.076 1021.2 733.186 1141.27 C 749.35 1177.14 769.871 1211.36 790.909 1244.16 L 756.382 1244.33 C 735.425 1208.94 714.86 1171.18 699.049 1133.21 C 646.244 1006.41 624.177 866.055 615.075 729.591 C 612.661 693.402 610.922 647.263 612.383 611.315 C 674.066 605.619 752.178 578.896 798.94 538.482 C 819.786 520.465 844.581 495.925 847.336 467.024 z" fill="rgb(254,254,254)" transform="translate(0,0)"></path>
<path d="M 1677.41 1259.06 L 1737.29 1259.08 C 1736.46 1277.73 1734.94 1297.35 1733.81 1316.09 C 1733.66 1317.28 1733.89 1316.63 1732.66 1317.8 C 1728.55 1314.9 1719 1303.48 1714.88 1299.06 C 1702.52 1285.8 1689.35 1272.63 1677.41 1259.06 z" fill="rgb(254,254,254)" transform="translate(0,0)"></path>
<path d="M 312.594 1259.02 L 372.789 1259.16 C 365.138 1268.05 352.932 1279.63 344.378 1288.18 L 315.626 1318.2 C 313.886 1300.22 313.33 1277.26 312.594 1259.02 z" fill="rgb(254,254,254)" transform="translate(0,0)"></path>
<path d="M 315.133 1768.66 C 321.437 1774.71 361.171 1814.01 364.576 1819.45 L 363.175 1820.22 C 346.05 1820.6 328.92 1820.73 311.791 1820.62 L 315.133 1768.66 z" fill="rgb(254,254,254)" transform="translate(0,0)"></path>
<path d="M 1733.54 1768.84 C 1736.33 1772.7 1737.27 1812.36 1737.6 1820.11 L 1689.75 1820.11 C 1688.05 1820.1 1688.13 1819.96 1686.44 1819.49 C 1689.42 1813.66 1727.1 1775.73 1733.54 1768.84 z" fill="rgb(254,254,254)" transform="translate(0,0)"></path>
<path d="M 1020.92 171.628 C 1035.86 176.146 1045.33 212.848 1048.76 226.693 C 1069.33 231.533 1088.68 240.12 1093.3 263.516 C 1093.78 265.934 1092.99 266.572 1091.6 267.988 C 1085.42 269.246 1077.23 264.339 1072.01 265.099 C 1057.25 267.717 1049.9 278.944 1043.43 290.716 C 1030.37 314.469 1030.55 336.188 1030.92 362.589 C 1031.84 363.615 1032.77 364.626 1033.72 365.625 C 1061.47 394.757 1091.26 384.301 1116.86 359.813 C 1101 335.231 1098.82 310.991 1132.27 302.597 C 1139.56 304.398 1143.6 305.413 1149.53 310.652 C 1154.86 315.309 1158.01 321.982 1158.2 329.059 C 1158.71 342.696 1149.28 352.541 1140.74 361.606 C 1142.24 364.002 1143.93 366.264 1145.82 368.367 C 1162.93 387.807 1204.97 401.92 1224.25 375.557 C 1226.42 372.59 1228.48 366.99 1231.03 364.669 C 1255.84 371.152 1227.38 408.209 1218.9 419.777 C 1155.88 422.409 1092.82 424.094 1029.75 424.832 C 965.989 425.083 891.809 426.397 828.728 423.106 C 822.211 411.646 789.955 373.872 815.018 365.466 C 819.67 366.144 821.036 376.393 826.931 380.707 C 851.914 398.992 886.388 384.027 903.467 361.728 L 898.525 355.402 C 884.711 337.977 881.001 309.776 907.918 304.764 C 914.813 303.438 921.95 304.979 927.684 309.032 C 947.67 323.149 936.401 346.318 925.167 361.629 C 950.643 382.149 991.9 394.725 1012.77 360.639 C 1012.99 358.51 1013.16 356.377 1013.29 354.241 C 1014.97 326.501 1009.54 296.247 990.49 274.474 C 979.648 262.084 964.527 268.515 953.358 267.957 C 945.25 256.699 965.878 238.63 974.503 233.871 C 981.75 229.873 985.819 229.007 993.82 228.433 C 999.396 209.376 1004.88 184.195 1020.92 171.628 z" fill="rgb(1,1,1)" transform="translate(0,0)"></path>
<path d="M 1127.86 374.801 C 1130.88 376.804 1136.98 383.862 1140.2 386.836 C 1150.02 395.917 1164.51 403.477 1177.3 406.846 C 1195.69 411.689 1209.35 408.111 1225.08 399 C 1222.64 403.212 1220.04 407.136 1217.39 411.212 C 1204.28 413.158 1189.4 413.449 1176.09 414.25 C 1143.37 416.216 1110.76 415.81 1078 416.169 C 1011.23 417.261 944.448 417.715 877.67 417.531 C 864.719 417.217 846.298 417.464 834.004 415.705 C 828.725 409.81 825.819 404.439 822.385 397.451 C 860.25 417.372 886.482 398.729 916.415 375.614 C 953.595 403.388 983.72 410.825 1021.47 377.799 C 1033.02 389.214 1042.01 397.855 1059.46 400.037 C 1086.28 403.392 1107.63 390.2 1127.86 374.801 z" fill="rgb(254,254,254)" transform="translate(0,0)"></path>
<path d="M 1020.1 194.726 C 1034.94 210.102 1032.06 243.834 1030.51 263.187 C 1038.61 257.034 1043.12 250.8 1049.34 242.834 C 1057.87 244.966 1062.05 246.934 1069.56 251.134 C 1066.97 251.701 1064.4 252.381 1061.86 253.173 C 1043.08 259.214 1031.48 280.057 1023.2 296.461 L 1022.67 296.632 C 1020.13 295.463 1010.79 275.354 1004.35 268.813 C 991.801 256.064 991.899 258.369 978.853 250.987 L 978.557 249.302 C 982.237 245.713 983.426 246.63 987.107 244.837 C 999.682 238.713 1005.23 263.651 1013.51 261.615 C 1014.67 255.398 1011.54 245.839 1011.42 239.412 C 1011.11 223.968 1015.37 209.112 1020.1 194.726 z" fill="rgb(254,254,254)" transform="translate(0,0)"></path>
<path d="M 1129.74 317.886 C 1149.81 321.007 1142.52 335.912 1133.91 346.596 C 1131.49 347.912 1132.46 347.623 1129.68 347.661 C 1120.53 342.181 1119.54 324.658 1129.74 317.886 z" fill="rgb(254,254,254)" transform="translate(0,0)"></path>
<path d="M 908.887 318.676 C 928.787 318.523 922.333 339.436 914.913 350.119 L 912.728 349.504 C 905.044 340.068 897.933 328.698 908.887 318.676 z" fill="rgb(254,254,254)" transform="translate(0,0)"></path>
<path d="M 1250.51 304.204 C 1255.72 304.354 1260 304.994 1264.68 307.474 C 1270.82 310.672 1275.4 316.229 1277.36 322.868 C 1279.43 330.084 1278.4 337.834 1274.54 344.268 C 1269.31 352.78 1263.34 354.909 1254.26 356.85 C 1241.79 357.359 1230.92 353.517 1227.66 340.202 C 1225.73 331.979 1227.26 323.321 1231.91 316.266 C 1236.77 308.968 1242.29 306.052 1250.51 304.204 z" fill="rgb(1,1,1)" transform="translate(0,0)"></path>
<path d="M 1249.91 320.922 C 1264.39 321.08 1269.68 330.872 1257.04 339.659 C 1241.33 341.292 1237.85 330.672 1249.91 320.922 z" fill="rgb(254,254,254)" transform="translate(0,0)"></path>
<path d="M 792.602 305.124 C 822.594 302.994 838.071 346.408 803.234 357.258 C 790.255 357.42 778.666 353.023 773.297 340.229 C 770.621 333.878 770.722 326.696 773.576 320.423 C 777.536 311.62 784.065 308.094 792.602 305.124 z" fill="rgb(1,1,1)" transform="translate(0,0)"></path>
<path d="M 791.779 321.908 C 805.832 320.72 812.118 330.142 801.835 340.886 C 789.752 341.301 780.695 332.282 791.779 321.908 z" fill="rgb(254,254,254)" transform="translate(0,0)"></path>
<metadata><recraft-signature>{"signed_by": "recraft", "signature_b64": "owiRAgPH7P0Vv8l3HJbSCuQ9dj6K7mkKFdwyC6qQVxSMJKYaq6dLdfkmXJqp/+qLHzPCcwHDZk/G+M9/2h3iBQ==", "signing_algo": "Ed25519", "generation_timestamp": 1778256939, "identifier": "e3885fa1-5455-47de-8f2d-067544f2a8b3"}</recraft-signature></metadata></svg>