<svg xmlns="http://www.w3.org/2000/svg" height="1024" preserveAspectRatio="none" style="display: block;" version="1.1" viewBox="0 0 2048 2048" width="1024">
<defs>
	<linearGradient gradientUnits="userSpaceOnUse" id="Gradient1" x1="1449.72" x2="1851.81" y1="1978.72" y2="1700.6">
		<stop class="stop0" offset="0" stop-color="rgb(31,36,34)" stop-opacity="1"></stop>
		<stop class="stop1" offset="1" stop-color="rgb(61,55,57)" stop-opacity="1"></stop>
	</linearGradient>
	<linearGradient gradientUnits="userSpaceOnUse" id="Gradient2" x1="1016.74" x2="1016.27" y1="1404.23" y2="1361.65">
		<stop class="stop0" offset="0" stop-color="rgb(2,3,3)" stop-opacity="1"></stop>
		<stop class="stop1" offset="1" stop-color="rgb(77,75,76)" stop-opacity="1"></stop>
	</linearGradient>
	<linearGradient gradientUnits="userSpaceOnUse" id="Gradient3" x1="1020.43" x2="1018.54" y1="1016.47" y2="944.012">
		<stop class="stop0" offset="0" stop-color="rgb(6,6,6)" stop-opacity="1"></stop>
		<stop class="stop1" offset="1" stop-color="rgb(59,58,58)" stop-opacity="1"></stop>
	</linearGradient>
	<linearGradient gradientUnits="userSpaceOnUse" id="Gradient4" x1="1207.55" x2="666.567" y1="1315.44" y2="226.725">
		<stop class="stop0" offset="0" stop-color="rgb(7,7,7)" stop-opacity="1"></stop>
		<stop class="stop1" offset="1" stop-color="rgb(71,71,71)" stop-opacity="1"></stop>
	</linearGradient>
</defs>
<path d="M 0 0 L 2048 0 L 2048 2048 L 0 2048 L 0 0 z" fill="rgb(254,254,254)" transform="translate(0,0)"></path>
<path d="M 1020.79 57.6922 C 1030.94 57.1734 1035.37 58.0729 1045.09 61.5487 C 1053.77 65.8773 1062.01 70.722 1067.51 79.0635 C 1082.77 99.2874 1081.5 137.666 1059.58 152.872 C 1055.64 155.61 1051.23 159.022 1047.61 162.166 C 1054.92 174.318 1060.28 183.487 1065.37 197.018 C 1069.49 207.974 1072.63 219.863 1076.87 230.574 C 1092.03 223.207 1105.43 214.867 1121.04 206.582 C 1174.36 178.281 1238.65 162.737 1288.23 207.374 C 1309.17 226.224 1304.66 231.052 1335.92 223.299 C 1380.81 215.019 1419.1 239.727 1437.81 280.145 C 1459.94 324.924 1442.09 369.672 1427.61 413.389 C 1420.11 436.049 1407.79 455.293 1399.19 476.981 C 1388.2 504.732 1369.99 541.52 1363.08 570.187 C 1355.17 603.028 1360.67 643.307 1356.22 676.843 C 1350.09 759.283 1323.39 832.119 1283.39 903.887 C 1277.27 914.869 1270.11 925.063 1264.19 935.568 C 1279.78 937.332 1307.07 936.355 1323.68 936.293 L 1440.89 935.383 L 1788.89 933.913 L 1898.95 932.925 C 1911.69 932.87 1936.99 931.699 1948.01 933.116 C 1948.07 939.002 1949.82 953.07 1941.03 953.183 C 1862.55 954.192 1783.91 953.706 1705.43 954.499 L 1392.49 959.691 C 1261.23 960.399 1129.97 960.195 998.715 959.077 C 945.974 958.703 894.103 959.71 841.148 958.463 L 364.459 951.043 L 172.531 948.017 C 149.213 947.419 125.595 946.944 102.25 946.867 C 99.3133 946.858 96.4046 945.891 94.0584 944.088 C 91.0644 939.007 90.0949 933.213 93.9749 928.309 C 106.816 922.129 269.236 927.726 293 928.074 L 597.297 931.176 C 638.123 932.114 678.954 932.828 719.788 933.318 C 734.744 933.467 751.325 934.188 766.044 933.739 C 758.925 916.358 749.962 905.511 742.072 889.457 C 716.045 836.504 697.082 786.401 685.71 728.388 C 681.639 706.524 679.441 684.353 679.141 662.115 C 679.011 646.112 679.687 621.039 678.711 605.852 C 677.213 582.546 667.503 543.088 658.609 521.115 C 656.35 514.464 652.085 505.128 649.346 498.038 C 646.91 493.558 645.399 488.929 643.481 484.283 C 622.909 434.452 596.03 383.911 598.147 328.458 C 598.428 321.121 598.573 312.991 600.425 305.814 C 605.392 273.855 619.757 251.231 646.544 233.151 C 676.396 213.003 711.769 211.751 746.124 218.226 L 746.726 217.916 C 760.823 192.796 802.471 178.728 829.517 175.912 C 833.334 174.748 847.053 175.143 851.512 175.183 C 872.577 177.543 916.269 191.192 932.827 203.471 C 945.28 209.468 958.038 221.127 970.82 227.947 C 973.59 220.537 973.804 212.29 977.546 203.963 C 980.994 189.063 990.007 174.07 999.799 162.468 C 998.967 161.981 998.14 161.487 997.318 160.986 C 988.675 155.711 975.805 144.968 973.402 135.015 C 959.803 114.227 972.82 75.8185 994.298 65.2548 C 1005.55 59.7206 1008.33 58.8887 1020.79 57.6922 z" fill="url(#Gradient4)" transform="translate(0,0)"></path>
<path d="M 1020.79 57.6922 C 1030.94 57.1734 1035.37 58.0729 1045.09 61.5487 C 1053.77 65.8773 1062.01 70.722 1067.51 79.0635 C 1059.92 75.4691 1056.21 76.2435 1047.93 76.6518 C 1028.06 64.123 998.539 84.851 984.449 99.1708 C 980.027 103.665 977.074 106.999 975.982 113.062 C 975.128 117.802 974.949 122.801 973.488 127.291 C 972.244 131.248 973.527 131.161 973.402 135.015 C 959.803 114.227 972.82 75.8185 994.298 65.2548 C 1005.55 59.7206 1008.33 58.8887 1020.79 57.6922 z" fill="rgb(81,80,80)" transform="translate(0,0)"></path>
<path d="M 1020.79 57.6922 C 1030.94 57.1734 1035.37 58.0729 1045.09 61.5487 C 1041.98 62.7063 1026.57 63.4701 1022.86 61.9324 C 1021.78 61.486 1021.35 59.2122 1020.79 57.6922 z" fill="rgb(105,104,104)" transform="translate(0,0)"></path>
<path d="M 600.425 305.814 C 605.392 273.855 619.757 251.231 646.544 233.151 C 676.396 213.003 711.769 211.751 746.124 218.226 C 743.906 218.515 743.394 218.858 741.721 220.33 C 738.793 222.908 736.305 223.162 732.702 222.862 C 729.175 222.568 723.51 218.206 720.683 218.035 C 716.79 217.8 710.901 222.094 707.553 224.003 C 707.553 224.003 704.433 221.158 704.433 221.158 C 691.7 221.3 690.745 227.71 678.922 221.951 C 672.408 224.628 645.166 237.883 641.889 242.512 C 633.606 254.213 620.635 265.241 613.28 277.187 C 608.801 284.461 605.952 297.283 600.425 305.814 z" fill="rgb(81,80,80)" transform="translate(0,0)"></path>
<path d="M 746.726 217.916 C 760.823 192.796 802.471 178.728 829.517 175.912 C 822.537 188.966 804.409 178.642 795.434 192.647 C 787.17 205.544 759.814 213.806 746.726 217.916 z" fill="rgb(81,80,80)" transform="translate(0,0)"></path>
<path d="M 851.512 175.183 C 872.577 177.543 916.269 191.192 932.827 203.471 C 927.292 203.912 901.142 189.642 892.175 187.88 C 880.16 185.519 869.215 188.673 859.916 181.561 L 851.512 175.183 z" fill="rgb(81,80,80)" transform="translate(0,0)"></path>
<path d="M 649.346 498.038 C 658.978 502.962 660.113 510.63 658.609 521.115 C 656.35 514.464 652.085 505.128 649.346 498.038 z" fill="rgb(43,43,43)" transform="translate(0,0)"></path>
<path d="M 970.82 227.947 C 973.59 220.537 973.804 212.29 977.546 203.963 C 979.319 207.549 977.47 207.424 978.308 211.557 C 979.405 216.964 974.382 222.277 972.797 227.696 L 970.82 227.947 z" fill="rgb(81,80,80)" transform="translate(0,0)"></path>
<path d="M 997.519 604.477 C 1071.91 603.576 1151.94 615.983 1223.21 636.862 C 1244.1 642.981 1269.83 650.905 1288.52 661.68 C 1288.24 684.129 1286.35 707.557 1281.82 729.559 C 1276.34 755.414 1269.04 780.851 1259.98 805.678 C 1249.85 832.776 1207.64 921.44 1184.3 936.693 C 1166.67 935.017 1146.38 935.79 1128.45 935.81 L 1039.75 935.828 L 848.028 935.13 C 829.017 911.993 822.889 899.959 808.743 873.949 C 772.152 806.674 747.467 736.046 747.146 658.891 C 752.602 656.396 759.625 654.176 765.401 652.177 C 839.215 626.625 919.736 607.721 997.519 604.477 z" fill="rgb(254,254,254)" transform="translate(0,0)"></path>
<path d="M 957.451 683.501 C 968.564 682.292 996.917 685.635 1008.24 691.108 C 1007.77 697.447 1007.89 712.599 1004.83 717.407 C 1001.05 715.531 998.058 711.751 993.914 709.626 C 979.388 702.523 957.129 699.597 941.645 704.777 C 886.303 723.29 890.876 796.741 949.083 806.509 C 966.913 809.501 976.718 807.19 993.139 801.267 L 1008.36 792.468 C 1003.8 815.922 1005.15 823.803 978.712 826.43 C 951.363 829.149 922.019 825.961 900.242 807.591 C 872.01 783.777 869.632 735.805 894.275 708.694 C 911.907 689.412 932.501 684.822 957.451 683.501 z" fill="rgb(30,30,30)" transform="translate(0,0)"></path>
<path d="M 1088.74 685.534 C 1109.07 685.517 1130.79 685.847 1150.96 684.576 C 1151.13 690.787 1152 697.942 1149.07 703.274 C 1143.07 705.075 1103.71 701.256 1093.04 703.29 C 1089.81 707.491 1091.69 734.854 1091.93 742.478 C 1108.52 741.571 1124.36 742.603 1141.25 740.981 C 1141.9 747.229 1143.39 753.724 1140.66 759.128 C 1135.91 762.652 1119.98 759.92 1112.5 760.035 L 1090.83 760.011 C 1090.09 781.599 1087.83 805.433 1095.94 824.91 C 1084.32 825.061 1072.69 825.035 1061.06 824.833 C 1064.4 820.318 1068.66 815.213 1068.64 809.325 C 1068.55 782.142 1068.24 754.906 1068.36 727.709 C 1068.43 713.404 1068.49 699.975 1064.96 686.051 L 1088.74 685.534 z" fill="rgb(30,30,30)" transform="translate(0,0)"></path>
<path d="M 892.321 242.467 C 966.011 245.467 978.944 292.066 988.176 355.275 C 980.397 362.086 976.629 364.306 970.833 373.504 C 962.897 386.373 960.623 401.946 964.549 416.547 C 967.331 427.106 975.372 439.444 984.633 445.824 C 987.453 447.767 996.041 450.139 1001.42 453.383 C 1005.16 459.671 1000.4 467.006 995.586 471.182 C 975.598 488.515 952.659 499.944 925.751 498.947 C 916.146 500.433 893.608 493.352 884.473 489.192 C 872.704 483.832 856.327 473.692 851.481 461.053 C 847.104 449.636 859.144 443.863 863.182 434.037 C 868.738 420.517 868.156 407.614 862.491 394.341 C 854.639 375.943 844.595 371.054 827.654 364.098 C 818.414 352.142 808.61 315.062 807.945 299.528 C 806.673 269.8 830.843 250.829 857.542 245.128 C 868.689 242.748 880.515 242.813 892.321 242.467 z" fill="rgb(254,254,254)" transform="translate(0,0)"></path>
<path d="M 1155.7 251.428 C 1175.63 249.145 1209.79 260.556 1222.7 276.77 C 1241.09 299.867 1235.89 336.148 1224.69 361.333 C 1222.64 365.944 1220.37 370.282 1215.89 373.12 C 1199.75 381.783 1190.19 384.524 1182.51 401.82 C 1171.27 427.139 1186.13 436.257 1186.94 459.22 C 1187.17 465.711 1171.78 484.343 1166.02 488.556 C 1152.7 498.283 1135.25 501.271 1118.98 499.837 C 1116.22 499.623 1115.59 499.321 1112.48 499.476 C 1082.37 495.226 1052.94 483.336 1038.28 454.775 C 1048.35 451.211 1056.01 448.583 1063.95 440.989 C 1074.11 431.363 1079.91 418.007 1079.99 404.009 C 1080 384.38 1071.1 368.993 1057.51 355.674 C 1060.44 331.198 1071.76 297.976 1087.96 278.93 C 1103.99 260.077 1131.99 253.256 1155.7 251.428 z" fill="rgb(254,254,254)" transform="translate(0,0)"></path>
<path d="M 647.217 428.596 C 639.085 411.979 629.913 384 627.914 365.972 C 621.957 312.259 673.983 280.552 720.515 275.9 C 721.08 283.122 722.343 291.016 723.351 298.258 L 725.376 298.738 L 725.484 299.609 C 727.486 314.939 728.163 319.93 738.071 331.022 C 737.368 330.235 741.517 346.58 741.568 346.982 C 749.979 364.795 764.698 373.954 779.568 385.627 C 779.925 386.337 780.941 388.224 780.664 388.966 C 778.131 395.743 776.782 424.59 774.182 428.849 C 774.629 430.16 775.115 431.458 775.64 432.739 C 785.609 456.674 803.023 456.881 821.902 464.461 L 823.097 464.949 C 819.816 488.313 816.329 494.505 799.186 510.752 C 770.681 537.768 714.369 538.763 688.072 508.116 C 702.049 496.427 714.282 489.501 713.172 467.459 C 711.836 440.942 685.565 423.369 660.11 425.44 C 659.225 429.218 659.003 432.596 656.076 434.903 C 651.673 434.871 649.587 432.137 647.217 428.596 z" fill="rgb(254,254,254)" transform="translate(0,0)"></path>
<path d="M 779.568 385.627 C 779.925 386.337 780.941 388.224 780.664 388.966 C 778.131 395.743 776.782 424.59 774.182 428.849 C 773.915 428.189 773.662 427.524 773.423 426.853 C 768.066 411.712 773.054 399.042 779.568 385.627 z" fill="rgb(81,80,80)" transform="translate(0,0)"></path>
<path d="M 723.351 298.258 L 725.376 298.738 L 725.484 299.609 C 727.486 314.939 728.163 319.93 738.071 331.022 C 737.368 330.235 741.517 346.58 741.568 346.982 C 733.211 335.341 723.191 312.941 723.351 298.258 z" fill="rgb(81,80,80)" transform="translate(0,0)"></path>
<path d="M 647.217 428.596 C 651.972 426.666 655.105 426.325 660.11 425.44 C 659.225 429.218 659.003 432.596 656.076 434.903 C 651.673 434.871 649.587 432.137 647.217 428.596 z" fill="rgb(43,43,43)" transform="translate(0,0)"></path>
<path d="M 1329.79 284.32 C 1360.3 281.026 1405.31 304.068 1413.75 335.002 C 1421 361.573 1402.91 405.675 1389.94 428.336 C 1362.82 413.286 1323.03 430.23 1324.29 464.138 C 1324.99 482.982 1332.5 491.787 1344.99 503.98 C 1337.53 513.864 1330.19 518.292 1319.47 523.716 C 1284.07 539.749 1235.59 526.354 1223.44 487.602 C 1217.49 468.633 1230.24 467.586 1242.04 462.686 C 1271.02 450.654 1272.82 426.613 1266.71 398.673 C 1294.43 372.704 1315.63 348.381 1325.63 310.909 C 1327.88 302.482 1326.62 292.581 1329.79 284.32 z" fill="rgb(254,254,254)" transform="translate(0,0)"></path>
<path d="M 983.605 562.595 C 1003.49 560.919 1031.26 562.376 1051.06 563.66 C 1132.34 568.929 1213.48 584.194 1289.72 613.234 C 1304.36 618.814 1317.58 623.536 1331.23 631.358 C 1331.05 720.473 1318.33 782.16 1278.1 862.432 C 1265.83 886.918 1250.91 909.651 1238.08 933.555 C 1233.38 933.678 1226.85 934.275 1222.55 932.982 C 1222.33 927.394 1228.85 922.043 1235.74 910.196 C 1282.51 829.834 1316.68 741.237 1313.43 647.16 C 1313.26 642.15 1287.55 632.909 1278.72 629.413 C 1204.18 599.899 1126.59 588.596 1047.63 580.013 C 954.996 576.193 870.535 590.544 783.272 620.347 C 763.098 627.237 740.033 631.796 722.692 644.678 C 721.128 654.513 722.764 677.131 723.749 687.681 C 729.33 751.086 747.761 812.691 777.92 868.742 C 782.682 877.469 812.4 928.355 813.237 933.39 C 809.44 935.527 798.506 934.872 796.012 931.314 C 749.507 864.988 718.548 785.565 707.064 705.327 C 703.708 681.881 703.824 656.138 703.853 632.575 C 717.103 623.351 733.465 617.466 748.583 611.672 C 823.98 583.486 903.229 566.937 983.605 562.595 z" fill="rgb(254,254,254)" transform="translate(0,0)"></path>
<path d="M 1020.58 479.575 C 1025.61 482.946 1031.86 488.687 1036.42 492.945 C 1070.83 525.053 1129.1 533.213 1171.83 514.605 C 1180.23 510.946 1188.91 503.317 1198.45 499.039 C 1213.78 530.456 1237.14 547.341 1271.63 553.874 C 1298.55 558.972 1319.18 551.475 1343.89 541.811 C 1339.22 562.292 1335.49 580.304 1331.3 600.907 C 1319.73 597.059 1306.77 591.129 1294.05 586.799 C 1198.01 554.097 1109.5 538.008 1007.75 536.88 C 994.221 535.724 967.293 538.209 953.458 539.634 C 884.971 546.238 817.534 561.099 752.615 583.895 C 734.62 590.368 721.045 595.128 704.06 604.198 C 699.003 578.517 696.892 564.923 688.921 539.535 C 715.553 551.943 739.571 559.107 768.109 551.327 C 804.348 541.448 824.5 527.026 843.59 495.435 C 880.142 516.242 909.866 528.303 952.952 519.682 C 984.07 513.455 999.652 502.238 1020.58 479.575 z" fill="rgb(254,254,254)" transform="translate(0,0)"></path>
<path d="M 1201.92 205.592 C 1203.51 205.439 1205.1 205.317 1206.7 205.225 C 1254.24 202.337 1297.12 233.815 1300.69 283.86 C 1302.64 311.241 1288.82 339.685 1270.09 358.611 C 1266.24 362.5 1259.86 369.509 1254.05 369.698 L 1252.5 368.229 C 1251.89 364.972 1252.79 363.592 1253.99 360.458 L 1254.46 359.24 C 1259.7 343.247 1264.67 306.863 1260.08 291.06 C 1249.23 253.678 1218.38 232.901 1180.96 227.115 C 1175.19 226.221 1157.95 225.404 1154.63 223.388 L 1155.42 221.715 C 1169.14 212.156 1185.23 206.577 1201.92 205.592 z" fill="rgb(254,254,254)" transform="translate(0,0)"></path>
<path d="M 784.302 282.576 C 777.423 313.75 788.168 330.171 793.864 359.169 C 794.041 360.065 792.129 360.745 791.408 361.134 C 787.037 360.554 783.442 356.337 780.191 353.467 C 765.971 341.066 758.686 327.278 752.053 310.049 C 733.991 263.137 764.795 219.592 809.562 204.291 C 843.138 192.816 876.807 201.75 907.854 217.61 C 887.823 218.623 874.733 217.853 854.328 221.864 C 852.109 224.538 853.291 224.096 850.803 225.06 C 835.738 230.9 813.719 250.987 800.721 260.841 C 796.958 263.694 794.083 276.312 784.302 282.576 z" fill="rgb(254,254,254)" transform="translate(0,0)"></path>
<path d="M 784.302 282.576 C 791.879 247.256 821.311 229.657 854.328 221.864 C 852.109 224.538 853.291 224.096 850.803 225.06 C 835.738 230.9 813.719 250.987 800.721 260.841 C 796.958 263.694 794.083 276.312 784.302 282.576 z" fill="rgb(81,80,80)" transform="translate(0,0)"></path>
<path d="M 1011.82 341.458 C 1002.86 319.161 1001.23 290.239 998.444 266.515 C 996.586 250.708 995.604 231.129 998.401 215.141 C 1000.17 205.039 1016.2 169.914 1030.96 182.746 C 1045.39 197.27 1049.16 220.839 1049.99 240.376 C 1051.31 243.866 1050.63 243.837 1053.19 245.488 C 1055.17 249.227 1056.71 252.09 1055.25 256.306 C 1054.99 257.073 1054.7 257.828 1054.38 258.572 L 1052.8 256.275 L 1051.4 256.97 L 1051.06 259.749 L 1049.97 260.513 C 1047.44 286.722 1044.42 316.816 1033.89 340.821 C 1025.42 339.708 1020.2 339.482 1011.82 341.458 z" fill="rgb(254,254,254)" transform="translate(0,0)"></path>
<path d="M 1049.99 240.376 C 1051.31 243.866 1050.63 243.837 1053.19 245.488 C 1055.17 249.227 1056.71 252.09 1055.25 256.306 C 1054.99 257.073 1054.7 257.828 1054.38 258.572 L 1052.8 256.275 L 1051.4 256.97 L 1051.06 259.749 L 1049.97 260.513 C 1049.58 256.928 1049.96 244.601 1049.99 240.376 z" fill="rgb(81,80,80)" transform="translate(0,0)"></path>
<path d="M 1021.63 369.301 C 1056.23 367.585 1075.18 423.505 1024.05 432.755 C 1014.01 433.706 1008.95 433.644 1000.18 427.124 C 993.324 422.009 988.787 414.369 987.58 405.898 C 984.652 384.376 1002.55 372.114 1021.63 369.301 z" fill="rgb(254,254,254)" transform="translate(0,0)"></path>
<path d="M 1021.36 83.3009 C 1032.14 82.5847 1042.47 87.7287 1048.4 96.7632 C 1054.33 105.798 1054.93 117.323 1049.98 126.927 C 1045.03 136.53 1035.29 142.724 1024.49 143.136 C 1008.12 143.761 994.281 131.122 993.426 114.761 C 992.57 98.4009 1005.01 84.3868 1021.36 83.3009 z" fill="rgb(254,254,254)" transform="translate(0,0)"></path>
<path d="M 634.013 284.197 L 635.332 281.013 C 649.669 246.03 693.255 232.966 727.903 242.125 C 725.98 245.815 724.236 249.047 722.111 252.622 C 706.719 261.081 698.193 263.561 680.287 266.53 C 676.718 267.122 665.181 268.461 662.328 269.353 C 657.284 270.93 653.913 274.961 646.863 276.314 C 645.175 277.11 636.05 282.942 634.013 284.197 z" fill="rgb(254,254,254)" transform="translate(0,0)"></path>
<path d="M 646.863 276.314 C 662.653 263.042 702.188 252.361 722.111 252.622 C 706.719 261.081 698.193 263.561 680.287 266.53 C 676.718 267.122 665.181 268.461 662.328 269.353 C 657.284 270.93 653.913 274.961 646.863 276.314 z" fill="rgb(81,80,80)" transform="translate(0,0)"></path>
<path d="M 815.326 393.176 L 826.13 392.677 C 839.018 400.132 846.415 409.404 837.591 424.909 C 834.412 430.495 830.452 432.741 824.711 435.396 C 795.292 436.299 785.044 405.181 815.326 393.176 z" fill="rgb(254,254,254)" transform="translate(0,0)"></path>
<path d="M 1224.24 399.566 C 1235 399.433 1243.9 407.942 1244.24 418.705 C 1244.59 429.468 1236.25 438.527 1225.5 439.083 C 1219.5 439.393 1213.69 436.959 1209.7 432.468 C 1205.71 427.978 1203.98 421.917 1204.99 415.996 C 1206.6 406.595 1214.7 399.684 1224.24 399.566 z" fill="rgb(254,254,254)" transform="translate(0,0)"></path>
<path d="M 1338.54 248.36 C 1362.97 247.665 1387.76 252.22 1403.19 273.031 C 1405.78 276.513 1411 283.638 1410.34 287.808 C 1407.57 287.469 1406.59 286.039 1404.46 284.076 L 1403.55 283.231 C 1387.26 269.231 1368.35 264.367 1347.63 260.474 C 1340.44 259.123 1327.61 260.094 1324.32 252.859 L 1325.79 251.032 C 1330.48 248.769 1333.38 248.861 1338.54 248.36 z" fill="rgb(254,254,254)" transform="translate(0,0)"></path>
<path d="M 665.839 452.066 C 687.248 450.478 696.577 469.739 677.177 481.835 C 663.828 483.379 651.811 470.748 655.581 457.203 C 656.408 454.234 662.974 452.84 665.839 452.066 z" fill="rgb(254,254,254)" transform="translate(0,0)"></path>
<path d="M 1365.1 448.98 C 1379.46 449.432 1381.27 456.207 1375.44 469.035 C 1372.55 475.414 1370.86 477.611 1364.02 479.685 C 1343.85 472.863 1346.11 456.974 1365.1 448.98 z" fill="rgb(254,254,254)" transform="translate(0,0)"></path>
<path d="M 96.637 966.999 C 125.806 966.297 155.377 968.443 184.46 967.864 C 252.643 966.508 320.735 967.053 388.882 969.466 C 404.949 970.035 421.646 968.793 437.861 969.085 L 711.536 975.535 C 1025.34 979.253 1339.18 979.617 1653 976.626 C 1711.85 975.78 1771.75 974.309 1830.61 975.969 C 1844.63 976.364 1942.33 972.362 1947.52 976.562 C 1950.2 981.534 1948.75 986.131 1947.59 991.527 L 1946.15 993.173 C 1939.31 995.552 1897.46 994.951 1888.26 995.099 C 1857.54 995.596 1826.39 995.886 1795.65 996.107 C 1782.38 996.203 1768.57 994.902 1755.09 995.086 C 1342.25 1002.26 929.327 1002.16 516.498 994.794 C 396.538 992.892 276.556 991.899 156.656 987.777 C 140.055 987.206 123.364 988.726 106.85 987.949 C 100.818 987.665 95.5278 986.764 91.3493 982.178 C 88.686 975.86 91.2748 970.545 96.637 966.999 z" fill="url(#Gradient3)" transform="translate(0,0)"></path>
<path d="M 93.4527 1863.36 C 105.564 1863.16 118.955 1863.96 131.283 1864.01 L 236.743 1864.26 C 260.509 1864.47 284.106 1863.84 307.826 1863.84 C 325.183 1863.84 343.362 1865.95 360.674 1866.32 L 655.001 1870.2 L 874.724 1873.46 C 919.995 1874.31 972.366 1865.26 1010.18 1896.34 C 1012.02 1894.72 1013.93 1893.18 1015.9 1891.72 C 1047.62 1867.96 1085.28 1874.22 1121.51 1874.52 L 1246.19 1875.2 C 1261.42 1875.18 1277.09 1874.06 1292.73 1874.44 C 1304.35 1874.72 1317.28 1871.93 1329.53 1873.76 C 1344.87 1876.05 1363.82 1873.22 1379.55 1873.3 C 1398.76 1873.39 1418.3 1872.71 1437.38 1872.73 L 1701.15 1870.4 C 1738.67 1869.81 1774.07 1868.47 1811.99 1868.29 C 1836.56 1868.31 1861.13 1868.03 1885.7 1867.47 C 1900.36 1867.07 1927.47 1865.44 1940.71 1866.88 C 1942.09 1869.17 1944.14 1871.99 1944.57 1874.66 C 1944.9 1876.7 1944.7 1879.07 1943.18 1880.63 C 1936.95 1887.01 1860.22 1885.08 1846.25 1885.12 C 1820.92 1884.94 1795.23 1884.9 1769.91 1885.45 C 1749.06 1885.91 1728.22 1887.72 1707.32 1888.02 L 1370.86 1891.25 C 1354.91 1891.36 1337.78 1889.92 1321.19 1889.86 L 1165.88 1890.84 C 1126.67 1891.17 1082.08 1889.2 1043.61 1898.1 C 1036.33 1899.79 1030.1 1902.82 1026.34 1909.46 C 1027.71 1917.27 1034.9 1925.79 1036.85 1933.14 C 1041.95 1952.38 1027.9 1983.21 1008.28 1990.07 C 1005.93 1990.42 1003.04 1991.45 1001.21 1989.44 C 973.509 1959.02 968.846 1942.63 996.285 1909.52 C 987.273 1900.5 966.674 1893.21 954.192 1892.34 C 879.918 1887.15 802.767 1889.95 728.452 1888.89 L 189.776 1881.69 C 156.199 1881.06 121.782 1882.76 88.4138 1880.13 C 83.91 1879.78 80.0863 1867.22 93.4527 1863.36 z" fill="rgb(43,43,43)" transform="translate(0,0)"></path>
<path d="M 1008.01 1926.33 C 1023.33 1931.46 1020.97 1953.44 1008.8 1963.15 C 1004.05 1961.25 997.333 1952.93 997.269 1947.3 C 997.161 1937.76 1002.23 1933.03 1008.01 1926.33 z" fill="rgb(254,254,254)" transform="translate(0,0)"></path>
<path d="M 1153.57 1397.93 C 1153.21 1398.04 1152.85 1398.14 1152.49 1398.24 C 1097.53 1400.42 1027.65 1397.29 974.051 1397.24 C 754.985 1397.81 535.921 1395.89 316.899 1391.49 C 291.733 1390.9 261.114 1392.28 236.733 1390.65 C 191.494 1387.62 148.126 1387.71 102.832 1388.03 C 96.3916 1388.08 88.7229 1385.98 87.0754 1379.08 C 87.4111 1378.08 88.4807 1374.56 89.4873 1374.43 C 137.107 1368.55 202.543 1373.29 250.002 1374.24 L 562.975 1378.9 L 1165.4 1381.23 C 1207.08 1380.6 1250.16 1383.79 1291.4 1382.42 C 1365.48 1379.95 1438.83 1382.16 1512.73 1381.87 L 1778.25 1379.57 C 1827.29 1378.94 1876.67 1377.29 1925.76 1377.08 C 1933.54 1377.05 1944.97 1374.09 1946.59 1383.81 C 1945.64 1386.76 1944.55 1388.51 1941.68 1389.94 C 1933.94 1393.83 1851.66 1392.16 1837.83 1392.42 C 1818.28 1392.79 1798.98 1394.83 1779.49 1395.94 C 1766.94 1396.65 1754.17 1396.49 1741.59 1396.69 C 1704.08 1397.3 1666.52 1396.75 1629 1397.08 C 1595.59 1397.37 1562.08 1398.75 1528.69 1398.7 C 1480.5 1398.63 1432.2 1397.31 1384 1397.46 L 1290.5 1398.23 C 1257.45 1398.69 1225.92 1400.03 1192.8 1397.21 C 1180.86 1396.2 1165.89 1398.73 1153.57 1397.93 z" fill="url(#Gradient2)" transform="translate(0,0)"></path>
<path d="M 102.644 1513.41 C 121.77 1512.4 141.197 1513.79 160.053 1513.84 C 220.65 1514.01 262.348 1553.02 258.389 1615.04 C 256.625 1642.69 247.955 1661.8 226.851 1680.58 C 193.246 1706.46 152.155 1699.3 112.686 1699.38 C 104.185 1699.4 95.7198 1699.19 87.2667 1698.24 C 86.1285 1673.19 87.8696 1637.28 88.4811 1611.89 C 89.0838 1579.36 89.3801 1546.83 89.3701 1514.3 L 102.644 1513.41 z" fill="rgb(43,43,43)" transform="translate(0,0)"></path>
<path d="M 121.379 1534.51 C 137.49 1534.03 153.285 1534.71 169.247 1535.92 C 223.044 1540.01 242.033 1590.56 228.261 1637.09 C 224.615 1649.4 216.383 1658.14 206.502 1665.71 C 185.145 1681.61 156.446 1680.38 131.156 1679.84 C 125.878 1679.72 118.608 1681.21 113.919 1679.6 C 111.195 1672.3 115.369 1553.06 115.846 1536.64 C 117.628 1534.37 117.544 1535.09 121.379 1534.51 z" fill="rgb(254,254,254)" transform="translate(0,0)"></path>
<path d="M 339.703 1106.13 C 384.045 1104.13 421.656 1138.36 423.834 1182.69 C 426.013 1227.03 391.937 1264.78 347.614 1267.13 C 303.035 1269.51 265.02 1235.19 262.829 1190.6 C 260.638 1146.01 295.107 1108.14 339.703 1106.13 z" fill="rgb(43,43,43)" transform="translate(0,0)"></path>
<path d="M 332.619 1126.11 C 366.31 1120.07 398.487 1142.58 404.355 1176.3 C 410.222 1210.02 387.54 1242.08 353.789 1247.78 C 320.286 1253.42 288.513 1230.95 282.688 1197.47 C 276.864 1164 299.177 1132.11 332.619 1126.11 z" fill="rgb(254,254,254)" transform="translate(0,0)"></path>
<path d="M 1093.48 1852.91 C 1086.96 1853.3 1078.38 1852.74 1071.51 1853.01 C 1032.17 1854.59 992.885 1852.26 953.433 1852.29 C 807.773 1852.19 662.119 1850.45 516.498 1847.07 L 246.675 1843.09 C 198.363 1842.76 149.928 1843.98 101.551 1842.03 C 95.6716 1841.79 91.5736 1842.91 86.8917 1838.99 C 84.6569 1834.05 84.1987 1829.71 89.1137 1826.11 C 98.0246 1823.93 123.347 1826.21 133.878 1826.5 C 152.17 1826.87 170.464 1827.07 188.759 1827.1 C 205.93 1827.09 225.013 1826.08 241.878 1826.56 C 281.808 1826.85 323.246 1830.59 363.052 1829.38 C 423.797 1827.54 483.898 1830.16 544.591 1832.33 C 560.896 1832.91 578.215 1830.98 594.606 1831.3 L 685.051 1833.44 C 703.979 1834.04 724.156 1836.15 743.058 1835.55 C 788.152 1834.13 832.746 1835.91 877.733 1836.95 C 903.475 1837.54 931.104 1837.73 956.855 1837.59 L 1046.45 1837.72 C 1053.57 1837.73 1079.67 1836.91 1084.66 1837.85 C 1092.25 1841.66 1103.12 1837.3 1110.8 1839.54 L 1110.94 1840.95 C 1102.12 1845.06 1107.57 1841.93 1102.56 1849.11 C 1100.08 1849.76 1098.99 1849.96 1096.44 1850.29 L 1093.48 1852.91 z" fill="rgb(43,43,43)" transform="translate(0,0)"></path>
<path d="M 1494.08 1514.27 C 1499.76 1516.88 1619.03 1648.02 1633.13 1663.35 L 1628.89 1518.33 C 1636.01 1517.79 1645.88 1516.1 1651.44 1520.4 C 1653.01 1526.59 1652.31 1560 1652.5 1567.98 L 1654.17 1645.24 C 1654.74 1665.2 1656.04 1692.31 1655.27 1711.96 C 1655.17 1712.59 1654.57 1714.27 1654.34 1714.96 L 1652.51 1715.35 C 1646.05 1711.23 1621.1 1681.96 1613.99 1674.51 C 1581.12 1640.06 1548.99 1604.38 1516.05 1570.05 C 1516.13 1587.07 1514.13 1605.55 1514.32 1623.99 C 1514.53 1645.37 1517.57 1686.59 1515.04 1706.15 C 1510.32 1709.25 1497.37 1708.13 1491.09 1707.99 C 1490.64 1658.16 1492.34 1608.32 1491.51 1558.49 C 1491.23 1541.56 1490.04 1530.87 1494.08 1514.27 z" fill="rgb(30,30,30)" transform="translate(0,0)"></path>
<path d="M 838.359 1509.69 C 843.181 1513.07 860.639 1555.51 864.114 1563.31 C 878.463 1595.03 892.141 1627.05 905.137 1659.34 C 908.223 1666.82 924.098 1700.43 922.685 1706.88 C 917.979 1710.37 905.364 1708.84 899.075 1708.53 C 891.06 1689.8 883.569 1669.96 876.101 1650.94 C 864.375 1650.2 847.131 1650.76 834.75 1650.59 C 822.769 1650.59 810.432 1650.38 798.5 1651.12 C 793.623 1663.83 779.66 1696.41 772.989 1707.94 C 765.889 1708.15 756.721 1709.5 751.182 1705.4 C 749.721 1699.62 777.797 1641.05 782.713 1630.31 L 838.359 1509.69 z" fill="rgb(30,30,30)" transform="translate(0,0)"></path>
<path d="M 838.395 1556.44 C 842.579 1559.47 864.13 1619.66 869.653 1631.74 C 859.72 1632.19 848.601 1630.95 839.521 1631.59 C 834.444 1631.11 814.43 1631.84 807.406 1631.77 C 817.031 1607.48 827.711 1580.08 838.395 1556.44 z" fill="rgb(254,254,254)" transform="translate(0,0)"></path>
<path d="M 1848.78 1514.4 C 1869.34 1513.56 1889.73 1518.38 1907.73 1528.34 C 1925.05 1537.74 1920.08 1544.52 1911.06 1557.62 C 1899.2 1548.54 1882.85 1537.53 1867.73 1536.22 C 1768.02 1527.53 1740.26 1662.98 1842.48 1684.4 C 1862.53 1688.61 1884.54 1682.06 1901 1669.61 C 1899.77 1660.52 1900.82 1641.34 1897.88 1635.58 C 1893.08 1631.52 1871.37 1634.17 1863.29 1634.46 C 1861.43 1628.87 1859.59 1619.28 1860.67 1613.48 C 1863.56 1611.15 1909.52 1615.95 1923 1610.22 C 1924.35 1633.49 1922.37 1657.98 1923.7 1680.95 C 1890.99 1714.92 1822.85 1711.86 1787.04 1683.63 C 1767.83 1668.25 1755.66 1645.75 1753.28 1621.25 C 1747.06 1562.94 1793.44 1520.14 1848.78 1514.4 z" fill="rgb(30,30,30)" transform="translate(0,0)"></path>
<path d="M 359.054 1517.09 C 371.842 1516.93 462.286 1517.52 467.6 1519.42 C 469.204 1520 469.523 1520.4 470.121 1522.05 C 471.549 1526 470.466 1533.81 468.643 1537.49 C 461.401 1540.43 393.918 1538.97 380.919 1538.88 C 381.308 1553.87 381.885 1582.44 379.516 1596.69 C 392.005 1597.2 445.751 1595.3 451.306 1600.66 C 452.613 1606.24 451.973 1613.44 451.799 1619.33 C 439.788 1620.67 393.924 1619 378.977 1618.97 L 379.012 1631.75 C 379.165 1649.79 378.392 1666.27 378.06 1684.2 C 405.362 1684.31 432.811 1684.92 460.114 1685.21 C 472.251 1685.34 468.481 1695.31 467.527 1705.03 C 439.656 1705.51 411.508 1704.54 383.628 1704.4 C 374.549 1704.35 364.042 1704.39 355.234 1702.59 C 354.857 1666.3 355.796 1629.19 356.912 1592.86 C 357.505 1573.55 355.924 1534.43 359.054 1517.09 z" fill="rgb(43,43,43)" transform="translate(0,0)"></path>
<path d="M 1356.25 1836.63 C 1381.87 1832.86 1415.98 1837.33 1442.33 1835.45 C 1450.8 1834.85 1460.48 1836.07 1469 1835.48 C 1527.99 1831.4 1587.41 1834.69 1646.5 1833.63 L 1782.72 1831.71 C 1809.79 1831.09 1830.25 1829.32 1858.12 1829.43 C 1874.69 1829.54 1891.25 1829.36 1907.81 1828.9 C 1917.65 1828.61 1942.76 1824.25 1946.13 1834.95 C 1942.66 1849.64 1929.41 1843.98 1917.31 1844.93 C 1880.4 1847.82 1843.16 1846.02 1806.1 1846.81 L 1478.33 1851.05 C 1440.8 1851.29 1392.4 1849.7 1355.68 1851.81 C 1360.21 1847.34 1363.41 1840.08 1356.25 1836.63 z" fill="url(#Gradient1)" transform="translate(0,0)"></path>
<path d="M 1517.95 1110.78 C 1523.87 1110.57 1530.68 1110.75 1536.66 1110.77 L 1538.97 1216.88 C 1539.39 1231.33 1541.59 1255.86 1540.83 1268.8 C 1536.64 1266.16 1517.51 1245.96 1512.51 1241.03 C 1483.49 1212.41 1456.18 1182.08 1427.47 1153.08 C 1426.06 1176.27 1428.52 1203.76 1429.03 1227.26 C 1429.28 1239 1431.2 1252.6 1430.04 1264.08 L 1410.64 1264.05 C 1409.63 1246.85 1410.61 1224.74 1410.04 1206.42 L 1408.03 1139.28 C 1407.85 1132.09 1406.85 1116.77 1407.81 1110.64 C 1418.01 1113.74 1476.15 1181.26 1488.68 1191.66 C 1493.51 1195.67 1516.01 1220.24 1520.57 1226.22 C 1521.6 1204.57 1519.85 1179.96 1519.35 1158.03 C 1519.03 1143.8 1519.44 1124.24 1517.95 1110.78 z" fill="rgb(30,30,30)" transform="translate(0,0)"></path>
<path d="M 932.401 1110.64 C 934.552 1112.54 945.794 1137.33 946.704 1140.62 C 951.414 1157.67 1000.27 1256.37 999.604 1265.01 C 994.895 1268.27 987.166 1266.74 981.142 1266.23 L 962.235 1223.83 L 932.91 1223.96 L 903.999 1223.92 C 898.842 1236.41 890.5 1255.27 884.716 1267.14 C 879.605 1267.33 870.439 1268.36 866.553 1265.33 C 866.82 1262.93 927.031 1122.07 932.401 1110.64 z" fill="rgb(30,30,30)" transform="translate(0,0)"></path>
<path d="M 932.856 1150.44 C 934.778 1153.77 939.273 1165.79 940.933 1169.97 L 956.073 1207.85 L 934.009 1207.9 L 909.871 1207.87 C 916.949 1190.61 927.255 1167.73 932.856 1150.44 z" fill="rgb(254,254,254)" transform="translate(0,0)"></path>
<path d="M 517.17 1107.4 C 520.656 1110.13 530.628 1137.75 533.019 1143.65 L 561.37 1213.83 C 564.424 1221.31 580.642 1258.57 579.477 1263.17 C 557.958 1275.1 553.076 1238.79 546.311 1223.6 C 535.74 1222.89 524.397 1222.98 513.75 1222.86 C 504.715 1222.7 495.03 1222.92 485.94 1222.96 C 480.283 1236.46 474.649 1250.38 468.435 1263.59 C 462.891 1264.56 456.53 1266.03 452.079 1261.97 C 452.264 1256.37 512.412 1115.74 517.17 1107.4 z" fill="rgb(30,30,30)" transform="translate(0,0)"></path>
<path d="M 517.426 1147.72 C 520.253 1150.94 537.283 1200.36 539.915 1207.9 L 519.25 1207.25 L 491.997 1207.32 L 517.426 1147.72 z" fill="rgb(254,254,254)" transform="translate(0,0)"></path>
<path d="M 545.907 1519.29 C 562.156 1518.34 575.891 1520.75 590.512 1520.45 C 626.807 1519.7 662.566 1520.77 698.785 1520.96 C 699.588 1529.49 699.621 1532.52 698.787 1540.97 C 678.527 1541.92 654.16 1541.64 633.824 1541.66 L 632.999 1647.25 C 633.058 1655.42 632.075 1699.16 630.711 1705.67 C 626.26 1708.75 614.657 1706.94 608.946 1706.48 C 608.253 1678.91 609.367 1649.77 609.81 1622.19 C 610.201 1594.81 610.207 1567.42 609.827 1540.05 C 587.674 1540.06 564.893 1540.65 542.834 1539.51 C 542.431 1533.07 540.65 1523.39 545.907 1519.29 z" fill="rgb(30,30,30)" transform="translate(0,0)"></path>
<path d="M 1167.34 1521.44 C 1171.25 1522.34 1169.64 1521.44 1172.49 1524.03 C 1173.65 1529.11 1173.06 1568.74 1173.04 1575.62 L 1173.32 1686.67 C 1184.84 1686.64 1251.57 1684.05 1256.5 1687.45 C 1259.39 1689.44 1260.47 1694.65 1260.28 1697.92 C 1260.09 1701.59 1258.35 1705.01 1255.51 1707.34 C 1252.05 1710.17 1246.73 1709.12 1242.19 1708.82 C 1230.47 1708.95 1155.84 1709.65 1150.08 1707.64 C 1146.06 1696.77 1147.63 1668.09 1147.59 1655.45 L 1147.34 1580 C 1147.39 1566.09 1146.2 1534.56 1148.62 1522.11 C 1154.7 1521.76 1161.22 1521.65 1167.34 1521.44 z" fill="rgb(30,30,30)" transform="translate(0,0)"></path>
<path d="M 159.501 1104.37 C 180.825 1102.42 205.483 1106.68 219.934 1123.82 C 220.291 1130.3 220.004 1139.11 219.972 1145.77 C 197.453 1127.31 181.919 1116.57 150.808 1125.09 C 119.822 1133.57 96.8196 1169.27 107.553 1200.93 C 119.085 1234.94 153.348 1250.66 187.297 1238.79 C 199.434 1233.13 206.178 1228.23 216.621 1219.85 C 217.374 1228.63 218.842 1237.28 213.199 1244.75 C 206.275 1253.91 185.175 1259.39 174.265 1260.7 C 152.708 1263.22 131.039 1257 114.101 1243.43 C 98.0033 1230.43 87.7187 1211.58 85.503 1191.01 C 80.7039 1146.19 115.965 1109.15 159.501 1104.37 z" fill="rgb(43,43,43)" transform="translate(0,0)"></path>
<path d="M 1671.26 1108.52 C 1672.68 1108.4 1671.83 1108.3 1673.57 1109.61 C 1674.55 1114.86 1673.86 1120.23 1673.52 1125.62 C 1651.76 1124.85 1631.1 1126.64 1611.08 1125.88 C 1611.57 1141.66 1611.88 1157.45 1611.99 1173.23 C 1623.77 1173.48 1660.67 1169.92 1667.46 1175.02 C 1669.07 1179.35 1668.23 1184.6 1667.94 1189.4 C 1646.4 1190.49 1636.34 1188.82 1612.57 1191.51 C 1611.93 1211.94 1612.57 1225.32 1613.92 1245.6 L 1653.77 1245.25 L 1678.9 1244.89 C 1679.28 1250.1 1680.43 1254.56 1678.79 1259.23 C 1673.52 1263.92 1607.37 1263.02 1595.1 1262.38 C 1594.47 1211.47 1593.19 1160.58 1591.24 1109.7 C 1617.61 1110.23 1644.88 1109.3 1671.26 1108.52 z" fill="rgb(30,30,30)" transform="translate(0,0)"></path>
<path d="M 1755.91 1104.25 C 1772.13 1103.97 1787.73 1109.46 1799.3 1121.02 C 1797.68 1126.65 1796.05 1131.51 1794.13 1137.03 C 1778.91 1127.41 1774.36 1123.2 1756.27 1120.79 C 1746.88 1124.59 1737.26 1127.91 1737.11 1140 C 1736.71 1172.51 1783.29 1172.68 1799.67 1194.94 C 1813.5 1211.66 1810.06 1240.45 1792.7 1253.75 C 1780.57 1263.05 1767 1264.3 1752.21 1262.37 C 1736.06 1257.78 1726.3 1252.68 1715.3 1239.95 C 1717 1235.96 1721.3 1226.04 1724.21 1223.29 C 1730.16 1226.73 1737.38 1234.38 1744.13 1239.43 C 1766.28 1255.98 1791.61 1244.99 1787.29 1216.33 C 1782.71 1200.5 1756.88 1190.18 1744.14 1183.01 C 1706.44 1161.81 1709.45 1112.74 1755.91 1104.25 z" fill="rgb(30,30,30)" transform="translate(0,0)"></path>
<path d="M 657.551 1112.27 C 674.101 1110.79 690.834 1118.52 700.821 1131.68 C 696.12 1136.06 691.943 1139.56 686.976 1143.64 C 680.459 1135.74 678.655 1131.48 667.706 1128.87 C 654.916 1125.81 638.256 1133.98 637.664 1148.31 C 638.134 1168.27 663.922 1178.21 679.031 1187.32 C 707.735 1204.64 718.584 1234.97 690.004 1259.37 C 679.957 1267.95 663.073 1269.57 649.766 1267.73 C 648.62 1267.56 647.475 1267.37 646.333 1267.17 C 628.22 1264.06 620.048 1255.59 610.075 1241.58 C 613.883 1237.76 619.593 1233.64 623.95 1230.27 C 634.107 1243.09 642.844 1255 661.165 1253.21 C 675.271 1251.83 689.527 1239.03 686.24 1224.08 C 681.905 1204.36 656.617 1197.35 642.179 1186.36 C 632.024 1179.19 621.41 1169.24 619.878 1156.01 C 616.718 1128.74 633.343 1116.21 657.551 1112.27 z" fill="rgb(30,30,30)" transform="translate(0,0)"></path>
<path d="M 1020.65 1521.28 C 1023.92 1521.45 1027.36 1521.46 1030.6 1521.93 C 1031.98 1522.13 1034.74 1522.45 1035.49 1523.73 C 1037.8 1527.7 1037.77 1695.83 1035.54 1706.06 C 1032.61 1708.61 1033.29 1707.82 1028.83 1708.59 C 1023.49 1708.6 1017.7 1708.36 1012.34 1708.23 C 1009.62 1692.4 1010.35 1535.04 1013.08 1523.12 C 1015.39 1521.13 1016.91 1521.68 1020.65 1521.28 z" fill="rgb(30,30,30)" transform="translate(0,0)"></path>
<path d="M 1260.35 1113.52 C 1279.58 1112.32 1286.89 1107.65 1285.9 1129.82 L 1224.62 1130.3 C 1223.82 1143.23 1224.97 1162.19 1224.89 1176.16 C 1237.23 1177.71 1262.89 1176.89 1275.5 1175.75 C 1275.82 1180.97 1275.88 1186.76 1276.05 1192.04 C 1259.22 1191.93 1242.39 1191.93 1225.57 1192.03 L 1225.79 1213.25 C 1225.36 1230.33 1226.15 1247.62 1225.65 1265.2 C 1218.43 1266.06 1214.47 1265.94 1207.16 1265.73 C 1207.45 1233.59 1206.55 1201.52 1206.72 1169.34 C 1206.82 1150.78 1204.85 1133.25 1206.04 1114.26 C 1224.43 1113.49 1242.16 1115.21 1260.35 1113.52 z" fill="rgb(30,30,30)" transform="translate(0,0)"></path>
<path d="M 1352.24 1520.67 C 1359.22 1520.88 1370.13 1519.47 1374.84 1523.94 C 1376.9 1539.34 1375.63 1584.87 1375.65 1602.07 L 1376 1668.79 C 1376.14 1679.06 1377.91 1699.45 1375.5 1708.15 C 1369.23 1709.49 1358.3 1710.2 1352.8 1706.55 C 1351.12 1703 1350.1 1528.52 1352.24 1520.67 z" fill="rgb(30,30,30)" transform="translate(0,0)"></path>
<path d="M 1919.97 1105.41 C 1931.41 1105.29 1942.84 1105 1954.27 1104.53 C 1955.55 1110.59 1956.81 1115.34 1954.93 1121.22 C 1954.45 1121.63 1953.96 1122.05 1953.47 1122.46 C 1940.61 1121.88 1916.43 1121.72 1904.75 1121.92 C 1904.1 1137.57 1912.56 1253.24 1910 1258.06 C 1904.22 1259.62 1898.49 1259.02 1892.44 1258.86 L 1892.13 1248.25 C 1892.19 1241.26 1892.04 1234.38 1891.59 1227.4 C 1889.36 1192.6 1888.31 1157.65 1885.96 1122.86 C 1869.01 1121.88 1854.85 1123.19 1837.91 1124.39 C 1837 1117.97 1837.13 1112.47 1837.11 1106 C 1858.34 1107.09 1899.29 1106.99 1919.97 1105.41 z" fill="rgb(30,30,30)" transform="translate(0,0)"></path>
<path d="M 743.907 1115.12 C 782.522 1114.85 821.139 1114.87 859.753 1115.16 C 860.061 1120.72 859.837 1126.11 859.706 1131.66 C 845.023 1132.58 824.127 1131.95 808.983 1131.95 L 808.937 1182.78 C 808.984 1194.66 809.492 1209.51 808.388 1220.95 C 807.668 1232.53 810.359 1256.82 805.871 1265.01 C 801.836 1267.56 794.206 1267.85 790.543 1264.51 C 789.509 1260.39 790.066 1233.06 790.096 1227.32 L 790.828 1132.01 C 777.592 1131.94 761.86 1133.47 748.872 1131.49 C 740.56 1130.22 741.976 1121.43 743.907 1115.12 z" fill="rgb(30,30,30)" transform="translate(0,0)"></path>
<path d="M 1047.88 1112.99 C 1051.94 1113.02 1057.18 1113.99 1061.3 1114.62 C 1062.41 1126.85 1061.99 1146.63 1062.04 1159.49 L 1062.01 1249.29 C 1079.65 1250.14 1113.8 1247.65 1132.57 1249.76 C 1133.27 1250.36 1133.96 1250.96 1134.65 1251.56 C 1136.36 1255.81 1137.3 1263.15 1132.97 1266.01 C 1103 1266.32 1073.02 1266.29 1043.05 1265.94 C 1043.07 1225.84 1042.11 1157.56 1043.48 1115.28 C 1043.51 1114.37 1046.56 1113.52 1047.88 1112.99 z" fill="rgb(30,30,30)" transform="translate(0,0)"></path>
<path d="M 1084.66 1837.85 C 1097.49 1836.83 1117.1 1837.35 1130.06 1837.5 L 1193.21 1837.95 C 1247.86 1838.14 1301.74 1836.79 1356.25 1836.63 C 1363.41 1840.08 1360.21 1847.34 1355.68 1851.81 C 1310.6 1854.1 1260.97 1852.43 1215.46 1852.97 L 1138.87 1853.36 C 1126.64 1853.4 1104.98 1854.05 1093.48 1852.91 L 1096.44 1850.29 C 1098.99 1849.96 1100.08 1849.76 1102.56 1849.11 C 1107.57 1841.93 1102.12 1845.06 1110.94 1840.95 L 1110.8 1839.54 C 1103.12 1837.3 1092.25 1841.66 1084.66 1837.85 z" fill="rgb(30,30,30)" transform="translate(0,0)"></path>
<path d="M 1344.75 1112.57 C 1347.82 1112.35 1347.6 1112.37 1350.35 1113.8 C 1351.3 1115.35 1351.34 1115.38 1351.38 1117.21 L 1353.04 1225.25 C 1353.15 1235.26 1354.71 1254.99 1353.67 1263.53 C 1351.34 1265.47 1349.19 1265.04 1346.04 1265.08 C 1342.4 1265.11 1338.38 1265.53 1335.18 1264.09 C 1333.42 1251.1 1334.45 1217.56 1334.12 1202.71 C 1333.48 1174.03 1332.14 1141.88 1332.66 1113.3 L 1344.75 1112.57 z" fill="rgb(30,30,30)" transform="translate(0,0)"></path>
<metadata><recraft-signature>{"signed_by": "recraft", "signature_b64": "0VFw4ghs5x2/GFzAbPGiO522hU1gd7ZUaZ3OD6MQhELSp3vFHrXt0Pu+fxiudP4IwmwtRhrbqJZ0WFimX4e6Dg==", "signing_algo": "Ed25519", "generation_timestamp": 1778257209, "identifier": "361218bc-42ff-481d-9de7-a64517187e2d"}</recraft-signature></metadata></svg>