<svg xmlns="http://www.w3.org/2000/svg" height="1024" preserveAspectRatio="none" style="display: block;" version="1.1" viewBox="0 0 2048 2048" width="1024">
<defs>
	<linearGradient gradientUnits="userSpaceOnUse" id="Gradient1" x1="1186.42" x2="1034.46" y1="622.054" y2="647.191">
		<stop class="stop0" offset="0" stop-color="rgb(0,0,0)" stop-opacity="1"></stop>
		<stop class="stop1" offset="1" stop-color="rgb(34,26,22)" stop-opacity="1"></stop>
	</linearGradient>
</defs>
<path d="M 0 0 L 2048 0 L 2048 2048 L 0 2048 L 0 0 z" fill="rgb(254,254,254)" transform="translate(0,0)"></path>
<path d="M 1008.77 281.124 C 1012.74 280.863 1018.46 281.17 1022.57 281.266 C 1055.16 304.307 1023.88 314.844 1023.59 323.213 C 1029.93 335.747 1048.79 349.246 1060.23 357.764 C 1106.24 392.046 1188.74 393.495 1241.86 377.196 C 1251.66 374.19 1265.94 361.914 1274.6 361.668 C 1276.6 361.611 1276.98 361.871 1278.53 363.168 C 1284.31 368.013 1324.54 430.628 1325.45 436.639 C 1325.81 439.045 1323.29 441.037 1321.83 442.897 C 1315.41 451.066 1310.4 458.407 1306.44 468.112 C 1300.24 483.348 1299.37 504.862 1298.46 521.32 C 1295.23 585.725 1297.26 650.287 1304.56 714.36 C 1306.27 729.566 1308.09 746.759 1310.58 761.769 C 1312.39 772.72 1314.57 771.577 1315.52 785.037 C 1308.21 796.815 1292.42 805.822 1281.24 814.366 C 1207.74 870.551 1113.33 917.236 1026.97 951.159 C 1010.26 958.093 980.832 939.088 964.077 932.334 C 883.057 899.676 801.827 858.756 735.563 801.152 C 733.864 799.044 720.372 789.985 720.682 787.576 C 730.686 709.883 737.207 631.7 734.717 553.227 C 733.773 523.477 732.224 492.829 721.818 464.571 C 717.764 453.563 709.368 442.582 707.062 431.628 C 710.101 423.505 747.319 371.237 754.887 362.617 C 777.107 371.804 792.198 377.864 815.975 382.409 C 863.882 391.567 929.286 389.489 970.563 360.127 C 979.847 353.523 999.203 335.727 1008.61 326.953 C 1008.77 326.104 1008.93 325.255 1009.09 324.406 C 1005.27 312.632 978.049 299.411 1007.57 281.824 L 1008.77 281.124 z" fill="rgb(19,15,10)" transform="translate(0,0)"></path>
<path d="M 963.707 442.399 C 969.75 441.463 993.119 441.793 999.798 441.873 C 1057.31 442.555 1114.52 446.63 1171.79 451.624 C 1188.72 453.101 1217.53 451.962 1235.74 452.342 C 1228.01 489.63 1225.6 560.789 1226.09 600.457 C 1226.5 633.586 1228.01 666.693 1230.62 699.721 C 1231.7 714.604 1233.91 729.608 1234.45 744.497 C 1234.57 747.955 1234.61 752.086 1233.44 755.403 C 1229.18 767.443 1135.83 819.278 1118.89 827.692 C 1103.51 835.327 1085.47 840.777 1070.99 849.752 C 1070.51 850.054 1070.11 850.51 1069.57 850.718 C 1067.79 851.408 1066.25 851.095 1064.32 852.163 C 1063.72 852.492 1063.14 852.833 1062.55 853.169 C 1050.57 854.953 1029.05 866.038 1014.44 865.416 C 1011.83 865.304 1001.54 862.13 998.751 861.331 C 986.652 857.87 966.746 850.847 955.673 846.111 C 922.74 832.022 825.429 783.167 803.863 760.196 L 802.882 759.14 L 800.772 760.681 C 798.114 752.046 803.944 703.616 804.634 690.597 C 807.426 635.541 807.749 580.388 805.602 525.303 C 804.622 501.851 804.514 475.767 798.135 453.186 C 848.942 452.492 912.663 448.158 963.707 442.399 z" fill="rgb(254,254,254)" transform="translate(0,0)"></path>
<path d="M 1049.04 551.12 L 1176.73 550.848 C 1177.89 558.525 1182.52 588.561 1175.63 593.046 C 1168.52 591.085 1173.53 581.052 1163.03 570.962 C 1149.64 558.106 1118.06 561.155 1099.7 561.57 L 1099.76 631.143 C 1111.69 631.193 1134.07 633.279 1143.56 628.388 C 1149.7 625.228 1149.61 618.081 1151.03 611.45 C 1153.83 608.572 1152.24 609.164 1155.59 608.835 C 1160.42 613.736 1157.48 650.863 1158.34 659.853 C 1158.59 662.491 1157.26 665.685 1155.5 667.81 L 1150.31 668.218 C 1147.68 641.509 1138.71 642.081 1113.95 642.254 C 1109.17 642.287 1103.97 642.287 1099.14 642.313 C 1098.94 663.31 1096.8 689.557 1101.36 710.053 C 1104.25 723.061 1124.23 713.5 1126.55 722.896 L 1125.12 724.832 C 1114.44 729.448 1079.64 724.352 1066.68 726.587 C 1063.18 727.19 1049.77 726.501 1046.29 725.619 L 1045.56 722.629 C 1049.67 713.012 1071.74 723.471 1071.77 703.573 C 1071.78 661.004 1073.27 618.181 1071.85 575.641 C 1071.15 554.88 1056.26 563.787 1048.98 556.602 L 1049.04 551.12 z" fill="url(#Gradient1)" transform="translate(0,0)"></path>
<path d="M 942.601 548.372 C 965.581 544.676 992.882 551.234 1015.01 556.927 C 1014.5 568.36 1015.31 591.558 1013.62 601.233 L 1011.7 602.007 C 1002.64 598.783 1004.55 574.096 982.528 564.013 C 966.563 555.786 948.672 555.27 931.461 560.375 C 866.553 579.628 868.747 690.343 926.684 716.307 C 945.065 724.543 962.852 725.02 981.421 718.201 C 1007.18 704.897 1001.81 694.005 1013.76 677.598 C 1017.43 676.352 1018.77 677.421 1020.72 680.161 C 1021.84 687.905 1014.51 712.785 1012.11 721.131 C 1002.26 724.49 992.142 726.961 981.86 728.517 C 950.633 733.155 912.818 730.693 886.753 710.97 C 868.307 697.147 856.247 676.441 853.323 653.576 C 845.638 593.217 884.992 555.238 942.601 548.372 z" fill="rgb(19,15,10)" transform="translate(0,0)"></path>
<path d="M 727.346 433.471 C 732.997 422.538 751.468 392.769 761.019 386.65 C 766.922 385.447 778.701 391.568 784.823 393.64 C 852.216 416.453 957.199 407.833 1007.77 353.794 C 1009.28 366.345 1009.14 382.394 1009 395.213 C 991.064 411.025 939.499 430.342 915.336 430.505 C 876.427 430.768 838.442 438.147 799.554 434.24 C 792.698 433.577 778.545 430.781 773.081 433.553 C 768.804 442.147 778.428 447.4 780.045 457.547 C 795.732 555.935 793.828 666.852 780.57 765.533 C 845.438 816.778 928.878 856.787 1006.04 885.718 C 1007.08 898.41 1006.44 915.665 1007.63 926.216 C 1007.97 926.945 1007.78 927.868 1007.75 928.845 L 1005.9 930.015 C 997.315 929.359 967.148 916.181 957.88 912.247 C 894.321 885.269 830.712 853.426 774.997 812.403 C 761.848 802.721 748.446 792.547 737.555 780.285 C 738.053 768.055 740.366 754.797 741.468 742.473 L 750.244 648.792 C 750.919 640.765 750.213 630.706 750.36 622.173 C 751.067 581.246 749.832 538.442 746.09 497.763 C 745.19 487.974 740.366 470.528 737.823 460.672 C 735.774 453.879 730.606 439.445 727.346 433.471 z" fill="rgb(254,254,254)" transform="translate(0,0)"></path>
<path d="M 737.823 460.672 C 753.665 471.261 754.269 583.935 753.961 607.89 C 753.175 648.523 750.5 689.098 745.946 729.482 C 744.41 743.511 742.762 763.413 740.188 777.049 C 747.487 786.956 759.775 796.547 769.805 804.106 C 830.844 850.107 900.853 884.843 971.381 913.651 C 983.074 918.428 994.832 926.088 1007.63 926.216 C 1007.97 926.945 1007.78 927.868 1007.75 928.845 L 1005.9 930.015 C 997.315 929.359 967.148 916.181 957.88 912.247 C 894.321 885.269 830.712 853.426 774.997 812.403 C 761.848 802.721 748.446 792.547 737.555 780.285 C 738.053 768.055 740.366 754.797 741.468 742.473 L 750.244 648.792 C 750.919 640.765 750.213 630.706 750.36 622.173 C 751.067 581.246 749.832 538.442 746.09 497.763 C 745.19 487.974 740.366 470.528 737.823 460.672 z" fill="rgb(74,70,65)" transform="translate(0,0)"></path>
<path d="M 1025.49 355.024 L 1026.61 355.704 C 1037.85 362.611 1050.32 376.097 1061.34 381.484 C 1067.28 384.383 1090.92 394.405 1097 395.965 C 1141.61 407.408 1191.64 407.128 1236.61 398.072 C 1245.02 396.384 1264.12 385.732 1269.45 385.244 C 1275.85 384.656 1301.55 430.611 1304.43 436.254 C 1297.72 445.544 1292.47 455.156 1289.25 466.207 C 1275.32 514.093 1280.07 629.983 1284.97 682.873 C 1286.56 700.084 1288.28 717.458 1290.39 734.608 C 1291.55 744.037 1293.33 753.523 1294.02 762.993 C 1294.38 767.886 1294.74 777.054 1292.24 781.349 C 1280.59 801.335 1175.62 859.911 1150.66 873.867 C 1146.52 876.185 1142.78 879.291 1138.56 881.406 C 1132.07 884.654 1125.01 887.018 1118.34 889.928 L 1074.43 909.202 C 1070.19 911.03 1074.44 913.346 1069.47 914.495 C 1054.31 918 1040.13 923.83 1025.48 929.007 C 1025.06 915.126 1025.73 901.389 1025.18 887.547 C 1033.62 884.785 1040.64 880.584 1048.27 878.011 C 1076.88 868.354 1104.25 854.011 1131.39 840.892 C 1165.92 824.196 1199.66 802.022 1231.38 780.595 C 1238.28 775.782 1249.55 768.13 1254.32 761.692 C 1253.57 752.631 1250.35 750.661 1250.58 741.852 C 1251 725.216 1246.36 707.943 1245.74 691.174 C 1244.56 661.923 1242.47 630.431 1242.01 601.318 C 1241.46 572.496 1242.46 543.665 1245.02 514.951 C 1246.77 494.359 1249.7 481.624 1250.19 459.247 C 1251.01 450.35 1261.73 435.579 1249.81 431.644 C 1218.55 441.873 1142.31 431.792 1107.84 430.052 C 1098.13 429.561 1074.21 421.687 1065.09 417.529 C 1052.74 411.422 1037.15 401.223 1025.41 396.704 C 1024.83 385.41 1024.74 366.332 1025.49 355.024 z" fill="rgb(254,254,254)" transform="translate(0,0)"></path>
<path d="M 1249.81 431.644 C 1253.98 430.643 1253.78 430.615 1258.01 431.226 C 1266.66 437.178 1261.95 444.575 1254.74 449.09 C 1254.29 452.713 1254.2 457.655 1252.1 460.364 L 1250.19 459.247 C 1251.01 450.35 1261.73 435.579 1249.81 431.644 z" fill="rgb(74,70,65)" transform="translate(0,0)"></path>
<path d="M 1016.31 414.848 C 1019.86 414.847 1029.94 419.437 1032.13 422.543 L 1031.22 423.483 L 1025.89 423.188 L 1003.11 423.054 C 1006.3 420.58 1012.65 417.039 1016.31 414.848 z" fill="rgb(254,254,254)" transform="translate(0,0)"></path>
<path d="M 1013.66 294.199 C 1021.74 295.108 1021.07 299.882 1020.48 306.589 C 1015.61 305.943 1015.89 306.136 1013.13 303.423 C 1012.07 299.642 1012.8 298.02 1013.66 294.199 z" fill="rgb(74,70,65)" transform="translate(0,0)"></path>
<path d="M 720.827 1683.42 C 745.517 1680.98 774.806 1685.1 799.619 1685.05 L 912.302 1684.18 C 936.916 1684.24 961.654 1682.42 985.568 1688.74 C 989.5 1689.78 1009.16 1695.54 1011.95 1695.09 C 1034.53 1691.53 1055.92 1681.86 1079.52 1682.64 C 1112.52 1682.19 1144.98 1684.56 1178 1683.96 C 1204.77 1683.47 1230.57 1684.75 1257.5 1682.92 C 1282.25 1681.23 1308.55 1684.42 1333.36 1684.74 L 1547.23 1686.83 L 1751.81 1689.45 L 1886.13 1689.93 C 1912.99 1689.9 1941.7 1688.6 1968.74 1690.49 C 1973.93 1690.85 1978.37 1692.41 1980.38 1697.39 C 1979.01 1704.3 1974.39 1705.97 1967.96 1706.08 C 1939.45 1706.59 1911.03 1705.63 1882.56 1705.19 L 1738.7 1703.79 L 1253.3 1700.74 C 1194.92 1699.92 1083.81 1696.2 1031.05 1710.94 C 1034.64 1715.97 1036.68 1717.66 1038.48 1724.11 C 1045.25 1748.39 1021.7 1770.36 999.068 1756.21 C 993.247 1752.57 989.088 1744.06 988.296 1737.13 C 987.113 1726.78 989.334 1719.55 995.681 1711.31 C 965.92 1702.43 931.791 1701.83 900.762 1700.9 C 864.788 1699.95 828.801 1699.67 792.817 1700.05 C 716.884 1699.89 640.952 1700.63 565.036 1702.27 L 209.761 1704.54 C 186.565 1704.79 75.2274 1708.96 63.1854 1704.8 C 60.2825 1703.79 58.6558 1702.31 57.2028 1699.59 C 56.9759 1691.47 67.6067 1689.93 74.087 1689.85 C 157.866 1688.79 241.734 1689.48 325.496 1687.63 C 335.715 1687.4 346.73 1689.19 356.849 1688.77 C 373.154 1688.1 389.012 1686.95 405.37 1686.73 L 613.118 1684.11 C 653.819 1683.72 679.332 1687.52 720.827 1683.42 z" fill="rgb(4,4,2)" transform="translate(0,0)"></path>
<path d="M 1569.48 1029.86 C 1599.91 1027.1 1632.4 1027.42 1662.92 1027.1 L 1760.87 1025.66 L 1819.72 1024.72 C 1828.25 1024.67 1843.19 1025.05 1851.45 1024.96 C 1865.47 1024.82 1945.78 1019.25 1953.75 1024.52 C 1955.82 1027.36 1955.71 1027.13 1956.2 1030.62 C 1954.58 1031.99 1951.74 1034.58 1950.04 1035.55 C 1948.41 1036.68 1944.26 1039.74 1942.4 1039.82 C 1915.21 1040.86 1888.22 1041.44 1861.02 1041.49 L 1747.71 1042.68 C 1725.98 1042.71 1704.26 1043.16 1682.54 1044.03 C 1672.55 1044.35 1654.63 1045.56 1645.32 1044.77 C 1615.07 1045.85 1588.86 1044.34 1559.7 1044.68 L 1356.2 1047.04 C 1345.77 1047.1 1335.02 1049.53 1324.49 1049.69 L 1025.43 1052.23 C 932.283 1052.24 839.14 1051.76 746.001 1050.78 C 730.529 1050.54 715.093 1049.23 699.622 1049.04 C 671.422 1048.69 643.243 1050.33 615.003 1049.8 C 576.615 1049.08 538.112 1046.28 499.73 1045.7 C 492.005 1046.25 479.485 1045.71 471.127 1045.94 C 434.999 1046.97 399.084 1046.05 362.998 1045.08 L 161.004 1040.03 C 149.044 1039.71 93.6468 1040.72 86.0303 1038.1 C 81.5362 1035.25 77.4973 1033.45 75.9948 1028.67 C 77.5539 1026.14 78.0132 1023.91 81.3513 1023.55 C 107.962 1020.69 134.502 1024.73 160.782 1025.07 L 348.882 1027.81 C 371.456 1028.1 394.112 1027.82 416.672 1028.08 C 427.114 1028.19 438.605 1029.79 449.431 1030.12 C 472.669 1029.93 497.317 1029.19 520.388 1029.53 C 543.464 1029.86 568.342 1032.46 591.697 1032.94 L 834.033 1035.79 C 983.187 1036.6 1132.35 1035.38 1281.47 1032.12 C 1321.5 1031.43 1362.07 1032.97 1401.92 1031.96 C 1405.99 1031.13 1431.63 1030.55 1437.08 1030.48 C 1460.8 1030.19 1488.74 1027.45 1512.04 1029.73 C 1530.61 1030.19 1551.69 1029.06 1569.48 1029.86 z" fill="rgb(4,4,2)" transform="translate(0,0)"></path>
<path d="M 86.0303 1038.1 C 129.696 1036.05 176.122 1038.2 219.917 1038.21 C 256.453 1038.22 293.653 1037.09 329.833 1041.64 C 340.674 1042.99 353.893 1040.99 364.968 1042.04 C 380.168 1042.42 385.739 1044 403.379 1044.27 C 420.837 1044.54 455.694 1037.99 473.374 1041.21 C 473.997 1041.33 475.504 1043.89 475.867 1044.5 C 480.232 1044.56 497.59 1043.88 499.73 1045.7 C 492.005 1046.25 479.485 1045.71 471.127 1045.94 C 434.999 1046.97 399.084 1046.05 362.998 1045.08 L 161.004 1040.03 C 149.044 1039.71 93.6468 1040.72 86.0303 1038.1 z" fill="rgb(33,27,21)" transform="translate(0,0)"></path>
<path d="M 1645.32 1044.77 L 1645.82 1044.22 C 1666.39 1036.51 1777.08 1038.26 1804.38 1037.81 C 1850.63 1037.05 1903.55 1035.61 1950.04 1035.55 C 1948.41 1036.68 1944.26 1039.74 1942.4 1039.82 C 1915.21 1040.86 1888.22 1041.44 1861.02 1041.49 L 1747.71 1042.68 C 1725.98 1042.71 1704.26 1043.16 1682.54 1044.03 C 1672.55 1044.35 1654.63 1045.56 1645.32 1044.77 z" fill="rgb(74,70,65)" transform="translate(0,0)"></path>
<path d="M 1569.48 1029.86 C 1599.91 1027.1 1632.4 1027.42 1662.92 1027.1 L 1760.87 1025.66 L 1819.72 1024.72 C 1828.25 1024.67 1843.19 1025.05 1851.45 1024.96 C 1865.47 1024.82 1945.78 1019.25 1953.75 1024.52 C 1955.82 1027.36 1955.71 1027.13 1956.2 1030.62 C 1945.9 1023.61 1798.31 1029.64 1772.27 1028.95 C 1705.72 1027.18 1636.88 1034.3 1569.48 1029.86 z" fill="rgb(74,70,65)" transform="translate(0,0)"></path>
<path d="M 75.9948 1028.67 C 77.5539 1026.14 78.0132 1023.91 81.3513 1023.55 C 107.962 1020.69 134.502 1024.73 160.782 1025.07 L 348.882 1027.81 C 371.456 1028.1 394.112 1027.82 416.672 1028.08 C 427.114 1028.19 438.605 1029.79 449.431 1030.12 C 429.693 1033.35 401.297 1030.18 380.848 1031.19 C 350.021 1032.71 318.611 1028.72 287.746 1029.48 C 234.107 1030.8 181.06 1025.5 127.475 1027.41 C 109.719 1028.04 94.0142 1026.18 75.9948 1028.67 z" fill="rgb(74,70,65)" transform="translate(0,0)"></path>
<path d="M 1401.92 1031.96 C 1405.99 1031.13 1431.63 1030.55 1437.08 1030.48 C 1460.8 1030.19 1488.74 1027.45 1512.04 1029.73 C 1501.94 1033.84 1414.8 1033.69 1401.92 1031.96 z" fill="rgb(74,70,65)" transform="translate(0,0)"></path>
<path d="M 193.113 1386.43 C 236.436 1386.62 299.683 1379.81 331.274 1412.61 C 360.993 1443.46 357.754 1495.12 327.974 1524.62 C 294.286 1553.29 235.535 1547.3 193.08 1547.2 C 193.019 1493.91 192.45 1439.64 193.113 1386.43 z" fill="rgb(4,4,2)" transform="translate(0,0)"></path>
<path d="M 215.058 1403.28 C 244.287 1403.02 287.832 1398.84 310.29 1420.34 C 335.199 1444.18 334.94 1488.36 311.36 1513.04 C 283.499 1535.34 250.135 1530.35 215.027 1530.18 L 215.058 1403.28 z" fill="rgb(254,254,254)" transform="translate(0,0)"></path>
<path d="M 299.504 1168.31 C 317.608 1165.77 338.52 1169.97 353.739 1180.35 C 368.065 1190.25 377.764 1205.53 380.617 1222.71 C 387.973 1265.27 359.157 1293.49 319.1 1300.11 C 281.354 1303.79 241.612 1286.1 235.065 1245.42 C 232.227 1228.16 236.443 1210.5 246.763 1196.38 C 260.433 1177.94 277.777 1171.67 299.504 1168.31 z" fill="rgb(4,4,2)" transform="translate(0,0)"></path>
<path d="M 306.979 1179.39 C 322.334 1179.64 333.102 1181.48 345.669 1190.76 C 377.346 1214.14 373.867 1265.75 336.882 1282.06 C 327.13 1286.36 320.693 1287.66 310.166 1288.37 C 294.924 1288.18 281.804 1285.61 269.358 1276.24 C 257.993 1267.83 250.606 1255.09 248.946 1241.05 C 244.585 1202.58 272.76 1182.53 306.979 1179.39 z" fill="rgb(254,254,254)" transform="translate(0,0)"></path>
<path d="M 860.003 1385.87 L 883.405 1386.07 C 908.45 1440.18 933.895 1494.12 959.739 1547.85 L 936.167 1547.86 C 929.918 1534.06 923.441 1520.36 916.741 1506.78 C 905.855 1506.39 894.964 1506.15 884.071 1506.06 L 825.12 1506.23 C 819.083 1519.51 812.333 1535.01 805.566 1547.79 L 783.315 1547.48 C 806.573 1496.89 839.86 1436.78 860.003 1385.87 z" fill="rgb(19,15,10)" transform="translate(0,0)"></path>
<path d="M 870.869 1406.56 C 874.199 1408.39 905.092 1480.8 909.63 1490.55 L 872.403 1490.65 C 859.122 1490.62 845.841 1490.45 832.563 1490.14 L 870.869 1406.56 z" fill="rgb(254,254,254)" transform="translate(0,0)"></path>
<path d="M 1449.56 1386.45 C 1455.56 1386.23 1461.41 1386.59 1467.4 1386.86 C 1482.16 1404.13 1496.47 1422.89 1510.87 1440.51 C 1531.46 1465.6 1552.29 1490.49 1573.36 1515.18 C 1573.88 1472.73 1573.16 1429.6 1573.34 1387.03 L 1593.46 1387 L 1593.85 1501.96 C 1593.87 1508.42 1594.44 1542.96 1593.35 1546.66 L 1590.25 1547.04 L 1573.74 1546.67 C 1562.44 1535.08 1548.11 1516.55 1537.72 1503.78 L 1467.01 1415.69 C 1467.33 1459.72 1467.34 1503.75 1467.04 1547.79 L 1448 1547.89 C 1448.01 1507.68 1447.7 1431.34 1448.32 1388 C 1448.73 1387.48 1449.15 1386.97 1449.56 1386.45 z" fill="rgb(4,4,2)" transform="translate(0,0)"></path>
<path d="M 1764.71 1384.42 C 1767.63 1384.4 1770.56 1384.42 1773.49 1384.49 C 1799.1 1385.15 1819.26 1390.92 1837.1 1409.79 L 1819.57 1422.09 C 1798.5 1392.99 1746.02 1395.68 1720.61 1418.69 C 1707.95 1430.29 1700.52 1446.54 1700.04 1463.72 C 1698.29 1513.1 1741.45 1539.07 1786.67 1532.38 C 1798.93 1530.57 1811.8 1525.9 1820.93 1517.25 L 1820.86 1479.73 L 1789.06 1480.16 L 1769.9 1480.52 C 1769.79 1475.25 1769.89 1469.64 1769.89 1464.34 C 1793.21 1464.17 1816.54 1464.11 1839.86 1464.19 L 1839.95 1529.98 C 1818.84 1542.01 1806.57 1546.73 1782.4 1549.49 C 1732.44 1555.61 1680.8 1528.8 1677.03 1474.35 C 1673.11 1417.71 1712.28 1388.25 1764.71 1384.42 z" fill="rgb(19,15,10)" transform="translate(0,0)"></path>
<path d="M 433.475 1386.32 C 471.75 1385.99 510.029 1386.03 548.304 1386.44 L 548.104 1402.62 L 455.793 1403.03 L 455.777 1458.66 C 481.601 1459.42 510.11 1458.93 536.081 1458.97 L 535.804 1474.6 C 509.606 1475.11 482.667 1474.47 456.228 1474.83 C 454.601 1478.55 455.418 1523.11 455.402 1529.91 L 552.019 1530.09 L 551.995 1546.66 L 433.117 1546.66 L 433.475 1386.32 z" fill="rgb(4,4,2)" transform="translate(0,0)"></path>
<path d="M 924.683 1170.02 L 939.742 1169.65 C 953.843 1209.34 983.709 1258.39 999.961 1298.16 L 985.891 1298.65 C 979.7 1287.94 975.041 1277.23 969.976 1265.99 L 937.356 1265.95 L 892.051 1266.05 C 887.065 1277.08 881.943 1288.05 876.687 1298.96 L 861.52 1298.66 C 882.793 1255.89 903.848 1213.01 924.683 1170.02 z" fill="rgb(4,4,2)" transform="translate(0,0)"></path>
<path d="M 931.093 1183.69 C 937.023 1192.27 958.017 1241.12 963.907 1254.4 C 953.533 1254.82 941.013 1254.59 930.5 1254.64 C 919.707 1254.7 908.914 1254.61 898.124 1254.36 C 908.901 1230.71 919.891 1207.15 931.093 1183.69 z" fill="rgb(254,254,254)" transform="translate(0,0)"></path>
<path d="M 479.773 1170.22 C 484.445 1169.99 489.635 1170.2 494.353 1170.28 C 514.188 1213.42 534.842 1255.5 554.871 1298.32 L 539.463 1298.57 C 534.367 1286.87 529.694 1276.61 523.993 1265.21 L 495.691 1265.96 L 447.897 1266.3 L 433.293 1297.97 L 417.876 1297.95 C 439.55 1257.48 458.408 1210.21 479.773 1170.22 z" fill="rgb(4,4,2)" transform="translate(0,0)"></path>
<path d="M 486.196 1183.7 C 491.063 1189.84 514.121 1244.18 518.887 1255.03 L 487.787 1255.24 L 453.359 1255.08 C 464.134 1231.45 476.055 1207.47 486.196 1183.7 z" fill="rgb(254,254,254)" transform="translate(0,0)"></path>
<path d="M 622.159 1385.97 L 751.638 1386.25 C 751.661 1391.48 751.513 1396.96 751.444 1402.21 C 733.603 1402.15 715.761 1402.34 697.925 1402.77 L 697.81 1494.5 L 697.903 1547.44 C 691.082 1547.75 683.301 1547.55 676.393 1547.52 L 676.085 1402.25 C 658.644 1401.83 639.759 1402.24 622.207 1402.28 L 622.159 1385.97 z" fill="rgb(19,15,10)" transform="translate(0,0)"></path>
<path d="M 1433.1 1170.13 L 1445.61 1170.16 C 1473.45 1203.32 1506.81 1247.42 1535.31 1278.28 L 1535.69 1170.85 L 1549.01 1170.7 L 1548.89 1299.56 L 1535.71 1299.67 C 1505.61 1264.22 1476.44 1226.47 1446.34 1191.6 C 1445.6 1226.75 1446.24 1263.72 1446.31 1299 L 1433.1 1298.89 L 1433.1 1170.13 z" fill="rgb(4,4,2)" transform="translate(0,0)"></path>
<path d="M 1143.08 1386.9 L 1164.68 1386.96 C 1163.76 1433.98 1164.88 1484.64 1165.02 1531.9 C 1193.53 1533.22 1226.77 1532.11 1255.92 1532.36 L 1255.96 1547.25 C 1219.98 1548.64 1179.39 1547.87 1143.06 1547.85 L 1143.08 1386.9 z" fill="rgb(19,15,10)" transform="translate(0,0)"></path>
<path d="M 1613.11 1170.96 L 1697.66 1171.34 L 1697.2 1182.44 L 1627.39 1182.35 L 1627.52 1227.6 L 1689.5 1227.76 L 1689.59 1238.79 C 1669.91 1238.73 1647.41 1238.47 1627.88 1239.27 L 1628 1287.08 C 1652.77 1287.41 1678.04 1287.2 1702.86 1287.25 L 1702.73 1299.34 C 1674.12 1300.41 1641.99 1299.83 1613.19 1299.62 L 1613.11 1170.96 z" fill="rgb(4,4,2)" transform="translate(0,0)"></path>
<path d="M 124.089 1168.32 C 149.069 1165.99 172.615 1171.03 190.687 1189.23 C 187.97 1192.2 184.198 1195.48 181.177 1198.26 C 165.607 1185.13 151.741 1178.1 130.689 1179.42 C 115.194 1180.3 100.712 1187.4 90.535 1199.12 C 64.5489 1229.65 78.732 1278.28 119.082 1286.63 C 129.229 1288.73 135.088 1288.76 145.396 1287.79 C 162.012 1285.25 168.959 1280.6 181.007 1269.83 L 191.129 1278.58 C 152.815 1317.82 73.7281 1305.86 63.8397 1245.29 C 60.9976 1227.96 65.2088 1210.21 75.5344 1196 C 87.4304 1179.47 104.408 1171.38 124.089 1168.32 z" fill="rgb(4,4,2)" transform="translate(0,0)"></path>
<path d="M 631.688 1168.34 C 648.193 1166.29 665.811 1173.13 680.213 1180.31 C 678.4 1183.94 676.072 1187.81 674.041 1191.37 C 661.862 1184.17 651.697 1180.01 637.178 1179.83 C 624.288 1178.46 603.76 1187.32 605.849 1203.29 C 609.684 1232.62 655.323 1224.08 675.714 1244.05 C 681.33 1249.59 684.458 1257.18 684.384 1265.06 C 684.238 1293.47 654.197 1300.06 631.616 1299.17 C 613.835 1297.85 601.107 1292.13 586.895 1281.75 C 588.783 1278.06 591.15 1274.16 593.243 1270.54 C 608.364 1281.47 624.499 1290.05 643.895 1287.88 C 654.235 1287.75 673.398 1277.72 670.448 1264.55 C 663.38 1233 597.8 1245.82 591.877 1209.56 C 587.454 1182.49 609.865 1171.4 631.688 1168.34 z" fill="rgb(4,4,2)" transform="translate(0,0)"></path>
<path d="M 1784.15 1169.3 C 1801.47 1167.4 1816.1 1171.28 1830.56 1180.69 C 1829.47 1184.32 1827.96 1188.22 1826.66 1191.82 C 1810.35 1181.69 1785.36 1173.77 1767.49 1187.29 C 1754.72 1196.95 1754.69 1211.76 1769.79 1220.64 C 1791.49 1233.41 1836.6 1231.04 1837.28 1265.2 C 1836.54 1294.2 1808.11 1301.81 1783.75 1301.09 C 1768.34 1300.11 1754.66 1293.54 1742.88 1283.83 C 1744.26 1280.13 1745.94 1276.32 1747.47 1272.67 C 1764.01 1283.89 1776.62 1291.16 1798.16 1288.82 C 1810.55 1287.47 1825.44 1277.36 1823.05 1262.95 C 1819.97 1250.1 1798.31 1243.64 1786.94 1240.92 C 1758.93 1234.2 1731.39 1218.11 1751.25 1185.91 C 1758.14 1174.74 1771.65 1171.36 1784.15 1169.3 z" fill="rgb(4,4,2)" transform="translate(0,0)"></path>
<path d="M 1031.19 1386.27 L 1052.46 1386.82 C 1051.92 1439.98 1052.61 1494.47 1052.65 1547.73 L 1030.99 1547.75 L 1031.19 1386.27 z" fill="rgb(19,15,10)" transform="translate(0,0)"></path>
<path d="M 1330.35 1386.98 L 1351 1386.94 L 1351.04 1548.09 L 1330.88 1548.02 C 1329.56 1495.25 1330.3 1439.96 1330.35 1386.98 z" fill="rgb(19,15,10)" transform="translate(0,0)"></path>
<path d="M 1217.58 1170.97 C 1239.46 1170.74 1281.52 1169.48 1301.92 1171.12 L 1302.97 1172.43 C 1303.08 1175.26 1303.56 1178.6 1302.56 1181.11 C 1298.93 1182.71 1240.61 1182 1231.96 1182 L 1231.98 1229.36 L 1293.79 1229.61 C 1294.03 1233.97 1294.14 1234.8 1293.41 1239.03 C 1289.28 1241.64 1240.12 1240.35 1231.89 1240.38 L 1232.04 1299.27 L 1217.5 1299.12 L 1217.58 1170.97 z" fill="rgb(4,4,2)" transform="translate(0,0)"></path>
<path d="M 720 1170.1 L 829.013 1170.24 C 829.091 1174.43 829.478 1177.6 828.173 1181.58 C 821.17 1182.74 790.937 1182.5 781.457 1182.73 C 780.695 1203.26 781.502 1229.39 781.524 1250.5 L 781.336 1298.01 L 768.032 1298.26 L 767.665 1182.63 C 756.012 1182.16 730.411 1183.12 720.916 1181.65 C 719.419 1178.11 719.919 1174.03 720 1170.1 z" fill="rgb(4,4,2)" transform="translate(0,0)"></path>
<path d="M 1867.86 1170.95 L 1972.95 1171.31 C 1973.02 1175.5 1973.3 1177.6 1972.21 1181.57 C 1966.96 1182.79 1934.03 1182.35 1927.07 1182.35 L 1927.03 1253.5 L 1926.99 1299.13 L 1912.14 1299.02 C 1913.12 1260.91 1912.76 1220.99 1912.84 1182.8 C 1904.11 1182.78 1876.08 1183.22 1868.91 1181.65 C 1867.34 1178.7 1867.82 1174.48 1867.86 1170.95 z" fill="rgb(4,4,2)" transform="translate(0,0)"></path>
<path d="M 1051.26 1170.68 L 1065.3 1170.67 C 1066.56 1208.3 1065.92 1248.99 1066.14 1286.88 C 1082.43 1287.21 1098.95 1286.97 1115.23 1287.27 C 1122.77 1287.41 1134.96 1286.93 1142.09 1288.15 C 1143.27 1290.84 1142.9 1295.2 1142.87 1298.34 C 1112.41 1298.11 1081.96 1298.1 1051.5 1298.3 C 1051.5 1255.81 1050.89 1213.13 1051.26 1170.68 z" fill="rgb(4,4,2)" transform="translate(0,0)"></path>
<path d="M 1354.56 1170.64 L 1368.64 1170.59 L 1368.53 1299.08 L 1354.08 1298.64 C 1354.54 1255.97 1354.7 1213.3 1354.56 1170.64 z" fill="rgb(4,4,2)" transform="translate(0,0)"></path>
<metadata><recraft-signature>{"signed_by": "recraft", "signature_b64": "gisv2zjPib19ufFJ4H5ILjblimuwpmV86L4EIidLheAM1trLj/iYuz+DqLsaGF6rQD1Kf/8xdC0/RDMmIiZnCA==", "signing_algo": "Ed25519", "generation_timestamp": 1778257222, "identifier": "6129eb52-e786-4d17-900b-964f01a7f547"}</recraft-signature></metadata></svg>