<svg xmlns="http://www.w3.org/2000/svg" height="1024" preserveAspectRatio="none" style="display: block;" version="1.1" viewBox="0 0 2048 2048" width="1024">
<path d="M 0 0 L 2048 0 L 2048 2048 L 0 2048 L 0 0 z" fill="rgb(254,254,254)" transform="translate(0,0)"></path>
<path d="M 1023.56 67.7834 C 1049.96 71.974 1082.59 146.302 1063.13 169.601 C 1060.53 172.71 1051.03 184.306 1050.51 186.445 C 1066.96 201.014 1089.6 172.39 1100.74 167.923 C 1110.52 164 1140.79 180.364 1149.21 185.271 C 1175.57 183.619 1181.97 182.301 1200.09 203.721 C 1226.44 204.635 1232.18 203.095 1249.41 224.561 C 1276.72 227.082 1281.58 228.403 1296.53 251.763 C 1327.14 253.569 1335.35 265.026 1334.15 293.985 C 1354.96 303.907 1358.82 312.677 1355.75 335.458 C 1360.21 345.149 1360.73 356.478 1366.48 363.893 C 1369.91 368.312 1383.92 371.391 1383.53 378.815 C 1377.73 386.438 1358.77 390.544 1350.87 396.009 C 1325.72 413.393 1306.93 439.789 1300.62 469.451 C 1304.51 479.968 1313.29 488.714 1315.17 499.962 C 1316.95 510.596 1309.17 530.344 1317.67 538.424 C 1324.64 545.044 1385.94 560.32 1399.15 564.592 C 1457.57 583.912 1515.22 605.485 1571.97 629.262 C 1633.33 655.477 1630.28 643.637 1629.66 710.763 C 1629.04 806.192 1622.17 901.478 1609.08 996.008 C 1604.25 1033.3 1599.25 1070.46 1592.82 1107.53 C 1591.57 1114.74 1593.85 1122.02 1602.4 1122.65 C 1613.86 1123.49 1625.54 1123.8 1637.13 1124.27 C 1656 1125.08 1674.86 1126.1 1693.71 1127.34 C 1734.94 1130.05 1780.31 1136.13 1821.05 1135.39 C 1828.04 1135.28 1835.02 1134.68 1841.94 1133.6 C 1862.08 1130.26 1890.51 1114.23 1881.85 1148.75 C 1877.52 1166.01 1873.2 1183.46 1868.9 1200.73 L 1844.6 1298.84 C 1839.65 1318.72 1834.43 1338.37 1830.4 1358.46 C 1825.99 1380.37 1843.9 1377.86 1859.45 1378.64 C 1875.26 1379.55 1891.09 1380.22 1906.93 1380.64 C 1915.56 1380.8 1932.58 1380.25 1940.2 1381.49 C 1944.09 1385.12 1944.92 1390.08 1941.75 1394.26 C 1934.25 1404.13 1923.87 1413.66 1915.07 1422.45 C 1894.94 1442.88 1874.43 1462.92 1853.54 1482.57 C 1839.14 1496.12 1808.58 1522.14 1798.83 1537.43 C 1804.44 1552.5 1826.98 1580.37 1837.57 1594.67 C 1859.1 1623.59 1880.25 1652.79 1901.01 1682.26 C 1909.34 1694.03 1928.05 1716.62 1932.09 1730.98 C 1932.82 1733.57 1930.96 1736.27 1929.27 1738.27 C 1923.12 1741.53 1886.57 1736.98 1877.61 1736.25 L 1807.4 1731.25 C 1785.1 1729.72 1762.79 1728.33 1740.47 1727.08 C 1726.9 1726.29 1712.85 1725.52 1699.35 1724.21 C 1668.26 1721.18 1709.47 1669.03 1700.11 1658.53 C 1689.1 1656.11 1637.8 1655.43 1624.16 1654.94 C 1577.98 1653.26 1531.78 1651.99 1485.58 1651.13 C 1478.72 1650.98 1413.73 1648.35 1409.74 1651.32 C 1402.94 1656.38 1389.86 1685.03 1382.59 1695.3 C 1362.49 1723.2 1339.39 1748.81 1313.71 1771.68 C 1267.17 1813.39 1204.25 1853.24 1152.08 1888.27 L 1066.09 1945.88 C 1052.78 1954.89 1039.76 1964.6 1026.28 1973.19 C 1025.97 1973.2 1022.88 1973.38 1022.56 1973.17 C 941.894 1918.92 852.272 1863.75 775.089 1805.59 C 755.567 1790.68 736.924 1774.65 719.254 1757.59 C 698.138 1737.14 679.144 1714.62 662.563 1690.35 C 655.302 1679.88 640.279 1649.24 627.02 1648.76 C 598.866 1647.75 569.617 1649.67 541.326 1650.4 C 502.32 1651.46 463.32 1652.74 424.328 1654.25 C 403.183 1654.96 381.931 1655.13 360.831 1656.37 C 358.108 1656.6 353.224 1656.9 351.312 1659.21 C 345.588 1666.24 352.088 1676.79 353.909 1684.36 C 356.289 1694.25 364.307 1711.39 355.815 1720.12 C 354.172 1721.81 345.128 1723.03 342.286 1723.28 C 302.912 1726.78 262.352 1729.15 223.022 1732.34 L 162.738 1737.21 C 151.732 1738.05 129.344 1740.14 119.533 1738.38 C 104.149 1735.63 139.235 1693.32 143.122 1687.98 L 209.301 1597.06 C 219.369 1583.31 240.282 1559.77 244.087 1544.46 L 244.423 1543.05 C 240.365 1523.22 212.166 1501.54 197.228 1487.12 L 134.734 1426.2 C 127.883 1419.65 99.7475 1396.67 102.645 1386.93 C 103.344 1384.5 105.187 1382.57 107.58 1381.76 C 110.745 1380.67 127.671 1382.06 133.28 1381.9 C 156.943 1381.33 185.047 1382.74 207.84 1377.57 C 226.62 1373.32 210.63 1332.29 207.536 1319.67 C 196.786 1276.61 186.256 1233.51 175.946 1190.34 C 173.379 1179.63 154.528 1126.58 171.15 1127.37 C 186.513 1128.1 206.934 1135.28 223.097 1135.06 C 298.84 1133.98 374.576 1125.77 450.056 1121.04 C 451.832 1120.93 454.945 1117.01 454.751 1115.27 C 450.79 1079.9 444.616 1044.53 439.911 1009.08 C 427.279 911.904 420.162 814.093 418.595 716.114 C 418.275 699.186 416.921 670.15 421.334 653.776 C 421.937 651.541 424.529 649.455 426.692 648.493 C 443.953 640.81 462.814 633.875 480.4 626.851 C 532.408 606.111 584.828 586.858 638.118 569.605 C 666.791 560.322 697.471 555.097 725.782 544.646 C 728.296 543.718 733.884 540.158 734.105 537.149 C 735.24 521.675 730.834 505.916 734.171 490.218 C 735.562 484.442 742.262 476.287 743.494 470.883 C 750.003 442.344 717.777 407.508 694.104 395.839 C 686.916 392.295 675.133 389.228 667.622 386.707 C 671.714 370.654 675.812 375.109 683.854 363.089 C 685.016 361.352 691.761 347.82 693.606 344.537 C 688.176 311.516 695.85 309.659 717.45 289.546 C 716.849 283.955 715.741 277.458 714.908 271.814 C 727.238 254.629 736.051 254.727 754.528 249.544 C 765.9 230.282 775.144 223.595 797.713 225.382 C 813.136 206.975 820.268 199.449 845.617 203.888 C 863.693 181.835 870.51 181.227 898.083 184.987 C 910.091 178.615 940.947 161.616 953.9 169.381 C 963.537 175.158 969.485 189.387 984.257 190.917 C 989.188 191.447 994.119 189.917 997.884 186.688 C 999.116 180.085 987.192 174.507 984.464 168.263 C 968.681 132.148 993.276 86.0507 1023.56 67.7834 z" fill="rgb(45,47,46)" transform="translate(0,0)"></path>
<path d="M 908.268 1127.51 C 970.438 1126.37 1033 1127.24 1095.2 1127.08 C 1137.29 1126.98 1179.92 1129.03 1222.09 1129.69 L 1337.91 1130.69 C 1447.11 1132.47 1556.29 1135.55 1665.42 1139.95 C 1709.32 1141.38 1753.18 1143.82 1796.97 1147.27 C 1810.56 1148.38 1846.54 1149.45 1857.23 1156.39 C 1865.03 1167.54 1853.11 1199.48 1849.55 1213.5 L 1831.44 1285.41 L 1772.39 1521.7 C 1764.01 1555.33 1756.38 1589.07 1747.6 1622.59 C 1746.72 1625.96 1745.15 1632.05 1742.65 1634.38 C 1738.95 1637.81 1732.04 1638.19 1727.15 1638.01 C 1703.57 1637.12 1679.98 1636.42 1656.38 1635.82 L 1402.5 1628.83 C 1314.01 1626.84 1226.06 1627.84 1137.58 1627.69 C 956.978 1629.41 776.122 1627.44 595.345 1630.28 C 547.977 1631.42 500.616 1632.81 453.264 1634.45 L 354.33 1637.02 C 346.496 1637.26 320 1639.12 315.15 1638.54 C 312.008 1638.18 309.067 1636.81 306.77 1634.64 C 298.907 1627.25 263.678 1482.24 258.874 1462.76 L 216.364 1291.9 L 197.031 1212.95 C 193.147 1197.45 187.67 1180.76 186.16 1164.83 C 185.837 1161.42 186.274 1158.94 188.938 1156.67 C 192.882 1153.32 197.876 1151.24 202.971 1150.36 C 226.448 1147.69 251.912 1146.36 275.471 1145.17 C 323.374 1142.75 371.298 1140.78 419.237 1139.24 C 582.182 1132.96 745.209 1129.05 908.268 1127.51 z" fill="rgb(254,254,254)" transform="translate(0,0)"></path>
<path d="M 576.115 1246.98 C 603.989 1245.91 627.491 1267.56 628.71 1295.43 C 629.928 1323.29 608.406 1346.91 580.544 1348.28 C 552.47 1349.66 528.631 1327.94 527.403 1299.86 C 526.175 1271.77 548.027 1248.05 576.115 1246.98 z" fill="rgb(45,47,46)" transform="translate(0,0)"></path>
<path d="M 576.125 1258.65 C 597.637 1257.64 615.873 1274.3 616.813 1295.82 C 617.753 1317.33 601.039 1335.52 579.522 1336.39 C 558.095 1337.27 540.002 1320.64 539.065 1299.21 C 538.129 1277.79 554.704 1259.65 576.125 1258.65 z" fill="rgb(254,254,254)" transform="translate(0,0)"></path>
<path d="M 704.009 1441.59 C 720.231 1441.65 736.709 1439.67 750.262 1449.63 C 757.783 1455.07 762.64 1463.46 763.623 1472.69 C 764.994 1484.81 760.942 1492.82 753.646 1501.68 C 736.863 1515.11 724.746 1512.83 703.91 1512.84 C 703.307 1490.11 703.932 1464.53 704.009 1441.59 z" fill="rgb(45,47,46)" transform="translate(0,0)"></path>
<path d="M 711.14 1448.96 C 724.028 1448.78 737.978 1447.12 747.916 1456.91 C 760.293 1469.1 757.977 1485.98 746.832 1497.81 C 734.883 1506.45 725.638 1505.71 711.561 1505.69 C 711.034 1487.24 711.26 1467.51 711.14 1448.96 z" fill="rgb(254,254,254)" transform="translate(0,0)"></path>
<path d="M 694.521 1249.13 C 696.118 1249.13 702.539 1248.85 703.303 1250.5 C 717.864 1282.05 731.598 1313.92 746.154 1345.52 C 742.268 1345.68 738.009 1345.65 734.086 1345.7 C 729.88 1337.29 726.573 1329.67 722.88 1321.06 L 705.25 1321.09 L 674.954 1321.24 C 670.832 1329.37 667.63 1337.6 664.212 1346.03 L 652.485 1345.63 C 664.241 1314.97 681.805 1280.88 694.521 1249.13 z" fill="rgb(45,47,46)" transform="translate(0,0)"></path>
<path d="M 698.424 1266.47 C 702.008 1268.97 715.638 1304.5 718.265 1310.91 L 700.5 1311.04 L 679.972 1311.01 C 684.563 1297.36 692.416 1279.65 698.424 1266.47 z" fill="rgb(254,254,254)" transform="translate(0,0)"></path>
<path d="M 987.959 1248.22 C 989.771 1248.26 994.808 1248.29 995.271 1249.18 C 1004.69 1267.28 1032.35 1328.91 1038.03 1344.67 C 1033.94 1344.85 1030.61 1344.64 1026.54 1344.44 C 1022.98 1336.29 1019.34 1328.18 1015.63 1320.1 L 997.11 1320.1 L 967.138 1319.96 C 964.822 1325.77 959.23 1341.37 955.386 1344.78 C 951.287 1345.08 950.798 1345.17 946.828 1344.4 C 946.748 1340.32 984.309 1256.65 987.959 1248.22 z" fill="rgb(45,47,46)" transform="translate(0,0)"></path>
<path d="M 991.227 1263.68 C 994.495 1268.27 1008.28 1302.34 1011.64 1310.11 L 994.577 1310.31 L 972.104 1310.1 C 978.278 1294.55 984.653 1279.07 991.227 1263.68 z" fill="rgb(254,254,254)" transform="translate(0,0)"></path>
<path d="M 1342.77 1248.3 C 1345.78 1248.13 1348.94 1247.75 1351.92 1248.35 C 1358.62 1249.72 1408.26 1317.91 1414.04 1326.68 L 1414.01 1248.47 C 1417.61 1248.23 1422.36 1247.54 1425 1249.7 C 1426.18 1263.13 1425.14 1286.04 1425.33 1300.3 C 1425.45 1309.62 1425.91 1336.11 1424.95 1344.4 L 1423.13 1345.25 C 1421.56 1345.26 1415.2 1345.36 1414.41 1344.34 C 1394.27 1318.59 1372.09 1290.86 1353.48 1264.27 C 1352.87 1290.38 1353.87 1316.96 1352.9 1342.83 C 1352.81 1345.17 1345.47 1345.92 1342.81 1343.86 C 1341.79 1332.43 1342.29 1317.81 1342.36 1306.15 L 1342.77 1248.3 z" fill="rgb(45,47,46)" transform="translate(0,0)"></path>
<path d="M 454.237 1248.21 C 470.987 1247.25 485.699 1248.34 498.3 1261.2 L 489.932 1268.92 C 461.611 1243.88 417.071 1266.6 424.582 1305.38 C 426.391 1315.14 432.046 1323.78 440.277 1329.34 C 450.994 1336.51 462.77 1336.61 474.9 1333.91 C 481.526 1331.84 485.974 1328.34 491.497 1324.35 L 498.783 1332.84 C 492.372 1338.94 484.521 1343.33 475.96 1345.6 C 462.371 1349.2 448.017 1347.65 435.824 1340.45 C 423.978 1333.54 415.486 1322.08 412.332 1308.73 C 405.091 1278 424.717 1254.4 454.237 1248.21 z" fill="rgb(45,47,46)" transform="translate(0,0)"></path>
<path d="M 1473.16 1248.19 C 1487.17 1248.2 1515.97 1247.21 1528.63 1248.83 L 1529.82 1250.41 C 1530 1253.01 1530.45 1254.69 1529.18 1256.92 C 1522.68 1260.38 1494.11 1258.7 1484.58 1258.59 L 1484.66 1289.92 C 1495.9 1290.03 1506.17 1290.16 1517.4 1289.2 C 1521.05 1288.89 1523.32 1289.43 1525.99 1291.92 C 1527.08 1295.71 1527.14 1293.93 1526.19 1297.45 C 1519.97 1302.56 1497.6 1297.4 1485.86 1299.81 L 1484.89 1301.8 L 1484.87 1334.91 C 1493.1 1334.88 1522.85 1334.21 1529.52 1335.57 C 1531.12 1338.1 1530.5 1339.67 1530.55 1343.24 C 1526.87 1346.66 1480.73 1345.09 1473.66 1345.07 C 1473.84 1312.77 1473.68 1280.48 1473.16 1248.19 z" fill="rgb(45,47,46)" transform="translate(0,0)"></path>
<path d="M 1585.38 1247.21 C 1587.86 1247.05 1590.35 1246.95 1592.84 1246.9 C 1601.87 1246.76 1619.59 1250.08 1617.97 1262.31 C 1610.98 1270 1599.12 1253.27 1590.98 1256.05 C 1554.94 1268.38 1590.33 1287.05 1603.22 1293.78 C 1631.92 1308.74 1628.58 1340.5 1595.8 1347.02 C 1585.57 1346.91 1566.43 1344.71 1563.14 1333.18 C 1563.58 1329.42 1565.61 1327.92 1568.22 1325.05 C 1576.44 1332.28 1589.14 1341.3 1599.65 1335.27 C 1629.93 1317.89 1593.16 1302.59 1581.18 1295.45 C 1556.64 1280.82 1558.32 1257.72 1585.38 1247.21 z" fill="rgb(45,47,46)" transform="translate(0,0)"></path>
<path d="M 796.917 1247.23 C 809.889 1246.38 816.483 1249.9 825.447 1258.6 L 819.248 1266.48 L 818.065 1265.49 C 808.752 1257.67 794.357 1252.92 786.926 1264.29 C 770.521 1289.4 830.189 1291.64 829.036 1318.93 C 828.09 1341.29 815.656 1346.63 796.815 1347.52 C 784.45 1346.43 776.915 1340.68 768.785 1332.12 C 771.14 1329.46 773.83 1326.69 776.272 1324.06 C 783.982 1331.44 791.209 1338.38 803.16 1336.43 C 809.873 1336.3 820.317 1325.79 817.348 1318.95 C 809.684 1300.62 777.879 1300.76 773.135 1280.09 C 768.851 1261.43 780.427 1251.2 796.917 1247.23 z" fill="rgb(45,47,46)" transform="translate(0,0)"></path>
<path d="M 1193.07 1248.56 C 1201.37 1248.83 1244.24 1247.58 1248.43 1249.9 C 1248.75 1253.88 1248.86 1254.35 1248.09 1258.2 C 1244.53 1259.41 1210.93 1258.9 1204.53 1258.88 L 1204.25 1290.09 C 1212.69 1290.1 1234.86 1289.45 1242 1290.58 C 1243.5 1293.37 1242.92 1296.56 1242.79 1299.87 C 1233.26 1300.75 1214.59 1300.28 1204.37 1300.33 C 1204.21 1313.74 1204.53 1327.12 1204.36 1340.5 C 1204.31 1344.53 1198.5 1346.63 1194.56 1344.67 C 1191.8 1340.3 1193.07 1258.77 1193.07 1248.56 z" fill="rgb(45,47,46)" transform="translate(0,0)"></path>
<path d="M 958.875 1441.48 C 960.38 1441.49 963.96 1441.38 964.452 1442.35 C 971.099 1455.45 992.369 1500.21 995.456 1510.69 L 994.655 1511.88 C 985.888 1513.83 982.855 1500 979.987 1493 L 963.496 1493.03 L 944.098 1493 C 941.675 1498.91 938.507 1509 933.569 1512.43 C 930.063 1512.57 931.458 1513.15 928.884 1511.59 C 930.193 1503.77 954.263 1449.8 958.875 1441.48 z" fill="rgb(45,47,46)" transform="translate(0,0)"></path>
<path d="M 961.273 1451.74 C 965.256 1457.03 973.954 1479.02 976.721 1485.94 L 961.75 1485.97 L 946.939 1485.96 C 951.151 1473.86 955.95 1463.31 961.273 1451.74 z" fill="rgb(254,254,254)" transform="translate(0,0)"></path>
<path d="M 1647.04 1248.25 C 1658.87 1248.25 1715.38 1247.16 1723.08 1249.12 C 1724.17 1252.17 1723.68 1253.26 1723.09 1256.43 C 1717.92 1259.34 1697.44 1258.05 1690.51 1257.91 C 1690.13 1276.25 1690.4 1295.24 1690.44 1313.63 C 1690.56 1323.45 1690.9 1334.03 1690.63 1343.79 L 1689.05 1344.9 C 1685.67 1344.87 1682.53 1345.31 1679.78 1343.61 C 1678.5 1336.69 1679.05 1320.57 1679.05 1312.75 L 1679.04 1257.96 C 1669.13 1257.73 1656.95 1259.75 1648.86 1256.8 C 1646.18 1253.5 1647.13 1253.71 1647.04 1248.25 z" fill="rgb(45,47,46)" transform="translate(0,0)"></path>
<path d="M 856.523 1248.72 C 880.837 1248.82 905.152 1248.79 929.466 1248.63 C 929.637 1251.76 929.559 1255.62 929.585 1258.82 L 897.96 1258.96 L 898.288 1313.4 C 898.447 1320.72 899.742 1339.36 896.704 1345.02 C 893.61 1345.73 890.798 1345.9 888.271 1343.91 C 885.908 1325.51 886.805 1279.05 886.67 1259.01 C 876.882 1258.75 865.173 1261.27 857.883 1257.34 C 855.754 1253.76 856.539 1253.63 856.523 1248.72 z" fill="rgb(45,47,46)" transform="translate(0,0)"></path>
<path d="M 1231.05 1441.1 C 1235.2 1441.26 1235.46 1440.57 1238.26 1442.54 C 1239 1449.12 1238.87 1510.3 1237.02 1512.59 C 1236.69 1512.6 1236.36 1512.65 1236.04 1512.61 C 1227.65 1511.56 1195.98 1465.45 1187.65 1456.38 L 1186.35 1454.99 C 1186.17 1474.27 1186.17 1493.55 1186.34 1512.83 C 1182.55 1512.86 1181.99 1513.5 1179.21 1511.87 C 1178.37 1504.08 1177.97 1445.64 1180.54 1441.73 L 1182.53 1441.81 C 1191.25 1446.43 1222.64 1488.42 1230.98 1498.97 C 1230.88 1479.68 1230.9 1460.39 1231.05 1441.1 z" fill="rgb(45,47,46)" transform="translate(0,0)"></path>
<path d="M 1072.22 1248.78 C 1075.92 1248.68 1079.07 1248.16 1082.33 1249.68 C 1083.29 1256.95 1082.75 1273.21 1082.71 1281.45 L 1082.75 1334.63 C 1091.87 1334.74 1117.68 1334.35 1124.95 1335.6 C 1126.28 1338.25 1125.93 1342.21 1125.94 1345.34 L 1072.3 1344.95 L 1072.22 1248.78 z" fill="rgb(45,47,46)" transform="translate(0,0)"></path>
<path d="M 1298.72 1441.14 C 1305.94 1440.51 1332.83 1440.31 1328.96 1453.15 C 1322.62 1453.8 1308.91 1442.35 1296.44 1449.22 C 1259.7 1469.47 1279.7 1521.5 1324.91 1501.99 C 1325.07 1497.43 1326.1 1488.25 1323.28 1484.98 C 1322.09 1483.59 1320.21 1483.76 1318.03 1483.4 C 1313.92 1483.49 1310.49 1483.98 1306.77 1482.42 C 1306.01 1479.98 1306.05 1480.16 1306.84 1477.71 C 1311.43 1476.12 1326.2 1477.02 1332.03 1477.18 L 1331.97 1506.73 C 1318.76 1513.3 1304.33 1516.71 1290.26 1510.12 C 1281.39 1505.95 1274.66 1498.29 1271.65 1488.97 C 1263.94 1465.84 1276.2 1447.52 1298.72 1441.14 z" fill="rgb(45,47,46)" transform="translate(0,0)"></path>
<path d="M 795.391 1441.74 C 803.682 1441.89 830.947 1440.57 836.662 1442.78 C 837.255 1445.67 837.3 1444.26 836.405 1447.15 C 830.763 1450.73 811.123 1449.25 802.911 1449.17 L 802.883 1472.95 C 811.78 1472.9 820.887 1472.74 829.762 1473.02 C 833.027 1474.92 832.087 1473.6 833.102 1476.79 C 829.011 1482.86 812.153 1476.6 803.36 1480.27 L 802.661 1482.75 L 802.822 1504.96 C 810.679 1504.92 832.942 1503.46 837.912 1507.44 L 838.149 1510.1 L 837.048 1511.37 C 826.823 1512.81 806.451 1512.1 795.283 1512.04 C 795.581 1488.61 795.617 1465.17 795.391 1441.74 z" fill="rgb(45,47,46)" transform="translate(0,0)"></path>
<path d="M 1285.9 1248.9 C 1289.61 1248.76 1293.15 1248.25 1296.49 1249.7 C 1297.48 1257.97 1297.01 1274.43 1297.02 1283.24 L 1296.98 1344.96 C 1293.43 1345.04 1289.82 1345.44 1286.56 1344.22 C 1285.53 1336.08 1285.9 1319.26 1285.89 1310.41 L 1285.9 1248.9 z" fill="rgb(45,47,46)" transform="translate(0,0)"></path>
<path d="M 862.374 1441.94 C 870.219 1441.86 912.515 1440.8 917.133 1442.64 C 918.421 1445.95 918.295 1444.29 917.481 1447.78 C 914.245 1449.93 898.842 1449.06 893.646 1449.06 L 893.77 1489.07 C 893.877 1497.08 895.452 1507.44 890.744 1512.93 L 888.805 1512.44 C 884.628 1505.56 886.154 1459.71 886.17 1448.95 C 879.457 1448.74 869.166 1450.65 864.042 1447.7 C 862.704 1446.94 862.711 1443.95 862.374 1441.94 z" fill="rgb(45,47,46)" transform="translate(0,0)"></path>
<path d="M 1067.11 1441.04 C 1070.11 1441.06 1072.3 1440.64 1074.54 1442.43 C 1075.86 1452.99 1074.89 1492.88 1074.87 1505.6 C 1082.67 1505.73 1098.34 1503.81 1105.06 1506.91 C 1106.12 1507.4 1106.07 1510.49 1106.26 1512.11 L 1067.05 1512.4 L 1067.11 1441.04 z" fill="rgb(45,47,46)" transform="translate(0,0)"></path>
<path d="M 1135.63 1441.03 C 1138.71 1441.17 1139.67 1440.95 1142.43 1442.28 C 1143.28 1447.86 1143.16 1507.16 1142.4 1513.26 C 1138.15 1512.77 1137.28 1513.35 1135.24 1510.82 C 1134.62 1502 1134.36 1447.95 1135.63 1441.03 z" fill="rgb(45,47,46)" transform="translate(0,0)"></path>
<path d="M 1023.08 1440.82 C 1026.7 1441.27 1027.64 1440.69 1029.72 1442.7 C 1031.25 1457 1030.17 1497.29 1030.08 1513.15 C 1026.49 1512.73 1025.37 1513.27 1023.21 1511.33 C 1021.72 1496.8 1022.83 1456.96 1023.08 1440.82 z" fill="rgb(45,47,46)" transform="translate(0,0)"></path>
<path d="M 988.639 580.451 C 1018.86 579.244 1051.83 580.088 1081.87 580.982 C 1210.26 584.801 1339.58 605.576 1459.55 652.612 C 1487.78 663.681 1522.74 678.11 1546.88 697.023 C 1554.49 702.983 1557.26 710.76 1557.51 720.281 C 1558.21 746.947 1556.61 775.331 1555.16 801.929 C 1550.57 887.318 1541.37 972.397 1527.59 1056.79 C 1525.63 1069.07 1521.04 1108.44 1513.83 1116.75 C 1504.46 1119.66 1446.3 1117.52 1432.42 1117.53 C 1308.51 1118.43 1184.6 1116.9 1060.75 1112.94 C 1012.25 1111.06 974.313 1114.61 927.485 1115.02 L 613.753 1117.97 C 599.624 1118.08 540.912 1121.54 532.506 1118.72 C 530 1117.88 527.444 1116.44 526.468 1113.88 C 522.798 1104.24 520.037 1064.36 518.327 1050.69 C 510.683 989.608 478.307 747.591 497.636 698.507 C 513.353 685.304 552.256 669.685 571.332 661.583 C 704.579 604.991 844.421 584.331 988.639 580.451 z" fill="rgb(254,254,254)" transform="translate(0,0)"></path>
<path d="M 940.076 707.399 C 969.428 705.287 999.05 712.739 1020.9 733.07 C 1018.43 742.608 1015.32 749.932 1011.64 758.989 C 1001.5 749.9 989.678 742.879 976.845 738.319 C 954.596 730.779 930.272 732.309 909.143 742.578 C 888.21 752.754 871.375 772.55 864.078 794.565 C 838.015 873.197 911.801 948.339 989.892 909.93 C 998.682 904.347 1004.54 899.888 1012.71 893.559 C 1017.74 900.838 1022.23 907.158 1026.49 914.973 C 1009.48 932.772 989.076 943.825 964.457 946.571 C 894.916 954.328 836.947 910.169 830.23 839.371 C 827.062 807.022 836.974 774.75 857.755 749.757 C 879.368 723.899 906.715 710.215 940.076 707.399 z" fill="rgb(45,47,46)" transform="translate(0,0)"></path>
<path d="M 1086.34 711.981 L 1203.22 711.839 C 1203.35 720.093 1203.43 728.348 1203.46 736.602 C 1173.47 736.089 1143.47 735.901 1113.47 736.041 C 1114.29 758.709 1113.89 784.145 1113.97 807.002 C 1140.32 807.358 1166.68 807.421 1193.03 807.193 L 1193.31 830.878 L 1171.43 830.71 L 1113.68 830.634 C 1113.78 867.817 1113.56 905 1113.02 942.178 C 1104.34 942.024 1095.25 942.211 1086.54 942.257 L 1086.34 711.981 z" fill="rgb(45,47,46)" transform="translate(0,0)"></path>
<path d="M 743.618 1647.42 C 774.718 1646.3 809.013 1646.87 840.45 1646.81 L 1031.88 1646.93 L 1204.55 1646.64 C 1220.92 1646.6 1313.2 1644.79 1320.68 1649.9 C 1330.6 1670.26 1210.99 1755.74 1195.54 1766.56 L 1094.93 1835.62 C 1073.05 1850.56 1046.27 1869.18 1023.58 1882.4 C 1002.24 1871.21 975.789 1849.18 954.511 1835.73 C 917.098 1812.09 880.013 1785.86 843.808 1760.37 C 807.479 1734.13 769.008 1707.86 741.615 1671.82 C 737.341 1666.19 728.044 1656.64 731.838 1649.56 C 735.501 1647.33 739.202 1647.66 743.618 1647.42 z" fill="rgb(254,254,254)" transform="translate(0,0)"></path>
<path d="M 968.666 533.475 C 1007.83 534.034 1049.5 532.207 1088.34 533.772 C 1214.25 538.845 1334.83 555.781 1453.09 601.873 C 1490.89 615.903 1528.25 631.276 1564.43 649.125 C 1583.7 658.631 1584.84 673.874 1562.07 679.059 C 1547.66 675.739 1530.44 663.631 1516.19 656.83 C 1492.07 645.388 1467.38 635.17 1442.23 626.213 C 1352.92 595.795 1260.24 576.396 1166.23 568.446 C 1137.6 565.827 1108.04 565.014 1079.23 563.142 C 925.426 559.52 778.039 571.99 630.763 619.69 C 604.262 628.104 578.232 637.937 552.786 649.147 C 533.046 657.884 512.411 669.497 492.119 676.541 C 486.531 678.48 476.693 675.224 472.1 671.44 C 456.119 658.274 476.08 648.453 487.073 644.32 C 521.464 631.389 554.769 616.263 589.491 604.248 C 661.291 579.406 734.672 558.587 809.858 547.017 C 862.027 539.316 916.049 536.007 968.666 533.475 z" fill="rgb(254,254,254)" transform="translate(0,0)"></path>
<path d="M 1359.76 1647.23 C 1395.33 1645.12 1367.1 1684.14 1357.11 1696.64 C 1292.05 1778.06 1194.8 1834.83 1109.21 1892.01 C 1091.81 1903.61 1074.51 1915.35 1057.3 1927.22 C 1048.07 1933.58 1033.51 1944.25 1024.28 1949.23 C 1015.09 1945.08 1000.78 1934.63 991.96 1928.6 C 976.611 1918.07 961.208 1907.62 945.749 1897.25 C 908.965 1872.6 873.523 1849.67 837.084 1824.18 C 775.769 1781.3 735.968 1754 690.559 1693.56 C 689.116 1691.56 687.686 1689.56 686.269 1687.55 C 677.906 1675.65 656.503 1646.31 687.688 1648.36 C 699.75 1649.15 717.602 1676.64 725.716 1685.4 C 739.889 1700.76 754.897 1716.74 770.897 1730.21 C 820.792 1772.21 875.912 1807.5 929.728 1844.01 C 946.719 1855.61 963.866 1866.98 981.164 1878.12 C 994.609 1886.94 1009.8 1897.79 1024.36 1903.88 C 1039.66 1898.49 1094.56 1860.32 1110.13 1849.73 C 1146.42 1825.12 1182.45 1800.13 1218.21 1774.76 C 1257.82 1746.35 1295.21 1718.2 1327.74 1681.58 C 1335.98 1672.3 1349.37 1651.94 1359.76 1647.23 z" fill="rgb(254,254,254)" transform="translate(0,0)"></path>
<path d="M 442.609 675.027 C 458.146 674.089 469.595 683.665 476.949 696.493 C 478.449 723.457 472.073 755.015 473.731 782.784 C 475.26 808.389 476.607 833.728 478.665 859.323 C 482.517 905.398 487.279 951.393 492.948 997.281 C 496.792 1026.8 506.803 1084.46 504.536 1115.39 C 504.386 1117.43 500.388 1119.34 498.364 1120.46 C 494.317 1121.33 478.386 1122.6 476.762 1118.34 C 470.117 1100.94 467.675 1075.99 464.984 1057.5 C 449.343 955.772 438.939 853.302 433.813 750.502 C 432.941 731.581 431.111 708.225 432.667 689.401 C 433.232 682.571 437.279 678.758 442.609 675.027 z" fill="rgb(254,254,254)" transform="translate(0,0)"></path>
<path d="M 1603.04 679.183 C 1613.3 680.601 1614.53 686.351 1614.62 695.681 C 1614.93 728.132 1613.24 761.333 1611.32 793.684 C 1605.89 883.529 1596.22 973.067 1582.37 1062 C 1580.37 1074.38 1576.55 1108.02 1568.93 1117.81 C 1565.8 1121.84 1555.41 1121.32 1550.22 1121.29 C 1535.88 1116.25 1537.55 1108.46 1539.62 1095.45 C 1542.26 1078.98 1545.65 1062.66 1548.07 1046.16 C 1557.89 983.039 1565.17 919.554 1569.9 855.854 C 1573.86 804.454 1575.5 754.424 1576.1 702.909 C 1576.27 687.851 1590.08 682.01 1603.04 679.183 z" fill="rgb(254,254,254)" transform="translate(0,0)"></path>
<path d="M 1145.15 234.191 C 1168.58 235.27 1241.59 268.729 1261.65 282.511 C 1286.31 302 1300.3 324.445 1306.29 354.641 C 1314.52 396.058 1277.33 374.729 1257.3 404.059 C 1256.11 412.002 1254.9 423.621 1263.25 427.664 C 1274.07 427.878 1280.87 415.039 1287.71 416.577 C 1289.38 424.256 1282.53 433.458 1278.23 439.326 C 1276.03 441.755 1273.73 444.098 1271.35 446.35 C 1248.23 468.427 1224.31 463.401 1194.01 462.819 C 1186.4 457.29 1184.71 455.87 1180.64 447.053 C 1197.84 442.522 1210.39 439.105 1221.63 423.768 C 1228.86 413.898 1234.39 398.986 1232.02 386.893 C 1228.17 367.237 1216.52 357.654 1201.7 346.99 C 1202.78 340.188 1203.9 330.374 1203.03 323.606 C 1202.81 316.175 1193.83 306.487 1192.11 300.402 C 1185.98 278.7 1176.35 266.36 1161.42 250.337 C 1156.42 244.972 1151.25 240.493 1145.97 235.483 C 1145.69 235.052 1145.42 234.622 1145.15 234.191 z" fill="rgb(254,254,254)" transform="translate(0,0)"></path>
<path d="M 1050.18 226.927 C 1067.09 231.467 1093.29 244.533 1105.77 256.953 C 1116.04 267.178 1117.53 271.045 1130.26 280.464 C 1134.89 303.185 1138.05 297.011 1149.34 313.114 C 1148.56 327.772 1147.95 330.563 1153.57 343.498 C 1146.46 347.857 1139.69 351.841 1133.47 357.227 C 1106.85 380.255 1108.7 413.535 1136.68 434.3 C 1140.36 437.033 1145.63 440.333 1148.63 443.693 L 1148.37 446.046 C 1134.45 461.42 1131.02 460.517 1111.58 461.287 C 1079.82 462.544 1064.27 450.528 1051.7 421.565 C 1067.54 406.558 1080.13 396.911 1077.86 371.237 C 1076.17 352.17 1064.77 343.057 1051.34 331.662 C 1049.29 320.747 1049.86 300.521 1049.9 288.626 L 1050.18 226.927 z" fill="rgb(254,254,254)" transform="translate(0,0)"></path>
<path d="M 900.12 232.156 L 903.38 232.275 L 904.59 233.611 C 902.951 237.484 895.779 240.129 893.811 243.525 C 886.445 256.235 877.097 265.946 868.056 277.052 C 864.262 281.713 862.57 293.126 859.81 298.128 C 849.747 316.367 844.333 323.975 848.898 345.477 C 826.187 362.038 808.345 382.974 818.853 414.541 C 825.414 434.25 844.488 441.527 862.063 449.238 C 860.613 451.528 859.05 453.745 857.381 455.882 C 847.037 468.886 829.134 467.582 814.272 465.513 C 804.897 464.209 799.952 460.16 793.159 454.281 C 764.173 423.794 794.968 422.88 792.246 408.757 C 785.47 373.609 740.327 399.894 740.86 346.988 C 749.936 335.664 749.228 329.513 755.223 317.401 C 758.63 310.517 767.913 305.708 773.425 300.43 C 777.529 296.499 780.442 288.608 784.802 285.247 C 814.653 262.238 864.165 241.703 900.12 232.156 z" fill="rgb(254,254,254)" transform="translate(0,0)"></path>
<path d="M 993.401 230.005 C 995.662 229.912 995.499 229.906 997.496 230.991 C 999.343 240.899 999.295 319.711 997.981 330.136 C 994.203 334.227 989.577 338.386 985.791 342.123 C 969.066 358.634 963.168 384.129 978.153 403.895 C 983.386 410.797 990.037 416.004 994.612 423.664 C 991.722 434.294 988.294 438.984 980.207 446.727 C 961.959 464.201 938.998 461.545 915.062 459.938 C 910.012 456.357 907.392 453.741 902.994 449.516 L 897.766 443.632 C 901.705 441.322 905.26 438.952 908.929 436.342 C 943.012 412.087 937.725 374.081 906.569 350.682 C 903.009 348.008 899.122 345.249 895.447 342.656 C 904.011 330.391 903.257 324.222 900.878 309.501 C 912.571 298.953 914.477 297.613 917.792 282.372 C 925.633 277.499 931.568 270.524 937.965 263.95 C 954.95 246.495 970.241 236.769 993.401 230.005 z" fill="rgb(254,254,254)" transform="translate(0,0)"></path>
<path d="M 1782.19 1558.7 C 1791.75 1559.68 1795.94 1568.43 1801.44 1576.11 C 1825.48 1609.72 1847.06 1645.13 1871.81 1678.27 C 1878.45 1687.17 1885.32 1695.77 1890.93 1705.37 C 1891.19 1708.36 1891.29 1708.17 1890.03 1710.87 C 1881.14 1718.27 1850.24 1713.87 1837.25 1713.08 C 1806.82 1712.1 1776.04 1710.01 1745.59 1708.83 C 1738.99 1708.58 1728.7 1709.09 1724.78 1702.98 C 1724.54 1699.34 1725.53 1697.52 1728.35 1694.92 C 1756.53 1668.95 1761.95 1629.2 1770.65 1593.85 C 1773.43 1582.56 1774.85 1567.92 1782.19 1558.7 z" fill="rgb(254,254,254)" transform="translate(0,0)"></path>
<path d="M 261 1556.47 C 271.149 1559.65 269.368 1567.07 272.163 1576.48 C 283.962 1616.18 286.844 1664.14 318.307 1694.17 C 321.615 1697.33 323.809 1699.16 321.635 1703.36 C 311.438 1708.51 232.018 1711.42 215.751 1712.2 C 138.786 1718.01 150.323 1715.36 192.281 1654.89 C 204.014 1637.99 251.271 1564.79 261 1556.47 z" fill="rgb(254,254,254)" transform="translate(0,0)"></path>
<path d="M 773.847 486.264 C 797.496 485.472 827.539 486.637 851.812 486.753 L 1001.85 486.949 L 1178.49 486.952 C 1209.78 486.936 1241.22 486.82 1272.51 487.045 C 1275.95 487.242 1281.02 487.116 1283.72 489.796 C 1293.6 499.623 1286.4 508.212 1275.31 509.483 C 1216.23 509.635 783.198 513.313 767.878 506.208 C 765.208 504.97 762.844 502.677 762.261 499.688 C 761.755 497.092 762.663 494.524 763.985 492.332 C 766.15 488.744 770.046 487.343 773.847 486.264 z" fill="rgb(254,254,254)" transform="translate(0,0)"></path>
<path d="M 208.94 1395.43 C 216.9 1394.76 225.489 1394.61 228.46 1403.71 C 233.876 1421.1 238.006 1439.48 242.142 1457.23 C 244.265 1466.34 255.22 1499.71 250.668 1505.54 C 240.128 1510.6 222.874 1489.71 215.552 1482.76 C 203.857 1472.1 140.868 1418.03 148.957 1404.02 C 158.39 1398.89 196.946 1396.47 208.94 1395.43 z" fill="rgb(254,254,254)" transform="translate(0,0)"></path>
<path d="M 1831.87 1395.27 C 1844.02 1394.77 1889.91 1395.03 1898.1 1401.9 C 1904.84 1416.32 1847.54 1466.03 1836.39 1476.19 C 1829.15 1483.04 1807.95 1506.13 1798.94 1504.47 C 1797.82 1503.56 1796.55 1502.97 1796.13 1501.51 C 1793.8 1493.53 1814.68 1416.25 1819.59 1405.57 C 1822.24 1399.79 1826.12 1397.48 1831.87 1395.27 z" fill="rgb(254,254,254)" transform="translate(0,0)"></path>
<path d="M 1021.59 106.931 C 1051.57 108.903 1070.43 171.416 1027.24 178.701 C 984.331 179.6 988.125 123.927 1021.59 106.931 z" fill="rgb(254,254,254)" transform="translate(0,0)"></path>
<path d="M 1020.03 347.181 C 1035.68 346.192 1052.17 353.253 1056.56 369.476 C 1058.34 376.233 1057.26 383.422 1053.58 389.361 C 1047.95 398.64 1040.32 401.736 1030.49 404.038 C 983.776 406.126 978.022 356.501 1020.03 347.181 z" fill="rgb(254,254,254)" transform="translate(0,0)"></path>
<path d="M 1011.8 206.978 C 1019.47 206.586 1028.34 206.875 1036.11 206.945 C 1036.42 243.946 1037.6 287.205 1036.04 323.892 C 1026.26 323.26 1021.4 323.729 1011.95 325.355 C 1011.57 285.897 1011.52 246.436 1011.8 206.978 z" fill="rgb(254,254,254)" transform="translate(0,0)"></path>
<path d="M 868.736 366.233 C 883.584 365.285 898.098 371.142 902.575 386.53 C 904.587 393.223 903.694 400.453 900.116 406.457 C 895.209 414.524 887.947 417.59 879.262 419.919 C 871.78 420.763 865.78 420.571 858.956 417.074 C 852.035 413.585 846.912 407.33 844.855 399.857 C 840.013 381.722 852.655 370.553 868.736 366.233 z" fill="rgb(254,254,254)" transform="translate(0,0)"></path>
<path d="M 1171.79 366.206 C 1185.73 366.377 1198.27 373.015 1202.58 386.979 C 1204.56 393.45 1203.75 400.451 1200.36 406.305 C 1194.9 415.678 1187.34 418.18 1177.69 420.471 C 1137.6 419.714 1131.82 374.14 1171.79 366.206 z" fill="rgb(254,254,254)" transform="translate(0,0)"></path>
<path d="M 1021.1 432.764 C 1023.83 432.801 1026.03 432.721 1028.19 434.601 C 1032.21 438.116 1052.94 460.141 1053.52 462.889 C 1049.99 466.385 1030.59 465.35 1024.75 465.361 C 1013.87 465.355 1003 465.185 992.131 464.852 C 998.01 457.207 1014.31 438.984 1021.1 432.764 z" fill="rgb(254,254,254)" transform="translate(0,0)"></path>
<path d="M 934.305 181.184 C 954.21 179.958 962.004 198.464 937.916 206.946 C 913.747 209.53 912.871 189.956 934.305 181.184 z" fill="rgb(254,254,254)" transform="translate(0,0)"></path>
<path d="M 788.981 237.108 C 806.848 236.381 808.349 259.468 786.677 265.402 C 764.099 260.937 768.47 242.648 788.981 237.108 z" fill="rgb(254,254,254)" transform="translate(0,0)"></path>
<path d="M 1158.7 196.086 C 1176.6 195.6 1192.9 213.058 1171.74 222.141 C 1153.78 225.355 1139.96 205.84 1158.7 196.086 z" fill="rgb(254,254,254)" transform="translate(0,0)"></path>
<path d="M 1105.95 183.02 C 1124.59 182.292 1142.7 197.836 1121.32 207.084 C 1103.58 208.543 1085.47 196.121 1105.95 183.02 z" fill="rgb(254,254,254)" transform="translate(0,0)"></path>
<path d="M 1297.33 265.088 C 1312.87 265.095 1326.28 287.042 1301.88 291.962 C 1282.44 289.3 1276.31 274.157 1297.33 265.088 z" fill="rgb(254,254,254)" transform="translate(0,0)"></path>
<path d="M 882.302 195.185 C 905.725 193.918 903.713 212.543 884.686 220.301 C 863.153 223.511 861.481 203.293 882.302 195.185 z" fill="rgb(254,254,254)" transform="translate(0,0)"></path>
<path d="M 1255.09 237.056 C 1272.92 237.313 1284.43 253.929 1265.07 262.986 C 1247.39 263.032 1235.39 246.672 1255.09 237.056 z" fill="rgb(254,254,254)" transform="translate(0,0)"></path>
<path d="M 1205.74 217.04 C 1222.3 216.059 1241.13 231.236 1221.24 240.724 C 1204.76 241.842 1186.76 229.475 1205.74 217.04 z" fill="rgb(254,254,254)" transform="translate(0,0)"></path>
<path d="M 1322.51 305.15 C 1324.54 305.434 1326.79 305.753 1328.68 306.542 C 1332.85 308.265 1336.05 311.734 1337.44 316.029 C 1340.42 325.329 1333.44 330.126 1325.64 332.239 C 1308.82 328.103 1300.34 310.727 1322.51 305.15 z" fill="rgb(254,254,254)" transform="translate(0,0)"></path>
<path d="M 747.055 266.124 C 767.77 266.168 769.037 285.603 749.46 292.049 C 729.977 292.364 729.59 274.155 747.055 266.124 z" fill="rgb(254,254,254)" transform="translate(0,0)"></path>
<path d="M 835.494 216.141 C 857.05 216.199 851.613 236.175 831.236 240.838 C 808.436 239.815 819.162 221.106 835.494 216.141 z" fill="rgb(254,254,254)" transform="translate(0,0)"></path>
<path d="M 723.286 306.02 C 743.937 305.387 740.727 326.776 722.825 332.827 C 702.788 331.003 706.658 313.391 723.286 306.02 z" fill="rgb(254,254,254)" transform="translate(0,0)"></path>
<path d="M 1331.19 346.038 C 1337.76 345.663 1343.33 347.131 1346.74 353.333 C 1348.46 356.387 1348.69 360.058 1347.36 363.301 C 1345.45 367.92 1342.26 368.962 1337.95 370.817 C 1319.98 371.483 1314.93 356.207 1331.19 346.038 z" fill="rgb(254,254,254)" transform="translate(0,0)"></path>
<path d="M 710.167 350.008 C 712.526 349.811 714.557 349.735 716.894 350.17 C 720.039 350.784 722.78 352.694 724.444 355.432 C 729.341 363.558 722.617 370.18 715.692 373.49 C 698.152 374.511 693.099 358.238 710.167 350.008 z" fill="rgb(254,254,254)" transform="translate(0,0)"></path>
<path d="M 1155.95 277.087 C 1157.43 277.206 1159.13 277.35 1160.58 277.652 C 1163.79 278.305 1166.59 280.25 1168.32 283.03 C 1172.95 290.479 1168.33 297.244 1161.86 301.177 C 1148.2 298.344 1139.64 285.328 1155.95 277.087 z" fill="rgb(254,254,254)" transform="translate(0,0)"></path>
<path d="M 892.188 274.795 C 908.59 275.67 908.852 291.368 895.754 298.75 C 878.874 297.778 879.445 282.878 892.188 274.795 z" fill="rgb(254,254,254)" transform="translate(0,0)"></path>
<path d="M 912.071 246.063 C 929.515 244.982 930.768 259.556 916.732 267.589 C 901.044 268.612 898.036 254.524 912.071 246.063 z" fill="rgb(254,254,254)" transform="translate(0,0)"></path>
<path d="M 874.89 311.852 C 879.869 312.103 882.947 312.742 886.138 316.945 C 888.342 319.788 889.13 323.479 888.281 326.974 C 887.199 331.443 884.965 332.934 881.374 335.173 C 865.318 335.38 862.799 320.242 874.89 311.852 z" fill="rgb(254,254,254)" transform="translate(0,0)"></path>
<path d="M 1171.93 313.71 C 1177.76 312.213 1183.71 315.708 1185.24 321.532 C 1186.77 327.355 1183.31 333.321 1177.49 334.882 C 1171.63 336.456 1165.61 332.961 1164.07 327.092 C 1162.53 321.222 1166.05 315.219 1171.93 313.71 z" fill="rgb(254,254,254)" transform="translate(0,0)"></path>
<path d="M 1133.07 246.851 C 1134.6 246.887 1135.17 246.878 1136.28 246.979 C 1139.93 247.298 1143.26 249.174 1145.43 252.128 C 1150.72 259.296 1146.52 265.287 1139.78 268.744 C 1126.48 266.741 1118.15 256.144 1133.07 246.851 z" fill="rgb(254,254,254)" transform="translate(0,0)"></path>
<path d="M 1089.2 223.191 C 1100.22 222.695 1122.11 222.237 1118.82 238.921 C 1105.12 246.332 1095.05 234.315 1089.2 223.191 z" fill="rgb(254,254,254)" transform="translate(0,0)"></path>
<path d="M 948.941 222.29 C 952.832 221.879 958.322 222.033 962.366 222.012 C 956.328 230.52 952.318 235.616 942.955 240.57 C 937.739 241.507 934.419 240.768 931.649 236.222 C 930.802 225.857 941.045 223.542 948.941 222.29 z" fill="rgb(254,254,254)" transform="translate(0,0)"></path>
<path d="M 755.251 412.584 C 768.951 413.745 776.587 423.739 770.741 436.82 C 761.085 434.474 752.741 422.916 755.251 412.584 z" fill="rgb(254,254,254)" transform="translate(0,0)"></path>
<path d="M 875.791 457.313 C 879.013 457.949 883.103 458.653 883.802 462.304 L 881.763 463.352 C 878.497 463.76 875.77 464.467 872.711 463.453 C 872.324 460.513 873.278 460.588 875.791 457.313 z" fill="rgb(254,254,254)" transform="translate(0,0)"></path>
<metadata><recraft-signature>{"signed_by": "recraft", "signature_b64": "xlkxY7Mqz3QXlLcXixY0x+6Az/HXPWUUxw+Sz51rSX/9j/CBjUI8JvzK2Z7gH/EG2r1bo7kzk3gnx+EIei2qBw==", "signing_algo": "Ed25519", "generation_timestamp": 1778257196, "identifier": "3f8f5a94-659d-42f6-8515-3a7fb80afc37"}</recraft-signature></metadata></svg>