<svg xmlns="http://www.w3.org/2000/svg" height="1024" preserveAspectRatio="none" style="display: block;" version="1.1" viewBox="0 0 2048 1152" width="1820">
<path d="M 0 0 L 2048 0 L 2048 1152 L 0 1152 L 0 0 z" fill="rgb(254,254,254)" transform="translate(0,0)"></path>
<path d="M 316.827 251.419 C 343.204 250.077 379.691 251.142 406.66 251.157 L 581.283 251.284 L 720.988 251.285 C 764.92 251.306 835.769 246.97 873.25 270.221 C 928.1 269.802 983.48 270.505 1038.36 270.614 L 1458.95 271.608 L 1765.85 272.086 L 1872.9 272.798 C 1889.02 272.861 1905.31 272.09 1921.45 272.581 C 1926.24 272.727 1931.55 272.281 1935.06 275.499 C 1937.82 278.03 1938.33 283.586 1938.6 287.31 C 1939.7 302.826 1940.04 318.701 1940.54 334.254 L 1943.24 416.473 L 1948.72 588.903 C 1950.44 659.198 1952.58 729.465 1954.3 799.739 C 1954.57 810.596 1955.02 821.803 1954.36 832.573 C 1953.98 838.725 1948.17 841.205 1942.83 841.134 C 1929.01 841.831 1915.17 841.727 1901.34 841.781 L 1831.34 841.95 C 1752.68 841.998 1669.51 841.252 1591 843.913 L 705.612 848.054 L 617.199 935.053 C 602.607 949.368 587.833 963.476 573.182 977.704 C 551.248 999.004 534.665 973.312 518.134 957.223 L 458.87 899.572 L 184.49 630.556 C 173.323 619.619 92.3366 541.331 91.4099 535.187 C 90.6823 530.362 93.893 522.823 95.8495 518.567 C 103.862 501.134 113.892 484.225 122.898 467.268 L 168.775 379.827 C 176.899 364.447 184.862 348.981 192.663 333.434 C 200.092 318.646 210.488 295.258 220.883 283.519 C 243.213 258.301 285.117 253.401 316.827 251.419 z" fill="rgb(0,0,0)" transform="translate(0,0)"></path>
<path d="M 317.601 269.428 C 318.399 269.377 319.198 269.344 319.998 269.328 C 423.315 267.63 531.385 269.331 635.062 269.377 L 738.264 269.206 C 774.566 269.099 839.677 264.755 869.932 289.966 C 881.276 299.419 896.571 332.263 903.9 346.587 C 913.704 365.834 923.725 384.968 933.961 403.988 C 954.383 442.069 975.987 479.505 995.627 518.013 C 1000 526.593 1000.87 530.005 994.113 536.894 C 956.463 575.252 917.907 612.716 879.53 650.343 L 677.861 850.166 L 591.756 934.36 C 581.777 943.967 566.385 960.402 556.402 968.303 C 548.678 962.259 538.644 951.527 531.368 944.372 L 487.412 901.382 C 434.468 850.356 381.882 798.962 329.655 747.203 L 177.367 597.011 C 158.127 577.852 127.034 549.294 110.51 529.982 C 139.399 476.001 167.868 421.797 195.917 367.374 C 233.155 295.712 228.34 274.837 317.601 269.428 z" fill="rgb(254,254,254)" transform="translate(0,0)"></path>
<path d="M 264.118 586.5 L 673.473 586.52 L 810.806 586.355 C 832.809 586.372 855.215 586.284 877.237 586.636 C 880.686 586.785 884.396 588.123 886.9 590.538 C 894.857 598.214 893.039 606.307 886.188 613.759 C 867.692 633.878 847.515 652.447 828.072 671.669 C 789.068 710.229 750.767 749.774 711.24 787.767 C 679.314 817.865 647.771 851.127 615.908 881.585 C 600.894 895.936 585.699 912.409 569.782 925.804 C 565.553 929.084 562.367 930.95 557.033 931.184 C 544.262 931.743 534.191 918.857 525.554 910.149 C 503.913 888.33 481.74 866.929 459.751 845.358 L 272.798 662.001 C 255.436 645.032 237.305 628.07 221.058 610.183 C 216.888 605.591 218.234 594.432 222.791 590.953 C 231.739 584.121 253.01 586.366 264.118 586.5 z" fill="rgb(0,0,0)" transform="translate(0,0)"></path>
<path d="M 481.152 603.286 C 483.697 603.349 487.234 603.354 489.546 604.426 C 491.918 605.525 493.416 607.561 493.742 610.186 C 495.316 622.845 491.109 643.406 489.878 656.608 C 487.775 679.156 477.376 799.228 481.952 809.615 C 482.91 811.79 485.345 813.388 487.585 813.964 C 490.166 814.628 493.076 814.276 495.308 812.789 C 498.055 810.958 498.892 808.999 499.401 805.821 C 501.871 790.376 500.992 773.118 501.72 757.413 C 503.232 724.333 505.582 691.296 508.767 658.335 C 510.077 643.709 510.394 628.192 513.29 613.838 C 513.906 610.789 514.677 607.278 517.519 605.531 C 521.409 603.14 528.802 603.043 533.091 604.363 C 537.788 605.809 537.576 610.987 537.445 614.887 C 536.666 638.053 532.908 661.535 531.029 684.704 C 529.368 705.192 519.399 851.851 524.343 859.616 C 525.654 861.674 527.754 863.319 530.161 863.822 C 533.452 864.511 535.809 863.3 538.451 861.49 C 540.854 857.738 541.271 852.717 541.607 848.375 C 543.158 828.324 543.037 807.839 543.953 787.719 C 546.488 732.055 549.097 675.586 555.878 620.244 C 556.45 615.575 557.092 608.468 561.177 605.562 C 564.582 603.139 571.412 603.14 575.336 604.137 C 581.381 605.673 582.068 611.231 581.737 616.554 C 580.657 633.885 577.585 651.215 576.087 668.545 C 573.777 695.262 562.295 849.528 570.614 862.079 C 571.606 863.576 573.622 864.226 575.372 864.495 C 577.807 864.87 580.738 864.342 582.736 862.842 C 584.809 861.286 585.862 858.512 586.025 855.996 C 587.347 835.592 586.884 814.914 587.662 794.459 C 589.874 736.226 592.874 674.017 600.269 616.198 C 600.728 612.612 601.503 607.802 604.7 605.618 C 608.431 603.069 614.624 602.66 618.895 603.819 C 621.866 604.625 624.295 606.467 624.921 609.565 C 626.681 618.277 621.743 647.732 620.768 658.055 C 618.913 677.701 608.376 803.826 613.047 811.187 C 614.382 813.29 617.016 814.691 619.443 814.94 C 621.997 815.203 624.856 814.469 626.83 812.784 C 628.48 811.375 629.299 809.757 629.771 807.661 C 632.844 793.994 632.191 764.86 632.922 749.541 C 634.573 718.272 636.876 687.041 639.83 655.868 C 641.088 642.009 642.189 628.732 644.161 614.942 C 646.041 601.8 660.797 599.486 667.782 607.555 C 669.897 613.485 661.004 696.287 660.177 707.756 C 659.607 717.784 655.025 760.704 657.211 766.89 C 658.332 770.063 660.886 773.483 664.075 774.734 C 666.32 775.615 668.448 775.753 670.61 774.625 C 673.343 773.199 674.541 768.923 675.049 766.091 C 677.762 750.945 677.159 734.038 678.071 718.593 C 679.658 694.209 681.646 669.852 684.037 645.534 C 685.042 634.661 685.714 621.281 688.809 610.829 C 689.309 609.139 690.837 606.482 692.323 605.622 C 694.163 604.555 700.18 603.899 701.944 603.983 C 721.676 604.913 858.845 602.152 867.457 605.438 C 866.836 610.527 812.327 662.521 805.124 669.686 C 756.953 718 708.351 765.881 659.322 813.324 L 594.384 877.489 C 583.002 888.746 567.864 904.606 555.98 914.154 C 548.519 908.831 532.874 892.441 525.745 885.35 L 468.332 828.286 L 240.953 605.298 C 254.965 603.167 308.552 604.047 324.999 604.028 L 396.187 603.98 C 406.027 603.98 441.631 602.668 449.073 607.079 C 451.545 613.702 450.059 624.097 449.302 631.139 C 444.705 673.86 442.027 716.772 439.469 759.654 C 438.911 769.016 441.563 774.819 452.06 773.813 C 455.404 772.156 456.555 768.785 457.392 765.352 C 460.261 753.574 459.487 739.321 460.211 727.19 C 461.204 710.567 466.163 615.519 471.931 607.397 C 474.116 604.319 477.708 603.938 481.152 603.286 z" fill="rgb(254,254,254)" transform="translate(0,0)"></path>
<path d="M 325.551 291.449 L 654.652 291.711 L 750.76 291.623 C 770.738 291.61 791.352 290.637 811.204 292.931 C 826.876 294.741 844.244 298.49 856.397 309.116 C 859.398 311.739 861.637 314.589 863.69 318.006 C 871.748 331.413 915.275 418.462 915.414 429.413 C 915.469 433.792 911.985 439.81 908.931 442.803 C 906.498 445.187 903.957 445.987 900.658 446.422 C 887.806 448.12 873.793 446.921 860.779 446.879 L 783.5 446.73 L 382.393 446.398 L 254.574 446.191 C 240.571 446.127 226.72 446.361 212.726 446.526 C 200.826 446.667 197.09 439.484 194.722 429.364 C 197.873 418.008 212.041 389.01 217.714 377.235 C 225.451 361.177 235.156 338.317 243.544 323.472 C 246.074 318.91 249.129 314.66 252.648 310.81 C 268.723 293.476 303.376 292.267 325.551 291.449 z" fill="rgb(0,0,0)" transform="translate(0,0)"></path>
<path d="M 337.41 309.533 C 411.835 307.987 490.243 309.423 565.002 309.359 L 704.705 309.286 C 744.838 309.283 791.57 305.865 830.484 314.994 C 850.06 319.587 861.126 351.994 869.374 369.182 L 897.801 428.347 C 856.39 428.886 814.22 428.523 772.75 428.49 L 213.976 428.044 C 229.355 397.734 247.991 349.549 267.42 323.151 C 276.706 310.534 321.377 309.838 337.41 309.533 z" fill="rgb(254,254,254)" transform="translate(0,0)"></path>
<path d="M 778.431 479.949 C 790.833 479.8 810.014 478.354 821.816 480.381 C 859.614 486.873 856.593 521.289 829.882 540.23 C 809.94 550.283 786.495 547.893 764.276 547.837 C 769.241 525.26 773.959 502.629 778.431 479.949 z" fill="rgb(0,0,0)" transform="translate(0,0)"></path>
<path d="M 792.219 490.377 C 807.671 490.03 836.146 487.426 833.454 512.108 C 832.457 521.253 827.584 526.84 820.562 532.333 C 808.582 538.566 795.634 537.288 782.39 537.119 C 785.31 521.466 788.588 505.881 792.219 490.377 z" fill="rgb(254,254,254)" transform="translate(0,0)"></path>
<path d="M 878.167 479.924 L 939.213 479.942 L 937.271 490.731 L 891.326 490.732 C 890.124 495.738 889.216 502.031 888.329 507.195 C 902.428 507.233 916.526 507.405 930.622 507.713 L 927.466 518.959 L 886.99 518.735 C 884.275 520.794 883.02 532.135 882.299 536.14 L 931.801 536.171 L 929.472 547.609 L 863.577 547.743 C 868.957 527.845 873.932 500.648 878.167 479.924 z" fill="rgb(0,0,0)" transform="translate(0,0)"></path>
<path d="M 360.298 480.049 L 422.574 480.068 C 422.025 483.586 421.812 487.838 419.696 490.427 C 411.47 491.625 383.233 490.851 373.487 490.776 L 370.23 507.614 L 412.813 507.068 L 410.809 518.256 L 371.75 518.352 C 369.159 518.321 370.389 518.031 368.017 519.526 C 365.951 524.134 365.158 531.043 364.315 536.179 C 371.717 536.165 410.959 535.18 414.106 537.866 C 414.385 540.802 414.028 541.271 413.023 544.149 C 406.628 549.443 357.9 547.339 346.514 547.281 C 351.637 524.787 355.246 502.204 360.298 480.049 z" fill="rgb(0,0,0)" transform="translate(0,0)"></path>
<path d="M 669.15 479.129 C 683.744 477.59 693.867 479.998 706.961 485.939 L 699.349 496.002 C 691.209 491.973 662.025 484.068 658.646 495.897 C 661.345 507.186 686.494 506.326 697.047 513.622 C 720.738 530.003 693.613 546.579 675.258 549.261 C 658.667 549.543 650.075 547.554 635.819 539.372 L 644.974 529.396 C 655.842 536.044 686.621 546.802 688.805 527.958 C 689.738 519.904 645.572 517.946 644.35 502.901 C 643.019 486.529 658.284 481.788 669.15 479.129 z" fill="rgb(0,0,0)" transform="translate(0,0)"></path>
<path d="M 448.809 480.11 L 510.319 480.092 L 508.285 490.934 L 462.351 490.965 L 458.261 509.025 L 502.478 509.018 L 500.258 519.666 L 456.572 519.768 C 454.231 529.105 452.492 537.97 450.653 547.393 L 435.301 547.312 C 439.139 525.263 444.757 502.47 448.809 480.11 z" fill="rgb(0,0,0)" transform="translate(0,0)"></path>
<path d="M 528.37 480.088 L 599.436 480.14 C 598.834 483.462 598.687 485.957 596.814 488.732 C 590.664 492.937 578.078 490.906 569.318 490.904 L 563.064 523.223 L 558.4 547.737 L 542.701 547.577 C 546.892 530.186 550.7 508.703 554.296 490.958 L 526.567 490.793 L 528.37 480.088 z" fill="rgb(0,0,0)" transform="translate(0,0)"></path>
<path d="M 275.229 480.131 L 290.671 480.562 C 286.756 499.039 283.339 517.613 279.354 536.18 L 328.569 536.11 C 327.947 539.743 327.496 544.107 325.768 547.236 L 261.329 547.338 C 266.132 525.477 269.998 501.471 275.229 480.131 z" fill="rgb(0,0,0)" transform="translate(0,0)"></path>
<path d="M 736.583 480.043 L 752.58 480.018 C 747.253 501.142 744.267 525.637 738.794 547.749 L 722.818 547.798 C 728.182 526.434 732.565 501.722 736.583 480.043 z" fill="rgb(0,0,0)" transform="translate(0,0)"></path>
<path d="M 894.766 279.441 C 914.206 278.674 933.389 280.548 951.997 280.117 C 1058.78 278.043 1165.58 277.635 1272.37 278.893 C 1313.29 279.175 1351.68 280.491 1392.8 278.917 C 1435.58 277.28 1480.44 279.934 1523.5 280.015 L 1806.04 280.906 C 1823.66 281.046 1911.15 278.9 1923.25 284.246 C 1925.05 285.043 1925.79 287.453 1926.39 289.24 C 1931.71 305.099 1931.13 379.504 1931.99 401.587 L 1938.74 609.824 C 1939.6 634.76 1947 817.119 1941.64 828.277 C 1931.65 831.413 1923.8 830.378 1913.87 831.083 C 1877.79 833.648 1842.13 832.208 1806.18 832.515 L 1554.5 834.424 L 1060.53 836.49 C 945.336 838.41 830.128 839.092 714.922 838.536 L 863.128 692.182 C 901.99 653.588 947.606 606.894 987.596 570.12 C 967.733 599.449 949.015 620.906 926.274 647.925 C 885.787 696.053 841.718 742.233 797.26 786.646 C 794.076 789.827 789.28 794.463 788.416 798.804 C 787.688 802.465 790.731 809.102 795.04 809.214 C 808.11 810.038 821.214 809.509 834.299 809.368 L 899.184 809.082 L 1141.66 807.864 L 1586.92 805.206 C 1684.87 804.582 1782.81 803.574 1880.76 802.479 C 1887.9 802.399 1900.93 803.453 1906.68 799.011 C 1909.87 796.549 1911.73 791.973 1911.76 787.886 C 1911.93 761.43 1910.96 734.878 1910.13 708.425 L 1905.93 569.141 L 1901.03 408.579 C 1900.14 379.072 1899.38 348.922 1897.69 319.416 C 1897.52 316.415 1896.14 314.836 1894.19 312.62 C 1887.9 309.402 1730.91 309.966 1715.35 309.907 L 1121.81 306.829 L 1000.74 306.361 C 979.199 306.188 957.129 305.127 935.707 307.133 C 930.031 307.664 928.359 314.353 930.425 318.97 C 957.625 379.742 993.828 438.644 1010.3 503.497 C 984.644 459.241 959.822 414.51 935.841 369.328 C 923.701 346.567 913.164 322.576 900.199 300.27 C 895.883 292.845 890.815 287.614 886.039 280.635 C 887.887 279.449 892.329 279.566 894.766 279.441 z" fill="rgb(254,254,254)" transform="translate(0,0)"></path>
<path d="M 1388.1 483.318 C 1400.27 484.364 1405.13 489.76 1405.17 502.162 C 1405.29 541.58 1405.96 581.012 1406.44 620.425 C 1406.14 624.184 1405.31 629.253 1403.31 632.464 C 1391.49 651.408 1374.02 627.704 1366.13 617.811 C 1363.33 614.303 1360.91 611.488 1358.3 608.399 L 1315.95 558.823 C 1311.95 554.164 1304.13 542.34 1298.12 544.04 C 1291.5 551.397 1300.89 618.108 1295.35 631.609 C 1293.1 637.091 1291.76 637.85 1286.69 640.386 C 1269.41 641.611 1267.54 631.612 1267.46 617.099 C 1267.25 580.384 1267.27 543.757 1266.8 507.035 C 1266.55 487.577 1276.97 476.43 1294.6 489.864 C 1299.78 493.821 1303.77 499.506 1308.1 504.33 C 1327.24 526.925 1345.4 550.345 1364.45 573.008 C 1367.2 576.279 1368.23 577.326 1372.28 577.527 C 1382 570.137 1368.19 502.114 1378.02 488.408 C 1380.74 484.627 1383.83 484.19 1388.1 483.318 z" fill="rgb(254,254,254)" transform="translate(0,0)"></path>
<path d="M 1460.62 484.325 C 1491.08 482.722 1522.54 484.905 1553.05 483.764 C 1572.81 483.024 1574.88 503.27 1558.27 509.044 C 1544.03 513.994 1489.19 505.33 1480.6 513.452 C 1477.77 519.503 1478.41 536.361 1479.58 542.776 C 1487.02 553.699 1540.49 540.972 1553.46 548.982 C 1564 555.493 1557.96 568.834 1548.23 571.042 C 1528.6 575.498 1501.2 568.798 1481.93 573.368 L 1480.88 573.627 C 1480.46 574.635 1480.07 575.667 1479.79 576.727 C 1477.87 584.208 1477.34 602.814 1481.28 609.334 C 1484.28 614.308 1550.17 608.891 1561.89 611.876 C 1566.04 612.932 1571.12 615.096 1573.17 619.137 C 1574.22 621.208 1574.2 623.537 1573.56 625.723 C 1572.51 629.335 1570.54 632.884 1567.09 634.663 C 1563.89 636.311 1560.12 636.952 1556.56 637.221 C 1547.98 637.872 1538.93 636.835 1530.28 636.877 C 1515.65 636.947 1469.59 640.155 1458.2 636.215 C 1455.66 635.334 1454.32 634.773 1453.16 632.24 C 1451.32 628.208 1450.57 622.889 1450.24 618.495 C 1449.19 604.214 1447.85 500.055 1451.09 492.214 C 1452.97 487.695 1456.42 486.079 1460.62 484.325 z" fill="rgb(254,254,254)" transform="translate(0,0)"></path>
<path d="M 1650.7 480.368 L 1652.03 480.265 C 1663.95 479.394 1727.17 483.477 1705.93 511.042 C 1700.49 518.105 1683.6 510.466 1673.24 507.312 C 1660.13 503.316 1631.09 502.582 1629.2 524.204 C 1633.23 546.176 1694.83 545.034 1709.45 564.364 C 1724.83 584.72 1722.57 605.101 1706.91 621.768 C 1692.71 636.874 1671.68 638.852 1652.74 638.916 C 1638.45 637.889 1584.55 630.144 1601.12 604.311 C 1609.06 591.926 1626.54 607.02 1637.15 610.362 C 1649.86 614.366 1667.58 616.468 1680.5 609.603 C 1707.49 590.42 1677.38 578.209 1661.78 573.766 C 1638.23 566.931 1601.42 561.216 1600.32 529.681 C 1599.2 497.817 1623.08 483.706 1650.7 480.368 z" fill="rgb(254,254,254)" transform="translate(0,0)"></path>
<path d="M 1216.57 345.204 C 1299.92 337.453 1313.73 429.826 1239.99 444.756 C 1156.86 455.435 1138.94 359.794 1216.57 345.204 z" fill="rgb(254,254,254)" transform="translate(0,0)"></path>
<path d="M 1219.4 356.206 C 1232.02 354.933 1245.47 356.78 1256.2 363.929 C 1264.77 369.554 1270.73 378.386 1272.74 388.444 C 1277.68 414.627 1258.97 429.823 1235.23 433.878 C 1212.71 434.768 1187.24 428.331 1181.55 403.107 C 1179.41 393.648 1181.21 383.725 1186.55 375.629 C 1194.48 363.536 1205.97 358.904 1219.4 356.206 z" fill="rgb(0,0,0)" transform="translate(0,0)"></path>
<path d="M 1140.13 486.48 C 1149.92 486.15 1158.39 487.152 1159.34 499.372 C 1160.74 517.504 1132.48 513.563 1120.15 513.675 L 1069.85 514.088 L 1069.99 553.872 C 1081.1 553.76 1138.52 550.839 1144.35 555.536 C 1147.57 558.133 1149.22 562.571 1149.39 566.629 C 1149.52 569.969 1148.43 573.222 1146.01 575.576 C 1137.28 584.06 1089.97 580.98 1076.75 581.033 C 1075.68 580.995 1074.47 580.889 1073.42 581.072 C 1065.84 582.389 1073.72 626.077 1067.55 635.994 C 1065.74 638.903 1062.92 640.693 1059.64 641.48 C 1055.44 642.486 1049.84 642.288 1046.18 639.891 C 1042.94 637.773 1040.82 634.354 1040.15 630.572 C 1037.34 614.922 1039.08 586.891 1039 570.094 C 1038.9 549.571 1037.02 527.115 1039.2 506.796 C 1039.78 501.413 1040.99 495.918 1044.04 491.375 C 1053.72 485.375 1076.07 486.936 1088.05 486.92 C 1105.41 486.927 1122.77 486.781 1140.13 486.48 z" fill="rgb(254,254,254)" transform="translate(0,0)"></path>
<path d="M 1041.66 678.148 C 1080.3 676.224 1134.98 674.088 1134.31 729.594 C 1134.14 743.877 1128.67 753.16 1118.45 762.842 C 1112.38 767.81 1105.31 771.402 1097.71 773.37 C 1088.23 775.873 1048.41 778.346 1040.71 773.772 C 1035.61 766.86 1038.43 697.242 1038.23 684.267 C 1038.2 681.844 1040.15 679.952 1041.66 678.148 z" fill="rgb(254,254,254)" transform="translate(0,0)"></path>
<path d="M 1056.05 693.747 C 1081.21 693.479 1113.16 690.58 1114.95 725.354 C 1115.49 735.775 1112.38 742.74 1105.36 750.322 C 1090.23 762.415 1075.61 760.314 1056.89 760.468 L 1056.05 693.747 z" fill="rgb(0,0,0)" transform="translate(0,0)"></path>
<path d="M 1839.13 481.51 C 1847.82 481.288 1886.31 476.268 1870.49 503.91 C 1867.97 508.311 1853.07 508.333 1847.96 508.294 C 1840.5 508.236 1831.13 508.219 1822.94 508.146 C 1822.94 532.149 1823.17 556.152 1823.63 580.152 C 1823.85 593.993 1824.04 606.97 1823.92 621.469 C 1823.81 636.376 1809.44 639.35 1798.47 632.643 C 1794.95 630.487 1794.86 623.318 1794.77 619.25 L 1793.23 508.233 C 1787.86 508.264 1781.57 508.622 1776.39 508.376 C 1766.17 507.89 1751.95 510.742 1743.62 504.006 C 1736.77 498.46 1739 483.671 1748.75 482.619 C 1760.34 481.37 1772.11 481.855 1783.68 481.883 C 1802.16 481.987 1820.65 481.863 1839.13 481.51 z" fill="rgb(254,254,254)" transform="translate(0,0)"></path>
<path d="M 1731.71 736.558 C 1731.18 716.96 1730.98 697.226 1731.28 677.626 C 1731.36 672.72 1737.85 668.495 1742.66 669.092 C 1756.5 675.018 1747.74 726.944 1750.06 741.72 C 1750.9 747.045 1750.94 764.008 1749.2 768.524 C 1746.94 771.096 1744.79 771.203 1741.38 772.008 C 1732.72 770.302 1720.54 753.23 1714.47 746.107 C 1702.49 731.94 1690.39 717.87 1678.19 703.899 C 1678.43 724.271 1678.77 744.641 1678.43 765.012 C 1678.86 773.077 1663.86 773.717 1661.75 767.649 C 1660.44 763.869 1660.61 756.251 1660.62 751.954 C 1660.67 726.529 1659.49 700.846 1660.62 675.49 C 1660.72 673.153 1664.47 671.078 1666.25 670.089 C 1668.06 670.326 1673.19 671.011 1674.29 672.017 C 1694.13 690.167 1713.25 716.957 1731.71 736.558 z" fill="rgb(254,254,254)" transform="translate(0,0)"></path>
<path d="M 1391.06 673.165 C 1395.18 673.222 1401.07 674.129 1402.85 677.531 C 1408.75 688.802 1448.1 761.628 1447.72 769.002 C 1446.93 770.949 1445.11 773.674 1443.28 774.544 C 1432.83 779.515 1423.6 757.04 1420.36 750.826 L 1396.54 750.637 L 1366.01 750.76 C 1361.97 758.571 1351.55 788.21 1339.52 769.965 C 1338.81 762.299 1377.84 688.666 1383.85 676.84 C 1384.67 675.242 1389.04 673.815 1391.06 673.165 z" fill="rgb(254,254,254)" transform="translate(0,0)"></path>
<path d="M 1392.5 694.652 C 1395.42 697.083 1410.43 729.717 1412.97 735.044 C 1407.19 735.382 1401.06 735.441 1395.25 735.595 C 1387.83 735.589 1380.41 735.537 1373 735.438 C 1376.68 725.738 1387.57 704.841 1392.5 694.652 z" fill="rgb(0,0,0)" transform="translate(0,0)"></path>
<path d="M 1826.65 667.364 C 1837.7 665.974 1879.96 672.594 1864.03 689.641 C 1856.43 692.569 1840.11 685.276 1830.34 684.649 C 1809.03 683.283 1792.76 699.073 1792.69 719.702 C 1792.74 729.034 1796.44 737.977 1803 744.609 C 1810.68 752.282 1820.64 754.634 1830.77 754.677 C 1840.58 754.719 1856.1 751.356 1855.06 739.026 C 1854.79 735.879 1855.04 731.973 1855 728.698 C 1846.2 728.82 1825.67 731.673 1824.58 720.081 C 1826.27 715.72 1826.48 714.833 1829.99 711.764 C 1879.04 710.855 1873.38 704.704 1873.38 752.703 C 1854.96 773.53 1815.9 778.169 1793.64 761.325 C 1782.93 753.311 1775.95 741.277 1774.32 728.002 C 1769.74 693.428 1794.03 671.195 1826.65 667.364 z" fill="rgb(254,254,254)" transform="translate(0,0)"></path>
<path d="M 1358.06 346.02 C 1361.79 345.847 1364.45 345.472 1367.99 346.671 C 1373.43 351.672 1415.15 425.134 1421.08 438.237 C 1421.58 439.358 1420.42 440.274 1419.45 441.522 C 1407.85 446.204 1401.65 428.206 1397.1 419.587 L 1369.39 419.763 L 1329.12 419.649 C 1323.92 429.638 1319.83 444.87 1307 442.045 C 1306.19 441.302 1304.87 440.427 1305.18 439.729 C 1311.63 424.994 1350.89 354.416 1358.06 346.02 z" fill="rgb(254,254,254)" transform="translate(0,0)"></path>
<path d="M 1362.25 359.452 C 1365.71 362.166 1386.06 401.115 1390.02 408.143 L 1363.5 408.227 L 1335.56 408.361 C 1344.71 392.194 1353.6 375.889 1362.25 359.452 z" fill="rgb(0,0,0)" transform="translate(0,0)"></path>
<path d="M 1210.77 676.481 C 1218.73 676.16 1229.48 674.457 1235.66 678.741 C 1236.23 679.753 1237.16 680.902 1237.22 682.066 C 1237.37 684.976 1236.89 687.575 1234.75 689.714 C 1229.65 694.806 1186.55 692.806 1177.1 692.806 L 1177.03 717.07 C 1192.22 717.046 1210.22 715.958 1225.3 717.347 C 1228.54 717.645 1229.39 719.173 1230.91 721.376 C 1231.45 724.662 1231.74 725.367 1230.12 728.208 C 1222.4 735.62 1190.06 732.905 1177.39 732.761 L 1177.2 758.769 L 1194.5 758.587 C 1203.69 758.614 1227.48 757.026 1236.53 759.738 C 1237.78 760.111 1240.71 764.727 1241.09 767.449 C 1238.92 773.385 1232 775.076 1226.32 774.96 C 1208.32 774.592 1179.79 776.073 1163.28 774.227 C 1154.42 773.236 1159.67 699.486 1158.46 689.585 C 1158.2 687.379 1159.89 681.127 1160.69 678.985 C 1165.65 675.548 1201.97 676.561 1210.77 676.481 z" fill="rgb(254,254,254)" transform="translate(0,0)"></path>
<path d="M 1698.08 345.006 C 1702.56 344.926 1707.6 345.105 1712.14 345.159 C 1717.53 352.944 1761.17 434.835 1761.37 437.409 C 1761.52 439.427 1760.43 440.163 1759.25 441.572 C 1756.23 442.876 1755.85 442.984 1752.62 442.451 C 1746.66 438.886 1739.64 424.086 1735.98 417.362 L 1715.81 417.649 L 1672.95 417.835 C 1668.75 425.948 1663.14 442.682 1653.65 442.658 C 1650.23 440.791 1651.25 441.893 1649.62 438.622 C 1649.92 434.346 1693.02 352.218 1698.08 345.006 z" fill="rgb(254,254,254)" transform="translate(0,0)"></path>
<path d="M 1703.54 357.67 C 1707.19 360.781 1726.82 399.511 1731.84 407.723 L 1709.14 407.784 L 1677.97 407.891 L 1703.54 357.67 z" fill="rgb(0,0,0)" transform="translate(0,0)"></path>
<path d="M 1200.78 485.127 C 1203.98 485.005 1207.47 484.706 1210.63 485.323 C 1214.09 485.999 1217.73 488.052 1219.61 491.103 C 1223.15 496.838 1224.46 621.114 1222.2 630.181 C 1220.93 635.26 1217.61 637.633 1213.41 640.179 C 1198.57 643.248 1193.53 636.025 1193.24 622.19 C 1192.43 583.206 1192.37 544.165 1191.94 505.168 C 1191.83 495.111 1191.86 490.68 1200.78 485.127 z" fill="rgb(254,254,254)" transform="translate(0,0)"></path>
<path d="M 1476.6 344.284 C 1487.53 343.651 1523.97 345.855 1520.78 362.02 C 1512.33 369.428 1495.37 352.569 1479.88 355.089 C 1454.15 358.646 1446.79 376.087 1475.95 385.742 C 1488.77 390.268 1526.6 397.82 1527.24 415.064 C 1528.1 438.048 1500.77 443.369 1485.28 444.653 C 1474.95 444.311 1447.54 439.659 1441.85 430.228 C 1441.27 426.405 1441.02 427.875 1442.55 424.578 C 1450.65 418.023 1463.05 429.762 1471.96 432.029 C 1476.8 434.573 1484.76 432.945 1488.92 433.472 C 1495.35 434.283 1516.69 425.979 1512.44 417.183 C 1502.42 399.645 1470.43 401.539 1454.54 389.405 C 1428.67 369.658 1450.57 348.204 1476.6 344.284 z" fill="rgb(254,254,254)" transform="translate(0,0)"></path>
<path d="M 1290.73 675.471 C 1299.83 675.288 1334.8 673.388 1340.57 676.716 C 1354.54 695.377 1314.85 691.442 1306.92 691.59 C 1306.68 715.205 1307.95 744.58 1306.6 768.558 C 1306.52 769.873 1304.66 772.318 1303.79 773.386 C 1302.52 773.773 1301.24 774.119 1299.95 774.424 C 1296.15 775.3 1294.05 775.142 1290.77 773.052 C 1286.68 768.957 1287.89 748.458 1287.88 742.019 L 1287.83 691.817 C 1279.83 691.527 1240.59 697.009 1252.96 678.448 C 1255.74 674.271 1284.78 675.576 1290.73 675.471 z" fill="rgb(254,254,254)" transform="translate(0,0)"></path>
<path d="M 1095.62 345.388 C 1106.87 344.284 1137.75 348.204 1142.71 359.106 C 1139.62 372.692 1122.19 359.215 1114.55 358.047 C 1106.2 356.641 1098.87 356.727 1090.47 357.803 C 1055.17 362.326 1038.76 403.583 1069.54 425.963 C 1083 435.743 1101.49 434.989 1117.47 432.121 C 1125.4 429.556 1128.24 427.913 1135.4 423.925 C 1137.75 426.066 1140.76 429.388 1143.04 431.762 C 1133.23 441.054 1123.93 443.003 1110.21 445.285 C 1063.92 452.983 1017.72 411.243 1050.13 366.666 C 1059.8 353.364 1078.74 346.981 1095.62 345.388 z" fill="rgb(254,254,254)" transform="translate(0,0)"></path>
<path d="M 1522.59 672.961 C 1526.71 672.917 1529.67 672.751 1532.92 675.265 C 1536.79 680.058 1535.16 745.055 1535.13 755.73 C 1548.14 756.194 1580.33 752.997 1589.24 759.485 C 1592.54 765.135 1591.27 768.635 1585.87 772.046 C 1566.38 772.118 1545.29 774.53 1526 772.451 C 1524.07 772.243 1520.73 771.876 1519.59 770.19 C 1516.12 765.064 1515.53 687.307 1517.29 678.54 C 1517.86 675.705 1520.43 674.523 1522.59 672.961 z" fill="rgb(254,254,254)" transform="translate(0,0)"></path>
<path d="M 1549.84 345.383 L 1607.01 345.108 C 1614.76 345.093 1641.14 343.258 1645.6 348.622 C 1646.26 351.759 1646.34 352.167 1644.96 355.039 C 1641.05 358.045 1611.22 356.928 1604.03 356.918 L 1604.1 405.5 C 1604.19 412.268 1604.27 419.057 1604.3 425.825 C 1604.34 433.221 1605.07 447.774 1593.1 441.239 C 1589.44 436.559 1590.82 416.009 1590.82 409.107 L 1590.77 356.975 C 1581.32 357.054 1556.17 358.54 1547.16 354.512 C 1545.63 353.826 1545.54 351.942 1545.24 350.414 C 1546.4 347.579 1547.32 347.227 1549.84 345.383 z" fill="rgb(254,254,254)" transform="translate(0,0)"></path>
<path d="M 1794.51 343.784 C 1797.86 344.23 1800.69 344.236 1803.1 346.611 C 1806.23 352.982 1804.86 419.76 1804.81 432.03 C 1819.65 431.948 1834.57 431.733 1849.4 431.856 C 1856.48 431.914 1873.04 429.97 1874.75 438.202 C 1873.74 441.065 1873.34 441.142 1870.81 443.067 C 1860.54 442.992 1795.55 444.246 1792.04 441.433 C 1788.6 431.882 1790.35 397.807 1789.95 385.791 C 1789.66 377.321 1789.57 357.19 1791.09 348.164 C 1791.26 347.149 1793.61 344.684 1794.51 343.784 z" fill="rgb(254,254,254)" transform="translate(0,0)"></path>
<path d="M 1621.2 671.217 C 1625.08 671.835 1630.27 672.841 1630.19 676.992 C 1629.96 689.867 1633.29 761.619 1629.48 769.198 C 1626.77 771.988 1624.13 772.129 1620.28 772.91 C 1615.44 772.285 1611.74 769.503 1612.19 764.788 C 1613.5 751.093 1608.99 682.666 1612.86 674.659 C 1615.24 672.208 1617.89 671.955 1621.2 671.217 z" fill="rgb(254,254,254)" transform="translate(0,0)"></path>
<path d="M 1472.44 673.096 C 1477.72 672.973 1481.23 672.485 1485.4 675.974 C 1489.6 684.124 1485.65 748.973 1487.11 762.457 C 1487.78 768.674 1486.49 769.952 1482.1 773.393 C 1481.37 773.45 1480.65 773.501 1479.92 773.546 C 1476.65 773.744 1473.38 774.169 1470.87 771.583 C 1468.07 768.693 1468.25 761.47 1468.22 757.464 C 1468.01 731.702 1467.88 705.917 1467.99 680.155 C 1468.01 676.166 1469.76 675.559 1472.44 673.096 z" fill="rgb(254,254,254)" transform="translate(0,0)"></path>
<metadata><recraft-signature>{"signed_by": "recraft", "signature_b64": "8jOGEyNc6s5AjFMr6Y++8I6LYjroQ/fFvIvBSiLtRt2a8mHBWyxRcQQXw/y2xUZIlXVIcltS7yv9uhrYEk4pCA==", "signing_algo": "Ed25519", "generation_timestamp": 1778258791, "identifier": "765861e1-3bac-4c3e-9745-8d024efd5c64"}</recraft-signature></metadata></svg>