<svg xmlns="http://www.w3.org/2000/svg" height="1024" preserveAspectRatio="none" style="display: block;" version="1.1" viewBox="0 0 2048 1152" width="1820">
<path d="M 0 0 L 2048 0 L 2048 1152 L 0 1152 L 0 0 z" fill="rgb(254,254,254)" transform="translate(0,0)"></path>
<path d="M 1100.25 179.98 C 1112.29 178.289 1162.58 185.841 1176.61 186.863 C 1199.66 188.542 1224.85 191.83 1247.73 193.908 L 1574.7 224.056 C 1620.25 228.327 1665.77 232.728 1711.36 236.586 C 1727.73 237.972 1738.09 239.123 1743.58 255.806 C 1771.19 240.325 1802.2 251.849 1798.24 287.389 C 1794.11 324.411 1788.76 363.19 1786.9 400.258 C 1798.11 406.971 1809.79 417.465 1819.83 426.061 C 1854.32 455.588 1889.85 483.919 1924.09 513.727 C 1926.5 515.826 1928.86 519.071 1930.52 521.75 C 1928.88 531.235 1928.53 540.478 1926.73 550.381 C 1922.45 551.531 1918.81 551.66 1917.38 556.14 C 1918.54 559.256 1921.73 560.814 1924.58 562.671 C 1923.86 569.248 1922.67 593.611 1917.66 596.621 C 1915.41 597.974 1909.45 599.672 1907.57 602.974 C 1908.93 606.468 1913.13 606.175 1916.96 610.719 C 1917.28 615.116 1915.41 635.89 1913.07 639.998 C 1911.71 642.386 1903.21 645.504 1901.72 648.972 C 1904.22 653.875 1908.06 652.894 1910.05 656.565 C 1912.81 661.665 1908.93 678.311 1908.49 684.195 C 1908.1 689.382 1901.77 691.421 1897.17 694.309 L 1897.02 696.038 C 1899.17 698.973 1902.47 699.889 1905.89 701.301 C 1905.21 709.679 1904.53 726.461 1902.09 734.975 C 1901.55 736.895 1893.39 738.572 1892.18 742.529 C 1893.84 746.182 1894.44 745.367 1899.31 747.445 C 1902.35 754.085 1898.37 768.927 1897.88 776.344 C 1897.57 781.052 1891.16 784.076 1887.04 786.799 C 1887.97 792.693 1893.64 791.287 1896.47 798.172 C 1897.06 804.219 1894.91 808.16 1888.99 809.794 C 1882.48 809.482 1860.26 789.009 1853.78 783.533 L 1796.67 735.389 C 1783 723.732 1766.28 708.558 1751.54 698.866 C 1750.59 729.936 1743.95 762.45 1742.24 793.68 C 1741.01 816.197 1738.72 843.599 1712.64 850.155 C 1697.8 853.885 1690.23 850.567 1677.69 843.026 C 1652.97 853.747 1625.35 863.073 1599.88 872.338 L 1477.58 917.334 L 1377.94 955.093 C 1361.42 961.382 1344.52 968.481 1327.72 973.831 C 1321.5 975.811 1309.81 973.952 1304.04 971.028 C 1284.59 961.169 1265.35 947.563 1246.75 936.049 L 1155.03 879.99 C 1135.79 868.102 1114.59 853.974 1095.26 843.049 C 1111.59 842.973 1126.21 840.835 1140.68 849.902 C 1151.86 856.91 1163.14 863.901 1174.33 870.896 C 1219.17 900.141 1272.94 927.824 1316.09 958.725 C 1323.24 956.762 1338.49 950.405 1346.3 947.437 C 1368.22 938.964 1390.2 930.633 1412.22 922.446 L 1664.03 828.838 C 1667.75 817.804 1672.83 763.025 1674.39 749.003 L 1695.53 553.857 L 1717.18 356.032 C 1719.9 330.767 1726.86 280.539 1726.94 256.434 C 1703.17 252.511 1664.42 250.941 1639.16 248.294 L 1384.5 224.025 L 1204.23 207.007 C 1174.81 204.053 1130.17 197.991 1101.57 197.292 C 1098.15 219.933 1096.26 255.293 1094.53 278.659 L 1084.75 401.453 L 1071.75 571.063 L 1067.21 630.151 C 1066.28 641.734 1064.93 650.056 1064.72 661.906 L 1047.14 661.922 C 1051.91 624.544 1054.06 576.434 1057.01 538.079 L 1074.38 313.339 L 1080.55 236.044 C 1081.45 224.686 1082.26 213.298 1083.42 201.968 C 1084.76 188.953 1089.3 185.748 1100.25 179.98 z" fill="rgb(0,0,0)" transform="translate(0,0)"></path>
<path d="M 1784.17 420.284 C 1794.08 423.284 1890.17 511.461 1910.44 524.643 C 1908.63 535.047 1907.88 536.834 1904.18 546.881 C 1900.36 543.925 1889.18 532.384 1884.49 533.494 C 1858.74 539.599 1895.31 563.057 1904.3 570.261 C 1904.01 574.258 1903.01 579.84 1902.4 583.924 C 1890.09 597.609 1888.22 577.388 1876.44 577.232 C 1869.18 577.136 1865.89 586.318 1868.8 590.36 C 1873.1 596.338 1891.47 611.255 1897.32 615.062 C 1896.13 621.929 1895.37 629.564 1890.71 634.849 C 1883.16 638.013 1878.54 624.475 1869.55 621.987 C 1860.94 622.743 1857.95 633.475 1862.06 637.58 C 1871.27 646.771 1882.39 653.899 1891.76 663.314 C 1890.23 668.146 1887.64 678.048 1884.56 681.207 C 1875.46 682.367 1870.1 665.572 1858.71 667.795 C 1852.62 672.215 1852.41 676.776 1855.66 682.751 C 1864.8 691.016 1876.64 700.489 1886.19 708.648 C 1884.57 715.237 1884.77 723.837 1878.79 727.816 C 1870.81 728.362 1864.36 714.425 1856.53 712.557 C 1850.01 713.414 1845.89 720.438 1847.41 725.073 C 1850.58 734.723 1873.13 748.723 1880.57 755.037 C 1879.5 765.215 1878.49 767.74 1874.46 776.819 C 1864.62 769.777 1853.42 759.006 1843.66 751.349 C 1814.52 728.478 1783.87 699.578 1754.62 677.656 C 1756 655.836 1760.06 626.841 1762.64 604.769 L 1777 480.725 C 1779.34 460.643 1782.29 440.37 1784.17 420.284 z" fill="rgb(254,254,254)" transform="translate(0,0)"></path>
<path d="M 303.785 256.664 C 309.831 238.827 317.82 239.34 334.486 237.59 C 342.527 236.745 350.819 235.871 358.881 235.1 C 378.983 233.228 399.064 231.146 419.123 228.855 L 560.754 214.4 C 583.528 212.228 609.265 208.987 631.857 207.847 C 638.06 209.642 643.55 212.601 642.372 220.82 C 641.972 223.613 638.262 224.803 635.897 226.047 C 622.591 226.155 592.09 229.98 577.351 231.371 C 534.877 235.031 492.456 239.281 450.101 244.121 L 374.131 252.194 C 359.968 253.614 337.152 255.146 323.861 258.209 C 319.669 263.477 326.894 316.168 328.015 326.276 L 339.108 424.984 L 364.908 654.065 C 371.613 710.942 379.79 771.669 385.197 828.524 C 443.484 851.661 505.651 872.977 564.692 895.221 L 677.803 937.659 C 689.498 942.122 722.797 957.597 733.619 957.785 C 741.161 951.603 760.669 940.795 770 935.256 L 846.994 889.687 C 861.551 880.963 875.993 872.051 890.318 862.952 C 922.968 842.244 919.37 840.275 958.97 841.519 C 944.408 851.843 926.058 862.433 910.595 871.885 C 882.14 889.401 853.57 906.728 824.885 923.864 L 773.676 954.61 C 727.08 982.902 737 980.442 685.67 960.897 L 600.565 928.429 C 525.414 900.105 446.508 872.799 372.186 843.446 C 341.53 863.821 312.821 847.66 309.806 811.783 C 306.69 774.714 299.668 736.303 297.574 699.291 L 210.613 770.791 C 196.174 782.697 181.74 795.019 167.133 806.722 C 164.723 808.42 162.962 810.05 159.922 810.184 C 155.404 810.382 152.151 807.566 150.522 803.376 C 150.257 796.573 156.119 793.608 160.715 787.824 C 159.892 784.845 153.17 781.519 150.023 779.559 C 148.573 769.092 147.858 758.535 147.884 747.968 L 158.489 741.739 C 154.088 738.854 150.315 736.593 145.73 734.008 L 143.05 700.968 C 146.414 698.891 149.897 696.353 153.161 694.069 C 149.424 691.399 145.768 689.696 141.688 687.651 C 140.021 678.343 138.593 664.543 137.888 655.262 C 140.89 653.236 144.438 651.239 146.451 648.316 C 145.339 645.465 139.316 642.686 135.853 640.375 C 134.359 629.73 133.402 618.923 132.356 608.218 C 135.429 606.315 139.751 603.712 141.095 600.562 C 138.205 594.182 130.828 597.873 129.426 586.438 C 128.432 578.331 127.245 570.189 126.754 561.818 C 130.25 559.626 134.345 557.943 134.381 553.538 C 130.032 550.349 124.975 548.358 124.125 542.732 C 122.974 535.112 122.47 526.685 121.782 519.025 C 127.08 510.685 155.18 488.742 163.985 481.367 L 263.484 399.2 C 260.615 359.5 253.038 319.388 250.34 279.636 C 249.51 267.399 257.47 255.863 269.066 252.065 C 282.864 247.545 291.602 250.662 303.785 256.664 z" fill="rgb(0,0,0)" transform="translate(0,0)"></path>
<path d="M 264.294 422.8 L 265.273 423.053 C 267.213 427.178 271.591 467.767 272.252 474.141 C 279.287 541.99 288.582 610.005 295.633 677.792 C 286.015 683.753 263.936 703.16 253.932 711.207 C 229.365 730.968 205.107 751.823 180.277 771.412 C 177.355 773.717 177.724 774.028 174.636 773.738 C 145.936 753.044 206.413 738.696 199.866 720.759 C 192.26 699.923 177.796 731.155 167.365 726.433 C 163.301 721.036 163.482 715.059 162.895 708.392 C 170.33 702.454 177.688 696.421 184.966 690.293 C 190.229 686.174 199.61 676.473 192.404 669.647 C 182.74 660.492 172.318 681.847 163.917 682.25 C 162.132 680.674 161.827 680.048 160.493 678.038 L 157.763 661.416 C 167.165 654.184 176.908 646.94 185.522 638.865 C 190.816 633.903 188.011 625.495 183.023 621.981 C 174.161 615.738 163.848 636.499 157.278 634.313 C 154.638 633.434 153.125 619.205 152.645 615.774 C 157.294 611.308 177.414 596.493 178.426 593.534 C 189.033 562.513 158.477 584.453 152.767 587.364 C 147.689 583.413 148.208 574.333 147.773 568.241 C 154.119 561.58 187.536 543.825 167.53 533.613 C 160.003 529.77 154.539 540.913 147.358 543.805 C 143.992 541.697 141.707 529.663 140.633 525.23 C 167.809 500.305 198.967 477.297 226.986 453.136 C 238.646 443.081 252.077 431.988 264.294 422.8 z" fill="rgb(254,254,254)" transform="translate(0,0)"></path>
<path d="M 883.656 241.416 C 889.845 240.612 895.112 241.486 901.176 242.405 C 905.493 246.507 907.278 248.737 910.913 253.494 C 913.187 266.741 914.012 291.021 914.953 304.823 L 921.746 396.872 L 935.329 569.618 C 937.537 598.308 941.567 633.448 941.987 661.191 L 924.403 661.322 C 923.081 626.609 917.532 582.423 914.867 547.338 L 893.587 259.712 C 865.207 260.564 822.372 266.145 792.991 268.747 L 583.833 288.115 L 449.296 300.484 C 429.605 302.259 402.104 303.756 383.523 306.723 C 383.984 325.013 389.339 360.049 391.512 379.341 L 408.882 533.006 L 428.344 704.068 C 431.153 729.517 432.953 755.617 437.238 780.893 C 438.836 790.326 440.381 789.786 448.88 793.101 C 479.558 805.066 511.261 814.859 541.753 827.312 C 568.455 836.518 595.365 847.051 621.848 856.935 C 655.904 869.646 691.088 882.114 724.552 896.196 C 746.292 880.821 788.113 857.244 812.717 843.626 C 816.142 841.73 842.247 842.378 848.253 842.437 C 843.777 846.033 827.649 856.185 822.349 858.646 C 797.135 870.353 747.287 909.96 722.427 914.404 C 706.156 906.063 665.306 892.319 646.244 885.23 L 485.424 826.028 C 476.061 822.607 431.365 807.864 426.674 803.062 C 416.572 792.72 414.424 745.679 412.61 728.988 L 400.94 622.794 C 389.819 523.355 378.331 423.941 366.979 324.529 C 366.207 318.338 365.962 311.945 366.23 305.729 C 366.463 300.336 374.603 289.946 379.601 288.966 C 394.278 286.087 409.638 285.621 424.559 284.271 L 512.831 276.064 L 883.656 241.416 z" fill="rgb(0,0,0)" transform="translate(0,0)"></path>
<path d="M 1155.7 241.606 C 1159.6 241.115 1178.67 243.794 1183.31 244.258 L 1254.32 250.988 L 1627.53 284.862 C 1638.8 285.802 1671.82 285.784 1677.9 296.029 C 1686.54 310.604 1679.08 346.826 1677.15 363.856 C 1672.93 398.698 1668.94 433.568 1665.17 468.462 L 1643.26 667.278 C 1638.75 709.097 1634.89 754.068 1629.53 795.418 C 1626.43 799.055 1621.75 804.907 1617.51 806.636 C 1605.89 811.372 1593.31 815.674 1581.47 819.912 C 1559.38 827.767 1537.35 835.808 1515.39 844.033 L 1388.44 890.004 C 1369.72 896.764 1351.17 904.805 1332.22 910.951 C 1328.23 912.244 1318.6 912.813 1314.94 911.139 C 1304.02 906.157 1292.17 897.84 1281.75 891.703 C 1255.32 876.15 1228.44 858.289 1201.7 843.579 C 1210.25 843.104 1225.38 841.879 1234.35 843.646 C 1250.99 846.927 1315.41 898.223 1327.03 893.705 C 1384.86 871.237 1443.04 851.822 1500.3 829.778 C 1517.23 824.261 1536.96 816.005 1554.14 809.951 C 1570.68 804.121 1594.61 796.295 1610.15 789.011 C 1612.7 777.868 1615.48 747.325 1616.9 735.061 L 1629.31 624.601 L 1664.4 307.029 C 1601.98 298.565 1529.51 294.528 1466.36 288.483 L 1290.15 272.067 C 1246.27 267.929 1199.34 262.972 1155.43 260.154 C 1153.52 297.674 1148.87 336.41 1145.87 374.003 L 1123.31 661.786 L 1106.88 661.97 C 1108.77 618.601 1113.39 571.251 1117.07 527.922 L 1124.04 434.968 L 1132.72 314.461 C 1134.19 295.63 1135.45 272.918 1138.04 254.446 C 1146.42 243.29 1144.66 247.741 1155.11 241.942 L 1155.7 241.606 z" fill="rgb(0,0,0)" transform="translate(0,0)"></path>
<path d="M 704.89 200.856 C 717.815 200.803 748.078 196.972 762.65 195.655 L 886.419 184.306 C 903.754 182.66 921.421 180.471 938.603 179.639 C 958.95 178.653 964.709 189.541 965.627 207.811 C 968.959 244.687 971.207 281.863 974.181 318.87 L 992.582 553.958 C 994.027 573.586 1002.31 646.901 999.043 661.315 C 995.517 662.631 989.471 662.656 985.803 661.251 C 983.502 659.469 982.435 657.821 982.172 654.858 C 979.098 620.25 977.645 584.834 974.98 550.319 L 954.927 298.342 C 953.132 275.555 951.451 252.758 949.885 229.954 C 949.298 222.268 948.349 204.766 946.919 198.02 C 917.848 199.019 888.064 202.272 859.05 204.815 C 820.282 208.057 781.538 211.575 742.82 215.369 C 720.904 217.823 698.969 220.105 677.017 222.214 C 672.89 222.576 657.801 224.115 654.541 223.865 C 647.355 225.09 643.227 225.771 635.897 226.047 C 638.262 224.803 641.972 223.613 642.372 220.82 C 643.55 212.601 638.06 209.642 631.857 207.847 C 639.768 206.15 650.529 205.658 658.609 205.195 C 668.151 204.985 684.586 203.118 694.895 202.478 C 698.44 201.405 701.226 201.235 704.89 200.856 z" fill="rgb(0,0,0)" transform="translate(0,0)"></path>
<path d="M 631.857 207.847 C 639.768 206.15 650.529 205.658 658.609 205.195 C 653.25 207.124 652.008 207.646 646.385 207.776 C 643.474 209.982 644.216 208.839 643.23 211.991 C 643.793 215.774 646.258 218.874 648.379 222.133 C 650.538 223.549 651.952 223.512 654.541 223.865 C 647.355 225.09 643.227 225.771 635.897 226.047 C 638.262 224.803 641.972 223.613 642.372 220.82 C 643.55 212.601 638.06 209.642 631.857 207.847 z" fill="rgb(19,19,19)" transform="translate(0,0)"></path>
<path d="M 694.895 202.478 C 698.44 201.405 701.226 201.235 704.89 200.856 C 700.921 202.967 701.64 201.842 700.644 204.952 C 701.588 210.212 705.632 213.742 708.368 219.049 C 701.273 213.016 698.812 211.124 694.895 202.478 z" fill="rgb(19,19,19)" transform="translate(0,0)"></path>
<path d="M 864.917 758.082 L 1172.85 758.315 C 1169.54 766.685 1166.09 775.004 1162.52 783.27 C 1164.51 787.651 1170.77 800.209 1170.76 804.106 L 863.586 804.127 L 874.123 782.148 C 870.976 774.156 867.908 766.134 864.917 758.082 z" fill="rgb(0,0,0)" transform="translate(0,0)"></path>
<path d="M 885.147 769.952 C 899.678 769.643 919.52 773.695 905.96 792.449 C 898.34 796.947 894.074 796.118 885.198 796.09 L 885.147 769.952 z" fill="rgb(254,254,254)" transform="translate(0,0)"></path>
<path d="M 890.257 774.718 C 896.799 774.54 900.64 773.963 903.961 780.297 C 904.258 784.61 903.752 785.352 901.943 789.21 C 897.864 790.978 894.638 792.646 891.005 789.68 C 889.4 785.936 890.114 779.053 890.257 774.718 z" fill="rgb(0,0,0)" transform="translate(0,0)"></path>
<path d="M 1134.1 769.114 C 1138.19 768.955 1145.79 768.959 1146.84 773.863 C 1140.47 778.284 1135.9 771.254 1128.79 777.899 C 1127.13 782.342 1130.25 788.179 1134.02 790.667 C 1137.32 791.387 1138.38 791.808 1141.7 790.758 C 1143.43 788.477 1143.12 789.632 1142.74 786.582 L 1139.63 784.449 L 1139.33 781.906 C 1140.97 781.856 1147.57 781.367 1148.17 783.345 C 1155.13 806.273 1115.6 794.357 1123.77 778.104 C 1126.03 773.627 1130.01 771.14 1134.1 769.114 z" fill="rgb(254,254,254)" transform="translate(0,0)"></path>
<path d="M 1086.13 768.58 C 1089.78 770.948 1101.41 781.971 1105.26 785.482 C 1105.24 781.198 1104.9 774.349 1105.96 770.425 L 1108.11 769.769 C 1111.42 773.312 1110.19 790.485 1110.09 796.279 C 1103.69 790.76 1097.05 783.78 1091.03 777.711 C 1091.13 782.066 1091.81 792.692 1088.48 795.381 C 1084.88 788.78 1085.9 776.142 1086.13 768.58 z" fill="rgb(254,254,254)" transform="translate(0,0)"></path>
<path d="M 992.354 767.75 C 994.659 770.389 1005.25 791.66 1004.55 794.5 C 997.681 793.239 1000.29 789.762 990.396 789.209 C 983.234 789.977 985.441 793.564 979.105 795.553 C 978.488 792.971 990.186 772.199 992.354 767.75 z" fill="rgb(254,254,254)" transform="translate(0,0)"></path>
<path d="M 922.137 769.869 C 927.064 769.787 937.907 768.136 940.136 772.506 C 935.884 776.053 931.896 772.114 927.859 775.502 L 928.036 778.024 C 930.378 780.333 933.725 780.222 937.22 780.662 L 937.492 782.026 L 935.526 783.881 C 929.106 784.013 929.423 783.464 926.349 788.996 C 930.133 792.753 934.818 790.733 941.194 793.65 L 940.896 793.62 L 939.299 795.515 C 934.16 796.143 927.401 795.889 922.105 795.85 L 922.137 769.869 z" fill="rgb(254,254,254)" transform="translate(0,0)"></path>
<path d="M 950.964 769.353 C 955.755 769.279 964.811 768.874 969.523 769.605 C 970.757 769.796 970.64 770.494 971.301 772.034 L 970.429 773.572 C 968.506 773.821 966.586 774.085 964.668 774.365 C 963.162 777.686 963.808 786.188 963.891 790.25 C 964.015 792.294 963.796 792.871 963.358 794.809 L 960.84 795.717 C 954.726 791.618 960.441 778.544 957.091 774.046 C 954.671 774.083 953.668 774.364 951.725 773.133 L 950.964 769.353 z" fill="rgb(254,254,254)" transform="translate(0,0)"></path>
<path d="M 1037.99 769.037 C 1041.19 769.601 1040.41 769.029 1042.68 770.885 C 1044.34 776.401 1043.67 785.033 1043.57 791.095 C 1050.04 790.918 1052.55 789.317 1054.76 795.461 C 1050.53 795.853 1042.49 795.637 1037.98 795.656 L 1037.99 769.037 z" fill="rgb(254,254,254)" transform="translate(0,0)"></path>
<path d="M 1017.95 769.176 L 1021.52 769.997 C 1024.96 774.468 1023.42 789.673 1023.26 796.058 L 1019.91 795.238 C 1016.47 790.699 1017.88 775.747 1017.95 769.176 z" fill="rgb(254,254,254)" transform="translate(0,0)"></path>
<path d="M 1065.91 769.091 L 1069.1 769.742 C 1072.77 773.625 1071.16 790.189 1071.02 796.328 L 1067.89 795.675 C 1064.21 791.172 1065.77 775.684 1065.91 769.091 z" fill="rgb(254,254,254)" transform="translate(0,0)"></path>
<path d="M 629.394 476.421 C 644.409 474.937 663.373 477.961 677.947 482.128 C 683.057 483.111 686.534 485.607 691.489 486.868 C 704.981 490.302 720.585 507.076 703.103 517.44 C 696.313 521.466 683.719 513.934 675.765 511.26 C 643.702 500.168 588.487 499.808 574.005 537.549 C 563.625 564.6 580.322 594.043 606.913 602.961 C 631.576 611.232 657.27 609.64 680.454 598.928 C 689.243 594.319 706.739 587.129 711.329 604.357 C 711.973 606.771 709.531 612.742 707.538 614.673 C 692.521 629.225 668.051 633.585 647.94 635.569 C 616.905 637.512 586.063 632.693 562.204 611.646 C 518.731 573.294 531.545 506.894 584.982 486.054 C 602.424 479.252 610.672 477.695 629.394 476.421 z" fill="rgb(0,0,0)" transform="translate(0,0)"></path>
<path d="M 1347.43 477.346 C 1352.68 476.903 1358.18 476.977 1363.46 477.013 C 1397.13 477.245 1431.17 476.241 1464.78 477.312 C 1482 477.86 1482.91 501.597 1468.79 504.573 C 1458.05 506.837 1439.77 506.056 1428.59 506.008 C 1408.79 505.817 1388.99 505.812 1369.2 505.995 C 1369.75 516.385 1369.3 528.528 1369.15 539.058 C 1386.57 539.39 1443.3 537.518 1455.83 541.445 C 1459.24 544.106 1462.83 548.498 1463.19 552.978 C 1463.5 556.804 1460.52 562.458 1457.78 565.056 C 1450.58 571.89 1383.33 568.904 1369.93 568.828 C 1369.86 588.48 1369.61 608.131 1369.2 627.779 C 1360.89 641.348 1338.9 640.107 1338.77 624.951 C 1338.55 582.974 1338.65 540.971 1338.81 498.992 C 1338.86 487.937 1337.34 483.249 1347.43 477.346 z" fill="rgb(0,0,0)" transform="translate(0,0)"></path>
<path d="M 859.53 704.344 C 866.746 702.821 874.224 705.297 879.105 710.826 C 883.986 716.355 885.517 724.082 883.112 731.054 C 880.707 738.026 874.738 743.166 867.486 744.509 C 856.465 746.551 845.85 739.351 843.672 728.356 C 841.494 717.36 848.562 706.658 859.53 704.344 z" fill="rgb(0,0,0)" transform="translate(0,0)"></path>
<path d="M 861.191 709.596 C 869.057 708.117 876.671 713.169 878.366 720.992 C 880.061 728.815 875.22 736.565 867.447 738.474 C 862.225 739.757 856.718 738.102 853.068 734.153 C 849.418 730.205 848.201 724.585 849.89 719.48 C 851.578 714.375 855.906 710.589 861.191 709.596 z" fill="rgb(254,254,254)" transform="translate(0,0)"></path>
<path d="M 912.013 703.471 C 915.211 705.959 930.292 737.958 932.675 743.491 L 931.704 744.695 C 922.613 740.744 925.423 735.457 916.25 734.677 C 894.444 734.102 907.013 737.722 898.086 743.915 C 894.796 744.002 895.683 744.445 893.286 742.919 C 894.845 737.934 908.941 709.847 912.013 703.471 z" fill="rgb(0,0,0)" transform="translate(0,0)"></path>
<path d="M 912.402 714.83 C 914.933 717.428 919.029 725.406 918.713 729.225 L 916.247 729.898 C 913.165 730.006 910.507 730.534 908.09 728.905 C 906.879 724.655 910.29 719.417 912.402 714.83 z" fill="rgb(254,254,254)" transform="translate(0,0)"></path>
<path d="M 1026.41 702.718 C 1028.49 704.94 1045.56 740.558 1045.57 743.301 L 1044.21 744.325 L 1041.64 743.533 C 1039.08 741.212 1038.32 739.065 1036.81 735.964 C 1034.21 734.099 1029.26 734.721 1025.75 734.793 C 1023.16 734.744 1020.61 734.864 1018.03 734.953 C 1014.49 737.559 1015.72 738.256 1012.98 742.894 C 1010.54 744.178 1010.35 744.041 1007.49 743.612 C 1007.11 740.971 1024.08 707.507 1026.41 702.718 z" fill="rgb(0,0,0)" transform="translate(0,0)"></path>
<path d="M 1026.32 715.655 C 1028.82 718.063 1032.69 725.51 1032.02 729.16 L 1029.24 729.845 C 1024.61 729.743 1024.29 730.507 1021.14 728.28 C 1020.6 724.703 1024.38 719.197 1026.32 715.655 z" fill="rgb(254,254,254)" transform="translate(0,0)"></path>
<path d="M 1172.96 703.413 C 1176.28 705.355 1195.54 726.08 1199.27 730.01 C 1199.19 723.77 1197.79 707.49 1200.93 703.937 L 1203.35 703.873 C 1206.43 708.129 1205 737.913 1204.91 745.043 C 1198.08 738.639 1185.76 724.416 1178.86 717.063 C 1178.8 723.752 1179.36 734.431 1178.66 741.269 C 1178.51 742.767 1176.55 743.465 1175.34 744.043 L 1173.68 743.018 C 1172.16 735.387 1172.87 712.353 1172.96 703.413 z" fill="rgb(0,0,0)" transform="translate(0,0)"></path>
<path d="M 818.366 704.145 C 820.303 704.097 822.241 704.112 824.178 704.19 C 827.741 704.332 830.592 704.604 833.091 707.318 C 833.759 710.181 833.632 710.673 833.148 713.593 C 824.419 710.185 817.199 706.52 810.261 715.28 C 807.663 718.534 806.555 722.733 807.208 726.846 C 808.852 737.569 817.655 739.76 827.096 738.159 C 829.191 736.623 829.539 736.133 832.013 735.772 L 833.183 737.464 L 832.52 739.873 C 827.292 746.164 818.537 745.696 811.778 742.324 C 807.389 740.151 804.056 736.306 802.53 731.652 C 798.192 718.434 806.02 708.226 818.366 704.145 z" fill="rgb(0,0,0)" transform="translate(0,0)"></path>
<path d="M 952.906 703.088 C 956.781 703.494 964.385 705.243 965.274 709.641 C 960.408 711.062 960.933 710.508 955.321 708.271 C 951.274 708.961 952.365 708.249 949.771 710.501 C 950.126 719.358 986.833 741.096 952.398 745.039 C 948.115 743.927 942.03 740.457 940.733 735.949 C 942.569 734.046 942.078 734.649 945.37 734.182 C 946.129 734.913 946.902 735.629 947.689 736.329 C 952.158 740.255 957.038 740.384 960.653 735.422 C 959.448 724.635 925.403 713.716 952.906 703.088 z" fill="rgb(0,0,0)" transform="translate(0,0)"></path>
<path d="M 1220.97 703.861 C 1227.15 703.767 1235.87 702.446 1240.1 705.81 L 1240.04 707.523 C 1234.9 710.875 1231.01 706.508 1226.95 710.519 C 1226.04 728.261 1233.42 714.949 1241.81 722.836 C 1237.15 728.751 1232.01 722.614 1226.93 727.023 C 1226.88 730.29 1226.46 734.528 1227.6 737.419 C 1231.86 737.616 1236.84 738.349 1240.32 740.95 L 1239.8 742.1 C 1233.73 743.692 1227.37 743.284 1221.07 743.239 L 1220.97 703.861 z" fill="rgb(0,0,0)" transform="translate(0,0)"></path>
<path d="M 1260.36 702.928 C 1264.78 702.406 1272.56 703.686 1273.59 708.477 L 1271.89 710.212 C 1268.15 710.896 1268.96 710.452 1264.81 708.015 C 1262 707.931 1263.11 707.624 1260.55 709.886 C 1260.46 719.568 1294.19 737.537 1263.14 744.887 C 1259.08 743.185 1250.22 739.615 1253.6 733.606 C 1259.1 732.8 1261.97 743.529 1268.74 738.008 C 1274.96 721.104 1239.89 720.695 1260.36 702.928 z" fill="rgb(0,0,0)" transform="translate(0,0)"></path>
<path d="M 1116.89 703.938 C 1122.37 703.84 1133.7 702.307 1137.47 706.176 C 1135.16 712.444 1127.45 706.361 1123 709.945 C 1122.46 714.464 1122.65 715.452 1123.31 719.961 C 1127.36 722.309 1133 718.611 1136.28 722.494 L 1135.74 724.971 L 1134.02 725.876 C 1130.1 725.781 1126.54 725.44 1122.79 726.579 C 1119.9 733.155 1125.72 740.662 1119.44 744.396 L 1117.74 743.408 C 1116.29 739.332 1116.87 710.312 1116.89 703.938 z" fill="rgb(0,0,0)" transform="translate(0,0)"></path>
<path d="M 974.793 704.229 C 979.794 703.407 997.317 702.488 1000.87 705.486 L 1000.82 707.501 C 997.394 710.369 997.288 707.96 991.846 709.613 C 990.128 713.918 991.027 729.819 991.115 735.25 C 991.141 739.681 991.867 740.363 989.929 743.624 C 986.749 743.88 987.718 744.271 985.521 742.739 C 983.933 731.902 986.118 720.702 984.912 710.038 C 981.718 707.798 980.136 710.217 976.172 708.39 L 974.793 704.229 z" fill="rgb(0,0,0)" transform="translate(0,0)"></path>
<path d="M 1285.46 703.912 C 1293.49 703.681 1304.87 703.02 1312.38 705.859 L 1312.39 707.27 C 1309.03 709.225 1305.62 708.876 1301.7 708.921 L 1301.78 732.632 C 1301.82 736.233 1301.74 738.86 1301.48 742.452 C 1299.31 743.782 1300.44 743.584 1297.99 743.132 C 1294.03 738.164 1297.09 718.786 1295.99 709.993 C 1292.57 707.268 1291.43 710.366 1286.8 708.176 L 1285.46 703.912 z" fill="rgb(0,0,0)" transform="translate(0,0)"></path>
<path d="M 1058.84 703.06 L 1062.83 704.148 C 1065.59 708.67 1064.53 732.357 1064.51 738.894 C 1068.26 738.763 1075.38 738.079 1078.77 739.487 C 1080.38 740.16 1080.28 741.503 1080.99 743.671 C 1075.27 744.172 1064.77 743.911 1058.7 743.938 L 1058.84 703.06 z" fill="rgb(0,0,0)" transform="translate(0,0)"></path>
<path d="M 1151.46 703.246 C 1153.67 703.497 1153.6 703.509 1155.62 704.483 C 1158.08 710.063 1156.77 736.95 1156.58 744.59 C 1154.26 744.224 1153.98 744.297 1152.17 742.925 C 1149.72 736.571 1151.21 711.299 1151.46 703.246 z" fill="rgb(0,0,0)" transform="translate(0,0)"></path>
<metadata><recraft-signature>{"signed_by": "recraft", "signature_b64": "nb+cQ/WIEUbF7HsWigm38HEprbbkTQrTrj2sl3IWvppUmSC20f3MNtGXG40eV1vlgPc4SQ7EQt7ILOthXGZ9Aw==", "signing_algo": "Ed25519", "generation_timestamp": 1778258805, "identifier": "482f3c6c-5b98-4c8a-b600-33e9e55aac4a"}</recraft-signature></metadata></svg>