<svg xmlns="http://www.w3.org/2000/svg" height="1024" preserveAspectRatio="none" style="display: block;" version="1.1" viewBox="0 0 2048 1152" width="1820">
<path d="M 0 0 L 2048 0 L 2048 1152 L 0 1152 L 0 0 z" fill="rgb(255,255,255)" transform="translate(0,0)"></path>
<path d="M 1023.76 142.08 C 1033.5 145.381 1050.92 153.607 1060.83 157.932 L 1129.02 187.672 C 1202.78 220.327 1276.72 252.605 1350.81 284.503 C 1349.43 298.252 1349.74 313.434 1348.19 327.945 C 1343.1 375.818 1337.19 423.679 1322.62 469.663 C 1347.82 471.848 1364.68 471.774 1389.63 472.309 C 1432.83 473.36 1476.06 473.473 1519.27 472.646 C 1544.16 472.407 1570.56 475.597 1595.17 475.055 C 1636.48 474.146 1675.81 472.845 1717.24 473.069 C 1721.48 453.738 1719.69 426.619 1732.1 411.136 C 1739.17 402.328 1755.27 409.614 1765.26 410.872 C 1809.79 416.475 1854.8 415.769 1899.54 413.389 C 1981.35 406.284 2007.58 502.231 2008.08 566.52 C 2008.59 583.399 2011.63 599.259 2007.13 615.891 C 2000.31 641.108 2002.3 668.085 2003.06 693.89 C 1970.65 693.612 1939.17 693.669 1906.81 695.411 C 1887.04 696.476 1864.44 692.818 1845.49 700.17 C 1830.4 706.025 1816.36 718.52 1802.28 727.045 C 1793.66 732.268 1785.92 733.724 1777.53 738.47 C 1775.84 739.424 1776.11 740.934 1776.01 742.654 C 1779.96 751.672 1801.68 766.614 1810.81 768.111 C 1835.04 772.081 1863.56 770.43 1888.12 770.238 C 1923.56 769.856 1959.01 769.925 1994.45 770.446 C 1994.09 782.54 1991.93 793.359 1991.67 805.881 C 1991.14 830.364 2002.77 845.144 1994.94 868.315 C 1983.39 878.977 1972.73 877.105 1962.13 885.92 C 1955.75 891.221 1953.74 906.782 1945.83 913.527 C 1927.98 928.74 1888.39 930.143 1866.39 929.919 C 1840.18 952.911 1822.48 944.163 1792.23 946.305 C 1731.73 950.589 1725.6 923.396 1719.72 872.74 C 1699.68 871.964 1679.24 872.122 1659.12 871.699 L 1500.24 869.076 C 1382.19 866.905 1264.1 866.852 1146.05 868.916 C 1111.99 920.754 1071.6 965.529 1026.86 1008.2 C 1024.73 1009.67 1025.87 1009.33 1023.33 1009.32 C 1017.13 1004.68 1003.8 991.097 998.047 985.182 C 963.392 949.234 931.926 910.344 904.005 868.948 L 685.87 869.472 C 641.065 869.628 597.427 868.956 552.561 871.918 C 531.327 872.346 509.805 871.324 488.594 872.016 C 437.016 873.698 385.447 873.943 333.883 873.772 C 323.826 941.796 316.142 953.694 242.943 951.6 C 219.777 950.938 212.881 953.757 194.027 936.73 C 172.097 934.743 117.947 934.516 107.338 915.77 C 91.3247 887.474 92.6443 887.176 63.2348 873.805 C 49.2287 867.436 62.4874 827.055 62.942 813.945 C 63.3349 802.616 62.1536 787.702 60.9675 774.433 C 79.1906 773.898 99.2419 774.898 117.667 775.032 C 143.778 775.036 169.888 774.785 195.994 774.28 C 211.512 774.031 228.315 774.055 244.353 772.511 C 255.346 771.452 270.089 756.355 277.821 748.786 C 279.278 747.36 278.834 746.069 278.537 744.434 C 274.31 740.731 265.376 741.66 260.522 739.771 C 234.145 729.509 215.85 703.645 185.902 701.505 C 173.604 700.626 160.864 701.062 148.309 700.75 L 50.0224 699.069 C 50.1251 684.538 51.3286 661.47 49.0421 647.514 C 44.5516 620.106 41.7601 602.924 42.7885 574.842 C 44.3861 531.219 48.3159 488.074 74.5418 451.339 C 100.221 415.369 133.134 416.138 172.787 416.754 C 190.75 417.196 208.723 417.051 226.677 416.322 C 254.361 415.142 278.648 412.808 305.778 406.689 C 330.817 401.041 332.057 458.709 333.518 472.905 L 525.046 472.381 C 591.309 472.458 656.956 473.665 723.428 470.575 C 722.293 459.713 715.741 436.208 714.117 425.581 C 710.769 403.679 696.719 301.086 700.285 285.223 C 702.489 282.838 706.972 280.305 710.013 278.941 C 813.983 232.311 920.061 189.21 1023.76 142.08 z" fill="rgb(0,0,0)" transform="translate(0,0)"></path>
<path d="M 1024.18 196.024 C 1065.65 215.223 1108.77 233.249 1150.75 251.508 L 1305.82 319.317 C 1301.9 372.448 1294.47 425.263 1283.6 477.416 C 1294.98 478.851 1312.01 481.535 1322.98 480.92 C 1359.85 477.173 1395.21 480.921 1431.71 481.343 C 1498.67 482.118 1566.2 479.222 1633.27 481.98 C 1661.03 483.121 1688.35 480.014 1716.23 481.399 C 1712.46 542.341 1710.59 603.338 1711.04 664.378 C 1711.15 679.358 1710.07 694.464 1710.01 709.485 C 1709.43 758.905 1712.1 808.31 1717.99 857.381 C 1659.34 855.688 1601.19 855.147 1542.6 854.42 C 1501.43 853.909 1460.45 849.951 1418.72 850.742 C 1389.79 850.148 1360.57 852.206 1331.69 851.886 C 1233.29 850.796 1134.35 853.158 1036.05 848.993 C 998.221 847.604 950.551 852.246 910.512 852.038 L 716.513 852.955 C 684.495 853.025 652.541 851.778 620.508 852.147 L 335.836 857.037 C 340.18 787.763 342.155 718.361 341.758 648.952 C 341.097 592.056 338.256 539.477 335.595 483.01 C 399.279 483.355 460.478 481.723 523.94 480.813 L 673.439 479.333 C 694.937 478.941 744.571 486.52 762.71 477.121 C 764.702 472.835 762.513 465.383 761.491 460.721 C 751.186 413.743 747.058 366.386 744.004 318.404 L 898.493 251.093 C 939.923 233.132 983.548 215.291 1024.18 196.024 z" fill="rgb(255,255,255)" transform="translate(0,0)"></path>
<path d="M 931.744 346.426 C 954.817 344.783 972.624 349.595 992.791 359.992 C 992.656 369.289 992.791 378.891 992.799 388.216 C 967.506 366.067 935.215 360.911 903.925 373.337 C 865.363 388.65 852.649 440.479 868.73 476.355 C 876.273 493.497 890.382 506.894 907.892 513.54 C 930.02 521.767 952.475 518.481 973.466 509.012 C 981.82 504.855 988.31 498.825 995.171 492.645 C 995.21 501.741 995.432 510.973 995.566 520.081 C 957.908 545.633 905.099 546.379 869.842 515.709 C 831.539 482.389 827.856 415.039 862.419 377.739 C 881.094 357.584 904.501 348.059 931.744 346.426 z" fill="rgb(0,0,0)" transform="translate(0,0)"></path>
<path d="M 579.662 576.793 C 607.371 571.482 634.117 589.708 639.31 617.439 C 644.502 645.169 626.163 671.838 598.411 676.913 C 570.824 681.957 544.35 663.752 539.189 636.187 C 534.027 608.623 552.12 582.071 579.662 576.793 z" fill="rgb(0,0,0)" transform="translate(0,0)"></path>
<path d="M 582.4 587.526 C 604.188 583.761 624.871 598.469 628.466 620.286 C 632.062 642.102 617.193 662.67 595.349 666.095 C 573.745 669.484 553.451 654.813 549.895 633.235 C 546.339 611.658 560.851 591.251 582.4 587.526 z" fill="rgb(255,255,255)" transform="translate(0,0)"></path>
<path d="M 1091 350.05 C 1124.44 349.553 1158.59 349.879 1192.09 349.87 L 1192.05 369.98 C 1165.78 370.275 1138.89 369.965 1112.57 369.941 L 1112.47 425.002 L 1189.43 425.145 C 1189.18 431.576 1189.2 438.513 1189.11 444.99 L 1176.22 445.173 L 1112.78 445.155 C 1112.11 475.109 1112.62 505.137 1112.55 535.138 L 1090.88 534.959 L 1091 350.05 z" fill="rgb(0,0,0)" transform="translate(0,0)"></path>
<path d="M 970.171 576.081 C 971.713 576.035 976.673 575.854 976.915 576.312 C 985.301 592.217 1013.33 661.22 1017.11 674.201 L 1015.61 675.102 C 1002.04 675.717 998.246 655.094 993.339 643.978 L 979.25 643.981 L 954.461 644.012 C 949.877 654.34 945.494 664.756 941.313 675.253 L 928.754 675.331 C 942.847 642.317 956.035 608.891 970.171 576.081 z" fill="rgb(0,0,0)" transform="translate(0,0)"></path>
<path d="M 973.514 595.057 C 976.685 598.587 987.029 627.141 989.604 633.979 L 976.067 633.786 L 958.316 633.842 C 963.839 620.578 968.691 608.581 973.514 595.057 z" fill="rgb(255,255,255)" transform="translate(0,0)"></path>
<path d="M 680.235 762.531 C 702.352 761.886 724.545 762.262 746.675 761.866 C 751.732 761.775 764.396 761.876 767.494 766.268 C 755.279 775.006 564.713 770.944 534.106 774.834 C 533.018 774.972 525.087 774.46 523.249 774.368 C 502.026 773.903 480.796 773.749 459.568 773.908 C 452.517 773.965 441.966 777.609 437.883 771.839 C 437.718 767.626 437.214 768.904 439.069 765.967 C 444.707 763.158 651.668 763.043 680.235 762.531 z" fill="rgb(0,0,0)" transform="translate(0,0)"></path>
<path d="M 702.049 576.493 C 703.553 576.486 705.356 576.329 706.777 576.867 C 710.702 578.354 744.548 664.011 748.856 675.104 L 736.507 675.099 C 732.506 664.687 728.382 654.322 724.136 644.008 L 709.899 643.896 L 686.014 643.802 C 681.182 654.019 677.27 664.596 673.481 675.229 L 661.195 675.475 C 671.361 646.81 689.908 605.08 702.049 576.493 z" fill="rgb(0,0,0)" transform="translate(0,0)"></path>
<path d="M 704.736 595.774 C 707.401 598.912 717.974 627.742 720.046 633.203 L 707.437 633.224 L 689.298 633.172 C 694.952 621.29 699.881 608.075 704.736 595.774 z" fill="rgb(255,255,255)" transform="translate(0,0)"></path>
<path d="M 1310.65 761.463 C 1373.83 760.226 1434.83 762.337 1497.81 762.851 L 1584.42 763.395 C 1593.08 763.477 1610.31 760.328 1615.95 766.493 C 1616.45 769.236 1616.65 769.514 1615.65 771.985 C 1610.63 773.43 1601.76 772.819 1596.25 772.709 C 1512.72 771.894 1429.1 773.803 1345.54 769.434 C 1337.94 769.037 1294.37 768.723 1290.09 766.435 L 1289.92 765.084 C 1294.3 760.955 1304.39 761.669 1310.65 761.463 z" fill="rgb(0,0,0)" transform="translate(0,0)"></path>
<path d="M 1295.43 576.304 C 1301.85 577.912 1313.92 595.378 1318.31 600.902 L 1359.75 653.041 C 1358.8 634.839 1359.19 616.759 1358.82 598.551 C 1358.69 592.123 1357.37 585.985 1361.25 580.55 C 1364.97 578.378 1363.39 578.702 1367.31 578.849 C 1373.08 582.433 1368.5 660.292 1369.22 672.429 C 1369.35 674.741 1368.93 677.865 1368.01 680.016 C 1365.15 677.462 1356.67 666.59 1354.07 663.351 C 1343.81 650.591 1333.65 637.741 1323.61 624.803 C 1319.24 619.2 1310.53 607.413 1305.88 602.8 C 1305.85 627.369 1305.65 651.937 1305.28 676.503 L 1294.52 676.391 L 1294.81 613.005 C 1294.86 602.282 1294.51 586.612 1295.43 576.304 z" fill="rgb(0,0,0)" transform="translate(0,0)"></path>
<path d="M 1406.92 580.352 C 1415.05 580.561 1456.75 579.504 1459.77 582.737 C 1459.81 585.716 1460.29 588.64 1458.71 590.942 C 1452.63 592.155 1426.63 591.171 1418.42 591.036 L 1418.04 620.594 C 1430.57 620.849 1443.44 620.304 1455.92 621.009 C 1455.92 621.009 1458.2 622.675 1458.43 622.847 C 1459.47 625.101 1459.84 626.432 1459.43 628.918 C 1458.28 635.873 1425.2 627.921 1418.14 632.94 L 1417.97 637.75 L 1417.36 667.547 L 1435.17 667.362 C 1442.08 667.307 1455.55 666.054 1460.18 670.606 C 1459.98 674.212 1460.55 675.038 1458.71 677.598 C 1450.66 679.081 1415.75 678.005 1405.97 677.914 C 1406.11 645.997 1405.79 612.088 1406.92 580.352 z" fill="rgb(0,0,0)" transform="translate(0,0)"></path>
<path d="M 472.183 576.254 C 488.079 575.057 496.616 577.791 510.073 585.254 L 510.157 599.515 C 489.193 582.844 462.14 579.496 446.243 604.742 C 440.299 614.335 438.432 625.905 441.057 636.881 C 447.047 662.678 468.739 671.827 493.096 665.83 C 500.628 662.914 505.709 659.199 512.032 654.468 L 512.125 669.422 C 458.45 700.038 405.957 649.176 437.612 596.473 C 444.246 585.429 459.647 578.266 472.183 576.254 z" fill="rgb(0,0,0)" transform="translate(0,0)"></path>
<path d="M 1511.73 580.164 C 1525.96 579.306 1532.32 584.346 1541.62 593.973 L 1532.87 600.566 C 1518.89 581.752 1499.02 593.843 1501.18 602.959 C 1506.78 626.627 1564.9 639.295 1534.51 675.188 C 1529.48 681.127 1518.72 682.053 1510.66 681.827 C 1496.86 677.863 1493.4 673.919 1484.15 663.415 L 1490.76 655.909 C 1497.18 663.167 1507.99 675.049 1519.33 671.092 C 1534.8 665.693 1534.87 652.705 1523.37 642.184 C 1513.02 632.72 1495.47 623.289 1491.26 609.48 C 1489.55 603.853 1490.2 597.771 1493.06 592.632 C 1497.18 585.23 1504.09 582.32 1511.73 580.164 z" fill="rgb(0,0,0)" transform="translate(0,0)"></path>
<path d="M 798.414 575.331 C 810.345 575.743 816.831 579.945 825.225 587.94 L 817.63 595.183 C 812.153 590.542 808.723 586.692 801.085 585.848 C 794.909 584.196 785.281 591.137 786.573 597.581 C 790.804 618.672 827.614 625.44 826.744 650.517 C 826.096 669.196 812.051 677.232 794.317 676.953 C 781.913 674.684 777.014 669.686 769.979 659.959 L 777.707 652.793 C 785.723 664.546 801.841 675.858 812.211 659.223 C 826.558 636.21 778.069 624.233 776.106 602.562 C 774.641 586.388 782.424 577.739 798.414 575.331 z" fill="rgb(0,0,0)" transform="translate(0,0)"></path>
<path d="M 1167.54 577.154 C 1174.51 577.121 1213.86 576.447 1217.43 579.294 C 1217.64 582.284 1218.25 585.188 1216.92 587.697 C 1208.76 588.761 1187.78 587.957 1178.55 587.815 C 1178.63 597.208 1178.58 606.601 1178.38 615.993 C 1187.23 615.967 1208.33 614.767 1217.24 617.306 C 1218.28 617.602 1218.29 618.866 1218.63 620.182 C 1216.65 626.824 1216.62 626.029 1210.25 626.364 L 1178.12 626.28 C 1178.15 640.353 1178.22 654.762 1178.21 668.867 C 1178.2 671.531 1176.77 673.287 1174.86 674.988 C 1170.82 676.036 1172.44 676.11 1168.67 674.974 C 1165.62 670.363 1167.4 589.861 1167.54 577.154 z" fill="rgb(10,10,10)" transform="translate(0,0)"></path>
<path d="M 822.77 729.041 C 835.133 728.806 845.736 727.776 856.286 735.574 C 869.672 745.466 866.082 761.067 857.121 772.648 C 845.116 781.003 837.506 779.572 822.878 779.546 L 822.77 729.041 z" fill="rgb(0,0,0)" transform="translate(0,0)"></path>
<path d="M 828.501 734.043 C 837.237 733.787 843.8 733.257 851.196 738.766 C 862.26 747.007 859.744 759.461 852.629 769.259 C 844.943 775.316 837.945 774.546 828.618 774.462 C 828.721 761.065 828.554 747.459 828.501 734.043 z" fill="rgb(255,255,255)" transform="translate(0,0)"></path>
<path d="M 1567.39 583.306 C 1577.67 583.529 1622.42 583.045 1628.15 585.286 C 1629.32 589.296 1628.97 590.678 1626.2 593.362 C 1621.05 595.286 1609.96 594.164 1603.83 593.979 C 1603.86 615.394 1603.78 636.809 1603.6 658.223 L 1603.29 681.434 C 1601.13 681.761 1594.5 681.653 1591.97 681.667 C 1591.82 652.421 1592.11 623.174 1592.84 593.937 C 1584.16 593.657 1576.29 595.468 1568.9 591.959 C 1566.57 588.481 1567.39 588.318 1567.39 583.306 z" fill="rgb(0,0,0)" transform="translate(0,0)"></path>
<path d="M 853.826 576.891 C 861.345 576.866 910.956 575.61 913.362 578.541 C 913.685 581.555 914.131 583.324 913.223 586.22 C 908.061 587.363 896.204 586.855 890.367 586.773 L 890.47 652.25 C 890.338 659.55 892.477 668.776 888.427 673.672 C 885.221 675.506 884.343 675.328 880.794 675.2 C 877.679 671.921 879.332 596.875 879.481 586.77 C 870.435 586.449 862.573 588.499 855.258 585.456 C 852.995 582.027 853.804 581.805 853.826 576.891 z" fill="rgb(0,0,0)" transform="translate(0,0)"></path>
<path d="M 1047.66 576.483 L 1057.44 576.69 C 1056.42 604.087 1057.14 636.602 1057.06 664.409 C 1064.94 664.402 1088.7 663.925 1094.53 665.263 C 1095.73 667.914 1095.22 671.918 1095.12 675.012 L 1046.77 675.037 C 1046.71 661.369 1045.25 583.283 1047.66 576.483 z" fill="rgb(0,0,0)" transform="translate(0,0)"></path>
<path d="M 1247.84 578.109 L 1258.96 578.059 L 1258.1 676.328 C 1253.96 676.325 1252.09 676.457 1248.07 675.381 C 1246.25 671.984 1247.78 589.362 1247.84 578.109 z" fill="rgb(10,10,10)" transform="translate(0,0)"></path>
<path d="M 980.821 727.484 L 984.922 728.239 C 988.811 732.224 1005.18 773.343 1005.64 778.298 L 1003.62 779.523 C 995.48 775.32 1001.6 765.082 987.25 764.689 L 971.596 764.684 C 969.724 769.518 967.486 779.964 961.725 779.524 L 960.973 778.106 C 964.783 765.276 975.558 740.613 980.821 727.484 z" fill="rgb(0,0,0)" transform="translate(0,0)"></path>
<path d="M 982.612 736.541 C 985.885 739.021 992.991 755.062 990.114 759.397 L 985.47 759.567 L 973.788 759.367 C 976.85 752.119 979.784 743.949 982.612 736.541 z" fill="rgb(255,255,255)" transform="translate(0,0)"></path>
<path d="M 1112.35 727.337 C 1112.83 727.397 1113.31 727.455 1113.79 727.542 C 1120.18 728.708 1140.05 761.065 1145.01 768.373 C 1145.14 762.033 1143.53 731.725 1146.66 729.046 L 1149.54 729.278 L 1150.77 731.033 C 1150.3 740.779 1151.9 773.612 1149.91 780.863 C 1149.7 780.811 1149.49 780.77 1149.28 780.706 C 1148.96 780.605 1148.64 780.478 1148.32 780.368 C 1142.42 778.359 1123.08 746.578 1117.98 739.333 C 1117.97 746.441 1118.49 773.456 1117.83 778.275 C 1115.65 779.835 1116.61 779.432 1113.44 779.228 C 1110.47 775.276 1112.09 735.255 1112.35 727.337 z" fill="rgb(0,0,0)" transform="translate(0,0)"></path>
<path d="M 1188.26 727.223 C 1194.8 726.915 1204.78 728.58 1209.34 733.509 L 1209.17 735.211 C 1208.23 735.794 1207.19 736.448 1206.03 737.173 C 1198.7 733.794 1194.83 730.698 1186.36 733.679 C 1181.31 735.481 1177.2 739.231 1174.94 744.091 C 1164.92 765.253 1190.42 789.584 1204.46 767.185 C 1205.65 765.275 1204.05 762.215 1203.12 760.296 C 1199.44 757.946 1199.35 758.76 1194.22 758.724 C 1192.18 756.812 1192.71 757.929 1192.23 755.452 L 1193.53 753.979 C 1198.3 752.714 1204.73 753.055 1209.79 753.071 L 1209.82 774.876 C 1169.42 797.878 1146.51 741.963 1188.26 727.223 z" fill="rgb(0,0,0)" transform="translate(0,0)"></path>
<path d="M 880.125 728.891 C 888.916 728.656 902.263 727.703 910.02 731.271 L 909.989 732.726 C 903.65 735.305 892.916 734.679 885.977 734.542 L 886.001 749.825 C 891.943 749.711 905.261 747.88 908.417 752.842 L 907.801 755.211 C 902.865 756.623 893.282 755.622 886.997 756.149 L 885.96 756.24 L 886.003 774.15 C 895.178 774.037 900.558 773.458 909.417 775.943 L 909.645 776.997 C 903.027 780.443 888.145 779.494 880.204 779.334 L 880.125 728.891 z" fill="rgb(0,0,0)" transform="translate(0,0)"></path>
<path d="M 918.866 728.999 C 925.615 728.368 947.298 727.998 953.84 729.316 C 955.23 731.279 954.838 730.503 954.476 733.577 C 950.699 735.061 944.237 734.473 939.959 734.369 L 940.007 764.5 C 940.054 769.9 941.971 777.742 936.653 779.776 L 934.761 778.779 C 933.463 771.673 934.229 742.945 934.322 734.55 C 925.841 734.559 921.51 737.735 918.866 728.999 z" fill="rgb(0,0,0)" transform="translate(0,0)"></path>
<path d="M 1046.47 728.248 C 1049.07 728.317 1048.99 728.31 1051.43 729.191 C 1052.93 734.031 1052.29 767.148 1052.26 774.151 C 1059 774.33 1064.34 772.901 1070.92 774.578 C 1073.48 776.587 1072.68 775.675 1073.31 779.875 L 1046.47 779.757 C 1046.22 762.588 1046.22 745.417 1046.47 728.248 z" fill="rgb(0,0,0)" transform="translate(0,0)"></path>
<path d="M 1086.97 728.176 L 1091.54 728.908 C 1094.24 731.812 1093.07 773.038 1093.04 780.12 L 1088.53 779.633 C 1085.62 776.48 1086.95 735.156 1086.97 728.176 z" fill="rgb(0,0,0)" transform="translate(0,0)"></path>
<path d="M 1020.36 728.287 C 1023.69 728.922 1024.48 728.418 1026.1 730.605 C 1026.72 738.541 1026.84 773.119 1025.69 780.78 C 1024.05 780.268 1023.33 779.769 1021.88 778.921 C 1019.51 772.99 1020.33 737.198 1020.36 728.287 z" fill="rgb(0,0,0)" transform="translate(0,0)"></path>
<path d="M 1022.47 151.788 C 1023.82 151.634 1025.2 151.821 1026.46 152.332 C 1064.85 167.812 1110.07 188.894 1148.49 205.905 L 1342.68 290.495 C 1342.73 298.099 1343.1 313.904 1341.53 321.008 C 1336.86 342.062 1336.57 362.453 1334.08 383.617 C 1330.69 412.417 1323.32 441.254 1314.73 468.912 L 1302.72 467.97 C 1312.82 421.42 1320.25 355.095 1323.64 307.729 C 1287.04 293.508 1245.35 274.015 1209.17 258.18 C 1147.78 231.313 1085.2 205.031 1024.23 177.492 C 1012.21 182.182 997.133 189.426 984.989 194.785 L 914.825 225.535 L 726.124 307.675 C 729.351 365.235 734.136 415.365 748.054 471.487 L 732.6 470.12 C 723.064 438.758 717.205 400.912 713.362 368.35 C 712.39 360.125 712.584 350.685 711.567 342.804 C 709.168 324.222 706.965 309.303 706.903 290.31 C 713.637 286.696 726.198 281.527 733.509 278.291 L 795.576 251.436 C 869.103 219.345 950.694 185.74 1022.47 151.788 z" fill="rgb(255,255,255)" transform="translate(0,0)"></path>
<path d="M 1021.82 866.456 C 1031.73 865.893 1050.54 867.072 1061.4 867.419 C 1082.72 868.013 1104.05 868.496 1125.38 868.867 C 1108.39 896.861 1050.85 962.675 1026.64 983.987 C 1025.97 984.65 1024.79 985.362 1023.98 985.913 C 1020.8 984.53 1012.85 975.788 1009.91 972.724 C 979.018 940.294 950.577 905.61 924.826 868.96 C 955.945 869.275 990.482 867.512 1021.82 866.456 z" fill="rgb(255,255,255)" transform="translate(0,0)"></path>
<path d="M 288.483 867.559 C 296.661 867 306.237 867.065 314.538 866.933 L 314.429 868.025 C 311.197 898.608 298.545 942.68 261.211 937.067 C 253.24 936.192 220.252 940.068 215.04 936.09 C 189.679 916.731 174.217 922.514 142.999 918.727 C 115.616 914.757 109.44 896.322 100.509 873.078 L 288.483 867.559 z" fill="rgb(255,255,255)" transform="translate(0,0)"></path>
<path d="M 284.903 878.568 C 289.625 878.14 295.88 878.119 300.731 877.96 C 298.521 941.302 245.229 933.782 201.675 918.472 C 183.75 911.005 177.863 901.417 175.038 882.851 C 210.25 880.59 249.142 880.209 284.903 878.568 z" fill="rgb(0,0,0)" transform="translate(0,0)"></path>
<path d="M 1736.48 865.779 C 1752.36 866.268 1947.91 871.577 1950.04 872.854 C 1951.85 878.999 1941.11 894.601 1938.36 900.426 C 1936.24 904.905 1932.98 906.878 1928.77 909.128 C 1910.1 916.604 1886.82 917.255 1867.11 914.644 C 1860.86 920.034 1850.3 928.932 1841.69 930.389 C 1821.87 933.338 1798.74 932.617 1778.78 931.153 C 1747.9 928.889 1741.94 889.629 1736.48 865.779 z" fill="rgb(255,255,255)" transform="translate(0,0)"></path>
<path d="M 1751.72 875.933 C 1794.49 876.017 1837.59 877.761 1880.76 877.755 C 1875.03 892.516 1877.03 896.01 1863.72 906.582 C 1851.08 915.423 1838.49 919.624 1823.34 921.762 C 1780.92 927.749 1758.19 923.5 1751.72 875.933 z" fill="rgb(0,0,0)" transform="translate(0,0)"></path>
<path d="M 108.195 475.157 C 144.045 476.444 122.843 553.508 106.848 568.863 C 100.524 574.935 100.124 576.195 91.5141 578.902 C 58.8859 578.791 77.0783 518.629 83.9627 501.464 C 88.7901 489.427 95.99 479.917 108.195 475.157 z" fill="rgb(255,255,255)" transform="translate(0,0)"></path>
<path d="M 1936 474.061 C 1948.55 472.778 1957.26 479.872 1963.03 490.979 C 1973.57 511.238 1981.06 539.969 1976.76 562.676 C 1975.58 568.937 1971.35 572.322 1966.23 575.296 C 1954.54 575.853 1946.63 569.05 1940.52 559.52 C 1927.74 539.594 1912.2 490.173 1936 474.061 z" fill="rgb(255,255,255)" transform="translate(0,0)"></path>
<path d="M 1896.44 704.485 C 1930.85 703.496 1967.38 706.497 2003.35 705.789 C 2002.49 726.323 2001.08 737.514 1995.14 757.051 C 1963.17 756.987 1931.2 757.298 1899.23 757.984 C 1883.31 758.607 1867.37 758.979 1851.43 759.102 C 1827.73 759.373 1811.2 761.333 1793.14 743.681 C 1844.45 720.465 1829.3 706.759 1896.44 704.485 z" fill="rgb(0,0,0)" transform="translate(0,0)"></path>
<path d="M 112.269 711.537 C 144.096 710.08 188.875 707.592 216.268 724.475 C 232.357 734.392 241.256 742.788 259.901 751.271 C 236.595 765.152 224.51 765.229 198.138 764.173 C 152.123 762.91 106.093 762.251 60.0606 762.198 C 52.7649 743.063 50.7065 732.958 49.7578 712.617 C 70.0882 711.854 91.8188 711.881 112.269 711.537 z" fill="rgb(0,0,0)" transform="translate(0,0)"></path>
<metadata><recraft-signature>{"signed_by": "recraft", "signature_b64": "eHEEbiinI3MurM73EpSqGKDUvt2pavcivqehWqCj7biKBBeOjBE8cXRyM4b3aU6e16Xm02VWS8gpnQ5glko9BA==", "signing_algo": "Ed25519", "generation_timestamp": 1778258819, "identifier": "da855593-3ee2-4280-baf2-708d455d71c2"}</recraft-signature></metadata></svg>