<svg xmlns="http://www.w3.org/2000/svg" height="1024" preserveAspectRatio="none" style="display: block;" version="1.1" viewBox="0 0 2048 1152" width="1820">
<defs>
	<linearGradient gradientUnits="userSpaceOnUse" id="Gradient1" x1="1525.49" x2="1525.67" y1="91.8518" y2="95.9716">
		<stop class="stop0" offset="0" stop-color="rgb(54,53,53)" stop-opacity="1"></stop>
		<stop class="stop1" offset="1" stop-color="rgb(85,84,84)" stop-opacity="1"></stop>
	</linearGradient>
</defs>
<path d="M 0 0 L 2048 0 L 2048 1152 L 0 1152 L 0 0 z" fill="rgb(254,254,254)" transform="translate(0,0)"></path>
<path d="M 1077.73 90.4677 C 1122.02 89.5558 1165.15 89.8654 1209.29 89.5995 L 1476.74 89.4154 C 1536.13 89.8167 1600.91 92.3481 1660.13 90.8212 C 1688.66 90.8256 1717.19 91.0182 1745.72 91.399 L 1762.4 91.4077 C 1774.65 91.3844 1844.46 89.7643 1851.27 92.3753 C 1858.21 97.5659 1866.72 102.806 1874.03 107.579 C 1915.84 134.889 1945.6 179.117 1937.54 231.119 C 1931.74 268.456 1922.17 308.039 1913.45 346.248 L 1875.33 512.591 L 1834.81 685.388 C 1822.28 738.711 1814.36 796.425 1781.53 841.725 C 1779.58 844.414 1772.54 852.723 1769.95 854.114 C 1758.87 867.893 1733.35 885.012 1718.43 894.636 C 1676.01 920.748 1625.66 933.793 1578.13 950.043 L 1374.56 1018.88 L 1164.5 1090.85 C 1137.74 1099.88 1111.37 1109.61 1084.43 1118.1 C 1064.26 1124.45 1047.76 1129.12 1026.63 1121.9 C 1020.12 1121.2 988.922 1112.07 982.246 1109.58 C 963.506 1106.02 921.031 1092.12 900.7 1086.43 L 691.867 1026.08 L 509.925 972.382 C 483.641 964.726 457.443 956.779 431.337 948.542 C 392.375 936.404 369.934 929.904 335.144 906.633 L 331.034 903.689 C 319.613 897.497 306.434 884.183 297.022 875.145 C 257.367 837.065 243.103 788.628 231.893 736.526 L 231.091 732.472 C 227.601 722.258 223.049 700.599 219.849 688.726 C 217.337 679.401 214.967 670.039 212.74 660.642 L 211.437 656.11 C 185.033 553.002 156.936 450.266 133.209 346.505 C 123.547 304.255 107.933 259.699 110.106 216.072 C 111.673 184.621 127.818 159.898 150.582 139.297 C 164.119 127.046 181.223 110.939 198.772 105.099 C 208.863 101.741 341.517 100.015 358.375 100.814 C 514.565 96.6043 670.794 94.0097 827.038 93.0306 C 865.698 93.4162 905.597 91.9813 944.608 91.9884 L 958.194 91.8032 C 962.171 91.7732 974.365 91.4382 977.692 91.8296 C 987.264 90.8358 1003.51 91.1945 1013.49 91.0877 C 1034.9 90.7597 1056.32 90.5531 1077.73 90.4677 z" fill="rgb(43,43,43)" transform="translate(0,0)"></path>
<path d="M 1147.67 105.997 C 1283.98 107.741 1422.09 104.938 1558.7 106.314 L 1739.89 107.988 C 1767.85 108.256 1815.64 109.958 1842.46 107.788 C 1849.54 111.338 1855.94 116.861 1862.26 121.627 C 1883.15 137.37 1900.92 155.597 1909.35 180.93 C 1919.77 212.214 1909.87 246.203 1903.15 277.388 L 1887.33 349.584 L 1829.79 595.39 C 1819.49 638.613 1810.56 682.049 1800.28 725.263 C 1794.66 748.876 1789.9 770.762 1781.51 793.71 C 1747.91 885.631 1648.45 908.031 1566.43 936.255 C 1475.2 966.721 1384.14 997.688 1293.25 1029.15 L 1210.33 1057.51 C 1202.48 1060.22 1180.28 1067.27 1173.61 1070.28 C 1149.87 1077.42 1126.36 1086.69 1102.76 1094.47 C 1080.8 1101.71 1058.68 1111.73 1034.93 1106.74 C 1016.12 1102.7 997.841 1095.99 979.164 1091.36 C 975.678 1090.49 966.423 1087.66 963.295 1087.29 C 953.999 1083.36 934.281 1077.93 924.039 1075.53 C 894.087 1066.01 863.305 1058.28 833.297 1048.85 C 824.242 1046.01 814.639 1043.09 805.393 1041.14 C 715.225 1013.35 623.9 987.81 533.483 960.68 L 460.05 938.242 C 413.34 923.92 374.463 912.228 335.045 880.998 C 294.491 848.867 283.419 820.456 270.431 772.907 C 264.739 752.171 259.258 731.377 253.991 710.528 L 208.481 532.365 C 191.134 466.148 174.561 399.73 158.765 333.125 C 150.266 297.892 141.258 264.368 135.685 226.064 C 129.187 181.408 177.305 140.092 212.048 121.603 C 218.168 118.346 264.66 119.129 275.223 118.885 L 426.312 115.368 C 447.755 114.847 482.026 115.187 502.357 113.122 C 515.666 113.423 533.061 113.378 546.314 112.772 C 557.572 113.601 575.354 112.53 586.927 112.289 L 663.01 110.965 L 773.362 109.81 C 794.37 109.689 821.549 110.665 842.162 109.128 C 848.105 110.467 886.124 108.738 895.108 108.783 C 979.196 109.205 1063.56 106.479 1147.67 105.997 z" fill="rgb(254,254,254)" transform="translate(0,0)"></path>
<path d="M 926.896 150.879 C 933.907 149.739 959.685 150.026 968.276 149.968 L 1038.94 148.966 C 1144.43 147.412 1249.92 147.089 1355.42 147.995 C 1368.39 147.673 1416.69 146.74 1427.66 148.109 C 1455.49 147.305 1484.96 147.83 1512.9 147.923 C 1573.12 147.929 1633.34 148.397 1693.55 149.325 L 1781.45 149.538 C 1808.82 149.716 1831.82 145.768 1853.53 166.143 C 1855.18 167.704 1856.79 169.307 1858.36 170.953 C 1870.03 186.041 1875.94 199.652 1872.69 219.198 C 1869.41 238.884 1864.86 260.231 1860.66 279.788 C 1852.95 316.196 1844.76 352.5 1836.08 388.689 L 1785.34 605.58 L 1756.62 727.13 C 1749.56 755.799 1744.38 786.272 1726.15 810.245 C 1715.46 824.302 1700.49 839.152 1684.91 847.646 L 1683.63 848.384 C 1655 869.013 1603.52 881.947 1569.04 894.014 C 1543.03 903.205 1516.94 912.174 1490.78 920.92 C 1477.5 925.399 1459.5 931.922 1446.06 935.379 L 1439.44 937.782 C 1416.85 946.614 1392.8 953.404 1369.9 961.544 C 1365.76 963.015 1361.02 964.644 1356.77 965.734 C 1350.13 970.168 1286.39 990.091 1274.63 994.089 L 1133.16 1042.05 C 1109.92 1049.87 1068.71 1066.42 1044.5 1068.26 C 1036.72 1068.85 1002.61 1058.23 992.731 1055.45 L 883.506 1024.04 C 782.892 995.312 682.431 966.049 582.126 936.255 C 546.912 926.084 511.827 915.473 476.878 904.427 C 431.777 890.493 381.032 876.579 346.653 842.152 C 340.915 837.371 336.262 831.146 332.182 824.93 C 314.17 797.49 294.867 708.357 285.761 671.94 L 255.2 551.246 C 236.016 478.539 217.577 405.636 199.886 332.551 C 194.354 309.934 188.694 287.353 183.146 264.742 C 178.816 247.095 172.73 228.972 176.48 210.772 C 176.663 197.871 189.317 183.485 198.335 175.251 C 199.471 173.947 203.515 170.989 205.079 169.782 C 212.301 165.484 220.254 161.229 228.82 161.318 C 238.864 159.619 265.198 159.829 276.559 159.675 L 360.39 158.234 L 547.001 154.988 C 579.984 154.399 617.725 152.657 650.291 153.334 C 664.827 153.028 699.694 151.469 712.273 152.851 C 739.599 151.526 770.446 151.73 797.954 151.532 C 834.324 150.554 872.204 150.907 908.651 151.108 C 913.052 151.017 922.932 150.578 926.896 150.879 z" fill="rgb(43,43,43)" transform="translate(0,0)"></path>
<path d="M 762.588 165.058 C 774.227 165.813 791.355 164.995 803.193 164.758 L 865.584 163.934 L 1106.53 161.091 C 1207.52 160.233 1308.52 160.511 1409.5 161.926 L 1568.06 161.314 C 1578.89 161.638 1589.72 161.789 1600.55 161.768 C 1656.68 163.155 1713.74 162.401 1769.92 163.048 C 1786.73 163.242 1806.69 162.118 1823.12 164.368 C 1830.93 165.438 1838.65 172.601 1844.28 177.972 C 1852.83 186.753 1858.98 198.169 1858.15 210.479 C 1856.38 236.631 1848.59 267.4 1843.04 293.43 C 1837.19 320.533 1831.14 347.593 1824.88 374.606 C 1819.58 398.276 1813.66 426.109 1806.48 449.194 C 1625.55 445.57 1445.07 451.556 1264.43 451.171 C 1249.43 451.495 1220.66 450.998 1207.64 452.165 C 1175.98 451.828 1143.35 452.867 1111.58 452.882 C 1099.37 452.888 1064.9 452.389 1053.97 453.881 C 1043.49 453.427 1032.05 453.388 1021.57 453.794 C 966.763 455.914 910.334 453.131 855.743 456.018 C 836.535 454.505 802.668 455.964 782.196 456.035 L 625.166 457.104 C 607.844 457.15 589.276 457.92 572.146 457.523 C 529.092 457.216 484.521 458.8 441.263 458.838 C 428.768 458.849 396.307 458.087 384.904 459.486 C 375.967 460.241 352.588 459.678 342.417 459.793 L 246.771 460.915 L 244.086 449.037 C 228.855 397.377 218.091 341.926 204.772 289.529 C 199.582 269.11 193.484 247.945 190.535 226.873 C 187.782 207.207 204.47 181.987 224.296 177.248 C 247.264 173.167 276.081 174.864 299.495 173.785 C 353.68 171.286 408.375 171.634 462.476 169.448 C 507.271 166.869 557.583 169.957 602.336 166.806 C 618.452 168.211 651.634 166.167 669.738 166.07 L 723.991 165.737 C 735.231 165.754 752.193 166.33 762.588 165.058 z" fill="rgb(254,254,254)" transform="translate(0,0)"></path>
<path d="M 549.371 271.427 C 560.468 263.962 577.178 265.013 589.728 267.403 C 617.362 273.981 632.697 302.241 628.353 329.281 C 626.006 342.098 623.442 353.903 614.01 363.669 L 609.03 368.032 C 587.522 391.119 540.656 384.746 525.162 357.764 C 518.546 346.242 517.52 336.517 516.888 323.75 C 519.277 301.379 527.405 281.19 549.371 271.427 z" fill="rgb(43,43,43)" transform="translate(0,0)"></path>
<path d="M 567.768 280.239 C 607.872 279.208 622.491 313.411 606.777 348.381 C 601.639 359.815 590.828 364.048 579.46 367.279 C 568.397 367.764 561.367 368.493 551.175 362.31 C 529.586 349.211 527.602 316.928 540.186 297.059 C 546.656 286.845 556.288 282.547 567.768 280.239 z" fill="rgb(254,254,254)" transform="translate(0,0)"></path>
<path d="M 553.372 368.325 C 568.017 374.558 571.76 369.622 581.887 373.05 C 585.992 373.832 584.555 373.777 588.778 371.838 C 589.867 373.991 589.824 374.182 590.059 376.627 C 582.216 377.191 571.165 378.52 563.231 376.223 C 558.785 374.935 560.199 374.242 554.912 375.116 C 552.212 372.465 552.671 371.536 553.372 368.325 z" fill="rgb(33,33,33)" transform="translate(0,0)"></path>
<path d="M 1318.5 375.091 C 1315.54 374.496 1313.92 374.419 1311.63 372.373 C 1307.07 354.534 1312.6 306.585 1309.77 285.533 C 1308.38 275.236 1307.39 263.571 1317.9 259.051 C 1321.47 259.628 1326.1 264.426 1328.37 267.142 C 1346.79 289.168 1371.79 328.29 1391.87 346.912 C 1392.17 333.098 1392.12 319.28 1391.72 305.469 C 1391.47 298.396 1389.5 267.605 1390.41 262.926 C 1393.46 259.335 1399.87 258.601 1403.79 261.078 C 1407.52 265.262 1406.53 270.708 1406.5 275.973 C 1406.3 306.637 1406.33 337.495 1407.88 368.103 C 1408.4 378.349 1394.93 375.097 1390.39 369.859 C 1387.71 366.764 1384.61 363.56 1382.25 360.045 C 1364.09 336.945 1345.84 313.647 1327.2 290.996 C 1326.68 290.364 1324.74 290.792 1323.76 290.867 C 1324.13 301.582 1327.28 364.334 1325.28 372.176 C 1322.52 374.119 1321.79 374.224 1318.5 375.091 z" fill="rgb(43,43,43)" transform="translate(0,0)"></path>
<path d="M 1316.18 357.352 C 1316.53 354.519 1316.66 353.638 1317.58 350.942 L 1319.63 350.118 C 1321.88 354.658 1321.86 352.999 1320.95 357.47 L 1316.18 357.352 z" fill="rgb(33,33,33)" transform="translate(0,0)"></path>
<path d="M 924.52 359.277 C 932.39 331.58 947.509 299.433 957.631 271.971 C 961.158 262.401 973.563 255.809 979.388 267.885 C 985.881 281.345 991.004 297.075 997.148 310.812 C 1000.88 322.83 1020.84 360.827 1020.92 371.018 C 1017.35 375.875 1013.46 375.648 1008.16 373.273 L 1007.22 372.134 C 1003.89 368.586 995.937 346.653 994.521 344.972 C 988.767 338.148 959.455 342.508 949.184 340.892 L 948.348 340.753 L 946.092 342.985 C 940.221 355.417 939.348 374.592 924.848 375.565 C 921.029 374.74 920.408 374.424 919.055 371.096 C 918.997 366.561 921.775 362.788 924.52 359.277 z" fill="rgb(43,43,43)" transform="translate(0,0)"></path>
<path d="M 962.724 302.157 L 968.699 288.698 C 974.815 297.696 974.818 300.539 979.529 309.165 C 982.756 315.99 984.27 320.06 986.663 327.237 C 978.3 327.131 959.031 330.672 955.182 324.039 C 954.899 317.501 959.904 308.419 962.724 302.157 z" fill="rgb(254,254,254)" transform="translate(0,0)"></path>
<path d="M 956.688 332.268 C 960.542 332.247 970.315 331.567 973.189 333.418 C 972.679 334.183 966.539 338.036 965.989 338.243 C 961.536 337.363 957.667 336.714 953.26 335.467 L 952.739 334.413 L 956.688 332.268 z" fill="rgb(33,33,33)" transform="translate(0,0)"></path>
<path d="M 648.36 366.952 C 659.105 339.687 671.207 313.178 681.737 285.829 C 684.306 279.472 687.73 269.705 694.158 266.458 C 699.713 263.652 706.119 272.589 707.769 276.877 C 720.208 309.187 733.946 340.517 747.621 372.265 C 746.975 376.518 745.457 376.653 741.181 377.864 C 737.498 378.121 736.104 378.417 732.553 377.077 C 730.057 367.93 723.259 353.737 719.052 344.968 C 705.475 344.442 690.826 346.429 675.991 345.809 L 675.204 345.892 C 664.322 354.525 667.032 378.102 652.869 380.436 C 648.85 381.098 645.861 377.46 644.943 373.722 C 645.972 370.439 646.122 369.691 648.36 366.952 z" fill="rgb(43,43,43)" transform="translate(0,0)"></path>
<path d="M 695.328 292.215 C 702.821 296.32 711.014 322.506 714.388 331.604 C 709.412 331.791 704.049 331.738 699.037 331.785 C 692.893 331.392 686.093 331.516 679.89 331.493 C 682.744 320.567 690.678 303.218 695.328 292.215 z" fill="rgb(254,254,254)" transform="translate(0,0)"></path>
<path d="M 419.1 292.383 C 419.205 292.227 419.31 292.071 419.416 291.915 C 428.449 278.942 442.361 270.189 457.967 267.661 C 468.236 265.991 484.417 267.313 493.07 273.543 C 498.494 276.532 501.074 280.02 504.826 284.93 C 502.52 287.831 500.256 290.87 497.59 293.431 C 487.763 287.393 479.922 282.45 468.087 281.925 C 407.662 279.244 412.103 381.64 473.948 368.726 C 481.057 367.241 491.54 360.166 497.88 356.296 C 500.705 358.067 503.229 359.251 504.585 362.31 C 506.529 375.27 480.564 382.746 471.137 383.819 C 438.743 387.507 412.533 367.404 409.198 334.716 C 407.797 320.567 410.413 303.989 419.1 292.383 z" fill="rgb(43,43,43)" transform="translate(0,0)"></path>
<path d="M 1445.13 374.198 C 1442.99 372.542 1441.91 371.178 1442.22 368.288 C 1443.8 353.66 1436.87 271.885 1440.99 263.556 C 1450.38 256.92 1483.06 262.357 1495.37 261.487 C 1496.94 261.377 1500.25 263.091 1501.61 263.991 C 1503.45 267.196 1502.29 271.209 1499.22 272.894 C 1490.09 277.923 1462.25 268.652 1455.36 275.725 C 1454.1 281.667 1455.02 304.609 1455.94 311.007 C 1464.85 311.072 1496.22 309.381 1500.32 313.105 C 1502.18 316.718 1501.84 315.117 1501.61 319.172 C 1496.54 327.566 1465.4 323.722 1455.69 323.95 C 1456.04 336.393 1456.15 348.841 1456.04 361.288 C 1466.26 362.21 1475.74 361.571 1485.91 361.789 C 1493.5 361.953 1508.51 358.992 1507.94 370.025 C 1502.68 378.039 1481.4 375.327 1472.54 375.388 C 1468.26 375.417 1448.99 375.333 1446.1 374.216 L 1445.13 374.198 z" fill="rgb(43,43,43)" transform="translate(0,0)"></path>
<path d="M 766.103 354.13 C 779.178 353.987 791.754 374.342 808.481 357.674 C 810.749 355.414 812.373 352.515 812.304 349.238 C 812.177 343.26 806.961 337.833 802.708 334.193 C 788.958 322.421 762.459 313.683 760.983 292.661 C 760.471 285.364 764.005 278.908 768.793 273.653 C 774.253 267.661 782.33 263.427 790.54 263.208 C 798.602 262.993 813.82 266.183 819.742 271.993 C 821.425 273.645 822.101 275.924 821.891 278.236 C 821.684 280.515 820.947 281.8 819.379 283.406 C 809.282 287.814 787.951 268.809 779.663 284.173 C 778.335 287.109 777.973 292.808 779.606 295.456 C 792.918 317.04 838.056 323.669 826.582 357.558 C 819.957 377.124 793.237 382.463 776.153 374.784 C 771.402 372.649 763.252 368.657 760.44 364.363 L 760.031 361.948 C 761.551 359.579 764.273 356.404 766.103 354.13 z" fill="rgb(43,43,43)" transform="translate(0,0)"></path>
<path d="M 1550.01 259.305 C 1564.6 260.457 1573.26 263.802 1582.8 274.752 C 1580.48 277.398 1576.25 281.134 1573.55 283.657 C 1565.75 278.636 1541.43 258.895 1536.23 287.242 C 1534.81 294.933 1552.05 305.877 1558.6 310.61 C 1569.4 318.403 1586.44 330.471 1587.2 345.707 C 1587.05 366.174 1571.55 375.634 1553.51 376.199 C 1538.92 372.878 1531.36 367.133 1521.32 356.578 C 1527.21 349.27 1530.28 346.973 1539.26 354.951 C 1553.58 367.655 1570.77 365.561 1571.67 344.219 C 1570.27 334.268 1549.73 320.971 1542.28 316.514 C 1512.85 298.917 1511.7 264.702 1550.01 259.305 z" fill="rgb(43,43,43)" transform="translate(0,0)"></path>
<path d="M 1184.44 368.647 L 1182.52 372.182 C 1179.16 375.511 1171.63 374.827 1168.01 371.798 C 1167.3 368.776 1167.59 339.66 1167.76 335.137 C 1168.56 313.148 1165.25 284.104 1168.12 262.981 C 1174.53 258.158 1189.2 259.815 1197.68 259.951 C 1205.81 259.741 1235.78 255.958 1227.16 271.314 C 1220.7 276.118 1192.9 271.844 1183.03 273.631 L 1182.94 282.629 C 1182.97 288.511 1182.72 300.701 1183.32 306.058 C 1190.69 305.645 1218.33 303.624 1222.9 307.926 C 1225.12 310.01 1225.11 311.949 1225.02 314.716 C 1217.49 324.403 1195.41 314.568 1184.63 320.605 C 1181.72 324.553 1183.13 362.589 1184.44 368.647 z" fill="rgb(43,43,43)" transform="translate(0,0)"></path>
<path d="M 1194.35 266.433 C 1196.63 265.966 1197.17 265.912 1199.49 265.877 L 1199.44 267.703 L 1195.48 267.653 L 1194.35 266.433 z" fill="rgb(33,33,33)" transform="translate(0,0)"></path>
<path d="M 1635.93 275.673 C 1628.27 275.153 1587.15 279.845 1598.53 263.807 C 1605.04 260.007 1626.31 262.024 1635.38 262.288 C 1645.3 262.367 1655.21 262.526 1665.12 262.762 C 1671.64 262.54 1683.13 260.955 1688.15 265.151 L 1687.35 274.252 C 1680.11 279.371 1651.38 271.572 1651.01 279.6 C 1649.63 309.795 1655.59 343.344 1652.49 373.432 C 1652.18 376.466 1643.81 377.953 1640.01 375.597 C 1638.7 374.085 1637.52 371.815 1637.56 369.774 C 1638.2 338.387 1635.35 307.133 1635.93 275.673 z" fill="rgb(43,43,43)" transform="translate(0,0)"></path>
<path d="M 1644.11 289.711 C 1647 292.407 1646.1 297.549 1646.13 301.477 C 1643.56 298.572 1644.01 293.415 1644.11 289.711 z" fill="rgb(105,103,105)" transform="translate(0,0)"></path>
<path d="M 844.691 277.052 C 842.042 275.635 840.313 274.444 839.228 271.662 C 839.74 269.937 839.952 268.41 841.867 267.593 C 854.122 262.362 914.321 263.043 924.319 265.258 L 926.092 268.418 C 926 274.915 922.134 276.101 916.309 276.295 C 907.577 276.547 899.368 276.729 890.676 277.602 C 890.532 290.928 893.253 365.438 891.238 372.352 C 887.176 375.869 880.642 376.668 875.989 374.002 C 873.689 369.634 877.478 309.504 875.574 296.955 C 874.451 291.016 875.031 284.209 875.463 278.184 C 868.043 278.215 851.249 278.81 844.691 277.052 z" fill="rgb(43,43,43)" transform="translate(0,0)"></path>
<path d="M 1075.63 373.825 C 1068.18 374.076 1047.76 375.867 1042.2 372.161 C 1036.95 361.179 1040.82 293.189 1038.66 277.366 C 1037.08 265.866 1038.81 257.391 1053.11 261.789 C 1054.52 265.325 1054.45 315.925 1054.12 323.588 C 1055.5 334.591 1054.74 348.351 1055.35 359.891 L 1086.29 360.918 C 1091.83 359.888 1093.76 359.099 1098.43 361.872 C 1100.06 365.215 1099.83 363.744 1099.3 367.426 C 1094.45 375.171 1083.84 374.87 1075.63 373.825 z" fill="rgb(43,43,43)" transform="translate(0,0)"></path>
<path d="M 1048.38 361.317 C 1050.41 362.238 1053.74 364.389 1055.77 365.609 L 1054.06 365.917 C 1052.25 366.412 1050.46 366.951 1048.67 367.534 C 1047.34 365.668 1048.08 364.16 1048.38 361.317 z" fill="rgb(33,33,33)" transform="translate(0,0)"></path>
<path d="M 1255.91 260.188 L 1268.8 260.627 C 1269 295.701 1270.61 330.098 1271.85 365.097 C 1271.97 368.288 1272.02 371.159 1269.75 373.545 C 1264.03 373.961 1261.56 373.56 1255.8 372.797 C 1255.93 367.009 1255.78 361.151 1255.7 355.335 C 1255.27 325.104 1253.66 294.813 1253.87 264.592 C 1253.88 263.196 1255.1 261.265 1255.91 260.188 z" fill="rgb(43,43,43)" transform="translate(0,0)"></path>
<path d="M 712.273 152.851 C 739.599 151.526 770.446 151.73 797.954 151.532 L 799.297 154.562 L 798.2 156.012 C 791.777 156.885 788.488 154.533 784.428 156.215 C 788.422 158.665 813.346 155.798 818.073 159.953 C 801.917 163.447 794.777 160.586 779.28 160.183 C 773.333 160.029 745.928 161.508 740.441 162.734 C 737.95 162.64 737.368 162.45 735.016 161.887 C 729.674 160.607 723.322 162.012 717.801 162.219 C 694.342 163.1 670.533 163.682 647.072 163.867 C 633.84 163.971 614.533 162.441 602.336 166.806 C 557.583 169.957 507.271 166.869 462.476 169.448 C 450.584 163.7 453.844 163.604 440.101 166.087 C 414.457 170.719 387.76 165.218 361.7 168.681 C 354.326 169.753 344.759 168.63 337.578 169.388 C 306.554 172.666 242.772 165.669 215.71 175.324 L 214.412 174.631 C 215.664 171.257 220.176 168.992 222.641 166.652 C 223.178 166.142 225.505 168.795 228.193 167.479 C 225.971 166.133 224.822 165.473 222.418 164.463 L 221.855 164.231 C 223.718 163.481 226.144 163.279 228.197 162.966 L 228.82 161.318 C 238.864 159.619 265.198 159.829 276.559 159.675 L 360.39 158.234 L 547.001 154.988 C 579.984 154.399 617.725 152.657 650.291 153.334 C 664.827 153.028 699.694 151.469 712.273 152.851 z" fill="rgb(33,33,33)" transform="translate(0,0)"></path>
<path d="M 650.291 153.334 C 664.827 153.028 699.694 151.469 712.273 152.851 C 704.028 153.482 693.331 156.403 685.375 156.486 C 680.276 156.54 652.66 154.868 650.291 153.334 z" fill="rgb(43,43,43)" transform="translate(0,0)"></path>
<path d="M 908.651 151.108 C 913.052 151.017 922.932 150.578 926.896 150.879 C 940.501 153.322 962.368 150.23 976.817 152.546 C 979.415 153 987.46 151.453 989.532 151.992 C 1001.15 155.016 1012.65 154.84 1024.11 156.312 L 1023.58 157.289 C 1006.79 161.041 967.772 158.885 949.659 158.413 C 938.032 158.11 903.048 161.154 893.846 159.138 L 894.736 156.773 C 900.293 154.842 903.205 153.08 908.651 151.108 z" fill="rgb(33,33,33)" transform="translate(0,0)"></path>
<path d="M 1713.33 695.099 C 1723.94 694.94 1738.93 694.389 1749.18 695.201 C 1732.86 757.515 1736.82 801.493 1673.82 839.203 C 1641.53 858.528 1607.82 867.575 1571.98 879.615 L 1437.06 924.911 C 1413.86 932.625 1378.43 943.34 1356.89 952.342 C 1332.78 959.43 1302.91 970.496 1278.56 978.836 C 1225.46 997.378 1172.18 1015.43 1118.74 1033 C 1096.13 1040.38 1071.97 1051.09 1048.46 1054.14 C 1035.88 1055.77 1020.2 1047.8 1009.24 1046.98 C 1005.75 1044.47 840.922 997.671 824.248 993.29 C 806.867 986.749 769.485 977.493 749.625 971.822 C 746.561 970.442 743.518 969.96 740.233 969.277 C 734.583 966.939 721.354 963.468 714.96 961.612 C 699.947 957.324 684.998 952.813 670.119 948.082 C 625.225 935.404 580.464 922.263 535.842 908.66 L 469.955 888.5 C 439.558 879.192 419.79 872.47 391.005 858.529 C 359.102 838.133 340.924 822.618 329.82 785.065 C 326.98 775.46 324.204 760.917 320.828 752.139 L 320.48 751.25 C 319.682 743.21 311.965 713.864 309.805 705.086 C 457.787 701.035 606.777 702.913 754.822 700.889 L 889.326 700.235 C 915.519 699.471 944.721 700.005 971.096 699.885 C 1039.62 699.701 1108.14 699.002 1176.65 697.787 C 1183.5 698.526 1202.31 698.001 1209.98 697.96 C 1233.44 697.905 1256.9 697.556 1280.35 696.912 C 1293.44 697.352 1307.91 697.465 1320.97 696.873 C 1381.77 694.116 1444.5 698.383 1505.12 695.072 C 1520.03 696.217 1538.8 695.038 1554.07 695.308 L 1713.33 695.099 z" fill="rgb(254,254,254)" transform="translate(0,0)"></path>
<path d="M 554.582 780.981 C 558.173 785.875 560.766 791.428 562.214 797.322 C 569.674 827.07 556.579 859.254 525.501 865.155 C 511.254 867.861 467.616 872.41 456.507 865.626 C 454.24 857.614 456.076 828.896 456.093 818.943 C 456.113 806.661 452.156 769.896 455.927 760.102 C 461.777 756.046 499.011 756.942 507.318 757.773 C 524.109 757.776 545.539 766.163 554.582 780.981 z" fill="rgb(43,43,43)" transform="translate(0,0)"></path>
<path d="M 474.733 796.18 C 475.232 789.37 473.132 778.395 476.974 774.337 C 486.617 770.66 511.966 774.201 522.469 776.992 L 523.031 777.417 C 526.9 780.295 530.375 781.507 533.664 784.7 C 535.563 786.544 539.13 793.652 540.426 794.909 C 547.557 821.457 543.335 844.038 513.157 851.96 C 501.82 854.936 488.236 854.034 476.481 854.023 C 474.875 841.214 474.697 809.567 474.733 796.18 z" fill="rgb(254,254,254)" transform="translate(0,0)"></path>
<path d="M 1426.93 829.809 C 1428.78 831.062 1428.85 830.997 1431.04 831.643 C 1440.47 825.572 1428.25 764.228 1433.96 756.044 C 1437.99 754.33 1444.89 753.859 1449.07 755.01 C 1450.76 756.7 1452.04 757.796 1452.01 760.518 C 1451.59 790.68 1453.4 820.8 1454.28 850.92 C 1454.72 856.106 1449.77 866.916 1443.41 865.233 C 1428.09 861.178 1404.39 830.827 1394.14 819.14 C 1386.41 812.582 1377.6 798.12 1368.22 793.179 L 1366.24 793.393 C 1361.19 801.932 1368.01 850.887 1365.07 862.962 C 1364.12 866.83 1353.9 868.576 1350.58 866.783 C 1344.16 860.963 1347.07 839.694 1347.27 830.736 C 1347.5 820.446 1343.56 763.007 1347.32 757.66 C 1350.53 755.016 1355.2 755.005 1359.42 754.308 C 1367.79 760.173 1387.41 784.429 1394.69 793.034 C 1405.31 805.401 1416.06 817.66 1426.93 829.809 z" fill="rgb(43,43,43)" transform="translate(0,0)"></path>
<path d="M 1519.31 841.12 C 1518.36 840.497 1516.03 837.299 1515.53 836.317 C 1480.61 767.376 1557.62 734.089 1611.49 760.927 C 1621.28 765.807 1621.12 774.672 1610.95 778.381 C 1604.93 780.577 1599.65 775.153 1594.6 772.695 C 1582.18 766.825 1567.5 766.39 1554.46 770.15 C 1541.8 774.08 1535.29 779.826 1529.14 790.999 C 1527.05 805.228 1526.75 817.934 1536.02 830.468 C 1540.87 836.979 1548.11 841.289 1556.15 842.444 C 1559.3 842.874 1569.85 843.281 1571.84 843.905 C 1576.56 842.816 1580.98 841.695 1585.82 841.192 C 1595.99 838.328 1601.19 835.119 1602.12 823.533 C 1598.35 813.418 1583.37 822.336 1576.08 816.517 C 1570.48 812.041 1575.73 801.092 1581.86 801.332 C 1593.1 801.772 1604.05 801.162 1615.28 800.648 L 1617.5 800.942 C 1618.77 801.562 1620.71 802.251 1620.85 803.803 C 1621.81 814.905 1621.77 831.61 1622.12 842.478 C 1616.67 847.232 1614.94 848.366 1608.8 851.992 C 1604.77 854.061 1595.89 858.264 1591.44 858.886 C 1569.35 867.023 1532.55 862.256 1519.31 841.12 z" fill="rgb(43,43,43)" transform="translate(0,0)"></path>
<path d="M 928.906 764.166 C 932.634 760.393 935.294 759.298 940.652 758.938 C 947.209 758.498 952.079 770.874 954.431 775.927 C 966.313 801.45 980.253 825.871 992.453 851.223 C 996.299 859.198 1000.77 857.917 1001.14 869.067 C 996.867 876.96 980.62 874.147 976.803 864.813 C 974.151 858.328 970.38 850.518 966.68 844.634 C 955.938 843.022 922.397 839.94 911.971 845.695 C 910.379 846.573 908.65 850.265 907.765 852.074 C 905.131 857.35 900.613 868.695 895.558 870.79 C 889.968 871.92 883.181 873.199 879.33 867.977 C 879.201 865.969 907.29 810.181 909.312 807.866 C 915.635 793.353 922.947 778.409 928.906 764.166 z" fill="rgb(43,43,43)" transform="translate(0,0)"></path>
<path d="M 938.351 790.48 C 942.068 792.73 958.544 820.582 959.593 826.024 C 955.399 829.543 946.537 828.202 940.751 827.946 C 935.099 827.238 926.531 827.762 920.629 827.933 C 923.257 814.478 931.187 802.212 938.351 790.48 z" fill="rgb(254,254,254)" transform="translate(0,0)"></path>
<path d="M 633.082 756.08 C 642.436 756.338 698.38 755.502 702.369 758.543 C 704.356 762.264 704.977 770.362 700.403 770.722 C 683.583 772.043 662.038 771.717 645.619 771.881 C 644.367 782.003 642.166 793.556 646.607 802.835 C 649.875 805.094 649.932 804.407 654.477 804.783 C 657.574 803.999 661.937 803.813 665.16 803.99 C 672.947 804.417 699.939 800.389 694 815.997 C 686.945 824.359 659.534 816.924 647.384 821.715 L 645.606 824.357 C 647.216 831.357 646.045 843.25 647.605 852.906 C 661.434 853.128 677.876 853.016 691.471 853.876 C 699.298 852.878 707.292 852.218 709.105 861.944 C 706.606 872.44 684.119 869.138 674.776 868.993 C 666.42 869 633.455 870.343 628.205 866.281 C 624.624 858.333 626.38 814.523 626.454 802.282 C 626.726 790.286 624.047 771.919 626.869 760.145 C 627.498 757.523 630.7 756.907 633.082 756.08 z" fill="rgb(43,43,43)" transform="translate(0,0)"></path>
<path d="M 751.244 772.216 C 751.005 768.776 750.263 764.591 753.02 762.04 C 758.101 757.337 766.407 758.598 772.786 758.839 C 796.074 759.721 819.447 758.408 842.735 759.178 C 845.763 759.278 849.641 759.914 852.107 761.737 C 853.558 764.639 854.247 765.558 853.885 768.879 C 846.12 779.223 823.244 769.146 813.534 775.898 C 808.293 785.964 817.157 851.695 812.295 866.477 C 810.402 872.231 795.873 872.999 793.133 864.837 L 792.61 859.208 C 792.989 848.611 794.303 780.573 791.423 776.303 C 788.454 774.524 784.245 774.846 780.679 774.768 C 771.987 775.156 757.718 777.146 751.244 772.216 z" fill="rgb(43,43,43)" transform="translate(0,0)"></path>
<path d="M 1147.45 760.119 C 1151.84 760.465 1154.23 760.616 1158.49 761.669 C 1165.54 770.183 1157.74 843.04 1163.88 855.519 C 1169.94 860.345 1205.34 854.419 1214.17 857.525 C 1225.03 861.345 1224.66 871.031 1213.88 874.48 C 1204.04 873.817 1148.68 875.919 1145.19 872.583 C 1138.83 849.96 1145.22 800.281 1142.35 774.982 C 1141.65 768.804 1142.99 764.361 1147.45 760.119 z" fill="rgb(43,43,43)" transform="translate(0,0)"></path>
<path d="M 1055.72 780.01 C 1055.3 772.655 1052.15 754.264 1072.05 762.544 C 1075.98 764.178 1073.86 780.162 1074.13 785.527 C 1075.2 793.52 1076.77 869.29 1074.75 872.402 C 1073.53 874.285 1071.13 875.202 1069 875.551 C 1065.7 876.091 1060.99 875.839 1058.25 873.842 C 1054.99 867.976 1055.96 792.946 1055.72 780.01 z" fill="rgb(43,43,43)" transform="translate(0,0)"></path>
<path d="M 1271.5 757.48 C 1276.42 756.926 1281.92 755.772 1285.97 758.819 C 1288.6 767.322 1288.8 852.568 1287.77 866.883 C 1287.51 870.502 1277.43 871.671 1270.75 868.929 C 1269.8 864.573 1268.95 780.321 1269.77 776.271 C 1270.43 770.833 1268.37 768.095 1269.26 763.142 L 1271.5 757.48 z" fill="rgb(43,43,43)" transform="translate(0,0)"></path>
<path d="M 464.686 462.414 C 468.019 462.657 471.669 462.968 474.994 462.942 C 502.709 462.721 530.176 463.315 557.952 462.707 C 562.89 462.73 565.843 462.487 570.513 464.025 L 571.58 465.382 C 570.717 466.026 569.565 466.962 568.657 467.46 L 568.552 468.954 C 571.105 469.887 596.738 471.082 600.202 471 C 605.866 471.032 615.709 470.821 621.009 471.317 C 641.882 471.402 662.755 471.202 683.622 470.718 C 698.236 471.804 721.772 470.598 736.757 470.361 L 814.31 469.796 C 819.844 470.338 839.435 470.093 845.635 469.986 C 861.482 469.714 882.915 470.722 898.192 469.113 C 938.746 470.488 984.036 468.691 1024.63 468.114 C 1095.34 467.11 1166.81 467.834 1237.4 465.833 C 1259.58 466.488 1288.55 465.269 1311.17 464.772 L 1418.1 463.105 C 1455.11 462.649 1492.12 462.23 1529.13 462.001 C 1561.97 461.799 1596.28 462.994 1628.95 462.135 C 1637.22 462.922 1646.52 463.008 1654.88 462.901 C 1681.31 462.562 1708.26 463.807 1734.64 462.964 C 1737.94 463.115 1748.58 463.16 1750.97 463.505 C 1752.78 464.456 1796.89 463.85 1803.49 463.885 C 1786.98 536.371 1769.94 608.735 1752.37 680.969 C 1738.3 681.14 1724.23 681.05 1710.16 680.699 C 1701.04 680.474 1679.34 679.798 1670.68 680.947 C 1638.91 680.82 1607.14 680.928 1575.37 681.271 C 1561.79 680.991 1548.2 680.989 1534.62 681.264 C 1491.1 680.644 1445.64 682.221 1401.99 682.144 C 1387.69 682.119 1344.6 680.999 1332.49 682.847 C 1301.37 681.582 1260.25 683.321 1228.73 683.496 L 988.928 685.534 L 305.694 690.077 C 295.229 651.362 285.29 612.507 275.88 573.522 C 267.543 540.406 258.888 508.12 250.972 474.764 C 272.528 476.653 316.711 474.263 340.093 474.129 L 413.169 473.595 C 425.839 473.56 446.693 474.11 458.731 472.91 C 461.64 468.866 466.76 470.902 467.928 465.65 L 463.123 464.865 L 462.631 463.682 L 464.686 462.414 z" fill="rgb(254,254,254)" transform="translate(0,0)"></path>
<path d="M 464.686 462.414 C 468.019 462.657 471.669 462.968 474.994 462.942 C 502.709 462.721 530.176 463.315 557.952 462.707 C 562.89 462.73 565.843 462.487 570.513 464.025 L 571.58 465.382 C 570.717 466.026 569.565 466.962 568.657 467.46 L 568.552 468.954 C 571.105 469.887 596.738 471.082 600.202 471 C 605.866 471.032 615.709 470.821 621.009 471.317 C 569.642 472.64 510.118 473.438 458.731 472.91 C 461.64 468.866 466.76 470.902 467.928 465.65 L 463.123 464.865 L 462.631 463.682 L 464.686 462.414 z" fill="rgb(33,33,33)" transform="translate(0,0)"></path>
<path d="M 557.659 465.418 C 560.758 465.102 562.054 464.795 565.1 465.774 C 567.449 468.105 567.228 467.163 567.257 469.687 L 565.846 469 L 553.674 469.178 L 554.643 468.291 L 553.145 468.944 C 555.438 467.903 556.122 467.417 557.659 465.418 z" fill="rgb(43,43,43)" transform="translate(0,0)"></path>
<path d="M 1234.23 476.478 C 1245.34 475.572 1279.75 476.083 1290.27 477.796 L 1290.69 477.882 C 1303.58 477.798 1326 482.841 1335.15 492.284 C 1356.15 504.578 1372.69 533.769 1375.24 557.701 C 1376.14 564.2 1376.2 567.622 1376.21 574.052 C 1374.57 588.064 1370.7 608.22 1362.25 619.933 C 1350.53 637.367 1337.14 652.089 1317.66 661.092 C 1296.27 672.142 1279.54 674.758 1255.67 675.08 C 1250.82 675.145 1238.41 677.114 1234.85 674.286 C 1234.7 674.141 1234.53 674.015 1234.39 673.85 C 1230.77 669.313 1232.33 564.033 1232.43 550.324 C 1234.28 531.036 1231.16 500.771 1232.17 479.965 L 1234.23 476.478 z" fill="rgb(43,43,43)" transform="translate(0,0)"></path>
<path d="M 1268.79 498.08 C 1318.84 496.299 1344.58 525.081 1347.68 572.752 C 1346.01 586.136 1344.55 591.952 1339.81 604.587 C 1336 609.565 1335.73 612.656 1329.48 619.418 C 1311.04 639.352 1295.97 645.063 1269.74 646.777 C 1270.93 638.704 1270.18 601.126 1269.97 590.914 C 1269.32 560.768 1270.69 527.697 1268.79 498.08 z" fill="rgb(254,254,254)" transform="translate(0,0)"></path>
<path d="M 1255.55 480.999 C 1260.26 481.019 1273.05 481.817 1277.1 481.216 C 1280.42 482.681 1283.23 484.008 1286.9 483.418 C 1295.82 481.983 1306.1 487.314 1314.01 487.059 C 1319.76 488.625 1335.04 498.419 1337.53 503.591 L 1338.13 506.598 C 1334.56 504.542 1328.38 499.079 1324.3 496.153 C 1316.09 490.351 1287.86 486.28 1279.53 487.204 C 1273.64 487.453 1269.62 486.824 1264.1 488.202 L 1264.09 488.73 L 1265.71 489.151 L 1264.79 488.576 C 1267.43 488.599 1265.63 489.849 1272.86 489.875 C 1265.82 495.085 1255.98 494.406 1250.77 498.646 C 1251.01 503.382 1251.58 508.907 1251.91 513.061 C 1252.32 518.237 1248.07 522.937 1251.98 530.22 C 1258.34 533.908 1259.18 526.437 1263.46 535.461 C 1262.79 537.256 1262.34 538.152 1262.21 540.099 C 1256.98 539.411 1257.36 538.662 1253.15 540.472 C 1250.6 546.16 1256.12 548.781 1255.87 552.764 L 1251 555.04 C 1250.91 556.352 1250.44 573.83 1250.46 573.907 C 1253.12 585.177 1256.7 583.712 1252.03 596.462 L 1253.03 596.991 C 1259.32 600.088 1261.1 598.859 1263.8 605.684 L 1260.99 610.972 C 1258.03 611.553 1256.26 610.759 1253.34 609.948 C 1251.92 613.043 1252.96 614.345 1255.08 616.961 L 1254.35 617.645 L 1252.77 617.291 C 1252.36 619.9 1250.2 637.379 1250.13 637.477 L 1247.79 636.539 L 1245 639.672 L 1243.57 639.274 C 1243.96 634.097 1244.71 635.028 1242.3 631.507 C 1245.19 625.34 1242.32 619.088 1240.76 612.397 L 1243.16 609.409 C 1242.68 598.261 1243.91 542.872 1242.91 539.797 C 1241.49 529.371 1242.29 518.538 1241.31 508.03 C 1241.03 505.069 1242.54 504.345 1242.08 500.11 C 1242.66 498.676 1244.81 488.124 1244.59 487.179 L 1238.6 484.512 L 1238.82 483.157 L 1241.7 481.903 L 1244.75 483.342 C 1250.93 481.547 1250.33 484.113 1255.55 480.999 z" fill="rgb(30,30,30)" transform="translate(0,0)"></path>
<path d="M 1255.69 487.496 C 1258.36 487.582 1258.91 487.415 1261.16 488.668 C 1260.17 490.764 1260.59 490.074 1257.81 491.232 C 1254.36 491.747 1252.99 492.196 1250.05 490.559 C 1251.19 488.315 1252.63 488.516 1255.69 487.496 z" fill="rgb(43,43,43)" transform="translate(0,0)"></path>
<path d="M 1319.92 500.721 L 1321.52 501.061 C 1326.68 505.787 1340.34 512.499 1343.05 520.321 C 1343.93 522.865 1343.72 522.156 1346.02 523.387 L 1348.93 523.217 L 1349.3 521.547 C 1347.08 518.739 1339.4 509.181 1338.13 506.598 L 1337.53 503.591 C 1340.29 504.211 1342.27 504.05 1343.55 505.865 C 1342.02 511.276 1346.28 513.552 1350.91 515.759 C 1354.13 518.949 1356.1 522.438 1358.99 524.92 L 1358 527.106 L 1360.03 530.556 C 1357.58 531.126 1357.24 530.839 1354.74 530.049 C 1352.65 526.989 1352.69 525.803 1349.82 525.021 L 1346.15 527.296 L 1345.06 527.449 C 1342.18 526.667 1340.25 523.717 1338.16 521.293 C 1334.94 516.1 1319.91 504.934 1314.44 502.483 L 1319.92 500.721 z" fill="rgb(33,33,33)" transform="translate(0,0)"></path>
<path d="M 1292.13 657.569 C 1296.6 654.956 1294.78 655.269 1299.81 655.421 L 1301.48 656.762 C 1299.33 665.503 1278.07 664.607 1274.24 667.887 L 1273.36 667.937 C 1269.16 664.717 1266.82 665.352 1263.62 662.044 C 1266.16 660.057 1268.77 660.473 1272.5 660.095 C 1277.95 660.231 1287.13 659.787 1292.13 657.569 z" fill="rgb(30,30,30)" transform="translate(0,0)"></path>
<path d="M 1304.93 498.073 C 1301.92 497.13 1299.35 496.702 1297.23 494.485 C 1301.85 492.16 1315.58 498.556 1319.92 500.721 L 1314.44 502.483 L 1304.93 498.073 z" fill="rgb(30,30,30)" transform="translate(0,0)"></path>
<path d="M 1262.16 579.309 L 1260.32 578.703 C 1258.91 575.418 1255.67 571.653 1253.39 568.729 C 1256.02 565.859 1254.96 570.201 1259.4 569.039 C 1260.34 566.942 1260.78 565.64 1261.48 563.448 L 1263.6 563.505 C 1263.35 569.47 1262.67 572.195 1263.5 578.271 L 1262.16 579.309 z" fill="rgb(33,33,33)" transform="translate(0,0)"></path>
<path d="M 1266.36 649.352 C 1263.32 651.339 1258.9 653.044 1256.18 649.999 L 1256.57 647.595 L 1258.78 646.072 C 1262 645.772 1262.41 646.01 1265.33 647.458 L 1266.36 649.352 z" fill="rgb(30,30,30)" transform="translate(0,0)"></path>
<path d="M 1236.08 601.658 L 1237.4 601.298 L 1238.12 601.998 C 1237.75 607.447 1237.31 609.576 1236 614.919 L 1235.24 614.022 C 1235.16 610.783 1234.49 603.939 1236.08 601.658 z" fill="rgb(33,33,33)" transform="translate(0,0)"></path>
<path d="M 1359.59 534.661 C 1361.83 535.968 1362.13 535.993 1363.3 538.186 L 1362.13 540.087 L 1361.85 540.706 L 1361.03 540.625 L 1359.59 534.661 z" fill="rgb(33,33,33)" transform="translate(0,0)"></path>
<path d="M 933.324 571.233 C 952.41 562.219 971.148 551.764 989.882 542.137 C 1016.91 528.513 1043.86 514.74 1070.74 500.816 C 1081 495.439 1106.24 479.597 1114.92 477.327 C 1120.99 475.74 1155.31 476.544 1164.04 476.222 C 1167.2 476.105 1169.15 478.04 1171.15 480.222 C 1170.67 482.614 1170.2 485.74 1168.03 486.897 C 1151.79 495.56 1133.68 504.429 1117.27 512.621 C 1080.7 530.788 1044.31 549.3 1008.09 568.155 C 997.272 573.76 942.582 603.893 934.078 605.624 C 929.313 622.337 937.279 659.947 931.292 678.152 C 930.199 681.473 904.359 679.847 899.272 680.069 C 898.54 675.706 898.209 671.252 898.074 666.832 C 897.097 634.824 897.696 602.771 896.094 570.781 C 896.62 558.76 894.694 486.185 897.768 479.646 C 908.392 475.363 974.844 477.356 991.62 476.739 C 1000.96 476.527 1040.93 475.723 1046.96 478.858 C 1046.7 482.801 1041.51 491.306 1039.38 495.594 C 1037.9 497.607 1035.3 501.35 1033.68 503.036 C 1020.8 504.722 1009.06 503.761 996.393 504.484 C 974.973 504.636 954.248 505.852 932.895 506.504 C 933.114 523.636 934.448 555.315 933.324 571.233 z" fill="rgb(43,43,43)" transform="translate(0,0)"></path>
<path d="M 1031.83 541.609 C 1042.4 538.982 1044.16 537.257 1052.55 531.003 C 1053.84 530.04 1063.83 527.58 1066.47 526.262 C 1075.46 521.769 1079.59 514.635 1089.37 516.053 C 1090.25 516.18 1109.7 503.506 1112.29 502.809 C 1120.05 499.506 1136.64 492.07 1143.87 490.673 L 1144.6 491.651 C 1142.93 494.084 1136.93 499.741 1134.51 500.535 C 1106.83 509.633 1082.45 525.552 1056.68 538.864 C 1052.77 540.825 1047.48 541.037 1043.56 542.779 C 1038.88 544.947 1032.09 553.385 1027.05 553.771 C 1019.36 554.362 1016.37 555.434 1009.94 559.681 C 994.892 569.621 978.07 573.436 962.719 582.731 C 951.869 589.301 940.657 595.408 930.214 602.732 C 927.372 604.726 927.956 605.138 925.852 603.332 C 922.786 596.188 919.816 574.096 921.079 566.054 L 925.002 565.137 L 926.495 566.183 C 926.461 568.191 926.586 569.538 925.892 571.44 C 927.217 575.182 926.607 575.647 929.436 577.054 C 931.741 576.787 934.138 576.202 936.185 577.113 C 941.907 574.505 952 568.54 956.693 567.423 L 961.678 566.361 C 963.101 568.017 963.124 568.711 963.672 570.785 C 956.08 575.023 934.858 586.77 927.893 589.794 C 930.453 592.794 932.321 592.71 936.136 592.581 C 942.754 588.921 949.407 585.324 956.093 581.791 C 956.321 581.67 959.399 580.061 959.4 580.034 C 959.437 578.737 958.402 578.854 959.003 577.159 C 960.388 577.744 961.213 578.076 962.673 578.54 C 972.392 571.912 992.997 561.899 1004.29 555.94 L 1004.69 555.414 C 1015.18 550.527 1021.97 548.441 1031.83 541.609 z" fill="rgb(30,30,30)" transform="translate(0,0)"></path>
<path d="M 956.693 567.423 L 961.678 566.361 C 963.101 568.017 963.124 568.711 963.672 570.785 C 956.08 575.023 934.858 586.77 927.893 589.794 C 935.087 580.915 938.656 582.273 947.08 576.845 C 945.918 576.39 939.422 577.57 936.185 577.113 C 941.907 574.505 952 568.54 956.693 567.423 z" fill="rgb(33,33,33)" transform="translate(0,0)"></path>
<path d="M 903.865 555.851 C 899.641 538.618 905.742 540.218 906.791 533.397 C 905.133 531.515 903.912 530.042 902.412 528.033 C 901.345 520.795 904.442 511.296 904.439 503.925 C 904.438 499.907 901.041 489.393 902.354 485.638 L 905.45 486.084 L 903.824 488.636 L 904.777 489.7 C 908.573 489.321 911.754 488.138 914.207 487.918 C 911.46 489.761 909.615 490.583 908.574 493.765 C 908.63 497.206 908.548 497.932 909.888 501.066 C 916.855 506.819 919.734 501.626 924.67 496.368 L 927.538 497.985 C 924.794 506.652 928.662 529.501 925.463 534.717 C 927.721 541.975 926.374 555.165 926.381 563.483 L 925.06 564.49 L 923.573 563.801 C 923.216 558.227 921.469 559.005 919.996 553.495 L 920.505 551.234 C 918.755 551.609 919.574 551.754 918 551.167 L 915.561 551.975 L 914.613 554.497 C 912.896 553.901 912.055 553.484 910.207 553.475 C 910.895 555.553 911.155 557.307 912.829 558.588 L 910.726 562.236 L 911.324 563.597 C 908.656 565.07 908.348 564.455 904.901 564.112 L 903.865 555.851 z" fill="rgb(33,33,33)" transform="translate(0,0)"></path>
<path d="M 920.049 547.915 L 916.024 548.149 C 913.326 546.56 912.374 546.265 910.66 543.585 L 911.27 541.626 L 912.474 541.252 L 914.418 545.262 L 915.434 543.742 C 914.378 536.033 911.22 538.473 910.026 532.009 C 909.798 530.773 912.55 525.353 910.972 522.061 L 908.133 522.055 L 907.608 520.839 C 909.532 519.414 910.57 518.678 912.254 516.992 C 908.879 512.392 912.546 512.212 913.818 506.544 C 916.439 505.397 915.595 505.743 918.877 506.267 C 917.742 507.602 917.456 507.897 916.542 509.457 C 917.906 509.791 919.108 509.642 920.514 509.584 L 920.595 511.082 L 918.484 512.657 C 919.846 515.307 920.429 516.759 921.43 519.57 C 919.789 523.496 917.976 518.379 913.989 520.812 C 928.735 533.173 915.257 527.752 919.854 543.254 L 921.698 544.149 L 920.049 547.915 z" fill="rgb(43,43,43)" transform="translate(0,0)"></path>
<path d="M 921.698 544.149 C 922.251 542.803 921.243 538.998 922.034 536.146 L 925.463 534.717 C 927.721 541.975 926.374 555.165 926.381 563.483 L 925.06 564.49 L 923.573 563.801 C 923.216 558.227 921.469 559.005 919.996 553.495 L 920.505 551.234 L 920.049 547.915 L 921.698 544.149 z" fill="rgb(30,30,30)" transform="translate(0,0)"></path>
<path d="M 903.865 555.851 L 905.98 555.458 C 908.438 557.798 909.118 559.337 910.726 562.236 L 911.324 563.597 C 908.656 565.07 908.348 564.455 904.901 564.112 L 903.865 555.851 z" fill="rgb(30,30,30)" transform="translate(0,0)"></path>
<path d="M 951.853 484.173 C 961.746 485.216 992.911 486.006 1002.89 485.366 L 1004.19 486.218 C 1002.3 488.211 1001.51 488.458 999.035 489.772 L 995.121 492.289 L 994.19 489.506 C 990.749 487.1 984.049 492.938 982.542 491.924 C 971.677 484.608 945.815 492.91 934.917 490.811 L 933.62 492.671 C 930.908 490.607 930.538 490.295 927.163 490.163 L 925.486 489.658 C 919.65 492.255 920.085 492.429 915.013 489.398 L 914.207 487.918 C 911.754 488.138 908.573 489.321 904.777 489.7 L 903.824 488.636 L 905.45 486.084 C 909.66 483.918 944.183 484.445 951.853 484.173 z" fill="rgb(30,30,30)" transform="translate(0,0)"></path>
<path d="M 904.126 654.61 C 911.599 646.907 904.078 643.106 913.385 645.707 C 912.533 648.121 913.289 647.327 911.516 648.523 L 915.88 651.331 L 918.979 650.069 C 921.347 649.128 921.445 649.098 922.915 647.076 C 925.411 650.012 924.377 662.395 925.81 666.11 L 924.716 666.878 C 926.389 671.581 927.167 671.301 925.576 674.701 C 920.106 673.679 919.576 659.414 920.313 655.107 L 921.58 653.554 C 919.04 653.389 917.421 652.974 915.281 654.24 C 915.305 657.142 916.372 657.736 918.191 660.484 C 916.192 662.068 915.182 661.974 912.558 662.394 C 912.149 664.749 912.234 664.641 913.271 666.868 C 911.212 668.435 910.447 668.83 908.133 670.03 L 906.979 669.123 C 906.965 665.945 907.099 664.493 905.36 661.641 L 905.412 660.934 C 906.823 659.177 907.84 658.093 907.679 655.778 L 904.126 654.61 z" fill="rgb(30,30,30)" transform="translate(0,0)"></path>
<path d="M 906.833 579.217 C 911.381 581.561 912.618 588.656 912.47 593.29 L 909.209 594.1 L 908.712 595.379 C 910.586 597.31 911.057 597.826 912.446 600.122 C 911.965 604.498 912.72 602.93 909.64 606.023 L 911.739 608.373 L 910.832 610.428 C 913.259 612.149 913.078 613.064 912.844 615.565 L 911.085 616.687 C 908.056 615.637 909.154 616.376 907.046 613.24 C 906.784 606.264 905.242 584.716 906.833 579.217 z" fill="rgb(30,30,30)" transform="translate(0,0)"></path>
<path d="M 1028.87 499.442 L 1029.05 496.535 C 1032.54 494.185 1030.93 494.806 1035.34 494.406 L 1037.05 495.964 C 1034.11 498.879 1033.8 499.097 1028.87 499.442 z" fill="rgb(33,33,33)" transform="translate(0,0)"></path>
<path d="M 1157.17 481.436 C 1159 481.707 1160.23 482.181 1161.96 482.756 L 1162.39 484.255 L 1160.5 486.138 C 1158.78 486.28 1157.59 485.993 1155.91 485.719 L 1155.3 484.207 L 1157.17 481.436 z" fill="rgb(30,30,30)" transform="translate(0,0)"></path>
<path d="M 726.8 491.952 C 748.336 478.794 785.337 476.812 809.391 482.927 C 813.484 483.967 815.399 484.32 817.638 487.624 C 817.194 489.533 817.162 490.867 815.678 492.057 C 813.047 495.663 810.219 499.404 807.81 503.136 C 806.64 505.066 803.687 510.051 801.475 510.361 C 792.531 511.505 782.051 508.365 773.156 508.072 C 751.372 507.354 723.309 522.037 712.594 541.479 C 692.436 578.057 701.812 603.791 728.975 630.698 C 733.453 633.501 738.028 636.504 742.735 638.867 C 756.133 643.716 769.925 648.185 784.504 645.17 C 791.731 644.268 794.403 643.49 800.921 640.206 C 805.45 644.116 827.072 660.858 826.909 665.301 C 819.46 669.966 806.507 672.97 797.712 674.154 C 766.019 678.417 741.342 675.558 715.356 656.221 C 694.786 640.915 679.538 617.359 676.016 591.848 C 673.413 572.956 674.868 560.288 681.766 542.291 C 688.906 523.664 707.645 499.847 726.376 492.003 L 726.8 491.952 z" fill="rgb(43,43,43)" transform="translate(0,0)"></path>
<path d="M 737.036 646.571 L 740.277 644.558 C 750.852 648.931 756.148 650.862 768.138 650.928 L 769.184 651.257 C 785.142 654.841 794.879 645.488 801.603 647.023 L 801.775 648.401 L 798.389 652.204 L 798.919 653.441 L 802.021 653.907 L 803.423 656.747 L 802.168 658.133 C 794.716 658.371 784.462 654.375 779.413 655.262 C 777.866 657.025 777.847 657.19 776.996 659.413 C 771.731 660.718 767.226 659.749 763.733 662.806 L 762.182 663.69 C 757.441 658.298 752.412 653.97 745.198 652.309 C 742.643 651.091 739.377 648.36 737.036 646.571 z" fill="rgb(33,33,33)" transform="translate(0,0)"></path>
<path d="M 706.263 522.583 L 708.79 524.908 C 709.486 528.104 709.204 527.271 707.069 530.652 L 704.785 530.285 C 704.133 526.631 704.838 526.603 706.263 522.583 z" fill="rgb(30,30,30)" transform="translate(0,0)"></path>
<path d="M 1039.83 592.167 C 1061.26 580.285 1087.83 567.995 1109.89 556.765 C 1125.56 548.787 1155.23 532.45 1170.37 527.074 C 1171.3 537.709 1171.67 552.906 1169.77 563.471 C 1151.89 573.397 954.332 678.538 951.702 678.245 C 947.675 673.628 949.15 661.8 949.345 655.384 C 949.17 650.841 948.621 646.277 948.14 641.752 C 959.619 633.051 978.662 624.608 991.547 617.68 C 1007.52 609.089 1023.63 600.307 1039.83 592.167 z" fill="rgb(43,43,43)" transform="translate(0,0)"></path>
<path d="M 1157.24 555.982 L 1157.97 555.709 L 1159.33 559.672 C 1156.9 564.085 1154.93 560.768 1154.09 564.683 C 1148.01 568.58 1142.67 570.031 1136.57 573.193 C 1120.65 581.445 1105.35 590.343 1088.71 597.176 C 1080.74 600.446 1079.75 606.552 1070.28 607.281 L 1071.33 609.686 C 1061.75 617.749 998.748 645.947 984.543 651.667 C 984.596 654.046 984.496 653.224 985.935 655.463 C 984.321 656.904 975.842 660.25 972.043 662.525 L 969.121 660.049 C 968.6 657.464 970.02 654.773 971.002 652.147 C 968.218 649.889 967.139 649.747 963.798 648.832 C 960.179 649.78 957.383 649.68 953.915 648.353 L 953.268 646.522 L 954.51 644.3 C 957.746 641.855 962.827 641.917 967.181 641.168 L 967.894 638.84 L 968.183 635.925 L 969.463 634.921 C 973.732 637.255 973.93 637.453 976.944 634.107 L 975.54 632.655 L 975.658 631.766 C 984.517 627.849 998.537 621.453 1007.49 616.529 C 1009.47 616.686 1011.13 616.818 1012.47 616.925 C 1013.64 615.409 1013.33 613.752 1013.46 611.511 C 1020.15 606.754 1033.03 607.867 1037.93 599.002 C 1038.59 599.794 1039.63 600.73 1040.4 601.471 L 1043.77 601.049 C 1047.36 598.743 1047.64 598.107 1049.66 594.452 C 1053.94 591.286 1075.01 579.965 1080.42 579.205 C 1083.21 578.278 1084.45 577.797 1087.43 577.516 L 1089.23 578.547 C 1088.47 583.808 1064.06 593.288 1059.03 599.511 L 1055.14 599.417 C 1050.22 604.886 1051.33 602.937 1046.54 606.484 C 1042.45 608.546 1040.48 610.164 1036.68 612.282 L 1034.52 612.424 C 1027.72 612.776 1004.65 627.237 998.7 631.791 C 994.665 630.711 995.854 630.412 992.697 632.204 C 986.742 635.585 975.598 645.578 969.255 646.533 L 969.235 647.788 C 973.21 650.207 974.982 650.802 979.034 647.695 C 984.351 647.325 986.962 645.86 991.095 642.855 C 999.101 638.807 1032.88 622.213 1038.92 617.958 L 1041.89 617.301 C 1045.27 616.179 1049.11 613.226 1052.25 611.143 C 1055.92 609.225 1059.85 606.931 1063.85 605.986 C 1065.11 605.385 1076.22 598.174 1076.9 597.199 C 1082.36 593.449 1126.62 571.624 1132.7 569.887 C 1141.6 565.834 1149.44 562.014 1157.24 555.982 z" fill="rgb(30,30,30)" transform="translate(0,0)"></path>
<path d="M 1144.86 545.873 C 1151.15 544.135 1160.38 538.116 1165.51 539.759 L 1166.44 543.692 C 1161.01 546.82 1159.83 544.652 1154.7 547.711 C 1145.93 552.938 1139.14 557.424 1129.37 560.837 C 1130.13 563.45 1130.28 562.566 1129.43 564.746 C 1127.29 565.09 1126.07 565.223 1123.91 565.302 C 1116.42 566.17 1107.28 574.306 1101.22 577.502 L 1098.75 576.404 C 1095.92 577.123 1094.02 577.519 1091.59 575.805 C 1092.55 573.015 1094.56 572.135 1097.1 570.39 C 1096.84 570.489 1104.88 565.87 1105.93 565.335 C 1114.91 560.719 1124 556.314 1133.19 552.124 C 1136.82 550.979 1141.46 547.919 1144.86 545.873 z" fill="rgb(33,33,33)" transform="translate(0,0)"></path>
<path d="M 1165.61 610.948 C 1166.82 610.726 1167.71 610.901 1168.96 610.995 C 1172.09 615.662 1170.8 635.251 1170.56 641.937 C 1154.51 651.648 1115.3 670.308 1096.74 677.194 C 1093.27 678.479 1057.64 678.929 1050.86 679.034 C 1048.23 678.696 1046.49 676.783 1045.51 674.523 C 1049.81 668.683 1151.37 617.925 1165.61 610.948 z" fill="rgb(43,43,43)" transform="translate(0,0)"></path>
<path d="M 1154.21 622.754 C 1152.38 624.684 1151.49 625.539 1149.39 627.177 C 1151.08 628.131 1151.78 628.107 1153.66 628.375 L 1154.94 630.012 L 1154.18 631.663 C 1151.19 632.294 1149.21 632.674 1146.11 633.001 L 1145.6 633.88 C 1139.11 644.734 1110.08 648.3 1104.97 657.866 C 1100.58 657.795 1084.73 665.087 1080.43 667.216 L 1079.47 668.994 C 1084.76 674.559 1096.69 663.471 1103.86 661.04 C 1113.27 659.994 1151.68 633.429 1161.51 636.746 L 1161.62 637.89 L 1157.32 639.994 L 1156.84 642.877 C 1136.76 652.871 1100.77 673.325 1079.7 674.302 C 1076.86 671.258 1079.74 669.71 1076.17 670.232 C 1069.67 671.181 1068.42 671.33 1063.95 675.434 L 1062.71 675.641 L 1059.28 672.229 L 1059.47 670.797 C 1064.17 667.335 1074.4 663.504 1080.34 660.653 C 1105.02 648.805 1129.49 633.811 1154.21 622.754 z" fill="rgb(33,33,33)" transform="translate(0,0)"></path>
<path d="M 1301.7 693.182 C 1291.57 690.959 1264.9 693.029 1253.5 693.348 C 1231.44 694.105 1209.36 694.043 1187.31 693.162 C 1182.47 692.924 1173.99 693.661 1169.82 692.48 C 1169.98 689.75 1171.25 688.881 1173.12 687.385 C 1186.59 685.927 1200.45 685.776 1213.97 686.595 C 1237.01 687.993 1259.93 684.941 1282.99 685.881 C 1288.96 686.125 1284.58 688.444 1289.48 689.079 C 1296.49 689.31 1310.39 685.869 1316.68 688.48 L 1315.87 691.7 C 1311.4 693.314 1306.47 693.088 1301.7 693.182 z" fill="rgb(33,33,33)" transform="translate(0,0)"></path>
<path d="M 1790.99 153.491 L 1793.07 152.71 C 1803.2 156.559 1826.79 152.513 1838.43 162.891 L 1837.82 163.853 C 1829.22 165.132 1821.19 160.017 1812.25 160.51 C 1800.9 160.625 1771.9 160.526 1761.07 158.621 C 1764.28 155.93 1768.42 157.75 1771.59 156.04 C 1777.27 152.98 1785.41 156.869 1789.32 156.29 L 1790.99 153.491 z" fill="rgb(30,30,30)" transform="translate(0,0)"></path>
<path d="M 843.03 154.775 C 857.244 158.314 883.199 152.805 889.492 157.387 L 889.26 158.91 L 887.248 158.796 C 882.615 159.021 843.498 158.843 842.116 157.99 L 843.03 154.775 z" fill="rgb(33,33,33)" transform="translate(0,0)"></path>
<path d="M 1563.04 453.504 C 1567.45 452.205 1590.36 453.172 1594.24 455.571 C 1586.09 456.434 1572.69 455.458 1564.17 454.97 L 1563.04 453.504 z" fill="rgb(33,33,33)" transform="translate(0,0)"></path>
<path d="M 1218.31 1002.49 C 1221.73 1002.48 1225.44 1001.96 1228.09 1003.74 C 1226.11 1006.01 1223.53 1006.16 1220.21 1007.2 C 1216.83 1008.12 1217.62 1008.49 1215.24 1007.29 C 1216.88 1005.05 1216.63 1005.67 1219.59 1004.39 L 1218.02 1003.04 L 1218.42 1004.2 L 1217.79 1003.82 L 1218.31 1002.49 z" fill="rgb(33,33,33)" transform="translate(0,0)"></path>
<path d="M 740.144 973.248 C 744.088 974.211 745.673 974.273 748.395 977.275 L 747.871 978.693 L 745.643 978.516 C 742.076 977.198 738.492 976.613 734.465 975.146 C 735.759 973.565 737.665 973.715 740.144 973.248 z" fill="rgb(33,33,33)" transform="translate(0,0)"></path>
<path d="M 640.795 944.845 C 645.319 945.345 649.086 947.293 652.578 950.079 L 652.394 952.92 C 648.457 950.508 644.695 949.255 640.492 947.181 L 640.795 944.845 z" fill="rgb(33,33,33)" transform="translate(0,0)"></path>
<path d="M 562.318 920.998 C 564.517 921.201 564.946 921.481 567.019 922.338 L 567.472 924.057 L 565.312 927.695 L 559.14 924.81 L 559.033 923.387 L 562.318 920.998 z" fill="rgb(33,33,33)" transform="translate(0,0)"></path>
<path d="M 1035.09 695.49 C 1031.07 695.598 1029.74 695.84 1027.9 692.274 L 1028.76 689.965 L 1032.87 688.189 C 1033.72 693.103 1032.77 691.68 1036.14 694.817 L 1035.09 695.49 z" fill="rgb(33,33,33)" transform="translate(0,0)"></path>
<path d="M 403.108 873.26 C 408.599 873.867 415.473 873.182 415.262 879.623 C 410.121 876.087 406.547 877.778 402.747 874.552 L 403.108 873.26 z" fill="rgb(33,33,33)" transform="translate(0,0)"></path>
<path d="M 234.22 445.596 L 232.648 441.305 L 233.664 439.373 C 236.504 440.552 237.545 443.32 237.815 446.399 L 234.22 445.596 z" fill="rgb(33,33,33)" transform="translate(0,0)"></path>
<path d="M 441.266 887.139 C 446.665 886.919 448.256 886.305 451.68 890.713 C 445.885 890.928 445.36 890.723 441.266 887.139 z" fill="rgb(33,33,33)" transform="translate(0,0)"></path>
<path d="M 1346.1 959.601 L 1347.39 960.755 C 1346.37 965.343 1347.21 964.303 1344.31 967.605 C 1343.14 966.844 1342.85 966.394 1341.89 965.394 C 1343.22 962.691 1344.14 961.809 1346.1 959.601 z" fill="rgb(33,33,33)" transform="translate(0,0)"></path>
<path d="M 809.754 996.202 C 812.714 996.392 816.224 996.233 818.595 997.72 L 817.425 999.236 C 814.735 999.577 813.144 1000.08 810.724 998.953 L 809.754 996.202 z" fill="rgb(33,33,33)" transform="translate(0,0)"></path>
<path d="M 358.375 100.814 C 514.565 96.6043 670.794 94.0097 827.038 93.0306 C 826.417 95.62 826.473 95.9121 824.761 97.8346 L 825.208 99.0633 C 829.74 100.015 830.361 100.053 834.934 99.3492 L 834.427 99.0406 C 838.716 99.0613 845.127 99.2857 849.224 98.8614 L 849.09 95.9923 L 848.78 96.2939 C 852.376 95.8213 855.937 96.3309 859.52 96.7226 C 857.991 98.0228 858.334 97.6077 855.889 97.8196 L 855.978 99.3334 C 858.889 100.455 859.288 100.407 862.381 99.8984 L 863.354 99.0316 L 862.945 97.082 C 865.927 95.6443 867.235 95.9274 870.456 96.106 L 872.574 97.3424 L 872.613 98.8627 C 875.564 99.2784 874.71 98.7303 876.546 100.576 C 874.824 101.395 873.532 100.925 871.605 100.609 L 870.859 101.824 L 873.246 103.24 L 872.151 103.414 L 873.061 103.048 L 872.154 102.732 C 868.821 105.309 837.59 103.135 831.456 103.434 C 825.402 103.729 816.881 106.022 811.373 105.944 C 799.984 105.784 791.91 99.1916 781.588 104.794 C 780.313 105.486 762.14 104.178 759.419 104.696 C 743.71 105.357 728.191 107.4 712.443 105.821 C 702.576 104.832 696.917 100.614 687.55 105.327 L 687.056 104.304 C 686.294 102.761 685.901 102.372 684.799 101.07 C 676.017 98.9716 673.785 107.243 666.959 106.485 C 646.754 104.243 629.733 105.017 609.889 106.261 C 592.449 107.355 575.822 103.85 558.167 111.269 C 553.206 112.93 549.046 109.795 546.314 112.772 C 533.061 113.378 515.666 113.423 502.357 113.122 C 493.503 111.714 467.407 113.045 462.674 110.329 L 462.017 107.65 C 456.127 106.195 445.523 108.193 439.435 109.57 C 420.618 113.825 402.755 112.601 383.7 112.921 C 364.687 113.24 343.801 114.57 324.863 113.395 L 339.885 112.819 C 335.409 112.366 330.311 112.111 326.19 110.489 C 326.23 109.893 326.269 109.297 326.309 108.701 C 333.992 101.263 347.375 107.353 358.375 100.814 z" fill="rgb(30,30,30)" transform="translate(0,0)"></path>
<path d="M 944.608 91.9884 L 958.194 91.8032 C 961.646 94.6267 966.144 99.2224 970.278 100.43 C 970.264 101.887 970.257 102.751 970.386 104.224 C 960.145 104.121 939.987 104.248 930.972 103.136 L 924.785 99.6434 C 926.774 99.225 927.087 99.157 928.952 98.3875 L 927.141 95.3191 C 933.918 93.0055 937.677 98.2244 944.608 91.9884 z" fill="rgb(33,33,33)" transform="translate(0,0)"></path>
<path d="M 1248.88 1048.23 C 1254.61 1042.53 1269.25 1041.54 1276.88 1038.78 C 1294.08 1032.56 1311.24 1027.04 1328.72 1021.81 C 1340.47 1018.29 1337.83 1013.76 1353.78 1013.52 L 1355.2 1014.24 C 1355.41 1018.34 1355.99 1017.39 1354.05 1020.03 C 1339.44 1025.42 1327.21 1027.31 1312.15 1030.28 C 1306.1 1031.47 1298.59 1037.97 1292.76 1040.51 C 1284.58 1043.53 1270.05 1047.21 1261.41 1048.92 C 1249.69 1053.92 1243.13 1052.17 1235.54 1056.45 L 1236.48 1058.28 L 1235.81 1059.45 C 1220.78 1062.87 1208.26 1068.14 1193.5 1070.16 L 1192.73 1068.97 C 1195.11 1065.71 1201.63 1065.21 1205.64 1064.53 L 1206.81 1062.1 C 1208.25 1060.81 1244.97 1048.91 1248.88 1048.23 z" fill="rgb(33,33,33)" transform="translate(0,0)"></path>
<path d="M 216.538 115.04 C 221.79 109.528 222.132 114.775 224.797 110.582 L 222.913 109.036 L 223.787 106.697 C 241.261 107.242 271.84 102.94 290.542 104.498 C 290.741 104.515 292.486 106.203 292.799 106.545 C 293.245 107.041 293.685 107.544 294.117 108.052 C 289.193 110.096 285.366 108.375 280.066 110.486 L 279.647 111.87 C 283.006 114.161 281.451 113.557 285.775 113.893 C 277.427 115.035 243.474 115.849 234.866 115.403 C 229.354 114.643 222.22 114.967 216.538 115.04 z" fill="rgb(33,33,33)" transform="translate(0,0)"></path>
<path d="M 1881 416.114 C 1884.93 415.699 1886.56 414.791 1889.46 416.417 L 1889.57 418.837 L 1891.4 420.737 C 1889.76 422.576 1890.22 421.544 1889.84 423.886 L 1889.95 424.176 C 1887.86 428.988 1887.04 432.945 1882.71 435.1 C 1882.2 433.191 1881.74 431.27 1881.33 429.338 L 1877.5 427.123 C 1877.54 424.008 1875.45 424.855 1876.65 418.973 C 1878.91 416.221 1877.74 416.937 1881 416.114 z" fill="rgb(33,33,33)" transform="translate(0,0)"></path>
<path d="M 1881 416.114 C 1884.93 415.699 1886.56 414.791 1889.46 416.417 L 1889.57 418.837 C 1887.35 420.234 1883 419.339 1880.75 418.332 L 1881 416.114 z" fill="rgb(30,30,30)" transform="translate(0,0)"></path>
<path d="M 206.883 544.321 C 206.855 549.308 209.475 551.318 207.774 556.918 C 205.376 557.016 202.977 557.093 200.578 557.149 L 200.004 558.373 C 201.656 560.428 201.815 560.632 202.86 563.033 C 202.201 565.864 201.434 566.126 199.051 568.115 L 197.749 567.661 L 198.89 565.996 C 199.977 561.804 195.308 554.254 193.648 550.203 L 194.66 548.361 C 199.083 545.556 201.682 545.339 206.883 544.321 z" fill="rgb(33,33,33)" transform="translate(0,0)"></path>
<path d="M 1804.8 96.8207 C 1807.67 97.1264 1811.78 97.4292 1813.37 99.7876 C 1808.18 105.676 1796.2 101.433 1789.06 100.764 L 1788.69 103.658 L 1787.54 103.451 C 1784.41 100.668 1783.8 101.002 1782.69 97.5602 C 1784.65 95.2663 1784.82 95.8655 1788.34 95.2247 C 1793.81 95.8564 1799.3 96.3885 1804.8 96.8207 z" fill="rgb(33,33,33)" transform="translate(0,0)"></path>
<path d="M 202.791 578.314 C 207.297 579.702 205.549 579.1 208.53 582.626 C 210.305 584.727 211.162 582.516 214.836 585.815 L 214.883 587.53 L 212.622 589.626 C 211.592 589.389 210.926 589.337 210.03 588.739 L 210.506 589.317 L 209.862 589.776 C 209.965 591.3 210.377 591.406 211.445 592.608 C 213.82 591.656 214.892 591.303 217.456 591.402 C 218.539 593.843 219.478 595.186 218.992 597.764 C 216.936 598.807 213.195 598.121 211.144 597.412 C 203.123 594.642 208.537 588.73 205.418 584.724 C 204.685 583.783 203.068 585.033 201.389 581.746 L 202.791 578.314 z" fill="rgb(30,30,30)" transform="translate(0,0)"></path>
<path d="M 225.886 642.301 L 228.719 643.513 C 228.762 644.276 228.684 647.546 228.905 648.061 L 227.691 651.096 C 230.619 654.263 233.79 659.689 234.936 663.801 C 231.123 666.119 232.381 666.159 228.819 665.418 C 222.08 658.516 222.193 650.564 225.886 642.301 z" fill="rgb(33,33,33)" transform="translate(0,0)"></path>
<path d="M 1792.49 780.661 C 1793.38 781.911 1796.28 783.858 1797.65 784.868 L 1798.76 784.286 L 1799.3 783.471 C 1802.04 791.047 1796.01 798.197 1787.92 798.389 C 1786.81 795.604 1786.81 796.648 1787.26 793.905 C 1788.99 793.844 1790.63 793.723 1792.36 793.592 L 1792.29 793.902 L 1791.88 792.583 C 1790 792.693 1789.54 792.827 1787.7 792.199 C 1787.52 788.442 1790.52 784.39 1792.49 780.661 z" fill="rgb(33,33,33)" transform="translate(0,0)"></path>
<path d="M 153.474 396.602 L 152.773 395.825 C 150.824 388.969 151.33 386.625 152.257 379.79 C 154.704 377.472 153.605 377.848 156.522 377.591 C 157.222 380.038 157.758 381.206 158.803 383.541 L 161.281 383.968 L 164.217 386.036 L 164.048 388.181 L 161.51 389 C 160.797 390.488 160.069 391.968 159.325 393.441 C 156.166 393.415 154.837 393.003 153.474 396.602 z" fill="rgb(33,33,33)" transform="translate(0,0)"></path>
<path d="M 164.048 388.181 C 161.062 387.719 161.483 388.259 159.7 386.536 L 161.281 383.968 L 164.217 386.036 L 164.048 388.181 z" fill="rgb(30,30,30)" transform="translate(0,0)"></path>
<path d="M 124.791 250.253 C 127.886 251.093 132.399 253.014 134.779 255.04 C 135.581 257.692 135.767 258.535 135.077 261.23 L 136.099 259.399 L 136.411 261.018 L 135.321 261.284 C 129.244 257.392 130.661 261.769 123.888 262.191 C 119.482 258.395 120.204 253.582 124.791 250.253 z" fill="rgb(33,33,33)" transform="translate(0,0)"></path>
<path d="M 141.195 344.075 C 138.548 338.184 137.599 329.592 143.944 325.748 C 147.191 325.383 147.58 325.397 150.426 326.977 C 152.669 330.207 152.241 328.743 152.234 332.478 C 149.313 332.604 148.343 332.763 145.491 333.422 L 144.693 335.642 C 143.399 338.484 142.119 341.085 141.195 344.075 z" fill="rgb(33,33,33)" transform="translate(0,0)"></path>
<path d="M 127.717 205.961 C 129.835 209.966 127.607 222.571 124.41 226.046 C 121.166 226.817 122.454 226.739 118.552 225.009 L 118.518 223.913 C 119.982 222.613 120.933 221.68 122.278 220.26 C 123.36 215.316 121.245 214.813 121.543 210.368 C 123.33 207.684 124.844 207.272 127.717 205.961 z" fill="rgb(33,33,33)" transform="translate(0,0)"></path>
<path d="M 217.794 624.527 C 224.086 624.771 229.641 636.425 232.985 641.986 C 227.536 640.316 221.925 640.6 220.332 633.876 C 219.474 630.254 218.306 628.473 217.794 624.527 z" fill="rgb(30,30,30)" transform="translate(0,0)"></path>
<path d="M 144.693 335.642 C 147.62 335.693 149.838 335.545 152.653 336.382 C 153.251 339.269 153.4 337.902 152.13 340.615 C 149.739 340.972 148.967 340.442 146.606 339.577 C 147.146 344.114 153.25 344.098 154.192 348.223 C 152.607 348.446 151.862 348.528 150.215 348.578 L 149.4 350.616 L 147.609 350.95 C 145.898 348.884 145.563 348.49 144.521 346.03 L 141.195 344.075 C 142.119 341.085 143.399 338.484 144.693 335.642 z" fill="rgb(30,30,30)" transform="translate(0,0)"></path>
<path d="M 1240.02 92.4242 C 1242.96 91.0232 1258.91 92.8853 1261.86 94.1946 C 1261.56 94.9956 1257.12 96.6934 1256.1 97.0116 C 1252.01 96.711 1234.38 95.9449 1231.8 94.4553 C 1233.92 92.5095 1236.94 92.7044 1240.02 92.4242 z" fill="rgb(33,33,33)" transform="translate(0,0)"></path>
<path d="M 138.004 275.825 L 138.895 275.611 C 141.574 277.614 142.594 282.085 138.935 284.158 C 137.566 282.949 137.694 282.96 135.926 282.559 L 133.573 285.384 C 128.884 285.257 130.215 285.911 126.586 283.496 C 125.696 278.71 134.257 276.283 138.004 275.825 z" fill="rgb(33,33,33)" transform="translate(0,0)"></path>
<path d="M 159.325 393.441 L 160.148 393.676 C 162.441 394.314 163.256 394.731 165.611 394.376 L 166.525 392.765 C 168.294 395.028 168.362 396.492 168.975 399.292 L 168.43 400.448 C 164.271 399.126 163.631 398.179 159.956 398.996 C 157.402 403.828 161.208 404.412 157.604 406.125 C 154.817 404.601 154.253 399.804 153.474 396.602 C 154.837 393.003 156.166 393.415 159.325 393.441 z" fill="rgb(30,30,30)" transform="translate(0,0)"></path>
<path d="M 293.622 849.593 C 299.738 851.492 299.45 857.119 303.02 860.823 C 303.805 861.637 311.438 865.551 313.286 866.637 L 312.976 868.813 C 312.127 868.913 308.754 869.261 308.195 869.021 C 301.764 866.262 292.819 856.445 293.622 849.593 z" fill="rgb(30,30,30)" transform="translate(0,0)"></path>
<path d="M 1919.16 260.217 L 1920.17 259.694 L 1920.98 261.378 C 1920.72 266.342 1920.77 271.95 1919.01 276.519 C 1916.42 278.078 1916.11 277.363 1912.51 276.79 L 1912.82 275.644 C 1916.69 268.597 1911.33 272.08 1916.29 264.62 L 1913.54 262.54 C 1915.84 260.497 1914.26 264.09 1919.16 260.217 z" fill="rgb(33,33,33)" transform="translate(0,0)"></path>
<path d="M 1056.72 1110.65 L 1060.45 1111.93 C 1057.61 1121.58 1039.27 1116.81 1030.59 1116.44 C 1030.58 1115.21 1030.8 1115.14 1031.29 1113.89 C 1039.68 1114.07 1041.95 1113.69 1050.36 1115.22 C 1052.51 1112.14 1053.34 1111.84 1056.72 1110.65 z" fill="rgb(30,30,30)" transform="translate(0,0)"></path>
<path d="M 192.567 123.177 C 190.273 126.083 181.702 127.598 178.095 125.516 L 178.476 123.847 C 180.774 123.129 183.804 122.141 185.647 121.205 C 186.949 120.544 191.456 115.71 192.518 116.452 C 196.447 119.196 195.285 118.567 200.324 118.602 C 198.283 119.715 194.178 121.782 192.567 123.177 z" fill="rgb(33,33,33)" transform="translate(0,0)"></path>
<path d="M 1760.87 842.814 C 1762.5 843.605 1763.36 844.161 1765.18 844.384 L 1765.26 845.751 L 1767.76 846.422 L 1767.22 847.078 L 1766.33 847.079 C 1763.25 847.102 1762.41 847.053 1759.73 848.781 L 1760.05 849.717 L 1764.41 850.588 C 1762.42 852.484 1759.13 854.719 1757.6 856.499 L 1754.06 857.565 C 1751.28 852.579 1756.94 847.603 1760.76 844.823 L 1760.87 842.814 z" fill="rgb(30,30,30)" transform="translate(0,0)"></path>
<path d="M 186.061 530.425 C 191.864 532.758 198.95 529.531 202.194 536.26 C 200.566 536.865 200.248 537.333 199.214 538.635 C 196.233 539.701 195.808 539.601 192.693 538.921 C 189.432 536.858 188.028 533.77 186.061 530.425 z" fill="rgb(33,33,33)" transform="translate(0,0)"></path>
<path d="M 162.561 139.087 C 165.243 138.277 167.628 137.956 169.729 139.742 C 168.647 143.704 165.523 144.623 162.594 147.398 C 159.763 149.041 159.241 149.479 156.011 149.464 L 155.301 148.002 C 157.357 143.028 158.7 142.9 162.561 139.087 z" fill="rgb(30,30,30)" transform="translate(0,0)"></path>
<path d="M 1830.94 648.695 C 1829.06 648.039 1826.86 646.813 1825.03 645.893 L 1825.12 644.981 L 1827.59 644.195 C 1826.36 643.032 1825.16 642.142 1823.84 641.101 L 1824.53 639.973 C 1828.77 638.79 1833.86 639.826 1838.32 640.398 C 1835.95 643.827 1834.34 647.554 1830.94 648.695 z" fill="rgb(33,33,33)" transform="translate(0,0)"></path>
<path d="M 142.207 164.342 C 143.914 164.234 143.279 164.256 145.032 165.093 L 145.292 166.953 C 142.516 172.488 137.947 177.613 132.566 180.737 C 130.752 173.313 140.644 169.238 142.207 164.342 z" fill="rgb(30,30,30)" transform="translate(0,0)"></path>
<path d="M 185.213 507.242 C 183.589 504.745 183.164 504.143 182.247 501.325 L 183.473 499.745 C 189.394 500.441 191.168 502.877 194.726 507.208 C 194.803 509.78 195.176 508.718 194.087 510.639 C 189.56 510.038 188.864 509.992 185.213 507.242 z" fill="rgb(33,33,33)" transform="translate(0,0)"></path>
<path d="M 185.213 507.242 L 186.662 505.545 C 190.763 505.547 189.128 505.201 193.073 507.546 C 193.384 508.436 193.905 509.762 194.087 510.639 C 189.56 510.038 188.864 509.992 185.213 507.242 z" fill="rgb(30,30,30)" transform="translate(0,0)"></path>
<path d="M 1766.12 93.6877 C 1766.38 93.6784 1770.12 94.6656 1770.63 94.7966 C 1771.36 95.9997 1771.27 95.3474 1771.17 96.7087 C 1766.98 99.0323 1765.29 99.4146 1760.61 100.685 L 1758.76 99.1509 C 1758.84 99.1972 1754.48 98.7414 1752.55 98.229 L 1752.42 96.9273 C 1756.32 93.9486 1759.37 95.6607 1765.31 93.9277 L 1766.12 93.6877 z" fill="rgb(33,33,33)" transform="translate(0,0)"></path>
<path d="M 146.344 364.338 C 146.215 362.161 146.061 363.003 147.692 360.908 C 151.188 359.72 154.324 358.416 158.012 358.304 L 158.146 360.536 L 159.214 361.377 C 156.797 361.845 156.002 362.337 153.959 363.713 C 154.292 364.617 154.717 365.542 154.826 366.471 L 153.379 369.309 L 155.067 367.377 L 153.69 369.812 C 150.006 369.318 148.901 367.449 146.344 364.338 z" fill="rgb(33,33,33)" transform="translate(0,0)"></path>
<path d="M 146.344 364.338 C 147.909 363.371 151.885 363.703 153.959 363.713 C 154.292 364.617 154.717 365.542 154.826 366.471 L 153.379 369.309 L 155.067 367.377 L 153.69 369.812 C 150.006 369.318 148.901 367.449 146.344 364.338 z" fill="rgb(30,30,30)" transform="translate(0,0)"></path>
<path d="M 152.196 148.739 C 153.574 149.469 154.225 150.614 155.177 151.879 C 154.571 157.705 147.238 163.137 141.814 162.619 C 140.302 160.354 140.532 161.546 140.982 158.954 C 144.876 156.975 147.558 155.516 151.236 153.177 L 152.196 148.739 z" fill="rgb(30,30,30)" transform="translate(0,0)"></path>
<path d="M 1001.32 94.1938 C 1002.75 93.5921 1012.05 94.6372 1013.04 95.8812 C 1011.33 97.5307 1007.66 97.4986 1003.98 100.255 C 998.798 98.1442 995.64 97.9 990.06 97.5249 L 992.63 97.2252 L 990.016 97.315 C 994.489 98.232 997.964 96.9534 1001.32 94.1938 z" fill="rgb(30,30,30)" transform="translate(0,0)"></path>
<path d="M 1866.58 495.824 C 1865.24 493.837 1864.2 492.61 1863.56 490.305 C 1865.08 485.832 1863.98 487.192 1867.45 484.765 C 1871.05 484.539 1870.51 484.018 1873.15 485.498 L 1873.45 487.4 L 1870.53 489.061 L 1870.41 489.803 C 1869.81 493.449 1869.64 493.911 1866.58 495.824 z" fill="rgb(33,33,33)" transform="translate(0,0)"></path>
<path d="M 1928.94 199.295 C 1931.83 201.552 1931.11 203.475 1929.85 206.034 C 1926.08 208.685 1924.69 208.313 1920 207.925 L 1923.68 205.845 C 1923.32 203.805 1923.22 203.814 1923.78 201.722 L 1928.94 199.295 z" fill="rgb(33,33,33)" transform="translate(0,0)"></path>
<path d="M 269.489 806.876 C 273.801 807.031 273.189 806.347 276.079 808.584 C 276.61 812.578 274.711 811.983 274.188 817.77 L 274.116 818.627 C 271.249 817.063 269.585 816.133 268.503 813.378 C 269.948 811.954 270.944 811.024 272.177 809.418 L 269.489 806.876 z" fill="rgb(33,33,33)" transform="translate(0,0)"></path>
<path d="M 1926.29 190.041 C 1926.92 190.313 1927.72 191.029 1928.31 191.484 L 1928.55 194.301 C 1926 198.449 1927 197.164 1922.53 199.666 C 1921.49 197.744 1921.54 197.155 1921.27 195.047 C 1922.29 192.178 1923.67 191.715 1926.29 190.041 z" fill="rgb(33,33,33)" transform="translate(0,0)"></path>
<path d="M 1809.24 712.173 L 1811.2 713.858 L 1814.53 717.01 C 1815.1 717.549 1816.55 717.545 1818.25 718.709 C 1814.92 720.828 1810.24 721.184 1807.02 718.66 C 1806.44 715.273 1806.91 715.922 1809.24 712.173 z" fill="rgb(33,33,33)" transform="translate(0,0)"></path>
<path d="M 322.501 877.629 C 325.503 879.99 323.623 881.264 324.46 881.476 C 329.168 882.671 330.028 881.946 333.589 885.718 C 330.26 885.963 325.497 886.763 322.758 885.322 C 321.046 882.049 321.81 882.113 322.501 877.629 z" fill="rgb(30,30,30)" transform="translate(0,0)"></path>
<path d="M 329.741 889.355 C 335.64 890.438 335.075 889.252 342.084 891.479 L 341.567 892.554 C 338.165 893.798 329.735 894.913 327.667 891.464 L 329.741 889.355 z" fill="rgb(30,30,30)" transform="translate(0,0)"></path>
<path d="M 210.665 570.753 L 212.497 572.493 C 211.547 575.032 208.856 576.657 206.598 578.44 L 203.268 575.389 L 203.56 573.903 L 210.665 570.753 z" fill="rgb(30,30,30)" transform="translate(0,0)"></path>
<path d="M 794.868 1044.14 C 799.549 1045.97 800.753 1045.35 800.273 1050.95 C 797.319 1050.32 794.844 1049.77 791.913 1048.92 L 791.726 1047.27 L 794.868 1044.14 z" fill="rgb(30,30,30)" transform="translate(0,0)"></path>
<path d="M 169.888 431.119 C 172.665 431.917 171.845 431.24 173.159 433.431 C 172.374 436.485 169.959 438.151 167.546 440.404 L 166.113 438.654 C 167.397 433.329 166.378 433.715 169.888 431.119 z" fill="rgb(30,30,30)" transform="translate(0,0)"></path>
<path d="M 1923.08 212.841 C 1926.17 212.706 1926.95 212.143 1929.27 213.556 C 1929.12 216.255 1928.8 216.764 1927.84 219.343 C 1926.61 220.158 1926.2 219.986 1924.67 220.078 C 1924.21 217.576 1923.67 215.304 1923.08 212.841 z" fill="rgb(33,33,33)" transform="translate(0,0)"></path>
<path d="M 1523.44 96.0034 C 1522.69 94.6907 1522.31 93.8128 1521.69 92.4584 C 1524.5 90.6036 1529.65 89.0036 1531.5 92.7333 L 1528.64 95.157 L 1526.6 94.9262 L 1526.08 96.7275 C 1525.37 96.563 1524.01 96.324 1523.44 96.0034 z" fill="url(#Gradient1)" transform="translate(0,0)"></path>
<path d="M 1017.03 1107.25 C 1021.95 1106.94 1029.52 1106.8 1029.17 1113.48 C 1022.97 1108.19 1020.94 1112.71 1017.03 1107.25 z" fill="rgb(30,30,30)" transform="translate(0,0)"></path>
<path d="M 187.743 525.162 C 191.02 525.546 194.406 525.341 197.72 525.261 L 198.744 527.625 C 192.862 530.027 191.327 529.866 187.743 525.162 z" fill="rgb(30,30,30)" transform="translate(0,0)"></path>
<path d="M 1809.74 722.251 C 1812.03 722.979 1811.94 722.96 1813.85 724.439 C 1812.93 726.183 1812.7 726.929 1812.44 728.885 L 1810.87 730.304 L 1809.43 729.723 C 1808.39 726.649 1808.99 725.431 1809.74 722.251 z" fill="rgb(30,30,30)" transform="translate(0,0)"></path>
<path d="M 1815.66 707.939 C 1817.32 710.967 1818.06 711.067 1817.67 714.016 C 1816.94 714.733 1815.25 716.488 1814.53 717.01 L 1811.2 713.858 C 1813.44 712.478 1814.31 710.298 1815.66 707.939 z" fill="rgb(30,30,30)" transform="translate(0,0)"></path>
<path d="M 1839.46 580.62 C 1842.27 581.483 1844.43 581.942 1846.88 583.569 L 1845.75 585.35 C 1842.26 585.59 1841.21 586.371 1839.19 584.613 L 1839.46 580.62 z" fill="rgb(33,33,33)" transform="translate(0,0)"></path>
<path d="M 485.697 951.267 C 488.853 952.519 490.479 952.204 494.351 954.112 L 494.53 956.013 C 491.819 956.473 491.168 956.441 488.417 956.24 C 485.802 954.031 486.616 955.186 485.697 951.267 z" fill="rgb(33,33,33)" transform="translate(0,0)"></path>
<path d="M 188.006 482.498 C 191.043 482.887 190.018 482.379 192.393 484.141 C 190.908 486.797 190.745 486.186 187.354 487.465 L 184.71 486.612 L 184.614 485.275 L 188.006 482.498 z" fill="rgb(30,30,30)" transform="translate(0,0)"></path>
<path d="M 262.755 797.05 C 266.914 797.605 268.534 797.352 270.424 800.898 C 265.4 800.955 265.07 801.228 262.755 797.05 z" fill="rgb(33,33,33)" transform="translate(0,0)"></path>
<path d="M 517.002 959.147 L 518.435 960.339 L 518.36 961.523 L 513.442 963.64 L 511.997 962.766 L 511.97 961.411 L 517.002 959.147 z" fill="rgb(33,33,33)" transform="translate(0,0)"></path>
<metadata><recraft-signature>{"signed_by": "recraft", "signature_b64": "IBkV9cNoZpnkryWsEU9DpWGofbsSiwZ5q8h5vPp9nL/0ZilvxGWNOY2JJEWCw/s1ZHKgDMlsjZ8+Do8Qnib2Dw==", "signing_algo": "Ed25519", "generation_timestamp": 1778259118, "identifier": "04a3036f-bd78-44f8-8087-e551232497ac"}</recraft-signature></metadata></svg>