<svg xmlns="http://www.w3.org/2000/svg" height="1024" preserveAspectRatio="none" style="display: block;" version="1.1" viewBox="0 0 2048 1152" width="1820">
<path d="M 0 0 L 2048 0 L 2048 1152 L 0 1152 L 0 0 z" fill="rgb(254,254,254)" transform="translate(0,0)"></path>
<path d="M 1017.44 220.413 C 1027.62 218.898 1065.99 223.874 1078.51 224.879 L 1250.32 238.738 C 1403.09 250.74 1555.8 263.531 1708.44 277.11 L 1851.63 289.155 C 1873.19 290.967 1894.88 292.217 1916.4 294.501 C 1925.08 295.423 1931.23 297.126 1938.33 302.522 C 1948.46 310.209 1952.51 321.062 1954.06 333.399 C 1956.22 350.616 1956.04 368.504 1956.47 385.854 C 1958.6 471.581 1953.37 796.834 1908.5 853.257 C 1901.24 862.386 1894.27 865.768 1882.95 866.975 C 1855.07 869.948 1822.47 869.399 1793.94 870.901 C 1726.18 874.568 1658.45 878.759 1590.75 883.472 C 1403.02 897.68 1215.64 916.292 1028.78 939.293 C 1022.31 940.4 1006.36 938.043 999.218 937.3 L 927.734 929.204 L 722.277 906.974 C 578.487 892.823 434.415 881.696 290.158 873.601 C 260.41 872.16 230.651 870.966 200.884 870.021 C 188.007 869.566 155.295 870.889 147.335 862.696 C 115.199 829.619 107.139 743.178 102.496 699.342 C 92.4518 598.156 88.4175 496.463 90.4141 394.8 C 90.9404 372.883 90.6218 347.356 94.35 325.93 C 99.875 294.178 131.247 294.498 155.275 292.385 L 204.82 288.03 L 365.759 273.611 L 1017.44 220.413 z" fill="rgb(0,0,0)" transform="translate(0,0)"></path>
<path d="M 1014.21 247.597 C 1025.59 245.975 1060.38 249.821 1074.15 251.01 C 1111.66 254.578 1149.21 257.803 1186.78 260.686 L 1776.32 310.561 C 1805.1 313.148 1833.89 315.543 1862.71 317.747 C 1879.77 319.067 1897.67 319.588 1914.55 322.221 C 1917.06 322.614 1919.48 323.556 1921.49 325.127 C 1925.74 328.442 1926.66 335.749 1927.3 340.768 C 1935.9 408.111 1923.54 791.044 1887.35 836.164 C 1886.08 837.753 1884.22 839.732 1882.37 840.585 C 1875.62 843.684 1854.2 842.464 1845.63 842.7 C 1768.57 844.825 1691.46 850.284 1614.55 855.436 C 1420.8 868.627 1227.46 887.365 1034.79 911.628 C 1019.8 913.662 1000.41 910.225 984.86 908.538 C 962.35 906.119 939.854 903.564 917.374 900.872 C 848.802 892.477 780.117 885.036 711.339 878.55 C 593.479 867.801 475.51 858.3 357.449 850.049 C 318.267 847.595 279.06 845.55 239.834 843.915 C 216.415 842.985 189.12 842.818 166.279 840.909 C 136.08 813.857 126.46 641.655 123.843 596.211 C 119.197 522.482 118.006 448.577 120.272 374.736 C 120.594 364.602 121.045 329.654 125.302 326.155 C 132.845 319.957 206.032 315.603 215.301 314.775 L 363.389 301.523 C 496.658 289.461 629.994 278.15 763.39 267.591 L 920.623 255.187 C 951.18 252.817 983.935 250.912 1014.21 247.597 z" fill="rgb(254,254,254)" transform="translate(0,0)"></path>
<path d="M 173.947 806.191 C 356.478 812.799 538.753 825.214 720.494 843.417 C 790.877 850.729 861.222 858.409 931.525 866.456 L 987.183 872.596 C 1023.4 876.582 1031.07 875.199 1067.54 870.825 C 1092.57 867.89 1117.62 865.082 1142.68 862.403 C 1235.2 852.179 1327.81 842.866 1420.51 834.465 C 1522.56 825.591 1624.73 818.236 1727 812.403 L 1816.71 807.916 C 1828.99 807.326 1862.2 803.742 1875.11 808.28 C 1876.58 808.795 1876.64 810.819 1876.85 812.352 C 1875.35 815.424 1874.53 815.869 1871.86 817.897 C 1809.75 819.059 1743.74 823.57 1681.73 827.349 C 1546.73 835.633 1411.92 846.691 1277.37 860.517 C 1219.33 866.434 1161.33 872.724 1103.36 879.388 C 1069.34 883.137 1037.06 889.794 1002.93 886.363 C 940.352 880.073 877.953 872.516 815.434 865.842 C 678.359 850.965 540.986 838.969 403.406 829.864 C 352.141 826.748 300.86 823.908 249.565 821.343 C 228.705 820.413 195.284 821.332 173.858 817.243 C 171.639 816.82 170.885 814.258 170.307 812.235 C 171.049 808.921 171.485 808.583 173.947 806.191 z" fill="rgb(0,0,0)" transform="translate(0,0)"></path>
<path d="M 1015.87 270.419 C 1026.16 269.251 1066.51 273.382 1078.93 274.386 L 1206.1 284.542 L 1714.55 327.938 C 1735.97 329.855 1903.7 343.168 1908.22 345.57 C 1909.98 346.51 1910.07 347.792 1910.69 349.531 C 1909.7 353.788 1910.52 352.237 1907.63 355.451 C 1900.22 357.026 1847.22 351.319 1836.2 350.352 L 1654.15 334.112 C 1523.33 322.405 1392.44 311.488 1261.49 301.361 C 1186.38 295.233 1108.98 287.529 1034.01 282.842 C 1020.11 280.84 987.755 284.447 972.408 285.55 L 852.744 294.437 C 660.976 309.113 469.328 325.312 277.817 343.032 C 241.03 346.282 204.283 349.483 167.557 353.39 C 160.399 354.151 133.385 359.81 139.531 345.561 C 144.884 341.009 157.342 342.015 164.688 341.43 L 209.709 337.529 L 366.708 323.327 C 582.916 303.554 799.314 285.917 1015.87 270.419 z" fill="rgb(0,0,0)" transform="translate(0,0)"></path>
<path d="M 360.775 479.346 C 428.526 473.544 435.276 568.333 409.247 611.142 C 401.036 624.647 386.52 630.399 371.53 632.934 C 358.251 633.302 344.322 632.247 333.244 623.655 C 300.605 598.342 301.222 531.864 322.987 499.819 C 331.71 486.976 346.305 481.493 360.775 479.346 z" fill="rgb(0,0,0)" transform="translate(0,0)"></path>
<path d="M 360.949 498.145 C 381.116 496.716 394.968 508.396 398.481 527.937 C 403.753 557.271 406.438 605.974 369.769 614.492 C 347.228 615.958 335.633 602.064 331.64 580.839 C 326.524 553.644 326.879 505.454 360.949 498.145 z" fill="rgb(254,254,254)" transform="translate(0,0)"></path>
<path d="M 1406.03 494.714 C 1401.81 491.478 1396.59 488.372 1399.96 482.739 C 1407.05 478.706 1422.99 480.489 1431.33 481.368 C 1432.76 483.79 1432.32 483.015 1432.41 486.149 C 1431.13 489.845 1428.14 491.784 1425.09 494.318 C 1424.96 532.827 1424.96 571.679 1425.04 610.215 C 1425.06 623.68 1432.07 620.989 1431.85 628.535 C 1430.32 630.908 1431.28 630.218 1428.25 630.907 L 1402.8 630.938 C 1395 619.651 1384.43 600.374 1377.18 588.149 C 1362.87 563.728 1348.05 539.608 1332.73 515.803 C 1333.29 549.513 1333.05 583.919 1333.04 617.655 C 1336.11 620.129 1337.25 620.938 1339.69 624.079 C 1340.45 627.769 1340.7 626.414 1339.08 629.318 C 1333.69 632.388 1310.84 632.731 1306.74 629.625 C 1307.1 623.527 1315.07 612.962 1314.78 606.532 C 1314.42 598.509 1314.15 591.548 1314.23 583.444 C 1314.55 553.89 1314.58 524.333 1314.33 494.779 C 1307.05 488.95 1307.27 489.749 1306.83 480.83 C 1316.9 480.64 1327.56 480.823 1337.69 480.824 C 1358.7 515.825 1383.95 561.125 1406.21 594.313 L 1406.03 494.714 z" fill="rgb(0,0,0)" transform="translate(0,0)"></path>
<path d="M 844.729 479.887 L 862.343 479.829 C 873.418 509.967 882.521 541.092 893.004 571.609 C 897.867 585.765 902.741 605.095 910.208 618.563 C 911.549 620.982 915.13 620.901 916.787 625.109 C 916.536 628.347 917.033 627.677 915.439 630.071 C 909.312 631.493 884.282 632.296 879.625 627.9 C 879.86 625.215 883.69 621.783 885.741 617.766 C 886.097 609.891 879.965 597.195 876.715 589.446 L 860.467 589.922 L 826.377 589.854 C 824.574 595.256 818.584 611.469 818.793 617.711 C 818.835 618.938 825.037 623.755 825.103 627.944 L 823.624 629.463 C 819.52 631.077 799.192 631.717 793.787 630.892 C 791.214 630.499 790.674 628.911 789.688 627.039 C 790.241 618.581 798.123 618.246 800.402 611.611 C 805.193 597.663 809.761 583.57 814.443 569.573 L 844.729 479.887 z" fill="rgb(0,0,0)" transform="translate(0,0)"></path>
<path d="M 852.237 511.728 C 855.905 516.525 871.034 567.01 871.959 574.005 L 851.07 574.296 L 831.481 574.038 C 836.539 556.819 845.52 527.835 852.237 511.728 z" fill="rgb(254,254,254)" transform="translate(0,0)"></path>
<path d="M 493.794 479.655 L 510.932 479.812 L 538.936 567.758 C 543.198 581.019 550.548 610.47 560.506 621.263 C 563.798 624.831 565.373 626.069 563.2 631.01 C 556.351 632.472 534.659 633.246 528.136 629.052 C 527.044 628.35 527.361 626.618 527.339 625.369 C 528.738 621.903 531.53 620.538 534.674 618.444 C 532.287 609.018 529.291 600.248 526.231 591.046 L 510.75 591.01 L 474.654 591.178 C 471.64 599.262 468.684 609.167 465.968 617.485 C 469.956 621.412 472.754 622.932 471.802 628.979 C 466.864 634.725 442.575 633.706 437.623 625.893 L 438.235 623.924 C 449.381 617.009 451.93 605.032 455.752 593.108 C 467.923 555.136 481.485 517.562 493.794 479.655 z" fill="rgb(0,0,0)" transform="translate(0,0)"></path>
<path d="M 499.076 510.613 C 503.146 515.897 518.014 564.306 520.1 573 L 499.75 573.025 L 480.092 572.989 C 484.392 555.455 493.21 527.608 499.076 510.613 z" fill="rgb(254,254,254)" transform="translate(0,0)"></path>
<path d="M 1466.43 480.829 L 1566.13 480.855 C 1566.17 485.95 1566.85 506.712 1564.98 509.591 L 1562.87 510.035 C 1559.44 508.572 1553.55 500.239 1551.55 500.176 C 1532.9 499.585 1514.08 499.896 1495.4 499.936 C 1495.2 515.112 1495.49 530.88 1495.57 546.103 L 1537.05 546.138 C 1539.13 541.799 1539.83 539.32 1544.9 538.565 C 1549.1 542.839 1549.38 569.578 1546.63 572.713 C 1543.72 572.829 1542.89 573.084 1540.31 571.978 C 1538.52 565.872 1533.4 564.346 1527.58 563.987 C 1522.68 563.684 1498.7 562.702 1495.85 564.986 L 1495.56 568.75 L 1495.42 613.148 L 1559.56 612.903 C 1561.78 609.016 1563.16 604.701 1568.04 605.203 C 1571.5 609.497 1570.26 624.838 1570.12 631.078 C 1540.3 631.148 1496.86 632.58 1468.12 630.771 C 1466.52 629.214 1467.02 629.766 1466.68 626.988 C 1467.65 623.153 1470.31 620.711 1472.95 617.719 C 1473.78 577.264 1473.23 535.067 1473.11 494.552 C 1467.3 488.955 1466.87 488.77 1466.43 480.829 z" fill="rgb(0,0,0)" transform="translate(0,0)"></path>
<path d="M 1648.51 479.405 C 1678.87 480.269 1679.87 489.147 1701.32 492.58 C 1699.68 497.196 1692.93 513.937 1689.03 516.07 C 1682.32 515.03 1683.86 510.425 1680.57 507.854 C 1671.27 499.424 1642.19 493.168 1632.38 504.395 C 1612.1 527.6 1635.47 539.136 1654.32 543.417 C 1682.36 549.782 1706.46 561.644 1702.77 593.818 C 1699.02 626.522 1667.94 634.932 1639.77 631.93 C 1623.24 631.422 1605.28 620.973 1592.24 611.645 C 1594.73 606.273 1600.02 592.973 1604.71 590.155 C 1616.77 604.2 1617.45 607.028 1637.81 612.388 C 1659.55 618.11 1691.66 606.055 1677.94 578.955 C 1670.84 564.921 1630.88 563.189 1616.78 550.635 C 1599.2 534.995 1601.44 512.989 1614.22 494.146 C 1621.92 483.827 1636.05 480.471 1648.51 479.405 z" fill="rgb(0,0,0)" transform="translate(0,0)"></path>
<path d="M 620.491 479.157 C 647.267 477.486 655.062 481.169 677.369 495.072 C 674.177 503.302 671.249 510.981 667.482 518.961 C 655.326 504.1 645.991 497.262 625.924 497.098 C 614.929 497.008 602.7 506.637 604.471 517.755 C 608.59 543.61 653.83 541.961 669.637 559.999 C 677.133 568.447 681.878 573.436 682.241 585.519 C 682.226 618.819 658.699 631.17 629.138 631.975 C 606.03 630.564 594.966 625.257 574.292 615.239 C 578.005 605.487 581.378 596.891 585.671 587.324 C 600.104 608.196 612.968 614.915 639.345 612.452 C 649.938 611.463 665.412 598.945 662.265 588.46 C 655.528 566.018 619.395 562.764 602.097 551.502 C 581.914 538.362 578.342 516.683 590.569 496.714 C 597.3 485.965 608.382 481.587 620.491 479.157 z" fill="rgb(0,0,0)" transform="translate(0,0)"></path>
<path d="M 228.432 479.198 C 256.398 477.733 266.585 482.513 287.294 501.056 C 285.641 504.361 278.849 523.264 274.802 517.868 C 263.763 501.035 238.158 490.477 220.186 502.834 C 180.338 530.233 198.47 649.059 263.783 605.344 C 269.32 600.746 273.145 590.392 280.049 592.25 C 283.481 595.408 286.23 602.372 288.327 606.82 C 266.313 631.758 236.613 642.824 205.781 623.872 C 170.751 602.338 170.255 534.675 190.815 502.924 C 199.743 489.136 212.558 482.265 228.432 479.198 z" fill="rgb(0,0,0)" transform="translate(0,0)"></path>
<path d="M 1105.76 480.672 L 1202.29 480.736 C 1202.44 486.621 1203.13 502.851 1201.83 507.61 C 1194.35 509.813 1191.75 506.748 1189.67 500.77 C 1185.13 496.942 1144.29 498.81 1134.89 498.911 L 1134.9 545.178 C 1151.53 545.232 1171.22 545.712 1187.5 544.38 C 1187.03 550.022 1188.04 560.384 1185.29 564.605 L 1182.53 565.082 C 1175.73 560.066 1145.63 562.046 1134.98 562.112 C 1134.97 577.367 1133.69 602.211 1135.83 617.785 C 1136.39 621.807 1144.29 620.191 1141.67 629.891 C 1138.18 631.997 1111.62 631.2 1106.26 630.286 C 1105.01 630.072 1104.74 627.426 1104.49 626.382 C 1106 622.749 1108.69 621.578 1112.08 618.486 C 1116.01 608.436 1112.03 512.056 1112.29 494.677 C 1112.33 491.925 1106 492.481 1105.76 480.672 z" fill="rgb(0,0,0)" transform="translate(0,0)"></path>
<path d="M 691.8 479.863 C 724.401 479.243 758.326 479.712 791.025 479.729 C 791.175 487.2 792.892 503.71 786.734 508.663 L 784.503 508.108 C 781.298 505.796 780.565 502.756 779.127 499.039 L 752.933 498.857 C 753.131 536.65 753.039 574.445 752.658 612.236 C 753.601 618.348 758.895 620.932 762.777 626.571 C 762.769 627.51 762.999 628.396 762.438 628.701 C 756.555 631.901 730.096 631.26 724.26 630.281 C 722.32 628.367 722.94 628.734 722.518 625.283 C 723.754 619.594 731.537 618.965 731.766 613.387 C 732.268 601.167 732.028 588.808 732.009 576.563 L 731.846 498.786 C 724.133 498.832 716.279 498.478 708.494 498.677 C 699.87 498.898 700.603 510.182 693.442 508.982 C 690.777 505.607 691.762 485.421 691.8 479.863 z" fill="rgb(0,0,0)" transform="translate(0,0)"></path>
<path d="M 1819.57 480.485 C 1821.57 480.485 1825.69 480.564 1827.29 481.633 C 1832.88 485.378 1831.19 509.383 1828.13 512.908 L 1825.05 512.997 C 1818.83 508.148 1822.95 499.397 1809.53 498.904 C 1802.8 498.657 1796.22 499.05 1789.46 499.393 C 1789.41 500.149 1789.37 500.905 1789.33 501.661 C 1788.6 517.277 1789.38 538.458 1789.34 554.854 C 1790.13 575.592 1787.69 597.222 1791.09 617.688 C 1792.01 623.185 1798.49 624.288 1798 630.267 C 1794.54 632.483 1771.62 632.567 1766.31 632.067 C 1763.11 631.766 1762.24 630.677 1760.77 628.504 C 1761.53 623.157 1763.15 622.69 1767.54 618.77 C 1772.38 607.611 1767.23 542.905 1769.16 526.702 C 1769.69 522.218 1769.5 503.121 1766.83 500.216 C 1761.37 498.214 1747.78 498.493 1741.83 499.331 C 1737.9 499.885 1738.72 509.988 1732.33 512.16 C 1729.15 511.978 1729.4 512.519 1727.45 510.893 C 1726.43 503.515 1726.94 488.768 1727 480.804 L 1819.57 480.485 z" fill="rgb(0,0,0)" transform="translate(0,0)"></path>
<path d="M 934.335 480.013 C 943.663 480.158 961.123 478.157 968.384 481.473 C 973.285 486.944 967.511 491.232 963.338 495.095 C 964.005 519.403 963.158 543.868 963.406 568.159 C 964.285 574.774 960.882 604.823 966.795 608.027 C 978.317 614.271 999.818 610.638 1013.08 611.082 C 1017.57 611.232 1030.65 607.84 1036.36 607.035 C 1037.53 611.336 1037.17 622.196 1037.16 627.25 C 1037.21 628.818 1036.87 628.92 1035.95 630.273 C 1029.66 631.948 937.614 630.889 935.379 629.791 C 932.25 622.361 942.699 618.237 942.421 606.745 C 942.166 596.163 942.085 584.35 942.07 573.794 L 941.986 494.621 L 941.349 494.083 C 934.629 488.346 933.95 489.46 934.335 480.013 z" fill="rgb(0,0,0)" transform="translate(0,0)"></path>
<path d="M 624.418 688.472 L 627.085 688.409 C 642.778 688.05 663.342 686.2 674.957 698.502 C 691.101 715.601 688.588 740.003 672.694 756.003 C 658.317 765.772 637.759 764.145 620.921 763.334 C 620.108 743.762 620.218 711.264 621.442 690.954 C 621.526 689.553 622.979 689.215 624.418 688.472 z" fill="rgb(0,0,0)" transform="translate(0,0)"></path>
<path d="M 633.569 699.375 C 643.699 699.039 653.146 698.009 662.086 703.84 C 677.129 713.65 674.943 732.95 665.753 746.072 C 654.47 754.926 648.007 753.46 633.791 753.131 C 633.586 735.213 633.513 717.294 633.569 699.375 z" fill="rgb(254,254,254)" transform="translate(0,0)"></path>
<path d="M 1384.42 390.979 C 1417.36 389.546 1452.14 392.201 1484.9 390.847 C 1555.98 387.91 1623.82 394.507 1694.11 403.815 C 1703.45 405.053 1738 405.422 1740.25 414.879 C 1739.46 417.854 1738.21 418.463 1735.81 420.275 L 1632.17 408.659 C 1612.48 406.435 1587.4 402.533 1564.51 402.231 C 1506.45 401.466 1443.27 404.118 1385.04 401.326 C 1382.66 401.212 1381.58 398.887 1380.84 397.157 C 1381.08 394.045 1382.3 393.188 1384.42 390.979 z" fill="rgb(0,0,0)" transform="translate(0,0)"></path>
<path d="M 409.714 390.396 C 414.984 389.378 455.904 389.97 463.813 389.96 C 493.05 389.923 523.218 390.274 552.608 389.731 C 558.027 389.63 560.031 389.794 563.43 393.382 C 564.318 397.288 564.421 395.695 563.104 399.414 C 559.883 401.703 559.045 401.762 554.954 401.91 C 502.891 403.795 447.362 398.407 395.763 404.28 C 361.5 408.677 327.213 412.884 292.903 416.898 C 283.958 417.906 261.21 423.654 255.746 417.776 C 254.888 413.755 254.788 415.394 256.043 411.551 C 259.625 407.07 300.003 403.706 309.031 402.595 L 409.714 390.396 z" fill="rgb(0,0,0)" transform="translate(0,0)"></path>
<path d="M 1234.79 480.763 C 1242.5 480.567 1263.78 478.666 1270.44 482.629 C 1272 483.553 1271.74 484.989 1271.85 486.617 C 1270.65 490.619 1268 492.166 1264.71 494.792 C 1261.57 531.894 1265.52 575.81 1264.63 613.456 C 1264.47 620.503 1271.06 618.997 1271.72 630.876 C 1265.34 630.93 1238.36 632.121 1234.41 629.011 C 1234.74 623.503 1243.07 615.015 1242.94 610.395 C 1241.85 572.039 1243.3 533.574 1242.53 495.219 C 1241.64 494.416 1240.77 493.603 1239.9 492.781 C 1234.92 488.045 1234.94 487.869 1234.79 480.763 z" fill="rgb(0,0,0)" transform="translate(0,0)"></path>
<path d="M 1290.89 743.711 C 1290.74 727.673 1290.43 711.665 1290.17 695.64 C 1290.09 691.024 1294.43 686.369 1299.59 687.683 C 1302.05 689.978 1302.55 692.813 1302.59 696.088 C 1302.86 717.794 1303.26 739.704 1302.29 761.385 C 1302.29 761.387 1300.63 763.961 1300.47 764.205 C 1296 764.236 1292.93 764.415 1289.81 760.806 C 1276.13 744.971 1263.92 725.655 1251.89 708.6 C 1251.93 725.459 1252.07 742.847 1252 759.747 C 1251.99 762.399 1251.55 762.612 1250.03 763.901 C 1245.87 764.33 1245.33 764.318 1241.32 763.168 C 1237.12 758.389 1239.77 701.339 1240.01 690.532 C 1240.01 690.532 1241.85 688.389 1242.1 688.101 C 1243.84 688.046 1245.8 687.95 1247.51 688.293 C 1255.12 689.815 1284.49 734.695 1290.89 743.711 z" fill="rgb(0,0,0)" transform="translate(0,0)"></path>
<path d="M 311.24 720.264 L 457.817 720.44 C 474.774 720.445 495.37 720.086 512.405 721.005 C 514.84 721.137 515.691 722.969 516.688 724.69 C 516.297 729.628 516.741 727.889 514.003 732.066 L 379.914 732.1 C 363.281 732.115 327.244 733.16 311.795 731.589 C 308.424 729.098 309.207 730.337 307.999 726.948 C 308.331 723.517 309.081 722.884 311.24 720.264 z" fill="rgb(0,0,0)" transform="translate(0,0)"></path>
<path d="M 1526.17 720.89 C 1594.66 719.198 1665.01 721.739 1733.59 721.278 C 1735.56 721.265 1736.7 723.368 1737.58 724.734 C 1737.86 728.409 1737.53 728.85 1735.53 731.995 C 1670.64 734.254 1603.5 730.506 1538.33 732.209 C 1533.02 732.348 1527.32 733.127 1524.36 728.498 C 1524 724.609 1524.19 724.181 1526.17 720.89 z" fill="rgb(0,0,0)" transform="translate(0,0)"></path>
<path d="M 1376.75 688.158 C 1392.72 687.059 1399.07 688.853 1412.3 698.271 C 1410.29 701.215 1407.42 704.786 1405.21 707.694 C 1348.61 666.173 1342.96 779.665 1401.63 748.79 L 1401.67 734.885 L 1385.04 734.997 C 1384.8 731.658 1384.09 728.642 1385.79 726.001 C 1391.55 721.689 1405.6 723.627 1414 723.627 L 1413.94 756.242 C 1398.8 763.678 1382.01 768.697 1366.02 760.279 C 1357.51 755.743 1351.16 747.998 1348.38 738.764 C 1341.19 715.306 1353.58 694.798 1376.75 688.158 z" fill="rgb(0,0,0)" transform="translate(0,0)"></path>
<path d="M 939.675 688.293 C 942.144 688.344 944.162 688.584 946.597 688.851 C 950.881 691.221 975.747 757.39 974.066 762.106 C 961.6 768.125 959.482 752.095 955.99 743.039 L 942.67 742.925 L 928.351 743.145 C 925.379 749.354 923.907 760.203 918.011 763.557 C 915.366 765.062 911.438 763.798 909.772 760.852 C 913.609 741.357 928.504 714.19 934.272 694.287 C 935.291 690.773 936.522 689.637 939.675 688.293 z" fill="rgb(0,0,0)" transform="translate(0,0)"></path>
<path d="M 941.602 704.818 C 944.777 708.374 951.159 727.379 952.52 732.398 C 950.242 734.39 949.869 733.754 946.25 733.863 L 930.969 733.874 C 934.354 724.131 937.899 714.445 941.602 704.818 z" fill="rgb(254,254,254)" transform="translate(0,0)"></path>
<path d="M 729.261 688.996 C 737.781 688.376 747.39 688.661 755.998 688.488 C 761.494 688.377 777.039 687.187 780.033 691.525 C 780.037 695.458 780.53 694.101 778.543 696.981 C 772.076 700.823 751.021 699.153 741.877 699.052 L 741.951 719.516 C 750.757 719.623 768.542 717.093 774.639 721.496 C 776.21 724.913 776.011 723.413 775.346 727.162 C 771.008 730.778 749.061 729.412 741.992 729.499 L 742.013 753.211 C 751.801 753.253 774.546 750.188 780.79 756.85 C 781.099 760.237 781.355 758.906 779.872 761.91 C 772.983 764.727 738.295 763.596 729.147 763.092 C 728.063 746.552 728.628 706.235 729.261 688.996 z" fill="rgb(0,0,0)" transform="translate(0,0)"></path>
<path d="M 821.159 688.507 C 832.051 688.358 868.825 687.327 877.115 689.798 C 878.631 691.942 878.948 697.696 876.324 698.331 C 870.701 699.691 860.405 699.113 854.763 699.03 L 854.848 744.489 C 854.923 750.927 856.943 759.654 851.938 763.756 C 848.406 764.226 847.939 764.229 844.48 763.397 C 844.002 762.886 843.425 762.269 842.748 761.547 C 841.269 744.142 842.111 715.891 842.23 699.142 C 835.882 699.097 823.663 701.406 819.164 696.915 C 817.961 694.076 818.595 692.553 819.265 689.595 L 821.159 688.507 z" fill="rgb(0,0,0)" transform="translate(0,0)"></path>
<path d="M 1083.53 404.805 C 1086.94 398.019 1097.33 375.959 1102.87 372.807 C 1104.23 372.951 1105.7 372.755 1106.45 374.243 C 1110.52 382.349 1111.21 422.267 1104.94 427.239 L 1103.38 426.944 C 1099.97 422.422 1101.01 407.332 1100.98 400.5 L 1100.83 386.872 C 1096.84 393.761 1089.79 412.608 1082.04 413.335 C 1076.7 410.589 1068.65 392.398 1065.46 386.107 C 1065.51 393.155 1066.11 419.432 1065.34 424.949 C 1062.78 426.188 1062.36 425.668 1059.26 425.426 C 1056.54 421.991 1058.03 380.919 1058.08 373.873 C 1061.07 373.744 1061.95 373.785 1064.89 374.245 C 1071.01 378.558 1079.53 397.267 1083.53 404.805 z" fill="rgb(0,0,0)" transform="translate(0,0)"></path>
<path d="M 1086 688.1 C 1091.21 687.898 1093.39 687.171 1097.23 690.184 C 1098.79 696.589 1098.03 743.602 1097.99 753.07 C 1106.8 753.122 1126.66 750.63 1132.24 754.972 C 1133.7 757.616 1132.94 759.955 1132.5 763.098 C 1116.73 763.349 1100.97 763.336 1085.2 763.061 C 1084.63 753.287 1084.6 695.319 1086 688.1 z" fill="rgb(0,0,0)" transform="translate(0,0)"></path>
<path d="M 1191.43 373.693 L 1196.54 373.84 C 1203.39 376.782 1218.46 403.045 1225.39 410.822 L 1225.95 411.442 C 1225.91 403.899 1225.38 381.366 1226.19 375.074 L 1227.89 373.937 C 1231.8 373.899 1230.57 373.414 1233.36 375.202 C 1234.88 384.612 1233.99 415.58 1233.92 426.314 C 1231.96 426.277 1230.01 426.056 1228.06 425.87 C 1221.49 421.716 1205.29 396.135 1199.33 387.631 C 1199.2 398.711 1199.62 410.068 1199.58 421.166 C 1199.57 423.766 1198.19 424.57 1196.54 426.026 C 1193.14 426.381 1194.34 426.742 1191.91 424.926 C 1190.57 411.543 1191.34 387.869 1191.43 373.693 z" fill="rgb(0,0,0)" transform="translate(0,0)"></path>
<path d="M 694.142 373.911 C 700.553 373.947 727.223 372.698 730.715 375.397 L 730.804 378.21 C 725.975 382.727 709.827 380.899 702.536 380.734 L 702.55 396.596 C 707.361 396.482 724.837 395.158 727.209 400.05 C 722.273 404.235 708.899 403.097 702.34 402.982 L 702.327 419.095 C 709.536 419.114 726.743 417.312 731.683 421.265 C 732.442 424.113 732.598 423.034 731.414 425.386 C 722.118 427.114 704.386 426.338 694.192 426.207 L 694.142 373.911 z" fill="rgb(0,0,0)" transform="translate(0,0)"></path>
<path d="M 1133.28 373.828 C 1141.66 373.851 1161.62 372.533 1168.57 374.763 C 1169.4 377.394 1169.47 376.157 1168.55 378.602 C 1163.58 381.97 1148.29 380.756 1141.51 380.636 L 1141.57 396.24 C 1149.29 396.185 1157.05 396.002 1164.74 396.497 L 1165.99 398.051 L 1165.72 400.311 C 1161.27 404.841 1148.36 401.924 1141.37 403.367 L 1141.35 419.398 C 1148.98 419.278 1157.34 418.832 1164.95 419.226 C 1168.94 419.432 1170.21 420.553 1170.73 424.115 L 1169.54 425.56 C 1161.09 426.896 1142.62 426.272 1133.2 426.172 L 1133.28 373.828 z" fill="rgb(0,0,0)" transform="translate(0,0)"></path>
<path d="M 1021.95 688.086 C 1026.96 687.914 1029.88 687.26 1033.59 690.301 C 1034.44 696.645 1034.75 757.544 1033.52 763.943 C 1029.6 764.072 1025.94 764.727 1022.89 762.477 C 1020.29 757.807 1020.51 695.594 1021.95 688.086 z" fill="rgb(0,0,0)" transform="translate(0,0)"></path>
<path d="M 998.949 373.913 C 1005.11 373.819 1031.05 372.566 1034.81 375.367 L 1034.97 378.186 L 1033.52 379.667 C 1027.33 381.814 1014.01 380.868 1006.95 380.73 L 1006.93 396.271 C 1015.21 396.034 1024.35 394.985 1031.81 398.621 L 1032.24 400.102 C 1026.68 404.399 1013.91 403.213 1006.91 403.037 L 1006.91 419.811 C 1014 419.842 1033.97 416.945 1037.23 423.178 L 1036.44 425.289 C 1027.9 426.843 1008.56 426.144 998.936 426.041 L 998.949 373.913 z" fill="rgb(0,0,0)" transform="translate(0,0)"></path>
<path d="M 1179.06 688.185 C 1183.47 687.9 1186.12 687.399 1189.58 689.894 C 1191.13 696.718 1190.85 754.27 1190.31 763.606 C 1185.58 764.045 1181.95 765.161 1178.3 761.781 C 1177.45 754.049 1177.11 692.173 1179.06 688.185 z" fill="rgb(0,0,0)" transform="translate(0,0)"></path>
<path d="M 890.768 373.833 C 896.369 373.796 923.167 372.447 926.647 375.416 L 926.683 378.186 L 925.191 379.61 C 919.004 381.689 905.53 380.66 898.578 380.471 L 898.595 396.575 C 903.652 396.434 921.286 395.056 923.928 400.016 C 919.031 403.974 906.376 402.94 900.031 402.815 L 899.328 403.488 C 898.092 406.689 898.634 415.855 898.686 419.788 C 906.492 419.617 915.066 419.113 922.861 419.517 C 927.028 419.733 928.01 420.944 928.248 424.59 C 924.791 427.314 897.299 426.289 890.716 426.282 L 890.768 373.833 z" fill="rgb(0,0,0)" transform="translate(0,0)"></path>
<path d="M 753.286 373.813 C 759.502 373.728 784.256 372.639 788.022 375.299 L 788.023 378.094 L 786.124 379.93 C 779.898 381.906 768.486 380.964 761.536 380.822 L 761.666 397.209 C 767.789 397.071 774.773 396.773 780.859 397.063 C 784.755 397.249 784.626 397.928 786.677 400.492 L 784.699 402.976 C 780.252 404.715 766.539 403.987 761.228 403.846 C 761.255 410.329 761.518 418.998 760.947 425.223 C 758.877 426.379 757.182 425.857 754.732 425.576 C 751.817 422.415 753.226 381.137 753.286 373.813 z" fill="rgb(0,0,0)" transform="translate(0,0)"></path>
<path d="M 802.906 373.901 C 811.845 373.804 840.953 372.181 846.355 376.086 C 846.952 378.85 847.047 377.533 846.077 380.176 C 841.577 381.262 833.792 380.898 828.92 380.867 L 828.959 406.75 L 829.023 409.489 C 829.126 414.232 830.16 423.023 827.114 426.205 C 823.864 426.134 823.391 426.716 821.391 424.934 C 820.245 415.698 820.951 391.244 821.006 380.827 C 815.486 380.658 810.075 382.02 805.092 380.372 C 802.44 377.808 803.239 378.529 802.906 373.901 z" fill="rgb(0,0,0)" transform="translate(0,0)"></path>
<path d="M 1252.06 374.043 C 1259.14 373.887 1287.82 372.482 1292.76 374.86 L 1293.47 377.741 L 1292.06 379.615 C 1288.18 381.199 1281.32 380.622 1276.89 380.544 L 1276.98 409.5 C 1277 414.242 1277.84 421.592 1276.01 425.4 C 1273.93 426.524 1272.79 426.046 1270.3 425.685 C 1267.44 421.989 1268.79 387.717 1268.85 380.255 C 1259.7 379.996 1254.38 383.934 1252.06 374.043 z" fill="rgb(0,0,0)" transform="translate(0,0)"></path>
<path d="M 639.5 373.805 C 642.945 373.736 643.58 373.711 646.874 374.654 C 648.399 378.762 647.681 413.054 647.648 419.336 C 656.261 419.546 664.531 417.89 672.549 420.404 C 674.541 422.656 673.895 422.574 673.85 426.239 L 639.559 426.205 C 639.362 408.848 639.518 391.188 639.5 373.805 z" fill="rgb(0,0,0)" transform="translate(0,0)"></path>
<path d="M 949.025 373.72 C 951.972 373.831 954.35 373.488 956.507 375.251 C 957.639 384.554 957.001 408.959 956.972 419.411 C 962.385 419.321 976.86 417.824 980.963 420.747 C 982.031 421.508 981.975 424.403 982.157 426.121 L 948.945 426.164 L 949.025 373.72 z" fill="rgb(0,0,0)" transform="translate(0,0)"></path>
<metadata><recraft-signature>{"signed_by": "recraft", "signature_b64": "w7P6v4mdXWKGIOAz25e5CKglzu5QEJCeH4nzvNPffRDGWWY4gSucnvqv8mnAeDBJvsKaSZoeZ0r9skJxBoYVAg==", "signing_algo": "Ed25519", "generation_timestamp": 1778259147, "identifier": "0d46f76e-c44f-4d9f-9a31-ee5e666a906a"}</recraft-signature></metadata></svg>