<svg xmlns="http://www.w3.org/2000/svg" height="1024" preserveAspectRatio="none" style="display: block;" version="1.1" viewBox="0 0 2048 1152" width="1820">
<path d="M 0 0 L 2048 0 L 2048 1152 L 0 1152 L 0 0 z" fill="rgb(254,254,254)" transform="translate(0,0)"></path>
<path d="M 943.987 93.5571 C 1001.59 89.6164 1067.45 94.1228 1125.72 93.939 C 1185.82 93.774 1245.92 94.402 1306 95.823 C 1328.22 96.151 1350.91 95.8628 1372.69 96.4692 C 1417.09 97.705 1453.65 129.669 1452.11 175.91 C 1451.33 199.551 1450.19 223.473 1449.27 247.155 C 1446.61 302.612 1445.12 358.12 1444.8 413.64 C 1471.45 415.928 1510.94 414.664 1538.19 414.762 C 1605.32 415.326 1672.45 415.468 1739.58 415.189 C 1772.54 415.214 1805.54 414.811 1838.48 415.32 C 1846.06 415.438 1848.49 418.589 1848.86 425.802 C 1849.86 445.446 1850.35 465.764 1850.78 485.364 L 1853.47 586.214 L 1858.69 733.054 C 1859.94 764.121 1860.98 795.329 1862.26 826.4 C 1862.42 830.331 1862.46 838.187 1859.82 841.075 C 1855.64 845.644 1851.06 847.962 1844.96 849.232 C 1813.21 855.843 1781 861.648 1749.33 868.582 L 1506.31 922.574 L 1090.98 1017.48 C 1073.85 1021.2 1044.9 1029.64 1028.87 1031.68 C 1007.12 1034.45 956.833 1019.24 934.106 1014.04 L 786.563 980.353 L 351.72 882.229 C 333.75 878.257 195.553 850.509 188.128 844.082 C 185.104 841.465 184.9 828.257 184.847 823.931 C 184.688 810.922 185.971 797.894 186.489 784.9 L 188.872 715.924 L 194.668 535.903 C 195.91 496.824 197.875 457.042 197.873 417.982 L 597.29 415.816 C 598.111 388.367 596.042 353.478 595.414 325.474 L 593.248 187.323 C 592.756 161.471 594.506 140.92 613.846 121.835 C 647.437 88.686 710.477 97.629 754.221 96.8665 L 943.987 93.5571 z" fill="rgb(1,1,1)" transform="translate(0,0)"></path>
<path d="M 849.006 425.5 C 862.724 425.058 877.307 425.819 891.129 425.784 L 1015 425.929 L 1261.16 426.854 L 1836.6 428.175 C 1836.78 462.911 1850.7 830.844 1848.71 832.933 C 1846.05 835.718 1841.19 836.772 1837.57 837.612 C 1815.5 842.744 1792.93 846.41 1770.74 851.186 C 1717.19 862.672 1663.72 874.524 1610.33 886.742 L 1524.43 905.745 C 1503.01 910.526 1479.32 917.206 1457.4 917.18 C 1430.51 917.148 1403.57 916.595 1376.67 916.4 L 1201.5 915.894 L 937.971 916.403 C 822.797 915.835 707.621 916.364 592.458 917.989 C 568.929 918.552 541.459 910.351 518.056 905.168 L 426.419 885.032 L 273.179 851.427 C 252.522 846.939 231.671 843.146 211.064 838.44 C 201.188 836.184 198.154 835.726 198.362 825.175 C 199.269 779.225 200.97 733.27 202.61 687.341 C 205.974 601.98 208.547 516.59 210.33 431.181 C 238.858 430.206 270.708 430.908 299.576 430.87 L 425.984 430.037 L 849.006 425.5 z" fill="rgb(254,254,254)" transform="translate(0,0)"></path>
<path d="M 1242.98 479.423 C 1252.67 478.569 1263.92 478.37 1273.56 479.687 C 1331.91 487.659 1353.89 557.09 1303.95 592.989 C 1277.51 606.685 1255.43 602.95 1226.01 602.235 C 1226 588.824 1223.39 486.363 1226.84 481.485 C 1231.17 479.642 1238.08 479.689 1242.98 479.423 z" fill="rgb(1,1,1)" transform="translate(0,0)"></path>
<path d="M 1246.35 497.024 C 1263.76 496.863 1281.56 495.31 1295.13 508.549 C 1313.25 526.231 1313.14 554.985 1295.68 572.94 C 1280.55 585.44 1265.24 584.472 1246.6 584.756 C 1247.25 570.69 1246.39 558.874 1246.17 544.934 C 1246.02 528.964 1246.08 512.993 1246.35 497.024 z" fill="rgb(254,254,254)" transform="translate(0,0)"></path>
<path d="M 608.645 661.309 C 650.813 657.983 659.568 707.168 642.779 736.984 C 636.657 747.856 625.976 753.054 614.089 755.731 C 562.127 760.513 556.411 672.547 608.645 661.309 z" fill="rgb(1,1,1)" transform="translate(0,0)"></path>
<path d="M 610.685 674.193 C 645.743 674.491 645.758 733.501 613.354 742.93 C 600.592 743.643 590.836 737.498 588.175 724.889 C 583.646 703.426 587.363 680.169 610.685 674.193 z" fill="rgb(254,254,254)" transform="translate(0,0)"></path>
<path d="M 558.517 481.346 C 577.82 479.177 597.762 486.646 613.043 498.132 C 613.101 504.187 613.89 511.866 608.33 515.478 C 602.864 514.28 591.536 506.48 584.877 503.896 C 572.705 499.006 556.358 498.657 544.256 504.167 C 510.931 519.463 509.296 571.594 546.31 583.724 C 562.59 589.059 575.815 586.434 590.796 579.122 C 597.961 574.46 601.241 568.698 609.061 568.435 C 610.751 569.494 612.182 570.156 612.351 572.424 C 613.796 591.797 586.438 602.174 572.038 604.326 C 553.997 607.022 535.307 604.644 520.904 594.007 C 507.878 584.266 499.359 569.66 497.291 553.527 C 495.107 536.609 499.802 519.523 510.323 506.096 C 522.742 490.302 539.169 483.549 558.517 481.346 z" fill="rgb(1,1,1)" transform="translate(0,0)"></path>
<path d="M 893.355 481.075 C 919.707 480.914 951.527 479.97 977.304 481.398 L 977.519 497.882 C 957.246 499.051 935.757 496.804 914.066 498.566 C 913.81 508.018 913.985 518.135 913.981 527.642 C 929.532 527.884 945.086 528.018 960.639 528.043 L 960.78 542.771 C 959.707 544.009 958.839 544.893 956.857 544.901 C 942.186 544.959 928.658 544.01 913.957 545.814 C 913.938 557.829 915.05 589.074 913.658 599.408 C 909.952 602.508 896.452 601.412 891.162 601.312 C 891.18 597.327 891.377 593.066 891.627 589.068 C 893.436 560.157 892.676 531.229 892.724 502.284 C 892.736 495.084 892.483 488.246 893.355 481.075 z" fill="rgb(1,1,1)" transform="translate(0,0)"></path>
<path d="M 720.919 791.044 C 734.183 791.317 755.66 790.075 765.831 798.813 C 782.171 812.849 779.025 834.913 766.504 850.217 C 753.576 859.98 735.293 859.517 719.871 858.139 C 719.013 846.97 719.881 801.561 720.919 791.044 z" fill="rgb(1,1,1)" transform="translate(0,0)"></path>
<path d="M 730.984 802.163 C 740.46 801.9 749.205 801.304 757.089 807.492 C 769.677 817.373 766.418 831.277 757.562 842.316 C 748.267 848.921 742.021 848.808 731.041 848.813 C 730.863 833.264 730.845 817.713 730.984 802.163 z" fill="rgb(254,254,254)" transform="translate(0,0)"></path>
<path d="M 1220.32 657.558 C 1225.14 660.695 1267.35 711.866 1276.88 721.449 C 1276.31 703.382 1275.85 684.921 1275.51 666.816 C 1275.47 664.535 1277.06 661.282 1278.92 660.138 C 1282.29 658.063 1283.11 658.317 1286.28 658.921 C 1287.96 660.265 1289.02 661.744 1289.16 664.746 C 1290.46 693.991 1289.98 724.189 1289.74 753.51 C 1289.3 754.109 1288.85 754.707 1288.41 755.306 C 1270.34 736.89 1250.57 710.379 1232.15 690.109 C 1231.62 709.03 1233.02 733.641 1233.2 753.276 C 1229.03 753.473 1224.21 753.386 1219.98 753.415 C 1219.89 734.678 1219.7 715.942 1219.41 697.208 C 1219.29 688.111 1218.82 666.067 1220.32 657.558 z" fill="rgb(1,1,1)" transform="translate(0,0)"></path>
<path d="M 928.15 657.584 C 929.654 659.044 966.183 744.123 968.509 751.705 L 955.55 751.995 C 952.097 746.368 949.593 740.098 946.955 734.031 L 931.416 734.034 C 924.078 734.068 916.741 734.224 909.409 734.503 C 906.171 742.204 902.604 757.353 891.071 750.086 C 894.248 738.846 905.236 714.738 909.945 703.045 C 915.361 689.593 922.26 669.663 928.15 657.584 z" fill="rgb(1,1,1)" transform="translate(0,0)"></path>
<path d="M 928.126 688.741 C 931.483 693.976 939.564 715.662 941.482 721.899 L 931.25 721.851 L 915.335 721.97 C 918.079 712.581 924.339 698.149 928.126 688.741 z" fill="rgb(254,254,254)" transform="translate(0,0)"></path>
<path d="M 700.229 658.702 C 704.784 663.387 725.644 725.938 731.411 735.174 C 733.353 738.284 737.648 748.448 734.91 751.922 C 722.009 757.625 719.922 743.719 716.172 734.293 L 699.222 734.624 L 681.254 735.048 C 676.979 742.424 675.782 755.619 664.826 753.651 C 661.259 750.735 663.001 746.087 665.074 742.416 C 676.461 722.249 688.875 675.735 700.229 658.702 z" fill="rgb(1,1,1)" transform="translate(0,0)"></path>
<path d="M 698.424 691.46 C 701.866 693.977 710.285 717.675 712.193 723.132 L 700.25 723.543 L 686.16 723.6 C 689.243 714.033 694.648 701.164 698.424 691.46 z" fill="rgb(254,254,254)" transform="translate(0,0)"></path>
<path d="M 1317.3 659.965 C 1325.63 659.494 1363.52 658.347 1368.46 662.738 C 1371.67 679.42 1342.68 673.662 1331.59 673.555 C 1331.51 681.71 1331.52 689.867 1331.6 698.023 C 1339.86 698.126 1354.95 695.128 1360.64 700.729 C 1362.62 703.876 1361.58 708.121 1361.13 712.014 C 1351.54 712.078 1341.69 711.603 1332.08 711.254 L 1332.06 728.25 L 1332.2 742.003 C 1341.9 741.776 1368.97 738.186 1372.37 748.524 C 1371.79 752.062 1371.53 752.432 1369.25 755.223 C 1362.5 757.297 1328.5 755.266 1319.07 754.899 C 1319.15 726.073 1318.17 688.968 1317.3 659.965 z" fill="rgb(1,1,1)" transform="translate(0,0)"></path>
<path d="M 527.674 663.196 C 528.73 663.096 529.788 663.01 530.847 662.937 C 538.554 662.412 550.15 663.212 556.218 668.75 C 560.352 672.521 561.447 680.138 557.462 684.418 C 546.95 680.777 536.096 674.096 524.806 678.801 C 503.862 687.531 499.039 734.492 522.062 742.974 C 531.496 746.45 542.268 742.296 550.689 738.078 C 553.015 736.03 553.41 735.323 556.317 734.899 C 565.822 740.829 551.336 753.362 544.057 755.534 C 481.226 774.286 475.062 678.469 527.674 663.196 z" fill="rgb(1,1,1)" transform="translate(0,0)"></path>
<path d="M 776.177 659.296 C 782.656 658.781 788.663 658.538 794.544 661.61 C 799.131 664.006 806.869 669.795 804.023 675.54 C 793.215 680.431 780.466 666.27 772.037 676.091 C 770.238 678.17 769.4 680.912 769.731 683.641 C 771.42 697.475 808.978 704.594 808.375 724.51 C 807.777 744.303 795.021 752.544 776.638 753.799 C 775.614 753.681 774.595 753.523 773.584 753.325 C 764.526 751.555 750.895 743.866 753.054 733.138 C 759.874 726.482 765.837 735.247 770.885 738.856 C 773.045 740.4 781.444 741.705 783.747 740.504 C 809.803 726.915 782.376 714.036 769.985 705.572 C 750.469 691.676 751.562 666.601 776.177 659.296 z" fill="rgb(1,1,1)" transform="translate(0,0)"></path>
<path d="M 1408.22 661.248 C 1419.84 660.008 1432.23 662.39 1439.43 672.285 C 1439.72 674.849 1439.63 675.071 1437.73 677.385 C 1430.18 686.576 1426.57 670.882 1411.21 673.319 C 1392.75 684.541 1418.3 698.866 1426.9 705.307 C 1449.21 722.029 1451.56 751.46 1419.58 757.909 C 1409.71 758.104 1390.29 751.151 1388.3 740.758 C 1393.34 731.947 1402.5 739.342 1408.18 742.881 C 1415.23 747.279 1425.92 745.723 1428.48 737.136 C 1434.82 715.847 1398.15 709.799 1392.91 691.29 C 1388.33 675.107 1393.53 667.034 1408.22 661.248 z" fill="rgb(1,1,1)" transform="translate(0,0)"></path>
<path d="M 1102.22 658.079 C 1112.51 657.914 1146.93 657.27 1153.46 661.762 C 1163.75 677.958 1124.91 668.186 1116.49 671.9 C 1113.02 676.386 1114.58 688.625 1114.8 695.065 C 1122.45 695.1 1137.25 693.101 1143.09 696.88 C 1144.72 699.567 1144.18 702.322 1144.05 705.612 C 1142.42 708.294 1143.4 707.422 1139.74 708.586 C 1131.5 708.254 1123.25 707.979 1114.99 707.761 L 1114.94 752.157 L 1102.06 752.191 C 1101.35 747.387 1101.37 743.469 1101.55 738.62 C 1102.55 711.795 1101.57 684.908 1102.22 658.079 z" fill="rgb(1,1,1)" transform="translate(0,0)"></path>
<path d="M 1277.81 794.187 C 1286.56 792.956 1305.97 793.55 1308.96 805.438 C 1309.57 807.855 1308.99 808.098 1307.68 809.912 C 1304.51 810.669 1292.39 805.985 1286.65 805.134 C 1263.28 801.407 1256.6 825.875 1266.75 842.694 C 1272.24 851.804 1292.24 855.244 1299.75 848.798 C 1301.47 844.867 1301.03 839.284 1301.01 834.856 C 1295.74 835.276 1290.67 836.118 1285.71 834.336 C 1285.77 831.167 1285.58 830.166 1286.86 827.211 C 1291.47 823.165 1304.01 825.722 1311.98 825.817 C 1312.24 835.143 1312 845.089 1311.93 854.467 C 1298.37 862.294 1283.06 865.537 1268.46 858.214 C 1260.38 854.224 1254.32 847.065 1251.72 838.441 C 1244.81 816.155 1256.57 800.211 1277.81 794.187 z" fill="rgb(1,1,1)" transform="translate(0,0)"></path>
<path d="M 1167.96 791.211 C 1172.42 792.507 1206.8 830.504 1214.12 837.227 C 1214 829.489 1213.7 821.582 1213.76 813.861 C 1213.8 806.745 1211.67 795.94 1218.43 791.912 C 1221.95 792.473 1220.74 791.81 1223.05 794.276 C 1224.68 802.241 1225.38 850.848 1224.96 860.487 C 1224.77 860.512 1224.58 860.556 1224.39 860.562 C 1219.5 860.704 1184.79 823.366 1178.61 817.306 C 1178.39 823.947 1178.96 855.249 1178.09 858.387 C 1174.43 860.186 1172.31 860.225 1168.95 858.194 C 1166.93 852.287 1167.96 800.865 1167.96 791.211 z" fill="rgb(1,1,1)" transform="translate(0,0)"></path>
<path d="M 1458.46 664.179 C 1466.63 664.16 1512.1 663.504 1517.27 667.111 C 1521.7 680.032 1501.62 676.31 1494.09 676.039 C 1494.03 695.512 1495.44 716.436 1495.89 736.181 C 1496.1 743.354 1498.04 752.868 1492.42 757.653 C 1488.76 758.265 1488.15 758.391 1484.36 757.719 C 1483.88 757.179 1483.31 756.526 1482.63 755.762 C 1480.97 732.519 1480.91 698.357 1479.87 676.059 C 1472.49 676.18 1460.13 678.21 1456.32 671.213 C 1456.27 667.633 1456.53 667.224 1458.46 664.179 z" fill="rgb(1,1,1)" transform="translate(0,0)"></path>
<path d="M 963.19 789.71 C 967.629 793.333 989.592 845.941 993.174 854.534 C 993.59 855.532 991.923 856.832 991.211 857.594 C 987.834 858.56 988.372 858.985 985.626 858.081 C 982.247 854.394 980.352 849.869 978.156 845.372 L 966.665 845.68 C 950.879 845.474 946.641 842.345 942.855 855.831 C 942.343 857.656 939.307 858.323 937.452 858.765 C 934.295 857.593 935.379 858.432 933.451 855.46 C 932.34 849.873 949.632 819.778 952.311 811.48 C 953.7 807.175 960.742 793.64 963.19 789.71 z" fill="rgb(1,1,1)" transform="translate(0,0)"></path>
<path d="M 962.595 813.596 C 966.05 816.227 973.441 831.033 970.649 835.574 L 965.804 835.803 C 961.673 835.721 957.167 835.37 953.009 835.128 C 955.398 827.98 959.284 820.461 962.595 813.596 z" fill="rgb(254,254,254)" transform="translate(0,0)"></path>
<path d="M 801.24 791.135 C 808.894 791.123 842.811 789.444 846.695 794.43 C 846.869 798.361 847.345 797.047 845.335 799.731 C 838.914 803.18 820.487 801.82 811.787 802.012 L 811.924 819.229 C 817.388 819.268 831.228 818.781 835.429 820.192 C 838.067 823.019 837.436 821.616 837.803 825.463 C 833.188 833.172 821.222 826.368 812.8 829.851 L 812.185 831.871 L 812.148 848.11 C 819.618 848.234 841.736 845.741 846.297 851.39 C 846.49 854.594 846.674 853.311 844.895 856.555 C 839.37 859.223 809.08 858.105 800.729 858.018 C 799.491 841.619 800.2 807.556 801.24 791.135 z" fill="rgb(1,1,1)" transform="translate(0,0)"></path>
<path d="M 828.448 659.46 C 836.886 659.107 874.201 658.341 880.77 659.574 C 882.249 661.461 882.289 667.394 881.43 669.64 C 877.222 672.051 864.132 671.748 858.75 671.862 L 858.898 734.5 C 858.992 739.238 859.827 746.554 857.308 750.375 C 854.104 751.573 849.962 751.732 847.085 749.654 C 844.785 742.569 846.802 684.389 846.967 672.034 C 836.952 671.523 820.775 676.876 825.694 660.72 L 828.448 659.46 z" fill="rgb(1,1,1)" transform="translate(0,0)"></path>
<path d="M 1396.86 825.393 C 1432.47 826.44 1468.09 828.701 1503.71 829.788 C 1510.81 830.005 1525.41 828.948 1522.83 839.995 C 1521 842.477 1520.07 842.505 1517.07 843.516 C 1490.92 842.094 1464.77 840.904 1438.61 839.947 C 1428.83 839.582 1399.15 840.178 1392.29 835.474 C 1390.26 832.352 1390.61 833.788 1390.98 830.079 C 1392.99 827.043 1393.5 826.862 1396.86 825.393 z" fill="rgb(1,1,1)" transform="translate(0,0)"></path>
<path d="M 989.294 658.152 C 991.199 657.994 1000.23 657.051 1000.74 659.778 C 1003.17 672.621 998.579 732.089 1004.24 738.733 C 1016.84 746.079 1040.38 724.496 1037.51 752.585 C 1021.48 752.58 1004.92 752.14 988.845 751.953 C 987.986 738.036 989.603 723.726 989.536 709.91 C 989.45 692.387 988.821 675.71 989.294 658.152 z" fill="rgb(1,1,1)" transform="translate(0,0)"></path>
<path d="M 622.835 827.45 C 629.344 826.874 636.787 828.561 634.516 836.904 C 632.47 839.085 629.188 840.022 626.268 840.129 C 590.702 841.429 554.85 843.013 519.319 844.675 C 515.213 844.762 512.132 844.767 508.041 844.488 C 504.967 842.324 505.858 843.512 504.617 840.051 C 504.957 837.247 506.018 833.866 509.086 833.334 C 524.671 830.632 543.071 830.74 558.797 830.309 C 580.163 829.866 601.515 828.913 622.835 827.45 z" fill="rgb(1,1,1)" transform="translate(0,0)"></path>
<path d="M 1180.7 658.041 L 1181.52 658.116 C 1186.58 658.607 1187.4 658.296 1190.26 661.765 C 1191.03 667.151 1191.18 750.725 1190.53 752.247 L 1188.21 753.017 C 1184.77 753.087 1181.47 753.466 1178.39 751.957 C 1175.71 747.13 1178.93 676.157 1177.68 664.894 C 1177.35 661.888 1178.58 660.016 1180.7 658.041 z" fill="rgb(1,1,1)" transform="translate(0,0)"></path>
<path d="M 869.288 791.146 C 881.483 791.029 893.895 790.827 906.077 790.965 C 913.25 791.046 914.745 790.876 919.054 795.412 C 919.66 797.969 919.883 797.188 918.88 799.048 C 914.135 802.626 906.023 801.868 900.126 801.77 C 899.587 813.724 900.018 827.652 900.112 839.75 C 900.218 845.357 901.735 855.249 896.569 858.428 C 886.344 857.284 888.965 841.352 888.869 833.52 C 888.74 823.053 888.987 812.432 889.039 801.949 C 883.036 802.115 873.026 803.769 868.941 799.111 C 867.725 795.973 868.46 794.351 869.288 791.146 z" fill="rgb(1,1,1)" transform="translate(0,0)"></path>
<path d="M 1059.57 790.571 C 1063.24 790.543 1064.9 790.344 1068.44 791.639 C 1070.97 796.149 1069.62 840.075 1069.53 848.309 C 1077.52 848.377 1096.41 846.644 1102.08 850.797 C 1103.81 854.574 1103.18 853.986 1102.73 858.688 C 1092.96 859.552 1069.76 858.824 1059.13 858.601 C 1058.38 845.589 1058.59 803.191 1059.57 790.571 z" fill="rgb(1,1,1)" transform="translate(0,0)"></path>
<path d="M 1127.57 791.811 C 1130.72 791.779 1135.25 791.381 1137.52 793.341 C 1138.79 801.796 1138.2 848.859 1137.57 858.913 C 1133.25 859.159 1130.74 859.694 1127.56 857.244 C 1126.63 850.583 1127.2 838.866 1127.3 831.854 C 1127.5 818.507 1127.59 805.159 1127.57 791.811 z" fill="rgb(1,1,1)" transform="translate(0,0)"></path>
<path d="M 1020.99 790.648 C 1023.26 790.573 1028.7 790.458 1029.08 791.353 C 1032.66 799.904 1031.86 853.264 1029.45 858.709 C 1024.83 858.771 1024.66 859.507 1021.28 857.476 C 1019.61 852.345 1020.87 799.65 1020.99 790.648 z" fill="rgb(1,1,1)" transform="translate(0,0)"></path>
<path d="M 958.936 929.413 C 967.403 929.191 977.683 929.992 986.603 930.002 L 1071.84 929.989 L 1259.21 928.676 L 1365.92 928.981 C 1379.97 929.079 1401.46 928.117 1414.61 929.592 C 1383.05 937.872 1347.68 944.887 1315.47 952.465 C 1235.7 971.452 1155.79 989.883 1075.76 1007.76 C 1058.79 1011.27 1034.47 1018.9 1018.06 1018.92 C 1009.52 1018.92 986.439 1012.87 977.249 1010.71 L 910.009 995.101 C 816.076 974.101 722.27 952.537 628.596 930.41 C 650.938 928.657 676.545 930.656 699.274 930.559 L 886.003 930.303 C 908.957 930.068 936.364 930.782 958.936 929.413 z" fill="rgb(254,254,254)" transform="translate(0,0)"></path>
<path d="M 938.423 105.467 C 946.947 104.855 951.465 105.722 959.685 107.524 C 964.513 107.215 965.395 105.49 970.363 105.994 C 1006.26 109.633 1044.4 104.567 1080.98 107.825 C 1083.29 108.031 1086.87 105.985 1088.04 105.936 C 1092.33 105.757 1099.63 109.903 1103.24 106.648 C 1100.07 104.219 1098.69 107.692 1095.34 105.66 C 1104.68 105.929 1115.37 104.966 1124.47 105.541 C 1184.67 109.343 1244.15 103.981 1304.62 109.293 C 1333.68 111.846 1362.98 107.359 1392.16 114.377 C 1414.12 119.655 1432.77 137.546 1437.94 160.359 C 1440.62 182.052 1437.58 208.223 1437.24 230.388 C 1436.31 291.291 1430.44 353.09 1430.03 413.909 L 1408.69 414.154 C 1408.11 396.661 1410 372.271 1410.66 354.087 C 1412.77 296.066 1417.03 238.239 1417.62 180.114 C 1417.82 160.03 1416.47 155.687 1402.01 140.439 C 1396.36 134.481 1382.05 130.665 1373.94 130.064 C 1348.6 128.183 1321.38 129.156 1295.91 129.006 C 1246.86 128.284 1197.8 128.054 1148.75 128.317 C 1090.56 129.429 1025.75 128.312 967.403 127.638 C 891.493 126.933 815.576 127.69 739.694 129.908 C 715.354 130.46 690.307 129.03 666.218 131.244 C 650.828 132.659 628.186 146.87 627.702 164.248 C 625.38 247.699 632.929 331.703 632.031 415.254 C 624.116 415.337 620.292 415.245 612.467 414.188 C 612.684 406.028 611.806 393.63 611.664 385.026 C 611.435 358.248 610.76 331.475 609.64 304.719 C 608.382 267.44 609.459 230.059 607.648 192.735 C 606.656 172.284 604.221 152.702 618.343 136.185 C 626.978 125.905 638.641 118.618 651.666 115.362 C 684.939 106.846 734.504 111.578 769.491 109.682 C 825.258 106.661 882.829 109.665 938.423 105.467 z" fill="rgb(254,254,254)" transform="translate(0,0)"></path>
<path d="M 756.727 161.318 C 765.526 161.001 801.472 158.876 806.622 162.883 C 808.354 166.972 809.14 172.944 809.19 178.643 C 809.641 229.712 808.509 281.176 807.744 332.239 C 807.724 333.598 805.265 334.356 803.945 334.981 C 788.728 336.224 768.664 337.095 753.71 334.29 L 753.52 332.719 C 750.341 305.419 753.847 263.18 753.089 234.495 C 752.534 213.536 753.944 187.903 754.285 166.616 C 754.33 163.798 755.097 163.382 756.727 161.318 z" fill="rgb(254,254,254)" transform="translate(0,0)"></path>
<path d="M 906.657 160.417 C 913.609 159.023 939.748 160.227 947.54 160.864 C 950.167 182.782 948.767 211.93 948.524 234.502 C 948.425 267.54 948.14 300.576 947.669 333.61 L 935.241 334.852 C 924.97 335.363 903.306 337.305 894.697 332.355 C 890.959 323.9 894.486 179.29 895.499 161.612 C 898.635 161.061 903.362 160.741 906.657 160.417 z" fill="rgb(254,254,254)" transform="translate(0,0)"></path>
<path d="M 836.803 160.225 C 842.435 160.116 876.905 157.953 877.915 164.41 C 878.689 171.046 879.783 188.204 878.89 194.301 C 875.973 214.2 881.325 323.047 875.631 333.402 C 873.202 335.528 868.554 335.227 865.056 335.403 C 853.929 336.383 837.115 335.449 825.976 334.227 C 823.338 321.737 822.515 175.724 826.58 163.855 C 829.341 161.259 833.008 160.984 836.803 160.225 z" fill="rgb(254,254,254)" transform="translate(0,0)"></path>
<path d="M 1323.68 300.698 C 1324.32 300.698 1326.6 300.773 1326.96 300.998 C 1337.86 307.811 1364.35 339.158 1370.74 348.601 C 1364.91 355.683 1344.31 377.163 1336.11 381.02 C 1328.5 380.205 1291.75 342.38 1291.35 334.102 C 1294.56 326.687 1316.72 306.344 1323.68 300.698 z" fill="rgb(254,254,254)" transform="translate(0,0)"></path>
<path d="M 1381.96 147.847 C 1407.25 150.874 1406.37 188.906 1404.88 207.569 C 1399.2 213.623 1384.76 230.96 1377.98 233.05 C 1374.28 232.315 1375.13 232.256 1371.99 229.366 C 1321.04 173.137 1339.88 192.915 1381.96 147.847 z" fill="rgb(254,254,254)" transform="translate(0,0)"></path>
<path d="M 1326.53 199.644 C 1334.74 205.325 1366.39 236.929 1366.3 245.049 C 1363.19 253.256 1340.6 272.354 1332.76 279.366 C 1324.41 279.049 1316.84 269.117 1311.27 262.664 C 1307.41 257.822 1290.32 240.581 1292.14 234.589 C 1294.53 226.699 1320.52 204.803 1326.53 199.644 z" fill="rgb(254,254,254)" transform="translate(0,0)"></path>
<path d="M 1276.22 246.693 C 1286.62 249.86 1314.44 282.908 1319.09 292.864 C 1315.21 298.165 1290.47 322.414 1285.05 326.252 C 1275.39 325.122 1246.93 291.397 1242.37 281.768 C 1249.26 272.168 1267.3 255.407 1276.22 246.693 z" fill="rgb(254,254,254)" transform="translate(0,0)"></path>
<path d="M 1182.58 146.147 C 1183.24 146.151 1185.84 146.131 1186.28 146.412 C 1197.89 153.804 1220.73 176.754 1226.74 188.345 C 1220.01 197.65 1201.52 213.647 1192.09 222.329 C 1188.48 224.119 1185.24 221.734 1182.83 219.169 C 1174.06 209.794 1154.6 191.542 1150.65 179.809 C 1151.75 172.806 1175.94 152.268 1182.58 146.147 z" fill="rgb(254,254,254)" transform="translate(0,0)"></path>
<path d="M 1281.4 149.971 C 1289.26 152.34 1317.06 184.906 1319.47 193.112 C 1318.68 197.989 1290.57 222.858 1285.29 226.806 C 1281.87 226.539 1279.4 225.721 1276.97 223.219 C 1269.51 215.505 1247.32 194.952 1246.73 185.009 C 1249.28 176.983 1274.01 154.073 1281.4 149.971 z" fill="rgb(254,254,254)" transform="translate(0,0)"></path>
<path d="M 1232.62 195.827 C 1242.91 202.49 1265.54 228.914 1272.02 240.146 C 1266.98 246.804 1242.66 269.186 1235.51 275.213 C 1229.46 271.683 1195.98 237.135 1198.19 230.899 C 1200.61 224.082 1225.77 200.187 1232.62 195.827 z" fill="rgb(254,254,254)" transform="translate(0,0)"></path>
<path d="M 1372.48 252.636 C 1377.94 254.4 1395.01 275.923 1400.95 282.01 L 1400.17 319.284 C 1393.49 325.145 1388.16 331.089 1381 337.1 C 1378.34 334.922 1375.35 332.126 1372.73 329.804 C 1372.34 329.451 1371.96 329.089 1371.59 328.717 C 1328.38 285.106 1330.11 292.248 1372.48 252.636 z" fill="rgb(254,254,254)" transform="translate(0,0)"></path>
<path d="M 1136 285.842 C 1147.06 291.088 1171.75 320.247 1179.64 330.871 C 1171.09 340.176 1156.52 352.824 1146.77 362.369 C 1137.78 361.89 1104.41 325.149 1104.85 318.738 C 1108.07 310.8 1128.89 291.955 1136 285.842 z" fill="rgb(254,254,254)" transform="translate(0,0)"></path>
<path d="M 1276.16 345.606 C 1279.21 346.894 1282.03 348.658 1284.52 350.831 C 1289.73 355.392 1320.82 386.762 1323.18 395.154 C 1323.79 397.342 1311.17 409.058 1307.54 412.958 L 1294.41 413.111 C 1288.67 413.035 1282.7 412.791 1276.94 412.63 C 1264.58 400.613 1253.91 391.127 1244.96 376.371 C 1251.98 367.78 1267.86 353.256 1276.16 345.606 z" fill="rgb(254,254,254)" transform="translate(0,0)"></path>
<path d="M 1227.29 293.629 C 1236.23 293.79 1269.07 330.676 1270.2 339.43 C 1268.1 346.072 1246.86 364.081 1240.79 369.327 C 1239.14 370.148 1238.94 370.055 1237.15 370.421 C 1228.91 366.276 1201 334.88 1199.36 325.462 C 1200.56 319.528 1221.27 299.893 1227.29 293.629 z" fill="rgb(254,254,254)" transform="translate(0,0)"></path>
<path d="M 1181.46 241.717 C 1183.87 241.829 1186 242.322 1187.67 244.16 C 1194.59 251.797 1222.61 278.272 1223.12 287.074 C 1219.73 294.26 1199.02 311.521 1191.97 317.196 L 1190.02 317.992 C 1186.84 316.976 1183.58 314.336 1181.32 311.819 C 1144.3 270.655 1141.11 280.043 1181.46 241.717 z" fill="rgb(254,254,254)" transform="translate(0,0)"></path>
<path d="M 1183.17 337.552 C 1191.52 338.698 1220.44 373.664 1226.51 382.304 C 1221.41 389.116 1201.85 406.906 1194.71 412.857 C 1193.99 412.796 1190.63 412.415 1190.14 412.145 C 1179.38 406.261 1156.41 379.961 1151.1 370.348 C 1161.22 359.204 1172.49 348.245 1183.17 337.552 z" fill="rgb(254,254,254)" transform="translate(0,0)"></path>
<path d="M 1136.39 189.747 C 1143.31 191.792 1174.19 227.161 1175.52 235.882 C 1174.21 240.487 1148.96 262.254 1143.46 267.233 L 1141.67 267.492 C 1134.91 264.258 1105.63 230.598 1105.26 223.027 C 1108.39 215.199 1129.5 196.03 1136.39 189.747 z" fill="rgb(254,254,254)" transform="translate(0,0)"></path>
<path d="M 1089.39 330.45 C 1096.57 331.483 1130.3 367.555 1130.32 375.947 C 1126.91 382.196 1118.5 388.888 1112.98 393.84 C 1107.28 399.098 1097.44 410.45 1089.27 409.026 C 1086.1 403.828 1086.08 336.33 1089.39 330.45 z" fill="rgb(254,254,254)" transform="translate(0,0)"></path>
<path d="M 1374.99 357.666 C 1381.7 357.585 1389.94 368.801 1394.5 373.944 C 1395.33 386.065 1394.21 401.497 1393.66 413.865 C 1384.14 413.713 1374.2 413.939 1364.65 414.021 C 1356.4 408.956 1347.88 398.632 1342.36 390.694 C 1348.55 381.732 1366.45 365.731 1374.99 357.666 z" fill="rgb(254,254,254)" transform="translate(0,0)"></path>
<path d="M 1088.33 235.281 C 1089.39 235.353 1092.11 235.725 1092.88 236.307 C 1100.74 242.225 1127.3 268.941 1129.61 276.986 C 1128.9 282.879 1117.7 292.077 1112.93 296.552 C 1108.08 301.199 1096.4 314.883 1089.57 309.84 C 1086.5 301.265 1086.32 244.422 1088.33 235.281 z" fill="rgb(254,254,254)" transform="translate(0,0)"></path>
<path d="M 1089.44 145.727 C 1090.42 145.722 1095.02 145.788 1095.48 146.008 C 1104.71 150.428 1126.86 176.427 1131.47 184.176 C 1125.78 189.513 1120.13 194.887 1114.51 200.297 C 1107.79 207.168 1099.96 217.953 1089.36 213.74 C 1087.21 205.909 1088.24 155.24 1089.44 145.727 z" fill="rgb(254,254,254)" transform="translate(0,0)"></path>
<path d="M 1301.43 140.148 C 1314.14 140.625 1326.83 140.574 1339.53 140.926 C 1347.17 141.137 1363.44 139.872 1366.59 148.219 C 1365.33 153.318 1352.96 163.108 1348.62 166.915 C 1343.11 172.395 1338.25 177.618 1331.83 182.01 C 1321.97 174.677 1309.89 159.953 1302.93 149.513 C 1300.04 145.161 1300.41 144.386 1301.43 140.148 z" fill="rgb(254,254,254)" transform="translate(0,0)"></path>
<path d="M 1213.71 139.381 C 1224.92 139.677 1236.06 139.456 1247.26 139.565 C 1254.46 139.635 1266.57 138.545 1269.97 146.081 C 1269.28 151.635 1256.14 161.953 1251.3 166.29 C 1246.48 170.895 1242.99 175.457 1236.22 175.501 C 1229.27 171.874 1208.69 150.009 1206.22 143.035 C 1207.79 140.817 1210.91 140.285 1213.71 139.381 z" fill="rgb(254,254,254)" transform="translate(0,0)"></path>
<path d="M 1116.83 139.374 C 1130.71 139.2 1144.86 138.835 1158.74 139.202 C 1163.86 139.338 1168.03 140.146 1170.9 144.559 C 1170.5 150.278 1161.9 156.021 1156.95 160.384 C 1151.76 165.401 1147.86 168.94 1142.27 173.497 C 1135.84 168.283 1120.05 152.141 1116.01 144.614 C 1114.99 142.707 1116.03 141.337 1116.83 139.374 z" fill="rgb(254,254,254)" transform="translate(0,0)"></path>
<path d="M 1137.91 382.28 C 1145.02 383.951 1163.17 406.374 1168.69 412.807 L 1141.76 413.051 L 1108.91 413.012 C 1116.25 401.768 1127.26 390.344 1137.91 382.28 z" fill="rgb(254,254,254)" transform="translate(0,0)"></path>
<path d="M 1229.91 389.617 C 1236.75 389.422 1251.19 407.204 1256.27 412.76 C 1249.95 413.379 1243.6 413.761 1237.25 413.906 C 1233.17 413.876 1229.08 413.895 1225 413.962 C 1220.5 414.004 1213.78 414.515 1210.53 411.325 C 1211.19 405.801 1225.02 394.267 1229.91 389.617 z" fill="rgb(254,254,254)" transform="translate(0,0)"></path>
<path d="M 1402.89 223.633 L 1403.96 223.962 L 1404.63 225.279 C 1404.27 230.686 1403.28 253.16 1400.98 256.193 C 1398.46 255.594 1396.55 253.084 1394.61 251.107 C 1393.77 250.296 1392.96 249.468 1392.16 248.622 C 1382.47 238.26 1395.47 230.104 1402.89 223.633 z" fill="rgb(254,254,254)" transform="translate(0,0)"></path>
<path d="M 1328.59 403.478 C 1332.63 405.326 1336.1 407.186 1337.56 411.547 L 1336.57 413.099 L 1332.24 413.88 C 1328.27 413.888 1324.41 414.529 1321.99 411.151 C 1323.01 407.744 1325.8 405.932 1328.59 403.478 z" fill="rgb(254,254,254)" transform="translate(0,0)"></path>
<path d="M 980.407 135.339 C 984.998 135.108 1000.71 134.284 1003.52 136.222 L 1003.33 137.58 L 1000.94 136.95 C 994.286 135.932 984.41 139.425 979.46 136.714 L 980.407 135.339 z" fill="rgb(38,38,38)" transform="translate(0,0)"></path>
<path d="M 1508.5 280.89 C 1534.49 287.388 1563.26 296.142 1589.25 303.453 C 1644.02 318.82 1698.68 334.562 1753.23 350.677 L 1825.28 372.558 C 1835.95 375.822 1848.38 378.347 1858.49 382.899 C 1868.6 387.449 1875.04 397.443 1878.6 407.559 C 1885.82 428.055 1885.41 515.991 1886.05 541.525 C 1886.81 571.808 1888.32 602.156 1889.38 632.44 L 1894.29 774.092 C 1894.77 791.513 1896.41 819.85 1895.81 836.653 C 1895.61 842.579 1894.12 848.391 1891.47 853.693 C 1878.76 879.195 1853.02 879.772 1828.5 884.49 C 1808.24 888.284 1788.05 892.442 1767.95 896.961 L 1518.22 951.659 L 1151.42 1035.25 L 1067.6 1054.38 C 1056.82 1056.8 1032.26 1063.3 1022.48 1062.98 C 992.267 1061.97 953.775 1050.27 924.281 1043.46 C 872.361 1031.82 820.506 1019.9 768.718 1007.69 L 423.845 929.893 L 254.627 892.389 C 241.595 889.57 220.692 883.967 208.168 882.454 C 137.676 873.937 150.989 839.379 152.275 780.517 L 158.798 559.579 C 160.162 516.091 159.739 472.352 162.664 428.889 C 163.918 410.251 167.704 392.897 186.463 384.471 C 204.287 376.466 222.521 371.831 241.196 366.499 L 299.887 349.395 L 513.756 287.495 C 520.629 285.335 538.489 276.985 539.639 289.191 C 536.559 295.602 524.541 297.709 518.079 299.503 C 503.848 303.453 489.624 307.211 475.464 311.437 L 289.527 365.718 L 238.47 380.804 C 163.184 402.896 176.134 405.309 174.387 477.483 L 171.136 606.644 L 166.005 761.152 C 165.275 783.95 161.549 825.364 166.456 848.078 C 169.137 860.486 189.001 865.011 199.238 866.656 C 206.398 867.807 215.982 870.264 224.1 872.004 L 305.92 889.916 L 611.678 958.067 L 913.934 1027.56 C 946.742 1034.99 984.499 1046.02 1017.99 1050.42 C 1027.53 1051.67 1052.26 1044.61 1063.12 1042.12 L 1133.22 1025.76 L 1698.84 898.619 C 1754.23 886.388 1812.5 874.983 1867.9 862.417 C 1871.78 861.536 1878.42 853.533 1879.18 849.259 C 1883.95 822.258 1880.51 791.392 1879.89 763.606 C 1878.21 688.361 1875.81 613.133 1872.71 537.932 C 1871.43 501.205 1871 464.368 1869.28 427.652 C 1867.79 406.193 1861.01 397.133 1840.77 390.81 C 1757.95 364.934 1674.73 339.889 1591.06 316.921 L 1539.05 302.801 C 1530.35 300.517 1503.9 296.092 1500.15 288.826 C 1500.42 283.735 1504.41 282.393 1508.5 280.89 z" fill="rgb(1,1,1)" transform="translate(0,0)"></path>
<path d="M 187.942 427.405 C 194.08 430.95 189.383 439.142 187.314 444.543 C 185.531 443.565 186.362 444.155 185.097 442.017 C 184.86 437.637 186.774 431.793 187.942 427.405 z" fill="rgb(240,240,240)" transform="translate(0,0)"></path>
<metadata><recraft-signature>{"signed_by": "recraft", "signature_b64": "8BJkhe14vUNgty0jcyQ/IwtKBYfp2naosfhqVIykvEReIV4766xKXxHDURoNY3fKrxI4qe2NOZKhGh+wKVYWCA==", "signing_algo": "Ed25519", "generation_timestamp": 1778259132, "identifier": "37ed8444-1d23-44b7-99bf-b2a4d78a60d9"}</recraft-signature></metadata></svg>