<svg xmlns="http://www.w3.org/2000/svg" direction="ltr" width="2048" height="2048" viewBox="19171.588260861885 11504.739468397205 2048 2048" stroke-linecap="round" stroke-linejoin="round" data-color-mode="light" class="tl-container tl-theme__force-sRGB tl-theme__light" style="background-color: transparent;"><defs/><g transform="matrix(1, 0, 0, 1, 19171.5883, 11504.7395)" opacity="1"><g data-lovart-layer-name="SVG 7"><g transform="scale(1.4143646408839778, 1.4143646408839778)"><g>
<g xmlns="http://www.w3.org/2000/svg" stroke-width="2.00" fill="none" stroke-linecap="butt">
<path stroke="#6d5537" d="M 371.20 474.23   Q 329.23 474.41 259.72 474.22   Q 249.87 474.19 244.90 475.47   Q 229.24 479.48 219.06 491.30   Q 215.07 495.93 208.85 508.67   Q 195.50 535.98 186.54 554.05   Q 184.23 558.71 184.52 564.51   C 185.04 574.84 194.22 579.36 203.29 580.21   Q 204.72 580.34 213.71 580.34   Q 255.70 580.33 321.41 580.41   A 1.79 1.78 13.1 0 0 323.01 579.42   L 335.19 554.69   A 0.67 0.66 -72.5 0 0 334.70 553.74   Q 334.16 553.66 333.50 553.66   Q 289.35 554.01 238.06 553.87   C 236.27 553.86 234.42 554.07 233.00 552.99   Q 230.79 551.31 232.23 548.50   Q 243.68 526.20 249.68 514.35   C 253.95 505.93 255.41 501.17 265.23 501.20   Q 319.66 501.32 357.12 501.18   A 1.81 1.80 12.8 0 0 358.72 500.18   L 371.37 474.50   A 0.19 0.19 0.0 0 0 371.20 474.23"/>
<path stroke="#6d5537" d="M 345.79 556.12   C 342.65 563.45 344.61 571.27 350.54 575.78   C 354.58 578.84 360.47 580.36 365.50 580.36   Q 390.89 580.37 461.52 580.37   Q 473.05 580.37 477.87 579.05   C 487.94 576.29 500.46 568.58 505.33 558.82   Q 518.05 533.29 530.85 506.91   Q 535.38 497.57 535.87 495.16   C 537.70 486.17 531.19 478.38 523.09 475.55   Q 519.40 474.26 510.41 474.27   Q 434.76 474.38 416.73 474.21   Q 397.20 474.02 383.58 486.47   Q 379.92 489.82 376.27 495.28   Q 372.33 501.17 370.43 505.15   Q 359.52 528.00 347.17 553.14   Q 346.34 554.82 345.79 556.12"/>
<path stroke="#6d5537" d="M 614.82 474.27   A 0.59 0.59 0.0 0 0 614.42 474.42   L 499.01 579.34   A 0.59 0.59 0.0 0 0 499.41 580.37   L 548.21 580.37   A 0.59 0.59 0.0 0 0 548.61 580.21   L 570.07 559.97   A 0.59 0.59 0.0 0 1 570.47 559.81   L 638.30 559.81   A 0.59 0.59 0.0 0 1 638.89 560.32   L 641.53 579.90   A 0.59 0.59 0.0 0 0 642.12 580.41   L 685.53 580.41   A 0.59 0.59 0.0 0 0 686.11 579.74   L 671.96 474.78   A 0.59 0.59 0.0 0 0 671.37 474.27   L 614.82 474.27"/>
<path stroke="#6d5537" d="M 887.15 474.21   Q 886.46 474.22 772.43 474.21   Q 759.29 474.20 754.22 475.67   C 743.79 478.67 735.41 485.37 730.17 494.96   C 726.95 500.85 723.51 508.89 721.44 512.99   Q 716.90 521.98 716.77 525.39   C 716.36 536.25 725.95 540.17 735.25 540.18   Q 790.19 540.30 815.76 540.21   C 820.76 540.20 819.38 543.87 818.10 547.13   Q 816.02 552.45 811.28 554.07   Q 810.34 554.39 801.28 554.38   Q 742.39 554.30 707.17 554.38   A 1.76 1.74 13.8 0 0 705.62 555.31   L 692.88 579.28   A 0.71 0.71 0.0 0 0 693.51 580.33   Q 750.34 580.39 815.35 580.36   Q 825.49 580.35 829.59 579.23   C 839.93 576.41 850.62 568.92 855.02 559.52   Q 862.18 544.22 866.65 535.15   C 872.60 523.07 864.26 513.77 852.00 513.70   Q 835.25 513.61 770.75 513.76   C 767.80 513.77 765.63 512.88 766.82 509.42   Q 769.11 502.80 774.42 500.67   Q 775.51 500.23 786.16 500.24   Q 840.01 500.28 874.00 500.39   A 1.35 1.35 0.0 0 0 875.23 499.60   Q 880.61 487.78 887.86 475.43   A 0.81 0.81 0.0 0 0 887.15 474.21"/>
<path stroke="#6d5537" d="M 888.06 500.20   A 0.67 0.67 0.0 0 0 888.66 501.17   L 939.18 501.17   A 0.67 0.67 0.0 0 1 939.78 502.14   L 901.72 579.43   A 0.67 0.67 0.0 0 0 902.32 580.40   L 944.43 580.40   A 0.67 0.67 0.0 0 0 945.03 580.03   L 983.67 501.58   A 0.67 0.67 0.0 0 1 984.27 501.21   L 1037.52 501.21   A 0.67 0.67 0.0 0 0 1038.12 500.84   L 1050.73 475.24   A 0.67 0.67 0.0 0 0 1050.13 474.27   L 901.24 474.27   A 0.67 0.67 0.0 0 0 900.64 474.64   L 888.06 500.20"/>
<path stroke="#6d5537" d="M 980.43 580.39   L 1029.01 580.39   A 3.16 3.15 22.7 0 0 1031.22 579.49   Q 1038.82 572.03 1050.70 560.94   Q 1051.84 559.88 1054.00 559.87   Q 1108.59 559.70 1119.49 559.60   A 1.02 1.02 0.0 0 1 1120.51 560.50   L 1122.97 580.01   A 0.43 0.43 0.0 0 0 1123.40 580.38   L 1166.62 580.38   A 0.70 0.69 -3.6 0 0 1167.31 579.60   L 1154.09 474.68   A 0.46 0.45 86.4 0 0 1153.64 474.28   L 1096.62 474.28   A 1.65 1.65 0.0 0 0 1095.52 474.70   L 980.13 579.60   A 0.45 0.45 0.0 0 0 980.43 580.39"/>
<path stroke="#6d5537" d="M 1228.36 474.22   A 0.61 0.61 0.0 0 0 1227.81 474.56   L 1176.13 579.49   A 0.61 0.61 0.0 0 0 1176.68 580.37   L 1310.63 580.37   A 0.61 0.61 0.0 0 0 1311.18 580.03   L 1323.63 554.75   A 0.61 0.61 0.0 0 0 1323.08 553.87   L 1233.71 553.87   A 0.61 0.61 0.0 0 1 1233.16 552.99   L 1271.52 475.10   A 0.61 0.61 0.0 0 0 1270.97 474.22   L 1228.36 474.22"/>
<path stroke="#6d5537" d="M 765.09 661.20   L 773.21 644.23   A 0.49 0.48 12.4 0 1 773.65 643.95   L 902.05 643.95   A 2.65 2.65 0.0 0 0 904.43 642.47   L 920.41 610.02   A 0.36 0.36 0.0 0 0 920.09 609.50   L 732.32 609.50   A 1.42 1.41 12.5 0 0 731.04 610.31   L 664.20 750.04   A 0.42 0.41 -77.0 0 0 664.57 750.64   L 856.43 750.64   A 0.92 0.91 -77.0 0 0 857.25 750.12   L 873.46 716.24   A 0.55 0.55 0.0 0 0 872.96 715.45   L 740.08 715.45   A 0.54 0.53 -77.1 0 1 739.60 714.68   L 748.83 695.37   A 0.91 0.90 -76.7 0 1 749.64 694.86   L 866.58 694.86   A 1.32 1.31 -77.0 0 0 867.76 694.12   L 883.38 662.41   A 0.40 0.40 0.0 0 0 883.02 661.83   L 765.48 661.83   A 0.44 0.44 0.0 0 1 765.09 661.20"/>
<path stroke="#6d5537" d="M 877.28 750.80   Q 999.46 750.67 1038.76 750.85   Q 1063.87 750.96 1080.80 732.77   Q 1085.86 727.32 1090.04 718.31   Q 1099.19 698.62 1103.88 688.64   C 1106.28 683.53 1105.92 674.67 1102.19 669.79   C 1097.82 664.06 1091.09 661.76 1083.75 661.72   Q 1070.74 661.66 977.70 661.67   C 976.04 661.67 973.15 660.49 973.91 658.34   Q 976.18 651.80 979.43 647.24   C 981.71 644.03 986.16 643.79 990.51 643.78   Q 1056.32 643.60 1113.10 643.76   A 1.71 1.71 0.0 0 0 1114.66 642.79   L 1130.87 609.89   A 0.39 0.39 0.0 0 0 1130.52 609.33   Q 1088.49 609.42 972.75 609.56   C 957.83 609.58 941.57 617.87 932.20 628.96   Q 928.02 633.91 922.05 646.39   Q 916.21 658.57 911.58 667.85   Q 909.90 671.21 909.42 675.84   Q 908.09 688.56 919.23 693.98   Q 924.69 696.63 928.79 696.66   Q 950.00 696.81 1037.75 696.67   Q 1039.73 696.66 1040.81 697.34   A 2.58 2.58 0.0 0 1 1041.95 700.09   Q 1040.72 705.68 1037.51 710.94   Q 1034.47 715.92 1028.61 715.94   Q 983.14 716.03 894.29 715.90   A 1.09 1.08 -76.7 0 0 893.32 716.50   L 876.80 750.03   A 0.54 0.53 -77.1 0 0 877.28 750.80"/>
<path stroke="#6d5537" d="M 1325.94 645.46   A 0.62 0.62 0.0 0 0 1326.50 645.11   L 1343.64 610.30   A 0.62 0.62 0.0 0 0 1343.08 609.41   L 1146.97 609.41   A 0.62 0.62 0.0 0 0 1146.41 609.76   L 1129.24 644.61   A 0.62 0.62 0.0 0 0 1129.80 645.50   L 1197.72 645.50   A 0.62 0.62 0.0 0 1 1198.28 646.39   L 1148.84 749.74   A 0.62 0.62 0.0 0 0 1149.40 750.63   L 1205.72 750.63   A 0.62 0.62 0.0 0 0 1206.28 750.28   L 1256.24 645.81   A 0.62 0.62 0.0 0 1 1256.80 645.46   L 1325.94 645.46"/>
<path stroke="#6d5537" d="M 360.16 670.18   L 240.76 670.18   A 0.72 0.72 0.0 0 1 240.12 669.14   Q 243.39 662.70 245.27 658.77   Q 249.09 650.75 250.26 649.60   Q 254.35 645.59 259.57 645.58   Q 326.74 645.52 382.32 645.58   A 1.01 1.00 -76.6 0 0 383.22 645.02   L 400.50 609.93   A 0.31 0.30 22.1 0 0 400.32 609.51   Q 399.95 609.39 399.50 609.39   Q 377.40 609.61 251.00 609.51   Q 240.98 609.50 237.25 610.29   C 220.10 613.90 202.95 625.60 195.32 641.86   Q 159.77 717.63 144.39 750.05   A 0.41 0.41 0.0 0 0 144.76 750.64   L 200.83 750.64   A 1.11 1.10 -77.3 0 0 201.83 750.00   L 223.94 703.78   A 1.47 1.46 -77.1 0 1 225.26 702.95   L 343.40 702.95   A 1.83 1.82 13.0 0 0 345.04 701.93   L 360.45 670.65   A 0.33 0.32 -76.9 0 0 360.16 670.18"/>
<path stroke="#6d5537" d="M 477.48 609.50   L 419.93 609.50   A 2.06 2.05 12.9 0 0 418.08 610.66   L 350.78 749.92   A 0.49 0.49 0.0 0 0 351.22 750.62   L 409.53 750.62   A 1.01 1.01 0.0 0 0 410.45 750.03   Q 424.39 720.49 435.84 696.10   Q 455.26 654.76 477.93 610.24   A 0.51 0.51 0.0 0 0 477.48 609.50"/>
<path stroke="#6d5537" d="M 621.86 688.80   A 0.80 0.80 0.0 0 1 620.48 688.90   L 566.17 609.97   A 1.19 1.17 -17.2 0 0 565.20 609.47   L 502.15 609.47   A 1.88 1.87 12.8 0 0 500.46 610.53   L 433.13 749.86   A 0.54 0.54 0.0 0 0 433.62 750.64   L 488.59 750.64   A 1.18 1.17 -77.2 0 0 489.65 749.97   L 532.65 661.01   A 0.55 0.55 0.0 0 1 533.60 660.93   L 594.95 750.08   A 1.38 1.37 -17.4 0 0 596.08 750.67   L 643.48 750.67   A 1.25 1.23 12.2 0 0 644.61 749.95   Q 669.88 695.73 699.74 634.23   Q 706.04 621.25 711.75 610.37   A 0.63 0.63 0.0 0 0 711.19 609.45   L 661.60 609.45   A 1.07 1.06 12.8 0 0 660.64 610.05   L 621.86 688.80"/>
<path stroke="#6d5537" d="M 911.39 857.63   A 0.50 0.50 0.0 0 0 910.94 856.92   L 828.30 856.92   A 0.50 0.50 0.0 0 1 827.85 856.21   L 862.81 780.88   A 0.50 0.50 0.0 0 0 862.36 780.17   L 824.02 780.17   A 0.50 0.50 0.0 0 0 823.57 780.46   L 776.40 882.07   A 0.50 0.50 0.0 0 0 776.85 882.78   L 899.40 882.78   A 0.50 0.50 0.0 0 0 899.85 882.49   L 911.39 857.63"/>
<path stroke="#6d5537" d="M 1261.67 846.29   C 1260.54 849.70 1257.28 856.60 1253.27 856.82   Q 1248.95 857.05 1248.25 857.05   Q 1208.53 856.84 1197.76 857.10   C 1193.94 857.20 1192.00 854.85 1193.64 851.43   Q 1197.93 842.48 1211.99 812.48   Q 1215.13 805.78 1222.28 805.75   Q 1257.45 805.59 1314.84 805.59   A 1.27 1.27 0.0 0 0 1315.98 804.88   L 1327.44 781.16   A 0.71 0.70 12.8 0 0 1326.80 780.15   Q 1283.39 780.42 1220.18 780.29   Q 1215.37 780.28 1215.29 780.28   Q 1198.94 779.67 1186.45 790.45   Q 1180.00 796.02 1176.89 802.62   Q 1156.69 845.46 1150.76 858.46   C 1146.17 868.51 1150.89 877.43 1161.08 881.14   Q 1165.48 882.74 1173.77 882.76   Q 1221.89 882.89 1249.14 882.85   Q 1263.61 882.82 1269.22 881.16   C 1279.37 878.16 1289.24 870.92 1293.79 861.04   Q 1303.10 840.80 1311.83 821.66   A 0.76 0.75 -77.6 0 0 1311.15 820.59   L 1236.49 820.59   A 1.50 1.49 -76.9 0 0 1235.15 821.43   L 1224.09 844.32   A 0.56 0.56 0.0 0 0 1224.59 845.12   L 1260.83 845.12   A 0.89 0.89 0.0 0 1 1261.67 846.29"/>
<path stroke="#6d5537" d="M 116.01 882.74   Q 170.27 882.99 232.38 882.67   C 246.75 882.60 263.28 873.61 269.65 860.39   Q 272.59 854.30 293.23 810.49   Q 297.62 801.17 297.66 797.79   C 297.80 787.75 288.01 780.29 278.25 780.30   Q 205.16 780.42 170.28 780.19   Q 166.96 780.17 164.89 780.28   A 1.48 1.47 -78.7 0 0 163.62 781.13   L 115.44 881.84   A 0.63 0.63 0.0 0 0 116.01 882.74"/>
<path stroke="#6d5537" d="M 431.39 818.34   L 346.42 818.34   A 0.49 0.49 0.0 0 1 345.98 817.64   L 351.38 806.67   A 1.86 1.86 0.0 0 1 353.05 805.63   L 443.51 805.63   A 0.27 0.26 12.2 0 0 443.75 805.48   L 455.60 781.43   A 0.80 0.80 0.0 0 0 454.88 780.28   L 324.84 780.28   A 1.70 1.69 12.7 0 0 323.31 781.24   L 275.24 881.73   A 0.76 0.76 0.0 0 0 275.93 882.82   L 411.03 882.82   A 0.95 0.95 0.0 0 0 411.89 882.28   L 423.66 857.66   A 0.48 0.47 12.9 0 0 423.23 856.98   L 328.00 856.98   A 0.40 0.40 0.0 0 1 327.64 856.41   L 334.02 843.07   A 1.51 1.51 0.0 0 1 335.38 842.21   L 419.13 842.21   A 1.38 1.37 -76.7 0 0 420.36 841.44   L 431.58 818.65   A 0.21 0.21 0.0 0 0 431.39 818.34"/>
<path stroke="#6d5537" d="M 502.90 805.60   A 0.71 0.71 0.0 0 1 503.54 806.61   L 468.67 881.75   A 0.71 0.71 0.0 0 0 469.31 882.76   L 507.35 882.76   A 0.71 0.71 0.0 0 0 507.99 882.35   L 543.41 806.04   A 0.71 0.71 0.0 0 1 544.05 805.63   L 592.31 805.63   A 0.71 0.71 0.0 0 0 592.95 805.23   L 604.51 781.32   A 0.71 0.71 0.0 0 0 603.87 780.30   L 468.55 780.30   A 0.71 0.71 0.0 0 0 467.91 780.70   L 456.15 804.58   A 0.71 0.71 0.0 0 0 456.79 805.60   L 502.90 805.60"/>
<path stroke="#6d5537" d="M 538.77 882.15   A 0.36 0.36 0.0 0 0 539.02 882.77   L 583.88 882.77   A 2.78 2.78 0.0 0 0 585.88 881.92   Q 597.04 870.24 603.37 864.12   Q 604.66 862.88 606.75 862.89   Q 634.84 862.94 656.75 862.93   Q 660.49 862.92 666.47 862.59   A 1.02 1.02 0.0 0 1 667.55 863.48   L 669.93 882.40   A 0.46 0.45 86.4 0 0 670.38 882.80   L 710.33 882.80   A 0.68 0.67 -3.7 0 0 711.00 882.04   L 698.24 780.77   A 0.56 0.56 0.0 0 0 697.68 780.28   L 645.31 780.28   A 2.97 2.97 0.0 0 0 643.26 781.10   L 538.77 882.15"/>
<path stroke="#6d5537" d="M 757.07 882.85   A 0.74 0.74 0.0 0 0 757.74 882.42   L 804.65 781.34   A 0.74 0.74 0.0 0 0 803.98 780.29   L 765.89 780.29   A 0.74 0.74 0.0 0 0 765.22 780.72   L 718.31 881.80   A 0.74 0.74 0.0 0 0 718.98 882.85   L 757.07 882.85"/>
<path stroke="#6d5537" d="M 964.82 780.31   A 0.73 0.73 0.0 0 0 964.15 780.73   L 917.22 881.87   A 0.73 0.73 0.0 0 0 917.88 882.91   L 956.14 882.91   A 0.73 0.73 0.0 0 0 956.81 882.49   L 1003.75 781.35   A 0.73 0.73 0.0 0 0 1003.09 780.31   L 964.82 780.31"/>
<path stroke="#6d5537" d="M 1121.63 882.77   A 0.59 0.59 0.0 0 0 1122.17 882.43   L 1169.20 781.09   A 0.59 0.59 0.0 0 0 1168.67 780.25   L 1133.40 780.25   A 0.59 0.59 0.0 0 0 1132.86 780.59   L 1106.61 837.15   A 0.59 0.59 0.0 0 1 1105.59 837.24   L 1067.22 780.53   A 0.59 0.59 0.0 0 0 1066.73 780.27   L 1022.72 780.27   A 0.59 0.59 0.0 0 0 1022.18 780.61   L 975.16 881.91   A 0.59 0.59 0.0 0 0 975.69 882.75   L 1013.72 882.75   A 0.59 0.59 0.0 0 0 1014.26 882.41   L 1043.86 818.64   A 0.59 0.59 0.0 0 1 1044.88 818.55   L 1088.16 882.51   A 0.59 0.59 0.0 0 0 1088.65 882.77   L 1121.63 882.77"/>
<path stroke="#6d5537" d="M 392.23 549.04   C 390.18 553.10 395.05 553.88 397.76 553.88   Q 426.02 553.89 457.25 553.85   Q 464.11 553.84 467.11 548.40   Q 470.98 541.40 482.89 516.38   Q 484.51 512.97 487.62 507.35   C 489.15 504.58 487.77 501.14 484.24 501.15   Q 454.80 501.25 428.83 501.18   C 422.14 501.16 417.77 500.83 414.16 506.11   Q 412.79 508.10 411.31 511.06   Q 401.94 529.80 392.23 549.04"/>
<path stroke="#6d5537" d="M 635.78 536.38   A 0.37 0.37 0.0 0 0 636.14 535.96   L 631.54 501.77   A 0.37 0.37 0.0 0 0 630.92 501.55   L 594.68 535.74   A 0.37 0.37 0.0 0 0 594.93 536.38   L 635.78 536.38"/>
<path stroke="#6d5537" d="M 1116.96 536.31   A 0.62 0.62 0.0 0 0 1117.58 535.61   L 1113.07 502.23   A 0.62 0.62 0.0 0 0 1112.03 501.86   L 1076.65 535.24   A 0.62 0.62 0.0 0 0 1077.08 536.31   L 1116.96 536.31"/>
<path stroke="#6d5537" d="M 167.17 856.43   A 0.45 0.45 0.0 0 0 167.58 857.07   Q 217.05 857.01 224.25 857.01   Q 232.19 857.01 235.67 849.44   Q 240.61 838.69 243.09 833.17   C 246.51 825.59 250.70 818.50 253.36 811.90   C 254.64 808.72 253.88 805.63 250.18 805.63   Q 212.18 805.64 192.58 805.63   A 1.75 1.73 -76.8 0 0 191.00 806.62   L 167.17 856.43"/>
<path stroke="#6d5537" d="M 664.05 840.10   A 0.60 0.60 0.0 0 0 664.64 839.42   L 660.60 807.34   A 0.60 0.60 0.0 0 0 659.59 806.98   L 626.42 839.07   A 0.60 0.60 0.0 0 0 626.83 840.10   L 664.05 840.10"/>
</g>
<path xmlns="http://www.w3.org/2000/svg" fill="#c09052" d="M 1448.00 0.00   L 1448.00 1448.00   L 0.00 1448.00   L 0.00 0.00   L 1448.00 0.00   Z   M 371.20 474.23   Q 329.23 474.41 259.72 474.22   Q 249.87 474.19 244.90 475.47   Q 229.24 479.48 219.06 491.30   Q 215.07 495.93 208.85 508.67   Q 195.50 535.98 186.54 554.05   Q 184.23 558.71 184.52 564.51   C 185.04 574.84 194.22 579.36 203.29 580.21   Q 204.72 580.34 213.71 580.34   Q 255.70 580.33 321.41 580.41   A 1.79 1.78 13.1 0 0 323.01 579.42   L 335.19 554.69   A 0.67 0.66 -72.5 0 0 334.70 553.74   Q 334.16 553.66 333.50 553.66   Q 289.35 554.01 238.06 553.87   C 236.27 553.86 234.42 554.07 233.00 552.99   Q 230.79 551.31 232.23 548.50   Q 243.68 526.20 249.68 514.35   C 253.95 505.93 255.41 501.17 265.23 501.20   Q 319.66 501.32 357.12 501.18   A 1.81 1.80 12.8 0 0 358.72 500.18   L 371.37 474.50   A 0.19 0.19 0.0 0 0 371.20 474.23   Z   M 345.79 556.12   C 342.65 563.45 344.61 571.27 350.54 575.78   C 354.58 578.84 360.47 580.36 365.50 580.36   Q 390.89 580.37 461.52 580.37   Q 473.05 580.37 477.87 579.05   C 487.94 576.29 500.46 568.58 505.33 558.82   Q 518.05 533.29 530.85 506.91   Q 535.38 497.57 535.87 495.16   C 537.70 486.17 531.19 478.38 523.09 475.55   Q 519.40 474.26 510.41 474.27   Q 434.76 474.38 416.73 474.21   Q 397.20 474.02 383.58 486.47   Q 379.92 489.82 376.27 495.28   Q 372.33 501.17 370.43 505.15   Q 359.52 528.00 347.17 553.14   Q 346.34 554.82 345.79 556.12   Z   M 614.82 474.27   A 0.59 0.59 0.0 0 0 614.42 474.42   L 499.01 579.34   A 0.59 0.59 0.0 0 0 499.41 580.37   L 548.21 580.37   A 0.59 0.59 0.0 0 0 548.61 580.21   L 570.07 559.97   A 0.59 0.59 0.0 0 1 570.47 559.81   L 638.30 559.81   A 0.59 0.59 0.0 0 1 638.89 560.32   L 641.53 579.90   A 0.59 0.59 0.0 0 0 642.12 580.41   L 685.53 580.41   A 0.59 0.59 0.0 0 0 686.11 579.74   L 671.96 474.78   A 0.59 0.59 0.0 0 0 671.37 474.27   L 614.82 474.27   Z   M 887.15 474.21   Q 886.46 474.22 772.43 474.21   Q 759.29 474.20 754.22 475.67   C 743.79 478.67 735.41 485.37 730.17 494.96   C 726.95 500.85 723.51 508.89 721.44 512.99   Q 716.90 521.98 716.77 525.39   C 716.36 536.25 725.95 540.17 735.25 540.18   Q 790.19 540.30 815.76 540.21   C 820.76 540.20 819.38 543.87 818.10 547.13   Q 816.02 552.45 811.28 554.07   Q 810.34 554.39 801.28 554.38   Q 742.39 554.30 707.17 554.38   A 1.76 1.74 13.8 0 0 705.62 555.31   L 692.88 579.28   A 0.71 0.71 0.0 0 0 693.51 580.33   Q 750.34 580.39 815.35 580.36   Q 825.49 580.35 829.59 579.23   C 839.93 576.41 850.62 568.92 855.02 559.52   Q 862.18 544.22 866.65 535.15   C 872.60 523.07 864.26 513.77 852.00 513.70   Q 835.25 513.61 770.75 513.76   C 767.80 513.77 765.63 512.88 766.82 509.42   Q 769.11 502.80 774.42 500.67   Q 775.51 500.23 786.16 500.24   Q 840.01 500.28 874.00 500.39   A 1.35 1.35 0.0 0 0 875.23 499.60   Q 880.61 487.78 887.86 475.43   A 0.81 0.81 0.0 0 0 887.15 474.21   Z   M 888.06 500.20   A 0.67 0.67 0.0 0 0 888.66 501.17   L 939.18 501.17   A 0.67 0.67 0.0 0 1 939.78 502.14   L 901.72 579.43   A 0.67 0.67 0.0 0 0 902.32 580.40   L 944.43 580.40   A 0.67 0.67 0.0 0 0 945.03 580.03   L 983.67 501.58   A 0.67 0.67 0.0 0 1 984.27 501.21   L 1037.52 501.21   A 0.67 0.67 0.0 0 0 1038.12 500.84   L 1050.73 475.24   A 0.67 0.67 0.0 0 0 1050.13 474.27   L 901.24 474.27   A 0.67 0.67 0.0 0 0 900.64 474.64   L 888.06 500.20   Z   M 980.43 580.39   L 1029.01 580.39   A 3.16 3.15 22.7 0 0 1031.22 579.49   Q 1038.82 572.03 1050.70 560.94   Q 1051.84 559.88 1054.00 559.87   Q 1108.59 559.70 1119.49 559.60   A 1.02 1.02 0.0 0 1 1120.51 560.50   L 1122.97 580.01   A 0.43 0.43 0.0 0 0 1123.40 580.38   L 1166.62 580.38   A 0.70 0.69 -3.6 0 0 1167.31 579.60   L 1154.09 474.68   A 0.46 0.45 86.4 0 0 1153.64 474.28   L 1096.62 474.28   A 1.65 1.65 0.0 0 0 1095.52 474.70   L 980.13 579.60   A 0.45 0.45 0.0 0 0 980.43 580.39   Z   M 1228.36 474.22   A 0.61 0.61 0.0 0 0 1227.81 474.56   L 1176.13 579.49   A 0.61 0.61 0.0 0 0 1176.68 580.37   L 1310.63 580.37   A 0.61 0.61 0.0 0 0 1311.18 580.03   L 1323.63 554.75   A 0.61 0.61 0.0 0 0 1323.08 553.87   L 1233.71 553.87   A 0.61 0.61 0.0 0 1 1233.16 552.99   L 1271.52 475.10   A 0.61 0.61 0.0 0 0 1270.97 474.22   L 1228.36 474.22   Z   M 765.09 661.20   L 773.21 644.23   A 0.49 0.48 12.4 0 1 773.65 643.95   L 902.05 643.95   A 2.65 2.65 0.0 0 0 904.43 642.47   L 920.41 610.02   A 0.36 0.36 0.0 0 0 920.09 609.50   L 732.32 609.50   A 1.42 1.41 12.5 0 0 731.04 610.31   L 664.20 750.04   A 0.42 0.41 -77.0 0 0 664.57 750.64   L 856.43 750.64   A 0.92 0.91 -77.0 0 0 857.25 750.12   L 873.46 716.24   A 0.55 0.55 0.0 0 0 872.96 715.45   L 740.08 715.45   A 0.54 0.53 -77.1 0 1 739.60 714.68   L 748.83 695.37   A 0.91 0.90 -76.7 0 1 749.64 694.86   L 866.58 694.86   A 1.32 1.31 -77.0 0 0 867.76 694.12   L 883.38 662.41   A 0.40 0.40 0.0 0 0 883.02 661.83   L 765.48 661.83   A 0.44 0.44 0.0 0 1 765.09 661.20   Z   M 877.28 750.80   Q 999.46 750.67 1038.76 750.85   Q 1063.87 750.96 1080.80 732.77   Q 1085.86 727.32 1090.04 718.31   Q 1099.19 698.62 1103.88 688.64   C 1106.28 683.53 1105.92 674.67 1102.19 669.79   C 1097.82 664.06 1091.09 661.76 1083.75 661.72   Q 1070.74 661.66 977.70 661.67   C 976.04 661.67 973.15 660.49 973.91 658.34   Q 976.18 651.80 979.43 647.24   C 981.71 644.03 986.16 643.79 990.51 643.78   Q 1056.32 643.60 1113.10 643.76   A 1.71 1.71 0.0 0 0 1114.66 642.79   L 1130.87 609.89   A 0.39 0.39 0.0 0 0 1130.52 609.33   Q 1088.49 609.42 972.75 609.56   C 957.83 609.58 941.57 617.87 932.20 628.96   Q 928.02 633.91 922.05 646.39   Q 916.21 658.57 911.58 667.85   Q 909.90 671.21 909.42 675.84   Q 908.09 688.56 919.23 693.98   Q 924.69 696.63 928.79 696.66   Q 950.00 696.81 1037.75 696.67   Q 1039.73 696.66 1040.81 697.34   A 2.58 2.58 0.0 0 1 1041.95 700.09   Q 1040.72 705.68 1037.51 710.94   Q 1034.47 715.92 1028.61 715.94   Q 983.14 716.03 894.29 715.90   A 1.09 1.08 -76.7 0 0 893.32 716.50   L 876.80 750.03   A 0.54 0.53 -77.1 0 0 877.28 750.80   Z   M 1325.94 645.46   A 0.62 0.62 0.0 0 0 1326.50 645.11   L 1343.64 610.30   A 0.62 0.62 0.0 0 0 1343.08 609.41   L 1146.97 609.41   A 0.62 0.62 0.0 0 0 1146.41 609.76   L 1129.24 644.61   A 0.62 0.62 0.0 0 0 1129.80 645.50   L 1197.72 645.50   A 0.62 0.62 0.0 0 1 1198.28 646.39   L 1148.84 749.74   A 0.62 0.62 0.0 0 0 1149.40 750.63   L 1205.72 750.63   A 0.62 0.62 0.0 0 0 1206.28 750.28   L 1256.24 645.81   A 0.62 0.62 0.0 0 1 1256.80 645.46   L 1325.94 645.46   Z   M 360.16 670.18   L 240.76 670.18   A 0.72 0.72 0.0 0 1 240.12 669.14   Q 243.39 662.70 245.27 658.77   Q 249.09 650.75 250.26 649.60   Q 254.35 645.59 259.57 645.58   Q 326.74 645.52 382.32 645.58   A 1.01 1.00 -76.6 0 0 383.22 645.02   L 400.50 609.93   A 0.31 0.30 22.1 0 0 400.32 609.51   Q 399.95 609.39 399.50 609.39   Q 377.40 609.61 251.00 609.51   Q 240.98 609.50 237.25 610.29   C 220.10 613.90 202.95 625.60 195.32 641.86   Q 159.77 717.63 144.39 750.05   A 0.41 0.41 0.0 0 0 144.76 750.64   L 200.83 750.64   A 1.11 1.10 -77.3 0 0 201.83 750.00   L 223.94 703.78   A 1.47 1.46 -77.1 0 1 225.26 702.95   L 343.40 702.95   A 1.83 1.82 13.0 0 0 345.04 701.93   L 360.45 670.65   A 0.33 0.32 -76.9 0 0 360.16 670.18   Z   M 477.48 609.50   L 419.93 609.50   A 2.06 2.05 12.9 0 0 418.08 610.66   L 350.78 749.92   A 0.49 0.49 0.0 0 0 351.22 750.62   L 409.53 750.62   A 1.01 1.01 0.0 0 0 410.45 750.03   Q 424.39 720.49 435.84 696.10   Q 455.26 654.76 477.93 610.24   A 0.51 0.51 0.0 0 0 477.48 609.50   Z   M 621.86 688.80   A 0.80 0.80 0.0 0 1 620.48 688.90   L 566.17 609.97   A 1.19 1.17 -17.2 0 0 565.20 609.47   L 502.15 609.47   A 1.88 1.87 12.8 0 0 500.46 610.53   L 433.13 749.86   A 0.54 0.54 0.0 0 0 433.62 750.64   L 488.59 750.64   A 1.18 1.17 -77.2 0 0 489.65 749.97   L 532.65 661.01   A 0.55 0.55 0.0 0 1 533.60 660.93   L 594.95 750.08   A 1.38 1.37 -17.4 0 0 596.08 750.67   L 643.48 750.67   A 1.25 1.23 12.2 0 0 644.61 749.95   Q 669.88 695.73 699.74 634.23   Q 706.04 621.25 711.75 610.37   A 0.63 0.63 0.0 0 0 711.19 609.45   L 661.60 609.45   A 1.07 1.06 12.8 0 0 660.64 610.05   L 621.86 688.80   Z   M 911.39 857.63   A 0.50 0.50 0.0 0 0 910.94 856.92   L 828.30 856.92   A 0.50 0.50 0.0 0 1 827.85 856.21   L 862.81 780.88   A 0.50 0.50 0.0 0 0 862.36 780.17   L 824.02 780.17   A 0.50 0.50 0.0 0 0 823.57 780.46   L 776.40 882.07   A 0.50 0.50 0.0 0 0 776.85 882.78   L 899.40 882.78   A 0.50 0.50 0.0 0 0 899.85 882.49   L 911.39 857.63   Z   M 1261.67 846.29   C 1260.54 849.70 1257.28 856.60 1253.27 856.82   Q 1248.95 857.05 1248.25 857.05   Q 1208.53 856.84 1197.76 857.10   C 1193.94 857.20 1192.00 854.85 1193.64 851.43   Q 1197.93 842.48 1211.99 812.48   Q 1215.13 805.78 1222.28 805.75   Q 1257.45 805.59 1314.84 805.59   A 1.27 1.27 0.0 0 0 1315.98 804.88   L 1327.44 781.16   A 0.71 0.70 12.8 0 0 1326.80 780.15   Q 1283.39 780.42 1220.18 780.29   Q 1215.37 780.28 1215.29 780.28   Q 1198.94 779.67 1186.45 790.45   Q 1180.00 796.02 1176.89 802.62   Q 1156.69 845.46 1150.76 858.46   C 1146.17 868.51 1150.89 877.43 1161.08 881.14   Q 1165.48 882.74 1173.77 882.76   Q 1221.89 882.89 1249.14 882.85   Q 1263.61 882.82 1269.22 881.16   C 1279.37 878.16 1289.24 870.92 1293.79 861.04   Q 1303.10 840.80 1311.83 821.66   A 0.76 0.75 -77.6 0 0 1311.15 820.59   L 1236.49 820.59   A 1.50 1.49 -76.9 0 0 1235.15 821.43   L 1224.09 844.32   A 0.56 0.56 0.0 0 0 1224.59 845.12   L 1260.83 845.12   A 0.89 0.89 0.0 0 1 1261.67 846.29   Z   M 116.01 882.74   Q 170.27 882.99 232.38 882.67   C 246.75 882.60 263.28 873.61 269.65 860.39   Q 272.59 854.30 293.23 810.49   Q 297.62 801.17 297.66 797.79   C 297.80 787.75 288.01 780.29 278.25 780.30   Q 205.16 780.42 170.28 780.19   Q 166.96 780.17 164.89 780.28   A 1.48 1.47 -78.7 0 0 163.62 781.13   L 115.44 881.84   A 0.63 0.63 0.0 0 0 116.01 882.74   Z   M 431.39 818.34   L 346.42 818.34   A 0.49 0.49 0.0 0 1 345.98 817.64   L 351.38 806.67   A 1.86 1.86 0.0 0 1 353.05 805.63   L 443.51 805.63   A 0.27 0.26 12.2 0 0 443.75 805.48   L 455.60 781.43   A 0.80 0.80 0.0 0 0 454.88 780.28   L 324.84 780.28   A 1.70 1.69 12.7 0 0 323.31 781.24   L 275.24 881.73   A 0.76 0.76 0.0 0 0 275.93 882.82   L 411.03 882.82   A 0.95 0.95 0.0 0 0 411.89 882.28   L 423.66 857.66   A 0.48 0.47 12.9 0 0 423.23 856.98   L 328.00 856.98   A 0.40 0.40 0.0 0 1 327.64 856.41   L 334.02 843.07   A 1.51 1.51 0.0 0 1 335.38 842.21   L 419.13 842.21   A 1.38 1.37 -76.7 0 0 420.36 841.44   L 431.58 818.65   A 0.21 0.21 0.0 0 0 431.39 818.34   Z   M 502.90 805.60   A 0.71 0.71 0.0 0 1 503.54 806.61   L 468.67 881.75   A 0.71 0.71 0.0 0 0 469.31 882.76   L 507.35 882.76   A 0.71 0.71 0.0 0 0 507.99 882.35   L 543.41 806.04   A 0.71 0.71 0.0 0 1 544.05 805.63   L 592.31 805.63   A 0.71 0.71 0.0 0 0 592.95 805.23   L 604.51 781.32   A 0.71 0.71 0.0 0 0 603.87 780.30   L 468.55 780.30   A 0.71 0.71 0.0 0 0 467.91 780.70   L 456.15 804.58   A 0.71 0.71 0.0 0 0 456.79 805.60   L 502.90 805.60   Z   M 538.77 882.15   A 0.36 0.36 0.0 0 0 539.02 882.77   L 583.88 882.77   A 2.78 2.78 0.0 0 0 585.88 881.92   Q 597.04 870.24 603.37 864.12   Q 604.66 862.88 606.75 862.89   Q 634.84 862.94 656.75 862.93   Q 660.49 862.92 666.47 862.59   A 1.02 1.02 0.0 0 1 667.55 863.48   L 669.93 882.40   A 0.46 0.45 86.4 0 0 670.38 882.80   L 710.33 882.80   A 0.68 0.67 -3.7 0 0 711.00 882.04   L 698.24 780.77   A 0.56 0.56 0.0 0 0 697.68 780.28   L 645.31 780.28   A 2.97 2.97 0.0 0 0 643.26 781.10   L 538.77 882.15   Z   M 757.07 882.85   A 0.74 0.74 0.0 0 0 757.74 882.42   L 804.65 781.34   A 0.74 0.74 0.0 0 0 803.98 780.29   L 765.89 780.29   A 0.74 0.74 0.0 0 0 765.22 780.72   L 718.31 881.80   A 0.74 0.74 0.0 0 0 718.98 882.85   L 757.07 882.85   Z   M 964.82 780.31   A 0.73 0.73 0.0 0 0 964.15 780.73   L 917.22 881.87   A 0.73 0.73 0.0 0 0 917.88 882.91   L 956.14 882.91   A 0.73 0.73 0.0 0 0 956.81 882.49   L 1003.75 781.35   A 0.73 0.73 0.0 0 0 1003.09 780.31   L 964.82 780.31   Z   M 1121.63 882.77   A 0.59 0.59 0.0 0 0 1122.17 882.43   L 1169.20 781.09   A 0.59 0.59 0.0 0 0 1168.67 780.25   L 1133.40 780.25   A 0.59 0.59 0.0 0 0 1132.86 780.59   L 1106.61 837.15   A 0.59 0.59 0.0 0 1 1105.59 837.24   L 1067.22 780.53   A 0.59 0.59 0.0 0 0 1066.73 780.27   L 1022.72 780.27   A 0.59 0.59 0.0 0 0 1022.18 780.61   L 975.16 881.91   A 0.59 0.59 0.0 0 0 975.69 882.75   L 1013.72 882.75   A 0.59 0.59 0.0 0 0 1014.26 882.41   L 1043.86 818.64   A 0.59 0.59 0.0 0 1 1044.88 818.55   L 1088.16 882.51   A 0.59 0.59 0.0 0 0 1088.65 882.77   L 1121.63 882.77   Z"/>
<path xmlns="http://www.w3.org/2000/svg" fill="#1a1a1b" d="M 371.20 474.23   A 0.19 0.19 0.0 0 1 371.37 474.50   L 358.72 500.18   A 1.81 1.80 12.8 0 1 357.12 501.18   Q 319.66 501.32 265.23 501.20   C 255.41 501.17 253.95 505.93 249.68 514.35   Q 243.68 526.20 232.23 548.50   Q 230.79 551.31 233.00 552.99   C 234.42 554.07 236.27 553.86 238.06 553.87   Q 289.35 554.01 333.50 553.66   Q 334.16 553.66 334.70 553.74   A 0.67 0.66 -72.5 0 1 335.19 554.69   L 323.01 579.42   A 1.79 1.78 13.1 0 1 321.41 580.41   Q 255.70 580.33 213.71 580.34   Q 204.72 580.34 203.29 580.21   C 194.22 579.36 185.04 574.84 184.52 564.51   Q 184.23 558.71 186.54 554.05   Q 195.50 535.98 208.85 508.67   Q 215.07 495.93 219.06 491.30   Q 229.24 479.48 244.90 475.47   Q 249.87 474.19 259.72 474.22   Q 329.23 474.41 371.20 474.23   Z"/>
<path xmlns="http://www.w3.org/2000/svg" fill="#1a1a1b" d="M 345.79 556.12   Q 346.34 554.82 347.17 553.14   Q 359.52 528.00 370.43 505.15   Q 372.33 501.17 376.27 495.28   Q 379.92 489.82 383.58 486.47   Q 397.20 474.02 416.73 474.21   Q 434.76 474.38 510.41 474.27   Q 519.40 474.26 523.09 475.55   C 531.19 478.38 537.70 486.17 535.87 495.16   Q 535.38 497.57 530.85 506.91   Q 518.05 533.29 505.33 558.82   C 500.46 568.58 487.94 576.29 477.87 579.05   Q 473.05 580.37 461.52 580.37   Q 390.89 580.37 365.50 580.36   C 360.47 580.36 354.58 578.84 350.54 575.78   C 344.61 571.27 342.65 563.45 345.79 556.12   Z   M 392.23 549.04   C 390.18 553.10 395.05 553.88 397.76 553.88   Q 426.02 553.89 457.25 553.85   Q 464.11 553.84 467.11 548.40   Q 470.98 541.40 482.89 516.38   Q 484.51 512.97 487.62 507.35   C 489.15 504.58 487.77 501.14 484.24 501.15   Q 454.80 501.25 428.83 501.18   C 422.14 501.16 417.77 500.83 414.16 506.11   Q 412.79 508.10 411.31 511.06   Q 401.94 529.80 392.23 549.04   Z"/>
<path xmlns="http://www.w3.org/2000/svg" fill="#1a1a1b" d="M 614.82 474.27   L 671.37 474.27   A 0.59 0.59 0.0 0 1 671.96 474.78   L 686.11 579.74   A 0.59 0.59 0.0 0 1 685.53 580.41   L 642.12 580.41   A 0.59 0.59 0.0 0 1 641.53 579.90   L 638.89 560.32   A 0.59 0.59 0.0 0 0 638.30 559.81   L 570.47 559.81   A 0.59 0.59 0.0 0 0 570.07 559.97   L 548.61 580.21   A 0.59 0.59 0.0 0 1 548.21 580.37   L 499.41 580.37   A 0.59 0.59 0.0 0 1 499.01 579.34   L 614.42 474.42   A 0.59 0.59 0.0 0 1 614.82 474.27   Z   M 635.78 536.38   A 0.37 0.37 0.0 0 0 636.14 535.96   L 631.54 501.77   A 0.37 0.37 0.0 0 0 630.92 501.55   L 594.68 535.74   A 0.37 0.37 0.0 0 0 594.93 536.38   L 635.78 536.38   Z"/>
<path xmlns="http://www.w3.org/2000/svg" fill="#1a1a1b" d="M 887.15 474.21   A 0.81 0.81 0.0 0 1 887.86 475.43   Q 880.61 487.78 875.23 499.60   A 1.35 1.35 0.0 0 1 874.00 500.39   Q 840.01 500.28 786.16 500.24   Q 775.51 500.23 774.42 500.67   Q 769.11 502.80 766.82 509.42   C 765.63 512.88 767.80 513.77 770.75 513.76   Q 835.25 513.61 852.00 513.70   C 864.26 513.77 872.60 523.07 866.65 535.15   Q 862.18 544.22 855.02 559.52   C 850.62 568.92 839.93 576.41 829.59 579.23   Q 825.49 580.35 815.35 580.36   Q 750.34 580.39 693.51 580.33   A 0.71 0.71 0.0 0 1 692.88 579.28   L 705.62 555.31   A 1.76 1.74 13.8 0 1 707.17 554.38   Q 742.39 554.30 801.28 554.38   Q 810.34 554.39 811.28 554.07   Q 816.02 552.45 818.10 547.13   C 819.38 543.87 820.76 540.20 815.76 540.21   Q 790.19 540.30 735.25 540.18   C 725.95 540.17 716.36 536.25 716.77 525.39   Q 716.90 521.98 721.44 512.99   C 723.51 508.89 726.95 500.85 730.17 494.96   C 735.41 485.37 743.79 478.67 754.22 475.67   Q 759.29 474.20 772.43 474.21   Q 886.46 474.22 887.15 474.21   Z"/>
<path xmlns="http://www.w3.org/2000/svg" fill="#1a1a1b" d="M 888.06 500.20   L 900.64 474.64   A 0.67 0.67 0.0 0 1 901.24 474.27   L 1050.13 474.27   A 0.67 0.67 0.0 0 1 1050.73 475.24   L 1038.12 500.84   A 0.67 0.67 0.0 0 1 1037.52 501.21   L 984.27 501.21   A 0.67 0.67 0.0 0 0 983.67 501.58   L 945.03 580.03   A 0.67 0.67 0.0 0 1 944.43 580.40   L 902.32 580.40   A 0.67 0.67 0.0 0 1 901.72 579.43   L 939.78 502.14   A 0.67 0.67 0.0 0 0 939.18 501.17   L 888.66 501.17   A 0.67 0.67 0.0 0 1 888.06 500.20   Z"/>
<path xmlns="http://www.w3.org/2000/svg" fill="#1a1a1b" d="M 980.43 580.39   A 0.45 0.45 0.0 0 1 980.13 579.60   L 1095.52 474.70   A 1.65 1.65 0.0 0 1 1096.62 474.28   L 1153.64 474.28   A 0.46 0.45 86.4 0 1 1154.09 474.68   L 1167.31 579.60   A 0.70 0.69 -3.6 0 1 1166.62 580.38   L 1123.40 580.38   A 0.43 0.43 0.0 0 1 1122.97 580.01   L 1120.51 560.50   A 1.02 1.02 0.0 0 0 1119.49 559.60   Q 1108.59 559.70 1054.00 559.87   Q 1051.84 559.88 1050.70 560.94   Q 1038.82 572.03 1031.22 579.49   A 3.16 3.15 22.7 0 1 1029.01 580.39   L 980.43 580.39   Z   M 1116.96 536.31   A 0.62 0.62 0.0 0 0 1117.58 535.61   L 1113.07 502.23   A 0.62 0.62 0.0 0 0 1112.03 501.86   L 1076.65 535.24   A 0.62 0.62 0.0 0 0 1077.08 536.31   L 1116.96 536.31   Z"/>
<path xmlns="http://www.w3.org/2000/svg" fill="#1a1a1b" d="M 1228.36 474.22   L 1270.97 474.22   A 0.61 0.61 0.0 0 1 1271.52 475.10   L 1233.16 552.99   A 0.61 0.61 0.0 0 0 1233.71 553.87   L 1323.08 553.87   A 0.61 0.61 0.0 0 1 1323.63 554.75   L 1311.18 580.03   A 0.61 0.61 0.0 0 1 1310.63 580.37   L 1176.68 580.37   A 0.61 0.61 0.0 0 1 1176.13 579.49   L 1227.81 474.56   A 0.61 0.61 0.0 0 1 1228.36 474.22   Z"/>
<path xmlns="http://www.w3.org/2000/svg" fill="#c09052" d="M 397.76 553.88   C 395.05 553.88 390.18 553.10 392.23 549.04   Q 401.94 529.80 411.31 511.06   Q 412.79 508.10 414.16 506.11   C 417.77 500.83 422.14 501.16 428.83 501.18   Q 454.80 501.25 484.24 501.15   C 487.77 501.14 489.15 504.58 487.62 507.35   Q 484.51 512.97 482.89 516.38   Q 470.98 541.40 467.11 548.40   Q 464.11 553.84 457.25 553.85   Q 426.02 553.89 397.76 553.88   Z"/>
<path xmlns="http://www.w3.org/2000/svg" fill="#c09052" d="M 635.78 536.38   L 594.93 536.38   A 0.37 0.37 0.0 0 1 594.68 535.74   L 630.92 501.55   A 0.37 0.37 0.0 0 1 631.54 501.77   L 636.14 535.96   A 0.37 0.37 0.0 0 1 635.78 536.38   Z"/>
<path xmlns="http://www.w3.org/2000/svg" fill="#c09052" d="M 1116.96 536.31   L 1077.08 536.31   A 0.62 0.62 0.0 0 1 1076.65 535.24   L 1112.03 501.86   A 0.62 0.62 0.0 0 1 1113.07 502.23   L 1117.58 535.61   A 0.62 0.62 0.0 0 1 1116.96 536.31   Z"/>
<path xmlns="http://www.w3.org/2000/svg" fill="#1a1a1b" d="M 765.09 661.20   A 0.44 0.44 0.0 0 0 765.48 661.83   L 883.02 661.83   A 0.40 0.40 0.0 0 1 883.38 662.41   L 867.76 694.12   A 1.32 1.31 -77.0 0 1 866.58 694.86   L 749.64 694.86   A 0.91 0.90 -76.7 0 0 748.83 695.37   L 739.60 714.68   A 0.54 0.53 -77.1 0 0 740.08 715.45   L 872.96 715.45   A 0.55 0.55 0.0 0 1 873.46 716.24   L 857.25 750.12   A 0.92 0.91 -77.0 0 1 856.43 750.64   L 664.57 750.64   A 0.42 0.41 -77.0 0 1 664.20 750.04   L 731.04 610.31   A 1.42 1.41 12.5 0 1 732.32 609.50   L 920.09 609.50   A 0.36 0.36 0.0 0 1 920.41 610.02   L 904.43 642.47   A 2.65 2.65 0.0 0 1 902.05 643.95   L 773.65 643.95   A 0.49 0.48 12.4 0 0 773.21 644.23   L 765.09 661.20   Z"/>
<path xmlns="http://www.w3.org/2000/svg" fill="#1a1a1b" d="M 877.28 750.80   A 0.54 0.53 -77.1 0 1 876.80 750.03   L 893.32 716.50   A 1.09 1.08 -76.7 0 1 894.29 715.90   Q 983.14 716.03 1028.61 715.94   Q 1034.47 715.92 1037.51 710.94   Q 1040.72 705.68 1041.95 700.09   A 2.58 2.58 0.0 0 0 1040.81 697.34   Q 1039.73 696.66 1037.75 696.67   Q 950.00 696.81 928.79 696.66   Q 924.69 696.63 919.23 693.98   Q 908.09 688.56 909.42 675.84   Q 909.90 671.21 911.58 667.85   Q 916.21 658.57 922.05 646.39   Q 928.02 633.91 932.20 628.96   C 941.57 617.87 957.83 609.58 972.75 609.56   Q 1088.49 609.42 1130.52 609.33   A 0.39 0.39 0.0 0 1 1130.87 609.89   L 1114.66 642.79   A 1.71 1.71 0.0 0 1 1113.10 643.76   Q 1056.32 643.60 990.51 643.78   C 986.16 643.79 981.71 644.03 979.43 647.24   Q 976.18 651.80 973.91 658.34   C 973.15 660.49 976.04 661.67 977.70 661.67   Q 1070.74 661.66 1083.75 661.72   C 1091.09 661.76 1097.82 664.06 1102.19 669.79   C 1105.92 674.67 1106.28 683.53 1103.88 688.64   Q 1099.19 698.62 1090.04 718.31   Q 1085.86 727.32 1080.80 732.77   Q 1063.87 750.96 1038.76 750.85   Q 999.46 750.67 877.28 750.80   Z"/>
<path xmlns="http://www.w3.org/2000/svg" fill="#1a1a1b" d="M 1325.94 645.46   L 1256.80 645.46   A 0.62 0.62 0.0 0 0 1256.24 645.81   L 1206.28 750.28   A 0.62 0.62 0.0 0 1 1205.72 750.63   L 1149.40 750.63   A 0.62 0.62 0.0 0 1 1148.84 749.74   L 1198.28 646.39   A 0.62 0.62 0.0 0 0 1197.72 645.50   L 1129.80 645.50   A 0.62 0.62 0.0 0 1 1129.24 644.61   L 1146.41 609.76   A 0.62 0.62 0.0 0 1 1146.97 609.41   L 1343.08 609.41   A 0.62 0.62 0.0 0 1 1343.64 610.30   L 1326.50 645.11   A 0.62 0.62 0.0 0 1 1325.94 645.46   Z"/>
<path xmlns="http://www.w3.org/2000/svg" fill="#1a1a1b" d="M 360.16 670.18   A 0.33 0.32 -76.9 0 1 360.45 670.65   L 345.04 701.93   A 1.83 1.82 13.0 0 1 343.40 702.95   L 225.26 702.95   A 1.47 1.46 -77.1 0 0 223.94 703.78   L 201.83 750.00   A 1.11 1.10 -77.3 0 1 200.83 750.64   L 144.76 750.64   A 0.41 0.41 0.0 0 1 144.39 750.05   Q 159.77 717.63 195.32 641.86   C 202.95 625.60 220.10 613.90 237.25 610.29   Q 240.98 609.50 251.00 609.51   Q 377.40 609.61 399.50 609.39   Q 399.95 609.39 400.32 609.51   A 0.31 0.30 22.1 0 1 400.50 609.93   L 383.22 645.02   A 1.01 1.00 -76.6 0 1 382.32 645.58   Q 326.74 645.52 259.57 645.58   Q 254.35 645.59 250.26 649.60   Q 249.09 650.75 245.27 658.77   Q 243.39 662.70 240.12 669.14   A 0.72 0.72 0.0 0 0 240.76 670.18   L 360.16 670.18   Z"/>
<path xmlns="http://www.w3.org/2000/svg" fill="#1a1a1b" d="M 477.48 609.50   A 0.51 0.51 0.0 0 1 477.93 610.24   Q 455.26 654.76 435.84 696.10   Q 424.39 720.49 410.45 750.03   A 1.01 1.01 0.0 0 1 409.53 750.62   L 351.22 750.62   A 0.49 0.49 0.0 0 1 350.78 749.92   L 418.08 610.66   A 2.06 2.05 12.9 0 1 419.93 609.50   L 477.48 609.50   Z"/>
<path xmlns="http://www.w3.org/2000/svg" fill="#1a1a1b" d="M 621.86 688.80   L 660.64 610.05   A 1.07 1.06 12.8 0 1 661.60 609.45   L 711.19 609.45   A 0.63 0.63 0.0 0 1 711.75 610.37   Q 706.04 621.25 699.74 634.23   Q 669.88 695.73 644.61 749.95   A 1.25 1.23 12.2 0 1 643.48 750.67   L 596.08 750.67   A 1.38 1.37 -17.4 0 1 594.95 750.08   L 533.60 660.93   A 0.55 0.55 0.0 0 0 532.65 661.01   L 489.65 749.97   A 1.18 1.17 -77.2 0 1 488.59 750.64   L 433.62 750.64   A 0.54 0.54 0.0 0 1 433.13 749.86   L 500.46 610.53   A 1.88 1.87 12.8 0 1 502.15 609.47   L 565.20 609.47   A 1.19 1.17 -17.2 0 1 566.17 609.97   L 620.48 688.90   A 0.80 0.80 0.0 0 0 621.86 688.80   Z"/>
<path xmlns="http://www.w3.org/2000/svg" fill="#1a1a1b" d="M 911.39 857.63   L 899.85 882.49   A 0.50 0.50 0.0 0 1 899.40 882.78   L 776.85 882.78   A 0.50 0.50 0.0 0 1 776.40 882.07   L 823.57 780.46   A 0.50 0.50 0.0 0 1 824.02 780.17   L 862.36 780.17   A 0.50 0.50 0.0 0 1 862.81 780.88   L 827.85 856.21   A 0.50 0.50 0.0 0 0 828.30 856.92   L 910.94 856.92   A 0.50 0.50 0.0 0 1 911.39 857.63   Z"/>
<path xmlns="http://www.w3.org/2000/svg" fill="#1a1a1b" d="M 1261.67 846.29   A 0.89 0.89 0.0 0 0 1260.83 845.12   L 1224.59 845.12   A 0.56 0.56 0.0 0 1 1224.09 844.32   L 1235.15 821.43   A 1.50 1.49 -76.9 0 1 1236.49 820.59   L 1311.15 820.59   A 0.76 0.75 -77.6 0 1 1311.83 821.66   Q 1303.10 840.80 1293.79 861.04   C 1289.24 870.92 1279.37 878.16 1269.22 881.16   Q 1263.61 882.82 1249.14 882.85   Q 1221.89 882.89 1173.77 882.76   Q 1165.48 882.74 1161.08 881.14   C 1150.89 877.43 1146.17 868.51 1150.76 858.46   Q 1156.69 845.46 1176.89 802.62   Q 1180.00 796.02 1186.45 790.45   Q 1198.94 779.67 1215.29 780.28   Q 1215.37 780.28 1220.18 780.29   Q 1283.39 780.42 1326.80 780.15   A 0.71 0.70 12.8 0 1 1327.44 781.16   L 1315.98 804.88   A 1.27 1.27 0.0 0 1 1314.84 805.59   Q 1257.45 805.59 1222.28 805.75   Q 1215.13 805.78 1211.99 812.48   Q 1197.93 842.48 1193.64 851.43   C 1192.00 854.85 1193.94 857.20 1197.76 857.10   Q 1208.53 856.84 1248.25 857.05   Q 1248.95 857.05 1253.27 856.82   C 1257.28 856.60 1260.54 849.70 1261.67 846.29   Z"/>
<path xmlns="http://www.w3.org/2000/svg" fill="#1a1a1b" d="M 116.01 882.74   A 0.63 0.63 0.0 0 1 115.44 881.84   L 163.62 781.13   A 1.48 1.47 -78.7 0 1 164.89 780.28   Q 166.96 780.17 170.28 780.19   Q 205.16 780.42 278.25 780.30   C 288.01 780.29 297.80 787.75 297.66 797.79   Q 297.62 801.17 293.23 810.49   Q 272.59 854.30 269.65 860.39   C 263.28 873.61 246.75 882.60 232.38 882.67   Q 170.27 882.99 116.01 882.74   Z   M 167.17 856.43   A 0.45 0.45 0.0 0 0 167.58 857.07   Q 217.05 857.01 224.25 857.01   Q 232.19 857.01 235.67 849.44   Q 240.61 838.69 243.09 833.17   C 246.51 825.59 250.70 818.50 253.36 811.90   C 254.64 808.72 253.88 805.63 250.18 805.63   Q 212.18 805.64 192.58 805.63   A 1.75 1.73 -76.8 0 0 191.00 806.62   L 167.17 856.43   Z"/>
<path xmlns="http://www.w3.org/2000/svg" fill="#1a1a1b" d="M 431.39 818.34   A 0.21 0.21 0.0 0 1 431.58 818.65   L 420.36 841.44   A 1.38 1.37 -76.7 0 1 419.13 842.21   L 335.38 842.21   A 1.51 1.51 0.0 0 0 334.02 843.07   L 327.64 856.41   A 0.40 0.40 0.0 0 0 328.00 856.98   L 423.23 856.98   A 0.48 0.47 12.9 0 1 423.66 857.66   L 411.89 882.28   A 0.95 0.95 0.0 0 1 411.03 882.82   L 275.93 882.82   A 0.76 0.76 0.0 0 1 275.24 881.73   L 323.31 781.24   A 1.70 1.69 12.7 0 1 324.84 780.28   L 454.88 780.28   A 0.80 0.80 0.0 0 1 455.60 781.43   L 443.75 805.48   A 0.27 0.26 12.2 0 1 443.51 805.63   L 353.05 805.63   A 1.86 1.86 0.0 0 0 351.38 806.67   L 345.98 817.64   A 0.49 0.49 0.0 0 0 346.42 818.34   L 431.39 818.34   Z"/>
<path xmlns="http://www.w3.org/2000/svg" fill="#1a1a1b" d="M 502.90 805.60   L 456.79 805.60   A 0.71 0.71 0.0 0 1 456.15 804.58   L 467.91 780.70   A 0.71 0.71 0.0 0 1 468.55 780.30   L 603.87 780.30   A 0.71 0.71 0.0 0 1 604.51 781.32   L 592.95 805.23   A 0.71 0.71 0.0 0 1 592.31 805.63   L 544.05 805.63   A 0.71 0.71 0.0 0 0 543.41 806.04   L 507.99 882.35   A 0.71 0.71 0.0 0 1 507.35 882.76   L 469.31 882.76   A 0.71 0.71 0.0 0 1 468.67 881.75   L 503.54 806.61   A 0.71 0.71 0.0 0 0 502.90 805.60   Z"/>
<path xmlns="http://www.w3.org/2000/svg" fill="#1a1a1b" d="M 538.77 882.15   L 643.26 781.10   A 2.97 2.97 0.0 0 1 645.31 780.28   L 697.68 780.28   A 0.56 0.56 0.0 0 1 698.24 780.77   L 711.00 882.04   A 0.68 0.67 -3.7 0 1 710.33 882.80   L 670.38 882.80   A 0.46 0.45 86.4 0 1 669.93 882.40   L 667.55 863.48   A 1.02 1.02 0.0 0 0 666.47 862.59   Q 660.49 862.92 656.75 862.93   Q 634.84 862.94 606.75 862.89   Q 604.66 862.88 603.37 864.12   Q 597.04 870.24 585.88 881.92   A 2.78 2.78 0.0 0 1 583.88 882.77   L 539.02 882.77   A 0.36 0.36 0.0 0 1 538.77 882.15   Z   M 664.05 840.10   A 0.60 0.60 0.0 0 0 664.64 839.42   L 660.60 807.34   A 0.60 0.60 0.0 0 0 659.59 806.98   L 626.42 839.07   A 0.60 0.60 0.0 0 0 626.83 840.10   L 664.05 840.10   Z"/>
<path xmlns="http://www.w3.org/2000/svg" fill="#1a1a1b" d="M 757.07 882.85   L 718.98 882.85   A 0.74 0.74 0.0 0 1 718.31 881.80   L 765.22 780.72   A 0.74 0.74 0.0 0 1 765.89 780.29   L 803.98 780.29   A 0.74 0.74 0.0 0 1 804.65 781.34   L 757.74 882.42   A 0.74 0.74 0.0 0 1 757.07 882.85   Z"/>
<path xmlns="http://www.w3.org/2000/svg" fill="#1a1a1b" d="M 964.82 780.31   L 1003.09 780.31   A 0.73 0.73 0.0 0 1 1003.75 781.35   L 956.81 882.49   A 0.73 0.73 0.0 0 1 956.14 882.91   L 917.88 882.91   A 0.73 0.73 0.0 0 1 917.22 881.87   L 964.15 780.73   A 0.73 0.73 0.0 0 1 964.82 780.31   Z"/>
<path xmlns="http://www.w3.org/2000/svg" fill="#1a1a1b" d="M 1121.63 882.77   L 1088.65 882.77   A 0.59 0.59 0.0 0 1 1088.16 882.51   L 1044.88 818.55   A 0.59 0.59 0.0 0 0 1043.86 818.64   L 1014.26 882.41   A 0.59 0.59 0.0 0 1 1013.72 882.75   L 975.69 882.75   A 0.59 0.59 0.0 0 1 975.16 881.91   L 1022.18 780.61   A 0.59 0.59 0.0 0 1 1022.72 780.27   L 1066.73 780.27   A 0.59 0.59 0.0 0 1 1067.22 780.53   L 1105.59 837.24   A 0.59 0.59 0.0 0 0 1106.61 837.15   L 1132.86 780.59   A 0.59 0.59 0.0 0 1 1133.40 780.25   L 1168.67 780.25   A 0.59 0.59 0.0 0 1 1169.20 781.09   L 1122.17 882.43   A 0.59 0.59 0.0 0 1 1121.63 882.77   Z"/>
<path xmlns="http://www.w3.org/2000/svg" fill="#c09052" d="M 167.17 856.43   L 191.00 806.62   A 1.75 1.73 -76.8 0 1 192.58 805.63   Q 212.18 805.64 250.18 805.63   C 253.88 805.63 254.64 808.72 253.36 811.90   C 250.70 818.50 246.51 825.59 243.09 833.17   Q 240.61 838.69 235.67 849.44   Q 232.19 857.01 224.25 857.01   Q 217.05 857.01 167.58 857.07   A 0.45 0.45 0.0 0 1 167.17 856.43   Z"/>
<path xmlns="http://www.w3.org/2000/svg" fill="#c09052" d="M 664.05 840.10   L 626.83 840.10   A 0.60 0.60 0.0 0 1 626.42 839.07   L 659.59 806.98   A 0.60 0.60 0.0 0 1 660.60 807.34   L 664.64 839.42   A 0.60 0.60 0.0 0 1 664.05 840.10   Z"/>
</g></g></g></g></svg>