<svg xmlns="http://www.w3.org/2000/svg" direction="ltr" width="2048" height="2048" viewBox="21543.17652172377 11645.697327557136 2048 2048" stroke-linecap="round" stroke-linejoin="round" data-color-mode="light" class="tl-container tl-theme__force-sRGB tl-theme__light" style="background-color: transparent;"><defs/><g transform="matrix(1, 0, 0, 1, 21543.1765, 11645.6973)" opacity="1"><g data-lovart-layer-name="SVG 8"><g transform="scale(1.4143646408839778, 1.4143646408839778)"><g>
<g xmlns="http://www.w3.org/2000/svg" stroke-width="2.00" fill="none" stroke-linecap="butt">
<path stroke="#898989" d="M 358.12 494.09   L 264.52 494.09   A 1.94 1.84 -31.0 0 1 263.71 493.91   C 259.56 492.02 260.85 488.39 262.56 484.82   Q 290.04 427.21 290.75 425.77   Q 293.16 420.82 297.27 418.79   Q 299.60 417.63 306.84 417.64   Q 379.47 417.65 391.76 417.64   A 0.92 0.91 -75.9 0 0 392.57 417.15   L 410.08 383.85   A 0.57 0.57 0.0 0 0 409.58 383.02   Q 330.46 383.14 306.59 382.97   Q 289.38 382.84 282.58 384.43   C 266.81 388.12 251.39 398.14 244.22 413.21   Q 213.20 478.35 203.85 499.56   C 198.42 511.89 205.31 523.52 218.03 526.51   Q 221.66 527.37 228.25 527.30   Q 229.57 527.29 342.46 527.29   A 0.70 0.68 -76.9 0 0 343.08 526.89   L 358.55 494.77   A 0.48 0.47 12.9 0 0 358.12 494.09"/>
<path stroke="#898989" d="M 447.16 384.38   C 431.96 388.22 417.26 397.65 410.30 412.05   Q 389.83 454.34 369.45 499.45   Q 366.48 506.03 368.09 512.28   C 371.07 523.82 381.61 527.29 392.51 527.29   Q 489.59 527.31 499.76 527.24   C 513.80 527.15 526.36 520.48 535.54 509.94   Q 539.23 505.69 543.86 495.38   Q 547.87 486.46 562.17 456.40   Q 577.90 423.31 581.23 415.51   Q 583.77 409.57 582.69 401.98   C 581.03 390.23 569.88 384.62 559.36 383.31   Q 556.93 383.00 545.60 383.03   Q 488.47 383.15 471.97 382.98   Q 453.45 382.79 447.16 384.38"/>
<path stroke="#898989" d="M 674.04 489.94   L 657.08 526.77   A 0.37 0.36 -77.5 0 0 657.41 527.29   L 706.64 527.29   A 1.35 1.35 0.0 0 0 707.87 526.50   Q 730.57 477.67 758.68 418.41   C 763.18 408.91 765.41 396.00 755.96 388.77   Q 748.40 382.98 737.74 383.01   Q 696.75 383.10 658.43 382.98   Q 642.12 382.93 636.20 384.36   C 621.68 387.88 605.23 397.61 598.61 411.37   Q 570.87 469.03 544.34 526.60   A 0.48 0.48 0.0 0 0 544.78 527.28   L 595.23 527.28   A 0.95 0.94 12.1 0 0 596.09 526.73   L 612.78 490.50   A 1.70 1.68 12.2 0 1 614.32 489.52   L 673.77 489.52   A 0.30 0.30 0.0 0 1 674.04 489.94"/>
<path stroke="#898989" d="M 811.21 439.77   Q 816.70 428.32 817.75 426.06   C 820.03 421.17 821.33 417.63 826.26 417.63   Q 900.81 417.61 909.05 417.60   A 1.07 1.06 -77.2 0 0 910.01 416.99   L 926.04 383.70   A 0.47 0.46 13.1 0 0 925.62 383.03   Q 883.38 383.07 819.99 382.99   C 802.22 382.97 784.16 392.12 775.95 408.40   Q 771.35 417.51 762.78 436.65   C 760.63 441.46 758.04 446.12 757.36 450.59   Q 755.49 462.82 764.87 468.64   C 769.13 471.28 776.55 472.75 781.50 472.79   Q 826.33 473.17 847.99 473.25   Q 850.02 473.26 850.52 474.90   Q 850.85 475.97 849.84 478.01   Q 847.19 483.41 843.53 490.27   Q 841.54 494.00 837.74 494.01   Q 811.30 494.06 738.62 494.09   A 1.13 1.13 0.0 0 0 737.60 494.73   L 722.27 526.57   A 0.51 0.51 0.0 0 0 722.73 527.30   Q 805.22 527.27 851.50 527.30   C 864.18 527.30 875.82 521.21 883.24 511.21   Q 885.00 508.83 891.89 493.59   Q 898.15 479.72 900.64 474.26   Q 904.16 466.53 904.63 464.66   C 909.03 446.83 895.76 440.36 880.74 440.36   Q 854.48 440.38 811.58 440.35   A 0.41 0.40 12.8 0 1 811.21 439.77"/>
<path stroke="#898989" d="M 921.89 416.99   A 0.59 0.59 0.0 0 0 922.42 417.85   L 971.68 417.85   A 0.59 0.59 0.0 0 1 972.21 418.69   L 922.59 526.45   A 0.59 0.59 0.0 0 0 923.12 527.29   L 971.27 527.29   A 0.59 0.59 0.0 0 0 971.80 526.96   L 1024.17 418.18   A 0.59 0.59 0.0 0 1 1024.70 417.85   L 1069.69 417.85   A 0.59 0.59 0.0 0 0 1070.21 417.53   L 1087.24 383.89   A 0.59 0.59 0.0 0 0 1086.71 383.03   L 939.44 383.03   A 0.59 0.59 0.0 0 0 938.92 383.35   L 921.89 416.99"/>
<path stroke="#898989" d="M 1029.17 527.28   L 1078.41 527.29   A 1.30 1.29 12.6 0 0 1079.58 526.55   L 1096.38 490.07   A 1.13 1.12 -77.7 0 1 1097.40 489.41   L 1156.47 489.41   A 0.54 0.54 0.0 0 1 1156.96 490.17   L 1140.14 526.70   A 0.42 0.41 12.6 0 0 1140.52 527.29   L 1189.75 527.29   A 1.08 1.08 0.0 0 0 1190.73 526.67   Q 1212.84 479.59 1242.89 415.16   C 1246.65 407.08 1246.65 395.76 1239.44 389.81   Q 1231.16 382.98 1219.74 383.02   Q 1204.39 383.09 1132.50 382.98   C 1114.46 382.96 1097.60 390.12 1086.62 404.50   Q 1083.69 408.35 1080.40 415.26   C 1070.41 436.26 1055.29 468.95 1029.86 523.62   Q 1028.49 526.56 1028.52 526.75   A 0.66 0.65 -5.2 0 0 1029.17 527.28"/>
<path stroke="#898989" d="M 1274.45 383.00   A 0.51 0.51 0.0 0 0 1273.99 383.29   L 1205.01 526.56   A 0.51 0.51 0.0 0 0 1205.47 527.29   L 1340.74 527.29   A 0.51 0.51 0.0 0 0 1341.20 527.00   L 1356.66 494.88   A 0.51 0.51 0.0 0 0 1356.20 494.15   L 1274.18 494.15   A 0.51 0.51 0.0 0 1 1273.72 493.42   L 1326.53 383.73   A 0.51 0.51 0.0 0 0 1326.07 383.00   L 1274.45 383.00"/>
<path stroke="#dbc6ab" d="M 999.73 642.13   Q 1008.27 622.97 1008.85 621.89   C 1011.58 616.79 1015.61 615.79 1021.51 615.81   Q 1030.95 615.85 1127.94 615.86   A 1.32 1.31 12.2 0 0 1129.14 615.09   Q 1139.45 592.42 1150.68 571.14   A 0.47 0.46 13.4 0 0 1150.26 570.46   Q 1090.01 570.74 1020.95 570.46   Q 1001.87 570.39 994.69 571.98   Q 975.90 576.15 962.77 589.02   C 954.81 596.82 950.93 606.55 946.16 617.39   Q 940.66 629.89 933.74 645.23   C 926.18 661.98 929.27 678.00 947.97 683.50   Q 954.07 685.29 959.00 685.30   Q 1030.00 685.41 1044.64 685.34   C 1047.85 685.33 1051.41 687.02 1049.46 690.58   Q 1046.25 696.41 1043.91 702.81   C 1041.22 710.15 1038.88 713.78 1031.05 713.76   Q 977.26 713.64 918.25 713.73   Q 915.24 713.74 907.70 714.13   A 0.91 0.91 0.0 0 0 906.93 714.65   L 887.70 756.42   A 0.52 0.51 12.4 0 0 888.17 757.15   Q 963.53 757.04 1032.27 757.19   Q 1051.51 757.23 1055.69 756.51   C 1073.61 753.43 1089.06 743.40 1096.27 727.51   Q 1109.29 698.84 1117.73 680.01   C 1121.99 670.49 1122.98 658.58 1115.14 650.81   C 1109.00 644.74 1100.18 642.85 1092.06 642.81   Q 1052.79 642.60 1000.10 642.70   A 0.41 0.40 12.2 0 1 999.73 642.13"/>
<path stroke="#dbc6ab" d="M 1208.73 616.36   L 1147.27 756.35   A 0.56 0.56 0.0 0 0 1147.78 757.13   L 1208.84 757.13   A 1.42 1.42 0.0 0 0 1210.13 756.30   L 1273.61 616.43   A 0.71 0.69 -77.2 0 1 1274.24 616.02   L 1328.91 616.02   A 2.13 2.12 -77.6 0 0 1330.84 614.78   L 1350.99 571.05   A 0.31 0.31 0.0 0 0 1350.71 570.62   L 1166.46 570.62   A 1.58 1.57 -77.1 0 0 1165.04 571.52   Q 1147.23 609.04 1144.64 615.00   Q 1144.51 615.29 1144.67 615.67   A 0.37 0.36 77.1 0 0 1145.00 615.88   L 1208.41 615.88   A 0.35 0.34 11.7 0 1 1208.73 616.36"/>
<path stroke="#dbc6ab" d="M 223.22 642.01   Q 233.76 639.98 244.23 638.02   Q 246.07 637.68 247.00 635.74   Q 249.07 631.41 250.93 627.00   C 253.60 620.68 257.05 616.19 264.05 616.16   Q 301.04 616.01 388.32 616.07   A 1.89 1.88 12.1 0 0 390.04 614.96   Q 400.36 591.98 411.26 571.23   A 0.50 0.50 0.0 0 0 410.82 570.50   Q 338.73 570.61 255.50 570.48   Q 227.85 570.44 206.95 587.22   Q 196.49 595.62 191.97 605.77   Q 156.54 685.46 125.67 756.52   A 0.40 0.40 0.0 0 0 126.04 757.08   L 192.09 757.08   A 1.35 1.35 0.0 0 0 193.32 756.29   L 224.96 686.56   A 0.72 0.71 12.2 0 1 225.61 686.15   L 352.02 686.15   A 1.57 1.56 -77.6 0 0 353.44 685.24   L 372.57 643.09   A 0.46 0.45 12.1 0 0 372.15 642.45   L 223.27 642.45   A 0.22 0.22 0.0 0 1 223.22 642.01"/>
<path stroke="#dbc6ab" d="M 494.25 570.55   L 429.85 570.55   A 0.93 0.92 -77.5 0 0 429.01 571.09   Q 412.31 606.57 392.62 650.58   Q 370.81 699.35 345.90 756.55   A 0.37 0.37 0.0 0 0 346.24 757.07   L 408.48 757.07   A 1.24 1.23 12.3 0 0 409.60 756.36   L 494.79 571.40   A 0.60 0.60 0.0 0 0 494.25 570.55"/>
<path stroke="#dbc6ab" d="M 631.26 675.28   L 588.06 571.52   A 1.21 1.20 78.6 0 0 586.95 570.78   L 514.56 570.78   A 1.08 1.08 0.0 0 0 513.58 571.41   C 489.68 622.65 464.91 678.52 444.32 724.70   C 439.73 735.01 435.94 744.02 430.33 756.10   A 0.70 0.70 0.0 0 0 430.97 757.10   L 492.42 757.10   A 0.73 0.71 11.9 0 0 493.08 756.68   L 542.58 647.61   A 0.23 0.23 0.0 0 1 543.00 647.62   L 591.82 756.78   A 0.56 0.56 0.0 0 0 592.33 757.11   L 650.34 757.11   A 1.31 1.31 0.0 0 0 651.53 756.35   L 736.75 571.32   A 0.55 0.55 0.0 0 0 736.25 570.54   L 680.61 570.54   A 1.62 1.61 -77.8 0 0 679.14 571.49   L 632.02 675.29   A 0.41 0.41 0.0 0 1 631.26 675.28"/>
<path stroke="#dbc6ab" d="M 770.47 642.07   L 791.79 637.83   A 2.82 2.82 0.0 0 0 793.81 636.23   L 802.75 616.53   A 0.79 0.79 0.0 0 1 803.47 616.07   L 930.53 616.07   A 2.21 2.20 -77.2 0 0 932.52 614.81   L 953.47 571.30   A 0.52 0.52 0.0 0 0 953.00 570.55   L 756.20 570.55   A 0.92 0.91 -77.2 0 0 755.37 571.08   C 726.71 632.02 693.97 705.56 671.08 756.28   A 0.58 0.58 0.0 0 0 671.61 757.09   L 870.92 757.09   A 1.12 1.11 12.5 0 0 871.93 756.45   L 892.20 714.36   A 0.45 0.45 0.0 0 0 891.79 713.72   L 760.66 713.72   A 0.47 0.47 0.0 0 1 760.23 713.05   L 772.25 686.55   A 0.75 0.75 0.0 0 1 772.93 686.11   L 888.36 686.11   A 1.39 1.38 12.3 0 0 889.62 685.31   L 909.01 643.22   A 0.55 0.54 12.2 0 0 908.51 642.45   L 770.51 642.45   A 0.19 0.19 0.0 0 1 770.47 642.07"/>
<path stroke="#898989" d="M 463.28 794.66   A 0.53 0.53 0.0 0 0 462.79 794.98   L 448.26 828.08   A 0.53 0.53 0.0 0 0 448.74 828.82   L 494.02 828.82   A 0.53 0.53 0.0 0 1 494.51 829.55   L 450.71 934.00   A 0.53 0.53 0.0 0 0 451.20 934.73   L 498.72 934.73   A 0.53 0.53 0.0 0 0 499.21 934.41   L 543.89 829.16   A 0.53 0.53 0.0 0 1 544.38 828.84   L 588.92 828.84   A 0.53 0.53 0.0 0 0 589.41 828.52   L 603.95 795.40   A 0.53 0.53 0.0 0 0 603.47 794.66   L 463.28 794.66"/>
<path stroke="#898989" d="M 1370.98 794.61   Q 1307.52 794.73 1271.49 794.63   C 1252.27 794.58 1233.23 804.47 1225.68 822.66   Q 1220.42 835.33 1213.34 851.92   Q 1192.51 900.77 1189.77 907.76   C 1184.02 922.42 1193.03 934.72 1208.50 934.72   Q 1296.09 934.71 1296.75 934.73   Q 1307.18 935.10 1313.94 933.25   Q 1333.10 928.02 1340.97 909.20   Q 1353.83 878.41 1365.31 852.25   A 0.28 0.28 0.0 0 0 1365.05 851.85   L 1285.27 851.85   A 0.94 0.94 0.0 0 0 1284.40 852.43   L 1272.38 881.09   A 0.50 0.49 -78.5 0 0 1272.83 881.78   L 1306.93 881.78   A 0.51 0.51 0.0 0 1 1307.40 882.50   Q 1304.02 889.83 1301.94 894.90   C 1300.15 899.28 1297.43 902.48 1292.76 902.50   Q 1278.42 902.54 1249.72 902.45   Q 1245.40 902.44 1244.83 902.20   C 1242.13 901.10 1242.26 897.59 1243.25 895.23   Q 1254.35 868.76 1269.50 834.03   Q 1271.74 828.88 1276.79 828.87   Q 1326.42 828.82 1355.97 828.85   A 1.24 1.24 0.0 0 0 1357.10 828.12   L 1371.47 795.37   A 0.54 0.54 0.0 0 0 1370.98 794.61"/>
<path stroke="#898989" d="M 67.55 934.80   Q 83.28 934.69 181.45 934.82   Q 201.09 934.85 206.48 933.78   C 220.31 931.04 234.58 921.09 240.23 907.49   Q 265.31 847.05 271.14 833.31   Q 275.30 823.49 275.48 818.84   C 276.08 803.23 262.02 794.73 247.99 794.71   Q 202.54 794.63 126.07 794.68   A 0.80 0.78 11.1 0 0 125.34 795.16   L 67.07 934.08   A 0.52 0.52 0.0 0 0 67.55 934.80"/>
<path stroke="#898989" d="M 312.38 847.88   L 327.98 844.78   A 2.12 2.11 4.9 0 0 329.53 843.48   Q 332.60 835.71 333.92 833.17   C 335.94 829.25 339.70 828.78 343.75 828.80   Q 356.99 828.87 435.56 828.83   A 1.27 1.26 11.7 0 0 436.72 828.07   L 451.17 795.17   A 0.36 0.36 0.0 0 0 450.84 794.67   Q 418.94 794.69 345.66 794.60   Q 329.16 794.58 322.96 796.12   Q 309.68 799.41 299.33 809.06   Q 292.82 815.13 290.09 821.59   Q 265.81 879.20 253.87 907.87   C 248.00 921.95 255.72 934.68 271.25 934.67   Q 334.78 934.62 397.30 934.66   A 0.73 0.71 10.8 0 0 397.97 934.22   Q 405.84 914.98 411.14 903.41   Q 411.29 903.08 411.25 902.90   Q 411.15 902.51 410.73 902.51   Q 398.84 902.48 311.75 902.51   Q 307.05 902.51 307.53 897.64   A 1.33 1.30 60.3 0 1 307.64 897.22   L 314.63 880.90   A 1.12 1.10 -78.3 0 1 315.65 880.22   L 405.78 880.22   A 1.17 1.17 0.0 0 0 406.86 879.50   L 419.61 849.10   A 0.61 0.61 0.0 0 0 419.05 848.25   Q 355.47 848.22 316.01 848.27   Q 312.84 848.27 312.39 848.20   A 0.16 0.16 0.0 0 1 312.38 847.88"/>
<path stroke="#898989" d="M 663.21 934.75   L 711.13 934.75   A 0.84 0.82 -75.0 0 0 711.85 934.32   Q 712.43 933.23 713.19 931.45   C 724.48 905.08 733.99 883.49 742.94 861.53   C 747.97 849.18 754.46 835.61 758.65 824.64   C 762.04 815.78 761.18 805.64 753.15 799.93   C 745.55 794.53 737.98 794.62 727.54 794.63   Q 668.53 794.74 652.05 794.61   Q 640.69 794.53 634.58 796.05   C 620.15 799.66 607.02 809.09 600.98 823.24   Q 575.50 882.99 554.72 933.97   A 0.54 0.54 0.0 0 0 555.22 934.71   L 602.77 934.71   A 0.79 0.77 11.3 0 0 603.49 934.24   L 618.11 899.81   A 0.93 0.92 11.6 0 1 618.96 899.25   L 677.20 899.25   A 0.37 0.36 -78.6 0 1 677.53 899.76   L 662.88 934.25   A 0.36 0.36 0.0 0 0 663.21 934.75"/>
<path stroke="#898989" d="M 788.19 794.63   A 0.31 0.31 0.0 0 0 787.90 794.82   L 728.69 934.26   A 0.31 0.31 0.0 0 0 728.98 934.69   L 778.54 934.69   A 0.31 0.31 0.0 0 0 778.83 934.50   L 838.04 795.06   A 0.31 0.31 0.0 0 0 837.75 794.63   L 788.19 794.63"/>
<path stroke="#898989" d="M 941.58 903.10   A 0.45 0.45 0.0 0 0 941.17 902.47   L 860.89 902.47   A 0.45 0.45 0.0 0 1 860.48 901.84   L 907.25 795.29   A 0.45 0.45 0.0 0 0 906.84 794.66   L 856.94 794.66   A 0.45 0.45 0.0 0 0 856.52 794.93   L 797.43 934.12   A 0.45 0.45 0.0 0 0 797.84 934.75   L 927.39 934.75   A 0.45 0.45 0.0 0 0 927.80 934.48   L 941.58 903.10"/>
<path stroke="#898989" d="M 999.43 794.61   A 0.69 0.69 0.0 0 0 998.79 795.03   L 939.90 933.74   A 0.69 0.69 0.0 0 0 940.53 934.70   L 988.06 934.70   A 0.69 0.69 0.0 0 0 988.70 934.28   L 1047.59 795.57   A 0.69 0.69 0.0 0 0 1046.96 794.61   L 999.43 794.61"/>
<path stroke="#898989" d="M 1147.82 869.62   L 1116.81 795.16   A 0.83 0.82 -11.2 0 0 1116.05 794.66   L 1064.80 794.66   A 1.00 0.99 -78.2 0 0 1063.89 795.26   L 1005.01 933.94   A 0.56 0.56 0.0 0 0 1005.52 934.72   L 1047.56 934.72   A 1.39 1.39 0.0 0 0 1048.84 933.87   L 1082.62 854.32   A 0.33 0.33 0.0 0 1 1083.16 854.22   Q 1083.53 854.60 1083.70 854.96   Q 1097.77 884.76 1118.98 933.93   A 1.30 1.28 78.1 0 0 1120.16 934.71   L 1161.41 934.71   A 1.01 1.01 0.0 0 0 1162.34 934.09   L 1221.38 795.04   A 0.28 0.27 11.2 0 0 1221.12 794.66   L 1180.83 794.66   A 0.78 0.76 11.5 0 0 1180.12 795.12   L 1148.49 869.62   A 0.36 0.36 0.0 0 1 1147.82 869.62"/>
<path stroke="#898989" d="M 426.72 486.73   C 424.91 490.56 426.47 493.89 430.89 494.10   Q 431.89 494.15 490.43 494.15   A 2.66 2.57 32.5 0 0 491.46 493.94   C 497.57 491.31 498.86 487.17 502.12 480.20   Q 511.98 459.14 527.34 426.83   Q 528.81 423.74 527.39 420.56   A 2.52 2.42 11.0 0 0 526.82 419.75   Q 524.62 417.67 520.25 417.67   Q 489.94 417.65 468.89 417.65   C 463.10 417.64 459.14 418.50 456.66 423.65   Q 453.90 429.40 426.72 486.73"/>
<path stroke="#898989" d="M 629.10 455.81   A 0.43 0.42 10.7 0 0 629.50 456.40   L 691.06 456.42   A 0.68 0.68 0.0 0 0 691.68 456.02   Q 700.68 437.00 705.13 427.43   C 707.03 423.34 706.98 418.01 701.18 417.80   Q 694.81 417.56 657.10 417.67   C 648.56 417.70 645.66 421.05 642.02 428.65   Q 629.72 454.26 629.10 455.81"/>
<path stroke="#898989" d="M 1112.34 455.79   A 0.43 0.42 10.7 0 0 1112.74 456.37   L 1174.16 456.37   A 0.68 0.68 0.0 0 0 1174.78 455.97   Q 1183.75 436.99 1188.19 427.44   C 1190.08 423.36 1190.03 418.04 1184.24 417.83   Q 1177.89 417.59 1140.26 417.72   C 1131.74 417.75 1128.85 421.10 1125.22 428.68   Q 1112.96 454.24 1112.34 455.79"/>
<path stroke="#898989" d="M 129.69 902.80   Q 179.82 902.95 183.77 902.88   C 191.81 902.72 194.69 901.42 197.84 894.16   Q 217.25 849.37 221.44 839.24   Q 222.72 836.15 222.50 833.27   A 3.27 3.25 14.1 0 0 220.98 830.75   Q 218.00 828.90 215.01 828.91   Q 197.87 828.96 162.55 828.92   A 3.26 3.26 0.0 0 0 159.53 830.92   L 129.50 902.51   A 0.21 0.21 0.0 0 0 129.69 902.80"/>
<path stroke="#898989" d="M 632.77 866.63   L 692.00 866.63   A 2.22 2.21 11.4 0 0 694.04 865.28   Q 699.80 851.70 705.39 839.14   C 707.41 834.61 707.47 828.71 700.75 828.70   Q 679.59 828.67 658.25 828.71   Q 654.32 828.72 651.14 829.90   C 646.87 831.48 645.92 834.34 643.82 839.09   Q 638.93 850.21 632.30 865.92   A 0.51 0.51 0.0 0 0 632.77 866.63"/>
</g>
<path xmlns="http://www.w3.org/2000/svg" fill="#ffffff" d="M 1448.00 0.00   L 1448.00 1448.00   L 0.00 1448.00   L 0.00 0.00   L 1448.00 0.00   Z   M 358.12 494.09   L 264.52 494.09   A 1.94 1.84 -31.0 0 1 263.71 493.91   C 259.56 492.02 260.85 488.39 262.56 484.82   Q 290.04 427.21 290.75 425.77   Q 293.16 420.82 297.27 418.79   Q 299.60 417.63 306.84 417.64   Q 379.47 417.65 391.76 417.64   A 0.92 0.91 -75.9 0 0 392.57 417.15   L 410.08 383.85   A 0.57 0.57 0.0 0 0 409.58 383.02   Q 330.46 383.14 306.59 382.97   Q 289.38 382.84 282.58 384.43   C 266.81 388.12 251.39 398.14 244.22 413.21   Q 213.20 478.35 203.85 499.56   C 198.42 511.89 205.31 523.52 218.03 526.51   Q 221.66 527.37 228.25 527.30   Q 229.57 527.29 342.46 527.29   A 0.70 0.68 -76.9 0 0 343.08 526.89   L 358.55 494.77   A 0.48 0.47 12.9 0 0 358.12 494.09   Z   M 447.16 384.38   C 431.96 388.22 417.26 397.65 410.30 412.05   Q 389.83 454.34 369.45 499.45   Q 366.48 506.03 368.09 512.28   C 371.07 523.82 381.61 527.29 392.51 527.29   Q 489.59 527.31 499.76 527.24   C 513.80 527.15 526.36 520.48 535.54 509.94   Q 539.23 505.69 543.86 495.38   Q 547.87 486.46 562.17 456.40   Q 577.90 423.31 581.23 415.51   Q 583.77 409.57 582.69 401.98   C 581.03 390.23 569.88 384.62 559.36 383.31   Q 556.93 383.00 545.60 383.03   Q 488.47 383.15 471.97 382.98   Q 453.45 382.79 447.16 384.38   Z   M 674.04 489.94   L 657.08 526.77   A 0.37 0.36 -77.5 0 0 657.41 527.29   L 706.64 527.29   A 1.35 1.35 0.0 0 0 707.87 526.50   Q 730.57 477.67 758.68 418.41   C 763.18 408.91 765.41 396.00 755.96 388.77   Q 748.40 382.98 737.74 383.01   Q 696.75 383.10 658.43 382.98   Q 642.12 382.93 636.20 384.36   C 621.68 387.88 605.23 397.61 598.61 411.37   Q 570.87 469.03 544.34 526.60   A 0.48 0.48 0.0 0 0 544.78 527.28   L 595.23 527.28   A 0.95 0.94 12.1 0 0 596.09 526.73   L 612.78 490.50   A 1.70 1.68 12.2 0 1 614.32 489.52   L 673.77 489.52   A 0.30 0.30 0.0 0 1 674.04 489.94   Z   M 811.21 439.77   Q 816.70 428.32 817.75 426.06   C 820.03 421.17 821.33 417.63 826.26 417.63   Q 900.81 417.61 909.05 417.60   A 1.07 1.06 -77.2 0 0 910.01 416.99   L 926.04 383.70   A 0.47 0.46 13.1 0 0 925.62 383.03   Q 883.38 383.07 819.99 382.99   C 802.22 382.97 784.16 392.12 775.95 408.40   Q 771.35 417.51 762.78 436.65   C 760.63 441.46 758.04 446.12 757.36 450.59   Q 755.49 462.82 764.87 468.64   C 769.13 471.28 776.55 472.75 781.50 472.79   Q 826.33 473.17 847.99 473.25   Q 850.02 473.26 850.52 474.90   Q 850.85 475.97 849.84 478.01   Q 847.19 483.41 843.53 490.27   Q 841.54 494.00 837.74 494.01   Q 811.30 494.06 738.62 494.09   A 1.13 1.13 0.0 0 0 737.60 494.73   L 722.27 526.57   A 0.51 0.51 0.0 0 0 722.73 527.30   Q 805.22 527.27 851.50 527.30   C 864.18 527.30 875.82 521.21 883.24 511.21   Q 885.00 508.83 891.89 493.59   Q 898.15 479.72 900.64 474.26   Q 904.16 466.53 904.63 464.66   C 909.03 446.83 895.76 440.36 880.74 440.36   Q 854.48 440.38 811.58 440.35   A 0.41 0.40 12.8 0 1 811.21 439.77   Z   M 921.89 416.99   A 0.59 0.59 0.0 0 0 922.42 417.85   L 971.68 417.85   A 0.59 0.59 0.0 0 1 972.21 418.69   L 922.59 526.45   A 0.59 0.59 0.0 0 0 923.12 527.29   L 971.27 527.29   A 0.59 0.59 0.0 0 0 971.80 526.96   L 1024.17 418.18   A 0.59 0.59 0.0 0 1 1024.70 417.85   L 1069.69 417.85   A 0.59 0.59 0.0 0 0 1070.21 417.53   L 1087.24 383.89   A 0.59 0.59 0.0 0 0 1086.71 383.03   L 939.44 383.03   A 0.59 0.59 0.0 0 0 938.92 383.35   L 921.89 416.99   Z   M 1029.17 527.28   L 1078.41 527.29   A 1.30 1.29 12.6 0 0 1079.58 526.55   L 1096.38 490.07   A 1.13 1.12 -77.7 0 1 1097.40 489.41   L 1156.47 489.41   A 0.54 0.54 0.0 0 1 1156.96 490.17   L 1140.14 526.70   A 0.42 0.41 12.6 0 0 1140.52 527.29   L 1189.75 527.29   A 1.08 1.08 0.0 0 0 1190.73 526.67   Q 1212.84 479.59 1242.89 415.16   C 1246.65 407.08 1246.65 395.76 1239.44 389.81   Q 1231.16 382.98 1219.74 383.02   Q 1204.39 383.09 1132.50 382.98   C 1114.46 382.96 1097.60 390.12 1086.62 404.50   Q 1083.69 408.35 1080.40 415.26   C 1070.41 436.26 1055.29 468.95 1029.86 523.62   Q 1028.49 526.56 1028.52 526.75   A 0.66 0.65 -5.2 0 0 1029.17 527.28   Z   M 1274.45 383.00   A 0.51 0.51 0.0 0 0 1273.99 383.29   L 1205.01 526.56   A 0.51 0.51 0.0 0 0 1205.47 527.29   L 1340.74 527.29   A 0.51 0.51 0.0 0 0 1341.20 527.00   L 1356.66 494.88   A 0.51 0.51 0.0 0 0 1356.20 494.15   L 1274.18 494.15   A 0.51 0.51 0.0 0 1 1273.72 493.42   L 1326.53 383.73   A 0.51 0.51 0.0 0 0 1326.07 383.00   L 1274.45 383.00   Z   M 999.73 642.13   Q 1008.27 622.97 1008.85 621.89   C 1011.58 616.79 1015.61 615.79 1021.51 615.81   Q 1030.95 615.85 1127.94 615.86   A 1.32 1.31 12.2 0 0 1129.14 615.09   Q 1139.45 592.42 1150.68 571.14   A 0.47 0.46 13.4 0 0 1150.26 570.46   Q 1090.01 570.74 1020.95 570.46   Q 1001.87 570.39 994.69 571.98   Q 975.90 576.15 962.77 589.02   C 954.81 596.82 950.93 606.55 946.16 617.39   Q 940.66 629.89 933.74 645.23   C 926.18 661.98 929.27 678.00 947.97 683.50   Q 954.07 685.29 959.00 685.30   Q 1030.00 685.41 1044.64 685.34   C 1047.85 685.33 1051.41 687.02 1049.46 690.58   Q 1046.25 696.41 1043.91 702.81   C 1041.22 710.15 1038.88 713.78 1031.05 713.76   Q 977.26 713.64 918.25 713.73   Q 915.24 713.74 907.70 714.13   A 0.91 0.91 0.0 0 0 906.93 714.65   L 887.70 756.42   A 0.52 0.51 12.4 0 0 888.17 757.15   Q 963.53 757.04 1032.27 757.19   Q 1051.51 757.23 1055.69 756.51   C 1073.61 753.43 1089.06 743.40 1096.27 727.51   Q 1109.29 698.84 1117.73 680.01   C 1121.99 670.49 1122.98 658.58 1115.14 650.81   C 1109.00 644.74 1100.18 642.85 1092.06 642.81   Q 1052.79 642.60 1000.10 642.70   A 0.41 0.40 12.2 0 1 999.73 642.13   Z   M 1208.73 616.36   L 1147.27 756.35   A 0.56 0.56 0.0 0 0 1147.78 757.13   L 1208.84 757.13   A 1.42 1.42 0.0 0 0 1210.13 756.30   L 1273.61 616.43   A 0.71 0.69 -77.2 0 1 1274.24 616.02   L 1328.91 616.02   A 2.13 2.12 -77.6 0 0 1330.84 614.78   L 1350.99 571.05   A 0.31 0.31 0.0 0 0 1350.71 570.62   L 1166.46 570.62   A 1.58 1.57 -77.1 0 0 1165.04 571.52   Q 1147.23 609.04 1144.64 615.00   Q 1144.51 615.29 1144.67 615.67   A 0.37 0.36 77.1 0 0 1145.00 615.88   L 1208.41 615.88   A 0.35 0.34 11.7 0 1 1208.73 616.36   Z   M 223.22 642.01   Q 233.76 639.98 244.23 638.02   Q 246.07 637.68 247.00 635.74   Q 249.07 631.41 250.93 627.00   C 253.60 620.68 257.05 616.19 264.05 616.16   Q 301.04 616.01 388.32 616.07   A 1.89 1.88 12.1 0 0 390.04 614.96   Q 400.36 591.98 411.26 571.23   A 0.50 0.50 0.0 0 0 410.82 570.50   Q 338.73 570.61 255.50 570.48   Q 227.85 570.44 206.95 587.22   Q 196.49 595.62 191.97 605.77   Q 156.54 685.46 125.67 756.52   A 0.40 0.40 0.0 0 0 126.04 757.08   L 192.09 757.08   A 1.35 1.35 0.0 0 0 193.32 756.29   L 224.96 686.56   A 0.72 0.71 12.2 0 1 225.61 686.15   L 352.02 686.15   A 1.57 1.56 -77.6 0 0 353.44 685.24   L 372.57 643.09   A 0.46 0.45 12.1 0 0 372.15 642.45   L 223.27 642.45   A 0.22 0.22 0.0 0 1 223.22 642.01   Z   M 494.25 570.55   L 429.85 570.55   A 0.93 0.92 -77.5 0 0 429.01 571.09   Q 412.31 606.57 392.62 650.58   Q 370.81 699.35 345.90 756.55   A 0.37 0.37 0.0 0 0 346.24 757.07   L 408.48 757.07   A 1.24 1.23 12.3 0 0 409.60 756.36   L 494.79 571.40   A 0.60 0.60 0.0 0 0 494.25 570.55   Z   M 631.26 675.28   L 588.06 571.52   A 1.21 1.20 78.6 0 0 586.95 570.78   L 514.56 570.78   A 1.08 1.08 0.0 0 0 513.58 571.41   C 489.68 622.65 464.91 678.52 444.32 724.70   C 439.73 735.01 435.94 744.02 430.33 756.10   A 0.70 0.70 0.0 0 0 430.97 757.10   L 492.42 757.10   A 0.73 0.71 11.9 0 0 493.08 756.68   L 542.58 647.61   A 0.23 0.23 0.0 0 1 543.00 647.62   L 591.82 756.78   A 0.56 0.56 0.0 0 0 592.33 757.11   L 650.34 757.11   A 1.31 1.31 0.0 0 0 651.53 756.35   L 736.75 571.32   A 0.55 0.55 0.0 0 0 736.25 570.54   L 680.61 570.54   A 1.62 1.61 -77.8 0 0 679.14 571.49   L 632.02 675.29   A 0.41 0.41 0.0 0 1 631.26 675.28   Z   M 770.47 642.07   L 791.79 637.83   A 2.82 2.82 0.0 0 0 793.81 636.23   L 802.75 616.53   A 0.79 0.79 0.0 0 1 803.47 616.07   L 930.53 616.07   A 2.21 2.20 -77.2 0 0 932.52 614.81   L 953.47 571.30   A 0.52 0.52 0.0 0 0 953.00 570.55   L 756.20 570.55   A 0.92 0.91 -77.2 0 0 755.37 571.08   C 726.71 632.02 693.97 705.56 671.08 756.28   A 0.58 0.58 0.0 0 0 671.61 757.09   L 870.92 757.09   A 1.12 1.11 12.5 0 0 871.93 756.45   L 892.20 714.36   A 0.45 0.45 0.0 0 0 891.79 713.72   L 760.66 713.72   A 0.47 0.47 0.0 0 1 760.23 713.05   L 772.25 686.55   A 0.75 0.75 0.0 0 1 772.93 686.11   L 888.36 686.11   A 1.39 1.38 12.3 0 0 889.62 685.31   L 909.01 643.22   A 0.55 0.54 12.2 0 0 908.51 642.45   L 770.51 642.45   A 0.19 0.19 0.0 0 1 770.47 642.07   Z   M 463.28 794.66   A 0.53 0.53 0.0 0 0 462.79 794.98   L 448.26 828.08   A 0.53 0.53 0.0 0 0 448.74 828.82   L 494.02 828.82   A 0.53 0.53 0.0 0 1 494.51 829.55   L 450.71 934.00   A 0.53 0.53 0.0 0 0 451.20 934.73   L 498.72 934.73   A 0.53 0.53 0.0 0 0 499.21 934.41   L 543.89 829.16   A 0.53 0.53 0.0 0 1 544.38 828.84   L 588.92 828.84   A 0.53 0.53 0.0 0 0 589.41 828.52   L 603.95 795.40   A 0.53 0.53 0.0 0 0 603.47 794.66   L 463.28 794.66   Z   M 1370.98 794.61   Q 1307.52 794.73 1271.49 794.63   C 1252.27 794.58 1233.23 804.47 1225.68 822.66   Q 1220.42 835.33 1213.34 851.92   Q 1192.51 900.77 1189.77 907.76   C 1184.02 922.42 1193.03 934.72 1208.50 934.72   Q 1296.09 934.71 1296.75 934.73   Q 1307.18 935.10 1313.94 933.25   Q 1333.10 928.02 1340.97 909.20   Q 1353.83 878.41 1365.31 852.25   A 0.28 0.28 0.0 0 0 1365.05 851.85   L 1285.27 851.85   A 0.94 0.94 0.0 0 0 1284.40 852.43   L 1272.38 881.09   A 0.50 0.49 -78.5 0 0 1272.83 881.78   L 1306.93 881.78   A 0.51 0.51 0.0 0 1 1307.40 882.50   Q 1304.02 889.83 1301.94 894.90   C 1300.15 899.28 1297.43 902.48 1292.76 902.50   Q 1278.42 902.54 1249.72 902.45   Q 1245.40 902.44 1244.83 902.20   C 1242.13 901.10 1242.26 897.59 1243.25 895.23   Q 1254.35 868.76 1269.50 834.03   Q 1271.74 828.88 1276.79 828.87   Q 1326.42 828.82 1355.97 828.85   A 1.24 1.24 0.0 0 0 1357.10 828.12   L 1371.47 795.37   A 0.54 0.54 0.0 0 0 1370.98 794.61   Z   M 67.55 934.80   Q 83.28 934.69 181.45 934.82   Q 201.09 934.85 206.48 933.78   C 220.31 931.04 234.58 921.09 240.23 907.49   Q 265.31 847.05 271.14 833.31   Q 275.30 823.49 275.48 818.84   C 276.08 803.23 262.02 794.73 247.99 794.71   Q 202.54 794.63 126.07 794.68   A 0.80 0.78 11.1 0 0 125.34 795.16   L 67.07 934.08   A 0.52 0.52 0.0 0 0 67.55 934.80   Z   M 312.38 847.88   L 327.98 844.78   A 2.12 2.11 4.9 0 0 329.53 843.48   Q 332.60 835.71 333.92 833.17   C 335.94 829.25 339.70 828.78 343.75 828.80   Q 356.99 828.87 435.56 828.83   A 1.27 1.26 11.7 0 0 436.72 828.07   L 451.17 795.17   A 0.36 0.36 0.0 0 0 450.84 794.67   Q 418.94 794.69 345.66 794.60   Q 329.16 794.58 322.96 796.12   Q 309.68 799.41 299.33 809.06   Q 292.82 815.13 290.09 821.59   Q 265.81 879.20 253.87 907.87   C 248.00 921.95 255.72 934.68 271.25 934.67   Q 334.78 934.62 397.30 934.66   A 0.73 0.71 10.8 0 0 397.97 934.22   Q 405.84 914.98 411.14 903.41   Q 411.29 903.08 411.25 902.90   Q 411.15 902.51 410.73 902.51   Q 398.84 902.48 311.75 902.51   Q 307.05 902.51 307.53 897.64   A 1.33 1.30 60.3 0 1 307.64 897.22   L 314.63 880.90   A 1.12 1.10 -78.3 0 1 315.65 880.22   L 405.78 880.22   A 1.17 1.17 0.0 0 0 406.86 879.50   L 419.61 849.10   A 0.61 0.61 0.0 0 0 419.05 848.25   Q 355.47 848.22 316.01 848.27   Q 312.84 848.27 312.39 848.20   A 0.16 0.16 0.0 0 1 312.38 847.88   Z   M 663.21 934.75   L 711.13 934.75   A 0.84 0.82 -75.0 0 0 711.85 934.32   Q 712.43 933.23 713.19 931.45   C 724.48 905.08 733.99 883.49 742.94 861.53   C 747.97 849.18 754.46 835.61 758.65 824.64   C 762.04 815.78 761.18 805.64 753.15 799.93   C 745.55 794.53 737.98 794.62 727.54 794.63   Q 668.53 794.74 652.05 794.61   Q 640.69 794.53 634.58 796.05   C 620.15 799.66 607.02 809.09 600.98 823.24   Q 575.50 882.99 554.72 933.97   A 0.54 0.54 0.0 0 0 555.22 934.71   L 602.77 934.71   A 0.79 0.77 11.3 0 0 603.49 934.24   L 618.11 899.81   A 0.93 0.92 11.6 0 1 618.96 899.25   L 677.20 899.25   A 0.37 0.36 -78.6 0 1 677.53 899.76   L 662.88 934.25   A 0.36 0.36 0.0 0 0 663.21 934.75   Z   M 788.19 794.63   A 0.31 0.31 0.0 0 0 787.90 794.82   L 728.69 934.26   A 0.31 0.31 0.0 0 0 728.98 934.69   L 778.54 934.69   A 0.31 0.31 0.0 0 0 778.83 934.50   L 838.04 795.06   A 0.31 0.31 0.0 0 0 837.75 794.63   L 788.19 794.63   Z   M 941.58 903.10   A 0.45 0.45 0.0 0 0 941.17 902.47   L 860.89 902.47   A 0.45 0.45 0.0 0 1 860.48 901.84   L 907.25 795.29   A 0.45 0.45 0.0 0 0 906.84 794.66   L 856.94 794.66   A 0.45 0.45 0.0 0 0 856.52 794.93   L 797.43 934.12   A 0.45 0.45 0.0 0 0 797.84 934.75   L 927.39 934.75   A 0.45 0.45 0.0 0 0 927.80 934.48   L 941.58 903.10   Z   M 999.43 794.61   A 0.69 0.69 0.0 0 0 998.79 795.03   L 939.90 933.74   A 0.69 0.69 0.0 0 0 940.53 934.70   L 988.06 934.70   A 0.69 0.69 0.0 0 0 988.70 934.28   L 1047.59 795.57   A 0.69 0.69 0.0 0 0 1046.96 794.61   L 999.43 794.61   Z   M 1147.82 869.62   L 1116.81 795.16   A 0.83 0.82 -11.2 0 0 1116.05 794.66   L 1064.80 794.66   A 1.00 0.99 -78.2 0 0 1063.89 795.26   L 1005.01 933.94   A 0.56 0.56 0.0 0 0 1005.52 934.72   L 1047.56 934.72   A 1.39 1.39 0.0 0 0 1048.84 933.87   L 1082.62 854.32   A 0.33 0.33 0.0 0 1 1083.16 854.22   Q 1083.53 854.60 1083.70 854.96   Q 1097.77 884.76 1118.98 933.93   A 1.30 1.28 78.1 0 0 1120.16 934.71   L 1161.41 934.71   A 1.01 1.01 0.0 0 0 1162.34 934.09   L 1221.38 795.04   A 0.28 0.27 11.2 0 0 1221.12 794.66   L 1180.83 794.66   A 0.78 0.76 11.5 0 0 1180.12 795.12   L 1148.49 869.62   A 0.36 0.36 0.0 0 1 1147.82 869.62   Z"/>
<path xmlns="http://www.w3.org/2000/svg" fill="#131313" d="M 358.12 494.09   A 0.48 0.47 12.9 0 1 358.55 494.77   L 343.08 526.89   A 0.70 0.68 -76.9 0 1 342.46 527.29   Q 229.57 527.29 228.25 527.30   Q 221.66 527.37 218.03 526.51   C 205.31 523.52 198.42 511.89 203.85 499.56   Q 213.20 478.35 244.22 413.21   C 251.39 398.14 266.81 388.12 282.58 384.43   Q 289.38 382.84 306.59 382.97   Q 330.46 383.14 409.58 383.02   A 0.57 0.57 0.0 0 1 410.08 383.85   L 392.57 417.15   A 0.92 0.91 -75.9 0 1 391.76 417.64   Q 379.47 417.65 306.84 417.64   Q 299.60 417.63 297.27 418.79   Q 293.16 420.82 290.75 425.77   Q 290.04 427.21 262.56 484.82   C 260.85 488.39 259.56 492.02 263.71 493.91   A 1.94 1.84 -31.0 0 0 264.52 494.09   L 358.12 494.09   Z"/>
<path xmlns="http://www.w3.org/2000/svg" fill="#131313" d="M 410.30 412.05   C 417.26 397.65 431.96 388.22 447.16 384.38   Q 453.45 382.79 471.97 382.98   Q 488.47 383.15 545.60 383.03   Q 556.93 383.00 559.36 383.31   C 569.88 384.62 581.03 390.23 582.69 401.98   Q 583.77 409.57 581.23 415.51   Q 577.90 423.31 562.17 456.40   Q 547.87 486.46 543.86 495.38   Q 539.23 505.69 535.54 509.94   C 526.36 520.48 513.80 527.15 499.76 527.24   Q 489.59 527.31 392.51 527.29   C 381.61 527.29 371.07 523.82 368.09 512.28   Q 366.48 506.03 369.45 499.45   Q 389.83 454.34 410.30 412.05   Z   M 426.72 486.73   C 424.91 490.56 426.47 493.89 430.89 494.10   Q 431.89 494.15 490.43 494.15   A 2.66 2.57 32.5 0 0 491.46 493.94   C 497.57 491.31 498.86 487.17 502.12 480.20   Q 511.98 459.14 527.34 426.83   Q 528.81 423.74 527.39 420.56   A 2.52 2.42 11.0 0 0 526.82 419.75   Q 524.62 417.67 520.25 417.67   Q 489.94 417.65 468.89 417.65   C 463.10 417.64 459.14 418.50 456.66 423.65   Q 453.90 429.40 426.72 486.73   Z"/>
<path xmlns="http://www.w3.org/2000/svg" fill="#131313" d="M 674.04 489.94   A 0.30 0.30 0.0 0 0 673.77 489.52   L 614.32 489.52   A 1.70 1.68 12.2 0 0 612.78 490.50   L 596.09 526.73   A 0.95 0.94 12.1 0 1 595.23 527.28   L 544.78 527.28   A 0.48 0.48 0.0 0 1 544.34 526.60   Q 570.87 469.03 598.61 411.37   C 605.23 397.61 621.68 387.88 636.20 384.36   Q 642.12 382.93 658.43 382.98   Q 696.75 383.10 737.74 383.01   Q 748.40 382.98 755.96 388.77   C 765.41 396.00 763.18 408.91 758.68 418.41   Q 730.57 477.67 707.87 526.50   A 1.35 1.35 0.0 0 1 706.64 527.29   L 657.41 527.29   A 0.37 0.36 -77.5 0 1 657.08 526.77   L 674.04 489.94   Z   M 629.10 455.81   A 0.43 0.42 10.7 0 0 629.50 456.40   L 691.06 456.42   A 0.68 0.68 0.0 0 0 691.68 456.02   Q 700.68 437.00 705.13 427.43   C 707.03 423.34 706.98 418.01 701.18 417.80   Q 694.81 417.56 657.10 417.67   C 648.56 417.70 645.66 421.05 642.02 428.65   Q 629.72 454.26 629.10 455.81   Z"/>
<path xmlns="http://www.w3.org/2000/svg" fill="#131313" d="M 811.21 439.77   A 0.41 0.40 12.8 0 0 811.58 440.35   Q 854.48 440.38 880.74 440.36   C 895.76 440.36 909.03 446.83 904.63 464.66   Q 904.16 466.53 900.64 474.26   Q 898.15 479.72 891.89 493.59   Q 885.00 508.83 883.24 511.21   C 875.82 521.21 864.18 527.30 851.50 527.30   Q 805.22 527.27 722.73 527.30   A 0.51 0.51 0.0 0 1 722.27 526.57   L 737.60 494.73   A 1.13 1.13 0.0 0 1 738.62 494.09   Q 811.30 494.06 837.74 494.01   Q 841.54 494.00 843.53 490.27   Q 847.19 483.41 849.84 478.01   Q 850.85 475.97 850.52 474.90   Q 850.02 473.26 847.99 473.25   Q 826.33 473.17 781.50 472.79   C 776.55 472.75 769.13 471.28 764.87 468.64   Q 755.49 462.82 757.36 450.59   C 758.04 446.12 760.63 441.46 762.78 436.65   Q 771.35 417.51 775.95 408.40   C 784.16 392.12 802.22 382.97 819.99 382.99   Q 883.38 383.07 925.62 383.03   A 0.47 0.46 13.1 0 1 926.04 383.70   L 910.01 416.99   A 1.07 1.06 -77.2 0 1 909.05 417.60   Q 900.81 417.61 826.26 417.63   C 821.33 417.63 820.03 421.17 817.75 426.06   Q 816.70 428.32 811.21 439.77   Z"/>
<path xmlns="http://www.w3.org/2000/svg" fill="#131313" d="M 921.89 416.99   L 938.92 383.35   A 0.59 0.59 0.0 0 1 939.44 383.03   L 1086.71 383.03   A 0.59 0.59 0.0 0 1 1087.24 383.89   L 1070.21 417.53   A 0.59 0.59 0.0 0 1 1069.69 417.85   L 1024.70 417.85   A 0.59 0.59 0.0 0 0 1024.17 418.18   L 971.80 526.96   A 0.59 0.59 0.0 0 1 971.27 527.29   L 923.12 527.29   A 0.59 0.59 0.0 0 1 922.59 526.45   L 972.21 418.69   A 0.59 0.59 0.0 0 0 971.68 417.85   L 922.42 417.85   A 0.59 0.59 0.0 0 1 921.89 416.99   Z"/>
<path xmlns="http://www.w3.org/2000/svg" fill="#131313" d="M 1028.52 526.75   Q 1028.49 526.56 1029.86 523.62   C 1055.29 468.95 1070.41 436.26 1080.40 415.26   Q 1083.69 408.35 1086.62 404.50   C 1097.60 390.12 1114.46 382.96 1132.50 382.98   Q 1204.39 383.09 1219.74 383.02   Q 1231.16 382.98 1239.44 389.81   C 1246.65 395.76 1246.65 407.08 1242.89 415.16   Q 1212.84 479.59 1190.73 526.67   A 1.08 1.08 0.0 0 1 1189.75 527.29   L 1140.52 527.29   A 0.42 0.41 12.6 0 1 1140.14 526.70   L 1156.96 490.17   A 0.54 0.54 0.0 0 0 1156.47 489.41   L 1097.40 489.41   A 1.13 1.12 -77.7 0 0 1096.38 490.07   L 1079.58 526.55   A 1.30 1.29 12.6 0 1 1078.41 527.29   L 1029.17 527.28   A 0.66 0.65 -5.2 0 1 1028.52 526.75   Z   M 1112.34 455.79   A 0.43 0.42 10.7 0 0 1112.74 456.37   L 1174.16 456.37   A 0.68 0.68 0.0 0 0 1174.78 455.97   Q 1183.75 436.99 1188.19 427.44   C 1190.08 423.36 1190.03 418.04 1184.24 417.83   Q 1177.89 417.59 1140.26 417.72   C 1131.74 417.75 1128.85 421.10 1125.22 428.68   Q 1112.96 454.24 1112.34 455.79   Z"/>
<path xmlns="http://www.w3.org/2000/svg" fill="#131313" d="M 1274.45 383.00   L 1326.07 383.00   A 0.51 0.51 0.0 0 1 1326.53 383.73   L 1273.72 493.42   A 0.51 0.51 0.0 0 0 1274.18 494.15   L 1356.20 494.15   A 0.51 0.51 0.0 0 1 1356.66 494.88   L 1341.20 527.00   A 0.51 0.51 0.0 0 1 1340.74 527.29   L 1205.47 527.29   A 0.51 0.51 0.0 0 1 1205.01 526.56   L 1273.99 383.29   A 0.51 0.51 0.0 0 1 1274.45 383.00   Z"/>
<path xmlns="http://www.w3.org/2000/svg" fill="#ffffff" d="M 430.89 494.10   C 426.47 493.89 424.91 490.56 426.72 486.73   Q 453.90 429.40 456.66 423.65   C 459.14 418.50 463.10 417.64 468.89 417.65   Q 489.94 417.65 520.25 417.67   Q 524.62 417.67 526.82 419.75   A 2.52 2.42 11.0 0 1 527.39 420.56   Q 528.81 423.74 527.34 426.83   Q 511.98 459.14 502.12 480.20   C 498.86 487.17 497.57 491.31 491.46 493.94   A 2.66 2.57 32.5 0 1 490.43 494.15   Q 431.89 494.15 430.89 494.10   Z"/>
<path xmlns="http://www.w3.org/2000/svg" fill="#ffffff" d="M 629.10 455.81   Q 629.72 454.26 642.02 428.65   C 645.66 421.05 648.56 417.70 657.10 417.67   Q 694.81 417.56 701.18 417.80   C 706.98 418.01 707.03 423.34 705.13 427.43   Q 700.68 437.00 691.68 456.02   A 0.68 0.68 0.0 0 1 691.06 456.42   L 629.50 456.40   A 0.43 0.42 10.7 0 1 629.10 455.81   Z"/>
<path xmlns="http://www.w3.org/2000/svg" fill="#ffffff" d="M 1112.34 455.79   Q 1112.96 454.24 1125.22 428.68   C 1128.85 421.10 1131.74 417.75 1140.26 417.72   Q 1177.89 417.59 1184.24 417.83   C 1190.03 418.04 1190.08 423.36 1188.19 427.44   Q 1183.75 436.99 1174.78 455.97   A 0.68 0.68 0.0 0 1 1174.16 456.37   L 1112.74 456.37   A 0.43 0.42 10.7 0 1 1112.34 455.79   Z"/>
<path xmlns="http://www.w3.org/2000/svg" fill="#b78c56" d="M 999.73 642.13   A 0.41 0.40 12.2 0 0 1000.10 642.70   Q 1052.79 642.60 1092.06 642.81   C 1100.18 642.85 1109.00 644.74 1115.14 650.81   C 1122.98 658.58 1121.99 670.49 1117.73 680.01   Q 1109.29 698.84 1096.27 727.51   C 1089.06 743.40 1073.61 753.43 1055.69 756.51   Q 1051.51 757.23 1032.27 757.19   Q 963.53 757.04 888.17 757.15   A 0.52 0.51 12.4 0 1 887.70 756.42   L 906.93 714.65   A 0.91 0.91 0.0 0 1 907.70 714.13   Q 915.24 713.74 918.25 713.73   Q 977.26 713.64 1031.05 713.76   C 1038.88 713.78 1041.22 710.15 1043.91 702.81   Q 1046.25 696.41 1049.46 690.58   C 1051.41 687.02 1047.85 685.33 1044.64 685.34   Q 1030.00 685.41 959.00 685.30   Q 954.07 685.29 947.97 683.50   C 929.27 678.00 926.18 661.98 933.74 645.23   Q 940.66 629.89 946.16 617.39   C 950.93 606.55 954.81 596.82 962.77 589.02   Q 975.90 576.15 994.69 571.98   Q 1001.87 570.39 1020.95 570.46   Q 1090.01 570.74 1150.26 570.46   A 0.47 0.46 13.4 0 1 1150.68 571.14   Q 1139.45 592.42 1129.14 615.09   A 1.32 1.31 12.2 0 1 1127.94 615.86   Q 1030.95 615.85 1021.51 615.81   C 1015.61 615.79 1011.58 616.79 1008.85 621.89   Q 1008.27 622.97 999.73 642.13   Z"/>
<path xmlns="http://www.w3.org/2000/svg" fill="#b78c56" d="M 1208.73 616.36   A 0.35 0.34 11.7 0 0 1208.41 615.88   L 1145.00 615.88   A 0.37 0.36 77.1 0 1 1144.67 615.67   Q 1144.51 615.29 1144.64 615.00   Q 1147.23 609.04 1165.04 571.52   A 1.58 1.57 -77.1 0 1 1166.46 570.62   L 1350.71 570.62   A 0.31 0.31 0.0 0 1 1350.99 571.05   L 1330.84 614.78   A 2.13 2.12 -77.6 0 1 1328.91 616.02   L 1274.24 616.02   A 0.71 0.69 -77.2 0 0 1273.61 616.43   L 1210.13 756.30   A 1.42 1.42 0.0 0 1 1208.84 757.13   L 1147.78 757.13   A 0.56 0.56 0.0 0 1 1147.27 756.35   L 1208.73 616.36   Z"/>
<path xmlns="http://www.w3.org/2000/svg" fill="#b78c56" d="M 223.27 642.45   L 372.15 642.45   A 0.46 0.45 12.1 0 1 372.57 643.09   L 353.44 685.24   A 1.57 1.56 -77.6 0 1 352.02 686.15   L 225.61 686.15   A 0.72 0.71 12.2 0 0 224.96 686.56   L 193.32 756.29   A 1.35 1.35 0.0 0 1 192.09 757.08   L 126.04 757.08   A 0.40 0.40 0.0 0 1 125.67 756.52   Q 156.54 685.46 191.97 605.77   Q 196.49 595.62 206.95 587.22   Q 227.85 570.44 255.50 570.48   Q 338.73 570.61 410.82 570.50   A 0.50 0.50 0.0 0 1 411.26 571.23   Q 400.36 591.98 390.04 614.96   A 1.89 1.88 12.1 0 1 388.32 616.07   Q 301.04 616.01 264.05 616.16   C 257.05 616.19 253.60 620.68 250.93 627.00   Q 249.07 631.41 247.00 635.74   Q 246.07 637.68 244.23 638.02   Q 233.76 639.98 223.22 642.01   A 0.22 0.22 0.0 0 0 223.27 642.45   Z"/>
<path xmlns="http://www.w3.org/2000/svg" fill="#b78c56" d="M 494.25 570.55   A 0.60 0.60 0.0 0 1 494.79 571.40   L 409.60 756.36   A 1.24 1.23 12.3 0 1 408.48 757.07   L 346.24 757.07   A 0.37 0.37 0.0 0 1 345.90 756.55   Q 370.81 699.35 392.62 650.58   Q 412.31 606.57 429.01 571.09   A 0.93 0.92 -77.5 0 1 429.85 570.55   L 494.25 570.55   Z"/>
<path xmlns="http://www.w3.org/2000/svg" fill="#b78c56" d="M 631.26 675.28   A 0.41 0.41 0.0 0 0 632.02 675.29   L 679.14 571.49   A 1.62 1.61 -77.8 0 1 680.61 570.54   L 736.25 570.54   A 0.55 0.55 0.0 0 1 736.75 571.32   L 651.53 756.35   A 1.31 1.31 0.0 0 1 650.34 757.11   L 592.33 757.11   A 0.56 0.56 0.0 0 1 591.82 756.78   L 543.00 647.62   A 0.23 0.23 0.0 0 0 542.58 647.61   L 493.08 756.68   A 0.73 0.71 11.9 0 1 492.42 757.10   L 430.97 757.10   A 0.70 0.70 0.0 0 1 430.33 756.10   C 435.94 744.02 439.73 735.01 444.32 724.70   C 464.91 678.52 489.68 622.65 513.58 571.41   A 1.08 1.08 0.0 0 1 514.56 570.78   L 586.95 570.78   A 1.21 1.20 78.6 0 1 588.06 571.52   L 631.26 675.28   Z"/>
<path xmlns="http://www.w3.org/2000/svg" fill="#b78c56" d="M 770.47 642.07   A 0.19 0.19 0.0 0 0 770.51 642.45   L 908.51 642.45   A 0.55 0.54 12.2 0 1 909.01 643.22   L 889.62 685.31   A 1.39 1.38 12.3 0 1 888.36 686.11   L 772.93 686.11   A 0.75 0.75 0.0 0 0 772.25 686.55   L 760.23 713.05   A 0.47 0.47 0.0 0 0 760.66 713.72   L 891.79 713.72   A 0.45 0.45 0.0 0 1 892.20 714.36   L 871.93 756.45   A 1.12 1.11 12.5 0 1 870.92 757.09   L 671.61 757.09   A 0.58 0.58 0.0 0 1 671.08 756.28   C 693.97 705.56 726.71 632.02 755.37 571.08   A 0.92 0.91 -77.2 0 1 756.20 570.55   L 953.00 570.55   A 0.52 0.52 0.0 0 1 953.47 571.30   L 932.52 614.81   A 2.21 2.20 -77.2 0 1 930.53 616.07   L 803.47 616.07   A 0.79 0.79 0.0 0 0 802.75 616.53   L 793.81 636.23   A 2.82 2.82 0.0 0 1 791.79 637.83   L 770.47 642.07   Z"/>
<path xmlns="http://www.w3.org/2000/svg" fill="#131313" d="M 463.28 794.66   L 603.47 794.66   A 0.53 0.53 0.0 0 1 603.95 795.40   L 589.41 828.52   A 0.53 0.53 0.0 0 1 588.92 828.84   L 544.38 828.84   A 0.53 0.53 0.0 0 0 543.89 829.16   L 499.21 934.41   A 0.53 0.53 0.0 0 1 498.72 934.73   L 451.20 934.73   A 0.53 0.53 0.0 0 1 450.71 934.00   L 494.51 829.55   A 0.53 0.53 0.0 0 0 494.02 828.82   L 448.74 828.82   A 0.53 0.53 0.0 0 1 448.26 828.08   L 462.79 794.98   A 0.53 0.53 0.0 0 1 463.28 794.66   Z"/>
<path xmlns="http://www.w3.org/2000/svg" fill="#131313" d="M 1370.98 794.61   A 0.54 0.54 0.0 0 1 1371.47 795.37   L 1357.10 828.12   A 1.24 1.24 0.0 0 1 1355.97 828.85   Q 1326.42 828.82 1276.79 828.87   Q 1271.74 828.88 1269.50 834.03   Q 1254.35 868.76 1243.25 895.23   C 1242.26 897.59 1242.13 901.10 1244.83 902.20   Q 1245.40 902.44 1249.72 902.45   Q 1278.42 902.54 1292.76 902.50   C 1297.43 902.48 1300.15 899.28 1301.94 894.90   Q 1304.02 889.83 1307.40 882.50   A 0.51 0.51 0.0 0 0 1306.93 881.78   L 1272.83 881.78   A 0.50 0.49 -78.5 0 1 1272.38 881.09   L 1284.40 852.43   A 0.94 0.94 0.0 0 1 1285.27 851.85   L 1365.05 851.85   A 0.28 0.28 0.0 0 1 1365.31 852.25   Q 1353.83 878.41 1340.97 909.20   Q 1333.10 928.02 1313.94 933.25   Q 1307.18 935.10 1296.75 934.73   Q 1296.09 934.71 1208.50 934.72   C 1193.03 934.72 1184.02 922.42 1189.77 907.76   Q 1192.51 900.77 1213.34 851.92   Q 1220.42 835.33 1225.68 822.66   C 1233.23 804.47 1252.27 794.58 1271.49 794.63   Q 1307.52 794.73 1370.98 794.61   Z"/>
<path xmlns="http://www.w3.org/2000/svg" fill="#131313" d="M 67.55 934.80   A 0.52 0.52 0.0 0 1 67.07 934.08   L 125.34 795.16   A 0.80 0.78 11.1 0 1 126.07 794.68   Q 202.54 794.63 247.99 794.71   C 262.02 794.73 276.08 803.23 275.48 818.84   Q 275.30 823.49 271.14 833.31   Q 265.31 847.05 240.23 907.49   C 234.58 921.09 220.31 931.04 206.48 933.78   Q 201.09 934.85 181.45 934.82   Q 83.28 934.69 67.55 934.80   Z   M 129.69 902.80   Q 179.82 902.95 183.77 902.88   C 191.81 902.72 194.69 901.42 197.84 894.16   Q 217.25 849.37 221.44 839.24   Q 222.72 836.15 222.50 833.27   A 3.27 3.25 14.1 0 0 220.98 830.75   Q 218.00 828.90 215.01 828.91   Q 197.87 828.96 162.55 828.92   A 3.26 3.26 0.0 0 0 159.53 830.92   L 129.50 902.51   A 0.21 0.21 0.0 0 0 129.69 902.80   Z"/>
<path xmlns="http://www.w3.org/2000/svg" fill="#131313" d="M 312.39 848.20   Q 312.84 848.27 316.01 848.27   Q 355.47 848.22 419.05 848.25   A 0.61 0.61 0.0 0 1 419.61 849.10   L 406.86 879.50   A 1.17 1.17 0.0 0 1 405.78 880.22   L 315.65 880.22   A 1.12 1.10 -78.3 0 0 314.63 880.90   L 307.64 897.22   A 1.33 1.30 60.3 0 0 307.53 897.64   Q 307.05 902.51 311.75 902.51   Q 398.84 902.48 410.73 902.51   Q 411.15 902.51 411.25 902.90   Q 411.29 903.08 411.14 903.41   Q 405.84 914.98 397.97 934.22   A 0.73 0.71 10.8 0 1 397.30 934.66   Q 334.78 934.62 271.25 934.67   C 255.72 934.68 248.00 921.95 253.87 907.87   Q 265.81 879.20 290.09 821.59   Q 292.82 815.13 299.33 809.06   Q 309.68 799.41 322.96 796.12   Q 329.16 794.58 345.66 794.60   Q 418.94 794.69 450.84 794.67   A 0.36 0.36 0.0 0 1 451.17 795.17   L 436.72 828.07   A 1.27 1.26 11.7 0 1 435.56 828.83   Q 356.99 828.87 343.75 828.80   C 339.70 828.78 335.94 829.25 333.92 833.17   Q 332.60 835.71 329.53 843.48   A 2.12 2.11 4.9 0 1 327.98 844.78   L 312.38 847.88   A 0.16 0.16 0.0 0 0 312.39 848.20   Z"/>
<path xmlns="http://www.w3.org/2000/svg" fill="#131313" d="M 663.21 934.75   A 0.36 0.36 0.0 0 1 662.88 934.25   L 677.53 899.76   A 0.37 0.36 -78.6 0 0 677.20 899.25   L 618.96 899.25   A 0.93 0.92 11.6 0 0 618.11 899.81   L 603.49 934.24   A 0.79 0.77 11.3 0 1 602.77 934.71   L 555.22 934.71   A 0.54 0.54 0.0 0 1 554.72 933.97   Q 575.50 882.99 600.98 823.24   C 607.02 809.09 620.15 799.66 634.58 796.05   Q 640.69 794.53 652.05 794.61   Q 668.53 794.74 727.54 794.63   C 737.98 794.62 745.55 794.53 753.15 799.93   C 761.18 805.64 762.04 815.78 758.65 824.64   C 754.46 835.61 747.97 849.18 742.94 861.53   C 733.99 883.49 724.48 905.08 713.19 931.45   Q 712.43 933.23 711.85 934.32   A 0.84 0.82 -75.0 0 1 711.13 934.75   L 663.21 934.75   Z   M 632.77 866.63   L 692.00 866.63   A 2.22 2.21 11.4 0 0 694.04 865.28   Q 699.80 851.70 705.39 839.14   C 707.41 834.61 707.47 828.71 700.75 828.70   Q 679.59 828.67 658.25 828.71   Q 654.32 828.72 651.14 829.90   C 646.87 831.48 645.92 834.34 643.82 839.09   Q 638.93 850.21 632.30 865.92   A 0.51 0.51 0.0 0 0 632.77 866.63   Z"/>
<path xmlns="http://www.w3.org/2000/svg" fill="#131313" d="M 788.19 794.63   L 837.75 794.63   A 0.31 0.31 0.0 0 1 838.04 795.06   L 778.83 934.50   A 0.31 0.31 0.0 0 1 778.54 934.69   L 728.98 934.69   A 0.31 0.31 0.0 0 1 728.69 934.26   L 787.90 794.82   A 0.31 0.31 0.0 0 1 788.19 794.63   Z"/>
<path xmlns="http://www.w3.org/2000/svg" fill="#131313" d="M 941.58 903.10   L 927.80 934.48   A 0.45 0.45 0.0 0 1 927.39 934.75   L 797.84 934.75   A 0.45 0.45 0.0 0 1 797.43 934.12   L 856.52 794.93   A 0.45 0.45 0.0 0 1 856.94 794.66   L 906.84 794.66   A 0.45 0.45 0.0 0 1 907.25 795.29   L 860.48 901.84   A 0.45 0.45 0.0 0 0 860.89 902.47   L 941.17 902.47   A 0.45 0.45 0.0 0 1 941.58 903.10   Z"/>
<path xmlns="http://www.w3.org/2000/svg" fill="#131313" d="M 999.43 794.61   L 1046.96 794.61   A 0.69 0.69 0.0 0 1 1047.59 795.57   L 988.70 934.28   A 0.69 0.69 0.0 0 1 988.06 934.70   L 940.53 934.70   A 0.69 0.69 0.0 0 1 939.90 933.74   L 998.79 795.03   A 0.69 0.69 0.0 0 1 999.43 794.61   Z"/>
<path xmlns="http://www.w3.org/2000/svg" fill="#131313" d="M 1147.82 869.62   A 0.36 0.36 0.0 0 0 1148.49 869.62   L 1180.12 795.12   A 0.78 0.76 11.5 0 1 1180.83 794.66   L 1221.12 794.66   A 0.28 0.27 11.2 0 1 1221.38 795.04   L 1162.34 934.09   A 1.01 1.01 0.0 0 1 1161.41 934.71   L 1120.16 934.71   A 1.30 1.28 78.1 0 1 1118.98 933.93   Q 1097.77 884.76 1083.70 854.96   Q 1083.53 854.60 1083.16 854.22   A 0.33 0.33 0.0 0 0 1082.62 854.32   L 1048.84 933.87   A 1.39 1.39 0.0 0 1 1047.56 934.72   L 1005.52 934.72   A 0.56 0.56 0.0 0 1 1005.01 933.94   L 1063.89 795.26   A 1.00 0.99 -78.2 0 1 1064.80 794.66   L 1116.05 794.66   A 0.83 0.82 -11.2 0 1 1116.81 795.16   L 1147.82 869.62   Z"/>
<path xmlns="http://www.w3.org/2000/svg" fill="#ffffff" d="M 632.77 866.63   A 0.51 0.51 0.0 0 1 632.30 865.92   Q 638.93 850.21 643.82 839.09   C 645.92 834.34 646.87 831.48 651.14 829.90   Q 654.32 828.72 658.25 828.71   Q 679.59 828.67 700.75 828.70   C 707.47 828.71 707.41 834.61 705.39 839.14   Q 699.80 851.70 694.04 865.28   A 2.22 2.21 11.4 0 1 692.00 866.63   L 632.77 866.63   Z"/>
<path xmlns="http://www.w3.org/2000/svg" fill="#ffffff" d="M 129.69 902.80   A 0.21 0.21 0.0 0 1 129.50 902.51   L 159.53 830.92   A 3.26 3.26 0.0 0 1 162.55 828.92   Q 197.87 828.96 215.01 828.91   Q 218.00 828.90 220.98 830.75   A 3.27 3.25 14.1 0 1 222.50 833.27   Q 222.72 836.15 221.44 839.24   Q 217.25 849.37 197.84 894.16   C 194.69 901.42 191.81 902.72 183.77 902.88   Q 179.82 902.95 129.69 902.80   Z"/>
</g></g></g></g></svg>