<svg xmlns="http://www.w3.org/2000/svg" direction="ltr" width="2048" height="2048" viewBox="23782.843302897636 11645.697327557136 2048 2048" stroke-linecap="round" stroke-linejoin="round" data-color-mode="light" class="tl-container tl-theme__force-sRGB tl-theme__light" style="background-color: transparent;"><defs/><g transform="matrix(1, 0, 0, 1, 23782.8433, 11645.6973)" opacity="1"><g data-lovart-layer-name="SVG 9"><g transform="scale(1.4143646408839778, 1.4143646408839778)"><g>
<g xmlns="http://www.w3.org/2000/svg" stroke-width="2.00" fill="none" stroke-linecap="butt">
<path stroke="#848484" d="M 908.25 484.25   Q 879.72 484.29 770.75 484.13   Q 761.95 484.11 757.34 485.37   Q 742.08 489.52 732.07 501.80   Q 729.31 505.20 724.68 514.25   C 720.72 521.99 716.13 529.44 712.70 537.53   A 7.10 7.05 -30.3 0 0 712.19 539.44   C 711.38 545.76 711.53 551.25 717.22 555.15   C 722.74 558.92 728.58 559.85 735.91 559.72   Q 736.01 559.72 824.99 559.85   Q 827.16 559.85 829.05 560.76   A 2.08 2.08 0.0 0 1 830.14 563.22   Q 828.48 568.92 824.81 573.20   C 822.66 575.71 820.08 576.04 816.75 576.04   Q 765.62 575.95 694.55 576.00   A 1.23 1.23 0.0 0 0 693.45 576.68   L 678.90 605.61   A 0.44 0.43 13.4 0 0 679.29 606.24   Q 817.65 606.28 818.27 606.29   Q 832.96 606.68 839.12 604.90   Q 850.78 601.53 859.61 593.10   C 864.01 588.91 867.04 583.47 869.91 577.90   Q 875.46 567.12 884.24 551.00   Q 886.17 547.46 886.41 543.50   C 887.05 533.24 874.77 530.22 866.75 530.21   Q 811.61 530.18 778.25 530.22   C 774.24 530.23 767.80 530.54 766.18 529.46   A 1.53 1.53 0.0 0 1 765.63 527.54   Q 766.96 524.70 768.01 522.46   C 771.22 515.67 776.70 515.98 783.37 515.97   Q 839.43 515.91 891.71 515.97   A 1.13 1.11 13.3 0 0 892.71 515.36   L 908.67 484.94   A 0.47 0.47 0.0 0 0 908.25 484.25"/>
<path stroke="#848484" d="M 294.08 576.33   Q 256.56 576.21 188.25 576.28   C 185.44 576.28 180.69 576.58 179.24 574.54   Q 177.80 572.50 179.34 569.60   Q 180.99 566.49 201.85 526.62   Q 204.80 520.99 207.04 519.07   Q 210.67 515.96 215.53 515.95   Q 261.53 515.90 324.25 515.92   A 0.89 0.87 -75.9 0 0 325.03 515.44   L 340.94 485.10   A 0.55 0.55 0.0 0 0 340.45 484.30   Q 236.94 484.18 205.75 484.23   C 191.32 484.25 174.92 492.71 165.46 503.43   Q 162.18 507.15 158.87 513.66   C 155.64 520.04 151.68 526.59 147.92 533.93   Q 136.77 555.66 126.31 575.54   C 117.94 591.43 127.22 605.95 144.75 606.14   Q 163.03 606.33 278.46 606.26   A 1.31 1.31 0.0 0 0 279.62 605.56   L 294.54 577.10   A 0.53 0.53 0.0 0 0 294.08 576.33"/>
<path stroke="#848484" d="M 477.30 591.60   C 479.69 588.80 481.49 585.24 483.32 581.82   Q 496.40 557.38 516.61 518.34   Q 518.47 514.73 522.09 508.11   C 526.45 500.12 525.86 489.84 516.33 485.95   Q 512.05 484.19 508.51 484.20   Q 431.91 484.29 377.00 484.17   Q 368.88 484.15 359.74 488.77   Q 346.82 495.31 340.56 507.13   Q 328.77 529.39 326.48 533.97   Q 318.67 549.60 306.10 573.71   C 302.15 581.30 300.11 586.57 302.10 593.99   C 303.86 600.57 310.27 604.81 316.79 605.68   Q 322.59 606.45 328.00 606.44   Q 439.12 606.24 439.14 606.24   Q 443.04 606.23 443.84 606.25   Q 464.36 606.74 477.30 591.60"/>
<path stroke="#848484" d="M 482.34 606.23   L 529.53 606.23   A 1.36 1.35 13.8 0 0 530.73 605.51   L 553.32 562.41   A 2.88 2.87 -76.0 0 1 555.86 560.88   L 638.31 560.88   A 0.66 0.65 13.8 0 1 638.90 561.84   L 616.00 605.52   A 0.49 0.49 0.0 0 0 616.44 606.24   L 663.61 606.24   A 1.11 1.10 13.8 0 0 664.59 605.65   C 680.16 576.02 697.97 541.24 715.32 509.07   C 718.15 503.82 719.83 497.88 717.33 492.39   C 714.75 486.73 708.37 484.16 702.25 484.17   Q 662.84 484.27 569.25 484.18   C 557.52 484.16 547.21 490.38 538.82 498.89   Q 534.76 503.00 530.16 512.68   Q 528.56 516.03 516.35 538.71   Q 512.16 546.51 502.81 564.89   Q 493.68 582.84 487.47 594.46   Q 483.54 601.82 481.81 605.40   A 0.58 0.58 0.0 0 0 482.34 606.23"/>
<path stroke="#848484" d="M 922.06 606.26   L 967.19 606.26   A 1.68 1.68 0.0 0 0 968.68 605.36   L 1015.21 516.61   A 1.20 1.18 13.4 0 1 1016.27 515.97   L 1068.34 515.97   A 1.50 1.50 0.0 0 0 1069.67 515.16   L 1085.48 485.01   A 0.53 0.53 0.0 0 0 1085.01 484.23   L 923.47 484.23   A 1.11 1.10 13.8 0 0 922.49 484.82   Q 916.63 495.94 906.73 515.01   Q 906.57 515.32 906.59 515.42   Q 906.74 516.02 907.37 516.02   Q 945.32 515.91 967.89 515.96   A 0.44 0.43 14.5 0 1 968.27 516.60   L 921.64 605.56   A 0.48 0.48 0.0 0 0 922.06 606.26"/>
<path stroke="#848484" d="M 1032.88 606.25   Q 1052.27 606.35 1076.58 606.27   Q 1076.65 606.27 1077.43 606.33   Q 1079.05 606.47 1079.96 604.73   Q 1089.92 585.63 1099.99 566.25   Q 1101.05 564.20 1102.83 561.60   A 1.44 1.44 0.0 0 1 1104.02 560.97   L 1185.36 560.97   A 0.57 0.57 0.0 0 1 1185.86 561.80   L 1162.95 605.50   A 0.51 0.50 13.8 0 0 1163.40 606.24   L 1208.38 606.24   A 1.79 1.79 0.0 0 0 1209.97 605.27   Q 1230.89 565.11 1260.80 507.58   C 1264.91 499.67 1264.67 489.86 1255.35 485.91   Q 1251.39 484.24 1248.75 484.24   Q 1146.07 484.19 1117.00 484.22   C 1107.73 484.24 1097.04 490.55 1090.82 496.85   Q 1087.57 500.13 1083.03 508.73   Q 1058.30 555.46 1032.59 605.77   A 0.33 0.33 0.0 0 0 1032.88 606.25"/>
<path stroke="#848484" d="M 1382.17 577.11   A 0.56 0.56 0.0 0 0 1381.67 576.29   L 1284.86 576.29   A 0.56 0.56 0.0 0 1 1284.36 575.47   L 1331.75 485.08   A 0.56 0.56 0.0 0 0 1331.25 484.26   L 1283.49 484.26   A 0.56 0.56 0.0 0 0 1282.99 484.56   L 1220.90 605.45   A 0.56 0.56 0.0 0 0 1221.40 606.27   L 1366.55 606.27   A 0.56 0.56 0.0 0 0 1367.05 605.97   L 1382.17 577.11"/>
<path stroke="#62492b" d="M 181.53 684.57   Q 189.45 683.26 207.57 680.02   A 3.00 2.99 -81.7 0 0 209.69 678.43   L 215.19 667.49   A 2.00 2.00 0.0 0 1 216.98 666.38   L 365.33 666.38   A 1.59 1.59 0.0 0 0 366.75 665.51   Q 376.90 645.59 385.61 628.87   Q 385.83 628.45 385.42 628.20   Q 385.16 628.05 384.73 628.06   Q 370.16 628.22 174.42 628.13   A 1.48 1.48 0.0 0 0 173.10 628.94   L 98.82 776.65   A 0.37 0.36 13.4 0 0 99.15 777.18   L 158.44 777.18   A 1.40 1.39 13.7 0 0 159.68 776.43   L 188.11 721.07   A 1.04 1.04 0.0 0 1 189.03 720.51   L 331.57 720.51   A 0.73 0.72 13.2 0 0 332.22 720.11   L 349.82 685.84   A 0.64 0.63 -76.3 0 0 349.26 684.91   L 181.56 684.91   A 0.17 0.17 0.0 0 1 181.53 684.57"/>
<path stroke="#62492b" d="M 384.43 777.25   A 0.62 0.62 0.0 0 0 384.99 776.90   L 457.99 629.08   A 0.62 0.62 0.0 0 0 457.43 628.19   L 399.38 628.19   A 0.62 0.62 0.0 0 0 398.82 628.54   L 325.83 776.36   A 0.62 0.62 0.0 0 0 326.39 777.25   L 384.43 777.25"/>
<path stroke="#62492b" d="M 402.23 777.22   L 462.14 777.22   A 1.35 1.33 -76.8 0 0 463.34 776.47   L 507.25 687.53   A 0.98 0.97 40.1 0 1 508.91 687.39   L 574.64 776.69   A 1.53 1.50 -17.6 0 0 575.87 777.31   L 626.10 777.31   A 1.54 1.53 -77.0 0 0 627.48 776.44   L 698.63 629.26   A 0.81 0.81 0.0 0 0 697.90 628.10   L 641.05 628.10   A 1.09 1.09 0.0 0 0 640.07 628.71   Q 615.23 679.49 594.87 721.64   Q 594.55 722.30 593.89 722.05   Q 593.54 721.92 593.16 721.37   Q 571.34 690.11 527.31 628.56   A 1.04 1.01 71.7 0 0 526.48 628.13   L 474.97 628.13   A 1.33 1.33 0.0 0 0 473.79 628.85   Q 437.37 701.85 401.81 776.56   A 0.46 0.46 0.0 0 0 402.23 777.22"/>
<path stroke="#62492b" d="M 721.95 684.95   A 0.30 0.28 -2.9 0 1 722.19 684.70   L 748.82 679.99   A 1.52 1.51 8.1 0 0 749.93 679.16   L 755.79 667.29   A 1.35 1.34 13.1 0 1 757.00 666.54   L 907.61 666.54   A 1.33 1.33 0.0 0 0 908.79 665.82   L 927.69 629.03   A 0.49 0.48 -76.4 0 0 927.26 628.32   L 714.67 628.32   A 0.83 0.82 -76.3 0 0 713.94 628.77   Q 681.64 693.80 642.34 776.07   Q 642.09 776.59 642.20 776.90   Q 642.33 777.28 642.74 777.28   Q 800.57 777.30 854.01 777.29   A 1.58 1.56 13.0 0 0 855.42 776.42   L 872.47 741.88   A 0.69 0.69 0.0 0 0 871.85 740.88   L 720.09 740.88   A 0.51 0.51 0.0 0 1 719.63 740.14   L 728.90 721.36   A 0.98 0.97 13.4 0 1 729.77 720.83   L 873.86 720.83   A 1.51 1.51 0.0 0 0 875.21 720.00   L 893.07 685.24   A 0.32 0.32 0.0 0 0 892.78 684.77   L 722.07 685.11   A 0.13 0.12 87.4 0 1 721.95 684.99   L 721.95 684.95"/>
<path stroke="#62492b" d="M 1149.74 628.50   Q 1149.53 628.29 1149.25 628.29   Q 1139.58 628.44 975.71 628.30   Q 966.86 628.30 961.80 629.58   Q 952.90 631.85 945.13 637.14   Q 936.23 643.21 930.29 655.02   Q 917.64 680.14 913.47 688.48   C 907.86 699.70 909.58 711.90 922.36 716.84   C 927.71 718.90 931.92 719.79 938.04 719.79   C 996.52 719.80 1029.19 719.44 1046.24 719.97   C 1049.21 720.07 1052.98 722.19 1051.48 725.71   Q 1050.47 728.08 1045.80 736.53   Q 1043.26 741.14 1037.45 741.14   Q 930.01 741.24 887.39 741.09   A 1.31 1.31 0.0 0 0 886.19 741.84   L 869.33 776.72   A 0.35 0.35 0.0 0 0 869.64 777.22   Q 999.42 777.28 1060.28 777.13   C 1076.45 777.09 1090.69 768.81 1098.19 754.17   Q 1107.39 736.23 1116.39 718.39   C 1120.67 709.91 1127.47 698.54 1119.11 690.60   C 1114.51 686.23 1105.76 684.67 1099.25 684.66   Q 1053.29 684.56 977.80 684.59   Q 975.22 684.59 974.54 682.04   A 1.55 1.53 51.0 0 1 974.64 681.02   Q 976.58 676.97 978.42 673.15   C 981.90 665.94 986.95 666.36 995.11 666.37   Q 1009.97 666.40 1129.85 666.39   A 1.79 1.78 -76.9 0 0 1131.45 665.39   Q 1144.10 639.83 1149.82 629.14   Q 1150.01 628.79 1149.74 628.50"/>
<path stroke="#62492b" d="M 1220.98 666.52   A 0.61 0.61 0.0 0 1 1221.53 667.40   L 1166.62 776.59   A 0.61 0.61 0.0 0 0 1167.17 777.47   L 1223.03 777.47   A 0.61 0.61 0.0 0 0 1223.58 777.13   L 1279.01 666.91   A 0.61 0.61 0.0 0 1 1279.56 666.57   L 1347.23 666.57   A 0.61 0.61 0.0 0 0 1347.77 666.24   L 1367.06 629.43   A 0.61 0.61 0.0 0 0 1366.52 628.54   L 1166.55 628.54   A 0.61 0.61 0.0 0 0 1166.01 628.87   L 1146.74 665.63   A 0.61 0.61 0.0 0 0 1147.28 666.52   L 1220.98 666.52"/>
<path stroke="#848484" d="M 985.52 918.69   A 0.47 0.47 0.0 0 0 985.94 918.43   L 1042.00 804.91   A 0.47 0.47 0.0 0 0 1041.57 804.23   L 996.96 804.23   A 0.47 0.47 0.0 0 0 996.54 804.49   L 940.48 918.01   A 0.47 0.47 0.0 0 0 940.91 918.69   L 985.52 918.69"/>
<path stroke="#848484" d="M 1220.00 804.18   L 1177.94 804.18   A 1.61 1.61 0.0 0 0 1176.49 805.09   L 1144.88 870.49   A 0.81 0.81 0.0 0 1 1143.47 870.57   L 1101.76 804.74   A 1.26 1.25 -16.2 0 0 1100.70 804.16   L 1057.22 804.16   A 1.90 1.88 -76.8 0 0 1055.53 805.22   L 999.72 918.24   A 0.37 0.36 -76.7 0 0 1000.04 918.77   L 1044.46 918.77   A 0.72 0.70 -76.1 0 0 1045.09 918.38   L 1080.91 848.64   A 0.68 0.68 0.0 0 1 1082.09 848.59   L 1126.14 918.10   A 0.91 0.91 0.0 0 0 1126.90 918.51   L 1162.93 918.51   A 0.85 0.82 13.1 0 0 1163.68 918.06   L 1220.52 805.02   A 0.58 0.58 0.0 0 0 1220.00 804.18"/>
<path stroke="#848484" d="M 1315.96 877.00   L 1309.35 890.17   A 0.89 0.89 0.0 0 1 1308.56 890.65   Q 1252.41 890.69 1240.81 890.64   Q 1238.47 890.62 1236.50 888.03   C 1235.47 886.67 1236.42 884.09 1237.08 882.85   Q 1243.62 870.41 1257.27 843.54   C 1260.48 837.24 1264.01 833.17 1271.50 833.18   Q 1316.74 833.25 1361.50 833.21   Q 1369.96 833.21 1372.36 833.06   A 1.87 1.86 -78.5 0 0 1373.90 832.04   L 1387.63 804.73   A 0.50 0.50 0.0 0 0 1387.18 804.00   Q 1321.30 804.23 1262.92 804.03   Q 1251.32 803.99 1246.75 805.32   Q 1235.64 808.53 1227.46 817.73   Q 1224.78 820.75 1221.01 828.06   C 1210.20 849.04 1199.69 870.21 1188.89 891.38   Q 1186.35 896.38 1185.84 900.97   C 1184.67 911.69 1193.48 917.92 1203.31 918.39   Q 1207.21 918.57 1222.56 918.55   Q 1316.52 918.47 1336.17 918.45   A 0.76 0.76 0.0 0 0 1336.85 918.03   L 1369.96 850.98   A 0.31 0.30 -77.0 0 0 1369.69 850.54   L 1289.55 850.54   A 1.92 1.91 13.3 0 0 1287.84 851.59   L 1275.66 875.81   A 0.34 0.34 0.0 0 0 1275.96 876.30   L 1315.53 876.30   A 0.48 0.48 0.0 0 1 1315.96 877.00"/>
<path stroke="#848484" d="M 54.61 918.79   Q 112.01 918.88 183.22 918.77   Q 192.31 918.75 196.68 917.49   Q 207.53 914.36 216.02 905.64   Q 219.05 902.54 222.30 895.97   Q 230.67 879.08 256.45 828.43   Q 258.65 824.10 258.40 818.20   C 258.15 812.52 254.88 808.17 249.69 806.08   Q 245.54 804.41 242.75 804.41   Q 181.67 804.45 111.99 804.36   A 0.76 0.74 -76.4 0 0 111.32 804.78   L 54.27 918.23   A 0.39 0.39 0.0 0 0 54.61 918.79"/>
<path stroke="#848484" d="M 413.30 848.45   A 0.56 0.56 0.0 0 0 412.80 847.64   L 303.77 847.64   A 0.56 0.56 0.0 0 1 303.27 846.82   L 309.66 834.61   A 0.56 0.56 0.0 0 1 310.16 834.31   L 421.42 834.31   A 0.56 0.56 0.0 0 0 421.92 834.01   L 436.99 805.26   A 0.56 0.56 0.0 0 0 436.49 804.44   L 280.49 804.44   A 0.56 0.56 0.0 0 0 279.98 804.75   L 223.04 917.99   A 0.56 0.56 0.0 0 0 223.54 918.80   L 381.13 918.80   A 0.56 0.56 0.0 0 0 381.64 918.49   L 395.52 890.86   A 0.56 0.56 0.0 0 0 395.02 890.05   L 282.22 890.05   A 0.56 0.56 0.0 0 1 281.72 889.23   L 288.40 876.49   A 0.56 0.56 0.0 0 1 288.90 876.19   L 399.00 876.19   A 0.56 0.56 0.0 0 0 399.51 875.88   L 413.30 848.45"/>
<path stroke="#848484" d="M 436.53 833.43   A 0.62 0.62 0.0 0 0 437.09 834.33   L 493.12 834.33   A 0.62 0.62 0.0 0 1 493.68 835.23   L 451.25 917.84   A 0.62 0.62 0.0 0 0 451.81 918.74   L 494.81 918.74   A 0.62 0.62 0.0 0 0 495.36 918.40   L 538.38 834.66   A 0.62 0.62 0.0 0 1 538.93 834.32   L 590.46 834.32   A 0.62 0.62 0.0 0 0 591.01 833.98   L 605.72 805.35   A 0.62 0.62 0.0 0 0 605.16 804.45   L 451.80 804.45   A 0.62 0.62 0.0 0 0 451.25 804.79   L 436.53 833.43"/>
<path stroke="#848484" d="M 793.83 804.28   A 0.49 0.49 0.0 0 0 793.39 804.55   L 736.34 918.01   A 0.49 0.49 0.0 0 0 736.77 918.72   L 780.05 918.72   A 0.49 0.49 0.0 0 0 780.49 918.45   L 837.54 804.99   A 0.49 0.49 0.0 0 0 837.11 804.28   L 793.83 804.28"/>
<path stroke="#848484" d="M 793.66 918.65   L 928.77 918.65   A 0.70 0.69 13.1 0 0 929.39 918.27   Q 931.99 912.90 942.46 891.83   Q 942.69 891.35 942.25 891.02   Q 942.11 890.91 941.77 890.91   Q 895.87 890.86 854.00 891.00   A 0.47 0.47 0.0 0 1 853.58 890.32   L 896.60 804.78   A 0.31 0.31 0.0 0 0 896.33 804.33   L 851.72 804.33   A 1.24 1.24 0.0 0 0 850.61 805.02   L 793.55 918.48   A 0.12 0.12 0.0 0 0 793.66 918.65"/>
<path stroke="#848484" d="M 680.45 918.84   L 723.23 918.84   A 1.42 1.40 13.3 0 0 724.49 918.07   Q 745.78 875.64 771.17 826.66   C 774.58 820.08 775.16 809.35 766.55 806.20   Q 761.76 804.45 759.24 804.45   Q 689.13 804.49 642.77 804.36   Q 635.05 804.34 630.83 805.58   Q 620.35 808.66 612.44 816.69   Q 608.60 820.57 601.52 834.39   Q 573.64 888.78 559.06 918.16   A 0.45 0.45 0.0 0 0 559.47 918.81   L 602.73 918.81   A 0.57 0.54 12.7 0 0 603.23 918.51   L 624.70 876.73   A 0.74 0.73 12.9 0 1 625.36 876.32   L 700.67 876.32   A 0.62 0.62 0.0 0 1 701.22 877.23   L 680.12 918.31   A 0.37 0.36 13.4 0 0 680.45 918.84"/>
<path stroke="#848484" d="M 412.75 576.29   Q 429.34 576.28 429.77 576.28   Q 435.64 576.23 438.05 575.06   Q 442.14 573.07 444.08 569.34   Q 462.70 533.47 467.99 523.76   C 470.12 519.87 469.45 516.21 464.25 516.14   Q 457.49 516.04 412.84 516.04   Q 396.25 516.05 395.83 516.05   Q 389.95 516.10 387.54 517.27   Q 383.45 519.26 381.51 522.99   Q 362.89 558.86 357.60 568.57   C 355.47 572.46 356.14 576.12 361.34 576.19   Q 368.10 576.29 412.75 576.29"/>
<path stroke="#848484" d="M 570.78 530.18   A 0.42 0.42 0.0 0 0 571.16 530.79   L 654.66 530.79   A 0.71 0.69 14.6 0 0 655.27 530.44   Q 659.14 523.44 660.42 520.65   A 3.32 2.90 -56.2 0 0 659.97 517.17   Q 659.11 516.27 657.25 516.23   Q 648.19 516.01 586.15 516.03   C 577.04 516.03 574.33 522.99 570.78 530.18"/>
<path stroke="#848484" d="M 1118.97 530.05   A 0.42 0.42 0.0 0 0 1119.35 530.64   L 1201.32 530.62   A 0.69 0.68 14.6 0 0 1201.92 530.28   Q 1205.72 523.41 1206.98 520.67   A 3.26 2.85 -56.2 0 0 1206.53 517.25   Q 1205.69 516.37 1203.86 516.33   Q 1194.97 516.12 1134.06 516.15   C 1125.12 516.15 1122.46 522.99 1118.97 530.05"/>
<path stroke="#848484" d="M 112.22 890.99   Q 147.67 890.86 171.60 890.93   Q 177.88 890.95 180.30 889.93   Q 184.76 888.05 186.75 884.21   Q 197.57 863.25 209.09 841.40   C 210.66 838.42 209.10 834.85 205.60 834.84   Q 168.61 834.72 140.51 834.90   A 1.82 1.82 0.0 0 0 138.90 835.90   L 111.65 890.07   A 0.64 0.63 -77.0 0 0 112.22 890.99"/>
<path stroke="#848484" d="M 639.87 847.13   A 0.38 0.38 0.0 0 0 640.22 847.69   L 715.85 847.60   A 0.64 0.63 14.5 0 0 716.40 847.28   Q 719.90 840.94 721.05 838.41   A 3.00 2.63 -56.3 0 0 720.64 835.26   Q 719.86 834.44 718.18 834.41   Q 709.97 834.22 653.78 834.30   C 645.53 834.31 643.08 840.62 639.87 847.13"/>
</g>
<path xmlns="http://www.w3.org/2000/svg" fill="#0a0a0a" d="M 1448.00 0.00   L 1448.00 1448.00   L 0.00 1448.00   L 0.00 0.00   L 1448.00 0.00   Z   M 908.25 484.25   Q 879.72 484.29 770.75 484.13   Q 761.95 484.11 757.34 485.37   Q 742.08 489.52 732.07 501.80   Q 729.31 505.20 724.68 514.25   C 720.72 521.99 716.13 529.44 712.70 537.53   A 7.10 7.05 -30.3 0 0 712.19 539.44   C 711.38 545.76 711.53 551.25 717.22 555.15   C 722.74 558.92 728.58 559.85 735.91 559.72   Q 736.01 559.72 824.99 559.85   Q 827.16 559.85 829.05 560.76   A 2.08 2.08 0.0 0 1 830.14 563.22   Q 828.48 568.92 824.81 573.20   C 822.66 575.71 820.08 576.04 816.75 576.04   Q 765.62 575.95 694.55 576.00   A 1.23 1.23 0.0 0 0 693.45 576.68   L 678.90 605.61   A 0.44 0.43 13.4 0 0 679.29 606.24   Q 817.65 606.28 818.27 606.29   Q 832.96 606.68 839.12 604.90   Q 850.78 601.53 859.61 593.10   C 864.01 588.91 867.04 583.47 869.91 577.90   Q 875.46 567.12 884.24 551.00   Q 886.17 547.46 886.41 543.50   C 887.05 533.24 874.77 530.22 866.75 530.21   Q 811.61 530.18 778.25 530.22   C 774.24 530.23 767.80 530.54 766.18 529.46   A 1.53 1.53 0.0 0 1 765.63 527.54   Q 766.96 524.70 768.01 522.46   C 771.22 515.67 776.70 515.98 783.37 515.97   Q 839.43 515.91 891.71 515.97   A 1.13 1.11 13.3 0 0 892.71 515.36   L 908.67 484.94   A 0.47 0.47 0.0 0 0 908.25 484.25   Z   M 294.08 576.33   Q 256.56 576.21 188.25 576.28   C 185.44 576.28 180.69 576.58 179.24 574.54   Q 177.80 572.50 179.34 569.60   Q 180.99 566.49 201.85 526.62   Q 204.80 520.99 207.04 519.07   Q 210.67 515.96 215.53 515.95   Q 261.53 515.90 324.25 515.92   A 0.89 0.87 -75.9 0 0 325.03 515.44   L 340.94 485.10   A 0.55 0.55 0.0 0 0 340.45 484.30   Q 236.94 484.18 205.75 484.23   C 191.32 484.25 174.92 492.71 165.46 503.43   Q 162.18 507.15 158.87 513.66   C 155.64 520.04 151.68 526.59 147.92 533.93   Q 136.77 555.66 126.31 575.54   C 117.94 591.43 127.22 605.95 144.75 606.14   Q 163.03 606.33 278.46 606.26   A 1.31 1.31 0.0 0 0 279.62 605.56   L 294.54 577.10   A 0.53 0.53 0.0 0 0 294.08 576.33   Z   M 477.30 591.60   C 479.69 588.80 481.49 585.24 483.32 581.82   Q 496.40 557.38 516.61 518.34   Q 518.47 514.73 522.09 508.11   C 526.45 500.12 525.86 489.84 516.33 485.95   Q 512.05 484.19 508.51 484.20   Q 431.91 484.29 377.00 484.17   Q 368.88 484.15 359.74 488.77   Q 346.82 495.31 340.56 507.13   Q 328.77 529.39 326.48 533.97   Q 318.67 549.60 306.10 573.71   C 302.15 581.30 300.11 586.57 302.10 593.99   C 303.86 600.57 310.27 604.81 316.79 605.68   Q 322.59 606.45 328.00 606.44   Q 439.12 606.24 439.14 606.24   Q 443.04 606.23 443.84 606.25   Q 464.36 606.74 477.30 591.60   Z   M 482.34 606.23   L 529.53 606.23   A 1.36 1.35 13.8 0 0 530.73 605.51   L 553.32 562.41   A 2.88 2.87 -76.0 0 1 555.86 560.88   L 638.31 560.88   A 0.66 0.65 13.8 0 1 638.90 561.84   L 616.00 605.52   A 0.49 0.49 0.0 0 0 616.44 606.24   L 663.61 606.24   A 1.11 1.10 13.8 0 0 664.59 605.65   C 680.16 576.02 697.97 541.24 715.32 509.07   C 718.15 503.82 719.83 497.88 717.33 492.39   C 714.75 486.73 708.37 484.16 702.25 484.17   Q 662.84 484.27 569.25 484.18   C 557.52 484.16 547.21 490.38 538.82 498.89   Q 534.76 503.00 530.16 512.68   Q 528.56 516.03 516.35 538.71   Q 512.16 546.51 502.81 564.89   Q 493.68 582.84 487.47 594.46   Q 483.54 601.82 481.81 605.40   A 0.58 0.58 0.0 0 0 482.34 606.23   Z   M 922.06 606.26   L 967.19 606.26   A 1.68 1.68 0.0 0 0 968.68 605.36   L 1015.21 516.61   A 1.20 1.18 13.4 0 1 1016.27 515.97   L 1068.34 515.97   A 1.50 1.50 0.0 0 0 1069.67 515.16   L 1085.48 485.01   A 0.53 0.53 0.0 0 0 1085.01 484.23   L 923.47 484.23   A 1.11 1.10 13.8 0 0 922.49 484.82   Q 916.63 495.94 906.73 515.01   Q 906.57 515.32 906.59 515.42   Q 906.74 516.02 907.37 516.02   Q 945.32 515.91 967.89 515.96   A 0.44 0.43 14.5 0 1 968.27 516.60   L 921.64 605.56   A 0.48 0.48 0.0 0 0 922.06 606.26   Z   M 1032.88 606.25   Q 1052.27 606.35 1076.58 606.27   Q 1076.65 606.27 1077.43 606.33   Q 1079.05 606.47 1079.96 604.73   Q 1089.92 585.63 1099.99 566.25   Q 1101.05 564.20 1102.83 561.60   A 1.44 1.44 0.0 0 1 1104.02 560.97   L 1185.36 560.97   A 0.57 0.57 0.0 0 1 1185.86 561.80   L 1162.95 605.50   A 0.51 0.50 13.8 0 0 1163.40 606.24   L 1208.38 606.24   A 1.79 1.79 0.0 0 0 1209.97 605.27   Q 1230.89 565.11 1260.80 507.58   C 1264.91 499.67 1264.67 489.86 1255.35 485.91   Q 1251.39 484.24 1248.75 484.24   Q 1146.07 484.19 1117.00 484.22   C 1107.73 484.24 1097.04 490.55 1090.82 496.85   Q 1087.57 500.13 1083.03 508.73   Q 1058.30 555.46 1032.59 605.77   A 0.33 0.33 0.0 0 0 1032.88 606.25   Z   M 1382.17 577.11   A 0.56 0.56 0.0 0 0 1381.67 576.29   L 1284.86 576.29   A 0.56 0.56 0.0 0 1 1284.36 575.47   L 1331.75 485.08   A 0.56 0.56 0.0 0 0 1331.25 484.26   L 1283.49 484.26   A 0.56 0.56 0.0 0 0 1282.99 484.56   L 1220.90 605.45   A 0.56 0.56 0.0 0 0 1221.40 606.27   L 1366.55 606.27   A 0.56 0.56 0.0 0 0 1367.05 605.97   L 1382.17 577.11   Z   M 181.53 684.57   Q 189.45 683.26 207.57 680.02   A 3.00 2.99 -81.7 0 0 209.69 678.43   L 215.19 667.49   A 2.00 2.00 0.0 0 1 216.98 666.38   L 365.33 666.38   A 1.59 1.59 0.0 0 0 366.75 665.51   Q 376.90 645.59 385.61 628.87   Q 385.83 628.45 385.42 628.20   Q 385.16 628.05 384.73 628.06   Q 370.16 628.22 174.42 628.13   A 1.48 1.48 0.0 0 0 173.10 628.94   L 98.82 776.65   A 0.37 0.36 13.4 0 0 99.15 777.18   L 158.44 777.18   A 1.40 1.39 13.7 0 0 159.68 776.43   L 188.11 721.07   A 1.04 1.04 0.0 0 1 189.03 720.51   L 331.57 720.51   A 0.73 0.72 13.2 0 0 332.22 720.11   L 349.82 685.84   A 0.64 0.63 -76.3 0 0 349.26 684.91   L 181.56 684.91   A 0.17 0.17 0.0 0 1 181.53 684.57   Z   M 384.43 777.25   A 0.62 0.62 0.0 0 0 384.99 776.90   L 457.99 629.08   A 0.62 0.62 0.0 0 0 457.43 628.19   L 399.38 628.19   A 0.62 0.62 0.0 0 0 398.82 628.54   L 325.83 776.36   A 0.62 0.62 0.0 0 0 326.39 777.25   L 384.43 777.25   Z   M 402.23 777.22   L 462.14 777.22   A 1.35 1.33 -76.8 0 0 463.34 776.47   L 507.25 687.53   A 0.98 0.97 40.1 0 1 508.91 687.39   L 574.64 776.69   A 1.53 1.50 -17.6 0 0 575.87 777.31   L 626.10 777.31   A 1.54 1.53 -77.0 0 0 627.48 776.44   L 698.63 629.26   A 0.81 0.81 0.0 0 0 697.90 628.10   L 641.05 628.10   A 1.09 1.09 0.0 0 0 640.07 628.71   Q 615.23 679.49 594.87 721.64   Q 594.55 722.30 593.89 722.05   Q 593.54 721.92 593.16 721.37   Q 571.34 690.11 527.31 628.56   A 1.04 1.01 71.7 0 0 526.48 628.13   L 474.97 628.13   A 1.33 1.33 0.0 0 0 473.79 628.85   Q 437.37 701.85 401.81 776.56   A 0.46 0.46 0.0 0 0 402.23 777.22   Z   M 721.95 684.95   A 0.30 0.28 -2.9 0 1 722.19 684.70   L 748.82 679.99   A 1.52 1.51 8.1 0 0 749.93 679.16   L 755.79 667.29   A 1.35 1.34 13.1 0 1 757.00 666.54   L 907.61 666.54   A 1.33 1.33 0.0 0 0 908.79 665.82   L 927.69 629.03   A 0.49 0.48 -76.4 0 0 927.26 628.32   L 714.67 628.32   A 0.83 0.82 -76.3 0 0 713.94 628.77   Q 681.64 693.80 642.34 776.07   Q 642.09 776.59 642.20 776.90   Q 642.33 777.28 642.74 777.28   Q 800.57 777.30 854.01 777.29   A 1.58 1.56 13.0 0 0 855.42 776.42   L 872.47 741.88   A 0.69 0.69 0.0 0 0 871.85 740.88   L 720.09 740.88   A 0.51 0.51 0.0 0 1 719.63 740.14   L 728.90 721.36   A 0.98 0.97 13.4 0 1 729.77 720.83   L 873.86 720.83   A 1.51 1.51 0.0 0 0 875.21 720.00   L 893.07 685.24   A 0.32 0.32 0.0 0 0 892.78 684.77   L 722.07 685.11   A 0.13 0.12 87.4 0 1 721.95 684.99   L 721.95 684.95   Z   M 1149.74 628.50   Q 1149.53 628.29 1149.25 628.29   Q 1139.58 628.44 975.71 628.30   Q 966.86 628.30 961.80 629.58   Q 952.90 631.85 945.13 637.14   Q 936.23 643.21 930.29 655.02   Q 917.64 680.14 913.47 688.48   C 907.86 699.70 909.58 711.90 922.36 716.84   C 927.71 718.90 931.92 719.79 938.04 719.79   C 996.52 719.80 1029.19 719.44 1046.24 719.97   C 1049.21 720.07 1052.98 722.19 1051.48 725.71   Q 1050.47 728.08 1045.80 736.53   Q 1043.26 741.14 1037.45 741.14   Q 930.01 741.24 887.39 741.09   A 1.31 1.31 0.0 0 0 886.19 741.84   L 869.33 776.72   A 0.35 0.35 0.0 0 0 869.64 777.22   Q 999.42 777.28 1060.28 777.13   C 1076.45 777.09 1090.69 768.81 1098.19 754.17   Q 1107.39 736.23 1116.39 718.39   C 1120.67 709.91 1127.47 698.54 1119.11 690.60   C 1114.51 686.23 1105.76 684.67 1099.25 684.66   Q 1053.29 684.56 977.80 684.59   Q 975.22 684.59 974.54 682.04   A 1.55 1.53 51.0 0 1 974.64 681.02   Q 976.58 676.97 978.42 673.15   C 981.90 665.94 986.95 666.36 995.11 666.37   Q 1009.97 666.40 1129.85 666.39   A 1.79 1.78 -76.9 0 0 1131.45 665.39   Q 1144.10 639.83 1149.82 629.14   Q 1150.01 628.79 1149.74 628.50   Z   M 1220.98 666.52   A 0.61 0.61 0.0 0 1 1221.53 667.40   L 1166.62 776.59   A 0.61 0.61 0.0 0 0 1167.17 777.47   L 1223.03 777.47   A 0.61 0.61 0.0 0 0 1223.58 777.13   L 1279.01 666.91   A 0.61 0.61 0.0 0 1 1279.56 666.57   L 1347.23 666.57   A 0.61 0.61 0.0 0 0 1347.77 666.24   L 1367.06 629.43   A 0.61 0.61 0.0 0 0 1366.52 628.54   L 1166.55 628.54   A 0.61 0.61 0.0 0 0 1166.01 628.87   L 1146.74 665.63   A 0.61 0.61 0.0 0 0 1147.28 666.52   L 1220.98 666.52   Z   M 985.52 918.69   A 0.47 0.47 0.0 0 0 985.94 918.43   L 1042.00 804.91   A 0.47 0.47 0.0 0 0 1041.57 804.23   L 996.96 804.23   A 0.47 0.47 0.0 0 0 996.54 804.49   L 940.48 918.01   A 0.47 0.47 0.0 0 0 940.91 918.69   L 985.52 918.69   Z   M 1220.00 804.18   L 1177.94 804.18   A 1.61 1.61 0.0 0 0 1176.49 805.09   L 1144.88 870.49   A 0.81 0.81 0.0 0 1 1143.47 870.57   L 1101.76 804.74   A 1.26 1.25 -16.2 0 0 1100.70 804.16   L 1057.22 804.16   A 1.90 1.88 -76.8 0 0 1055.53 805.22   L 999.72 918.24   A 0.37 0.36 -76.7 0 0 1000.04 918.77   L 1044.46 918.77   A 0.72 0.70 -76.1 0 0 1045.09 918.38   L 1080.91 848.64   A 0.68 0.68 0.0 0 1 1082.09 848.59   L 1126.14 918.10   A 0.91 0.91 0.0 0 0 1126.90 918.51   L 1162.93 918.51   A 0.85 0.82 13.1 0 0 1163.68 918.06   L 1220.52 805.02   A 0.58 0.58 0.0 0 0 1220.00 804.18   Z   M 1315.96 877.00   L 1309.35 890.17   A 0.89 0.89 0.0 0 1 1308.56 890.65   Q 1252.41 890.69 1240.81 890.64   Q 1238.47 890.62 1236.50 888.03   C 1235.47 886.67 1236.42 884.09 1237.08 882.85   Q 1243.62 870.41 1257.27 843.54   C 1260.48 837.24 1264.01 833.17 1271.50 833.18   Q 1316.74 833.25 1361.50 833.21   Q 1369.96 833.21 1372.36 833.06   A 1.87 1.86 -78.5 0 0 1373.90 832.04   L 1387.63 804.73   A 0.50 0.50 0.0 0 0 1387.18 804.00   Q 1321.30 804.23 1262.92 804.03   Q 1251.32 803.99 1246.75 805.32   Q 1235.64 808.53 1227.46 817.73   Q 1224.78 820.75 1221.01 828.06   C 1210.20 849.04 1199.69 870.21 1188.89 891.38   Q 1186.35 896.38 1185.84 900.97   C 1184.67 911.69 1193.48 917.92 1203.31 918.39   Q 1207.21 918.57 1222.56 918.55   Q 1316.52 918.47 1336.17 918.45   A 0.76 0.76 0.0 0 0 1336.85 918.03   L 1369.96 850.98   A 0.31 0.30 -77.0 0 0 1369.69 850.54   L 1289.55 850.54   A 1.92 1.91 13.3 0 0 1287.84 851.59   L 1275.66 875.81   A 0.34 0.34 0.0 0 0 1275.96 876.30   L 1315.53 876.30   A 0.48 0.48 0.0 0 1 1315.96 877.00   Z   M 54.61 918.79   Q 112.01 918.88 183.22 918.77   Q 192.31 918.75 196.68 917.49   Q 207.53 914.36 216.02 905.64   Q 219.05 902.54 222.30 895.97   Q 230.67 879.08 256.45 828.43   Q 258.65 824.10 258.40 818.20   C 258.15 812.52 254.88 808.17 249.69 806.08   Q 245.54 804.41 242.75 804.41   Q 181.67 804.45 111.99 804.36   A 0.76 0.74 -76.4 0 0 111.32 804.78   L 54.27 918.23   A 0.39 0.39 0.0 0 0 54.61 918.79   Z   M 413.30 848.45   A 0.56 0.56 0.0 0 0 412.80 847.64   L 303.77 847.64   A 0.56 0.56 0.0 0 1 303.27 846.82   L 309.66 834.61   A 0.56 0.56 0.0 0 1 310.16 834.31   L 421.42 834.31   A 0.56 0.56 0.0 0 0 421.92 834.01   L 436.99 805.26   A 0.56 0.56 0.0 0 0 436.49 804.44   L 280.49 804.44   A 0.56 0.56 0.0 0 0 279.98 804.75   L 223.04 917.99   A 0.56 0.56 0.0 0 0 223.54 918.80   L 381.13 918.80   A 0.56 0.56 0.0 0 0 381.64 918.49   L 395.52 890.86   A 0.56 0.56 0.0 0 0 395.02 890.05   L 282.22 890.05   A 0.56 0.56 0.0 0 1 281.72 889.23   L 288.40 876.49   A 0.56 0.56 0.0 0 1 288.90 876.19   L 399.00 876.19   A 0.56 0.56 0.0 0 0 399.51 875.88   L 413.30 848.45   Z   M 436.53 833.43   A 0.62 0.62 0.0 0 0 437.09 834.33   L 493.12 834.33   A 0.62 0.62 0.0 0 1 493.68 835.23   L 451.25 917.84   A 0.62 0.62 0.0 0 0 451.81 918.74   L 494.81 918.74   A 0.62 0.62 0.0 0 0 495.36 918.40   L 538.38 834.66   A 0.62 0.62 0.0 0 1 538.93 834.32   L 590.46 834.32   A 0.62 0.62 0.0 0 0 591.01 833.98   L 605.72 805.35   A 0.62 0.62 0.0 0 0 605.16 804.45   L 451.80 804.45   A 0.62 0.62 0.0 0 0 451.25 804.79   L 436.53 833.43   Z   M 793.83 804.28   A 0.49 0.49 0.0 0 0 793.39 804.55   L 736.34 918.01   A 0.49 0.49 0.0 0 0 736.77 918.72   L 780.05 918.72   A 0.49 0.49 0.0 0 0 780.49 918.45   L 837.54 804.99   A 0.49 0.49 0.0 0 0 837.11 804.28   L 793.83 804.28   Z   M 793.66 918.65   L 928.77 918.65   A 0.70 0.69 13.1 0 0 929.39 918.27   Q 931.99 912.90 942.46 891.83   Q 942.69 891.35 942.25 891.02   Q 942.11 890.91 941.77 890.91   Q 895.87 890.86 854.00 891.00   A 0.47 0.47 0.0 0 1 853.58 890.32   L 896.60 804.78   A 0.31 0.31 0.0 0 0 896.33 804.33   L 851.72 804.33   A 1.24 1.24 0.0 0 0 850.61 805.02   L 793.55 918.48   A 0.12 0.12 0.0 0 0 793.66 918.65   Z   M 680.45 918.84   L 723.23 918.84   A 1.42 1.40 13.3 0 0 724.49 918.07   Q 745.78 875.64 771.17 826.66   C 774.58 820.08 775.16 809.35 766.55 806.20   Q 761.76 804.45 759.24 804.45   Q 689.13 804.49 642.77 804.36   Q 635.05 804.34 630.83 805.58   Q 620.35 808.66 612.44 816.69   Q 608.60 820.57 601.52 834.39   Q 573.64 888.78 559.06 918.16   A 0.45 0.45 0.0 0 0 559.47 918.81   L 602.73 918.81   A 0.57 0.54 12.7 0 0 603.23 918.51   L 624.70 876.73   A 0.74 0.73 12.9 0 1 625.36 876.32   L 700.67 876.32   A 0.62 0.62 0.0 0 1 701.22 877.23   L 680.12 918.31   A 0.37 0.36 13.4 0 0 680.45 918.84   Z"/>
<path xmlns="http://www.w3.org/2000/svg" fill="#fdfefd" d="M 908.25 484.25   A 0.47 0.47 0.0 0 1 908.67 484.94   L 892.71 515.36   A 1.13 1.11 13.3 0 1 891.71 515.97   Q 839.43 515.91 783.37 515.97   C 776.70 515.98 771.22 515.67 768.01 522.46   Q 766.96 524.70 765.63 527.54   A 1.53 1.53 0.0 0 0 766.18 529.46   C 767.80 530.54 774.24 530.23 778.25 530.22   Q 811.61 530.18 866.75 530.21   C 874.77 530.22 887.05 533.24 886.41 543.50   Q 886.17 547.46 884.24 551.00   Q 875.46 567.12 869.91 577.90   C 867.04 583.47 864.01 588.91 859.61 593.10   Q 850.78 601.53 839.12 604.90   Q 832.96 606.68 818.27 606.29   Q 817.65 606.28 679.29 606.24   A 0.44 0.43 13.4 0 1 678.90 605.61   L 693.45 576.68   A 1.23 1.23 0.0 0 1 694.55 576.00   Q 765.62 575.95 816.75 576.04   C 820.08 576.04 822.66 575.71 824.81 573.20   Q 828.48 568.92 830.14 563.22   A 2.08 2.08 0.0 0 0 829.05 560.76   Q 827.16 559.85 824.99 559.85   Q 736.01 559.72 735.91 559.72   C 728.58 559.85 722.74 558.92 717.22 555.15   C 711.53 551.25 711.38 545.76 712.19 539.44   A 7.10 7.05 -30.3 0 1 712.70 537.53   C 716.13 529.44 720.72 521.99 724.68 514.25   Q 729.31 505.20 732.07 501.80   Q 742.08 489.52 757.34 485.37   Q 761.95 484.11 770.75 484.13   Q 879.72 484.29 908.25 484.25   Z"/>
<path xmlns="http://www.w3.org/2000/svg" fill="#fdfefd" d="M 294.08 576.33   A 0.53 0.53 0.0 0 1 294.54 577.10   L 279.62 605.56   A 1.31 1.31 0.0 0 1 278.46 606.26   Q 163.03 606.33 144.75 606.14   C 127.22 605.95 117.94 591.43 126.31 575.54   Q 136.77 555.66 147.92 533.93   C 151.68 526.59 155.64 520.04 158.87 513.66   Q 162.18 507.15 165.46 503.43   C 174.92 492.71 191.32 484.25 205.75 484.23   Q 236.94 484.18 340.45 484.30   A 0.55 0.55 0.0 0 1 340.94 485.10   L 325.03 515.44   A 0.89 0.87 -75.9 0 1 324.25 515.92   Q 261.53 515.90 215.53 515.95   Q 210.67 515.96 207.04 519.07   Q 204.80 520.99 201.85 526.62   Q 180.99 566.49 179.34 569.60   Q 177.80 572.50 179.24 574.54   C 180.69 576.58 185.44 576.28 188.25 576.28   Q 256.56 576.21 294.08 576.33   Z"/>
<path xmlns="http://www.w3.org/2000/svg" fill="#fdfefd" d="M 477.30 591.60   Q 464.36 606.74 443.84 606.25   Q 443.04 606.23 439.14 606.24   Q 439.12 606.24 328.00 606.44   Q 322.59 606.45 316.79 605.68   C 310.27 604.81 303.86 600.57 302.10 593.99   C 300.11 586.57 302.15 581.30 306.10 573.71   Q 318.67 549.60 326.48 533.97   Q 328.77 529.39 340.56 507.13   Q 346.82 495.31 359.74 488.77   Q 368.88 484.15 377.00 484.17   Q 431.91 484.29 508.51 484.20   Q 512.05 484.19 516.33 485.95   C 525.86 489.84 526.45 500.12 522.09 508.11   Q 518.47 514.73 516.61 518.34   Q 496.40 557.38 483.32 581.82   C 481.49 585.24 479.69 588.80 477.30 591.60   Z   M 412.75 576.29   Q 429.34 576.28 429.77 576.28   Q 435.64 576.23 438.05 575.06   Q 442.14 573.07 444.08 569.34   Q 462.70 533.47 467.99 523.76   C 470.12 519.87 469.45 516.21 464.25 516.14   Q 457.49 516.04 412.84 516.04   Q 396.25 516.05 395.83 516.05   Q 389.95 516.10 387.54 517.27   Q 383.45 519.26 381.51 522.99   Q 362.89 558.86 357.60 568.57   C 355.47 572.46 356.14 576.12 361.34 576.19   Q 368.10 576.29 412.75 576.29   Z"/>
<path xmlns="http://www.w3.org/2000/svg" fill="#fdfefd" d="M 482.34 606.23   A 0.58 0.58 0.0 0 1 481.81 605.40   Q 483.54 601.82 487.47 594.46   Q 493.68 582.84 502.81 564.89   Q 512.16 546.51 516.35 538.71   Q 528.56 516.03 530.16 512.68   Q 534.76 503.00 538.82 498.89   C 547.21 490.38 557.52 484.16 569.25 484.18   Q 662.84 484.27 702.25 484.17   C 708.37 484.16 714.75 486.73 717.33 492.39   C 719.83 497.88 718.15 503.82 715.32 509.07   C 697.97 541.24 680.16 576.02 664.59 605.65   A 1.11 1.10 13.8 0 1 663.61 606.24   L 616.44 606.24   A 0.49 0.49 0.0 0 1 616.00 605.52   L 638.90 561.84   A 0.66 0.65 13.8 0 0 638.31 560.88   L 555.86 560.88   A 2.88 2.87 -76.0 0 0 553.32 562.41   L 530.73 605.51   A 1.36 1.35 13.8 0 1 529.53 606.23   L 482.34 606.23   Z   M 570.78 530.18   A 0.42 0.42 0.0 0 0 571.16 530.79   L 654.66 530.79   A 0.71 0.69 14.6 0 0 655.27 530.44   Q 659.14 523.44 660.42 520.65   A 3.32 2.90 -56.2 0 0 659.97 517.17   Q 659.11 516.27 657.25 516.23   Q 648.19 516.01 586.15 516.03   C 577.04 516.03 574.33 522.99 570.78 530.18   Z"/>
<path xmlns="http://www.w3.org/2000/svg" fill="#fdfefd" d="M 922.06 606.26   A 0.48 0.48 0.0 0 1 921.64 605.56   L 968.27 516.60   A 0.44 0.43 14.5 0 0 967.89 515.96   Q 945.32 515.91 907.37 516.02   Q 906.74 516.02 906.59 515.42   Q 906.57 515.32 906.73 515.01   Q 916.63 495.94 922.49 484.82   A 1.11 1.10 13.8 0 1 923.47 484.23   L 1085.01 484.23   A 0.53 0.53 0.0 0 1 1085.48 485.01   L 1069.67 515.16   A 1.50 1.50 0.0 0 1 1068.34 515.97   L 1016.27 515.97   A 1.20 1.18 13.4 0 0 1015.21 516.61   L 968.68 605.36   A 1.68 1.68 0.0 0 1 967.19 606.26   L 922.06 606.26   Z"/>
<path xmlns="http://www.w3.org/2000/svg" fill="#fdfefd" d="M 1032.88 606.25   A 0.33 0.33 0.0 0 1 1032.59 605.77   Q 1058.30 555.46 1083.03 508.73   Q 1087.57 500.13 1090.82 496.85   C 1097.04 490.55 1107.73 484.24 1117.00 484.22   Q 1146.07 484.19 1248.75 484.24   Q 1251.39 484.24 1255.35 485.91   C 1264.67 489.86 1264.91 499.67 1260.80 507.58   Q 1230.89 565.11 1209.97 605.27   A 1.79 1.79 0.0 0 1 1208.38 606.24   L 1163.40 606.24   A 0.51 0.50 13.8 0 1 1162.95 605.50   L 1185.86 561.80   A 0.57 0.57 0.0 0 0 1185.36 560.97   L 1104.02 560.97   A 1.44 1.44 0.0 0 0 1102.83 561.60   Q 1101.05 564.20 1099.99 566.25   Q 1089.92 585.63 1079.96 604.73   Q 1079.05 606.47 1077.43 606.33   Q 1076.65 606.27 1076.58 606.27   Q 1052.27 606.35 1032.88 606.25   Z   M 1118.97 530.05   A 0.42 0.42 0.0 0 0 1119.35 530.64   L 1201.32 530.62   A 0.69 0.68 14.6 0 0 1201.92 530.28   Q 1205.72 523.41 1206.98 520.67   A 3.26 2.85 -56.2 0 0 1206.53 517.25   Q 1205.69 516.37 1203.86 516.33   Q 1194.97 516.12 1134.06 516.15   C 1125.12 516.15 1122.46 522.99 1118.97 530.05   Z"/>
<path xmlns="http://www.w3.org/2000/svg" fill="#fdfefd" d="M 1382.17 577.11   L 1367.05 605.97   A 0.56 0.56 0.0 0 1 1366.55 606.27   L 1221.40 606.27   A 0.56 0.56 0.0 0 1 1220.90 605.45   L 1282.99 484.56   A 0.56 0.56 0.0 0 1 1283.49 484.26   L 1331.25 484.26   A 0.56 0.56 0.0 0 1 1331.75 485.08   L 1284.36 575.47   A 0.56 0.56 0.0 0 0 1284.86 576.29   L 1381.67 576.29   A 0.56 0.56 0.0 0 1 1382.17 577.11   Z"/>
<path xmlns="http://www.w3.org/2000/svg" fill="#0a0a0a" d="M 412.75 576.29   Q 368.10 576.29 361.34 576.19   C 356.14 576.12 355.47 572.46 357.60 568.57   Q 362.89 558.86 381.51 522.99   Q 383.45 519.26 387.54 517.27   Q 389.95 516.10 395.83 516.05   Q 396.25 516.05 412.84 516.04   Q 457.49 516.04 464.25 516.14   C 469.45 516.21 470.12 519.87 467.99 523.76   Q 462.70 533.47 444.08 569.34   Q 442.14 573.07 438.05 575.06   Q 435.64 576.23 429.77 576.28   Q 429.34 576.28 412.75 576.29   Z"/>
<path xmlns="http://www.w3.org/2000/svg" fill="#0a0a0a" d="M 570.78 530.18   C 574.33 522.99 577.04 516.03 586.15 516.03   Q 648.19 516.01 657.25 516.23   Q 659.11 516.27 659.97 517.17   A 3.32 2.90 -56.2 0 1 660.42 520.65   Q 659.14 523.44 655.27 530.44   A 0.71 0.69 14.6 0 1 654.66 530.79   L 571.16 530.79   A 0.42 0.42 0.0 0 1 570.78 530.18   Z"/>
<path xmlns="http://www.w3.org/2000/svg" fill="#0a0a0a" d="M 1118.97 530.05   C 1122.46 522.99 1125.12 516.15 1134.06 516.15   Q 1194.97 516.12 1203.86 516.33   Q 1205.69 516.37 1206.53 517.25   A 3.26 2.85 -56.2 0 1 1206.98 520.67   Q 1205.72 523.41 1201.92 530.28   A 0.69 0.68 14.6 0 1 1201.32 530.62   L 1119.35 530.64   A 0.42 0.42 0.0 0 1 1118.97 530.05   Z"/>
<path xmlns="http://www.w3.org/2000/svg" fill="#b9884c" d="M 181.56 684.91   L 349.26 684.91   A 0.64 0.63 -76.3 0 1 349.82 685.84   L 332.22 720.11   A 0.73 0.72 13.2 0 1 331.57 720.51   L 189.03 720.51   A 1.04 1.04 0.0 0 0 188.11 721.07   L 159.68 776.43   A 1.40 1.39 13.7 0 1 158.44 777.18   L 99.15 777.18   A 0.37 0.36 13.4 0 1 98.82 776.65   L 173.10 628.94   A 1.48 1.48 0.0 0 1 174.42 628.13   Q 370.16 628.22 384.73 628.06   Q 385.16 628.05 385.42 628.20   Q 385.83 628.45 385.61 628.87   Q 376.90 645.59 366.75 665.51   A 1.59 1.59 0.0 0 1 365.33 666.38   L 216.98 666.38   A 2.00 2.00 0.0 0 0 215.19 667.49   L 209.69 678.43   A 3.00 2.99 -81.7 0 1 207.57 680.02   Q 189.45 683.26 181.53 684.57   A 0.17 0.17 0.0 0 0 181.56 684.91   Z"/>
<path xmlns="http://www.w3.org/2000/svg" fill="#b9884c" d="M 384.43 777.25   L 326.39 777.25   A 0.62 0.62 0.0 0 1 325.83 776.36   L 398.82 628.54   A 0.62 0.62 0.0 0 1 399.38 628.19   L 457.43 628.19   A 0.62 0.62 0.0 0 1 457.99 629.08   L 384.99 776.90   A 0.62 0.62 0.0 0 1 384.43 777.25   Z"/>
<path xmlns="http://www.w3.org/2000/svg" fill="#b9884c" d="M 402.23 777.22   A 0.46 0.46 0.0 0 1 401.81 776.56   Q 437.37 701.85 473.79 628.85   A 1.33 1.33 0.0 0 1 474.97 628.13   L 526.48 628.13   A 1.04 1.01 71.7 0 1 527.31 628.56   Q 571.34 690.11 593.16 721.37   Q 593.54 721.92 593.89 722.05   Q 594.55 722.30 594.87 721.64   Q 615.23 679.49 640.07 628.71   A 1.09 1.09 0.0 0 1 641.05 628.10   L 697.90 628.10   A 0.81 0.81 0.0 0 1 698.63 629.26   L 627.48 776.44   A 1.54 1.53 -77.0 0 1 626.10 777.31   L 575.87 777.31   A 1.53 1.50 -17.6 0 1 574.64 776.69   L 508.91 687.39   A 0.98 0.97 40.1 0 0 507.25 687.53   L 463.34 776.47   A 1.35 1.33 -76.8 0 1 462.14 777.22   L 402.23 777.22   Z"/>
<path xmlns="http://www.w3.org/2000/svg" fill="#b9884c" d="M 722.07 685.11   L 892.78 684.77   A 0.32 0.32 0.0 0 1 893.07 685.24   L 875.21 720.00   A 1.51 1.51 0.0 0 1 873.86 720.83   L 729.77 720.83   A 0.98 0.97 13.4 0 0 728.90 721.36   L 719.63 740.14   A 0.51 0.51 0.0 0 0 720.09 740.88   L 871.85 740.88   A 0.69 0.69 0.0 0 1 872.47 741.88   L 855.42 776.42   A 1.58 1.56 13.0 0 1 854.01 777.29   Q 800.57 777.30 642.74 777.28   Q 642.33 777.28 642.20 776.90   Q 642.09 776.59 642.34 776.07   Q 681.64 693.80 713.94 628.77   A 0.83 0.82 -76.3 0 1 714.67 628.32   L 927.26 628.32   A 0.49 0.48 -76.4 0 1 927.69 629.03   L 908.79 665.82   A 1.33 1.33 0.0 0 1 907.61 666.54   L 757.00 666.54   A 1.35 1.34 13.1 0 0 755.79 667.29   L 749.93 679.16   A 1.52 1.51 8.1 0 1 748.82 679.99   L 722.19 684.70   A 0.30 0.28 -2.9 0 0 721.95 684.95   L 721.95 684.99   A 0.13 0.12 87.4 0 0 722.07 685.11   Z"/>
<path xmlns="http://www.w3.org/2000/svg" fill="#b9884c" d="M 1149.74 628.50   Q 1150.01 628.79 1149.82 629.14   Q 1144.10 639.83 1131.45 665.39   A 1.79 1.78 -76.9 0 1 1129.85 666.39   Q 1009.97 666.40 995.11 666.37   C 986.95 666.36 981.90 665.94 978.42 673.15   Q 976.58 676.97 974.64 681.02   A 1.55 1.53 51.0 0 0 974.54 682.04   Q 975.22 684.59 977.80 684.59   Q 1053.29 684.56 1099.25 684.66   C 1105.76 684.67 1114.51 686.23 1119.11 690.60   C 1127.47 698.54 1120.67 709.91 1116.39 718.39   Q 1107.39 736.23 1098.19 754.17   C 1090.69 768.81 1076.45 777.09 1060.28 777.13   Q 999.42 777.28 869.64 777.22   A 0.35 0.35 0.0 0 1 869.33 776.72   L 886.19 741.84   A 1.31 1.31 0.0 0 1 887.39 741.09   Q 930.01 741.24 1037.45 741.14   Q 1043.26 741.14 1045.80 736.53   Q 1050.47 728.08 1051.48 725.71   C 1052.98 722.19 1049.21 720.07 1046.24 719.97   C 1029.19 719.44 996.52 719.80 938.04 719.79   C 931.92 719.79 927.71 718.90 922.36 716.84   C 909.58 711.90 907.86 699.70 913.47 688.48   Q 917.64 680.14 930.29 655.02   Q 936.23 643.21 945.13 637.14   Q 952.90 631.85 961.80 629.58   Q 966.86 628.30 975.71 628.30   Q 1139.58 628.44 1149.25 628.29   Q 1149.53 628.29 1149.74 628.50   Z"/>
<path xmlns="http://www.w3.org/2000/svg" fill="#b9884c" d="M 1220.98 666.52   L 1147.28 666.52   A 0.61 0.61 0.0 0 1 1146.74 665.63   L 1166.01 628.87   A 0.61 0.61 0.0 0 1 1166.55 628.54   L 1366.52 628.54   A 0.61 0.61 0.0 0 1 1367.06 629.43   L 1347.77 666.24   A 0.61 0.61 0.0 0 1 1347.23 666.57   L 1279.56 666.57   A 0.61 0.61 0.0 0 0 1279.01 666.91   L 1223.58 777.13   A 0.61 0.61 0.0 0 1 1223.03 777.47   L 1167.17 777.47   A 0.61 0.61 0.0 0 1 1166.62 776.59   L 1221.53 667.40   A 0.61 0.61 0.0 0 0 1220.98 666.52   Z"/>
<path xmlns="http://www.w3.org/2000/svg" fill="#fdfefd" d="M 985.52 918.69   L 940.91 918.69   A 0.47 0.47 0.0 0 1 940.48 918.01   L 996.54 804.49   A 0.47 0.47 0.0 0 1 996.96 804.23   L 1041.57 804.23   A 0.47 0.47 0.0 0 1 1042.00 804.91   L 985.94 918.43   A 0.47 0.47 0.0 0 1 985.52 918.69   Z"/>
<path xmlns="http://www.w3.org/2000/svg" fill="#fdfefd" d="M 1220.00 804.18   A 0.58 0.58 0.0 0 1 1220.52 805.02   L 1163.68 918.06   A 0.85 0.82 13.1 0 1 1162.93 918.51   L 1126.90 918.51   A 0.91 0.91 0.0 0 1 1126.14 918.10   L 1082.09 848.59   A 0.68 0.68 0.0 0 0 1080.91 848.64   L 1045.09 918.38   A 0.72 0.70 -76.1 0 1 1044.46 918.77   L 1000.04 918.77   A 0.37 0.36 -76.7 0 1 999.72 918.24   L 1055.53 805.22   A 1.90 1.88 -76.8 0 1 1057.22 804.16   L 1100.70 804.16   A 1.26 1.25 -16.2 0 1 1101.76 804.74   L 1143.47 870.57   A 0.81 0.81 0.0 0 0 1144.88 870.49   L 1176.49 805.09   A 1.61 1.61 0.0 0 1 1177.94 804.18   L 1220.00 804.18   Z"/>
<path xmlns="http://www.w3.org/2000/svg" fill="#fdfefd" d="M 1315.96 877.00   A 0.48 0.48 0.0 0 0 1315.53 876.30   L 1275.96 876.30   A 0.34 0.34 0.0 0 1 1275.66 875.81   L 1287.84 851.59   A 1.92 1.91 13.3 0 1 1289.55 850.54   L 1369.69 850.54   A 0.31 0.30 -77.0 0 1 1369.96 850.98   L 1336.85 918.03   A 0.76 0.76 0.0 0 1 1336.17 918.45   Q 1316.52 918.47 1222.56 918.55   Q 1207.21 918.57 1203.31 918.39   C 1193.48 917.92 1184.67 911.69 1185.84 900.97   Q 1186.35 896.38 1188.89 891.38   C 1199.69 870.21 1210.20 849.04 1221.01 828.06   Q 1224.78 820.75 1227.46 817.73   Q 1235.64 808.53 1246.75 805.32   Q 1251.32 803.99 1262.92 804.03   Q 1321.30 804.23 1387.18 804.00   A 0.50 0.50 0.0 0 1 1387.63 804.73   L 1373.90 832.04   A 1.87 1.86 -78.5 0 1 1372.36 833.06   Q 1369.96 833.21 1361.50 833.21   Q 1316.74 833.25 1271.50 833.18   C 1264.01 833.17 1260.48 837.24 1257.27 843.54   Q 1243.62 870.41 1237.08 882.85   C 1236.42 884.09 1235.47 886.67 1236.50 888.03   Q 1238.47 890.62 1240.81 890.64   Q 1252.41 890.69 1308.56 890.65   A 0.89 0.89 0.0 0 0 1309.35 890.17   L 1315.96 877.00   Z"/>
<path xmlns="http://www.w3.org/2000/svg" fill="#fdfefd" d="M 54.61 918.79   A 0.39 0.39 0.0 0 1 54.27 918.23   L 111.32 804.78   A 0.76 0.74 -76.4 0 1 111.99 804.36   Q 181.67 804.45 242.75 804.41   Q 245.54 804.41 249.69 806.08   C 254.88 808.17 258.15 812.52 258.40 818.20   Q 258.65 824.10 256.45 828.43   Q 230.67 879.08 222.30 895.97   Q 219.05 902.54 216.02 905.64   Q 207.53 914.36 196.68 917.49   Q 192.31 918.75 183.22 918.77   Q 112.01 918.88 54.61 918.79   Z   M 112.22 890.99   Q 147.67 890.86 171.60 890.93   Q 177.88 890.95 180.30 889.93   Q 184.76 888.05 186.75 884.21   Q 197.57 863.25 209.09 841.40   C 210.66 838.42 209.10 834.85 205.60 834.84   Q 168.61 834.72 140.51 834.90   A 1.82 1.82 0.0 0 0 138.90 835.90   L 111.65 890.07   A 0.64 0.63 -77.0 0 0 112.22 890.99   Z"/>
<path xmlns="http://www.w3.org/2000/svg" fill="#fdfefd" d="M 413.30 848.45   L 399.51 875.88   A 0.56 0.56 0.0 0 1 399.00 876.19   L 288.90 876.19   A 0.56 0.56 0.0 0 0 288.40 876.49   L 281.72 889.23   A 0.56 0.56 0.0 0 0 282.22 890.05   L 395.02 890.05   A 0.56 0.56 0.0 0 1 395.52 890.86   L 381.64 918.49   A 0.56 0.56 0.0 0 1 381.13 918.80   L 223.54 918.80   A 0.56 0.56 0.0 0 1 223.04 917.99   L 279.98 804.75   A 0.56 0.56 0.0 0 1 280.49 804.44   L 436.49 804.44   A 0.56 0.56 0.0 0 1 436.99 805.26   L 421.92 834.01   A 0.56 0.56 0.0 0 1 421.42 834.31   L 310.16 834.31   A 0.56 0.56 0.0 0 0 309.66 834.61   L 303.27 846.82   A 0.56 0.56 0.0 0 0 303.77 847.64   L 412.80 847.64   A 0.56 0.56 0.0 0 1 413.30 848.45   Z"/>
<path xmlns="http://www.w3.org/2000/svg" fill="#fdfefd" d="M 436.53 833.43   L 451.25 804.79   A 0.62 0.62 0.0 0 1 451.80 804.45   L 605.16 804.45   A 0.62 0.62 0.0 0 1 605.72 805.35   L 591.01 833.98   A 0.62 0.62 0.0 0 1 590.46 834.32   L 538.93 834.32   A 0.62 0.62 0.0 0 0 538.38 834.66   L 495.36 918.40   A 0.62 0.62 0.0 0 1 494.81 918.74   L 451.81 918.74   A 0.62 0.62 0.0 0 1 451.25 917.84   L 493.68 835.23   A 0.62 0.62 0.0 0 0 493.12 834.33   L 437.09 834.33   A 0.62 0.62 0.0 0 1 436.53 833.43   Z"/>
<path xmlns="http://www.w3.org/2000/svg" fill="#fdfefd" d="M 793.83 804.28   L 837.11 804.28   A 0.49 0.49 0.0 0 1 837.54 804.99   L 780.49 918.45   A 0.49 0.49 0.0 0 1 780.05 918.72   L 736.77 918.72   A 0.49 0.49 0.0 0 1 736.34 918.01   L 793.39 804.55   A 0.49 0.49 0.0 0 1 793.83 804.28   Z"/>
<path xmlns="http://www.w3.org/2000/svg" fill="#fdfefd" d="M 793.66 918.65   A 0.12 0.12 0.0 0 1 793.55 918.48   L 850.61 805.02   A 1.24 1.24 0.0 0 1 851.72 804.33   L 896.33 804.33   A 0.31 0.31 0.0 0 1 896.60 804.78   L 853.58 890.32   A 0.47 0.47 0.0 0 0 854.00 891.00   Q 895.87 890.86 941.77 890.91   Q 942.11 890.91 942.25 891.02   Q 942.69 891.35 942.46 891.83   Q 931.99 912.90 929.39 918.27   A 0.70 0.69 13.1 0 1 928.77 918.65   L 793.66 918.65   Z"/>
<path xmlns="http://www.w3.org/2000/svg" fill="#fdfefd" d="M 680.45 918.84   A 0.37 0.36 13.4 0 1 680.12 918.31   L 701.22 877.23   A 0.62 0.62 0.0 0 0 700.67 876.32   L 625.36 876.32   A 0.74 0.73 12.9 0 0 624.70 876.73   L 603.23 918.51   A 0.57 0.54 12.7 0 1 602.73 918.81   L 559.47 918.81   A 0.45 0.45 0.0 0 1 559.06 918.16   Q 573.64 888.78 601.52 834.39   Q 608.60 820.57 612.44 816.69   Q 620.35 808.66 630.83 805.58   Q 635.05 804.34 642.77 804.36   Q 689.13 804.49 759.24 804.45   Q 761.76 804.45 766.55 806.20   C 775.16 809.35 774.58 820.08 771.17 826.66   Q 745.78 875.64 724.49 918.07   A 1.42 1.40 13.3 0 1 723.23 918.84   L 680.45 918.84   Z   M 639.87 847.13   A 0.38 0.38 0.0 0 0 640.22 847.69   L 715.85 847.60   A 0.64 0.63 14.5 0 0 716.40 847.28   Q 719.90 840.94 721.05 838.41   A 3.00 2.63 -56.3 0 0 720.64 835.26   Q 719.86 834.44 718.18 834.41   Q 709.97 834.22 653.78 834.30   C 645.53 834.31 643.08 840.62 639.87 847.13   Z"/>
<path xmlns="http://www.w3.org/2000/svg" fill="#0a0a0a" d="M 639.87 847.13   C 643.08 840.62 645.53 834.31 653.78 834.30   Q 709.97 834.22 718.18 834.41   Q 719.86 834.44 720.64 835.26   A 3.00 2.63 -56.3 0 1 721.05 838.41   Q 719.90 840.94 716.40 847.28   A 0.64 0.63 14.5 0 1 715.85 847.60   L 640.22 847.69   A 0.38 0.38 0.0 0 1 639.87 847.13   Z"/>
<path xmlns="http://www.w3.org/2000/svg" fill="#0a0a0a" d="M 112.22 890.99   A 0.64 0.63 -77.0 0 1 111.65 890.07   L 138.90 835.90   A 1.82 1.82 0.0 0 1 140.51 834.90   Q 168.61 834.72 205.60 834.84   C 209.10 834.85 210.66 838.42 209.09 841.40   Q 197.57 863.25 186.75 884.21   Q 184.76 888.05 180.30 889.93   Q 177.88 890.95 171.60 890.93   Q 147.67 890.86 112.22 890.99   Z"/>
</g></g></g></g></svg>