<svg xmlns="http://www.w3.org/2000/svg" direction="ltr" width="2048" height="2048" viewBox="13260.58141447356 4528.000000000001 2048 2048" stroke-linecap="round" stroke-linejoin="round" data-color-mode="light" class="tl-container tl-theme__force-sRGB tl-theme__light" style="background-color: transparent;"><defs/><g transform="matrix(1, 0, 0, 1, 13260.5814, 4528)" opacity="1"><g data-lovart-layer-name="SVG 1"><g transform="scale(1.4143646408839778, 1.4143646408839778)"><g>
<g xmlns="http://www.w3.org/2000/svg" stroke-width="2.00" fill="none" stroke-linecap="butt">
<path stroke="#8b8b8b" d="M 612.79 523.69   C 604.18 523.18 595.11 523.52 586.13 523.52   Q 369.56 523.56 365.69 523.50   Q 345.62 523.23 334.38 524.90   Q 301.17 529.82 272.90 548.18   C 260.78 556.05 249.78 565.95 241.53 577.85   Q 237.74 583.31 230.42 597.88   Q 190.17 677.99 174.40 708.67   Q 169.03 719.10 167.41 724.24   C 161.67 742.37 162.71 763.50 179.05 775.74   C 189.93 783.88 203.79 787.41 216.75 787.41   Q 406.10 787.45 484.63 787.42   A 0.89 0.88 12.7 0 0 485.43 786.92   L 516.68 723.95   A 0.47 0.46 -76.6 0 0 516.27 723.28   Q 510.28 723.21 488.75 723.25   Q 412.58 723.39 297.41 723.25   C 289.38 723.24 280.66 720.39 285.85 710.11   Q 294.23 693.49 338.30 606.32   Q 341.52 599.97 343.64 597.88   C 351.66 590.00 361.98 587.86 372.93 587.87   Q 384.65 587.88 580.45 587.84   A 1.32 1.31 13.0 0 0 581.63 587.11   L 612.95 523.98   A 0.20 0.20 0.0 0 0 612.79 523.69"/>
<path stroke="#ddc7a9" d="M 662.36 618.90   A 0.35 0.35 0.0 0 1 662.30 618.21   L 711.57 609.20   A 2.69 2.69 0.0 0 0 713.50 607.75   L 722.85 588.89   A 1.95 1.93 -76.5 0 1 724.58 587.82   L 945.17 587.82   A 1.57 1.55 13.2 0 0 946.57 586.96   L 977.82 523.97   A 0.28 0.27 -76.9 0 0 977.58 523.57   L 643.02 523.57   A 1.13 1.11 -78.5 0 0 641.99 524.26   Q 637.93 534.00 630.91 546.60   C 626.06 555.32 624.03 561.39 619.32 570.32   Q 615.49 577.57 613.26 582.13   Q 601.21 606.83 595.21 618.36   C 592.11 624.33 589.92 629.59 586.52 635.91   Q 584.99 638.77 579.99 649.05   Q 561.49 687.18 550.38 709.63   Q 544.26 721.99 542.66 725.31   Q 537.12 736.85 534.88 740.92   C 530.80 748.30 528.28 755.11 524.26 762.93   Q 516.12 778.76 512.53 786.73   A 0.52 0.52 0.0 0 0 513.01 787.46   L 624.15 787.46   A 0.66 0.65 13.0 0 0 624.74 787.10   L 677.32 681.11   A 1.09 1.09 0.0 0 1 678.30 680.50   L 875.06 680.50   A 1.64 1.63 -76.8 0 0 876.52 679.59   L 906.39 619.39   A 0.48 0.47 -69.9 0 0 906.08 618.71   Q 905.94 618.68 905.75 618.68   Q 840.80 618.52 714.52 618.65   Q 707.72 618.66 701.47 618.50   C 688.41 618.17 669.29 618.94 662.36 618.90"/>
<path stroke="#8b8b8b" d="M 1016.79 722.58   L 1068.13 619.11   A 0.36 0.35 13.0 0 0 1067.81 618.60   L 958.17 618.60   A 0.98 0.97 -76.6 0 0 957.30 619.14   L 874.21 786.63   A 0.57 0.57 0.0 0 0 874.72 787.45   Q 1133.58 787.40 1139.03 787.46   Q 1160.13 787.69 1170.35 786.02   C 1204.68 780.42 1238.47 761.29 1259.68 733.46   Q 1265.22 726.19 1268.49 719.73   Q 1297.15 663.10 1328.94 600.70   Q 1338.78 581.40 1336.19 562.24   C 1334.92 552.85 1331.47 546.37 1324.89 539.39   C 1313.38 527.18 1294.50 523.48 1278.25 523.50   Q 1154.07 523.59 1016.02 523.50   Q 1012.03 523.50 1007.78 523.71   A 1.51 1.50 11.6 0 0 1006.49 524.56   L 975.41 587.20   A 0.45 0.45 0.0 0 0 975.81 587.85   Q 1032.86 587.93 1201.77 587.85   C 1208.49 587.85 1219.57 588.39 1218.60 597.97   Q 1218.37 600.26 1216.75 603.48   Q 1205.63 625.60 1165.84 705.00   Q 1162.52 711.62 1159.97 714.14   C 1154.04 720.02 1144.25 723.27 1136.49 723.27   Q 1065.53 723.33 1017.22 723.27   A 0.48 0.48 0.0 0 1 1016.79 722.58"/>
<path stroke="#8b8b8b" d="M 597.07 886.10   Q 597.28 886.10 598.78 875.26   C 599.96 866.72 603.35 860.63 612.15 858.87   Q 620.35 857.23 626.48 856.63   A 0.32 0.32 0.0 0 0 626.49 856.00   C 616.20 854.58 604.17 854.66 600.15 842.94   C 598.78 838.94 597.24 827.13 597.11 827.13   C 596.97 827.13 595.42 838.94 594.04 842.93   C 590.01 854.65 577.98 854.56 567.69 855.96   A 0.32 0.32 0.0 0 0 567.70 856.59   Q 573.83 857.20 582.03 858.85   C 590.82 860.62 594.21 866.72 595.38 875.26   Q 596.87 886.10 597.07 886.10"/>
<path stroke="#8b8b8b" d="M 278.54 841.37   Q 276.01 841.37 275.55 841.43   A 1.04 1.02 10.4 0 0 274.78 841.95   L 258.32 871.75   A 0.56 0.55 14.5 0 0 258.81 872.57   L 264.58 872.57   A 1.52 1.51 14.3 0 0 265.91 871.79   L 268.84 866.49   A 1.18 1.17 12.3 0 1 269.80 865.88   Q 270.96 865.80 278.55 865.80   Q 286.13 865.80 287.29 865.88   A 1.18 1.17 -12.4 0 1 288.26 866.48   L 291.19 871.78   A 1.52 1.51 -14.3 0 0 292.52 872.56   L 298.29 872.56   A 0.56 0.55 -14.5 0 0 298.78 871.74   L 282.30 841.95   A 1.04 1.02 -10.5 0 0 281.53 841.43   Q 281.07 841.37 278.54 841.37"/>
<path stroke="#8b8b8b" d="M 349.96 872.55   Q 356.69 872.56 359.91 872.54   C 363.80 872.51 367.22 871.54 367.33 867.49   Q 367.51 861.04 367.48 842.12   A 0.69 0.69 0.0 0 0 366.79 841.43   L 360.87 841.43   A 0.65 0.65 0.0 0 0 360.22 842.08   L 360.22 866.42   A 0.47 0.47 0.0 0 1 359.75 866.89   Q 354.13 866.88 349.96 866.88   Q 345.80 866.88 340.18 866.88   A 0.47 0.47 0.0 0 1 339.71 866.41   L 339.73 842.07   A 0.65 0.65 0.0 0 0 339.08 841.42   L 333.16 841.42   A 0.69 0.69 0.0 0 0 332.47 842.11   Q 332.42 861.03 332.60 867.48   C 332.71 871.53 336.13 872.50 340.01 872.53   Q 343.24 872.55 349.96 872.55"/>
<path stroke="#8b8b8b" d="M 418.34 872.59   Q 420.91 872.59 421.32 872.59   A 0.60 0.60 0.0 0 0 421.91 871.99   L 421.91 847.91   A 0.87 0.87 0.0 0 1 422.78 847.04   L 435.56 847.04   A 0.75 0.74 0.0 0 0 436.31 846.30   L 436.31 842.20   A 0.77 0.77 0.0 0 0 435.54 841.43   Q 427.25 841.49 418.34 841.40   Q 409.44 841.49 401.15 841.43   A 0.77 0.77 0.0 0 0 400.38 842.20   L 400.38 846.30   A 0.75 0.74 0.0 0 0 401.13 847.04   L 413.91 847.04   A 0.87 0.87 0.0 0 1 414.78 847.91   L 414.78 871.99   A 0.60 0.60 0.0 0 0 415.37 872.59   Q 415.78 872.59 418.34 872.59"/>
<path stroke="#8b8b8b" d="M 506.8230 847.2674   A 5.87 5.87 0.0 0 0 500.9428 841.4076   L 475.2828 841.4524   A 5.87 5.87 0.0 0 0 469.4231 847.3327   L 469.4570 866.7326   A 5.87 5.87 0.0 0 0 475.3372 872.5924   L 500.9972 872.5476   A 5.87 5.87 0.0 0 0 506.8569 866.6673   L 506.8230 847.2674"/>
<path stroke="#8b8b8b" d="M 682.19 841.99   L 682.19 871.95   A 0.65 0.65 0.0 0 0 682.84 872.60   L 706.37 872.60   A 13.34 13.06 0.0 0 0 719.71 859.54   L 719.71 854.40   A 13.34 13.06 -0.0 0 0 706.37 841.34   L 682.84 841.34   A 0.65 0.65 0.0 0 0 682.19 841.99"/>
<path stroke="#8b8b8b" d="M 789.09 841.97   A 0.57 0.57 0.0 0 0 788.52 841.40   L 758.00 841.40   A 0.57 0.57 0.0 0 0 757.43 841.97   L 757.43 872.01   A 0.57 0.57 0.0 0 0 758.00 872.58   L 788.50 872.58   A 0.57 0.57 0.0 0 0 789.07 872.01   L 789.07 867.45   A 0.57 0.57 0.0 0 0 788.50 866.88   L 765.09 866.88   A 0.57 0.57 0.0 0 1 764.52 866.31   L 764.52 859.88   A 0.57 0.57 0.0 0 1 765.09 859.31   L 778.81 859.31   A 0.57 0.57 0.0 0 0 779.38 858.74   L 779.38 854.67   A 0.57 0.57 0.0 0 0 778.81 854.10   L 765.19 854.10   A 0.57 0.57 0.0 0 1 764.62 853.53   L 764.62 847.63   A 0.57 0.57 0.0 0 1 765.19 847.06   L 788.52 847.06   A 0.57 0.57 0.0 0 0 789.09 846.49   L 789.09 841.97"/>
<path stroke="#8b8b8b" d="M 840.06 872.64   Q 842.64 872.63 843.04 872.63   A 0.61 0.60 -0.6 0 0 843.64 872.03   L 843.61 847.91   A 0.87 0.87 0.0 0 1 844.48 847.03   L 857.28 847.02   A 0.75 0.74 -0.1 0 0 858.03 846.28   L 858.02 842.17   A 0.77 0.77 0.0 0 0 857.25 841.40   Q 848.95 841.47 840.03 841.39   Q 831.11 841.49 822.81 841.44   A 0.77 0.77 0.0 0 0 822.03 842.21   L 822.04 846.32   A 0.75 0.74 -0.1 0 0 822.79 847.06   L 835.59 847.04   A 0.87 0.87 0.0 0 1 836.46 847.91   L 836.49 872.03   A 0.61 0.60 0.5 0 0 837.09 872.63   Q 837.49 872.64 840.06 872.64"/>
<path stroke="#8b8b8b" d="M 903.53 841.37   Q 901.00 841.37 900.54 841.43   A 1.04 1.02 10.4 0 0 899.77 841.95   L 883.28 871.76   A 0.56 0.55 14.5 0 0 883.77 872.58   L 889.55 872.58   A 1.53 1.51 14.3 0 0 890.88 871.80   L 893.81 866.50   A 1.19 1.17 12.4 0 1 894.78 865.89   Q 895.93 865.82 903.52 865.82   Q 911.12 865.82 912.27 865.89   A 1.19 1.17 -12.3 0 1 913.24 866.50   L 916.17 871.81   A 1.53 1.51 -14.3 0 0 917.50 872.59   L 923.27 872.59   A 0.56 0.55 -14.5 0 0 923.76 871.77   L 907.29 841.95   A 1.04 1.02 -10.4 0 0 906.52 841.43   Q 906.06 841.37 903.53 841.37"/>
<path stroke="#8b8b8b" d="M 1004.75 841.44   A 0.56 0.56 0.0 0 0 1004.19 842.00   L 1004.19 872.03   A 0.56 0.56 0.0 0 0 1004.75 872.59   L 1034.12 872.59   A 0.56 0.56 0.0 0 0 1034.68 872.03   L 1034.68 867.42   A 0.56 0.56 0.0 0 0 1034.12 866.86   L 1011.98 866.86   A 0.56 0.56 0.0 0 1 1011.42 866.30   L 1011.42 842.00   A 0.56 0.56 0.0 0 0 1010.86 841.44   L 1004.75 841.44"/>
<path stroke="#8b8b8b" d="M 1135.23 854.52   Q 1122.96 843.01 1121.79 842.20   A 2.86 2.84 -23.8 0 0 1120.16 841.57   L 1115.49 841.31   A 0.61 0.61 0.0 0 0 1114.85 841.92   L 1114.85 872.03   A 0.67 0.66 90.0 0 0 1115.51 872.70   L 1121.08 872.70   A 0.67 0.66 90.0 0 0 1121.74 872.03   L 1121.74 852.07   A 0.36 0.36 0.0 0 1 1122.33 851.80   Q 1127.75 856.51 1131.00 859.56   Q 1143.27 871.06 1144.43 871.88   A 2.86 2.84 -23.8 0 0 1146.07 872.51   L 1150.74 872.77   A 0.61 0.61 0.0 0 0 1151.38 872.16   L 1151.38 842.05   A 0.67 0.66 90.0 0 0 1150.72 841.38   L 1145.15 841.38   A 0.67 0.66 90.0 0 0 1144.49 842.05   L 1144.49 862.01   A 0.36 0.36 0.0 0 1 1143.90 862.27   Q 1138.48 857.56 1135.23 854.52"/>
<path stroke="#8b8b8b" d="M 965.40 841.96   A 0.53 0.53 0.0 0 0 964.87 841.43   L 958.65 841.43   A 0.53 0.53 0.0 0 0 958.12 841.96   L 958.12 872.02   A 0.53 0.53 0.0 0 0 958.65 872.55   L 964.87 872.55   A 0.53 0.53 0.0 0 0 965.40 872.02   L 965.40 841.96"/>
<path stroke="#8b8b8b" d="M 1075.72 842.03   A 0.60 0.60 0.0 0 0 1075.12 841.43   L 1069.04 841.43   A 0.60 0.60 0.0 0 0 1068.44 842.03   L 1068.44 871.97   A 0.60 0.60 0.0 0 0 1069.04 872.57   L 1075.12 872.57   A 0.60 0.60 0.0 0 0 1075.72 871.97   L 1075.72 842.03"/>
<path stroke="#8b8b8b" d="M 1219.03 847.69   L 1219.03 851.40   A 0.05 0.04 85.3 0 0 1219.08 851.45   L 1225.79 850.38   A 0.35 0.35 0.0 0 0 1226.09 850.07   C 1227.10 842.07 1222.75 841.35 1215.60 841.38   Q 1197.42 841.46 1196.74 841.45   Q 1189.79 841.44 1189.95 848.52   Q 1190.15 857.56 1190.07 863.47   C 1190.00 869.16 1190.51 872.62 1197.00 872.58   Q 1198.92 872.57 1218.25 872.54   C 1222.75 872.53 1225.85 871.89 1226.13 867.14   Q 1226.32 864.02 1226.13 855.16   A 0.39 0.39 0.0 0 0 1225.74 854.78   L 1209.31 854.78   A 0.88 0.87 90.0 0 0 1208.44 855.66   L 1208.44 859.30   A 0.84 0.84 0.0 0 0 1209.28 860.14   L 1218.32 860.14   A 0.73 0.73 0.0 0 1 1219.05 860.87   L 1219.05 866.32   A 0.61 0.61 0.0 0 1 1218.44 866.93   L 1197.88 866.93   A 0.50 0.49 -0.0 0 1 1197.38 866.44   L 1197.38 847.58   A 0.48 0.48 0.0 0 1 1197.86 847.10   L 1218.44 847.10   A 0.59 0.59 0.0 0 1 1219.03 847.69"/>
<path stroke="#8b8b8b" d="M 272.07 859.73   A 0.38 0.38 0.0 0 0 272.41 860.29   L 284.31 860.35   A 0.38 0.38 0.0 0 0 284.65 859.79   L 278.76 848.29   A 0.38 0.38 0.0 0 0 278.08 848.29   L 272.07 859.73"/>
<path stroke="#8b8b8b" d="M 499.4282 847.8392   A 0.68 0.68 0.0 0 0 498.7517 847.1557   L 477.5320 847.0446   A 0.68 0.68 0.0 0 0 476.8485 847.7210   L 476.7518 866.1808   A 0.68 0.68 0.0 0 0 477.4283 866.8643   L 498.6480 866.9754   A 0.68 0.68 0.0 0 0 499.3315 866.2990   L 499.4282 847.8392"/>
<path stroke="#8b8b8b" d="M 689.63 847.40   L 689.69 866.62   A 0.29 0.29 0.0 0 0 689.98 866.91   L 704.31 866.86   A 8.28 8.04 -0.2 0 0 712.57 858.79   L 712.55 855.07   A 8.28 8.04 -0.2 0 0 704.25 847.06   L 689.92 847.11   A 0.29 0.29 0.0 0 0 689.63 847.40"/>
<path stroke="#8b8b8b" d="M 897.11 859.60   A 0.48 0.48 0.0 0 0 897.53 860.30   L 908.95 860.30   A 0.48 0.48 0.0 0 0 909.37 859.60   L 903.67 848.44   A 0.48 0.48 0.0 0 0 902.81 848.44   L 897.11 859.60"/>
</g>
<path xmlns="http://www.w3.org/2000/svg" fill="#ffffff" d="M 1448.00 0.00   L 1448.00 1448.00   L 0.00 1448.00   L 0.00 0.00   L 1448.00 0.00   Z   M 612.79 523.69   C 604.18 523.18 595.11 523.52 586.13 523.52   Q 369.56 523.56 365.69 523.50   Q 345.62 523.23 334.38 524.90   Q 301.17 529.82 272.90 548.18   C 260.78 556.05 249.78 565.95 241.53 577.85   Q 237.74 583.31 230.42 597.88   Q 190.17 677.99 174.40 708.67   Q 169.03 719.10 167.41 724.24   C 161.67 742.37 162.71 763.50 179.05 775.74   C 189.93 783.88 203.79 787.41 216.75 787.41   Q 406.10 787.45 484.63 787.42   A 0.89 0.88 12.7 0 0 485.43 786.92   L 516.68 723.95   A 0.47 0.46 -76.6 0 0 516.27 723.28   Q 510.28 723.21 488.75 723.25   Q 412.58 723.39 297.41 723.25   C 289.38 723.24 280.66 720.39 285.85 710.11   Q 294.23 693.49 338.30 606.32   Q 341.52 599.97 343.64 597.88   C 351.66 590.00 361.98 587.86 372.93 587.87   Q 384.65 587.88 580.45 587.84   A 1.32 1.31 13.0 0 0 581.63 587.11   L 612.95 523.98   A 0.20 0.20 0.0 0 0 612.79 523.69   Z   M 662.36 618.90   A 0.35 0.35 0.0 0 1 662.30 618.21   L 711.57 609.20   A 2.69 2.69 0.0 0 0 713.50 607.75   L 722.85 588.89   A 1.95 1.93 -76.5 0 1 724.58 587.82   L 945.17 587.82   A 1.57 1.55 13.2 0 0 946.57 586.96   L 977.82 523.97   A 0.28 0.27 -76.9 0 0 977.58 523.57   L 643.02 523.57   A 1.13 1.11 -78.5 0 0 641.99 524.26   Q 637.93 534.00 630.91 546.60   C 626.06 555.32 624.03 561.39 619.32 570.32   Q 615.49 577.57 613.26 582.13   Q 601.21 606.83 595.21 618.36   C 592.11 624.33 589.92 629.59 586.52 635.91   Q 584.99 638.77 579.99 649.05   Q 561.49 687.18 550.38 709.63   Q 544.26 721.99 542.66 725.31   Q 537.12 736.85 534.88 740.92   C 530.80 748.30 528.28 755.11 524.26 762.93   Q 516.12 778.76 512.53 786.73   A 0.52 0.52 0.0 0 0 513.01 787.46   L 624.15 787.46   A 0.66 0.65 13.0 0 0 624.74 787.10   L 677.32 681.11   A 1.09 1.09 0.0 0 1 678.30 680.50   L 875.06 680.50   A 1.64 1.63 -76.8 0 0 876.52 679.59   L 906.39 619.39   A 0.48 0.47 -69.9 0 0 906.08 618.71   Q 905.94 618.68 905.75 618.68   Q 840.80 618.52 714.52 618.65   Q 707.72 618.66 701.47 618.50   C 688.41 618.17 669.29 618.94 662.36 618.90   Z   M 1016.79 722.58   L 1068.13 619.11   A 0.36 0.35 13.0 0 0 1067.81 618.60   L 958.17 618.60   A 0.98 0.97 -76.6 0 0 957.30 619.14   L 874.21 786.63   A 0.57 0.57 0.0 0 0 874.72 787.45   Q 1133.58 787.40 1139.03 787.46   Q 1160.13 787.69 1170.35 786.02   C 1204.68 780.42 1238.47 761.29 1259.68 733.46   Q 1265.22 726.19 1268.49 719.73   Q 1297.15 663.10 1328.94 600.70   Q 1338.78 581.40 1336.19 562.24   C 1334.92 552.85 1331.47 546.37 1324.89 539.39   C 1313.38 527.18 1294.50 523.48 1278.25 523.50   Q 1154.07 523.59 1016.02 523.50   Q 1012.03 523.50 1007.78 523.71   A 1.51 1.50 11.6 0 0 1006.49 524.56   L 975.41 587.20   A 0.45 0.45 0.0 0 0 975.81 587.85   Q 1032.86 587.93 1201.77 587.85   C 1208.49 587.85 1219.57 588.39 1218.60 597.97   Q 1218.37 600.26 1216.75 603.48   Q 1205.63 625.60 1165.84 705.00   Q 1162.52 711.62 1159.97 714.14   C 1154.04 720.02 1144.25 723.27 1136.49 723.27   Q 1065.53 723.33 1017.22 723.27   A 0.48 0.48 0.0 0 1 1016.79 722.58   Z   M 597.07 886.10   Q 597.28 886.10 598.78 875.26   C 599.96 866.72 603.35 860.63 612.15 858.87   Q 620.35 857.23 626.48 856.63   A 0.32 0.32 0.0 0 0 626.49 856.00   C 616.20 854.58 604.17 854.66 600.15 842.94   C 598.78 838.94 597.24 827.13 597.11 827.13   C 596.97 827.13 595.42 838.94 594.04 842.93   C 590.01 854.65 577.98 854.56 567.69 855.96   A 0.32 0.32 0.0 0 0 567.70 856.59   Q 573.83 857.20 582.03 858.85   C 590.82 860.62 594.21 866.72 595.38 875.26   Q 596.87 886.10 597.07 886.10   Z   M 278.54 841.37   Q 276.01 841.37 275.55 841.43   A 1.04 1.02 10.4 0 0 274.78 841.95   L 258.32 871.75   A 0.56 0.55 14.5 0 0 258.81 872.57   L 264.58 872.57   A 1.52 1.51 14.3 0 0 265.91 871.79   L 268.84 866.49   A 1.18 1.17 12.3 0 1 269.80 865.88   Q 270.96 865.80 278.55 865.80   Q 286.13 865.80 287.29 865.88   A 1.18 1.17 -12.4 0 1 288.26 866.48   L 291.19 871.78   A 1.52 1.51 -14.3 0 0 292.52 872.56   L 298.29 872.56   A 0.56 0.55 -14.5 0 0 298.78 871.74   L 282.30 841.95   A 1.04 1.02 -10.5 0 0 281.53 841.43   Q 281.07 841.37 278.54 841.37   Z   M 349.96 872.55   Q 356.69 872.56 359.91 872.54   C 363.80 872.51 367.22 871.54 367.33 867.49   Q 367.51 861.04 367.48 842.12   A 0.69 0.69 0.0 0 0 366.79 841.43   L 360.87 841.43   A 0.65 0.65 0.0 0 0 360.22 842.08   L 360.22 866.42   A 0.47 0.47 0.0 0 1 359.75 866.89   Q 354.13 866.88 349.96 866.88   Q 345.80 866.88 340.18 866.88   A 0.47 0.47 0.0 0 1 339.71 866.41   L 339.73 842.07   A 0.65 0.65 0.0 0 0 339.08 841.42   L 333.16 841.42   A 0.69 0.69 0.0 0 0 332.47 842.11   Q 332.42 861.03 332.60 867.48   C 332.71 871.53 336.13 872.50 340.01 872.53   Q 343.24 872.55 349.96 872.55   Z   M 418.34 872.59   Q 420.91 872.59 421.32 872.59   A 0.60 0.60 0.0 0 0 421.91 871.99   L 421.91 847.91   A 0.87 0.87 0.0 0 1 422.78 847.04   L 435.56 847.04   A 0.75 0.74 0.0 0 0 436.31 846.30   L 436.31 842.20   A 0.77 0.77 0.0 0 0 435.54 841.43   Q 427.25 841.49 418.34 841.40   Q 409.44 841.49 401.15 841.43   A 0.77 0.77 0.0 0 0 400.38 842.20   L 400.38 846.30   A 0.75 0.74 0.0 0 0 401.13 847.04   L 413.91 847.04   A 0.87 0.87 0.0 0 1 414.78 847.91   L 414.78 871.99   A 0.60 0.60 0.0 0 0 415.37 872.59   Q 415.78 872.59 418.34 872.59   Z   M 506.8230 847.2674   A 5.87 5.87 0.0 0 0 500.9428 841.4076   L 475.2828 841.4524   A 5.87 5.87 0.0 0 0 469.4231 847.3327   L 469.4570 866.7326   A 5.87 5.87 0.0 0 0 475.3372 872.5924   L 500.9972 872.5476   A 5.87 5.87 0.0 0 0 506.8569 866.6673   L 506.8230 847.2674   Z   M 682.19 841.99   L 682.19 871.95   A 0.65 0.65 0.0 0 0 682.84 872.60   L 706.37 872.60   A 13.34 13.06 0.0 0 0 719.71 859.54   L 719.71 854.40   A 13.34 13.06 -0.0 0 0 706.37 841.34   L 682.84 841.34   A 0.65 0.65 0.0 0 0 682.19 841.99   Z   M 789.09 841.97   A 0.57 0.57 0.0 0 0 788.52 841.40   L 758.00 841.40   A 0.57 0.57 0.0 0 0 757.43 841.97   L 757.43 872.01   A 0.57 0.57 0.0 0 0 758.00 872.58   L 788.50 872.58   A 0.57 0.57 0.0 0 0 789.07 872.01   L 789.07 867.45   A 0.57 0.57 0.0 0 0 788.50 866.88   L 765.09 866.88   A 0.57 0.57 0.0 0 1 764.52 866.31   L 764.52 859.88   A 0.57 0.57 0.0 0 1 765.09 859.31   L 778.81 859.31   A 0.57 0.57 0.0 0 0 779.38 858.74   L 779.38 854.67   A 0.57 0.57 0.0 0 0 778.81 854.10   L 765.19 854.10   A 0.57 0.57 0.0 0 1 764.62 853.53   L 764.62 847.63   A 0.57 0.57 0.0 0 1 765.19 847.06   L 788.52 847.06   A 0.57 0.57 0.0 0 0 789.09 846.49   L 789.09 841.97   Z   M 840.06 872.64   Q 842.64 872.63 843.04 872.63   A 0.61 0.60 -0.6 0 0 843.64 872.03   L 843.61 847.91   A 0.87 0.87 0.0 0 1 844.48 847.03   L 857.28 847.02   A 0.75 0.74 -0.1 0 0 858.03 846.28   L 858.02 842.17   A 0.77 0.77 0.0 0 0 857.25 841.40   Q 848.95 841.47 840.03 841.39   Q 831.11 841.49 822.81 841.44   A 0.77 0.77 0.0 0 0 822.03 842.21   L 822.04 846.32   A 0.75 0.74 -0.1 0 0 822.79 847.06   L 835.59 847.04   A 0.87 0.87 0.0 0 1 836.46 847.91   L 836.49 872.03   A 0.61 0.60 0.5 0 0 837.09 872.63   Q 837.49 872.64 840.06 872.64   Z   M 903.53 841.37   Q 901.00 841.37 900.54 841.43   A 1.04 1.02 10.4 0 0 899.77 841.95   L 883.28 871.76   A 0.56 0.55 14.5 0 0 883.77 872.58   L 889.55 872.58   A 1.53 1.51 14.3 0 0 890.88 871.80   L 893.81 866.50   A 1.19 1.17 12.4 0 1 894.78 865.89   Q 895.93 865.82 903.52 865.82   Q 911.12 865.82 912.27 865.89   A 1.19 1.17 -12.3 0 1 913.24 866.50   L 916.17 871.81   A 1.53 1.51 -14.3 0 0 917.50 872.59   L 923.27 872.59   A 0.56 0.55 -14.5 0 0 923.76 871.77   L 907.29 841.95   A 1.04 1.02 -10.4 0 0 906.52 841.43   Q 906.06 841.37 903.53 841.37   Z   M 1004.75 841.44   A 0.56 0.56 0.0 0 0 1004.19 842.00   L 1004.19 872.03   A 0.56 0.56 0.0 0 0 1004.75 872.59   L 1034.12 872.59   A 0.56 0.56 0.0 0 0 1034.68 872.03   L 1034.68 867.42   A 0.56 0.56 0.0 0 0 1034.12 866.86   L 1011.98 866.86   A 0.56 0.56 0.0 0 1 1011.42 866.30   L 1011.42 842.00   A 0.56 0.56 0.0 0 0 1010.86 841.44   L 1004.75 841.44   Z   M 1135.23 854.52   Q 1122.96 843.01 1121.79 842.20   A 2.86 2.84 -23.8 0 0 1120.16 841.57   L 1115.49 841.31   A 0.61 0.61 0.0 0 0 1114.85 841.92   L 1114.85 872.03   A 0.67 0.66 90.0 0 0 1115.51 872.70   L 1121.08 872.70   A 0.67 0.66 90.0 0 0 1121.74 872.03   L 1121.74 852.07   A 0.36 0.36 0.0 0 1 1122.33 851.80   Q 1127.75 856.51 1131.00 859.56   Q 1143.27 871.06 1144.43 871.88   A 2.86 2.84 -23.8 0 0 1146.07 872.51   L 1150.74 872.77   A 0.61 0.61 0.0 0 0 1151.38 872.16   L 1151.38 842.05   A 0.67 0.66 90.0 0 0 1150.72 841.38   L 1145.15 841.38   A 0.67 0.66 90.0 0 0 1144.49 842.05   L 1144.49 862.01   A 0.36 0.36 0.0 0 1 1143.90 862.27   Q 1138.48 857.56 1135.23 854.52   Z   M 965.40 841.96   A 0.53 0.53 0.0 0 0 964.87 841.43   L 958.65 841.43   A 0.53 0.53 0.0 0 0 958.12 841.96   L 958.12 872.02   A 0.53 0.53 0.0 0 0 958.65 872.55   L 964.87 872.55   A 0.53 0.53 0.0 0 0 965.40 872.02   L 965.40 841.96   Z   M 1075.72 842.03   A 0.60 0.60 0.0 0 0 1075.12 841.43   L 1069.04 841.43   A 0.60 0.60 0.0 0 0 1068.44 842.03   L 1068.44 871.97   A 0.60 0.60 0.0 0 0 1069.04 872.57   L 1075.12 872.57   A 0.60 0.60 0.0 0 0 1075.72 871.97   L 1075.72 842.03   Z   M 1219.03 847.69   L 1219.03 851.40   A 0.05 0.04 85.3 0 0 1219.08 851.45   L 1225.79 850.38   A 0.35 0.35 0.0 0 0 1226.09 850.07   C 1227.10 842.07 1222.75 841.35 1215.60 841.38   Q 1197.42 841.46 1196.74 841.45   Q 1189.79 841.44 1189.95 848.52   Q 1190.15 857.56 1190.07 863.47   C 1190.00 869.16 1190.51 872.62 1197.00 872.58   Q 1198.92 872.57 1218.25 872.54   C 1222.75 872.53 1225.85 871.89 1226.13 867.14   Q 1226.32 864.02 1226.13 855.16   A 0.39 0.39 0.0 0 0 1225.74 854.78   L 1209.31 854.78   A 0.88 0.87 90.0 0 0 1208.44 855.66   L 1208.44 859.30   A 0.84 0.84 0.0 0 0 1209.28 860.14   L 1218.32 860.14   A 0.73 0.73 0.0 0 1 1219.05 860.87   L 1219.05 866.32   A 0.61 0.61 0.0 0 1 1218.44 866.93   L 1197.88 866.93   A 0.50 0.49 -0.0 0 1 1197.38 866.44   L 1197.38 847.58   A 0.48 0.48 0.0 0 1 1197.86 847.10   L 1218.44 847.10   A 0.59 0.59 0.0 0 1 1219.03 847.69   Z"/>
<path xmlns="http://www.w3.org/2000/svg" fill="#161616" d="M 612.79 523.69   A 0.20 0.20 0.0 0 1 612.95 523.98   L 581.63 587.11   A 1.32 1.31 13.0 0 1 580.45 587.84   Q 384.65 587.88 372.93 587.87   C 361.98 587.86 351.66 590.00 343.64 597.88   Q 341.52 599.97 338.30 606.32   Q 294.23 693.49 285.85 710.11   C 280.66 720.39 289.38 723.24 297.41 723.25   Q 412.58 723.39 488.75 723.25   Q 510.28 723.21 516.27 723.28   A 0.47 0.46 -76.6 0 1 516.68 723.95   L 485.43 786.92   A 0.89 0.88 12.7 0 1 484.63 787.42   Q 406.10 787.45 216.75 787.41   C 203.79 787.41 189.93 783.88 179.05 775.74   C 162.71 763.50 161.67 742.37 167.41 724.24   Q 169.03 719.10 174.40 708.67   Q 190.17 677.99 230.42 597.88   Q 237.74 583.31 241.53 577.85   C 249.78 565.95 260.78 556.05 272.90 548.18   Q 301.17 529.82 334.38 524.90   Q 345.62 523.23 365.69 523.50   Q 369.56 523.56 586.13 523.52   C 595.11 523.52 604.18 523.18 612.79 523.69   Z"/>
<path xmlns="http://www.w3.org/2000/svg" fill="#bb8f52" d="M 662.36 618.90   C 669.29 618.94 688.41 618.17 701.47 618.50   Q 707.72 618.66 714.52 618.65   Q 840.80 618.52 905.75 618.68   Q 905.94 618.68 906.08 618.71   A 0.48 0.47 -69.9 0 1 906.39 619.39   L 876.52 679.59   A 1.64 1.63 -76.8 0 1 875.06 680.50   L 678.30 680.50   A 1.09 1.09 0.0 0 0 677.32 681.11   L 624.74 787.10   A 0.66 0.65 13.0 0 1 624.15 787.46   L 513.01 787.46   A 0.52 0.52 0.0 0 1 512.53 786.73   Q 516.12 778.76 524.26 762.93   C 528.28 755.11 530.80 748.30 534.88 740.92   Q 537.12 736.85 542.66 725.31   Q 544.26 721.99 550.38 709.63   Q 561.49 687.18 579.99 649.05   Q 584.99 638.77 586.52 635.91   C 589.92 629.59 592.11 624.33 595.21 618.36   Q 601.21 606.83 613.26 582.13   Q 615.49 577.57 619.32 570.32   C 624.03 561.39 626.06 555.32 630.91 546.60   Q 637.93 534.00 641.99 524.26   A 1.13 1.11 -78.5 0 1 643.02 523.57   L 977.58 523.57   A 0.28 0.27 -76.9 0 1 977.82 523.97   L 946.57 586.96   A 1.57 1.55 13.2 0 1 945.17 587.82   L 724.58 587.82   A 1.95 1.93 -76.5 0 0 722.85 588.89   L 713.50 607.75   A 2.69 2.69 0.0 0 1 711.57 609.20   L 662.30 618.21   A 0.35 0.35 0.0 0 0 662.36 618.90   Z"/>
<path xmlns="http://www.w3.org/2000/svg" fill="#161616" d="M 1016.79 722.58   A 0.48 0.48 0.0 0 0 1017.22 723.27   Q 1065.53 723.33 1136.49 723.27   C 1144.25 723.27 1154.04 720.02 1159.97 714.14   Q 1162.52 711.62 1165.84 705.00   Q 1205.63 625.60 1216.75 603.48   Q 1218.37 600.26 1218.60 597.97   C 1219.57 588.39 1208.49 587.85 1201.77 587.85   Q 1032.86 587.93 975.81 587.85   A 0.45 0.45 0.0 0 1 975.41 587.20   L 1006.49 524.56   A 1.51 1.50 11.6 0 1 1007.78 523.71   Q 1012.03 523.50 1016.02 523.50   Q 1154.07 523.59 1278.25 523.50   C 1294.50 523.48 1313.38 527.18 1324.89 539.39   C 1331.47 546.37 1334.92 552.85 1336.19 562.24   Q 1338.78 581.40 1328.94 600.70   Q 1297.15 663.10 1268.49 719.73   Q 1265.22 726.19 1259.68 733.46   C 1238.47 761.29 1204.68 780.42 1170.35 786.02   Q 1160.13 787.69 1139.03 787.46   Q 1133.58 787.40 874.72 787.45   A 0.57 0.57 0.0 0 1 874.21 786.63   L 957.30 619.14   A 0.98 0.97 -76.6 0 1 958.17 618.60   L 1067.81 618.60   A 0.36 0.35 13.0 0 1 1068.13 619.11   L 1016.79 722.58   Z"/>
<path xmlns="http://www.w3.org/2000/svg" fill="#161616" d="M 597.11 827.13   C 597.24 827.13 598.78 838.94 600.15 842.94   C 604.17 854.66 616.20 854.58 626.49 856.00   A 0.32 0.32 0.0 0 1 626.48 856.63   Q 620.35 857.23 612.15 858.87   C 603.35 860.63 599.96 866.72 598.78 875.26   Q 597.28 886.10 597.07 886.10   Q 596.87 886.10 595.38 875.26   C 594.21 866.72 590.82 860.62 582.03 858.85   Q 573.83 857.20 567.70 856.59   A 0.32 0.32 0.0 0 1 567.69 855.96   C 577.98 854.56 590.01 854.65 594.04 842.93   C 595.42 838.94 596.97 827.13 597.11 827.13   Z"/>
<path xmlns="http://www.w3.org/2000/svg" fill="#161616" d="M 278.55 865.80   Q 270.96 865.80 269.80 865.88   A 1.18 1.17 12.3 0 0 268.84 866.49   L 265.91 871.79   A 1.52 1.51 14.3 0 1 264.58 872.57   L 258.81 872.57   A 0.56 0.55 14.5 0 1 258.32 871.75   L 274.78 841.95   A 1.04 1.02 10.4 0 1 275.55 841.43   Q 276.01 841.37 278.54 841.37   Q 281.07 841.37 281.53 841.43   A 1.04 1.02 -10.5 0 1 282.30 841.95   L 298.78 871.74   A 0.56 0.55 -14.5 0 1 298.29 872.56   L 292.52 872.56   A 1.52 1.51 -14.3 0 1 291.19 871.78   L 288.26 866.48   A 1.18 1.17 -12.4 0 0 287.29 865.88   Q 286.13 865.80 278.55 865.80   Z   M 272.07 859.73   A 0.38 0.38 0.0 0 0 272.41 860.29   L 284.31 860.35   A 0.38 0.38 0.0 0 0 284.65 859.79   L 278.76 848.29   A 0.38 0.38 0.0 0 0 278.08 848.29   L 272.07 859.73   Z"/>
<path xmlns="http://www.w3.org/2000/svg" fill="#161616" d="M 349.96 866.88   Q 354.13 866.88 359.75 866.89   A 0.47 0.47 0.0 0 0 360.22 866.42   L 360.22 842.08   A 0.65 0.65 0.0 0 1 360.87 841.43   L 366.79 841.43   A 0.69 0.69 0.0 0 1 367.48 842.12   Q 367.51 861.04 367.33 867.49   C 367.22 871.54 363.80 872.51 359.91 872.54   Q 356.69 872.56 349.96 872.55   Q 343.24 872.55 340.01 872.53   C 336.13 872.50 332.71 871.53 332.60 867.48   Q 332.42 861.03 332.47 842.11   A 0.69 0.69 0.0 0 1 333.16 841.42   L 339.08 841.42   A 0.65 0.65 0.0 0 1 339.73 842.07   L 339.71 866.41   A 0.47 0.47 0.0 0 0 340.18 866.88   Q 345.80 866.88 349.96 866.88   Z"/>
<path xmlns="http://www.w3.org/2000/svg" fill="#161616" d="M 418.34 841.40   Q 427.25 841.49 435.54 841.43   A 0.77 0.77 0.0 0 1 436.31 842.20   L 436.31 846.30   A 0.75 0.74 0.0 0 1 435.56 847.04   L 422.78 847.04   A 0.87 0.87 0.0 0 0 421.91 847.91   L 421.91 871.99   A 0.60 0.60 0.0 0 1 421.32 872.59   Q 420.91 872.59 418.34 872.59   Q 415.78 872.59 415.37 872.59   A 0.60 0.60 0.0 0 1 414.78 871.99   L 414.78 847.91   A 0.87 0.87 0.0 0 0 413.91 847.04   L 401.13 847.04   A 0.75 0.74 0.0 0 1 400.38 846.30   L 400.38 842.20   A 0.77 0.77 0.0 0 1 401.15 841.43   Q 409.44 841.49 418.34 841.40   Z"/>
<path xmlns="http://www.w3.org/2000/svg" fill="#161616" d="M 506.8569 866.6673   A 5.87 5.87 0.0 0 1 500.9972 872.5476   L 475.3372 872.5924   A 5.87 5.87 0.0 0 1 469.4570 866.7326   L 469.4231 847.3327   A 5.87 5.87 0.0 0 1 475.2828 841.4524   L 500.9428 841.4076   A 5.87 5.87 0.0 0 1 506.8230 847.2674   L 506.8569 866.6673   Z   M 499.4282 847.8392   A 0.68 0.68 0.0 0 0 498.7517 847.1557   L 477.5320 847.0446   A 0.68 0.68 0.0 0 0 476.8485 847.7210   L 476.7518 866.1808   A 0.68 0.68 0.0 0 0 477.4283 866.8643   L 498.6480 866.9754   A 0.68 0.68 0.0 0 0 499.3315 866.2990   L 499.4282 847.8392   Z"/>
<path xmlns="http://www.w3.org/2000/svg" fill="#161616" d="M 682.19 841.99   A 0.65 0.65 0.0 0 1 682.84 841.34   L 706.37 841.34   A 13.34 13.06 0.0 0 1 719.71 854.40   L 719.71 859.54   A 13.34 13.06 0.0 0 1 706.37 872.60   L 682.84 872.60   A 0.65 0.65 0.0 0 1 682.19 871.95   L 682.19 841.99   Z   M 689.63 847.40   L 689.69 866.62   A 0.29 0.29 0.0 0 0 689.98 866.91   L 704.31 866.86   A 8.28 8.04 -0.2 0 0 712.57 858.79   L 712.55 855.07   A 8.28 8.04 -0.2 0 0 704.25 847.06   L 689.92 847.11   A 0.29 0.29 0.0 0 0 689.63 847.40   Z"/>
<path xmlns="http://www.w3.org/2000/svg" fill="#161616" d="M 789.09 841.97   L 789.09 846.49   A 0.57 0.57 0.0 0 1 788.52 847.06   L 765.19 847.06   A 0.57 0.57 0.0 0 0 764.62 847.63   L 764.62 853.53   A 0.57 0.57 0.0 0 0 765.19 854.10   L 778.81 854.10   A 0.57 0.57 0.0 0 1 779.38 854.67   L 779.38 858.74   A 0.57 0.57 0.0 0 1 778.81 859.31   L 765.09 859.31   A 0.57 0.57 0.0 0 0 764.52 859.88   L 764.52 866.31   A 0.57 0.57 0.0 0 0 765.09 866.88   L 788.50 866.88   A 0.57 0.57 0.0 0 1 789.07 867.45   L 789.07 872.01   A 0.57 0.57 0.0 0 1 788.50 872.58   L 758.00 872.58   A 0.57 0.57 0.0 0 1 757.43 872.01   L 757.43 841.97   A 0.57 0.57 0.0 0 1 758.00 841.40   L 788.52 841.40   A 0.57 0.57 0.0 0 1 789.09 841.97   Z"/>
<path xmlns="http://www.w3.org/2000/svg" fill="#161616" d="M 840.06 872.64   Q 837.49 872.64 837.09 872.63   A 0.61 0.60 0.5 0 1 836.49 872.03   L 836.46 847.91   A 0.87 0.87 0.0 0 0 835.59 847.04   L 822.79 847.06   A 0.75 0.74 -0.1 0 1 822.04 846.32   L 822.03 842.21   A 0.77 0.77 0.0 0 1 822.81 841.44   Q 831.11 841.49 840.03 841.39   Q 848.95 841.47 857.25 841.40   A 0.77 0.77 0.0 0 1 858.02 842.17   L 858.03 846.28   A 0.75 0.74 -0.1 0 1 857.28 847.02   L 844.48 847.03   A 0.87 0.87 0.0 0 0 843.61 847.91   L 843.64 872.03   A 0.61 0.60 -0.6 0 1 843.04 872.63   Q 842.64 872.63 840.06 872.64   Z"/>
<path xmlns="http://www.w3.org/2000/svg" fill="#161616" d="M 903.53 841.37   Q 906.06 841.37 906.52 841.43   A 1.04 1.02 -10.4 0 1 907.29 841.95   L 923.76 871.77   A 0.56 0.55 -14.5 0 1 923.27 872.59   L 917.50 872.59   A 1.53 1.51 -14.3 0 1 916.17 871.81   L 913.24 866.50   A 1.19 1.17 -12.3 0 0 912.27 865.89   Q 911.12 865.82 903.52 865.82   Q 895.93 865.82 894.78 865.89   A 1.19 1.17 12.4 0 0 893.81 866.50   L 890.88 871.80   A 1.53 1.51 14.3 0 1 889.55 872.58   L 883.77 872.58   A 0.56 0.55 14.5 0 1 883.28 871.76   L 899.77 841.95   A 1.04 1.02 10.4 0 1 900.54 841.43   Q 901.00 841.37 903.53 841.37   Z   M 897.11 859.60   A 0.48 0.48 0.0 0 0 897.53 860.30   L 908.95 860.30   A 0.48 0.48 0.0 0 0 909.37 859.60   L 903.67 848.44   A 0.48 0.48 0.0 0 0 902.81 848.44   L 897.11 859.60   Z"/>
<path xmlns="http://www.w3.org/2000/svg" fill="#161616" d="M 1004.75 841.44   L 1010.86 841.44   A 0.56 0.56 0.0 0 1 1011.42 842.00   L 1011.42 866.30   A 0.56 0.56 0.0 0 0 1011.98 866.86   L 1034.12 866.86   A 0.56 0.56 0.0 0 1 1034.68 867.42   L 1034.68 872.03   A 0.56 0.56 0.0 0 1 1034.12 872.59   L 1004.75 872.59   A 0.56 0.56 0.0 0 1 1004.19 872.03   L 1004.19 842.00   A 0.56 0.56 0.0 0 1 1004.75 841.44   Z"/>
<path xmlns="http://www.w3.org/2000/svg" fill="#161616" d="M 1135.23 854.52   Q 1138.48 857.56 1143.90 862.27   A 0.36 0.36 0.0 0 0 1144.49 862.01   L 1144.49 842.05   A 0.67 0.66 90.0 0 1 1145.15 841.38   L 1150.72 841.38   A 0.67 0.66 -90.0 0 1 1151.38 842.05   L 1151.38 872.16   A 0.61 0.61 0.0 0 1 1150.74 872.77   L 1146.07 872.51   A 2.86 2.84 -23.8 0 1 1144.43 871.88   Q 1143.27 871.06 1131.00 859.56   Q 1127.75 856.51 1122.33 851.80   A 0.36 0.36 0.0 0 0 1121.74 852.07   L 1121.74 872.03   A 0.67 0.66 90.0 0 1 1121.08 872.70   L 1115.51 872.70   A 0.67 0.66 -90.0 0 1 1114.85 872.03   L 1114.85 841.92   A 0.61 0.61 0.0 0 1 1115.49 841.31   L 1120.16 841.57   A 2.86 2.84 -23.8 0 1 1121.79 842.20   Q 1122.96 843.01 1135.23 854.52   Z"/>
<rect xmlns="http://www.w3.org/2000/svg" fill="#161616" x="958.12" y="841.43" width="7.28" height="31.12" rx="0.53"/>
<rect xmlns="http://www.w3.org/2000/svg" fill="#161616" x="1068.44" y="841.43" width="7.28" height="31.14" rx="0.60"/>
<path xmlns="http://www.w3.org/2000/svg" fill="#161616" d="M 1218.44 847.10   L 1197.86 847.10   A 0.48 0.48 0.0 0 0 1197.38 847.58   L 1197.38 866.44   A 0.50 0.49 -0.0 0 0 1197.88 866.93   L 1218.44 866.93   A 0.61 0.61 0.0 0 0 1219.05 866.32   L 1219.05 860.87   A 0.73 0.73 0.0 0 0 1218.32 860.14   L 1209.28 860.14   A 0.84 0.84 0.0 0 1 1208.44 859.30   L 1208.44 855.66   A 0.88 0.87 -90.0 0 1 1209.31 854.78   L 1225.74 854.78   A 0.39 0.39 0.0 0 1 1226.13 855.16   Q 1226.32 864.02 1226.13 867.14   C 1225.85 871.89 1222.75 872.53 1218.25 872.54   Q 1198.92 872.57 1197.00 872.58   C 1190.51 872.62 1190.00 869.16 1190.07 863.47   Q 1190.15 857.56 1189.95 848.52   Q 1189.79 841.44 1196.74 841.45   Q 1197.42 841.46 1215.60 841.38   C 1222.75 841.35 1227.10 842.07 1226.09 850.07   A 0.35 0.35 0.0 0 1 1225.79 850.38   L 1219.08 851.45   A 0.05 0.04 85.3 0 1 1219.03 851.40   L 1219.03 847.69   A 0.59 0.59 0.0 0 0 1218.44 847.10   Z"/>
<rect xmlns="http://www.w3.org/2000/svg" fill="#ffffff" x="-11.29" y="-9.91" transform="translate(488.09,857.01) rotate(0.3)" width="22.58" height="19.82" rx="0.68"/>
<path xmlns="http://www.w3.org/2000/svg" fill="#ffffff" d="M 689.63 847.40   A 0.29 0.29 0.0 0 1 689.92 847.11   L 704.25 847.06   A 8.28 8.04 -0.2 0 1 712.55 855.07   L 712.57 858.79   A 8.28 8.04 -0.2 0 1 704.31 866.86   L 689.98 866.91   A 0.29 0.29 0.0 0 1 689.69 866.62   L 689.63 847.40   Z"/>
<path xmlns="http://www.w3.org/2000/svg" fill="#ffffff" d="M 272.07 859.73   L 278.08 848.29   A 0.38 0.38 0.0 0 1 278.76 848.29   L 284.65 859.79   A 0.38 0.38 0.0 0 1 284.31 860.35   L 272.41 860.29   A 0.38 0.38 0.0 0 1 272.07 859.73   Z"/>
<path xmlns="http://www.w3.org/2000/svg" fill="#ffffff" d="M 897.11 859.60   L 902.81 848.44   A 0.48 0.48 0.0 0 1 903.67 848.44   L 909.37 859.60   A 0.48 0.48 0.0 0 1 908.95 860.30   L 897.53 860.30   A 0.48 0.48 0.0 0 1 897.11 859.60   Z"/>
</g></g></g></g></svg>