<svg xmlns="http://www.w3.org/2000/svg" direction="ltr" width="2048" height="2048" viewBox="12640 11504.739468397205 2048 2048" stroke-linecap="round" stroke-linejoin="round" data-color-mode="light" class="tl-container tl-theme__force-sRGB tl-theme__light" style="background-color: transparent;"><defs/><g transform="matrix(1, 0, 0, 1, 12640, 11504.7395)" opacity="1"><g data-lovart-layer-name="SVG 4"><g transform="scale(1.4143646408839778, 1.4143646408839778)"><g>
<g xmlns="http://www.w3.org/2000/svg" stroke-width="2.00" fill="none" stroke-linecap="butt">
<path stroke="#838383" d="M 294.19 576.55   Q 293.43 576.40 293.00 576.39   Q 289.07 576.32 183.51 576.33   Q 181.08 576.33 179.46 574.81   C 177.74 573.20 178.73 570.55 179.71 568.72   Q 184.88 559.07 193.26 542.81   C 197.18 535.20 200.86 529.20 203.58 523.66   C 206.37 517.96 211.06 516.00 217.64 516.12   Q 221.70 516.20 323.99 516.15   A 1.07 1.07 0.0 0 0 324.94 515.57   L 340.84 485.20   A 0.60 0.60 0.0 0 0 340.34 484.32   Q 335.83 484.08 334.79 484.09   Q 306.82 484.36 208.75 484.20   C 191.98 484.17 175.61 491.81 164.66 504.29   Q 161.11 508.34 157.74 515.33   C 154.09 522.93 149.61 530.34 145.46 539.01   C 142.51 545.17 137.81 553.29 133.80 561.33   Q 132.08 564.79 127.94 572.63   C 124.46 579.24 122.07 585.82 123.81 591.95   C 126.12 600.14 132.56 604.63 140.55 605.88   Q 142.77 606.22 150.98 606.23   Q 205.85 606.30 269.25 606.23   Q 276.22 606.22 278.35 605.97   A 2.12 2.12 0.0 0 0 279.99 604.84   L 294.49 577.16   A 0.43 0.42 19.2 0 0 294.19 576.55"/>
<path stroke="#838383" d="M 923.07 484.24   A 0.54 0.54 0.0 0 0 922.59 484.53   L 906.42 515.39   A 0.54 0.54 0.0 0 0 906.90 516.18   L 967.61 516.18   A 0.54 0.54 0.0 0 1 968.09 516.97   L 921.76 605.44   A 0.54 0.54 0.0 0 0 922.24 606.23   L 967.91 606.23   A 0.54 0.54 0.0 0 0 968.39 605.94   L 1015.21 516.53   A 0.54 0.54 0.0 0 1 1015.69 516.24   L 1068.83 516.24   A 0.54 0.54 0.0 0 0 1069.31 515.95   L 1085.50 485.03   A 0.54 0.54 0.0 0 0 1085.02 484.24   L 923.07 484.24"/>
<path stroke="#838383" d="M 485.76 576.70   Q 491.92 565.72 495.67 558.25   Q 498.80 552.00 500.22 549.57   C 504.49 542.28 507.06 536.03 511.61 527.90   Q 515.45 521.03 522.85 505.87   C 528.57 494.15 520.32 484.20 508.00 484.22   Q 451.97 484.31 380.45 484.25   C 371.90 484.24 366.42 485.31 359.42 488.92   C 352.23 492.63 345.28 497.82 341.83 504.83   C 337.34 513.94 330.75 525.11 325.72 535.66   C 322.32 542.79 319.12 547.78 316.06 554.50   Q 314.65 557.61 311.60 563.29   Q 304.36 576.80 303.28 579.52   C 298.90 590.63 302.18 601.40 314.12 605.12   Q 317.09 606.04 323.51 606.14   C 344.56 606.44 380.17 606.23 439.00 606.27   C 443.59 606.28 450.73 606.16 455.63 605.09   Q 472.23 601.47 480.59 586.14   Q 485.39 577.34 485.76 576.70"/>
<path stroke="#838383" d="M 616.38 606.21   L 663.71 606.21   A 1.02 1.01 -76.8 0 0 664.62 605.64   C 668.05 598.55 671.13 593.65 674.72 586.12   Q 676.93 581.49 680.38 575.45   C 683.32 570.31 685.23 565.35 688.20 560.20   C 694.64 549.01 700.01 536.69 706.64 525.32   Q 708.26 522.55 716.60 505.87   C 722.28 494.49 715.24 484.39 702.75 484.26   Q 699.92 484.23 573.71 484.26   Q 565.01 484.26 560.43 485.51   Q 547.11 489.13 537.88 499.98   Q 534.61 503.81 530.37 512.44   Q 526.07 521.17 523.55 525.38   C 520.49 530.48 518.44 536.08 515.50 540.86   C 510.32 549.29 506.16 558.79 500.94 568.39   C 497.97 573.86 494.95 581.11 492.32 585.81   Q 488.12 593.31 481.68 605.40   A 0.55 0.55 0.0 0 0 482.16 606.21   L 529.53 606.21   A 1.32 1.30 -76.0 0 0 530.69 605.50   L 553.51 561.92   A 1.98 1.96 13.6 0 1 555.26 560.86   L 638.57 560.86   A 0.44 0.44 0.0 0 1 638.96 561.50   L 615.93 605.47   A 0.51 0.50 13.8 0 0 616.38 606.21"/>
<path stroke="#838383" d="M 908.43 484.45   Q 908.04 484.28 907.50 484.26   Q 906.84 484.23 767.25 484.18   Q 762.36 484.18 756.03 486.03   Q 742.06 490.11 732.91 500.72   Q 728.81 505.48 724.24 515.05   Q 721.27 521.25 715.39 531.48   C 709.87 541.07 709.68 552.59 720.96 557.32   Q 726.25 559.54 730.51 559.62   Q 744.74 559.91 823.02 559.73   C 825.13 559.72 829.15 559.60 829.99 561.52   C 830.98 563.80 828.11 567.95 826.50 570.99   C 824.89 574.02 823.12 575.87 819.83 575.89   C 784.96 576.19 755.31 576.18 735.25 576.03   Q 718.77 575.90 694.55 576.16   A 1.25 1.24 13.1 0 0 693.46 576.83   L 678.99 605.07   A 0.66 0.66 0.0 0 0 679.58 606.03   C 686.92 605.97 694.36 606.32 701.15 606.28   Q 723.22 606.15 825.76 606.23   Q 843.61 606.24 855.55 596.76   C 860.89 592.52 864.69 587.29 868.18 580.94   Q 876.51 565.77 884.23 550.74   C 886.03 547.24 887.29 541.08 885.17 537.52   C 881.91 532.02 872.87 530.34 867.02 530.34   Q 862.80 530.35 769.77 530.32   Q 767.53 530.32 766.27 529.55   A 1.64 1.64 0.0 0 1 765.66 527.41   L 769.44 519.87   A 1.90 1.73 -12.5 0 1 769.75 519.43   Q 772.87 516.14 776.76 516.15   Q 835.91 516.21 891.91 516.08   A 0.86 0.84 -76.0 0 0 892.66 515.62   L 908.66 485.08   A 0.45 0.45 0.0 0 0 908.43 484.45"/>
<path stroke="#838383" d="M 1032.92 606.19   L 1078.30 606.19   A 1.38 1.37 -75.8 0 0 1079.51 605.46   L 1102.35 561.84   A 1.64 1.63 -76.2 0 1 1103.80 560.96   L 1185.27 560.96   A 0.58 0.58 0.0 0 1 1185.78 561.81   L 1163.11 605.11   A 0.73 0.73 0.0 0 0 1163.76 606.18   L 1208.52 606.18   A 1.42 1.42 0.0 0 0 1209.77 605.43   Q 1227.08 572.54 1233.14 560.43   C 1235.99 554.73 1240.02 548.38 1242.56 542.61   Q 1244.97 537.13 1249.39 529.14   Q 1254.50 519.87 1261.10 506.60   C 1264.70 499.34 1264.42 490.40 1256.33 486.38   Q 1252.06 484.25 1248.24 484.26   Q 1144.89 484.33 1122.89 484.24   Q 1113.64 484.20 1109.72 485.47   C 1102.18 487.92 1094.89 492.34 1089.55 498.14   Q 1086.93 500.99 1083.91 507.14   C 1080.76 513.57 1076.95 519.79 1073.88 525.78   Q 1057.40 557.99 1032.58 605.62   A 0.39 0.39 0.0 0 0 1032.92 606.19"/>
<path stroke="#838383" d="M 1284.90 576.34   A 0.62 0.62 0.0 0 1 1284.36 575.43   L 1331.62 485.16   A 0.62 0.62 0.0 0 0 1331.08 484.25   L 1283.50 484.25   A 0.62 0.62 0.0 0 0 1282.95 484.59   L 1221.03 605.37   A 0.62 0.62 0.0 0 0 1221.58 606.27   L 1366.55 606.27   A 0.62 0.62 0.0 0 0 1367.10 605.94   L 1382.12 577.25   A 0.62 0.62 0.0 0 0 1381.58 576.34   L 1284.90 576.34"/>
<path stroke="#61492b" d="M 182.46 684.65   A 0.04 0.04 0.0 0 1 182.46 684.57   L 208.50 679.76   A 1.33 1.30 7.8 0 0 209.43 679.07   L 215.28 667.65   A 2.25 2.25 0.0 0 1 217.28 666.43   L 365.81 666.43   A 1.36 1.34 -77.8 0 0 367.04 665.63   C 369.79 659.36 372.61 653.30 376.81 646.10   Q 379.56 641.39 381.70 636.23   C 382.75 633.68 384.75 631.15 385.77 628.89   A 0.59 0.59 0.0 0 0 385.23 628.05   L 175.05 628.05   A 1.55 1.53 16.0 0 0 173.75 628.76   C 170.34 634.07 168.02 639.23 164.39 646.07   Q 160.68 653.07 158.19 658.44   C 154.70 665.96 150.85 672.10 147.66 679.15   Q 144.88 685.27 139.67 695.16   C 137.14 699.96 134.89 705.13 132.52 709.73   Q 124.36 725.56 114.75 745.23   C 112.51 749.81 109.62 754.48 107.97 758.65   C 105.67 764.46 101.59 770.78 99.18 776.59   A 0.48 0.47 11.4 0 0 99.62 777.25   L 158.45 777.25   A 1.34 1.34 0.0 0 0 159.65 776.51   L 187.97 721.28   A 1.26 1.25 -76.5 0 1 189.09 720.59   L 330.65 720.59   A 2.33 2.33 0.0 0 0 332.72 719.33   L 349.58 686.44   A 0.87 0.87 0.0 0 0 348.82 685.17   Q 338.82 684.97 337.50 684.97   Q 270.99 684.97 220.07 684.87   C 213.90 684.86 208.54 685.41 202.74 685.10   C 195.97 684.75 190.71 684.97 184.75 685.05   Q 184.13 685.06 182.46 684.65"/>
<path stroke="#61492b" d="M 326.12 777.24   Q 326.13 777.24 326.17 777.32   A 0.23 0.20 -14.9 0 0 326.35 777.41   L 384.18 777.19   A 1.42 1.41 10.0 0 0 385.49 776.28   L 387.13 771.90   A 1.05 1.03 -17.8 0 1 387.23 771.71   Q 391.07 765.18 394.12 758.59   C 399.01 748.03 403.79 739.18 409.01 727.93   C 410.78 724.10 413.32 720.04 415.25 715.45   Q 416.37 712.77 419.87 706.05   C 425.09 696.03 430.36 684.41 436.49 672.34   Q 445.60 654.41 446.07 653.30   Q 449.12 646.22 449.24 645.97   Q 449.41 645.65 457.91 629.59   A 1.00 1.00 0.0 0 0 457.02 628.12   L 400.23 628.12   A 1.51 1.51 0.0 0 0 398.90 628.91   C 397.60 631.25 395.97 633.80 395.18 635.78   Q 392.90 641.49 390.21 646.24   C 386.37 653.02 384.47 658.95 380.57 665.64   Q 377.41 671.07 375.62 675.08   C 372.01 683.18 368.82 688.41 365.56 695.94   Q 364.39 698.66 359.72 706.96   Q 356.38 712.88 353.19 720.49   C 351.09 725.49 348.32 730.70 346.08 734.61   Q 344.31 737.71 340.99 745.31   C 338.41 751.20 335.56 756.10 333.07 761.91   C 331.14 766.44 327.71 771.49 325.88 776.53   A 0.61 0.60 -63.7 0 0 326.12 777.24"/>
<path stroke="#61492b" d="M 698.50 629.10   A 0.48 0.47 12.3 0 0 698.08 628.46   Q 689.11 627.74 682.06 627.97   C 668.06 628.40 657.66 628.11 640.74 628.19   A 0.97 0.96 12.6 0 0 639.89 628.72   L 594.86 721.67   A 0.67 0.67 0.0 0 1 593.71 721.77   L 527.73 628.96   A 2.70 2.70 0.0 0 0 525.37 627.81   Q 515.50 628.30 511.14 628.15   C 498.69 627.74 490.98 628.19 477.75 628.02   Q 476.20 628.00 474.60 628.46   A 1.16 1.11 4.3 0 0 473.88 629.05   Q 469.52 637.83 465.75 644.56   C 463.69 648.24 462.22 652.49 460.54 655.79   Q 451.34 673.89 439.12 699.17   Q 435.14 707.42 434.55 708.52   C 430.29 716.46 427.41 723.62 423.20 731.93   C 419.12 739.97 417.03 745.89 413.12 752.67   C 410.36 757.46 408.53 763.00 405.53 768.73   Q 404.28 771.13 401.88 776.49   A 0.59 0.58 12.0 0 0 402.42 777.31   L 462.26 777.31   A 0.76 0.76 0.0 0 0 462.94 776.89   L 507.42 687.58   A 0.89 0.88 -50.1 0 1 508.93 687.44   L 574.61 776.69   A 1.54 1.51 71.4 0 0 575.83 777.31   L 626.47 777.31   A 1.53 1.52 -76.9 0 0 627.84 776.45   C 629.92 772.16 631.95 766.76 634.39 762.16   Q 640.79 750.08 645.41 739.34   Q 648.21 732.82 650.27 728.71   C 655.23 718.78 658.91 711.49 663.06 702.47   Q 668.75 690.10 670.57 686.55   Q 680.74 666.74 683.48 660.07   C 685.27 655.71 688.60 651.05 690.32 646.40   C 692.20 641.36 696.30 635.15 698.50 629.10"/>
<path stroke="#61492b" d="M 723.22 684.67   A 0.06 0.06 0.0 0 1 723.23 684.56   L 748.41 679.91   A 1.19 1.17 9.4 0 0 749.22 679.34   L 756.10 667.41   A 1.09 1.09 0.0 0 1 756.90 666.88   C 764.50 665.98 772.92 666.67 778.25 666.67   Q 879.09 666.68 879.26 666.61   Q 879.57 666.47 890.72 666.75   Q 899.71 666.97 907.64 666.27   A 1.43 1.42 11.1 0 0 908.78 665.51   L 927.71 629.35   A 0.97 0.96 -75.2 0 0 926.90 627.94   C 921.61 627.74 915.76 628.40 910.28 628.40   Q 806.05 628.31 714.52 628.42   A 1.36 1.34 -77.8 0 0 713.29 629.22   C 711.73 632.77 710.65 635.99 708.89 639.01   C 705.27 645.17 702.90 652.13 699.51 657.89   Q 696.97 662.22 693.63 670.12   Q 692.51 672.78 686.84 683.68   C 684.63 687.94 683.05 692.30 681.23 695.56   C 677.37 702.44 674.59 709.17 671.30 715.34   Q 668.92 719.80 666.70 725.02   C 664.45 730.29 661.06 736.35 658.55 742.31   Q 657.06 745.86 654.83 749.84   Q 652.35 754.29 649.36 761.14   Q 647.04 766.45 642.25 776.22   A 0.73 0.72 12.9 0 0 642.91 777.26   L 854.45 777.26   A 1.34 1.33 14.4 0 0 855.62 776.57   C 859.32 769.86 861.34 763.56 865.06 756.70   Q 866.70 753.68 872.83 741.74   A 0.62 0.62 0.0 0 0 872.28 740.84   L 719.94 740.84   A 0.51 0.51 0.0 0 1 719.48 740.10   L 728.64 721.72   A 1.50 1.49 13.1 0 1 729.98 720.89   L 874.25 720.89   A 1.33 1.32 -76.4 0 0 875.43 720.16   L 892.34 686.19   A 0.70 0.70 0.0 0 0 891.75 685.18   Q 885.56 684.87 875.93 684.88   Q 787.88 684.89 776.25 684.90   C 769.84 684.91 762.72 684.52 755.58 684.78   Q 739.73 685.34 727.00 685.08   Q 724.06 685.02 723.22 684.67"/>
<path stroke="#61492b" d="M 869.28 776.71   A 0.41 0.41 0.0 0 0 869.63 777.28   C 876.53 777.62 883.68 777.19 891.12 777.21   Q 920.19 777.28 1051.64 777.24   Q 1067.25 777.23 1071.75 775.89   Q 1083.19 772.48 1092.22 763.35   Q 1095.22 760.31 1098.92 753.00   Q 1113.84 723.46 1119.74 711.71   C 1122.35 706.53 1124.56 698.54 1121.33 693.24   C 1119.27 689.87 1114.50 687.51 1110.68 686.31   C 1104.55 684.38 1099.25 684.64 1090.71 684.63   Q 1016.52 684.57 983.00 684.58   C 979.36 684.59 972.32 685.00 975.36 679.09   Q 977.99 673.99 979.43 671.61   C 982.23 666.98 986.78 666.51 992.16 666.49   Q 1051.42 666.31 1113.75 666.32   Q 1120.77 666.32 1130.33 666.36   A 1.10 1.09 -77.9 0 0 1131.33 665.71   C 1133.83 660.04 1137.05 655.37 1139.25 649.90   Q 1141.68 643.83 1148.44 632.20   Q 1149.23 630.83 1149.75 629.45   A 0.90 0.90 0.0 0 0 1148.99 628.23   Q 1146.12 627.97 1143.25 628.14   C 1134.11 628.71 1127.99 628.35 1118.86 628.36   Q 1058.38 628.44 986.76 628.40   C 981.18 628.40 975.29 627.91 970.74 628.41   Q 961.00 629.48 952.07 633.08   C 944.29 636.23 937.94 643.01 932.93 649.60   A 6.73 6.52 76.8 0 0 932.17 650.87   C 929.25 657.33 928.17 660.18 924.91 665.81   C 922.31 670.30 920.43 675.53 917.68 680.12   Q 914.32 685.71 912.41 690.89   Q 910.47 696.16 910.37 698.44   Q 909.89 710.08 918.98 715.24   C 927.51 720.07 934.66 719.87 946.27 719.89   Q 998.41 719.95 1022.00 719.91   C 1030.28 719.90 1038.18 720.59 1045.99 720.02   C 1049.80 719.75 1053.37 722.59 1051.16 726.65   Q 1049.65 729.41 1046.36 735.46   C 1044.73 738.47 1042.12 741.06 1038.75 741.07   Q 990.08 741.20 905.50 741.07   Q 898.80 741.06 887.24 741.37   A 0.94 0.92 14.1 0 0 886.45 741.83   Q 882.76 748.07 881.23 751.83   Q 878.54 758.45 876.39 762.04   Q 873.96 766.12 869.28 776.71"/>
<path stroke="#61492b" d="M 1221.64 666.64   A 0.27 0.27 0.0 0 1 1221.88 667.03   L 1166.50 776.57   A 0.66 0.65 13.3 0 0 1167.09 777.52   L 1221.93 777.52   A 2.16 2.15 -76.5 0 0 1223.85 776.34   L 1278.99 667.27   A 1.04 1.04 0.0 0 1 1279.92 666.70   L 1347.18 666.70   A 1.19 1.17 -76.4 0 0 1348.23 666.05   L 1366.72 629.48   A 0.53 0.53 0.0 0 0 1366.24 628.71   Q 1283.71 628.62 1186.75 628.64   Q 1170.62 628.64 1166.47 629.14   A 1.19 1.19 0.0 0 0 1165.61 629.69   Q 1159.19 640.09 1155.27 649.24   C 1152.60 655.45 1150.92 657.94 1147.68 663.45   Q 1146.68 665.15 1146.51 666.16   A 0.41 0.41 0.0 0 0 1146.91 666.64   L 1221.64 666.64"/>
<path stroke="#838383" d="M 1315.56 876.25   A 0.50 0.50 0.0 0 1 1316.01 876.97   L 1309.51 890.17   A 1.05 1.05 0.0 0 1 1308.57 890.75   Q 1254.72 890.82 1248.25 890.79   C 1243.06 890.77 1233.60 891.64 1236.79 884.00   C 1240.10 876.05 1245.88 866.43 1250.23 857.49   Q 1256.97 843.68 1258.77 840.53   Q 1261.10 836.46 1265.18 834.53   Q 1267.69 833.35 1273.88 833.35   Q 1350.36 833.39 1368.00 833.42   Q 1371.82 833.43 1372.77 833.19   A 1.08 1.07 6.1 0 0 1373.47 832.63   L 1387.70 804.87   A 0.64 0.63 23.2 0 0 1387.34 803.98   Q 1387.01 803.87 1386.75 803.88   Q 1385.68 803.93 1267.26 803.80   Q 1251.70 803.79 1246.83 805.19   C 1236.70 808.12 1226.30 816.02 1221.97 826.22   Q 1219.73 831.52 1215.91 838.40   Q 1214.21 841.45 1207.32 855.28   Q 1198.93 872.11 1192.93 883.66   Q 1189.92 889.46 1187.46 895.19   C 1183.90 903.50 1186.19 912.06 1194.41 916.05   Q 1199.24 918.39 1203.23 918.39   Q 1281.39 918.32 1336.10 918.38   A 1.10 1.10 0.0 0 0 1337.09 917.76   L 1369.90 851.12   A 0.47 0.47 0.0 0 0 1369.48 850.44   L 1289.56 850.44   A 2.00 2.00 0.0 0 0 1287.77 851.55   L 1275.94 875.58   A 0.47 0.46 13.1 0 0 1276.36 876.25   L 1315.56 876.25"/>
<path stroke="#838383" d="M 779.78 918.55   A 0.68 0.68 0.0 0 0 780.39 918.18   L 837.48 805.25   A 0.68 0.68 0.0 0 0 836.87 804.26   L 794.10 804.26   A 0.68 0.68 0.0 0 0 793.49 804.63   L 736.40 917.56   A 0.68 0.68 0.0 0 0 737.01 918.55   L 779.78 918.55"/>
<path stroke="#838383" d="M 928.44 918.55   A 0.76 0.76 0.0 0 0 929.12 918.13   L 942.30 892.06   A 0.76 0.76 0.0 0 0 941.62 890.96   L 854.09 890.96   A 0.76 0.76 0.0 0 1 853.42 889.85   L 896.71 805.41   A 0.76 0.76 0.0 0 0 896.04 804.30   L 851.59 804.30   A 0.76 0.76 0.0 0 0 850.91 804.72   L 793.92 917.45   A 0.76 0.76 0.0 0 0 794.60 918.55   L 928.44 918.55"/>
<path stroke="#838383" d="M 941.21 918.55   L 985.26 918.55   A 1.05 1.04 13.5 0 0 986.19 917.99   Q 987.98 914.55 989.83 910.31   C 991.99 905.38 995.16 900.38 997.20 895.45   C 999.77 889.22 1003.66 882.72 1006.24 877.06   C 1009.76 869.38 1014.42 861.60 1017.13 855.21   Q 1019.68 849.18 1022.04 844.81   Q 1026.74 836.12 1033.17 822.43   C 1035.57 817.32 1039.57 811.05 1042.00 805.24   A 0.85 0.84 11.3 0 0 1041.22 804.07   L 997.26 804.07   A 0.91 0.90 -76.7 0 0 996.45 804.58   L 940.72 917.76   A 0.55 0.55 0.0 0 0 941.21 918.55"/>
<path stroke="#838383" d="M 1000.10 918.45   L 1044.50 918.45   A 0.74 0.73 12.9 0 0 1045.16 918.04   L 1081.01 848.13   A 0.47 0.47 0.0 0 1 1081.83 848.09   L 1125.90 917.62   A 1.66 1.66 0.0 0 0 1127.30 918.39   L 1162.93 918.39   A 1.27 1.26 -76.7 0 0 1164.06 917.69   L 1220.26 804.84   A 0.37 0.37 0.0 0 0 1219.96 804.31   C 1211.86 803.67 1204.45 804.36 1197.23 804.08   Q 1187.42 803.71 1177.92 804.30   A 1.31 1.29 -78.0 0 0 1176.83 805.02   L 1144.55 870.58   A 0.60 0.60 0.0 0 1 1143.51 870.64   L 1101.80 804.83   A 1.56 1.56 0.0 0 0 1100.48 804.10   L 1057.12 804.10   A 1.35 1.34 13.1 0 0 1055.91 804.85   L 999.68 917.77   A 0.47 0.47 0.0 0 0 1000.10 918.45"/>
<path stroke="#838383" d="M 55.16 918.57   Q 56.91 918.76 59.75 918.74   Q 82.04 918.64 179.01 918.76   Q 192.23 918.77 197.35 917.32   Q 208.34 914.19 216.79 904.94   Q 219.58 901.87 221.97 896.53   C 226.34 886.78 230.62 879.84 235.59 869.57   Q 239.96 860.56 244.22 852.63   C 248.09 845.41 251.51 837.71 254.42 832.38   Q 258.43 825.02 258.63 820.24   C 259.02 810.65 250.80 804.24 241.76 804.25   Q 146.01 804.30 115.50 804.18   Q 113.00 804.17 112.12 804.42   A 1.74 1.72 -83.9 0 0 111.03 805.31   L 54.67 917.67   A 0.62 0.62 0.0 0 0 55.16 918.57"/>
<path stroke="#838383" d="M 223.84 918.76   L 380.80 918.76   A 0.96 0.95 -75.9 0 0 381.64 918.25   L 395.56 891.09   A 0.67 0.67 0.0 0 0 394.96 890.11   L 282.32 890.11   A 0.60 0.60 0.0 0 1 281.78 889.24   L 288.21 876.70   A 1.12 1.11 13.6 0 1 289.20 876.10   L 398.84 876.10   A 0.73 0.72 13.2 0 0 399.49 875.70   L 413.58 848.22   A 0.43 0.42 13.4 0 0 413.19 847.60   L 303.64 847.60   A 0.48 0.47 -76.3 0 1 303.23 846.91   L 309.15 835.35   A 1.75 1.75 0.0 0 1 310.70 834.41   L 421.02 834.41   A 1.51 1.51 0.0 0 0 422.37 833.58   L 436.80 805.03   A 0.49 0.49 0.0 0 0 436.36 804.31   L 281.50 804.31   A 1.61 1.59 14.8 0 0 280.11 805.11   Q 276.70 811.01 273.61 817.37   C 267.71 829.52 263.47 837.47 256.00 852.21   Q 250.92 862.24 249.03 866.24   C 245.03 874.69 241.72 880.40 238.16 887.90   C 234.63 895.32 233.33 898.21 228.73 906.70   Q 226.42 910.96 223.34 917.98   A 0.56 0.55 -78.1 0 0 223.84 918.76"/>
<path stroke="#838383" d="M 493.74 835.09   L 451.40 917.68   A 0.71 0.71 0.0 0 0 452.03 918.71   L 494.68 918.71   A 0.87 0.86 13.5 0 0 495.45 918.24   L 537.93 835.38   A 1.76 1.75 13.6 0 1 539.49 834.43   L 589.63 834.43   A 1.98 1.97 -76.5 0 0 591.39 833.35   L 605.47 805.89   A 1.11 1.11 0.0 0 0 604.64 804.28   Q 604.34 804.24 603.75 804.24   Q 518.07 804.42 456.00 804.29   Q 452.06 804.29 451.39 804.71   A 1.75 1.66 88.6 0 0 450.81 805.35   L 436.53 833.66   A 0.53 0.53 0.0 0 0 437.00 834.43   L 493.34 834.43   A 0.45 0.45 0.0 0 1 493.74 835.09"/>
<path stroke="#838383" d="M 680.58 917.92   A 0.48 0.47 -76.5 0 0 681.00 918.61   L 723.78 918.61   A 0.62 0.60 -76.3 0 0 724.32 918.27   Q 736.19 894.13 748.40 871.03   C 750.89 866.32 752.77 861.59 755.21 857.44   C 759.33 850.40 763.30 841.26 767.21 834.50   C 771.77 826.60 778.52 812.84 767.40 806.63   Q 763.25 804.32 759.81 804.32   Q 649.41 804.35 646.21 804.27   Q 636.02 803.98 630.44 805.69   Q 620.64 808.68 613.55 815.77   Q 608.28 821.04 605.89 825.91   Q 597.85 842.34 591.46 853.92   C 589.16 858.09 587.04 863.13 584.50 868.02   Q 578.03 880.50 558.93 918.18   A 0.35 0.34 13.6 0 0 559.24 918.68   L 602.29 918.68   A 1.52 1.51 13.4 0 0 603.64 917.86   L 624.44 877.28   A 1.76 1.76 0.0 0 1 626.01 876.32   L 700.62 876.32   A 0.61 0.60 13.5 0 1 701.16 877.20   L 680.58 917.92"/>
<path stroke="#838383" d="M 1214.68 999.48   Q 1215.28 995.55 1215.52 992.05   Q 1215.62 990.61 1217.52 985.22   C 1218.73 981.78 1220.84 979.31 1223.83 978.08   Q 1231.41 974.93 1240.85 974.47   A 0.23 0.23 0.0 0 0 1241.07 974.24   L 1241.07 974.23   A 0.27 0.26 -88.9 0 0 1240.82 973.96   C 1234.39 973.47 1221.65 972.10 1218.59 965.40   Q 1215.25 958.08 1214.74 949.76   A 0.25 0.25 0.0 0 0 1214.24 949.72   C 1212.93 956.20 1211.93 966.59 1205.45 969.97   C 1200.40 972.61 1193.95 973.59 1188.10 974.00   A 0.02 0.01 -90.0 0 0 1188.09 974.02   L 1188.09 974.27   A 0.21 0.21 0.0 0 0 1188.29 974.48   Q 1194.52 974.86 1200.22 976.30   C 1205.69 977.69 1209.33 979.75 1211.16 984.99   Q 1213.37 991.33 1214.05 999.46   A 0.32 0.32 0.0 0 0 1214.68 999.48"/>
<path stroke="#838383" d="M 318.37 969.97   L 318.39 984.61   A 0.97 0.96 -0.1 0 0 319.36 985.56   L 322.97 985.56   A 0.98 0.97 -0.1 0 0 323.95 984.59   L 323.91 962.14   A 1.08 1.08 0.0 0 0 322.82 961.06   L 319.64 961.06   A 1.51 1.51 0.0 0 0 318.43 961.67   L 308.44 975.15   A 0.88 0.88 0.0 0 1 307.02 975.15   L 297.12 961.74   A 1.29 1.28 -18.3 0 0 296.09 961.23   L 292.32 961.24   A 0.70 0.70 0.0 0 0 291.63 961.94   L 291.67 984.90   A 0.76 0.76 0.0 0 0 292.43 985.66   L 295.37 985.65   A 0.89 0.89 0.0 0 0 296.26 984.76   L 296.23 969.58   A 0.36 0.36 0.0 0 1 296.87 969.37   L 306.31 982.15   A 1.35 1.35 0.0 0 0 308.48 982.15   L 317.68 969.75   A 0.38 0.38 0.0 0 1 318.37 969.97"/>
<path stroke="#838383" d="M 391.5382 966.1194   A 4.96 4.96 0.0 0 0 386.6043 961.1335   L 366.2245 961.0268   A 4.96 4.96 0.0 0 0 361.2386 965.9608   L 361.1618 980.6406   A 4.96 4.96 0.0 0 0 366.0957 985.6265   L 386.4755 985.7332   A 4.96 4.96 0.0 0 0 391.4614 980.7992   L 391.5382 966.1194"/>
<path stroke="#838383" d="M 428.94 973.43   Q 429.00 979.23 429.23 984.86   A 0.71 0.71 0.0 0 0 429.93 985.54   Q 438.83 985.63 448.84 985.46   C 452.03 985.40 455.37 984.74 455.57 981.10   Q 455.76 977.78 455.36 975.98   A 2.27 2.21 -70.9 0 0 454.95 975.09   Q 454.72 974.79 453.37 973.63   Q 453.29 973.56 453.23 973.43   Q 453.19 973.32 453.19 973.18   Q 453.19 973.07 453.23 972.96   Q 453.28 972.83 453.36 972.75   Q 454.69 971.57 454.91 971.27   A 2.27 2.21 69.8 0 0 455.31 970.37   Q 455.68 968.57 455.42 965.25   C 455.15 961.61 451.80 961.01 448.61 961.02   Q 438.60 961.04 429.70 961.30   A 0.71 0.71 0.0 0 0 429.01 961.99   Q 428.89 967.62 428.94 973.43"/>
<path stroke="#838383" d="M 594.23 984.59   A 0.90 0.90 0.0 0 0 595.13 985.49   L 618.47 985.49   A 0.90 0.90 0.0 0 0 619.37 984.59   L 619.37 981.94   A 0.90 0.90 0.0 0 0 618.47 981.04   L 600.92 981.04   A 0.90 0.90 0.0 0 1 600.02 980.14   L 600.02 975.75   A 0.90 0.90 0.0 0 1 600.92 974.85   L 610.64 974.85   A 0.90 0.90 0.0 0 0 611.54 973.95   L 611.54 971.85   A 0.90 0.90 0.0 0 0 610.64 970.95   L 600.84 970.95   A 0.90 0.90 0.0 0 1 599.94 970.05   L 599.94 966.34   A 0.90 0.90 0.0 0 1 600.84 965.44   L 618.50 965.44   A 0.90 0.90 0.0 0 0 619.40 964.54   L 619.40 962.08   A 0.90 0.90 0.0 0 0 618.50 961.18   L 595.13 961.18   A 0.90 0.90 0.0 0 0 594.23 962.08   L 594.23 984.59"/>
<path stroke="#838383" d="M 910.19 973.45   Q 910.23 979.32 910.45 985.00   A 0.72 0.71 -0.6 0 0 911.15 985.69   Q 920.14 985.80 930.25 985.65   C 933.47 985.60 936.85 984.94 937.06 981.26   Q 937.26 977.91 936.86 976.09   A 2.29 2.23 -70.8 0 0 936.44 975.19   Q 936.21 974.89 934.85 973.72   Q 934.77 973.65 934.71 973.52   Q 934.67 973.40 934.67 973.26   Q 934.67 973.15 934.71 973.04   Q 934.76 972.90 934.84 972.83   Q 936.19 971.64 936.41 971.34   A 2.29 2.23 70.0 0 0 936.82 970.43   Q 937.19 968.61 936.94 965.26   C 936.68 961.58 933.29 960.97 930.07 960.97   Q 919.96 960.97 910.97 961.21   A 0.72 0.71 -0.2 0 0 910.28 961.90   Q 910.14 967.59 910.19 973.45"/>
<path stroke="#838383" d="M 1115.31 961.23   A 0.67 0.67 0.0 0 0 1114.73 961.57   L 1101.50 984.48   A 0.67 0.67 0.0 0 0 1102.08 985.48   L 1106.49 985.48   A 0.67 0.67 0.0 0 0 1107.07 985.14   L 1109.68 980.63   A 0.67 0.67 0.0 0 1 1110.26 980.29   L 1124.37 980.29   A 0.67 0.67 0.0 0 1 1124.95 980.62   L 1127.63 985.26   A 0.67 0.67 0.0 0 0 1128.21 985.59   L 1133.01 985.59   A 0.67 0.67 0.0 0 0 1133.59 984.59   L 1120.30 961.57   A 0.67 0.67 0.0 0 0 1119.72 961.23   L 1115.31 961.23"/>
<path stroke="#838383" d="M 497.82 962.10   A 0.73 0.73 0.0 0 0 497.09 961.37   L 492.89 961.37   A 0.73 0.73 0.0 0 0 492.16 962.10   L 492.16 984.70   A 0.73 0.73 0.0 0 0 492.89 985.43   L 497.09 985.43   A 0.73 0.73 0.0 0 0 497.82 984.70   L 497.82 962.10"/>
<path stroke="#838383" d="M 541.65 962.17   A 0.85 0.85 0.0 0 0 540.80 961.32   L 536.80 961.32   A 0.85 0.85 0.0 0 0 535.95 962.17   L 535.95 984.61   A 0.85 0.85 0.0 0 0 536.80 985.46   L 559.02 985.46   A 0.85 0.85 0.0 0 0 559.87 984.61   L 559.87 981.87   A 0.85 0.85 0.0 0 0 559.02 981.02   L 542.50 981.02   A 0.85 0.85 0.0 0 1 541.65 980.17   L 541.65 962.17"/>
<path stroke="#838383" d="M 751.09 985.53   L 754.73 985.55   A 0.65 0.65 0.0 0 0 755.31 984.59   L 742.95 961.92   A 1.07 1.06 -13.6 0 0 742.04 961.36   L 737.58 961.25   A 0.91 0.91 0.0 0 0 736.77 961.70   L 723.90 984.30   A 0.75 0.75 0.0 0 0 724.53 985.42   L 728.17 985.49   A 2.14 2.12 14.6 0 0 730.10 984.38   L 731.93 980.90   A 1.31 1.29 -75.4 0 1 733.08 980.21   L 746.45 980.32   A 1.46 1.46 0.0 0 1 747.72 981.08   L 749.66 984.68   A 1.62 1.62 0.0 0 0 751.09 985.53"/>
<path stroke="#838383" d="M 789.98 962.21   L 790.12 985.02   A 0.46 0.46 0.0 0 0 790.58 985.48   L 813.26 985.50   A 0.83 0.83 0.0 0 0 814.09 984.66   L 814.03 981.95   A 0.96 0.96 0.0 0 0 813.06 981.01   L 796.56 981.05   A 0.78 0.78 0.0 0 1 795.78 980.27   L 795.74 962.27   A 0.94 0.94 0.0 0 0 794.80 961.33   L 790.85 961.32   A 0.88 0.88 0.0 0 0 789.98 962.21"/>
<path stroke="#838383" d="M 848.51 985.42   A 1.63 1.63 0.0 0 0 849.96 984.57   L 851.93 980.99   A 1.46 1.46 0.0 0 1 853.20 980.24   L 866.58 980.23   A 1.31 1.29 75.8 0 1 867.72 980.93   L 869.54 984.42   A 2.14 2.12 -14.2 0 0 871.46 985.55   L 875.10 985.50   A 0.75 0.75 0.0 0 0 875.74 984.39   L 863.03 961.68   A 0.91 0.91 0.0 0 0 862.22 961.22   L 857.75 961.30   A 1.07 1.06 14.0 0 0 856.84 961.85   L 844.30 984.45   A 0.65 0.65 0.0 0 0 844.87 985.41   L 848.51 985.42"/>
<path stroke="#838383" d="M 997.08 985.51   L 1000.73 985.52   A 0.65 0.65 0.0 0 0 1001.30 984.56   L 988.89 961.84   A 1.07 1.07 0.0 0 0 987.97 961.29   L 983.50 961.18   A 0.91 0.91 0.0 0 0 982.68 961.64   L 969.82 984.31   A 0.75 0.75 0.0 0 0 970.45 985.43   L 974.10 985.50   A 2.14 2.13 14.6 0 0 976.03 984.37   L 977.87 980.89   A 1.31 1.29 -75.5 0 1 979.02 980.20   L 992.42 980.29   A 1.46 1.46 0.0 0 1 993.69 981.05   L 995.64 984.65   A 1.63 1.63 0.0 0 0 997.08 985.51"/>
<path stroke="#838383" d="M 1062.48 970.05   L 1062.48 984.54   A 0.96 0.95 0.0 0 0 1063.44 985.49   L 1067.01 985.49   A 0.97 0.96 0.0 0 0 1067.98 984.53   L 1067.98 962.30   A 1.07 1.07 0.0 0 0 1066.91 961.23   L 1063.76 961.23   A 1.50 1.50 0.0 0 0 1062.56 961.83   L 1052.64 975.16   A 0.87 0.87 0.0 0 1 1051.24 975.15   L 1041.46 961.86   A 1.28 1.27 -18.2 0 0 1040.44 961.35   L 1036.71 961.35   A 0.69 0.69 0.0 0 0 1036.02 962.04   L 1036.02 984.78   A 0.75 0.75 0.0 0 0 1036.77 985.53   L 1039.68 985.53   A 0.88 0.88 0.0 0 0 1040.56 984.65   L 1040.56 969.62   A 0.36 0.35 26.7 0 1 1041.20 969.41   L 1050.52 982.08   A 1.34 1.34 0.0 0 0 1052.67 982.09   L 1061.80 969.83   A 0.38 0.38 0.0 0 1 1062.48 970.05"/>
<path stroke="#838383" d="M 648.99 985.17   A 0.58 0.58 0.0 0 1 649.49 986.04   L 648.02 988.58   A 0.59 0.59 0.0 0 0 648.90 989.34   Q 652.84 986.28 652.10 981.48   A 0.96 0.95 -4.2 0 0 651.15 980.67   L 648.12 980.67   A 0.63 0.63 0.0 0 0 647.49 981.30   L 647.49 984.51   A 0.67 0.66 -0.0 0 0 648.16 985.17   L 648.99 985.17"/>
<path stroke="#838383" d="M 412.84 576.32   Q 420.63 576.33 428.53 576.31   Q 434.86 576.29 437.37 575.41   Q 441.77 573.87 443.98 569.64   Q 463.36 532.72 467.66 524.52   Q 469.27 521.45 469.26 520.31   C 469.26 517.76 467.00 516.27 464.64 516.27   Q 418.80 516.25 412.75 516.25   Q 404.96 516.25 397.06 516.26   Q 390.73 516.28 388.22 517.16   Q 383.82 518.70 381.61 522.93   Q 362.23 559.85 357.93 568.05   Q 356.32 571.12 356.33 572.26   C 356.33 574.81 358.59 576.30 360.95 576.30   Q 406.80 576.32 412.84 576.32"/>
<path stroke="#838383" d="M 571.26 530.80   L 654.68 530.80   A 1.06 1.04 13.2 0 0 655.62 530.23   L 660.63 520.21   A 2.57 2.57 0.0 0 0 659.70 516.89   Q 658.81 516.28 656.75 516.26   Q 649.12 516.20 586.74 516.21   C 576.62 516.21 574.86 522.46 570.78 529.98   A 0.55 0.55 0.0 0 0 571.26 530.80"/>
<path stroke="#838383" d="M 1119.54 530.63   L 1201.19 530.65   A 1.04 1.02 13.3 0 0 1202.11 530.09   L 1207.02 520.28   A 2.51 2.51 0.0 0 0 1206.11 517.03   Q 1205.24 516.43 1203.22 516.41   Q 1195.75 516.35 1134.70 516.35   C 1124.79 516.35 1123.07 522.47 1119.07 529.83   A 0.54 0.54 0.0 0 0 1119.54 530.63"/>
<path stroke="#838383" d="M 112.49 891.14   Q 134.83 890.96 172.42 890.96   C 178.65 890.96 183.14 890.32 186.19 885.20   C 190.66 877.69 195.04 868.08 199.12 860.44   Q 202.02 855.01 208.59 841.94   Q 210.00 839.14 209.72 837.91   C 209.22 835.66 206.98 834.93 204.81 834.93   Q 144.33 834.87 140.36 834.90   A 1.87 1.87 0.0 0 0 138.70 835.94   L 111.78 890.00   A 0.79 0.79 0.0 0 0 112.49 891.14"/>
<path stroke="#838383" d="M 640.35 847.62   L 715.77 847.58   A 0.96 0.94 13.2 0 0 716.62 847.07   L 721.14 838.01   A 2.32 2.32 0.0 0 0 720.30 835.01   Q 719.50 834.45 717.63 834.44   Q 710.74 834.39 654.34 834.43   C 645.19 834.43 643.60 840.08 639.92 846.88   A 0.50 0.50 0.0 0 0 640.35 847.62"/>
<path stroke="#838383" d="M 385.4981 966.4137   A 0.79 0.79 0.0 0 0 384.7067 965.6251   L 367.6467 965.6549   A 0.79 0.79 0.0 0 0 366.8581 966.4463   L 366.8819 980.1063   A 0.79 0.79 0.0 0 0 367.6733 980.8949   L 384.7333 980.8651   A 0.79 0.79 0.0 0 0 385.5219 980.0737   L 385.4981 966.4137"/>
<path stroke="#838383" d="M 434.83 966.26   L 434.89 970.28   A 0.87 0.87 0.0 0 0 435.78 971.14   L 447.92 970.95   A 2.26 1.85 -0.9 0 0 450.16 969.06   L 450.12 967.00   A 2.26 1.85 -0.9 0 0 447.83 965.19   L 435.69 965.38   A 0.87 0.87 0.0 0 0 434.83 966.26"/>
<path stroke="#838383" d="M 434.80 975.56   L 434.84 980.62   A 0.53 0.53 0.0 0 0 435.38 981.14   L 447.52 981.04   A 2.61 2.12 -0.5 0 0 450.11 978.89   L 450.09 977.01   A 2.61 2.12 -0.5 0 0 447.46 974.92   L 435.32 975.02   A 0.53 0.53 0.0 0 0 434.80 975.56"/>
<path stroke="#838383" d="M 931.3090 966.5640   A 1.39 1.39 0.0 0 0 929.8997 965.1936   L 917.4810 965.3670   A 1.39 1.39 0.0 0 0 916.1105 966.7763   L 916.1510 969.6760   A 1.39 1.39 0.0 0 0 917.5603 971.0464   L 929.9790 970.8730   A 1.39 1.39 0.0 0 0 931.3495 969.4637   L 931.3090 966.5640"/>
<path stroke="#838383" d="M 931.2820 976.2928   A 1.22 1.22 0.0 0 0 930.0706 975.0643   L 917.3909 974.9758   A 1.22 1.22 0.0 0 0 916.1624 976.1873   L 916.1380 979.6872   A 1.22 1.22 0.0 0 0 917.3494 980.9157   L 930.0291 981.0042   A 1.22 1.22 0.0 0 0 931.2576 979.7927   L 931.2820 976.2928"/>
<path stroke="#838383" d="M 1112.53 975.30   A 0.45 0.45 0.0 0 0 1112.92 975.96   L 1121.76 975.98   A 0.45 0.45 0.0 0 0 1122.16 975.31   L 1117.76 967.13   A 0.45 0.45 0.0 0 0 1116.96 967.13   L 1112.53 975.30"/>
<path stroke="#838383" d="M 734.54 975.27   A 0.40 0.40 0.0 0 0 734.89 975.86   L 743.96 975.94   A 0.40 0.40 0.0 0 0 744.31 975.35   L 739.85 966.79   A 0.40 0.40 0.0 0 0 739.15 966.79   L 734.54 975.27"/>
<path stroke="#838383" d="M 854.95 975.08   A 0.62 0.62 0.0 0 0 855.49 975.99   L 864.07 976.06   A 0.62 0.62 0.0 0 0 864.62 975.17   L 860.41 966.77   A 0.62 0.62 0.0 0 0 859.31 966.76   L 854.95 975.08"/>
<path stroke="#838383" d="M 980.45 975.14   A 0.62 0.62 0.0 0 0 981.00 976.05   L 989.65 976.10   A 0.62 0.62 0.0 0 0 990.20 975.19   L 985.92 967.04   A 0.62 0.62 0.0 0 0 984.82 967.04   L 980.45 975.14"/>
</g>
<path xmlns="http://www.w3.org/2000/svg" fill="#0a0a0a" d="M 1448.00 0.00   L 1448.00 1448.00   L 0.00 1448.00   L 0.00 0.00   L 1448.00 0.00   Z   M 294.19 576.55   Q 293.43 576.40 293.00 576.39   Q 289.07 576.32 183.51 576.33   Q 181.08 576.33 179.46 574.81   C 177.74 573.20 178.73 570.55 179.71 568.72   Q 184.88 559.07 193.26 542.81   C 197.18 535.20 200.86 529.20 203.58 523.66   C 206.37 517.96 211.06 516.00 217.64 516.12   Q 221.70 516.20 323.99 516.15   A 1.07 1.07 0.0 0 0 324.94 515.57   L 340.84 485.20   A 0.60 0.60 0.0 0 0 340.34 484.32   Q 335.83 484.08 334.79 484.09   Q 306.82 484.36 208.75 484.20   C 191.98 484.17 175.61 491.81 164.66 504.29   Q 161.11 508.34 157.74 515.33   C 154.09 522.93 149.61 530.34 145.46 539.01   C 142.51 545.17 137.81 553.29 133.80 561.33   Q 132.08 564.79 127.94 572.63   C 124.46 579.24 122.07 585.82 123.81 591.95   C 126.12 600.14 132.56 604.63 140.55 605.88   Q 142.77 606.22 150.98 606.23   Q 205.85 606.30 269.25 606.23   Q 276.22 606.22 278.35 605.97   A 2.12 2.12 0.0 0 0 279.99 604.84   L 294.49 577.16   A 0.43 0.42 19.2 0 0 294.19 576.55   Z   M 923.07 484.24   A 0.54 0.54 0.0 0 0 922.59 484.53   L 906.42 515.39   A 0.54 0.54 0.0 0 0 906.90 516.18   L 967.61 516.18   A 0.54 0.54 0.0 0 1 968.09 516.97   L 921.76 605.44   A 0.54 0.54 0.0 0 0 922.24 606.23   L 967.91 606.23   A 0.54 0.54 0.0 0 0 968.39 605.94   L 1015.21 516.53   A 0.54 0.54 0.0 0 1 1015.69 516.24   L 1068.83 516.24   A 0.54 0.54 0.0 0 0 1069.31 515.95   L 1085.50 485.03   A 0.54 0.54 0.0 0 0 1085.02 484.24   L 923.07 484.24   Z   M 485.76 576.70   Q 491.92 565.72 495.67 558.25   Q 498.80 552.00 500.22 549.57   C 504.49 542.28 507.06 536.03 511.61 527.90   Q 515.45 521.03 522.85 505.87   C 528.57 494.15 520.32 484.20 508.00 484.22   Q 451.97 484.31 380.45 484.25   C 371.90 484.24 366.42 485.31 359.42 488.92   C 352.23 492.63 345.28 497.82 341.83 504.83   C 337.34 513.94 330.75 525.11 325.72 535.66   C 322.32 542.79 319.12 547.78 316.06 554.50   Q 314.65 557.61 311.60 563.29   Q 304.36 576.80 303.28 579.52   C 298.90 590.63 302.18 601.40 314.12 605.12   Q 317.09 606.04 323.51 606.14   C 344.56 606.44 380.17 606.23 439.00 606.27   C 443.59 606.28 450.73 606.16 455.63 605.09   Q 472.23 601.47 480.59 586.14   Q 485.39 577.34 485.76 576.70   Z   M 616.38 606.21   L 663.71 606.21   A 1.02 1.01 -76.8 0 0 664.62 605.64   C 668.05 598.55 671.13 593.65 674.72 586.12   Q 676.93 581.49 680.38 575.45   C 683.32 570.31 685.23 565.35 688.20 560.20   C 694.64 549.01 700.01 536.69 706.64 525.32   Q 708.26 522.55 716.60 505.87   C 722.28 494.49 715.24 484.39 702.75 484.26   Q 699.92 484.23 573.71 484.26   Q 565.01 484.26 560.43 485.51   Q 547.11 489.13 537.88 499.98   Q 534.61 503.81 530.37 512.44   Q 526.07 521.17 523.55 525.38   C 520.49 530.48 518.44 536.08 515.50 540.86   C 510.32 549.29 506.16 558.79 500.94 568.39   C 497.97 573.86 494.95 581.11 492.32 585.81   Q 488.12 593.31 481.68 605.40   A 0.55 0.55 0.0 0 0 482.16 606.21   L 529.53 606.21   A 1.32 1.30 -76.0 0 0 530.69 605.50   L 553.51 561.92   A 1.98 1.96 13.6 0 1 555.26 560.86   L 638.57 560.86   A 0.44 0.44 0.0 0 1 638.96 561.50   L 615.93 605.47   A 0.51 0.50 13.8 0 0 616.38 606.21   Z   M 908.43 484.45   Q 908.04 484.28 907.50 484.26   Q 906.84 484.23 767.25 484.18   Q 762.36 484.18 756.03 486.03   Q 742.06 490.11 732.91 500.72   Q 728.81 505.48 724.24 515.05   Q 721.27 521.25 715.39 531.48   C 709.87 541.07 709.68 552.59 720.96 557.32   Q 726.25 559.54 730.51 559.62   Q 744.74 559.91 823.02 559.73   C 825.13 559.72 829.15 559.60 829.99 561.52   C 830.98 563.80 828.11 567.95 826.50 570.99   C 824.89 574.02 823.12 575.87 819.83 575.89   C 784.96 576.19 755.31 576.18 735.25 576.03   Q 718.77 575.90 694.55 576.16   A 1.25 1.24 13.1 0 0 693.46 576.83   L 678.99 605.07   A 0.66 0.66 0.0 0 0 679.58 606.03   C 686.92 605.97 694.36 606.32 701.15 606.28   Q 723.22 606.15 825.76 606.23   Q 843.61 606.24 855.55 596.76   C 860.89 592.52 864.69 587.29 868.18 580.94   Q 876.51 565.77 884.23 550.74   C 886.03 547.24 887.29 541.08 885.17 537.52   C 881.91 532.02 872.87 530.34 867.02 530.34   Q 862.80 530.35 769.77 530.32   Q 767.53 530.32 766.27 529.55   A 1.64 1.64 0.0 0 1 765.66 527.41   L 769.44 519.87   A 1.90 1.73 -12.5 0 1 769.75 519.43   Q 772.87 516.14 776.76 516.15   Q 835.91 516.21 891.91 516.08   A 0.86 0.84 -76.0 0 0 892.66 515.62   L 908.66 485.08   A 0.45 0.45 0.0 0 0 908.43 484.45   Z   M 1032.92 606.19   L 1078.30 606.19   A 1.38 1.37 -75.8 0 0 1079.51 605.46   L 1102.35 561.84   A 1.64 1.63 -76.2 0 1 1103.80 560.96   L 1185.27 560.96   A 0.58 0.58 0.0 0 1 1185.78 561.81   L 1163.11 605.11   A 0.73 0.73 0.0 0 0 1163.76 606.18   L 1208.52 606.18   A 1.42 1.42 0.0 0 0 1209.77 605.43   Q 1227.08 572.54 1233.14 560.43   C 1235.99 554.73 1240.02 548.38 1242.56 542.61   Q 1244.97 537.13 1249.39 529.14   Q 1254.50 519.87 1261.10 506.60   C 1264.70 499.34 1264.42 490.40 1256.33 486.38   Q 1252.06 484.25 1248.24 484.26   Q 1144.89 484.33 1122.89 484.24   Q 1113.64 484.20 1109.72 485.47   C 1102.18 487.92 1094.89 492.34 1089.55 498.14   Q 1086.93 500.99 1083.91 507.14   C 1080.76 513.57 1076.95 519.79 1073.88 525.78   Q 1057.40 557.99 1032.58 605.62   A 0.39 0.39 0.0 0 0 1032.92 606.19   Z   M 1284.90 576.34   A 0.62 0.62 0.0 0 1 1284.36 575.43   L 1331.62 485.16   A 0.62 0.62 0.0 0 0 1331.08 484.25   L 1283.50 484.25   A 0.62 0.62 0.0 0 0 1282.95 484.59   L 1221.03 605.37   A 0.62 0.62 0.0 0 0 1221.58 606.27   L 1366.55 606.27   A 0.62 0.62 0.0 0 0 1367.10 605.94   L 1382.12 577.25   A 0.62 0.62 0.0 0 0 1381.58 576.34   L 1284.90 576.34   Z   M 182.46 684.65   A 0.04 0.04 0.0 0 1 182.46 684.57   L 208.50 679.76   A 1.33 1.30 7.8 0 0 209.43 679.07   L 215.28 667.65   A 2.25 2.25 0.0 0 1 217.28 666.43   L 365.81 666.43   A 1.36 1.34 -77.8 0 0 367.04 665.63   C 369.79 659.36 372.61 653.30 376.81 646.10   Q 379.56 641.39 381.70 636.23   C 382.75 633.68 384.75 631.15 385.77 628.89   A 0.59 0.59 0.0 0 0 385.23 628.05   L 175.05 628.05   A 1.55 1.53 16.0 0 0 173.75 628.76   C 170.34 634.07 168.02 639.23 164.39 646.07   Q 160.68 653.07 158.19 658.44   C 154.70 665.96 150.85 672.10 147.66 679.15   Q 144.88 685.27 139.67 695.16   C 137.14 699.96 134.89 705.13 132.52 709.73   Q 124.36 725.56 114.75 745.23   C 112.51 749.81 109.62 754.48 107.97 758.65   C 105.67 764.46 101.59 770.78 99.18 776.59   A 0.48 0.47 11.4 0 0 99.62 777.25   L 158.45 777.25   A 1.34 1.34 0.0 0 0 159.65 776.51   L 187.97 721.28   A 1.26 1.25 -76.5 0 1 189.09 720.59   L 330.65 720.59   A 2.33 2.33 0.0 0 0 332.72 719.33   L 349.58 686.44   A 0.87 0.87 0.0 0 0 348.82 685.17   Q 338.82 684.97 337.50 684.97   Q 270.99 684.97 220.07 684.87   C 213.90 684.86 208.54 685.41 202.74 685.10   C 195.97 684.75 190.71 684.97 184.75 685.05   Q 184.13 685.06 182.46 684.65   Z   M 326.12 777.24   Q 326.13 777.24 326.17 777.32   A 0.23 0.20 -14.9 0 0 326.35 777.41   L 384.18 777.19   A 1.42 1.41 10.0 0 0 385.49 776.28   L 387.13 771.90   A 1.05 1.03 -17.8 0 1 387.23 771.71   Q 391.07 765.18 394.12 758.59   C 399.01 748.03 403.79 739.18 409.01 727.93   C 410.78 724.10 413.32 720.04 415.25 715.45   Q 416.37 712.77 419.87 706.05   C 425.09 696.03 430.36 684.41 436.49 672.34   Q 445.60 654.41 446.07 653.30   Q 449.12 646.22 449.24 645.97   Q 449.41 645.65 457.91 629.59   A 1.00 1.00 0.0 0 0 457.02 628.12   L 400.23 628.12   A 1.51 1.51 0.0 0 0 398.90 628.91   C 397.60 631.25 395.97 633.80 395.18 635.78   Q 392.90 641.49 390.21 646.24   C 386.37 653.02 384.47 658.95 380.57 665.64   Q 377.41 671.07 375.62 675.08   C 372.01 683.18 368.82 688.41 365.56 695.94   Q 364.39 698.66 359.72 706.96   Q 356.38 712.88 353.19 720.49   C 351.09 725.49 348.32 730.70 346.08 734.61   Q 344.31 737.71 340.99 745.31   C 338.41 751.20 335.56 756.10 333.07 761.91   C 331.14 766.44 327.71 771.49 325.88 776.53   A 0.61 0.60 -63.7 0 0 326.12 777.24   Z   M 698.50 629.10   A 0.48 0.47 12.3 0 0 698.08 628.46   Q 689.11 627.74 682.06 627.97   C 668.06 628.40 657.66 628.11 640.74 628.19   A 0.97 0.96 12.6 0 0 639.89 628.72   L 594.86 721.67   A 0.67 0.67 0.0 0 1 593.71 721.77   L 527.73 628.96   A 2.70 2.70 0.0 0 0 525.37 627.81   Q 515.50 628.30 511.14 628.15   C 498.69 627.74 490.98 628.19 477.75 628.02   Q 476.20 628.00 474.60 628.46   A 1.16 1.11 4.3 0 0 473.88 629.05   Q 469.52 637.83 465.75 644.56   C 463.69 648.24 462.22 652.49 460.54 655.79   Q 451.34 673.89 439.12 699.17   Q 435.14 707.42 434.55 708.52   C 430.29 716.46 427.41 723.62 423.20 731.93   C 419.12 739.97 417.03 745.89 413.12 752.67   C 410.36 757.46 408.53 763.00 405.53 768.73   Q 404.28 771.13 401.88 776.49   A 0.59 0.58 12.0 0 0 402.42 777.31   L 462.26 777.31   A 0.76 0.76 0.0 0 0 462.94 776.89   L 507.42 687.58   A 0.89 0.88 -50.1 0 1 508.93 687.44   L 574.61 776.69   A 1.54 1.51 71.4 0 0 575.83 777.31   L 626.47 777.31   A 1.53 1.52 -76.9 0 0 627.84 776.45   C 629.92 772.16 631.95 766.76 634.39 762.16   Q 640.79 750.08 645.41 739.34   Q 648.21 732.82 650.27 728.71   C 655.23 718.78 658.91 711.49 663.06 702.47   Q 668.75 690.10 670.57 686.55   Q 680.74 666.74 683.48 660.07   C 685.27 655.71 688.60 651.05 690.32 646.40   C 692.20 641.36 696.30 635.15 698.50 629.10   Z   M 723.22 684.67   A 0.06 0.06 0.0 0 1 723.23 684.56   L 748.41 679.91   A 1.19 1.17 9.4 0 0 749.22 679.34   L 756.10 667.41   A 1.09 1.09 0.0 0 1 756.90 666.88   C 764.50 665.98 772.92 666.67 778.25 666.67   Q 879.09 666.68 879.26 666.61   Q 879.57 666.47 890.72 666.75   Q 899.71 666.97 907.64 666.27   A 1.43 1.42 11.1 0 0 908.78 665.51   L 927.71 629.35   A 0.97 0.96 -75.2 0 0 926.90 627.94   C 921.61 627.74 915.76 628.40 910.28 628.40   Q 806.05 628.31 714.52 628.42   A 1.36 1.34 -77.8 0 0 713.29 629.22   C 711.73 632.77 710.65 635.99 708.89 639.01   C 705.27 645.17 702.90 652.13 699.51 657.89   Q 696.97 662.22 693.63 670.12   Q 692.51 672.78 686.84 683.68   C 684.63 687.94 683.05 692.30 681.23 695.56   C 677.37 702.44 674.59 709.17 671.30 715.34   Q 668.92 719.80 666.70 725.02   C 664.45 730.29 661.06 736.35 658.55 742.31   Q 657.06 745.86 654.83 749.84   Q 652.35 754.29 649.36 761.14   Q 647.04 766.45 642.25 776.22   A 0.73 0.72 12.9 0 0 642.91 777.26   L 854.45 777.26   A 1.34 1.33 14.4 0 0 855.62 776.57   C 859.32 769.86 861.34 763.56 865.06 756.70   Q 866.70 753.68 872.83 741.74   A 0.62 0.62 0.0 0 0 872.28 740.84   L 719.94 740.84   A 0.51 0.51 0.0 0 1 719.48 740.10   L 728.64 721.72   A 1.50 1.49 13.1 0 1 729.98 720.89   L 874.25 720.89   A 1.33 1.32 -76.4 0 0 875.43 720.16   L 892.34 686.19   A 0.70 0.70 0.0 0 0 891.75 685.18   Q 885.56 684.87 875.93 684.88   Q 787.88 684.89 776.25 684.90   C 769.84 684.91 762.72 684.52 755.58 684.78   Q 739.73 685.34 727.00 685.08   Q 724.06 685.02 723.22 684.67   Z   M 869.28 776.71   A 0.41 0.41 0.0 0 0 869.63 777.28   C 876.53 777.62 883.68 777.19 891.12 777.21   Q 920.19 777.28 1051.64 777.24   Q 1067.25 777.23 1071.75 775.89   Q 1083.19 772.48 1092.22 763.35   Q 1095.22 760.31 1098.92 753.00   Q 1113.84 723.46 1119.74 711.71   C 1122.35 706.53 1124.56 698.54 1121.33 693.24   C 1119.27 689.87 1114.50 687.51 1110.68 686.31   C 1104.55 684.38 1099.25 684.64 1090.71 684.63   Q 1016.52 684.57 983.00 684.58   C 979.36 684.59 972.32 685.00 975.36 679.09   Q 977.99 673.99 979.43 671.61   C 982.23 666.98 986.78 666.51 992.16 666.49   Q 1051.42 666.31 1113.75 666.32   Q 1120.77 666.32 1130.33 666.36   A 1.10 1.09 -77.9 0 0 1131.33 665.71   C 1133.83 660.04 1137.05 655.37 1139.25 649.90   Q 1141.68 643.83 1148.44 632.20   Q 1149.23 630.83 1149.75 629.45   A 0.90 0.90 0.0 0 0 1148.99 628.23   Q 1146.12 627.97 1143.25 628.14   C 1134.11 628.71 1127.99 628.35 1118.86 628.36   Q 1058.38 628.44 986.76 628.40   C 981.18 628.40 975.29 627.91 970.74 628.41   Q 961.00 629.48 952.07 633.08   C 944.29 636.23 937.94 643.01 932.93 649.60   A 6.73 6.52 76.8 0 0 932.17 650.87   C 929.25 657.33 928.17 660.18 924.91 665.81   C 922.31 670.30 920.43 675.53 917.68 680.12   Q 914.32 685.71 912.41 690.89   Q 910.47 696.16 910.37 698.44   Q 909.89 710.08 918.98 715.24   C 927.51 720.07 934.66 719.87 946.27 719.89   Q 998.41 719.95 1022.00 719.91   C 1030.28 719.90 1038.18 720.59 1045.99 720.02   C 1049.80 719.75 1053.37 722.59 1051.16 726.65   Q 1049.65 729.41 1046.36 735.46   C 1044.73 738.47 1042.12 741.06 1038.75 741.07   Q 990.08 741.20 905.50 741.07   Q 898.80 741.06 887.24 741.37   A 0.94 0.92 14.1 0 0 886.45 741.83   Q 882.76 748.07 881.23 751.83   Q 878.54 758.45 876.39 762.04   Q 873.96 766.12 869.28 776.71   Z   M 1221.64 666.64   A 0.27 0.27 0.0 0 1 1221.88 667.03   L 1166.50 776.57   A 0.66 0.65 13.3 0 0 1167.09 777.52   L 1221.93 777.52   A 2.16 2.15 -76.5 0 0 1223.85 776.34   L 1278.99 667.27   A 1.04 1.04 0.0 0 1 1279.92 666.70   L 1347.18 666.70   A 1.19 1.17 -76.4 0 0 1348.23 666.05   L 1366.72 629.48   A 0.53 0.53 0.0 0 0 1366.24 628.71   Q 1283.71 628.62 1186.75 628.64   Q 1170.62 628.64 1166.47 629.14   A 1.19 1.19 0.0 0 0 1165.61 629.69   Q 1159.19 640.09 1155.27 649.24   C 1152.60 655.45 1150.92 657.94 1147.68 663.45   Q 1146.68 665.15 1146.51 666.16   A 0.41 0.41 0.0 0 0 1146.91 666.64   L 1221.64 666.64   Z   M 1315.56 876.25   A 0.50 0.50 0.0 0 1 1316.01 876.97   L 1309.51 890.17   A 1.05 1.05 0.0 0 1 1308.57 890.75   Q 1254.72 890.82 1248.25 890.79   C 1243.06 890.77 1233.60 891.64 1236.79 884.00   C 1240.10 876.05 1245.88 866.43 1250.23 857.49   Q 1256.97 843.68 1258.77 840.53   Q 1261.10 836.46 1265.18 834.53   Q 1267.69 833.35 1273.88 833.35   Q 1350.36 833.39 1368.00 833.42   Q 1371.82 833.43 1372.77 833.19   A 1.08 1.07 6.1 0 0 1373.47 832.63   L 1387.70 804.87   A 0.64 0.63 23.2 0 0 1387.34 803.98   Q 1387.01 803.87 1386.75 803.88   Q 1385.68 803.93 1267.26 803.80   Q 1251.70 803.79 1246.83 805.19   C 1236.70 808.12 1226.30 816.02 1221.97 826.22   Q 1219.73 831.52 1215.91 838.40   Q 1214.21 841.45 1207.32 855.28   Q 1198.93 872.11 1192.93 883.66   Q 1189.92 889.46 1187.46 895.19   C 1183.90 903.50 1186.19 912.06 1194.41 916.05   Q 1199.24 918.39 1203.23 918.39   Q 1281.39 918.32 1336.10 918.38   A 1.10 1.10 0.0 0 0 1337.09 917.76   L 1369.90 851.12   A 0.47 0.47 0.0 0 0 1369.48 850.44   L 1289.56 850.44   A 2.00 2.00 0.0 0 0 1287.77 851.55   L 1275.94 875.58   A 0.47 0.46 13.1 0 0 1276.36 876.25   L 1315.56 876.25   Z   M 779.78 918.55   A 0.68 0.68 0.0 0 0 780.39 918.18   L 837.48 805.25   A 0.68 0.68 0.0 0 0 836.87 804.26   L 794.10 804.26   A 0.68 0.68 0.0 0 0 793.49 804.63   L 736.40 917.56   A 0.68 0.68 0.0 0 0 737.01 918.55   L 779.78 918.55   Z   M 928.44 918.55   A 0.76 0.76 0.0 0 0 929.12 918.13   L 942.30 892.06   A 0.76 0.76 0.0 0 0 941.62 890.96   L 854.09 890.96   A 0.76 0.76 0.0 0 1 853.42 889.85   L 896.71 805.41   A 0.76 0.76 0.0 0 0 896.04 804.30   L 851.59 804.30   A 0.76 0.76 0.0 0 0 850.91 804.72   L 793.92 917.45   A 0.76 0.76 0.0 0 0 794.60 918.55   L 928.44 918.55   Z   M 941.21 918.55   L 985.26 918.55   A 1.05 1.04 13.5 0 0 986.19 917.99   Q 987.98 914.55 989.83 910.31   C 991.99 905.38 995.16 900.38 997.20 895.45   C 999.77 889.22 1003.66 882.72 1006.24 877.06   C 1009.76 869.38 1014.42 861.60 1017.13 855.21   Q 1019.68 849.18 1022.04 844.81   Q 1026.74 836.12 1033.17 822.43   C 1035.57 817.32 1039.57 811.05 1042.00 805.24   A 0.85 0.84 11.3 0 0 1041.22 804.07   L 997.26 804.07   A 0.91 0.90 -76.7 0 0 996.45 804.58   L 940.72 917.76   A 0.55 0.55 0.0 0 0 941.21 918.55   Z   M 1000.10 918.45   L 1044.50 918.45   A 0.74 0.73 12.9 0 0 1045.16 918.04   L 1081.01 848.13   A 0.47 0.47 0.0 0 1 1081.83 848.09   L 1125.90 917.62   A 1.66 1.66 0.0 0 0 1127.30 918.39   L 1162.93 918.39   A 1.27 1.26 -76.7 0 0 1164.06 917.69   L 1220.26 804.84   A 0.37 0.37 0.0 0 0 1219.96 804.31   C 1211.86 803.67 1204.45 804.36 1197.23 804.08   Q 1187.42 803.71 1177.92 804.30   A 1.31 1.29 -78.0 0 0 1176.83 805.02   L 1144.55 870.58   A 0.60 0.60 0.0 0 1 1143.51 870.64   L 1101.80 804.83   A 1.56 1.56 0.0 0 0 1100.48 804.10   L 1057.12 804.10   A 1.35 1.34 13.1 0 0 1055.91 804.85   L 999.68 917.77   A 0.47 0.47 0.0 0 0 1000.10 918.45   Z   M 55.16 918.57   Q 56.91 918.76 59.75 918.74   Q 82.04 918.64 179.01 918.76   Q 192.23 918.77 197.35 917.32   Q 208.34 914.19 216.79 904.94   Q 219.58 901.87 221.97 896.53   C 226.34 886.78 230.62 879.84 235.59 869.57   Q 239.96 860.56 244.22 852.63   C 248.09 845.41 251.51 837.71 254.42 832.38   Q 258.43 825.02 258.63 820.24   C 259.02 810.65 250.80 804.24 241.76 804.25   Q 146.01 804.30 115.50 804.18   Q 113.00 804.17 112.12 804.42   A 1.74 1.72 -83.9 0 0 111.03 805.31   L 54.67 917.67   A 0.62 0.62 0.0 0 0 55.16 918.57   Z   M 223.84 918.76   L 380.80 918.76   A 0.96 0.95 -75.9 0 0 381.64 918.25   L 395.56 891.09   A 0.67 0.67 0.0 0 0 394.96 890.11   L 282.32 890.11   A 0.60 0.60 0.0 0 1 281.78 889.24   L 288.21 876.70   A 1.12 1.11 13.6 0 1 289.20 876.10   L 398.84 876.10   A 0.73 0.72 13.2 0 0 399.49 875.70   L 413.58 848.22   A 0.43 0.42 13.4 0 0 413.19 847.60   L 303.64 847.60   A 0.48 0.47 -76.3 0 1 303.23 846.91   L 309.15 835.35   A 1.75 1.75 0.0 0 1 310.70 834.41   L 421.02 834.41   A 1.51 1.51 0.0 0 0 422.37 833.58   L 436.80 805.03   A 0.49 0.49 0.0 0 0 436.36 804.31   L 281.50 804.31   A 1.61 1.59 14.8 0 0 280.11 805.11   Q 276.70 811.01 273.61 817.37   C 267.71 829.52 263.47 837.47 256.00 852.21   Q 250.92 862.24 249.03 866.24   C 245.03 874.69 241.72 880.40 238.16 887.90   C 234.63 895.32 233.33 898.21 228.73 906.70   Q 226.42 910.96 223.34 917.98   A 0.56 0.55 -78.1 0 0 223.84 918.76   Z   M 493.74 835.09   L 451.40 917.68   A 0.71 0.71 0.0 0 0 452.03 918.71   L 494.68 918.71   A 0.87 0.86 13.5 0 0 495.45 918.24   L 537.93 835.38   A 1.76 1.75 13.6 0 1 539.49 834.43   L 589.63 834.43   A 1.98 1.97 -76.5 0 0 591.39 833.35   L 605.47 805.89   A 1.11 1.11 0.0 0 0 604.64 804.28   Q 604.34 804.24 603.75 804.24   Q 518.07 804.42 456.00 804.29   Q 452.06 804.29 451.39 804.71   A 1.75 1.66 88.6 0 0 450.81 805.35   L 436.53 833.66   A 0.53 0.53 0.0 0 0 437.00 834.43   L 493.34 834.43   A 0.45 0.45 0.0 0 1 493.74 835.09   Z   M 680.58 917.92   A 0.48 0.47 -76.5 0 0 681.00 918.61   L 723.78 918.61   A 0.62 0.60 -76.3 0 0 724.32 918.27   Q 736.19 894.13 748.40 871.03   C 750.89 866.32 752.77 861.59 755.21 857.44   C 759.33 850.40 763.30 841.26 767.21 834.50   C 771.77 826.60 778.52 812.84 767.40 806.63   Q 763.25 804.32 759.81 804.32   Q 649.41 804.35 646.21 804.27   Q 636.02 803.98 630.44 805.69   Q 620.64 808.68 613.55 815.77   Q 608.28 821.04 605.89 825.91   Q 597.85 842.34 591.46 853.92   C 589.16 858.09 587.04 863.13 584.50 868.02   Q 578.03 880.50 558.93 918.18   A 0.35 0.34 13.6 0 0 559.24 918.68   L 602.29 918.68   A 1.52 1.51 13.4 0 0 603.64 917.86   L 624.44 877.28   A 1.76 1.76 0.0 0 1 626.01 876.32   L 700.62 876.32   A 0.61 0.60 13.5 0 1 701.16 877.20   L 680.58 917.92   Z   M 1214.68 999.48   Q 1215.28 995.55 1215.52 992.05   Q 1215.62 990.61 1217.52 985.22   C 1218.73 981.78 1220.84 979.31 1223.83 978.08   Q 1231.41 974.93 1240.85 974.47   A 0.23 0.23 0.0 0 0 1241.07 974.24   L 1241.07 974.23   A 0.27 0.26 -88.9 0 0 1240.82 973.96   C 1234.39 973.47 1221.65 972.10 1218.59 965.40   Q 1215.25 958.08 1214.74 949.76   A 0.25 0.25 0.0 0 0 1214.24 949.72   C 1212.93 956.20 1211.93 966.59 1205.45 969.97   C 1200.40 972.61 1193.95 973.59 1188.10 974.00   A 0.02 0.01 -90.0 0 0 1188.09 974.02   L 1188.09 974.27   A 0.21 0.21 0.0 0 0 1188.29 974.48   Q 1194.52 974.86 1200.22 976.30   C 1205.69 977.69 1209.33 979.75 1211.16 984.99   Q 1213.37 991.33 1214.05 999.46   A 0.32 0.32 0.0 0 0 1214.68 999.48   Z   M 318.37 969.97   L 318.39 984.61   A 0.97 0.96 -0.1 0 0 319.36 985.56   L 322.97 985.56   A 0.98 0.97 -0.1 0 0 323.95 984.59   L 323.91 962.14   A 1.08 1.08 0.0 0 0 322.82 961.06   L 319.64 961.06   A 1.51 1.51 0.0 0 0 318.43 961.67   L 308.44 975.15   A 0.88 0.88 0.0 0 1 307.02 975.15   L 297.12 961.74   A 1.29 1.28 -18.3 0 0 296.09 961.23   L 292.32 961.24   A 0.70 0.70 0.0 0 0 291.63 961.94   L 291.67 984.90   A 0.76 0.76 0.0 0 0 292.43 985.66   L 295.37 985.65   A 0.89 0.89 0.0 0 0 296.26 984.76   L 296.23 969.58   A 0.36 0.36 0.0 0 1 296.87 969.37   L 306.31 982.15   A 1.35 1.35 0.0 0 0 308.48 982.15   L 317.68 969.75   A 0.38 0.38 0.0 0 1 318.37 969.97   Z   M 391.5382 966.1194   A 4.96 4.96 0.0 0 0 386.6043 961.1335   L 366.2245 961.0268   A 4.96 4.96 0.0 0 0 361.2386 965.9608   L 361.1618 980.6406   A 4.96 4.96 0.0 0 0 366.0957 985.6265   L 386.4755 985.7332   A 4.96 4.96 0.0 0 0 391.4614 980.7992   L 391.5382 966.1194   Z   M 428.94 973.43   Q 429.00 979.23 429.23 984.86   A 0.71 0.71 0.0 0 0 429.93 985.54   Q 438.83 985.63 448.84 985.46   C 452.03 985.40 455.37 984.74 455.57 981.10   Q 455.76 977.78 455.36 975.98   A 2.27 2.21 -70.9 0 0 454.95 975.09   Q 454.72 974.79 453.37 973.63   Q 453.29 973.56 453.23 973.43   Q 453.19 973.32 453.19 973.18   Q 453.19 973.07 453.23 972.96   Q 453.28 972.83 453.36 972.75   Q 454.69 971.57 454.91 971.27   A 2.27 2.21 69.8 0 0 455.31 970.37   Q 455.68 968.57 455.42 965.25   C 455.15 961.61 451.80 961.01 448.61 961.02   Q 438.60 961.04 429.70 961.30   A 0.71 0.71 0.0 0 0 429.01 961.99   Q 428.89 967.62 428.94 973.43   Z   M 594.23 984.59   A 0.90 0.90 0.0 0 0 595.13 985.49   L 618.47 985.49   A 0.90 0.90 0.0 0 0 619.37 984.59   L 619.37 981.94   A 0.90 0.90 0.0 0 0 618.47 981.04   L 600.92 981.04   A 0.90 0.90 0.0 0 1 600.02 980.14   L 600.02 975.75   A 0.90 0.90 0.0 0 1 600.92 974.85   L 610.64 974.85   A 0.90 0.90 0.0 0 0 611.54 973.95   L 611.54 971.85   A 0.90 0.90 0.0 0 0 610.64 970.95   L 600.84 970.95   A 0.90 0.90 0.0 0 1 599.94 970.05   L 599.94 966.34   A 0.90 0.90 0.0 0 1 600.84 965.44   L 618.50 965.44   A 0.90 0.90 0.0 0 0 619.40 964.54   L 619.40 962.08   A 0.90 0.90 0.0 0 0 618.50 961.18   L 595.13 961.18   A 0.90 0.90 0.0 0 0 594.23 962.08   L 594.23 984.59   Z   M 910.19 973.45   Q 910.23 979.32 910.45 985.00   A 0.72 0.71 -0.6 0 0 911.15 985.69   Q 920.14 985.80 930.25 985.65   C 933.47 985.60 936.85 984.94 937.06 981.26   Q 937.26 977.91 936.86 976.09   A 2.29 2.23 -70.8 0 0 936.44 975.19   Q 936.21 974.89 934.85 973.72   Q 934.77 973.65 934.71 973.52   Q 934.67 973.40 934.67 973.26   Q 934.67 973.15 934.71 973.04   Q 934.76 972.90 934.84 972.83   Q 936.19 971.64 936.41 971.34   A 2.29 2.23 70.0 0 0 936.82 970.43   Q 937.19 968.61 936.94 965.26   C 936.68 961.58 933.29 960.97 930.07 960.97   Q 919.96 960.97 910.97 961.21   A 0.72 0.71 -0.2 0 0 910.28 961.90   Q 910.14 967.59 910.19 973.45   Z   M 1115.31 961.23   A 0.67 0.67 0.0 0 0 1114.73 961.57   L 1101.50 984.48   A 0.67 0.67 0.0 0 0 1102.08 985.48   L 1106.49 985.48   A 0.67 0.67 0.0 0 0 1107.07 985.14   L 1109.68 980.63   A 0.67 0.67 0.0 0 1 1110.26 980.29   L 1124.37 980.29   A 0.67 0.67 0.0 0 1 1124.95 980.62   L 1127.63 985.26   A 0.67 0.67 0.0 0 0 1128.21 985.59   L 1133.01 985.59   A 0.67 0.67 0.0 0 0 1133.59 984.59   L 1120.30 961.57   A 0.67 0.67 0.0 0 0 1119.72 961.23   L 1115.31 961.23   Z   M 497.82 962.10   A 0.73 0.73 0.0 0 0 497.09 961.37   L 492.89 961.37   A 0.73 0.73 0.0 0 0 492.16 962.10   L 492.16 984.70   A 0.73 0.73 0.0 0 0 492.89 985.43   L 497.09 985.43   A 0.73 0.73 0.0 0 0 497.82 984.70   L 497.82 962.10   Z   M 541.65 962.17   A 0.85 0.85 0.0 0 0 540.80 961.32   L 536.80 961.32   A 0.85 0.85 0.0 0 0 535.95 962.17   L 535.95 984.61   A 0.85 0.85 0.0 0 0 536.80 985.46   L 559.02 985.46   A 0.85 0.85 0.0 0 0 559.87 984.61   L 559.87 981.87   A 0.85 0.85 0.0 0 0 559.02 981.02   L 542.50 981.02   A 0.85 0.85 0.0 0 1 541.65 980.17   L 541.65 962.17   Z   M 751.09 985.53   L 754.73 985.55   A 0.65 0.65 0.0 0 0 755.31 984.59   L 742.95 961.92   A 1.07 1.06 -13.6 0 0 742.04 961.36   L 737.58 961.25   A 0.91 0.91 0.0 0 0 736.77 961.70   L 723.90 984.30   A 0.75 0.75 0.0 0 0 724.53 985.42   L 728.17 985.49   A 2.14 2.12 14.6 0 0 730.10 984.38   L 731.93 980.90   A 1.31 1.29 -75.4 0 1 733.08 980.21   L 746.45 980.32   A 1.46 1.46 0.0 0 1 747.72 981.08   L 749.66 984.68   A 1.62 1.62 0.0 0 0 751.09 985.53   Z   M 789.98 962.21   L 790.12 985.02   A 0.46 0.46 0.0 0 0 790.58 985.48   L 813.26 985.50   A 0.83 0.83 0.0 0 0 814.09 984.66   L 814.03 981.95   A 0.96 0.96 0.0 0 0 813.06 981.01   L 796.56 981.05   A 0.78 0.78 0.0 0 1 795.78 980.27   L 795.74 962.27   A 0.94 0.94 0.0 0 0 794.80 961.33   L 790.85 961.32   A 0.88 0.88 0.0 0 0 789.98 962.21   Z   M 848.51 985.42   A 1.63 1.63 0.0 0 0 849.96 984.57   L 851.93 980.99   A 1.46 1.46 0.0 0 1 853.20 980.24   L 866.58 980.23   A 1.31 1.29 75.8 0 1 867.72 980.93   L 869.54 984.42   A 2.14 2.12 -14.2 0 0 871.46 985.55   L 875.10 985.50   A 0.75 0.75 0.0 0 0 875.74 984.39   L 863.03 961.68   A 0.91 0.91 0.0 0 0 862.22 961.22   L 857.75 961.30   A 1.07 1.06 14.0 0 0 856.84 961.85   L 844.30 984.45   A 0.65 0.65 0.0 0 0 844.87 985.41   L 848.51 985.42   Z   M 997.08 985.51   L 1000.73 985.52   A 0.65 0.65 0.0 0 0 1001.30 984.56   L 988.89 961.84   A 1.07 1.07 0.0 0 0 987.97 961.29   L 983.50 961.18   A 0.91 0.91 0.0 0 0 982.68 961.64   L 969.82 984.31   A 0.75 0.75 0.0 0 0 970.45 985.43   L 974.10 985.50   A 2.14 2.13 14.6 0 0 976.03 984.37   L 977.87 980.89   A 1.31 1.29 -75.5 0 1 979.02 980.20   L 992.42 980.29   A 1.46 1.46 0.0 0 1 993.69 981.05   L 995.64 984.65   A 1.63 1.63 0.0 0 0 997.08 985.51   Z   M 1062.48 970.05   L 1062.48 984.54   A 0.96 0.95 0.0 0 0 1063.44 985.49   L 1067.01 985.49   A 0.97 0.96 0.0 0 0 1067.98 984.53   L 1067.98 962.30   A 1.07 1.07 0.0 0 0 1066.91 961.23   L 1063.76 961.23   A 1.50 1.50 0.0 0 0 1062.56 961.83   L 1052.64 975.16   A 0.87 0.87 0.0 0 1 1051.24 975.15   L 1041.46 961.86   A 1.28 1.27 -18.2 0 0 1040.44 961.35   L 1036.71 961.35   A 0.69 0.69 0.0 0 0 1036.02 962.04   L 1036.02 984.78   A 0.75 0.75 0.0 0 0 1036.77 985.53   L 1039.68 985.53   A 0.88 0.88 0.0 0 0 1040.56 984.65   L 1040.56 969.62   A 0.36 0.35 26.7 0 1 1041.20 969.41   L 1050.52 982.08   A 1.34 1.34 0.0 0 0 1052.67 982.09   L 1061.80 969.83   A 0.38 0.38 0.0 0 1 1062.48 970.05   Z   M 648.99 985.17   A 0.58 0.58 0.0 0 1 649.49 986.04   L 648.02 988.58   A 0.59 0.59 0.0 0 0 648.90 989.34   Q 652.84 986.28 652.10 981.48   A 0.96 0.95 -4.2 0 0 651.15 980.67   L 648.12 980.67   A 0.63 0.63 0.0 0 0 647.49 981.30   L 647.49 984.51   A 0.67 0.66 -0.0 0 0 648.16 985.17   L 648.99 985.17   Z"/>
<path xmlns="http://www.w3.org/2000/svg" fill="#fbfbfb" d="M 294.19 576.55   A 0.43 0.42 19.2 0 1 294.49 577.16   L 279.99 604.84   A 2.12 2.12 0.0 0 1 278.35 605.97   Q 276.22 606.22 269.25 606.23   Q 205.85 606.30 150.98 606.23   Q 142.77 606.22 140.55 605.88   C 132.56 604.63 126.12 600.14 123.81 591.95   C 122.07 585.82 124.46 579.24 127.94 572.63   Q 132.08 564.79 133.80 561.33   C 137.81 553.29 142.51 545.17 145.46 539.01   C 149.61 530.34 154.09 522.93 157.74 515.33   Q 161.11 508.34 164.66 504.29   C 175.61 491.81 191.98 484.17 208.75 484.20   Q 306.82 484.36 334.79 484.09   Q 335.83 484.08 340.34 484.32   A 0.60 0.60 0.0 0 1 340.84 485.20   L 324.94 515.57   A 1.07 1.07 0.0 0 1 323.99 516.15   Q 221.70 516.20 217.64 516.12   C 211.06 516.00 206.37 517.96 203.58 523.66   C 200.86 529.20 197.18 535.20 193.26 542.81   Q 184.88 559.07 179.71 568.72   C 178.73 570.55 177.74 573.20 179.46 574.81   Q 181.08 576.33 183.51 576.33   Q 289.07 576.32 293.00 576.39   Q 293.43 576.40 294.19 576.55   Z"/>
<path xmlns="http://www.w3.org/2000/svg" fill="#fbfbfb" d="M 923.07 484.24   L 1085.02 484.24   A 0.54 0.54 0.0 0 1 1085.50 485.03   L 1069.31 515.95   A 0.54 0.54 0.0 0 1 1068.83 516.24   L 1015.69 516.24   A 0.54 0.54 0.0 0 0 1015.21 516.53   L 968.39 605.94   A 0.54 0.54 0.0 0 1 967.91 606.23   L 922.24 606.23   A 0.54 0.54 0.0 0 1 921.76 605.44   L 968.09 516.97   A 0.54 0.54 0.0 0 0 967.61 516.18   L 906.90 516.18   A 0.54 0.54 0.0 0 1 906.42 515.39   L 922.59 484.53   A 0.54 0.54 0.0 0 1 923.07 484.24   Z"/>
<path xmlns="http://www.w3.org/2000/svg" fill="#fbfbfb" d="M 485.76 576.70   Q 485.39 577.34 480.59 586.14   Q 472.23 601.47 455.63 605.09   C 450.73 606.16 443.59 606.28 439.00 606.27   C 380.17 606.23 344.56 606.44 323.51 606.14   Q 317.09 606.04 314.12 605.12   C 302.18 601.40 298.90 590.63 303.28 579.52   Q 304.36 576.80 311.60 563.29   Q 314.65 557.61 316.06 554.50   C 319.12 547.78 322.32 542.79 325.72 535.66   C 330.75 525.11 337.34 513.94 341.83 504.83   C 345.28 497.82 352.23 492.63 359.42 488.92   C 366.42 485.31 371.90 484.24 380.45 484.25   Q 451.97 484.31 508.00 484.22   C 520.32 484.20 528.57 494.15 522.85 505.87   Q 515.45 521.03 511.61 527.90   C 507.06 536.03 504.49 542.28 500.22 549.57   Q 498.80 552.00 495.67 558.25   Q 491.92 565.72 485.76 576.70   Z   M 412.84 576.32   Q 420.63 576.33 428.53 576.31   Q 434.86 576.29 437.37 575.41   Q 441.77 573.87 443.98 569.64   Q 463.36 532.72 467.66 524.52   Q 469.27 521.45 469.26 520.31   C 469.26 517.76 467.00 516.27 464.64 516.27   Q 418.80 516.25 412.75 516.25   Q 404.96 516.25 397.06 516.26   Q 390.73 516.28 388.22 517.16   Q 383.82 518.70 381.61 522.93   Q 362.23 559.85 357.93 568.05   Q 356.32 571.12 356.33 572.26   C 356.33 574.81 358.59 576.30 360.95 576.30   Q 406.80 576.32 412.84 576.32   Z"/>
<path xmlns="http://www.w3.org/2000/svg" fill="#fbfbfb" d="M 616.38 606.21   A 0.51 0.50 13.8 0 1 615.93 605.47   L 638.96 561.50   A 0.44 0.44 0.0 0 0 638.57 560.86   L 555.26 560.86   A 1.98 1.96 13.6 0 0 553.51 561.92   L 530.69 605.50   A 1.32 1.30 -76.0 0 1 529.53 606.21   L 482.16 606.21   A 0.55 0.55 0.0 0 1 481.68 605.40   Q 488.12 593.31 492.32 585.81   C 494.95 581.11 497.97 573.86 500.94 568.39   C 506.16 558.79 510.32 549.29 515.50 540.86   C 518.44 536.08 520.49 530.48 523.55 525.38   Q 526.07 521.17 530.37 512.44   Q 534.61 503.81 537.88 499.98   Q 547.11 489.13 560.43 485.51   Q 565.01 484.26 573.71 484.26   Q 699.92 484.23 702.75 484.26   C 715.24 484.39 722.28 494.49 716.60 505.87   Q 708.26 522.55 706.64 525.32   C 700.01 536.69 694.64 549.01 688.20 560.20   C 685.23 565.35 683.32 570.31 680.38 575.45   Q 676.93 581.49 674.72 586.12   C 671.13 593.65 668.05 598.55 664.62 605.64   A 1.02 1.01 -76.8 0 1 663.71 606.21   L 616.38 606.21   Z   M 571.26 530.80   L 654.68 530.80   A 1.06 1.04 13.2 0 0 655.62 530.23   L 660.63 520.21   A 2.57 2.57 0.0 0 0 659.70 516.89   Q 658.81 516.28 656.75 516.26   Q 649.12 516.20 586.74 516.21   C 576.62 516.21 574.86 522.46 570.78 529.98   A 0.55 0.55 0.0 0 0 571.26 530.80   Z"/>
<path xmlns="http://www.w3.org/2000/svg" fill="#fbfbfb" d="M 908.43 484.45   A 0.45 0.45 0.0 0 1 908.66 485.08   L 892.66 515.62   A 0.86 0.84 -76.0 0 1 891.91 516.08   Q 835.91 516.21 776.76 516.15   Q 772.87 516.14 769.75 519.43   A 1.90 1.73 -12.5 0 0 769.44 519.87   L 765.66 527.41   A 1.64 1.64 0.0 0 0 766.27 529.55   Q 767.53 530.32 769.77 530.32   Q 862.80 530.35 867.02 530.34   C 872.87 530.34 881.91 532.02 885.17 537.52   C 887.29 541.08 886.03 547.24 884.23 550.74   Q 876.51 565.77 868.18 580.94   C 864.69 587.29 860.89 592.52 855.55 596.76   Q 843.61 606.24 825.76 606.23   Q 723.22 606.15 701.15 606.28   C 694.36 606.32 686.92 605.97 679.58 606.03   A 0.66 0.66 0.0 0 1 678.99 605.07   L 693.46 576.83   A 1.25 1.24 13.1 0 1 694.55 576.16   Q 718.77 575.90 735.25 576.03   C 755.31 576.18 784.96 576.19 819.83 575.89   C 823.12 575.87 824.89 574.02 826.50 570.99   C 828.11 567.95 830.98 563.80 829.99 561.52   C 829.15 559.60 825.13 559.72 823.02 559.73   Q 744.74 559.91 730.51 559.62   Q 726.25 559.54 720.96 557.32   C 709.68 552.59 709.87 541.07 715.39 531.48   Q 721.27 521.25 724.24 515.05   Q 728.81 505.48 732.91 500.72   Q 742.06 490.11 756.03 486.03   Q 762.36 484.18 767.25 484.18   Q 906.84 484.23 907.50 484.26   Q 908.04 484.28 908.43 484.45   Z"/>
<path xmlns="http://www.w3.org/2000/svg" fill="#fbfbfb" d="M 1032.92 606.19   A 0.39 0.39 0.0 0 1 1032.58 605.62   Q 1057.40 557.99 1073.88 525.78   C 1076.95 519.79 1080.76 513.57 1083.91 507.14   Q 1086.93 500.99 1089.55 498.14   C 1094.89 492.34 1102.18 487.92 1109.72 485.47   Q 1113.64 484.20 1122.89 484.24   Q 1144.89 484.33 1248.24 484.26   Q 1252.06 484.25 1256.33 486.38   C 1264.42 490.40 1264.70 499.34 1261.10 506.60   Q 1254.50 519.87 1249.39 529.14   Q 1244.97 537.13 1242.56 542.61   C 1240.02 548.38 1235.99 554.73 1233.14 560.43   Q 1227.08 572.54 1209.77 605.43   A 1.42 1.42 0.0 0 1 1208.52 606.18   L 1163.76 606.18   A 0.73 0.73 0.0 0 1 1163.11 605.11   L 1185.78 561.81   A 0.58 0.58 0.0 0 0 1185.27 560.96   L 1103.80 560.96   A 1.64 1.63 -76.2 0 0 1102.35 561.84   L 1079.51 605.46   A 1.38 1.37 -75.8 0 1 1078.30 606.19   L 1032.92 606.19   Z   M 1119.54 530.63   L 1201.19 530.65   A 1.04 1.02 13.3 0 0 1202.11 530.09   L 1207.02 520.28   A 2.51 2.51 0.0 0 0 1206.11 517.03   Q 1205.24 516.43 1203.22 516.41   Q 1195.75 516.35 1134.70 516.35   C 1124.79 516.35 1123.07 522.47 1119.07 529.83   A 0.54 0.54 0.0 0 0 1119.54 530.63   Z"/>
<path xmlns="http://www.w3.org/2000/svg" fill="#fbfbfb" d="M 1284.90 576.34   L 1381.58 576.34   A 0.62 0.62 0.0 0 1 1382.12 577.25   L 1367.10 605.94   A 0.62 0.62 0.0 0 1 1366.55 606.27   L 1221.58 606.27   A 0.62 0.62 0.0 0 1 1221.03 605.37   L 1282.95 484.59   A 0.62 0.62 0.0 0 1 1283.50 484.25   L 1331.08 484.25   A 0.62 0.62 0.0 0 1 1331.62 485.16   L 1284.36 575.43   A 0.62 0.62 0.0 0 0 1284.90 576.34   Z"/>
<path xmlns="http://www.w3.org/2000/svg" fill="#0a0a0a" d="M 412.75 516.25   Q 418.80 516.25 464.64 516.27   C 467.00 516.27 469.26 517.76 469.26 520.31   Q 469.27 521.45 467.66 524.52   Q 463.36 532.72 443.98 569.64   Q 441.77 573.87 437.37 575.41   Q 434.86 576.29 428.53 576.31   Q 420.63 576.33 412.84 576.32   Q 406.80 576.32 360.95 576.30   C 358.59 576.30 356.33 574.81 356.33 572.26   Q 356.32 571.12 357.93 568.05   Q 362.23 559.85 381.61 522.93   Q 383.82 518.70 388.22 517.16   Q 390.73 516.28 397.06 516.26   Q 404.96 516.25 412.75 516.25   Z"/>
<path xmlns="http://www.w3.org/2000/svg" fill="#0a0a0a" d="M 571.26 530.80   A 0.55 0.55 0.0 0 1 570.78 529.98   C 574.86 522.46 576.62 516.21 586.74 516.21   Q 649.12 516.20 656.75 516.26   Q 658.81 516.28 659.70 516.89   A 2.57 2.57 0.0 0 1 660.63 520.21   L 655.62 530.23   A 1.06 1.04 13.2 0 1 654.68 530.80   L 571.26 530.80   Z"/>
<path xmlns="http://www.w3.org/2000/svg" fill="#0a0a0a" d="M 1119.54 530.63   A 0.54 0.54 0.0 0 1 1119.07 529.83   C 1123.07 522.47 1124.79 516.35 1134.70 516.35   Q 1195.75 516.35 1203.22 516.41   Q 1205.24 516.43 1206.11 517.03   A 2.51 2.51 0.0 0 1 1207.02 520.28   L 1202.11 530.09   A 1.04 1.02 13.3 0 1 1201.19 530.65   L 1119.54 530.63   Z"/>
<path xmlns="http://www.w3.org/2000/svg" fill="#b7884c" d="M 182.46 684.65   Q 184.13 685.06 184.75 685.05   C 190.71 684.97 195.97 684.75 202.74 685.10   C 208.54 685.41 213.90 684.86 220.07 684.87   Q 270.99 684.97 337.50 684.97   Q 338.82 684.97 348.82 685.17   A 0.87 0.87 0.0 0 1 349.58 686.44   L 332.72 719.33   A 2.33 2.33 0.0 0 1 330.65 720.59   L 189.09 720.59   A 1.26 1.25 -76.5 0 0 187.97 721.28   L 159.65 776.51   A 1.34 1.34 0.0 0 1 158.45 777.25   L 99.62 777.25   A 0.48 0.47 11.4 0 1 99.18 776.59   C 101.59 770.78 105.67 764.46 107.97 758.65   C 109.62 754.48 112.51 749.81 114.75 745.23   Q 124.36 725.56 132.52 709.73   C 134.89 705.13 137.14 699.96 139.67 695.16   Q 144.88 685.27 147.66 679.15   C 150.85 672.10 154.70 665.96 158.19 658.44   Q 160.68 653.07 164.39 646.07   C 168.02 639.23 170.34 634.07 173.75 628.76   A 1.55 1.53 16.0 0 1 175.05 628.05   L 385.23 628.05   A 0.59 0.59 0.0 0 1 385.77 628.89   C 384.75 631.15 382.75 633.68 381.70 636.23   Q 379.56 641.39 376.81 646.10   C 372.61 653.30 369.79 659.36 367.04 665.63   A 1.36 1.34 -77.8 0 1 365.81 666.43   L 217.28 666.43   A 2.25 2.25 0.0 0 0 215.28 667.65   L 209.43 679.07   A 1.33 1.30 7.8 0 1 208.50 679.76   L 182.46 684.57   A 0.04 0.04 0.0 0 0 182.46 684.65   Z"/>
<path xmlns="http://www.w3.org/2000/svg" fill="#b7884c" d="M 326.12 777.24   A 0.61 0.60 -63.7 0 1 325.88 776.53   C 327.71 771.49 331.14 766.44 333.07 761.91   C 335.56 756.10 338.41 751.20 340.99 745.31   Q 344.31 737.71 346.08 734.61   C 348.32 730.70 351.09 725.49 353.19 720.49   Q 356.38 712.88 359.72 706.96   Q 364.39 698.66 365.56 695.94   C 368.82 688.41 372.01 683.18 375.62 675.08   Q 377.41 671.07 380.57 665.64   C 384.47 658.95 386.37 653.02 390.21 646.24   Q 392.90 641.49 395.18 635.78   C 395.97 633.80 397.60 631.25 398.90 628.91   A 1.51 1.51 0.0 0 1 400.23 628.12   L 457.02 628.12   A 1.00 1.00 0.0 0 1 457.91 629.59   Q 449.41 645.65 449.24 645.97   Q 449.12 646.22 446.07 653.30   Q 445.60 654.41 436.49 672.34   C 430.36 684.41 425.09 696.03 419.87 706.05   Q 416.37 712.77 415.25 715.45   C 413.32 720.04 410.78 724.10 409.01 727.93   C 403.79 739.18 399.01 748.03 394.12 758.59   Q 391.07 765.18 387.23 771.71   A 1.05 1.03 -17.8 0 0 387.13 771.90   L 385.49 776.28   A 1.42 1.41 10.0 0 1 384.18 777.19   L 326.35 777.41   A 0.23 0.20 -14.9 0 1 326.17 777.32   Q 326.13 777.24 326.12 777.24   Z"/>
<path xmlns="http://www.w3.org/2000/svg" fill="#b7884c" d="M 698.50 629.10   C 696.30 635.15 692.20 641.36 690.32 646.40   C 688.60 651.05 685.27 655.71 683.48 660.07   Q 680.74 666.74 670.57 686.55   Q 668.75 690.10 663.06 702.47   C 658.91 711.49 655.23 718.78 650.27 728.71   Q 648.21 732.82 645.41 739.34   Q 640.79 750.08 634.39 762.16   C 631.95 766.76 629.92 772.16 627.84 776.45   A 1.53 1.52 -76.9 0 1 626.47 777.31   L 575.83 777.31   A 1.54 1.51 71.4 0 1 574.61 776.69   L 508.93 687.44   A 0.89 0.88 -50.1 0 0 507.42 687.58   L 462.94 776.89   A 0.76 0.76 0.0 0 1 462.26 777.31   L 402.42 777.31   A 0.59 0.58 12.0 0 1 401.88 776.49   Q 404.28 771.13 405.53 768.73   C 408.53 763.00 410.36 757.46 413.12 752.67   C 417.03 745.89 419.12 739.97 423.20 731.93   C 427.41 723.62 430.29 716.46 434.55 708.52   Q 435.14 707.42 439.12 699.17   Q 451.34 673.89 460.54 655.79   C 462.22 652.49 463.69 648.24 465.75 644.56   Q 469.52 637.83 473.88 629.05   A 1.16 1.11 4.3 0 1 474.60 628.46   Q 476.20 628.00 477.75 628.02   C 490.98 628.19 498.69 627.74 511.14 628.15   Q 515.50 628.30 525.37 627.81   A 2.70 2.70 0.0 0 1 527.73 628.96   L 593.71 721.77   A 0.67 0.67 0.0 0 0 594.86 721.67   L 639.89 628.72   A 0.97 0.96 12.6 0 1 640.74 628.19   C 657.66 628.11 668.06 628.40 682.06 627.97   Q 689.11 627.74 698.08 628.46   A 0.48 0.47 12.3 0 1 698.50 629.10   Z"/>
<path xmlns="http://www.w3.org/2000/svg" fill="#b7884c" d="M 723.22 684.67   Q 724.06 685.02 727.00 685.08   Q 739.73 685.34 755.58 684.78   C 762.72 684.52 769.84 684.91 776.25 684.90   Q 787.88 684.89 875.93 684.88   Q 885.56 684.87 891.75 685.18   A 0.70 0.70 0.0 0 1 892.34 686.19   L 875.43 720.16   A 1.33 1.32 -76.4 0 1 874.25 720.89   L 729.98 720.89   A 1.50 1.49 13.1 0 0 728.64 721.72   L 719.48 740.10   A 0.51 0.51 0.0 0 0 719.94 740.84   L 872.28 740.84   A 0.62 0.62 0.0 0 1 872.83 741.74   Q 866.70 753.68 865.06 756.70   C 861.34 763.56 859.32 769.86 855.62 776.57   A 1.34 1.33 14.4 0 1 854.45 777.26   L 642.91 777.26   A 0.73 0.72 12.9 0 1 642.25 776.22   Q 647.04 766.45 649.36 761.14   Q 652.35 754.29 654.83 749.84   Q 657.06 745.86 658.55 742.31   C 661.06 736.35 664.45 730.29 666.70 725.02   Q 668.92 719.80 671.30 715.34   C 674.59 709.17 677.37 702.44 681.23 695.56   C 683.05 692.30 684.63 687.94 686.84 683.68   Q 692.51 672.78 693.63 670.12   Q 696.97 662.22 699.51 657.89   C 702.90 652.13 705.27 645.17 708.89 639.01   C 710.65 635.99 711.73 632.77 713.29 629.22   A 1.36 1.34 -77.8 0 1 714.52 628.42   Q 806.05 628.31 910.28 628.40   C 915.76 628.40 921.61 627.74 926.90 627.94   A 0.97 0.96 -75.2 0 1 927.71 629.35   L 908.78 665.51   A 1.43 1.42 11.1 0 1 907.64 666.27   Q 899.71 666.97 890.72 666.75   Q 879.57 666.47 879.26 666.61   Q 879.09 666.68 778.25 666.67   C 772.92 666.67 764.50 665.98 756.90 666.88   A 1.09 1.09 0.0 0 0 756.10 667.41   L 749.22 679.34   A 1.19 1.17 9.4 0 1 748.41 679.91   L 723.23 684.56   A 0.06 0.06 0.0 0 0 723.22 684.67   Z"/>
<path xmlns="http://www.w3.org/2000/svg" fill="#b7884c" d="M 869.28 776.71   Q 873.96 766.12 876.39 762.04   Q 878.54 758.45 881.23 751.83   Q 882.76 748.07 886.45 741.83   A 0.94 0.92 14.1 0 1 887.24 741.37   Q 898.80 741.06 905.50 741.07   Q 990.08 741.20 1038.75 741.07   C 1042.12 741.06 1044.73 738.47 1046.36 735.46   Q 1049.65 729.41 1051.16 726.65   C 1053.37 722.59 1049.80 719.75 1045.99 720.02   C 1038.18 720.59 1030.28 719.90 1022.00 719.91   Q 998.41 719.95 946.27 719.89   C 934.66 719.87 927.51 720.07 918.98 715.24   Q 909.89 710.08 910.37 698.44   Q 910.47 696.16 912.41 690.89   Q 914.32 685.71 917.68 680.12   C 920.43 675.53 922.31 670.30 924.91 665.81   C 928.17 660.18 929.25 657.33 932.17 650.87   A 6.73 6.52 76.8 0 1 932.93 649.60   C 937.94 643.01 944.29 636.23 952.07 633.08   Q 961.00 629.48 970.74 628.41   C 975.29 627.91 981.18 628.40 986.76 628.40   Q 1058.38 628.44 1118.86 628.36   C 1127.99 628.35 1134.11 628.71 1143.25 628.14   Q 1146.12 627.97 1148.99 628.23   A 0.90 0.90 0.0 0 1 1149.75 629.45   Q 1149.23 630.83 1148.44 632.20   Q 1141.68 643.83 1139.25 649.90   C 1137.05 655.37 1133.83 660.04 1131.33 665.71   A 1.10 1.09 -77.9 0 1 1130.33 666.36   Q 1120.77 666.32 1113.75 666.32   Q 1051.42 666.31 992.16 666.49   C 986.78 666.51 982.23 666.98 979.43 671.61   Q 977.99 673.99 975.36 679.09   C 972.32 685.00 979.36 684.59 983.00 684.58   Q 1016.52 684.57 1090.71 684.63   C 1099.25 684.64 1104.55 684.38 1110.68 686.31   C 1114.50 687.51 1119.27 689.87 1121.33 693.24   C 1124.56 698.54 1122.35 706.53 1119.74 711.71   Q 1113.84 723.46 1098.92 753.00   Q 1095.22 760.31 1092.22 763.35   Q 1083.19 772.48 1071.75 775.89   Q 1067.25 777.23 1051.64 777.24   Q 920.19 777.28 891.12 777.21   C 883.68 777.19 876.53 777.62 869.63 777.28   A 0.41 0.41 0.0 0 1 869.28 776.71   Z"/>
<path xmlns="http://www.w3.org/2000/svg" fill="#b7884c" d="M 1221.64 666.64   L 1146.91 666.64   A 0.41 0.41 0.0 0 1 1146.51 666.16   Q 1146.68 665.15 1147.68 663.45   C 1150.92 657.94 1152.60 655.45 1155.27 649.24   Q 1159.19 640.09 1165.61 629.69   A 1.19 1.19 0.0 0 1 1166.47 629.14   Q 1170.62 628.64 1186.75 628.64   Q 1283.71 628.62 1366.24 628.71   A 0.53 0.53 0.0 0 1 1366.72 629.48   L 1348.23 666.05   A 1.19 1.17 -76.4 0 1 1347.18 666.70   L 1279.92 666.70   A 1.04 1.04 0.0 0 0 1278.99 667.27   L 1223.85 776.34   A 2.16 2.15 -76.5 0 1 1221.93 777.52   L 1167.09 777.52   A 0.66 0.65 13.3 0 1 1166.50 776.57   L 1221.88 667.03   A 0.27 0.27 0.0 0 0 1221.64 666.64   Z"/>
<path xmlns="http://www.w3.org/2000/svg" fill="#fbfbfb" d="M 1315.56 876.25   L 1276.36 876.25   A 0.47 0.46 13.1 0 1 1275.94 875.58   L 1287.77 851.55   A 2.00 2.00 0.0 0 1 1289.56 850.44   L 1369.48 850.44   A 0.47 0.47 0.0 0 1 1369.90 851.12   L 1337.09 917.76   A 1.10 1.10 0.0 0 1 1336.10 918.38   Q 1281.39 918.32 1203.23 918.39   Q 1199.24 918.39 1194.41 916.05   C 1186.19 912.06 1183.90 903.50 1187.46 895.19   Q 1189.92 889.46 1192.93 883.66   Q 1198.93 872.11 1207.32 855.28   Q 1214.21 841.45 1215.91 838.40   Q 1219.73 831.52 1221.97 826.22   C 1226.30 816.02 1236.70 808.12 1246.83 805.19   Q 1251.70 803.79 1267.26 803.80   Q 1385.68 803.93 1386.75 803.88   Q 1387.01 803.87 1387.34 803.98   A 0.64 0.63 23.2 0 1 1387.70 804.87   L 1373.47 832.63   A 1.08 1.07 6.1 0 1 1372.77 833.19   Q 1371.82 833.43 1368.00 833.42   Q 1350.36 833.39 1273.88 833.35   Q 1267.69 833.35 1265.18 834.53   Q 1261.10 836.46 1258.77 840.53   Q 1256.97 843.68 1250.23 857.49   C 1245.88 866.43 1240.10 876.05 1236.79 884.00   C 1233.60 891.64 1243.06 890.77 1248.25 890.79   Q 1254.72 890.82 1308.57 890.75   A 1.05 1.05 0.0 0 0 1309.51 890.17   L 1316.01 876.97   A 0.50 0.50 0.0 0 0 1315.56 876.25   Z"/>
<path xmlns="http://www.w3.org/2000/svg" fill="#fbfbfb" d="M 779.78 918.55   L 737.01 918.55   A 0.68 0.68 0.0 0 1 736.40 917.56   L 793.49 804.63   A 0.68 0.68 0.0 0 1 794.10 804.26   L 836.87 804.26   A 0.68 0.68 0.0 0 1 837.48 805.25   L 780.39 918.18   A 0.68 0.68 0.0 0 1 779.78 918.55   Z"/>
<path xmlns="http://www.w3.org/2000/svg" fill="#fbfbfb" d="M 928.44 918.55   L 794.60 918.55   A 0.76 0.76 0.0 0 1 793.92 917.45   L 850.91 804.72   A 0.76 0.76 0.0 0 1 851.59 804.30   L 896.04 804.30   A 0.76 0.76 0.0 0 1 896.71 805.41   L 853.42 889.85   A 0.76 0.76 0.0 0 0 854.09 890.96   L 941.62 890.96   A 0.76 0.76 0.0 0 1 942.30 892.06   L 929.12 918.13   A 0.76 0.76 0.0 0 1 928.44 918.55   Z"/>
<path xmlns="http://www.w3.org/2000/svg" fill="#fbfbfb" d="M 941.21 918.55   A 0.55 0.55 0.0 0 1 940.72 917.76   L 996.45 804.58   A 0.91 0.90 -76.7 0 1 997.26 804.07   L 1041.22 804.07   A 0.85 0.84 11.3 0 1 1042.00 805.24   C 1039.57 811.05 1035.57 817.32 1033.17 822.43   Q 1026.74 836.12 1022.04 844.81   Q 1019.68 849.18 1017.13 855.21   C 1014.42 861.60 1009.76 869.38 1006.24 877.06   C 1003.66 882.72 999.77 889.22 997.20 895.45   C 995.16 900.38 991.99 905.38 989.83 910.31   Q 987.98 914.55 986.19 917.99   A 1.05 1.04 13.5 0 1 985.26 918.55   L 941.21 918.55   Z"/>
<path xmlns="http://www.w3.org/2000/svg" fill="#fbfbfb" d="M 1000.10 918.45   A 0.47 0.47 0.0 0 1 999.68 917.77   L 1055.91 804.85   A 1.35 1.34 13.1 0 1 1057.12 804.10   L 1100.48 804.10   A 1.56 1.56 0.0 0 1 1101.80 804.83   L 1143.51 870.64   A 0.60 0.60 0.0 0 0 1144.55 870.58   L 1176.83 805.02   A 1.31 1.29 -78.0 0 1 1177.92 804.30   Q 1187.42 803.71 1197.23 804.08   C 1204.45 804.36 1211.86 803.67 1219.96 804.31   A 0.37 0.37 0.0 0 1 1220.26 804.84   L 1164.06 917.69   A 1.27 1.26 -76.7 0 1 1162.93 918.39   L 1127.30 918.39   A 1.66 1.66 0.0 0 1 1125.90 917.62   L 1081.83 848.09   A 0.47 0.47 0.0 0 0 1081.01 848.13   L 1045.16 918.04   A 0.74 0.73 12.9 0 1 1044.50 918.45   L 1000.10 918.45   Z"/>
<path xmlns="http://www.w3.org/2000/svg" fill="#fbfbfb" d="M 55.16 918.57   A 0.62 0.62 0.0 0 1 54.67 917.67   L 111.03 805.31   A 1.74 1.72 -83.9 0 1 112.12 804.42   Q 113.00 804.17 115.50 804.18   Q 146.01 804.30 241.76 804.25   C 250.80 804.24 259.02 810.65 258.63 820.24   Q 258.43 825.02 254.42 832.38   C 251.51 837.71 248.09 845.41 244.22 852.63   Q 239.96 860.56 235.59 869.57   C 230.62 879.84 226.34 886.78 221.97 896.53   Q 219.58 901.87 216.79 904.94   Q 208.34 914.19 197.35 917.32   Q 192.23 918.77 179.01 918.76   Q 82.04 918.64 59.75 918.74   Q 56.91 918.76 55.16 918.57   Z   M 112.49 891.14   Q 134.83 890.96 172.42 890.96   C 178.65 890.96 183.14 890.32 186.19 885.20   C 190.66 877.69 195.04 868.08 199.12 860.44   Q 202.02 855.01 208.59 841.94   Q 210.00 839.14 209.72 837.91   C 209.22 835.66 206.98 834.93 204.81 834.93   Q 144.33 834.87 140.36 834.90   A 1.87 1.87 0.0 0 0 138.70 835.94   L 111.78 890.00   A 0.79 0.79 0.0 0 0 112.49 891.14   Z"/>
<path xmlns="http://www.w3.org/2000/svg" fill="#fbfbfb" d="M 223.84 918.76   A 0.56 0.55 -78.1 0 1 223.34 917.98   Q 226.42 910.96 228.73 906.70   C 233.33 898.21 234.63 895.32 238.16 887.90   C 241.72 880.40 245.03 874.69 249.03 866.24   Q 250.92 862.24 256.00 852.21   C 263.47 837.47 267.71 829.52 273.61 817.37   Q 276.70 811.01 280.11 805.11   A 1.61 1.59 14.8 0 1 281.50 804.31   L 436.36 804.31   A 0.49 0.49 0.0 0 1 436.80 805.03   L 422.37 833.58   A 1.51 1.51 0.0 0 1 421.02 834.41   L 310.70 834.41   A 1.75 1.75 0.0 0 0 309.15 835.35   L 303.23 846.91   A 0.48 0.47 -76.3 0 0 303.64 847.60   L 413.19 847.60   A 0.43 0.42 13.4 0 1 413.58 848.22   L 399.49 875.70   A 0.73 0.72 13.2 0 1 398.84 876.10   L 289.20 876.10   A 1.12 1.11 13.6 0 0 288.21 876.70   L 281.78 889.24   A 0.60 0.60 0.0 0 0 282.32 890.11   L 394.96 890.11   A 0.67 0.67 0.0 0 1 395.56 891.09   L 381.64 918.25   A 0.96 0.95 -75.9 0 1 380.80 918.76   L 223.84 918.76   Z"/>
<path xmlns="http://www.w3.org/2000/svg" fill="#fbfbfb" d="M 493.74 835.09   A 0.45 0.45 0.0 0 0 493.34 834.43   L 437.00 834.43   A 0.53 0.53 0.0 0 1 436.53 833.66   L 450.81 805.35   A 1.75 1.66 88.6 0 1 451.39 804.71   Q 452.06 804.29 456.00 804.29   Q 518.07 804.42 603.75 804.24   Q 604.34 804.24 604.64 804.28   A 1.11 1.11 0.0 0 1 605.47 805.89   L 591.39 833.35   A 1.98 1.97 -76.5 0 1 589.63 834.43   L 539.49 834.43   A 1.76 1.75 13.6 0 0 537.93 835.38   L 495.45 918.24   A 0.87 0.86 13.5 0 1 494.68 918.71   L 452.03 918.71   A 0.71 0.71 0.0 0 1 451.40 917.68   L 493.74 835.09   Z"/>
<path xmlns="http://www.w3.org/2000/svg" fill="#fbfbfb" d="M 680.58 917.92   L 701.16 877.20   A 0.61 0.60 13.5 0 0 700.62 876.32   L 626.01 876.32   A 1.76 1.76 0.0 0 0 624.44 877.28   L 603.64 917.86   A 1.52 1.51 13.4 0 1 602.29 918.68   L 559.24 918.68   A 0.35 0.34 13.6 0 1 558.93 918.18   Q 578.03 880.50 584.50 868.02   C 587.04 863.13 589.16 858.09 591.46 853.92   Q 597.85 842.34 605.89 825.91   Q 608.28 821.04 613.55 815.77   Q 620.64 808.68 630.44 805.69   Q 636.02 803.98 646.21 804.27   Q 649.41 804.35 759.81 804.32   Q 763.25 804.32 767.40 806.63   C 778.52 812.84 771.77 826.60 767.21 834.50   C 763.30 841.26 759.33 850.40 755.21 857.44   C 752.77 861.59 750.89 866.32 748.40 871.03   Q 736.19 894.13 724.32 918.27   A 0.62 0.60 -76.3 0 1 723.78 918.61   L 681.00 918.61   A 0.48 0.47 -76.5 0 1 680.58 917.92   Z   M 640.35 847.62   L 715.77 847.58   A 0.96 0.94 13.2 0 0 716.62 847.07   L 721.14 838.01   A 2.32 2.32 0.0 0 0 720.30 835.01   Q 719.50 834.45 717.63 834.44   Q 710.74 834.39 654.34 834.43   C 645.19 834.43 643.60 840.08 639.92 846.88   A 0.50 0.50 0.0 0 0 640.35 847.62   Z"/>
<path xmlns="http://www.w3.org/2000/svg" fill="#0a0a0a" d="M 640.35 847.62   A 0.50 0.50 0.0 0 1 639.92 846.88   C 643.60 840.08 645.19 834.43 654.34 834.43   Q 710.74 834.39 717.63 834.44   Q 719.50 834.45 720.30 835.01   A 2.32 2.32 0.0 0 1 721.14 838.01   L 716.62 847.07   A 0.96 0.94 13.2 0 1 715.77 847.58   L 640.35 847.62   Z"/>
<path xmlns="http://www.w3.org/2000/svg" fill="#0a0a0a" d="M 112.49 891.14   A 0.79 0.79 0.0 0 1 111.78 890.00   L 138.70 835.94   A 1.87 1.87 0.0 0 1 140.36 834.90   Q 144.33 834.87 204.81 834.93   C 206.98 834.93 209.22 835.66 209.72 837.91   Q 210.00 839.14 208.59 841.94   Q 202.02 855.01 199.12 860.44   C 195.04 868.08 190.66 877.69 186.19 885.20   C 183.14 890.32 178.65 890.96 172.42 890.96   Q 134.83 890.96 112.49 891.14   Z"/>
<path xmlns="http://www.w3.org/2000/svg" fill="#fbfbfb" d="M 1214.05 999.46   Q 1213.37 991.33 1211.16 984.99   C 1209.33 979.75 1205.69 977.69 1200.22 976.30   Q 1194.52 974.86 1188.29 974.48   A 0.21 0.21 0.0 0 1 1188.09 974.27   L 1188.09 974.02   A 0.02 0.01 -90.0 0 1 1188.10 974.00   C 1193.95 973.59 1200.40 972.61 1205.45 969.97   C 1211.93 966.59 1212.93 956.20 1214.24 949.72   A 0.25 0.25 0.0 0 1 1214.74 949.76   Q 1215.25 958.08 1218.59 965.40   C 1221.65 972.10 1234.39 973.47 1240.82 973.96   A 0.27 0.26 -88.9 0 1 1241.07 974.23   L 1241.07 974.24   A 0.23 0.23 0.0 0 1 1240.85 974.47   Q 1231.41 974.93 1223.83 978.08   C 1220.84 979.31 1218.73 981.78 1217.52 985.22   Q 1215.62 990.61 1215.52 992.05   Q 1215.28 995.55 1214.68 999.48   A 0.32 0.32 0.0 0 1 1214.05 999.46   Z"/>
<path xmlns="http://www.w3.org/2000/svg" fill="#fbfbfb" d="M 318.37 969.97   A 0.38 0.38 0.0 0 0 317.68 969.75   L 308.48 982.15   A 1.35 1.35 0.0 0 1 306.31 982.15   L 296.87 969.37   A 0.36 0.36 0.0 0 0 296.23 969.58   L 296.26 984.76   A 0.89 0.89 0.0 0 1 295.37 985.65   L 292.43 985.66   A 0.76 0.76 0.0 0 1 291.67 984.90   L 291.63 961.94   A 0.70 0.70 0.0 0 1 292.32 961.24   L 296.09 961.23   A 1.29 1.28 -18.3 0 1 297.12 961.74   L 307.02 975.15   A 0.88 0.88 0.0 0 0 308.44 975.15   L 318.43 961.67   A 1.51 1.51 0.0 0 1 319.64 961.06   L 322.82 961.06   A 1.08 1.08 0.0 0 1 323.91 962.14   L 323.95 984.59   A 0.98 0.97 -0.1 0 1 322.97 985.56   L 319.36 985.56   A 0.97 0.96 -0.1 0 1 318.39 984.61   L 318.37 969.97   Z"/>
<path xmlns="http://www.w3.org/2000/svg" fill="#fbfbfb" d="M 391.4614 980.7992   A 4.96 4.96 0.0 0 1 386.4755 985.7332   L 366.0957 985.6265   A 4.96 4.96 0.0 0 1 361.1618 980.6406   L 361.2386 965.9608   A 4.96 4.96 0.0 0 1 366.2245 961.0268   L 386.6043 961.1335   A 4.96 4.96 0.0 0 1 391.5382 966.1194   L 391.4614 980.7992   Z   M 385.4981 966.4137   A 0.79 0.79 0.0 0 0 384.7067 965.6251   L 367.6467 965.6549   A 0.79 0.79 0.0 0 0 366.8581 966.4463   L 366.8819 980.1063   A 0.79 0.79 0.0 0 0 367.6733 980.8949   L 384.7333 980.8651   A 0.79 0.79 0.0 0 0 385.5219 980.0737   L 385.4981 966.4137   Z"/>
<path xmlns="http://www.w3.org/2000/svg" fill="#fbfbfb" d="M 428.94 973.43   Q 428.89 967.62 429.01 961.99   A 0.71 0.71 0.0 0 1 429.70 961.30   Q 438.60 961.04 448.61 961.02   C 451.80 961.01 455.15 961.61 455.42 965.25   Q 455.68 968.57 455.31 970.37   A 2.27 2.21 69.8 0 1 454.91 971.27   Q 454.69 971.57 453.36 972.75   Q 453.28 972.83 453.23 972.96   Q 453.19 973.07 453.19 973.18   Q 453.19 973.32 453.23 973.43   Q 453.29 973.56 453.37 973.63   Q 454.72 974.79 454.95 975.09   A 2.27 2.21 -70.9 0 1 455.36 975.98   Q 455.76 977.78 455.57 981.10   C 455.37 984.74 452.03 985.40 448.84 985.46   Q 438.83 985.63 429.93 985.54   A 0.71 0.71 0.0 0 1 429.23 984.86   Q 429.00 979.23 428.94 973.43   Z   M 434.83 966.26   L 434.89 970.28   A 0.87 0.87 0.0 0 0 435.78 971.14   L 447.92 970.95   A 2.26 1.85 -0.9 0 0 450.16 969.06   L 450.12 967.00   A 2.26 1.85 -0.9 0 0 447.83 965.19   L 435.69 965.38   A 0.87 0.87 0.0 0 0 434.83 966.26   Z   M 434.80 975.56   L 434.84 980.62   A 0.53 0.53 0.0 0 0 435.38 981.14   L 447.52 981.04   A 2.61 2.12 -0.5 0 0 450.11 978.89   L 450.09 977.01   A 2.61 2.12 -0.5 0 0 447.46 974.92   L 435.32 975.02   A 0.53 0.53 0.0 0 0 434.80 975.56   Z"/>
<path xmlns="http://www.w3.org/2000/svg" fill="#fbfbfb" d="M 594.23 984.59   L 594.23 962.08   A 0.90 0.90 0.0 0 1 595.13 961.18   L 618.50 961.18   A 0.90 0.90 0.0 0 1 619.40 962.08   L 619.40 964.54   A 0.90 0.90 0.0 0 1 618.50 965.44   L 600.84 965.44   A 0.90 0.90 0.0 0 0 599.94 966.34   L 599.94 970.05   A 0.90 0.90 0.0 0 0 600.84 970.95   L 610.64 970.95   A 0.90 0.90 0.0 0 1 611.54 971.85   L 611.54 973.95   A 0.90 0.90 0.0 0 1 610.64 974.85   L 600.92 974.85   A 0.90 0.90 0.0 0 0 600.02 975.75   L 600.02 980.14   A 0.90 0.90 0.0 0 0 600.92 981.04   L 618.47 981.04   A 0.90 0.90 0.0 0 1 619.37 981.94   L 619.37 984.59   A 0.90 0.90 0.0 0 1 618.47 985.49   L 595.13 985.49   A 0.90 0.90 0.0 0 1 594.23 984.59   Z"/>
<path xmlns="http://www.w3.org/2000/svg" fill="#fbfbfb" d="M 934.67 973.26   Q 934.67 973.40 934.71 973.52   Q 934.77 973.65 934.85 973.72   Q 936.21 974.89 936.44 975.19   A 2.29 2.23 -70.8 0 1 936.86 976.09   Q 937.26 977.91 937.06 981.26   C 936.85 984.94 933.47 985.60 930.25 985.65   Q 920.14 985.80 911.15 985.69   A 0.72 0.71 -0.6 0 1 910.45 985.00   Q 910.23 979.32 910.19 973.45   Q 910.14 967.59 910.28 961.90   A 0.72 0.71 -0.2 0 1 910.97 961.21   Q 919.96 960.97 930.07 960.97   C 933.29 960.97 936.68 961.58 936.94 965.26   Q 937.19 968.61 936.82 970.43   A 2.29 2.23 70.0 0 1 936.41 971.34   Q 936.19 971.64 934.84 972.83   Q 934.76 972.90 934.71 973.04   Q 934.67 973.15 934.67 973.26   Z   M 931.3090 966.5640   A 1.39 1.39 0.0 0 0 929.8997 965.1936   L 917.4810 965.3670   A 1.39 1.39 0.0 0 0 916.1105 966.7763   L 916.1510 969.6760   A 1.39 1.39 0.0 0 0 917.5603 971.0464   L 929.9790 970.8730   A 1.39 1.39 0.0 0 0 931.3495 969.4637   L 931.3090 966.5640   Z   M 931.2820 976.2928   A 1.22 1.22 0.0 0 0 930.0706 975.0643   L 917.3909 974.9758   A 1.22 1.22 0.0 0 0 916.1624 976.1873   L 916.1380 979.6872   A 1.22 1.22 0.0 0 0 917.3494 980.9157   L 930.0291 981.0042   A 1.22 1.22 0.0 0 0 931.2576 979.7927   L 931.2820 976.2928   Z"/>
<path xmlns="http://www.w3.org/2000/svg" fill="#fbfbfb" d="M 1115.31 961.23   L 1119.72 961.23   A 0.67 0.67 0.0 0 1 1120.30 961.57   L 1133.59 984.59   A 0.67 0.67 0.0 0 1 1133.01 985.59   L 1128.21 985.59   A 0.67 0.67 0.0 0 1 1127.63 985.26   L 1124.95 980.62   A 0.67 0.67 0.0 0 0 1124.37 980.29   L 1110.26 980.29   A 0.67 0.67 0.0 0 0 1109.68 980.63   L 1107.07 985.14   A 0.67 0.67 0.0 0 1 1106.49 985.48   L 1102.08 985.48   A 0.67 0.67 0.0 0 1 1101.50 984.48   L 1114.73 961.57   A 0.67 0.67 0.0 0 1 1115.31 961.23   Z   M 1112.53 975.30   A 0.45 0.45 0.0 0 0 1112.92 975.96   L 1121.76 975.98   A 0.45 0.45 0.0 0 0 1122.16 975.31   L 1117.76 967.13   A 0.45 0.45 0.0 0 0 1116.96 967.13   L 1112.53 975.30   Z"/>
<rect xmlns="http://www.w3.org/2000/svg" fill="#fbfbfb" x="492.16" y="961.37" width="5.66" height="24.06" rx="0.73"/>
<path xmlns="http://www.w3.org/2000/svg" fill="#fbfbfb" d="M 541.65 962.17   L 541.65 980.17   A 0.85 0.85 0.0 0 0 542.50 981.02   L 559.02 981.02   A 0.85 0.85 0.0 0 1 559.87 981.87   L 559.87 984.61   A 0.85 0.85 0.0 0 1 559.02 985.46   L 536.80 985.46   A 0.85 0.85 0.0 0 1 535.95 984.61   L 535.95 962.17   A 0.85 0.85 0.0 0 1 536.80 961.32   L 540.80 961.32   A 0.85 0.85 0.0 0 1 541.65 962.17   Z"/>
<path xmlns="http://www.w3.org/2000/svg" fill="#fbfbfb" d="M 751.09 985.53   A 1.62 1.62 0.0 0 1 749.66 984.68   L 747.72 981.08   A 1.46 1.46 0.0 0 0 746.45 980.32   L 733.08 980.21   A 1.31 1.29 -75.4 0 0 731.93 980.90   L 730.10 984.38   A 2.14 2.12 14.6 0 1 728.17 985.49   L 724.53 985.42   A 0.75 0.75 0.0 0 1 723.90 984.30   L 736.77 961.70   A 0.91 0.91 0.0 0 1 737.58 961.25   L 742.04 961.36   A 1.07 1.06 -13.6 0 1 742.95 961.92   L 755.31 984.59   A 0.65 0.65 0.0 0 1 754.73 985.55   L 751.09 985.53   Z   M 734.54 975.27   A 0.40 0.40 0.0 0 0 734.89 975.86   L 743.96 975.94   A 0.40 0.40 0.0 0 0 744.31 975.35   L 739.85 966.79   A 0.40 0.40 0.0 0 0 739.15 966.79   L 734.54 975.27   Z"/>
<path xmlns="http://www.w3.org/2000/svg" fill="#fbfbfb" d="M 789.98 962.21   A 0.88 0.88 0.0 0 1 790.85 961.32   L 794.80 961.33   A 0.94 0.94 0.0 0 1 795.74 962.27   L 795.78 980.27   A 0.78 0.78 0.0 0 0 796.56 981.05   L 813.06 981.01   A 0.96 0.96 0.0 0 1 814.03 981.95   L 814.09 984.66   A 0.83 0.83 0.0 0 1 813.26 985.50   L 790.58 985.48   A 0.46 0.46 0.0 0 1 790.12 985.02   L 789.98 962.21   Z"/>
<path xmlns="http://www.w3.org/2000/svg" fill="#fbfbfb" d="M 848.51 985.42   L 844.87 985.41   A 0.65 0.65 0.0 0 1 844.30 984.45   L 856.84 961.85   A 1.07 1.06 14.0 0 1 857.75 961.30   L 862.22 961.22   A 0.91 0.91 0.0 0 1 863.03 961.68   L 875.74 984.39   A 0.75 0.75 0.0 0 1 875.10 985.50   L 871.46 985.55   A 2.14 2.12 -14.2 0 1 869.54 984.42   L 867.72 980.93   A 1.31 1.29 75.8 0 0 866.58 980.23   L 853.20 980.24   A 1.46 1.46 0.0 0 0 851.93 980.99   L 849.96 984.57   A 1.63 1.63 0.0 0 1 848.51 985.42   Z   M 854.95 975.08   A 0.62 0.62 0.0 0 0 855.49 975.99   L 864.07 976.06   A 0.62 0.62 0.0 0 0 864.62 975.17   L 860.41 966.77   A 0.62 0.62 0.0 0 0 859.31 966.76   L 854.95 975.08   Z"/>
<path xmlns="http://www.w3.org/2000/svg" fill="#fbfbfb" d="M 997.08 985.51   A 1.63 1.63 0.0 0 1 995.64 984.65   L 993.69 981.05   A 1.46 1.46 0.0 0 0 992.42 980.29   L 979.02 980.20   A 1.31 1.29 -75.5 0 0 977.87 980.89   L 976.03 984.37   A 2.14 2.13 14.6 0 1 974.10 985.50   L 970.45 985.43   A 0.75 0.75 0.0 0 1 969.82 984.31   L 982.68 961.64   A 0.91 0.91 0.0 0 1 983.50 961.18   L 987.97 961.29   A 1.07 1.07 0.0 0 1 988.89 961.84   L 1001.30 984.56   A 0.65 0.65 0.0 0 1 1000.73 985.52   L 997.08 985.51   Z   M 980.45 975.14   A 0.62 0.62 0.0 0 0 981.00 976.05   L 989.65 976.10   A 0.62 0.62 0.0 0 0 990.20 975.19   L 985.92 967.04   A 0.62 0.62 0.0 0 0 984.82 967.04   L 980.45 975.14   Z"/>
<path xmlns="http://www.w3.org/2000/svg" fill="#fbfbfb" d="M 1062.48 970.05   A 0.38 0.38 0.0 0 0 1061.80 969.83   L 1052.67 982.09   A 1.34 1.34 0.0 0 1 1050.52 982.08   L 1041.20 969.41   A 0.36 0.35 26.7 0 0 1040.56 969.62   L 1040.56 984.65   A 0.88 0.88 0.0 0 1 1039.68 985.53   L 1036.77 985.53   A 0.75 0.75 0.0 0 1 1036.02 984.78   L 1036.02 962.04   A 0.69 0.69 0.0 0 1 1036.71 961.35   L 1040.44 961.35   A 1.28 1.27 -18.2 0 1 1041.46 961.86   L 1051.24 975.15   A 0.87 0.87 0.0 0 0 1052.64 975.16   L 1062.56 961.83   A 1.50 1.50 0.0 0 1 1063.76 961.23   L 1066.91 961.23   A 1.07 1.07 0.0 0 1 1067.98 962.30   L 1067.98 984.53   A 0.97 0.96 0.0 0 1 1067.01 985.49   L 1063.44 985.49   A 0.96 0.95 -0.0 0 1 1062.48 984.54   L 1062.48 970.05   Z"/>
<path xmlns="http://www.w3.org/2000/svg" fill="#0a0a0a" d="M 434.83 966.26   A 0.87 0.87 0.0 0 1 435.69 965.38   L 447.83 965.19   A 2.26 1.85 -0.9 0 1 450.12 967.00   L 450.16 969.06   A 2.26 1.85 -0.9 0 1 447.92 970.95   L 435.78 971.14   A 0.87 0.87 0.0 0 1 434.89 970.28   L 434.83 966.26   Z"/>
<rect xmlns="http://www.w3.org/2000/svg" fill="#0a0a0a" x="-7.60" y="-2.84" transform="translate(923.73,968.12) rotate(-0.8)" width="15.20" height="5.68" rx="1.39"/>
<rect xmlns="http://www.w3.org/2000/svg" fill="#0a0a0a" x="-9.32" y="-7.62" transform="translate(376.19,973.26) rotate(-0.1)" width="18.64" height="15.24" rx="0.79"/>
<path xmlns="http://www.w3.org/2000/svg" fill="#0a0a0a" d="M 734.54 975.27   L 739.15 966.79   A 0.40 0.40 0.0 0 1 739.85 966.79   L 744.31 975.35   A 0.40 0.40 0.0 0 1 743.96 975.94   L 734.89 975.86   A 0.40 0.40 0.0 0 1 734.54 975.27   Z"/>
<path xmlns="http://www.w3.org/2000/svg" fill="#0a0a0a" d="M 854.95 975.08   L 859.31 966.76   A 0.62 0.62 0.0 0 1 860.41 966.77   L 864.62 975.17   A 0.62 0.62 0.0 0 1 864.07 976.06   L 855.49 975.99   A 0.62 0.62 0.0 0 1 854.95 975.08   Z"/>
<path xmlns="http://www.w3.org/2000/svg" fill="#0a0a0a" d="M 980.45 975.14   L 984.82 967.04   A 0.62 0.62 0.0 0 1 985.92 967.04   L 990.20 975.19   A 0.62 0.62 0.0 0 1 989.65 976.10   L 981.00 976.05   A 0.62 0.62 0.0 0 1 980.45 975.14   Z"/>
<path xmlns="http://www.w3.org/2000/svg" fill="#0a0a0a" d="M 1112.53 975.30   L 1116.96 967.13   A 0.45 0.45 0.0 0 1 1117.76 967.13   L 1122.16 975.31   A 0.45 0.45 0.0 0 1 1121.76 975.98   L 1112.92 975.96   A 0.45 0.45 0.0 0 1 1112.53 975.30   Z"/>
<path xmlns="http://www.w3.org/2000/svg" fill="#0a0a0a" d="M 434.80 975.56   A 0.53 0.53 0.0 0 1 435.32 975.02   L 447.46 974.92   A 2.61 2.12 -0.5 0 1 450.09 977.01   L 450.11 978.89   A 2.61 2.12 -0.5 0 1 447.52 981.04   L 435.38 981.14   A 0.53 0.53 0.0 0 1 434.84 980.62   L 434.80 975.56   Z"/>
<rect xmlns="http://www.w3.org/2000/svg" fill="#0a0a0a" x="-7.56" y="-2.97" transform="translate(923.71,977.99) rotate(0.4)" width="15.12" height="5.94" rx="1.22"/>
<path xmlns="http://www.w3.org/2000/svg" fill="#fbfbfb" d="M 648.99 985.17   L 648.16 985.17   A 0.67 0.66 -0.0 0 1 647.49 984.51   L 647.49 981.30   A 0.63 0.63 0.0 0 1 648.12 980.67   L 651.15 980.67   A 0.96 0.95 -4.2 0 1 652.10 981.48   Q 652.84 986.28 648.90 989.34   A 0.59 0.59 0.0 0 1 648.02 988.58   L 649.49 986.04   A 0.58 0.58 0.0 0 0 648.99 985.17   Z"/>
</g></g></g></g></svg>