<svg xmlns="http://www.w3.org/2000/svg" direction="ltr" width="2048" height="2048" viewBox="15308.58141447356 4664.042066795321 2048 2048" stroke-linecap="round" stroke-linejoin="round" data-color-mode="light" class="tl-container tl-theme__force-sRGB tl-theme__light" style="background-color: transparent;"><defs/><g transform="matrix(1, 0, 0, 1, 15308.5814, 4664.0421)" opacity="1"><g data-lovart-layer-name="SVG 2"><g transform="scale(1.4143646408839778, 1.4143646408839778)"><g>
<g xmlns="http://www.w3.org/2000/svg" stroke-width="2.00" fill="none" stroke-linecap="butt">
<path stroke="#5f4a2a" d="M 661.08 648.96   A 0.26 0.26 0.0 0 1 661.06 648.45   L 709.47 640.58   A 2.31 2.31 0.0 0 0 711.15 639.35   L 721.04 619.89   A 1.25 1.23 13.1 0 1 722.15 619.21   L 937.53 619.21   A 1.58 1.57 -72.8 0 0 938.83 618.52   Q 941.51 614.58 942.56 612.29   Q 946.69 603.27 951.87 594.87   Q 953.81 591.71 960.22 578.21   Q 961.63 575.24 965.76 568.34   C 968.26 564.16 969.20 561.93 971.51 557.05   A 0.71 0.71 0.0 0 0 970.92 556.03   Q 961.42 555.28 954.66 555.71   C 944.52 556.34 938.93 555.86 927.00 555.87   Q 679.26 555.88 663.53 555.88   Q 655.53 555.87 645.60 555.61   A 2.36 2.36 0.0 0 0 643.37 557.04   C 639.82 565.35 634.30 573.37 631.14 580.69   C 628.46 586.91 624.77 591.84 622.22 597.85   C 619.25 604.85 615.13 611.20 611.91 617.64   Q 597.57 646.25 582.77 674.49   Q 579.24 681.25 573.88 692.56   C 571.37 697.87 567.50 703.99 565.23 709.34   C 563.10 714.37 560.91 717.69 558.57 722.56   Q 552.83 734.50 546.12 746.95   Q 543.44 751.93 540.84 757.83   C 538.87 762.30 534.58 768.49 532.21 774.22   Q 529.97 779.63 529.66 780.14   C 526.57 785.23 524.24 791.49 521.10 796.70   Q 517.22 803.15 514.31 809.90   A 0.85 0.84 11.6 0 0 515.09 811.08   L 623.94 811.08   A 1.04 1.04 0.0 0 0 624.87 810.51   L 675.96 709.96   A 1.29 1.28 -76.3 0 1 677.10 709.26   L 869.14 709.26   A 1.64 1.62 -76.0 0 0 870.58 708.38   L 901.07 650.04   A 0.56 0.56 0.0 0 0 900.58 649.22   Q 895.64 649.07 881.25 649.11   Q 799.81 649.35 720.65 649.03   C 713.27 649.00 707.67 649.67 701.07 649.24   C 687.80 648.38 672.61 649.86 661.08 648.96"/>
<path stroke="#828282" d="M 517.90 751.04   A 0.79 0.79 0.0 0 0 517.20 749.89   Q 511.70 749.89 507.75 749.89   Q 369.35 749.80 311.25 749.73   Q 302.58 749.72 298.50 749.53   Q 294.98 749.36 291.96 747.81   C 286.91 745.20 288.23 740.40 290.33 736.36   Q 313.56 691.64 342.94 634.56   C 348.38 623.98 362.31 619.20 373.50 619.20   Q 466.49 619.17 581.77 619.20   A 1.67 1.66 -76.0 0 0 583.24 618.31   L 615.21 557.11   A 0.70 0.70 0.0 0 0 614.69 556.09   Q 612.71 555.81 610.43 555.82   Q 587.96 555.87 373.14 555.81   Q 349.07 555.80 338.92 557.27   Q 307.17 561.89 280.16 577.93   C 268.78 584.69 257.86 593.67 249.64 604.22   Q 244.65 610.64 237.01 625.53   Q 222.75 653.36 179.63 736.62   Q 174.64 746.26 173.27 750.49   C 168.27 765.90 169.17 783.08 179.99 795.25   C 190.31 806.85 208.96 810.98 224.74 810.97   Q 259.62 810.93 486.00 810.93   A 1.00 1.00 0.0 0 0 486.89 810.39   L 517.90 751.04"/>
<path stroke="#828282" d="M 1057.97 649.17   L 950.35 649.17   A 0.73 0.72 13.2 0 0 949.70 649.57   L 868.16 810.06   A 0.61 0.60 -76.3 0 0 868.69 810.94   Q 922.82 810.90 1130.17 810.95   Q 1145.51 810.96 1152.81 810.06   C 1185.43 806.07 1216.12 790.97 1239.09 768.14   Q 1244.05 763.22 1251.42 752.59   C 1255.03 747.39 1259.00 739.03 1260.99 735.00   Q 1280.94 694.67 1309.38 638.19   C 1312.29 632.42 1315.16 626.28 1316.86 620.87   C 1323.16 600.78 1321.10 578.83 1302.37 566.46   C 1290.27 558.47 1275.29 555.81 1261.25 555.81   Q 1233.57 555.83 1000.24 555.82   A 1.12 1.10 20.2 0 0 999.40 556.20   Q 998.29 557.46 997.33 559.35   Q 981.48 590.44 966.76 617.91   A 0.87 0.87 0.0 0 0 967.48 619.19   C 973.97 619.51 980.08 619.18 987.17 619.18   Q 1173.38 619.17 1192.25 619.22   C 1198.38 619.24 1205.95 621.52 1204.86 629.39   Q 1204.62 631.16 1202.68 634.94   Q 1174.42 690.27 1153.96 730.95   Q 1150.58 737.67 1148.21 740.04   C 1142.34 745.91 1131.77 749.69 1124.49 749.71   Q 1091.32 749.78 1008.34 749.76   A 0.51 0.51 0.0 0 1 1007.88 749.02   L 1058.32 649.75   A 0.40 0.40 0.0 0 0 1057.97 649.17"/>
<path stroke="#828282" d="M 599.04 908.12   Q 599.09 908.12 600.31 899.26   C 601.34 891.84 603.11 884.90 610.92 881.94   C 616.80 879.71 624.33 879.17 628.83 878.42   A 0.10 0.09 -46.3 0 0 628.83 878.23   Q 622.74 877.74 616.27 876.53   C 609.66 875.29 604.33 872.17 602.12 865.43   Q 600.60 860.79 600.23 857.54   Q 599.42 850.53 599.10 850.53   Q 598.77 850.53 597.95 857.54   Q 597.57 860.79 596.04 865.42   C 593.82 872.16 588.48 875.27 581.87 876.50   Q 575.40 877.69 569.31 878.17   A 0.10 0.09 46.4 0 0 569.31 878.36   C 573.81 879.12 581.33 879.68 587.21 881.92   C 595.01 884.89 596.77 891.84 597.78 899.26   Q 598.99 908.12 599.04 908.12"/>
<path stroke="#828282" d="M 282.62 863.16   Q 280.05 863.16 279.57 863.28   A 1.56 1.53 -82.0 0 0 278.59 864.03   L 262.32 892.98   A 0.88 0.88 0.0 0 0 263.08 894.29   L 268.23 894.29   A 2.21 2.20 13.3 0 0 270.20 893.08   L 272.67 888.21   A 1.32 1.31 -77.6 0 1 273.78 887.49   Q 276.70 887.35 282.58 887.35   Q 288.46 887.36 291.39 887.52   A 1.32 1.31 77.7 0 1 292.49 888.24   L 294.94 893.12   A 2.21 2.20 -13.1 0 0 296.91 894.34   L 302.06 894.35   A 0.88 0.88 0.0 0 0 302.82 893.05   L 286.65 864.04   A 1.56 1.53 82.2 0 0 285.67 863.29   Q 285.19 863.17 282.62 863.16"/>
<path stroke="#828282" d="M 352.48 894.36   Q 360.91 894.36 362.74 894.40   Q 370.10 894.54 369.99 887.25   Q 369.90 881.34 369.97 864.35   A 1.27 1.26 0.0 0 0 368.70 863.09   L 363.59 863.09   A 1.06 1.06 0.0 0 0 362.53 864.15   L 362.50 887.52   A 0.72 0.72 0.0 0 1 361.75 888.24   Q 361.54 888.24 352.48 888.24   Q 343.43 888.24 343.22 888.24   A 0.72 0.72 0.0 0 1 342.47 887.51   L 342.45 864.14   A 1.06 1.06 0.0 0 0 341.39 863.08   L 336.28 863.08   A 1.27 1.26 0.0 0 0 335.01 864.34   Q 335.07 881.33 334.98 887.24   Q 334.87 894.53 342.22 894.39   Q 344.06 894.36 352.48 894.36"/>
<path stroke="#828282" d="M 420.48 894.28   Q 422.82 894.28 423.31 894.20   A 0.89 0.88 -4.7 0 0 424.05 893.33   L 424.06 869.88   A 0.96 0.95 -0.0 0 1 425.02 868.93   L 437.18 868.93   A 1.03 1.03 0.0 0 0 438.21 867.90   L 438.21 864.24   A 1.05 1.05 0.0 0 0 437.17 863.19   Q 429.05 863.12 420.42 863.07   Q 411.79 863.15 403.66 863.25   A 1.05 1.05 0.0 0 0 402.63 864.30   L 402.65 867.96   A 1.03 1.03 0.0 0 0 403.68 868.99   L 415.84 868.95   A 0.96 0.95 -0.2 0 1 416.80 869.89   L 416.90 893.34   A 0.89 0.88 4.4 0 0 417.64 894.21   Q 418.13 894.29 420.48 894.28"/>
<path stroke="#828282" d="M 508.35 868.86   A 5.67 5.67 0.0 0 0 502.68 863.19   L 476.30 863.19   A 5.67 5.67 0.0 0 0 470.63 868.86   L 470.63 888.62   A 5.67 5.67 0.0 0 0 476.30 894.29   L 502.68 894.29   A 5.67 5.67 0.0 0 0 508.35 888.62   L 508.35 868.86"/>
<path stroke="#828282" d="M 754.55 893.44   A 0.87 0.87 0.0 0 0 755.42 894.31   L 785.36 894.31   A 0.87 0.87 0.0 0 0 786.23 893.44   L 786.23 889.09   A 0.87 0.87 0.0 0 0 785.36 888.22   L 762.58 888.22   A 0.87 0.87 0.0 0 1 761.71 887.35   L 761.71 881.65   A 0.87 0.87 0.0 0 1 762.58 880.78   L 775.14 880.78   A 0.87 0.87 0.0 0 0 776.01 879.91   L 776.01 876.31   A 0.87 0.87 0.0 0 0 775.14 875.44   L 762.61 875.44   A 0.87 0.87 0.0 0 1 761.74 874.57   L 761.74 869.63   A 0.87 0.87 0.0 0 1 762.61 868.76   L 785.20 868.76   A 0.87 0.87 0.0 0 0 786.07 867.89   L 786.07 864.01   A 0.87 0.87 0.0 0 0 785.20 863.14   L 755.42 863.14   A 0.87 0.87 0.0 0 0 754.55 864.01   L 754.55 893.44"/>
<path stroke="#828282" d="M 836.05 894.28   Q 838.40 894.28 838.88 894.21   A 0.89 0.88 -4.4 0 0 839.63 893.34   L 839.74 869.88   A 0.96 0.95 0.2 0 1 840.70 868.94   L 852.87 868.99   A 1.03 1.03 0.0 0 0 853.90 867.96   L 853.92 864.30   A 1.05 1.05 0.0 0 0 852.88 863.24   Q 844.75 863.15 836.12 863.05   Q 827.49 863.11 819.36 863.17   A 1.05 1.05 0.0 0 0 818.33 864.22   L 818.33 867.88   A 1.03 1.03 0.0 0 0 819.36 868.91   L 831.52 868.92   A 0.96 0.95 0.0 0 1 832.48 869.87   L 832.48 893.32   A 0.89 0.88 4.7 0 0 833.22 894.19   Q 833.71 894.27 836.05 894.28"/>
<path stroke="#828282" d="M 958.5242 863.9236   A 0.81 0.81 0.0 0 0 957.7128 863.1150   L 952.0128 863.1250   A 0.81 0.81 0.0 0 0 951.2042 863.9364   L 951.2558 893.4964   A 0.81 0.81 0.0 0 0 952.0672 894.3050   L 957.7672 894.2950   A 0.81 0.81 0.0 0 0 958.5758 893.4836   L 958.5242 863.9236"/>
<path stroke="#828282" d="M 1124.05 876.19   Q 1114.29 867.55 1109.82 864.00   A 3.69 3.59 -17.0 0 0 1108.56 863.35   Q 1107.52 863.06 1104.57 863.25   A 1.08 1.07 -2.0 0 0 1103.57 864.32   L 1103.57 893.21   A 1.19 1.18 90.0 0 0 1104.75 894.40   L 1109.03 894.40   A 1.19 1.19 0.0 0 0 1110.22 893.21   L 1110.22 873.99   A 0.36 0.36 0.0 0 1 1110.81 873.71   Q 1115.36 877.37 1119.68 881.20   Q 1129.44 889.84 1133.90 893.39   A 3.69 3.59 -17.0 0 0 1135.17 894.04   Q 1136.21 894.33 1139.16 894.14   A 1.08 1.07 -2.0 0 0 1140.16 893.07   L 1140.16 864.18   A 1.19 1.18 90.0 0 0 1138.98 862.99   L 1134.70 862.99   A 1.19 1.19 0.0 0 0 1133.51 864.18   L 1133.51 883.40   A 0.36 0.36 0.0 0 1 1132.92 883.68   Q 1128.37 880.02 1124.05 876.19"/>
<path stroke="#828282" d="M 1196.15 881.67   L 1205.84 881.67   A 0.83 0.83 0.0 0 1 1206.67 882.50   L 1206.67 887.53   A 0.80 0.79 -0.0 0 1 1205.87 888.32   L 1185.37 888.32   A 0.63 0.63 0.0 0 1 1184.74 887.69   L 1184.74 869.56   A 0.63 0.62 -0.0 0 1 1185.37 868.94   L 1205.89 868.94   A 0.75 0.74 0.0 0 1 1206.64 869.68   L 1206.64 871.79   A 0.68 0.68 0.0 0 0 1207.42 872.46   L 1213.12 871.53   A 0.78 0.77 -2.0 0 0 1213.76 870.85   Q 1214.58 863.07 1205.96 863.11   Q 1186.64 863.22 1184.29 863.15   C 1177.88 862.97 1177.18 867.10 1177.34 872.91   Q 1177.43 876.44 1177.50 888.48   Q 1177.53 893.46 1182.01 894.02   Q 1186.48 894.57 1206.87 894.15   C 1210.69 894.07 1213.44 893.33 1213.64 889.17   Q 1213.88 884.16 1213.69 876.79   A 0.50 0.49 89.4 0 0 1213.20 876.30   L 1196.02 876.30   A 0.82 0.81 90.0 0 0 1195.21 877.12   L 1195.21 880.72   A 0.95 0.94 -90.0 0 0 1196.15 881.67"/>
<path stroke="#828282" d="M 681.01 863.96   L 681.01 893.52   A 0.74 0.74 0.0 0 0 681.75 894.26   L 703.56 894.26   A 14.93 13.98 0.0 0 0 718.49 880.28   L 718.49 877.20   A 14.93 13.98 -0.0 0 0 703.56 863.22   L 681.75 863.22   A 0.74 0.74 0.0 0 0 681.01 863.96"/>
<path stroke="#828282" d="M 910.86 893.97   A 0.73 0.73 0.0 0 0 911.49 894.33   L 918.13 894.33   A 0.73 0.73 0.0 0 0 918.76 893.23   L 901.66 863.62   A 0.73 0.73 0.0 0 0 901.03 863.26   L 894.85 863.26   A 0.73 0.73 0.0 0 0 894.21 863.64   L 877.96 893.14   A 0.73 0.73 0.0 0 0 878.60 894.22   L 884.01 894.22   A 0.73 0.73 0.0 0 0 884.65 893.84   L 887.96 887.83   A 0.73 0.73 0.0 0 1 888.60 887.45   L 906.67 887.45   A 0.73 0.73 0.0 0 1 907.30 887.81   L 910.86 893.97"/>
<path stroke="#828282" d="M 1024.99 894.30   A 0.77 0.77 0.0 0 0 1025.76 893.53   L 1025.76 888.98   A 0.77 0.77 0.0 0 0 1024.99 888.21   L 1003.63 888.21   A 0.77 0.77 0.0 0 1 1002.86 887.44   L 1002.86 864.01   A 0.77 0.77 0.0 0 0 1002.09 863.24   L 996.24 863.24   A 0.77 0.77 0.0 0 0 995.47 864.01   L 995.47 893.53   A 0.77 0.77 0.0 0 0 996.24 894.30   L 1024.99 894.30"/>
<path stroke="#828282" d="M 1065.78 864.00   A 0.71 0.71 0.0 0 0 1065.07 863.29   L 1059.31 863.29   A 0.71 0.71 0.0 0 0 1058.60 864.00   L 1058.60 893.48   A 0.71 0.71 0.0 0 0 1059.31 894.19   L 1065.07 894.19   A 0.71 0.71 0.0 0 0 1065.78 893.48   L 1065.78 864.00"/>
<path stroke="#828282" d="M 276.30 880.82   A 0.69 0.69 0.0 0 0 276.91 881.83   L 287.80 881.92   A 0.69 0.69 0.0 0 0 288.42 880.92   L 283.07 870.36   A 0.69 0.69 0.0 0 0 281.84 870.35   L 276.30 880.82"/>
<path stroke="#828282" d="M 500.8757 869.6401   A 0.70 0.70 0.0 0 0 500.1769 868.9389   L 478.5769 868.9012   A 0.70 0.70 0.0 0 0 477.8757 869.5999   L 477.8443 887.5799   A 0.70 0.70 0.0 0 0 478.5431 888.2811   L 500.1431 888.3188   A 0.70 0.70 0.0 0 0 500.8443 887.6201   L 500.8757 869.6401"/>
<path stroke="#828282" d="M 688.51 869.41   L 688.55 887.73   A 0.47 0.47 0.0 0 0 689.02 888.20   L 702.00 888.18   A 8.95 8.10 -0.1 0 0 710.93 880.06   L 710.93 877.00   A 8.95 8.10 -0.1 0 0 701.96 868.92   L 688.98 868.94   A 0.47 0.47 0.0 0 0 688.51 869.41"/>
<path stroke="#828282" d="M 891.75 880.72   A 0.80 0.80 0.0 0 0 892.45 881.88   L 903.07 881.90   A 0.80 0.80 0.0 0 0 903.78 880.74   L 898.49 870.43   A 0.80 0.80 0.0 0 0 897.07 870.42   L 891.75 880.72"/>
</g>
<path xmlns="http://www.w3.org/2000/svg" fill="#050505" d="M 1448.00 0.00   L 1448.00 1448.00   L 0.00 1448.00   L 0.00 0.00   L 1448.00 0.00   Z   M 661.08 648.96   A 0.26 0.26 0.0 0 1 661.06 648.45   L 709.47 640.58   A 2.31 2.31 0.0 0 0 711.15 639.35   L 721.04 619.89   A 1.25 1.23 13.1 0 1 722.15 619.21   L 937.53 619.21   A 1.58 1.57 -72.8 0 0 938.83 618.52   Q 941.51 614.58 942.56 612.29   Q 946.69 603.27 951.87 594.87   Q 953.81 591.71 960.22 578.21   Q 961.63 575.24 965.76 568.34   C 968.26 564.16 969.20 561.93 971.51 557.05   A 0.71 0.71 0.0 0 0 970.92 556.03   Q 961.42 555.28 954.66 555.71   C 944.52 556.34 938.93 555.86 927.00 555.87   Q 679.26 555.88 663.53 555.88   Q 655.53 555.87 645.60 555.61   A 2.36 2.36 0.0 0 0 643.37 557.04   C 639.82 565.35 634.30 573.37 631.14 580.69   C 628.46 586.91 624.77 591.84 622.22 597.85   C 619.25 604.85 615.13 611.20 611.91 617.64   Q 597.57 646.25 582.77 674.49   Q 579.24 681.25 573.88 692.56   C 571.37 697.87 567.50 703.99 565.23 709.34   C 563.10 714.37 560.91 717.69 558.57 722.56   Q 552.83 734.50 546.12 746.95   Q 543.44 751.93 540.84 757.83   C 538.87 762.30 534.58 768.49 532.21 774.22   Q 529.97 779.63 529.66 780.14   C 526.57 785.23 524.24 791.49 521.10 796.70   Q 517.22 803.15 514.31 809.90   A 0.85 0.84 11.6 0 0 515.09 811.08   L 623.94 811.08   A 1.04 1.04 0.0 0 0 624.87 810.51   L 675.96 709.96   A 1.29 1.28 -76.3 0 1 677.10 709.26   L 869.14 709.26   A 1.64 1.62 -76.0 0 0 870.58 708.38   L 901.07 650.04   A 0.56 0.56 0.0 0 0 900.58 649.22   Q 895.64 649.07 881.25 649.11   Q 799.81 649.35 720.65 649.03   C 713.27 649.00 707.67 649.67 701.07 649.24   C 687.80 648.38 672.61 649.86 661.08 648.96   Z   M 517.90 751.04   A 0.79 0.79 0.0 0 0 517.20 749.89   Q 511.70 749.89 507.75 749.89   Q 369.35 749.80 311.25 749.73   Q 302.58 749.72 298.50 749.53   Q 294.98 749.36 291.96 747.81   C 286.91 745.20 288.23 740.40 290.33 736.36   Q 313.56 691.64 342.94 634.56   C 348.38 623.98 362.31 619.20 373.50 619.20   Q 466.49 619.17 581.77 619.20   A 1.67 1.66 -76.0 0 0 583.24 618.31   L 615.21 557.11   A 0.70 0.70 0.0 0 0 614.69 556.09   Q 612.71 555.81 610.43 555.82   Q 587.96 555.87 373.14 555.81   Q 349.07 555.80 338.92 557.27   Q 307.17 561.89 280.16 577.93   C 268.78 584.69 257.86 593.67 249.64 604.22   Q 244.65 610.64 237.01 625.53   Q 222.75 653.36 179.63 736.62   Q 174.64 746.26 173.27 750.49   C 168.27 765.90 169.17 783.08 179.99 795.25   C 190.31 806.85 208.96 810.98 224.74 810.97   Q 259.62 810.93 486.00 810.93   A 1.00 1.00 0.0 0 0 486.89 810.39   L 517.90 751.04   Z   M 1057.97 649.17   L 950.35 649.17   A 0.73 0.72 13.2 0 0 949.70 649.57   L 868.16 810.06   A 0.61 0.60 -76.3 0 0 868.69 810.94   Q 922.82 810.90 1130.17 810.95   Q 1145.51 810.96 1152.81 810.06   C 1185.43 806.07 1216.12 790.97 1239.09 768.14   Q 1244.05 763.22 1251.42 752.59   C 1255.03 747.39 1259.00 739.03 1260.99 735.00   Q 1280.94 694.67 1309.38 638.19   C 1312.29 632.42 1315.16 626.28 1316.86 620.87   C 1323.16 600.78 1321.10 578.83 1302.37 566.46   C 1290.27 558.47 1275.29 555.81 1261.25 555.81   Q 1233.57 555.83 1000.24 555.82   A 1.12 1.10 20.2 0 0 999.40 556.20   Q 998.29 557.46 997.33 559.35   Q 981.48 590.44 966.76 617.91   A 0.87 0.87 0.0 0 0 967.48 619.19   C 973.97 619.51 980.08 619.18 987.17 619.18   Q 1173.38 619.17 1192.25 619.22   C 1198.38 619.24 1205.95 621.52 1204.86 629.39   Q 1204.62 631.16 1202.68 634.94   Q 1174.42 690.27 1153.96 730.95   Q 1150.58 737.67 1148.21 740.04   C 1142.34 745.91 1131.77 749.69 1124.49 749.71   Q 1091.32 749.78 1008.34 749.76   A 0.51 0.51 0.0 0 1 1007.88 749.02   L 1058.32 649.75   A 0.40 0.40 0.0 0 0 1057.97 649.17   Z   M 599.04 908.12   Q 599.09 908.12 600.31 899.26   C 601.34 891.84 603.11 884.90 610.92 881.94   C 616.80 879.71 624.33 879.17 628.83 878.42   A 0.10 0.09 -46.3 0 0 628.83 878.23   Q 622.74 877.74 616.27 876.53   C 609.66 875.29 604.33 872.17 602.12 865.43   Q 600.60 860.79 600.23 857.54   Q 599.42 850.53 599.10 850.53   Q 598.77 850.53 597.95 857.54   Q 597.57 860.79 596.04 865.42   C 593.82 872.16 588.48 875.27 581.87 876.50   Q 575.40 877.69 569.31 878.17   A 0.10 0.09 46.4 0 0 569.31 878.36   C 573.81 879.12 581.33 879.68 587.21 881.92   C 595.01 884.89 596.77 891.84 597.78 899.26   Q 598.99 908.12 599.04 908.12   Z   M 282.62 863.16   Q 280.05 863.16 279.57 863.28   A 1.56 1.53 -82.0 0 0 278.59 864.03   L 262.32 892.98   A 0.88 0.88 0.0 0 0 263.08 894.29   L 268.23 894.29   A 2.21 2.20 13.3 0 0 270.20 893.08   L 272.67 888.21   A 1.32 1.31 -77.6 0 1 273.78 887.49   Q 276.70 887.35 282.58 887.35   Q 288.46 887.36 291.39 887.52   A 1.32 1.31 77.7 0 1 292.49 888.24   L 294.94 893.12   A 2.21 2.20 -13.1 0 0 296.91 894.34   L 302.06 894.35   A 0.88 0.88 0.0 0 0 302.82 893.05   L 286.65 864.04   A 1.56 1.53 82.2 0 0 285.67 863.29   Q 285.19 863.17 282.62 863.16   Z   M 352.48 894.36   Q 360.91 894.36 362.74 894.40   Q 370.10 894.54 369.99 887.25   Q 369.90 881.34 369.97 864.35   A 1.27 1.26 0.0 0 0 368.70 863.09   L 363.59 863.09   A 1.06 1.06 0.0 0 0 362.53 864.15   L 362.50 887.52   A 0.72 0.72 0.0 0 1 361.75 888.24   Q 361.54 888.24 352.48 888.24   Q 343.43 888.24 343.22 888.24   A 0.72 0.72 0.0 0 1 342.47 887.51   L 342.45 864.14   A 1.06 1.06 0.0 0 0 341.39 863.08   L 336.28 863.08   A 1.27 1.26 0.0 0 0 335.01 864.34   Q 335.07 881.33 334.98 887.24   Q 334.87 894.53 342.22 894.39   Q 344.06 894.36 352.48 894.36   Z   M 420.48 894.28   Q 422.82 894.28 423.31 894.20   A 0.89 0.88 -4.7 0 0 424.05 893.33   L 424.06 869.88   A 0.96 0.95 -0.0 0 1 425.02 868.93   L 437.18 868.93   A 1.03 1.03 0.0 0 0 438.21 867.90   L 438.21 864.24   A 1.05 1.05 0.0 0 0 437.17 863.19   Q 429.05 863.12 420.42 863.07   Q 411.79 863.15 403.66 863.25   A 1.05 1.05 0.0 0 0 402.63 864.30   L 402.65 867.96   A 1.03 1.03 0.0 0 0 403.68 868.99   L 415.84 868.95   A 0.96 0.95 -0.2 0 1 416.80 869.89   L 416.90 893.34   A 0.89 0.88 4.4 0 0 417.64 894.21   Q 418.13 894.29 420.48 894.28   Z   M 508.35 868.86   A 5.67 5.67 0.0 0 0 502.68 863.19   L 476.30 863.19   A 5.67 5.67 0.0 0 0 470.63 868.86   L 470.63 888.62   A 5.67 5.67 0.0 0 0 476.30 894.29   L 502.68 894.29   A 5.67 5.67 0.0 0 0 508.35 888.62   L 508.35 868.86   Z   M 754.55 893.44   A 0.87 0.87 0.0 0 0 755.42 894.31   L 785.36 894.31   A 0.87 0.87 0.0 0 0 786.23 893.44   L 786.23 889.09   A 0.87 0.87 0.0 0 0 785.36 888.22   L 762.58 888.22   A 0.87 0.87 0.0 0 1 761.71 887.35   L 761.71 881.65   A 0.87 0.87 0.0 0 1 762.58 880.78   L 775.14 880.78   A 0.87 0.87 0.0 0 0 776.01 879.91   L 776.01 876.31   A 0.87 0.87 0.0 0 0 775.14 875.44   L 762.61 875.44   A 0.87 0.87 0.0 0 1 761.74 874.57   L 761.74 869.63   A 0.87 0.87 0.0 0 1 762.61 868.76   L 785.20 868.76   A 0.87 0.87 0.0 0 0 786.07 867.89   L 786.07 864.01   A 0.87 0.87 0.0 0 0 785.20 863.14   L 755.42 863.14   A 0.87 0.87 0.0 0 0 754.55 864.01   L 754.55 893.44   Z   M 836.05 894.28   Q 838.40 894.28 838.88 894.21   A 0.89 0.88 -4.4 0 0 839.63 893.34   L 839.74 869.88   A 0.96 0.95 0.2 0 1 840.70 868.94   L 852.87 868.99   A 1.03 1.03 0.0 0 0 853.90 867.96   L 853.92 864.30   A 1.05 1.05 0.0 0 0 852.88 863.24   Q 844.75 863.15 836.12 863.05   Q 827.49 863.11 819.36 863.17   A 1.05 1.05 0.0 0 0 818.33 864.22   L 818.33 867.88   A 1.03 1.03 0.0 0 0 819.36 868.91   L 831.52 868.92   A 0.96 0.95 0.0 0 1 832.48 869.87   L 832.48 893.32   A 0.89 0.88 4.7 0 0 833.22 894.19   Q 833.71 894.27 836.05 894.28   Z   M 958.5242 863.9236   A 0.81 0.81 0.0 0 0 957.7128 863.1150   L 952.0128 863.1250   A 0.81 0.81 0.0 0 0 951.2042 863.9364   L 951.2558 893.4964   A 0.81 0.81 0.0 0 0 952.0672 894.3050   L 957.7672 894.2950   A 0.81 0.81 0.0 0 0 958.5758 893.4836   L 958.5242 863.9236   Z   M 1124.05 876.19   Q 1114.29 867.55 1109.82 864.00   A 3.69 3.59 -17.0 0 0 1108.56 863.35   Q 1107.52 863.06 1104.57 863.25   A 1.08 1.07 -2.0 0 0 1103.57 864.32   L 1103.57 893.21   A 1.19 1.18 90.0 0 0 1104.75 894.40   L 1109.03 894.40   A 1.19 1.19 0.0 0 0 1110.22 893.21   L 1110.22 873.99   A 0.36 0.36 0.0 0 1 1110.81 873.71   Q 1115.36 877.37 1119.68 881.20   Q 1129.44 889.84 1133.90 893.39   A 3.69 3.59 -17.0 0 0 1135.17 894.04   Q 1136.21 894.33 1139.16 894.14   A 1.08 1.07 -2.0 0 0 1140.16 893.07   L 1140.16 864.18   A 1.19 1.18 90.0 0 0 1138.98 862.99   L 1134.70 862.99   A 1.19 1.19 0.0 0 0 1133.51 864.18   L 1133.51 883.40   A 0.36 0.36 0.0 0 1 1132.92 883.68   Q 1128.37 880.02 1124.05 876.19   Z   M 1196.15 881.67   L 1205.84 881.67   A 0.83 0.83 0.0 0 1 1206.67 882.50   L 1206.67 887.53   A 0.80 0.79 -0.0 0 1 1205.87 888.32   L 1185.37 888.32   A 0.63 0.63 0.0 0 1 1184.74 887.69   L 1184.74 869.56   A 0.63 0.62 -0.0 0 1 1185.37 868.94   L 1205.89 868.94   A 0.75 0.74 0.0 0 1 1206.64 869.68   L 1206.64 871.79   A 0.68 0.68 0.0 0 0 1207.42 872.46   L 1213.12 871.53   A 0.78 0.77 -2.0 0 0 1213.76 870.85   Q 1214.58 863.07 1205.96 863.11   Q 1186.64 863.22 1184.29 863.15   C 1177.88 862.97 1177.18 867.10 1177.34 872.91   Q 1177.43 876.44 1177.50 888.48   Q 1177.53 893.46 1182.01 894.02   Q 1186.48 894.57 1206.87 894.15   C 1210.69 894.07 1213.44 893.33 1213.64 889.17   Q 1213.88 884.16 1213.69 876.79   A 0.50 0.49 89.4 0 0 1213.20 876.30   L 1196.02 876.30   A 0.82 0.81 90.0 0 0 1195.21 877.12   L 1195.21 880.72   A 0.95 0.94 -90.0 0 0 1196.15 881.67   Z   M 681.01 863.96   L 681.01 893.52   A 0.74 0.74 0.0 0 0 681.75 894.26   L 703.56 894.26   A 14.93 13.98 0.0 0 0 718.49 880.28   L 718.49 877.20   A 14.93 13.98 -0.0 0 0 703.56 863.22   L 681.75 863.22   A 0.74 0.74 0.0 0 0 681.01 863.96   Z   M 910.86 893.97   A 0.73 0.73 0.0 0 0 911.49 894.33   L 918.13 894.33   A 0.73 0.73 0.0 0 0 918.76 893.23   L 901.66 863.62   A 0.73 0.73 0.0 0 0 901.03 863.26   L 894.85 863.26   A 0.73 0.73 0.0 0 0 894.21 863.64   L 877.96 893.14   A 0.73 0.73 0.0 0 0 878.60 894.22   L 884.01 894.22   A 0.73 0.73 0.0 0 0 884.65 893.84   L 887.96 887.83   A 0.73 0.73 0.0 0 1 888.60 887.45   L 906.67 887.45   A 0.73 0.73 0.0 0 1 907.30 887.81   L 910.86 893.97   Z   M 1024.99 894.30   A 0.77 0.77 0.0 0 0 1025.76 893.53   L 1025.76 888.98   A 0.77 0.77 0.0 0 0 1024.99 888.21   L 1003.63 888.21   A 0.77 0.77 0.0 0 1 1002.86 887.44   L 1002.86 864.01   A 0.77 0.77 0.0 0 0 1002.09 863.24   L 996.24 863.24   A 0.77 0.77 0.0 0 0 995.47 864.01   L 995.47 893.53   A 0.77 0.77 0.0 0 0 996.24 894.30   L 1024.99 894.30   Z   M 1065.78 864.00   A 0.71 0.71 0.0 0 0 1065.07 863.29   L 1059.31 863.29   A 0.71 0.71 0.0 0 0 1058.60 864.00   L 1058.60 893.48   A 0.71 0.71 0.0 0 0 1059.31 894.19   L 1065.07 894.19   A 0.71 0.71 0.0 0 0 1065.78 893.48   L 1065.78 864.00   Z"/>
<path xmlns="http://www.w3.org/2000/svg" fill="#b98e4e" d="M 661.08 648.96   C 672.61 649.86 687.80 648.38 701.07 649.24   C 707.67 649.67 713.27 649.00 720.65 649.03   Q 799.81 649.35 881.25 649.11   Q 895.64 649.07 900.58 649.22   A 0.56 0.56 0.0 0 1 901.07 650.04   L 870.58 708.38   A 1.64 1.62 -76.0 0 1 869.14 709.26   L 677.10 709.26   A 1.29 1.28 -76.3 0 0 675.96 709.96   L 624.87 810.51   A 1.04 1.04 0.0 0 1 623.94 811.08   L 515.09 811.08   A 0.85 0.84 11.6 0 1 514.31 809.90   Q 517.22 803.15 521.10 796.70   C 524.24 791.49 526.57 785.23 529.66 780.14   Q 529.97 779.63 532.21 774.22   C 534.58 768.49 538.87 762.30 540.84 757.83   Q 543.44 751.93 546.12 746.95   Q 552.83 734.50 558.57 722.56   C 560.91 717.69 563.10 714.37 565.23 709.34   C 567.50 703.99 571.37 697.87 573.88 692.56   Q 579.24 681.25 582.77 674.49   Q 597.57 646.25 611.91 617.64   C 615.13 611.20 619.25 604.85 622.22 597.85   C 624.77 591.84 628.46 586.91 631.14 580.69   C 634.30 573.37 639.82 565.35 643.37 557.04   A 2.36 2.36 0.0 0 1 645.60 555.61   Q 655.53 555.87 663.53 555.88   Q 679.26 555.88 927.00 555.87   C 938.93 555.86 944.52 556.34 954.66 555.71   Q 961.42 555.28 970.92 556.03   A 0.71 0.71 0.0 0 1 971.51 557.05   C 969.20 561.93 968.26 564.16 965.76 568.34   Q 961.63 575.24 960.22 578.21   Q 953.81 591.71 951.87 594.87   Q 946.69 603.27 942.56 612.29   Q 941.51 614.58 938.83 618.52   A 1.58 1.57 -72.8 0 1 937.53 619.21   L 722.15 619.21   A 1.25 1.23 13.1 0 0 721.04 619.89   L 711.15 639.35   A 2.31 2.31 0.0 0 1 709.47 640.58   L 661.06 648.45   A 0.26 0.26 0.0 0 0 661.08 648.96   Z"/>
<path xmlns="http://www.w3.org/2000/svg" fill="#ffffff" d="M 517.90 751.04   L 486.89 810.39   A 1.00 1.00 0.0 0 1 486.00 810.93   Q 259.62 810.93 224.74 810.97   C 208.96 810.98 190.31 806.85 179.99 795.25   C 169.17 783.08 168.27 765.90 173.27 750.49   Q 174.64 746.26 179.63 736.62   Q 222.75 653.36 237.01 625.53   Q 244.65 610.64 249.64 604.22   C 257.86 593.67 268.78 584.69 280.16 577.93   Q 307.17 561.89 338.92 557.27   Q 349.07 555.80 373.14 555.81   Q 587.96 555.87 610.43 555.82   Q 612.71 555.81 614.69 556.09   A 0.70 0.70 0.0 0 1 615.21 557.11   L 583.24 618.31   A 1.67 1.66 -76.0 0 1 581.77 619.20   Q 466.49 619.17 373.50 619.20   C 362.31 619.20 348.38 623.98 342.94 634.56   Q 313.56 691.64 290.33 736.36   C 288.23 740.40 286.91 745.20 291.96 747.81   Q 294.98 749.36 298.50 749.53   Q 302.58 749.72 311.25 749.73   Q 369.35 749.80 507.75 749.89   Q 511.70 749.89 517.20 749.89   A 0.79 0.79 0.0 0 1 517.90 751.04   Z"/>
<path xmlns="http://www.w3.org/2000/svg" fill="#ffffff" d="M 1057.97 649.17   A 0.40 0.40 0.0 0 1 1058.32 649.75   L 1007.88 749.02   A 0.51 0.51 0.0 0 0 1008.34 749.76   Q 1091.32 749.78 1124.49 749.71   C 1131.77 749.69 1142.34 745.91 1148.21 740.04   Q 1150.58 737.67 1153.96 730.95   Q 1174.42 690.27 1202.68 634.94   Q 1204.62 631.16 1204.86 629.39   C 1205.95 621.52 1198.38 619.24 1192.25 619.22   Q 1173.38 619.17 987.17 619.18   C 980.08 619.18 973.97 619.51 967.48 619.19   A 0.87 0.87 0.0 0 1 966.76 617.91   Q 981.48 590.44 997.33 559.35   Q 998.29 557.46 999.40 556.20   A 1.12 1.10 20.2 0 1 1000.24 555.82   Q 1233.57 555.83 1261.25 555.81   C 1275.29 555.81 1290.27 558.47 1302.37 566.46   C 1321.10 578.83 1323.16 600.78 1316.86 620.87   C 1315.16 626.28 1312.29 632.42 1309.38 638.19   Q 1280.94 694.67 1260.99 735.00   C 1259.00 739.03 1255.03 747.39 1251.42 752.59   Q 1244.05 763.22 1239.09 768.14   C 1216.12 790.97 1185.43 806.07 1152.81 810.06   Q 1145.51 810.96 1130.17 810.95   Q 922.82 810.90 868.69 810.94   A 0.61 0.60 -76.3 0 1 868.16 810.06   L 949.70 649.57   A 0.73 0.72 13.2 0 1 950.35 649.17   L 1057.97 649.17   Z"/>
<path xmlns="http://www.w3.org/2000/svg" fill="#ffffff" d="M 599.10 850.53   Q 599.42 850.53 600.23 857.54   Q 600.60 860.79 602.12 865.43   C 604.33 872.17 609.66 875.29 616.27 876.53   Q 622.74 877.74 628.83 878.23   A 0.10 0.09 -46.3 0 1 628.83 878.42   C 624.33 879.17 616.80 879.71 610.92 881.94   C 603.11 884.90 601.34 891.84 600.31 899.26   Q 599.09 908.12 599.04 908.12   Q 598.99 908.12 597.78 899.26   C 596.77 891.84 595.01 884.89 587.21 881.92   C 581.33 879.68 573.81 879.12 569.31 878.36   A 0.10 0.09 46.4 0 1 569.31 878.17   Q 575.40 877.69 581.87 876.50   C 588.48 875.27 593.82 872.16 596.04 865.42   Q 597.57 860.79 597.95 857.54   Q 598.77 850.53 599.10 850.53   Z"/>
<path xmlns="http://www.w3.org/2000/svg" fill="#ffffff" d="M 282.58 887.35   Q 276.70 887.35 273.78 887.49   A 1.32 1.31 -77.6 0 0 272.67 888.21   L 270.20 893.08   A 2.21 2.20 13.3 0 1 268.23 894.29   L 263.08 894.29   A 0.88 0.88 0.0 0 1 262.32 892.98   L 278.59 864.03   A 1.56 1.53 -82.0 0 1 279.57 863.28   Q 280.05 863.16 282.62 863.16   Q 285.19 863.17 285.67 863.29   A 1.56 1.53 82.2 0 1 286.65 864.04   L 302.82 893.05   A 0.88 0.88 0.0 0 1 302.06 894.35   L 296.91 894.34   A 2.21 2.20 -13.1 0 1 294.94 893.12   L 292.49 888.24   A 1.32 1.31 77.7 0 0 291.39 887.52   Q 288.46 887.36 282.58 887.35   Z   M 276.30 880.82   A 0.69 0.69 0.0 0 0 276.91 881.83   L 287.80 881.92   A 0.69 0.69 0.0 0 0 288.42 880.92   L 283.07 870.36   A 0.69 0.69 0.0 0 0 281.84 870.35   L 276.30 880.82   Z"/>
<path xmlns="http://www.w3.org/2000/svg" fill="#ffffff" d="M 352.48 888.24   Q 361.54 888.24 361.75 888.24   A 0.72 0.72 0.0 0 0 362.50 887.52   L 362.53 864.15   A 1.06 1.06 0.0 0 1 363.59 863.09   L 368.70 863.09   A 1.27 1.26 -0.0 0 1 369.97 864.35   Q 369.90 881.34 369.99 887.25   Q 370.10 894.54 362.74 894.40   Q 360.91 894.36 352.48 894.36   Q 344.06 894.36 342.22 894.39   Q 334.87 894.53 334.98 887.24   Q 335.07 881.33 335.01 864.34   A 1.27 1.26 0.0 0 1 336.28 863.08   L 341.39 863.08   A 1.06 1.06 0.0 0 1 342.45 864.14   L 342.47 887.51   A 0.72 0.72 0.0 0 0 343.22 888.24   Q 343.43 888.24 352.48 888.24   Z"/>
<path xmlns="http://www.w3.org/2000/svg" fill="#ffffff" d="M 420.42 863.07   Q 429.05 863.12 437.17 863.19   A 1.05 1.05 0.0 0 1 438.21 864.24   L 438.21 867.90   A 1.03 1.03 0.0 0 1 437.18 868.93   L 425.02 868.93   A 0.96 0.95 -0.0 0 0 424.06 869.88   L 424.05 893.33   A 0.89 0.88 -4.7 0 1 423.31 894.20   Q 422.82 894.28 420.48 894.28   Q 418.13 894.29 417.64 894.21   A 0.89 0.88 4.4 0 1 416.90 893.34   L 416.80 869.89   A 0.96 0.95 -0.2 0 0 415.84 868.95   L 403.68 868.99   A 1.03 1.03 0.0 0 1 402.65 867.96   L 402.63 864.30   A 1.05 1.05 0.0 0 1 403.66 863.25   Q 411.79 863.15 420.42 863.07   Z"/>
<path xmlns="http://www.w3.org/2000/svg" fill="#ffffff" d="M 508.35 888.62   A 5.67 5.67 0.0 0 1 502.68 894.29   L 476.30 894.29   A 5.67 5.67 0.0 0 1 470.63 888.62   L 470.63 868.86   A 5.67 5.67 0.0 0 1 476.30 863.19   L 502.68 863.19   A 5.67 5.67 0.0 0 1 508.35 868.86   L 508.35 888.62   Z   M 500.8757 869.6401   A 0.70 0.70 0.0 0 0 500.1769 868.9389   L 478.5769 868.9012   A 0.70 0.70 0.0 0 0 477.8757 869.5999   L 477.8443 887.5799   A 0.70 0.70 0.0 0 0 478.5431 888.2811   L 500.1431 888.3188   A 0.70 0.70 0.0 0 0 500.8443 887.6201   L 500.8757 869.6401   Z"/>
<path xmlns="http://www.w3.org/2000/svg" fill="#ffffff" d="M 754.55 893.44   L 754.55 864.01   A 0.87 0.87 0.0 0 1 755.42 863.14   L 785.20 863.14   A 0.87 0.87 0.0 0 1 786.07 864.01   L 786.07 867.89   A 0.87 0.87 0.0 0 1 785.20 868.76   L 762.61 868.76   A 0.87 0.87 0.0 0 0 761.74 869.63   L 761.74 874.57   A 0.87 0.87 0.0 0 0 762.61 875.44   L 775.14 875.44   A 0.87 0.87 0.0 0 1 776.01 876.31   L 776.01 879.91   A 0.87 0.87 0.0 0 1 775.14 880.78   L 762.58 880.78   A 0.87 0.87 0.0 0 0 761.71 881.65   L 761.71 887.35   A 0.87 0.87 0.0 0 0 762.58 888.22   L 785.36 888.22   A 0.87 0.87 0.0 0 1 786.23 889.09   L 786.23 893.44   A 0.87 0.87 0.0 0 1 785.36 894.31   L 755.42 894.31   A 0.87 0.87 0.0 0 1 754.55 893.44   Z"/>
<path xmlns="http://www.w3.org/2000/svg" fill="#ffffff" d="M 836.05 894.28   Q 833.71 894.27 833.22 894.19   A 0.89 0.88 4.7 0 1 832.48 893.32   L 832.48 869.87   A 0.96 0.95 0.0 0 0 831.52 868.92   L 819.36 868.91   A 1.03 1.03 0.0 0 1 818.33 867.88   L 818.33 864.22   A 1.05 1.05 0.0 0 1 819.36 863.17   Q 827.49 863.11 836.12 863.05   Q 844.75 863.15 852.88 863.24   A 1.05 1.05 0.0 0 1 853.92 864.30   L 853.90 867.96   A 1.03 1.03 0.0 0 1 852.87 868.99   L 840.70 868.94   A 0.96 0.95 0.2 0 0 839.74 869.88   L 839.63 893.34   A 0.89 0.88 -4.4 0 1 838.88 894.21   Q 838.40 894.28 836.05 894.28   Z"/>
<rect xmlns="http://www.w3.org/2000/svg" fill="#ffffff" x="-3.66" y="-15.59" transform="translate(954.89,878.71) rotate(-0.1)" width="7.32" height="31.18" rx="0.81"/>
<path xmlns="http://www.w3.org/2000/svg" fill="#ffffff" d="M 1124.05 876.19   Q 1128.37 880.02 1132.92 883.68   A 0.36 0.36 0.0 0 0 1133.51 883.40   L 1133.51 864.18   A 1.19 1.19 0.0 0 1 1134.70 862.99   L 1138.98 862.99   A 1.19 1.18 -90.0 0 1 1140.16 864.18   L 1140.16 893.07   A 1.08 1.07 -2.0 0 1 1139.16 894.14   Q 1136.21 894.33 1135.17 894.04   A 3.69 3.59 -17.0 0 1 1133.90 893.39   Q 1129.44 889.84 1119.68 881.20   Q 1115.36 877.37 1110.81 873.71   A 0.36 0.36 0.0 0 0 1110.22 873.99   L 1110.22 893.21   A 1.19 1.19 0.0 0 1 1109.03 894.40   L 1104.75 894.40   A 1.19 1.18 -90.0 0 1 1103.57 893.21   L 1103.57 864.32   A 1.08 1.07 -2.0 0 1 1104.57 863.25   Q 1107.52 863.06 1108.56 863.35   A 3.69 3.59 -17.0 0 1 1109.82 864.00   Q 1114.29 867.55 1124.05 876.19   Z"/>
<path xmlns="http://www.w3.org/2000/svg" fill="#ffffff" d="M 1196.15 881.67   A 0.95 0.94 -90.0 0 1 1195.21 880.72   L 1195.21 877.12   A 0.82 0.81 -90.0 0 1 1196.02 876.30   L 1213.20 876.30   A 0.50 0.49 89.4 0 1 1213.69 876.79   Q 1213.88 884.16 1213.64 889.17   C 1213.44 893.33 1210.69 894.07 1206.87 894.15   Q 1186.48 894.57 1182.01 894.02   Q 1177.53 893.46 1177.50 888.48   Q 1177.43 876.44 1177.34 872.91   C 1177.18 867.10 1177.88 862.97 1184.29 863.15   Q 1186.64 863.22 1205.96 863.11   Q 1214.58 863.07 1213.76 870.85   A 0.78 0.77 -2.0 0 1 1213.12 871.53   L 1207.42 872.46   A 0.68 0.68 0.0 0 1 1206.64 871.79   L 1206.64 869.68   A 0.75 0.74 0.0 0 0 1205.89 868.94   L 1185.37 868.94   A 0.63 0.62 -0.0 0 0 1184.74 869.56   L 1184.74 887.69   A 0.63 0.63 0.0 0 0 1185.37 888.32   L 1205.87 888.32   A 0.80 0.79 0.0 0 0 1206.67 887.53   L 1206.67 882.50   A 0.83 0.83 0.0 0 0 1205.84 881.67   L 1196.15 881.67   Z"/>
<path xmlns="http://www.w3.org/2000/svg" fill="#ffffff" d="M 681.01 863.96   A 0.74 0.74 0.0 0 1 681.75 863.22   L 703.56 863.22   A 14.93 13.98 0.0 0 1 718.49 877.20   L 718.49 880.28   A 14.93 13.98 -0.0 0 1 703.56 894.26   L 681.75 894.26   A 0.74 0.74 0.0 0 1 681.01 893.52   L 681.01 863.96   Z   M 688.51 869.41   L 688.55 887.73   A 0.47 0.47 0.0 0 0 689.02 888.20   L 702.00 888.18   A 8.95 8.10 -0.1 0 0 710.93 880.06   L 710.93 877.00   A 8.95 8.10 -0.1 0 0 701.96 868.92   L 688.98 868.94   A 0.47 0.47 0.0 0 0 688.51 869.41   Z"/>
<path xmlns="http://www.w3.org/2000/svg" fill="#ffffff" d="M 910.86 893.97   L 907.30 887.81   A 0.73 0.73 0.0 0 0 906.67 887.45   L 888.60 887.45   A 0.73 0.73 0.0 0 0 887.96 887.83   L 884.65 893.84   A 0.73 0.73 0.0 0 1 884.01 894.22   L 878.60 894.22   A 0.73 0.73 0.0 0 1 877.96 893.14   L 894.21 863.64   A 0.73 0.73 0.0 0 1 894.85 863.26   L 901.03 863.26   A 0.73 0.73 0.0 0 1 901.66 863.62   L 918.76 893.23   A 0.73 0.73 0.0 0 1 918.13 894.33   L 911.49 894.33   A 0.73 0.73 0.0 0 1 910.86 893.97   Z   M 891.75 880.72   A 0.80 0.80 0.0 0 0 892.45 881.88   L 903.07 881.90   A 0.80 0.80 0.0 0 0 903.78 880.74   L 898.49 870.43   A 0.80 0.80 0.0 0 0 897.07 870.42   L 891.75 880.72   Z"/>
<path xmlns="http://www.w3.org/2000/svg" fill="#ffffff" d="M 1024.99 894.30   L 996.24 894.30   A 0.77 0.77 0.0 0 1 995.47 893.53   L 995.47 864.01   A 0.77 0.77 0.0 0 1 996.24 863.24   L 1002.09 863.24   A 0.77 0.77 0.0 0 1 1002.86 864.01   L 1002.86 887.44   A 0.77 0.77 0.0 0 0 1003.63 888.21   L 1024.99 888.21   A 0.77 0.77 0.0 0 1 1025.76 888.98   L 1025.76 893.53   A 0.77 0.77 0.0 0 1 1024.99 894.30   Z"/>
<rect xmlns="http://www.w3.org/2000/svg" fill="#ffffff" x="1058.60" y="863.29" width="7.18" height="30.90" rx="0.71"/>
<rect xmlns="http://www.w3.org/2000/svg" fill="#050505" x="-11.50" y="-9.69" transform="translate(489.36,878.61) rotate(0.1)" width="23.00" height="19.38" rx="0.70"/>
<path xmlns="http://www.w3.org/2000/svg" fill="#050505" d="M 688.51 869.41   A 0.47 0.47 0.0 0 1 688.98 868.94   L 701.96 868.92   A 8.95 8.10 -0.1 0 1 710.93 877.00   L 710.93 880.06   A 8.95 8.10 -0.1 0 1 702.00 888.18   L 689.02 888.20   A 0.47 0.47 0.0 0 1 688.55 887.73   L 688.51 869.41   Z"/>
<path xmlns="http://www.w3.org/2000/svg" fill="#050505" d="M 276.30 880.82   L 281.84 870.35   A 0.69 0.69 0.0 0 1 283.07 870.36   L 288.42 880.92   A 0.69 0.69 0.0 0 1 287.80 881.92   L 276.91 881.83   A 0.69 0.69 0.0 0 1 276.30 880.82   Z"/>
<path xmlns="http://www.w3.org/2000/svg" fill="#050505" d="M 891.75 880.72   L 897.07 870.42   A 0.80 0.80 0.0 0 1 898.49 870.43   L 903.78 880.74   A 0.80 0.80 0.0 0 1 903.07 881.90   L 892.45 881.88   A 0.80 0.80 0.0 0 1 891.75 880.72   Z"/>
</g></g></g></g></svg>