<svg xmlns="http://www.w3.org/2000/svg" direction="ltr" width="2048" height="2048" viewBox="17356.58141447356 4664.042066795321 2048 2048" stroke-linecap="round" stroke-linejoin="round" data-color-mode="light" class="tl-container tl-theme__force-sRGB tl-theme__light" style="background-color: transparent;"><defs/><g transform="matrix(1, 0, 0, 1, 17356.5814, 4664.0421)" opacity="1"><g data-lovart-layer-name="SVG 3"><g transform="scale(1.4143646408839778, 1.4143646408839778)"><g>
<g xmlns="http://www.w3.org/2000/svg" stroke-width="2.00" fill="none" stroke-linecap="butt">
<path stroke="#6c5637" d="M 518.23 750.47   Q 507.05 749.85 498.74 750.03   Q 488.19 750.25 483.27 750.25   Q 336.20 750.18 302.75 750.21   C 297.76 750.22 290.27 749.51 289.07 743.84   Q 288.62 741.68 291.77 735.54   Q 314.65 691.00 342.95 634.67   C 344.69 631.22 346.39 628.84 349.17 626.66   Q 355.39 621.80 363.24 619.69   Q 367.79 618.47 378.92 618.52   Q 388.82 618.57 577.00 618.52   Q 579.44 618.52 582.87 618.01   A 1.42 1.39 -79.1 0 0 583.88 617.31   Q 589.70 607.07 595.09 595.48   Q 597.94 589.37 600.65 584.64   C 603.63 579.43 605.54 573.50 608.78 568.26   Q 613.55 560.56 615.80 555.30   A 0.55 0.55 0.0 0 0 615.32 554.53   C 611.69 554.37 608.56 554.06 605.21 554.17   Q 595.84 554.48 592.25 554.48   Q 488.55 554.54 377.73 554.44   Q 349.95 554.42 339.36 555.93   C 313.87 559.58 289.27 569.22 268.64 584.90   C 256.98 593.77 247.62 604.71 240.86 617.71   C 224.24 649.66 204.67 688.76 179.52 738.28   Q 174.02 749.11 172.71 753.52   Q 170.06 762.44 170.13 770.02   Q 170.19 776.87 174.27 788.35   C 175.43 791.60 177.66 794.59 179.93 796.77   Q 188.70 805.20 199.84 808.86   C 213.40 813.31 224.61 812.45 241.00 812.45   Q 338.33 812.43 460.50 812.44   Q 468.45 812.44 486.73 812.28   A 2.02 2.02 0.0 0 0 488.56 811.08   Q 490.03 807.77 491.76 803.63   C 493.70 798.96 497.50 794.03 499.48 789.50   C 502.83 781.86 507.42 771.68 512.55 763.36   Q 516.09 757.62 518.59 751.02   A 0.41 0.41 0.0 0 0 518.23 750.47"/>
<path stroke="#6c5637" d="M 661.62 648.37   Q 675.61 645.70 685.61 644.40   Q 690.76 643.73 698.06 641.95   Q 703.11 640.72 710.65 639.95   A 1.93 1.91 -79.2 0 0 712.18 638.90   L 722.09 619.19   A 1.17 1.16 13.2 0 1 723.13 618.55   L 938.15 618.55   A 1.51 1.50 14.6 0 0 939.46 617.79   C 943.83 610.22 946.90 602.98 950.96 595.77   C 956.65 585.69 959.96 576.19 965.79 566.91   Q 969.13 561.58 971.93 555.63   A 0.80 0.80 0.0 0 0 971.21 554.49   L 646.12 554.49   A 1.83 1.82 13.7 0 0 644.50 555.47   C 614.72 613.26 585.78 670.11 552.91 735.82   Q 550.04 741.54 546.92 747.55   C 542.66 755.72 539.71 762.75 535.23 770.54   C 531.75 776.59 529.23 783.31 525.50 789.86   Q 524.18 792.18 521.64 797.99   A 9.82 9.05 76.4 0 1 520.84 799.43   Q 516.78 805.46 514.45 811.66   A 0.59 0.58 10.3 0 0 515.00 812.45   L 624.18 812.45   A 1.51 1.48 13.1 0 0 625.52 811.63   L 676.82 709.64   A 1.99 1.99 0.0 0 1 678.60 708.54   L 871.37 708.54   A 1.27 1.26 13.3 0 0 872.50 707.85   L 901.90 649.38   A 0.39 0.39 0.0 0 0 901.58 648.81   C 891.55 648.20 882.80 648.59 872.28 648.59   Q 756.73 648.62 721.46 648.56   C 714.94 648.55 708.91 649.14 702.65 648.76   C 693.63 648.23 687.14 648.30 677.00 648.76   Q 669.96 649.08 661.62 648.37"/>
<path stroke="#6c5637" d="M 1009.11 749.67   L 1059.47 649.55   A 0.63 0.63 0.0 0 0 1058.91 648.64   Q 1004.59 648.51 953.86 648.73   C 951.96 648.74 950.61 648.34 949.68 650.43   Q 947.59 655.09 944.75 660.56   Q 936.29 676.85 927.25 694.86   Q 901.61 745.95 874.40 800.66   Q 871.76 805.98 868.62 811.71   A 0.61 0.61 0.0 0 0 869.17 812.61   Q 879.40 812.43 881.68 812.43   Q 1089.13 812.44 1141.00 812.41   Q 1149.83 812.40 1159.84 810.63   Q 1195.57 804.32 1224.11 783.65   Q 1237.80 773.73 1247.87 760.76   Q 1252.64 754.62 1258.03 744.02   Q 1261.24 737.70 1268.02 723.75   Q 1272.34 714.86 1314.93 629.16   Q 1318.96 621.06 1320.99 609.81   C 1322.11 603.61 1321.30 598.30 1320.41 591.55   Q 1319.41 583.95 1315.57 578.19   C 1310.44 570.50 1304.10 564.87 1295.44 561.02   C 1280.35 554.32 1268.57 554.51 1248.89 554.50   Q 1086.69 554.46 1000.63 554.51   A 1.65 1.65 0.0 0 0 999.16 555.41   L 967.10 617.56   A 0.72 0.71 16.4 0 0 967.67 618.60   C 974.00 619.15 980.74 618.54 988.10 618.54   Q 1121.67 618.57 1186.75 618.48   Q 1193.51 618.47 1198.51 619.23   C 1205.83 620.35 1208.13 626.79 1204.74 632.99   Q 1202.00 638.00 1200.19 641.65   Q 1176.47 689.36 1153.34 735.34   Q 1150.30 741.39 1144.60 744.86   C 1139.41 748.03 1132.50 750.22 1126.25 750.22   Q 1042.47 750.18 1009.48 750.27   A 0.41 0.41 0.0 0 1 1009.11 749.67"/>
<path stroke="#6c5637" d="M 599.37 907.23   Q 599.69 905.98 600.33 899.34   C 601.17 890.59 605.17 883.14 614.36 881.37   Q 621.72 879.95 628.95 879.67   A 0.08 0.08 0.0 0 0 629.02 879.59   L 629.02 879.33   A 0.29 0.29 0.0 0 0 628.76 879.04   Q 621.13 878.31 613.78 876.71   Q 609.21 875.72 607.23 873.97   Q 601.43 868.86 600.58 860.45   Q 600.04 855.08 599.77 849.52   A 0.04 0.04 0.0 0 0 599.73 849.48   L 599.41 849.48   A 0.30 0.29 2.0 0 0 599.11 849.75   C 598.31 858.94 597.96 869.10 589.70 874.61   Q 586.64 876.65 580.25 877.61   Q 575.08 878.40 569.79 879.32   A 0.19 0.19 0.0 0 0 569.80 879.69   Q 578.46 880.63 583.81 881.40   Q 594.69 882.97 596.83 893.41   Q 597.78 898.04 599.01 907.20   A 0.19 0.18 49.0 0 0 599.37 907.23"/>
<path stroke="#6c5637" d="M 295.88 894.39   A 0.55 0.55 0.0 0 0 296.36 894.67   L 303.11 894.67   A 0.55 0.55 0.0 0 0 303.58 893.84   L 286.58 864.39   A 0.55 0.55 0.0 0 0 286.10 864.12   L 280.03 864.12   A 0.55 0.55 0.0 0 0 279.55 864.39   L 262.52 893.88   A 0.55 0.55 0.0 0 0 262.99 894.71   L 269.04 894.71   A 0.55 0.55 0.0 0 0 269.52 894.44   L 272.98 888.44   A 0.55 0.55 0.0 0 1 273.46 888.17   L 291.97 888.17   A 0.55 0.55 0.0 0 1 292.45 888.45   L 295.88 894.39"/>
<path stroke="#6c5637" d="M 369.66 864.27   L 364.85 864.13   A 1.04 1.04 0.0 0 0 363.78 865.14   L 363.12 888.19   A 1.07 1.07 0.0 0 1 362.02 889.22   L 343.59 888.69   A 0.98 0.97 1.8 0 1 342.64 887.69   L 343.29 865.14   A 0.93 0.92 -88.8 0 0 342.39 864.19   L 336.48 864.02   A 0.85 0.84 -89.0 0 0 335.61 864.87   Q 335.60 875.32 335.92 888.78   Q 336.05 894.34 341.38 894.66   Q 349.55 895.15 361.26 894.60   C 366.51 894.36 370.80 894.39 370.74 888.71   Q 370.56 873.41 370.58 865.21   A 0.94 0.94 0.0 0 0 369.66 864.27"/>
<path stroke="#6c5637" d="M 421.07 894.72   Q 422.37 894.72 423.60 894.72   A 0.95 0.94 -89.9 0 0 424.55 893.77   L 424.54 870.61   A 1.11 1.11 0.0 0 1 425.65 869.50   L 438.23 869.49   A 0.86 0.86 0.0 0 0 439.09 868.63   L 439.09 865.03   A 0.88 0.88 0.0 0 0 438.20 864.15   Q 429.93 864.29 421.06 864.05   Q 412.18 864.30 403.92 864.16   A 0.88 0.88 0.0 0 0 403.02 865.04   L 403.02 868.64   A 0.86 0.86 0.0 0 0 403.88 869.50   L 416.47 869.50   A 1.11 1.11 0.0 0 1 417.58 870.61   L 417.58 893.78   A 0.95 0.94 89.8 0 0 418.53 894.72   Q 419.76 894.72 421.07 894.72"/>
<path stroke="#6c5637" d="M 508.7335 869.8556   A 5.62 5.62 0.0 0 0 503.1332 864.2160   L 476.8133 864.1242   A 5.62 5.62 0.0 0 0 471.1737 869.7245   L 471.1065 888.9844   A 5.62 5.62 0.0 0 0 476.7068 894.6240   L 503.0267 894.7158   A 5.62 5.62 0.0 0 0 508.6663 889.1155   L 508.7335 869.8556"/>
<path stroke="#6c5637" d="M 681.63 864.86   L 681.57 893.92   A 0.67 0.67 0.0 0 0 682.24 894.59   L 704.07 894.63   A 14.88 13.98 0.1 0 0 718.98 880.67   L 718.98 878.23   A 14.88 13.98 0.1 0 0 704.13 864.23   L 682.30 864.19   A 0.67 0.67 0.0 0 0 681.63 864.86"/>
<path stroke="#6c5637" d="M 776.39 876.83   A 0.63 0.63 0.0 0 0 775.76 876.20   L 762.56 876.20   A 0.63 0.63 0.0 0 1 761.93 875.57   L 761.93 869.94   A 0.63 0.63 0.0 0 1 762.56 869.31   L 785.72 869.31   A 0.63 0.63 0.0 0 0 786.35 868.68   L 786.35 864.76   A 0.63 0.63 0.0 0 0 785.72 864.13   L 755.47 864.13   A 0.63 0.63 0.0 0 0 754.84 864.76   L 754.84 894.02   A 0.63 0.63 0.0 0 0 755.47 894.65   L 786.08 894.65   A 0.63 0.63 0.0 0 0 786.71 894.02   L 786.71 889.77   A 0.63 0.63 0.0 0 0 786.08 889.14   L 762.79 889.14   A 0.63 0.63 0.0 0 1 762.16 888.51   L 762.16 882.24   A 0.63 0.63 0.0 0 1 762.76 881.61   L 775.79 881.02   A 0.63 0.63 0.0 0 0 776.39 880.39   L 776.39 876.83"/>
<path stroke="#6c5637" d="M 836.44 894.67   Q 837.74 894.67 838.96 894.67   A 0.94 0.94 0.0 0 0 839.91 893.73   L 839.91 870.63   A 1.11 1.11 0.0 0 1 841.02 869.52   L 853.57 869.52   A 0.86 0.86 0.0 0 0 854.43 868.66   L 854.43 865.07   A 0.88 0.87 -0.6 0 0 853.54 864.20   Q 845.29 864.33 836.44 864.09   Q 827.60 864.33 819.35 864.19   A 0.88 0.87 0.6 0 0 818.46 865.06   L 818.46 868.65   A 0.86 0.86 0.0 0 0 819.32 869.51   L 831.87 869.52   A 1.11 1.11 0.0 0 1 832.97 870.63   L 832.96 893.73   A 0.94 0.94 0.0 0 0 833.91 894.67   Q 835.14 894.67 836.44 894.67"/>
<path stroke="#6c5637" d="M 1025.97 894.62   A 0.75 0.75 0.0 0 0 1026.72 893.87   L 1026.72 889.84   A 0.75 0.75 0.0 0 0 1025.97 889.09   L 1004.43 889.09   A 0.75 0.75 0.0 0 1 1003.68 888.34   L 1003.68 864.87   A 0.75 0.75 0.0 0 0 1002.93 864.12   L 997.18 864.12   A 0.75 0.75 0.0 0 0 996.43 864.87   L 996.43 893.87   A 0.75 0.75 0.0 0 0 997.18 894.62   L 1025.97 894.62"/>
<path stroke="#6c5637" d="M 1066.4453 864.8863   A 0.72 0.72 0.0 0 0 1065.7265 864.1650   L 1059.9666 864.1550   A 0.72 0.72 0.0 0 0 1059.2453 864.8737   L 1059.1947 893.8537   A 0.72 0.72 0.0 0 0 1059.9135 894.5750   L 1065.6734 894.5850   A 0.72 0.72 0.0 0 0 1066.3947 893.8663   L 1066.4453 864.8863"/>
<path stroke="#6c5637" d="M 1111.03 874.30   L 1135.42 894.51   A 0.77 0.72 63.1 0 0 1135.89 894.68   L 1139.87 894.68   A 0.79 0.78 90.0 0 0 1140.65 893.89   L 1140.65 865.10   A 1.06 1.06 0.0 0 0 1139.59 864.04   L 1135.01 864.04   A 1.05 1.04 -1.3 0 0 1133.96 865.13   Q 1134.32 873.48 1134.39 881.39   Q 1134.40 883.79 1134.04 884.53   A 0.48 0.47 -56.9 0 1 1133.31 884.69   Q 1128.53 880.65 1124.44 876.81   C 1119.00 871.71 1115.34 869.07 1109.79 864.69   Q 1108.69 863.81 1104.79 864.37   A 0.85 0.85 0.0 0 0 1104.05 865.21   L 1104.05 893.67   A 1.07 1.07 0.0 0 0 1105.12 894.74   L 1109.83 894.74   A 0.96 0.96 0.0 0 0 1110.79 893.78   L 1110.79 874.41   A 0.15 0.14 -69.5 0 1 1111.03 874.30"/>
<path stroke="#6c5637" d="M 1208.23 869.98   L 1208.16 872.24   A 0.63 0.62 89.2 0 0 1208.81 872.88   L 1213.80 872.65   A 1.45 1.45 0.0 0 0 1215.18 871.20   Q 1215.15 864.57 1209.14 864.35   Q 1194.71 863.83 1183.79 864.27   C 1178.46 864.48 1178.40 869.44 1178.73 873.50   C 1179.16 878.70 1178.90 882.16 1178.93 889.50   C 1178.95 893.94 1182.60 894.67 1186.51 894.69   Q 1202.45 894.78 1208.80 894.51   C 1211.89 894.38 1214.57 893.81 1214.83 890.37   Q 1215.10 886.73 1215.31 877.79   A 1.15 1.15 0.0 0 0 1214.10 876.61   L 1197.68 877.36   A 0.86 0.86 0.0 0 0 1196.86 878.22   L 1196.86 881.19   A 0.90 0.89 -89.0 0 0 1197.72 882.09   L 1207.01 882.35   A 0.94 0.94 0.0 0 1 1207.92 883.29   L 1207.92 888.35   A 0.92 0.91 -90.0 0 1 1207.01 889.27   L 1187.02 889.27   A 1.04 1.03 87.6 0 1 1185.99 888.32   Q 1185.35 880.88 1186.20 870.16   A 0.82 0.81 -87.7 0 1 1187.01 869.40   L 1207.67 869.40   A 0.56 0.56 0.0 0 1 1208.23 869.98"/>
<path stroke="#6c5637" d="M 918.93 893.78   L 902.45 864.90   A 1.42 1.42 0.0 0 0 901.22 864.18   L 895.81 864.21   A 1.32 1.32 0.0 0 0 894.67 864.88   L 878.42 893.78   A 0.55 0.54 15.2 0 0 878.89 894.59   L 884.25 894.69   A 1.35 1.34 14.6 0 0 885.48 893.98   L 888.28 888.71   A 1.10 1.09 -75.9 0 1 889.25 888.12   L 907.06 888.17   A 1.53 1.52 -13.7 0 1 908.42 888.99   L 910.91 893.80   A 1.58 1.57 -13.4 0 0 912.31 894.66   L 918.43 894.63   A 0.57 0.57 0.0 0 0 918.93 893.78"/>
<path stroke="#6c5637" d="M 959.1202 865.0221   A 0.71 0.71 0.0 0 0 958.4127 864.3096   L 952.9727 864.2906   A 0.71 0.71 0.0 0 0 952.2603 864.9981   L 952.1598 893.7779   A 0.71 0.71 0.0 0 0 952.8673 894.4904   L 958.3073 894.5094   A 0.71 0.71 0.0 0 0 959.0197 893.8019   L 959.1202 865.0221"/>
<path stroke="#6c5637" d="M 282.85 882.38   Q 284.29 882.40 288.69 882.52   A 0.55 0.55 0.0 0 0 289.20 881.72   Q 286.73 876.80 283.74 870.77   Q 283.51 870.32 283.01 870.32   Q 282.51 870.31 282.28 870.75   Q 279.12 876.69 276.51 881.54   A 0.55 0.55 0.0 0 0 276.99 882.36   Q 281.40 882.36 282.85 882.38"/>
<path stroke="#6c5637" d="M 501.58 888.96   L 501.58 869.78   A 0.23 0.23 0.0 0 0 501.35 869.55   L 480.21 869.55   A 1.97 1.85 -0.0 0 0 478.24 871.40   L 478.24 887.34   A 1.97 1.85 0.0 0 0 480.21 889.19   L 501.35 889.19   A 0.23 0.23 0.0 0 0 501.58 888.96"/>
<path stroke="#6c5637" d="M 688.81 869.99   L 689.04 888.83   A 0.41 0.41 0.0 0 0 689.45 889.23   L 702.61 889.07   A 9.33 8.34 -0.7 0 0 711.84 880.62   L 711.80 877.64   A 9.33 8.34 -0.7 0 0 702.37 869.41   L 689.21 869.58   A 0.41 0.41 0.0 0 0 688.81 869.99"/>
<path stroke="#6c5637" d="M 898.33 882.19   Q 899.52 882.20 904.13 882.42   A 0.41 0.41 0.0 0 0 904.52 881.84   Q 901.73 875.78 899.28 870.49   Q 899.07 870.03 898.48 870.02   Q 897.88 870.02 897.66 870.47   Q 895.08 875.70 892.14 881.69   A 0.41 0.41 0.0 0 0 892.52 882.27   Q 897.13 882.17 898.33 882.19"/>
</g>
<path xmlns="http://www.w3.org/2000/svg" fill="#bb9053" d="M 1448.00 0.00   L 1448.00 1448.00   L 0.00 1448.00   L 0.00 0.00   L 1448.00 0.00   Z   M 518.23 750.47   Q 507.05 749.85 498.74 750.03   Q 488.19 750.25 483.27 750.25   Q 336.20 750.18 302.75 750.21   C 297.76 750.22 290.27 749.51 289.07 743.84   Q 288.62 741.68 291.77 735.54   Q 314.65 691.00 342.95 634.67   C 344.69 631.22 346.39 628.84 349.17 626.66   Q 355.39 621.80 363.24 619.69   Q 367.79 618.47 378.92 618.52   Q 388.82 618.57 577.00 618.52   Q 579.44 618.52 582.87 618.01   A 1.42 1.39 -79.1 0 0 583.88 617.31   Q 589.70 607.07 595.09 595.48   Q 597.94 589.37 600.65 584.64   C 603.63 579.43 605.54 573.50 608.78 568.26   Q 613.55 560.56 615.80 555.30   A 0.55 0.55 0.0 0 0 615.32 554.53   C 611.69 554.37 608.56 554.06 605.21 554.17   Q 595.84 554.48 592.25 554.48   Q 488.55 554.54 377.73 554.44   Q 349.95 554.42 339.36 555.93   C 313.87 559.58 289.27 569.22 268.64 584.90   C 256.98 593.77 247.62 604.71 240.86 617.71   C 224.24 649.66 204.67 688.76 179.52 738.28   Q 174.02 749.11 172.71 753.52   Q 170.06 762.44 170.13 770.02   Q 170.19 776.87 174.27 788.35   C 175.43 791.60 177.66 794.59 179.93 796.77   Q 188.70 805.20 199.84 808.86   C 213.40 813.31 224.61 812.45 241.00 812.45   Q 338.33 812.43 460.50 812.44   Q 468.45 812.44 486.73 812.28   A 2.02 2.02 0.0 0 0 488.56 811.08   Q 490.03 807.77 491.76 803.63   C 493.70 798.96 497.50 794.03 499.48 789.50   C 502.83 781.86 507.42 771.68 512.55 763.36   Q 516.09 757.62 518.59 751.02   A 0.41 0.41 0.0 0 0 518.23 750.47   Z   M 661.62 648.37   Q 675.61 645.70 685.61 644.40   Q 690.76 643.73 698.06 641.95   Q 703.11 640.72 710.65 639.95   A 1.93 1.91 -79.2 0 0 712.18 638.90   L 722.09 619.19   A 1.17 1.16 13.2 0 1 723.13 618.55   L 938.15 618.55   A 1.51 1.50 14.6 0 0 939.46 617.79   C 943.83 610.22 946.90 602.98 950.96 595.77   C 956.65 585.69 959.96 576.19 965.79 566.91   Q 969.13 561.58 971.93 555.63   A 0.80 0.80 0.0 0 0 971.21 554.49   L 646.12 554.49   A 1.83 1.82 13.7 0 0 644.50 555.47   C 614.72 613.26 585.78 670.11 552.91 735.82   Q 550.04 741.54 546.92 747.55   C 542.66 755.72 539.71 762.75 535.23 770.54   C 531.75 776.59 529.23 783.31 525.50 789.86   Q 524.18 792.18 521.64 797.99   A 9.82 9.05 76.4 0 1 520.84 799.43   Q 516.78 805.46 514.45 811.66   A 0.59 0.58 10.3 0 0 515.00 812.45   L 624.18 812.45   A 1.51 1.48 13.1 0 0 625.52 811.63   L 676.82 709.64   A 1.99 1.99 0.0 0 1 678.60 708.54   L 871.37 708.54   A 1.27 1.26 13.3 0 0 872.50 707.85   L 901.90 649.38   A 0.39 0.39 0.0 0 0 901.58 648.81   C 891.55 648.20 882.80 648.59 872.28 648.59   Q 756.73 648.62 721.46 648.56   C 714.94 648.55 708.91 649.14 702.65 648.76   C 693.63 648.23 687.14 648.30 677.00 648.76   Q 669.96 649.08 661.62 648.37   Z   M 1009.11 749.67   L 1059.47 649.55   A 0.63 0.63 0.0 0 0 1058.91 648.64   Q 1004.59 648.51 953.86 648.73   C 951.96 648.74 950.61 648.34 949.68 650.43   Q 947.59 655.09 944.75 660.56   Q 936.29 676.85 927.25 694.86   Q 901.61 745.95 874.40 800.66   Q 871.76 805.98 868.62 811.71   A 0.61 0.61 0.0 0 0 869.17 812.61   Q 879.40 812.43 881.68 812.43   Q 1089.13 812.44 1141.00 812.41   Q 1149.83 812.40 1159.84 810.63   Q 1195.57 804.32 1224.11 783.65   Q 1237.80 773.73 1247.87 760.76   Q 1252.64 754.62 1258.03 744.02   Q 1261.24 737.70 1268.02 723.75   Q 1272.34 714.86 1314.93 629.16   Q 1318.96 621.06 1320.99 609.81   C 1322.11 603.61 1321.30 598.30 1320.41 591.55   Q 1319.41 583.95 1315.57 578.19   C 1310.44 570.50 1304.10 564.87 1295.44 561.02   C 1280.35 554.32 1268.57 554.51 1248.89 554.50   Q 1086.69 554.46 1000.63 554.51   A 1.65 1.65 0.0 0 0 999.16 555.41   L 967.10 617.56   A 0.72 0.71 16.4 0 0 967.67 618.60   C 974.00 619.15 980.74 618.54 988.10 618.54   Q 1121.67 618.57 1186.75 618.48   Q 1193.51 618.47 1198.51 619.23   C 1205.83 620.35 1208.13 626.79 1204.74 632.99   Q 1202.00 638.00 1200.19 641.65   Q 1176.47 689.36 1153.34 735.34   Q 1150.30 741.39 1144.60 744.86   C 1139.41 748.03 1132.50 750.22 1126.25 750.22   Q 1042.47 750.18 1009.48 750.27   A 0.41 0.41 0.0 0 1 1009.11 749.67   Z   M 599.37 907.23   Q 599.69 905.98 600.33 899.34   C 601.17 890.59 605.17 883.14 614.36 881.37   Q 621.72 879.95 628.95 879.67   A 0.08 0.08 0.0 0 0 629.02 879.59   L 629.02 879.33   A 0.29 0.29 0.0 0 0 628.76 879.04   Q 621.13 878.31 613.78 876.71   Q 609.21 875.72 607.23 873.97   Q 601.43 868.86 600.58 860.45   Q 600.04 855.08 599.77 849.52   A 0.04 0.04 0.0 0 0 599.73 849.48   L 599.41 849.48   A 0.30 0.29 2.0 0 0 599.11 849.75   C 598.31 858.94 597.96 869.10 589.70 874.61   Q 586.64 876.65 580.25 877.61   Q 575.08 878.40 569.79 879.32   A 0.19 0.19 0.0 0 0 569.80 879.69   Q 578.46 880.63 583.81 881.40   Q 594.69 882.97 596.83 893.41   Q 597.78 898.04 599.01 907.20   A 0.19 0.18 49.0 0 0 599.37 907.23   Z   M 295.88 894.39   A 0.55 0.55 0.0 0 0 296.36 894.67   L 303.11 894.67   A 0.55 0.55 0.0 0 0 303.58 893.84   L 286.58 864.39   A 0.55 0.55 0.0 0 0 286.10 864.12   L 280.03 864.12   A 0.55 0.55 0.0 0 0 279.55 864.39   L 262.52 893.88   A 0.55 0.55 0.0 0 0 262.99 894.71   L 269.04 894.71   A 0.55 0.55 0.0 0 0 269.52 894.44   L 272.98 888.44   A 0.55 0.55 0.0 0 1 273.46 888.17   L 291.97 888.17   A 0.55 0.55 0.0 0 1 292.45 888.45   L 295.88 894.39   Z   M 369.66 864.27   L 364.85 864.13   A 1.04 1.04 0.0 0 0 363.78 865.14   L 363.12 888.19   A 1.07 1.07 0.0 0 1 362.02 889.22   L 343.59 888.69   A 0.98 0.97 1.8 0 1 342.64 887.69   L 343.29 865.14   A 0.93 0.92 -88.8 0 0 342.39 864.19   L 336.48 864.02   A 0.85 0.84 -89.0 0 0 335.61 864.87   Q 335.60 875.32 335.92 888.78   Q 336.05 894.34 341.38 894.66   Q 349.55 895.15 361.26 894.60   C 366.51 894.36 370.80 894.39 370.74 888.71   Q 370.56 873.41 370.58 865.21   A 0.94 0.94 0.0 0 0 369.66 864.27   Z   M 421.07 894.72   Q 422.37 894.72 423.60 894.72   A 0.95 0.94 -89.9 0 0 424.55 893.77   L 424.54 870.61   A 1.11 1.11 0.0 0 1 425.65 869.50   L 438.23 869.49   A 0.86 0.86 0.0 0 0 439.09 868.63   L 439.09 865.03   A 0.88 0.88 0.0 0 0 438.20 864.15   Q 429.93 864.29 421.06 864.05   Q 412.18 864.30 403.92 864.16   A 0.88 0.88 0.0 0 0 403.02 865.04   L 403.02 868.64   A 0.86 0.86 0.0 0 0 403.88 869.50   L 416.47 869.50   A 1.11 1.11 0.0 0 1 417.58 870.61   L 417.58 893.78   A 0.95 0.94 89.8 0 0 418.53 894.72   Q 419.76 894.72 421.07 894.72   Z   M 508.7335 869.8556   A 5.62 5.62 0.0 0 0 503.1332 864.2160   L 476.8133 864.1242   A 5.62 5.62 0.0 0 0 471.1737 869.7245   L 471.1065 888.9844   A 5.62 5.62 0.0 0 0 476.7068 894.6240   L 503.0267 894.7158   A 5.62 5.62 0.0 0 0 508.6663 889.1155   L 508.7335 869.8556   Z   M 681.63 864.86   L 681.57 893.92   A 0.67 0.67 0.0 0 0 682.24 894.59   L 704.07 894.63   A 14.88 13.98 0.1 0 0 718.98 880.67   L 718.98 878.23   A 14.88 13.98 0.1 0 0 704.13 864.23   L 682.30 864.19   A 0.67 0.67 0.0 0 0 681.63 864.86   Z   M 776.39 876.83   A 0.63 0.63 0.0 0 0 775.76 876.20   L 762.56 876.20   A 0.63 0.63 0.0 0 1 761.93 875.57   L 761.93 869.94   A 0.63 0.63 0.0 0 1 762.56 869.31   L 785.72 869.31   A 0.63 0.63 0.0 0 0 786.35 868.68   L 786.35 864.76   A 0.63 0.63 0.0 0 0 785.72 864.13   L 755.47 864.13   A 0.63 0.63 0.0 0 0 754.84 864.76   L 754.84 894.02   A 0.63 0.63 0.0 0 0 755.47 894.65   L 786.08 894.65   A 0.63 0.63 0.0 0 0 786.71 894.02   L 786.71 889.77   A 0.63 0.63 0.0 0 0 786.08 889.14   L 762.79 889.14   A 0.63 0.63 0.0 0 1 762.16 888.51   L 762.16 882.24   A 0.63 0.63 0.0 0 1 762.76 881.61   L 775.79 881.02   A 0.63 0.63 0.0 0 0 776.39 880.39   L 776.39 876.83   Z   M 836.44 894.67   Q 837.74 894.67 838.96 894.67   A 0.94 0.94 0.0 0 0 839.91 893.73   L 839.91 870.63   A 1.11 1.11 0.0 0 1 841.02 869.52   L 853.57 869.52   A 0.86 0.86 0.0 0 0 854.43 868.66   L 854.43 865.07   A 0.88 0.87 -0.6 0 0 853.54 864.20   Q 845.29 864.33 836.44 864.09   Q 827.60 864.33 819.35 864.19   A 0.88 0.87 0.6 0 0 818.46 865.06   L 818.46 868.65   A 0.86 0.86 0.0 0 0 819.32 869.51   L 831.87 869.52   A 1.11 1.11 0.0 0 1 832.97 870.63   L 832.96 893.73   A 0.94 0.94 0.0 0 0 833.91 894.67   Q 835.14 894.67 836.44 894.67   Z   M 1025.97 894.62   A 0.75 0.75 0.0 0 0 1026.72 893.87   L 1026.72 889.84   A 0.75 0.75 0.0 0 0 1025.97 889.09   L 1004.43 889.09   A 0.75 0.75 0.0 0 1 1003.68 888.34   L 1003.68 864.87   A 0.75 0.75 0.0 0 0 1002.93 864.12   L 997.18 864.12   A 0.75 0.75 0.0 0 0 996.43 864.87   L 996.43 893.87   A 0.75 0.75 0.0 0 0 997.18 894.62   L 1025.97 894.62   Z   M 1066.4453 864.8863   A 0.72 0.72 0.0 0 0 1065.7265 864.1650   L 1059.9666 864.1550   A 0.72 0.72 0.0 0 0 1059.2453 864.8737   L 1059.1947 893.8537   A 0.72 0.72 0.0 0 0 1059.9135 894.5750   L 1065.6734 894.5850   A 0.72 0.72 0.0 0 0 1066.3947 893.8663   L 1066.4453 864.8863   Z   M 1111.03 874.30   L 1135.42 894.51   A 0.77 0.72 63.1 0 0 1135.89 894.68   L 1139.87 894.68   A 0.79 0.78 90.0 0 0 1140.65 893.89   L 1140.65 865.10   A 1.06 1.06 0.0 0 0 1139.59 864.04   L 1135.01 864.04   A 1.05 1.04 -1.3 0 0 1133.96 865.13   Q 1134.32 873.48 1134.39 881.39   Q 1134.40 883.79 1134.04 884.53   A 0.48 0.47 -56.9 0 1 1133.31 884.69   Q 1128.53 880.65 1124.44 876.81   C 1119.00 871.71 1115.34 869.07 1109.79 864.69   Q 1108.69 863.81 1104.79 864.37   A 0.85 0.85 0.0 0 0 1104.05 865.21   L 1104.05 893.67   A 1.07 1.07 0.0 0 0 1105.12 894.74   L 1109.83 894.74   A 0.96 0.96 0.0 0 0 1110.79 893.78   L 1110.79 874.41   A 0.15 0.14 -69.5 0 1 1111.03 874.30   Z   M 1208.23 869.98   L 1208.16 872.24   A 0.63 0.62 89.2 0 0 1208.81 872.88   L 1213.80 872.65   A 1.45 1.45 0.0 0 0 1215.18 871.20   Q 1215.15 864.57 1209.14 864.35   Q 1194.71 863.83 1183.79 864.27   C 1178.46 864.48 1178.40 869.44 1178.73 873.50   C 1179.16 878.70 1178.90 882.16 1178.93 889.50   C 1178.95 893.94 1182.60 894.67 1186.51 894.69   Q 1202.45 894.78 1208.80 894.51   C 1211.89 894.38 1214.57 893.81 1214.83 890.37   Q 1215.10 886.73 1215.31 877.79   A 1.15 1.15 0.0 0 0 1214.10 876.61   L 1197.68 877.36   A 0.86 0.86 0.0 0 0 1196.86 878.22   L 1196.86 881.19   A 0.90 0.89 -89.0 0 0 1197.72 882.09   L 1207.01 882.35   A 0.94 0.94 0.0 0 1 1207.92 883.29   L 1207.92 888.35   A 0.92 0.91 -90.0 0 1 1207.01 889.27   L 1187.02 889.27   A 1.04 1.03 87.6 0 1 1185.99 888.32   Q 1185.35 880.88 1186.20 870.16   A 0.82 0.81 -87.7 0 1 1187.01 869.40   L 1207.67 869.40   A 0.56 0.56 0.0 0 1 1208.23 869.98   Z   M 918.93 893.78   L 902.45 864.90   A 1.42 1.42 0.0 0 0 901.22 864.18   L 895.81 864.21   A 1.32 1.32 0.0 0 0 894.67 864.88   L 878.42 893.78   A 0.55 0.54 15.2 0 0 878.89 894.59   L 884.25 894.69   A 1.35 1.34 14.6 0 0 885.48 893.98   L 888.28 888.71   A 1.10 1.09 -75.9 0 1 889.25 888.12   L 907.06 888.17   A 1.53 1.52 -13.7 0 1 908.42 888.99   L 910.91 893.80   A 1.58 1.57 -13.4 0 0 912.31 894.66   L 918.43 894.63   A 0.57 0.57 0.0 0 0 918.93 893.78   Z   M 959.1202 865.0221   A 0.71 0.71 0.0 0 0 958.4127 864.3096   L 952.9727 864.2906   A 0.71 0.71 0.0 0 0 952.2603 864.9981   L 952.1598 893.7779   A 0.71 0.71 0.0 0 0 952.8673 894.4904   L 958.3073 894.5094   A 0.71 0.71 0.0 0 0 959.0197 893.8019   L 959.1202 865.0221   Z"/>
<path xmlns="http://www.w3.org/2000/svg" fill="#1d1c1b" d="M 518.59 751.02   Q 516.09 757.62 512.55 763.36   C 507.42 771.68 502.83 781.86 499.48 789.50   C 497.50 794.03 493.70 798.96 491.76 803.63   Q 490.03 807.77 488.56 811.08   A 2.02 2.02 0.0 0 1 486.73 812.28   Q 468.45 812.44 460.50 812.44   Q 338.33 812.43 241.00 812.45   C 224.61 812.45 213.40 813.31 199.84 808.86   Q 188.70 805.20 179.93 796.77   C 177.66 794.59 175.43 791.60 174.27 788.35   Q 170.19 776.87 170.13 770.02   Q 170.06 762.44 172.71 753.52   Q 174.02 749.11 179.52 738.28   C 204.67 688.76 224.24 649.66 240.86 617.71   C 247.62 604.71 256.98 593.77 268.64 584.90   C 289.27 569.22 313.87 559.58 339.36 555.93   Q 349.95 554.42 377.73 554.44   Q 488.55 554.54 592.25 554.48   Q 595.84 554.48 605.21 554.17   C 608.56 554.06 611.69 554.37 615.32 554.53   A 0.55 0.55 0.0 0 1 615.80 555.30   Q 613.55 560.56 608.78 568.26   C 605.54 573.50 603.63 579.43 600.65 584.64   Q 597.94 589.37 595.09 595.48   Q 589.70 607.07 583.88 617.31   A 1.42 1.39 -79.1 0 1 582.87 618.01   Q 579.44 618.52 577.00 618.52   Q 388.82 618.57 378.92 618.52   Q 367.79 618.47 363.24 619.69   Q 355.39 621.80 349.17 626.66   C 346.39 628.84 344.69 631.22 342.95 634.67   Q 314.65 691.00 291.77 735.54   Q 288.62 741.68 289.07 743.84   C 290.27 749.51 297.76 750.22 302.75 750.21   Q 336.20 750.18 483.27 750.25   Q 488.19 750.25 498.74 750.03   Q 507.05 749.85 518.23 750.47   A 0.41 0.41 0.0 0 1 518.59 751.02   Z"/>
<path xmlns="http://www.w3.org/2000/svg" fill="#1d1c1b" d="M 661.62 648.37   Q 669.96 649.08 677.00 648.76   C 687.14 648.30 693.63 648.23 702.65 648.76   C 708.91 649.14 714.94 648.55 721.46 648.56   Q 756.73 648.62 872.28 648.59   C 882.80 648.59 891.55 648.20 901.58 648.81   A 0.39 0.39 0.0 0 1 901.90 649.38   L 872.50 707.85   A 1.27 1.26 13.3 0 1 871.37 708.54   L 678.60 708.54   A 1.99 1.99 0.0 0 0 676.82 709.64   L 625.52 811.63   A 1.51 1.48 13.1 0 1 624.18 812.45   L 515.00 812.45   A 0.59 0.58 10.3 0 1 514.45 811.66   Q 516.78 805.46 520.84 799.43   A 9.82 9.05 76.4 0 0 521.64 797.99   Q 524.18 792.18 525.50 789.86   C 529.23 783.31 531.75 776.59 535.23 770.54   C 539.71 762.75 542.66 755.72 546.92 747.55   Q 550.04 741.54 552.91 735.82   C 585.78 670.11 614.72 613.26 644.50 555.47   A 1.83 1.82 13.7 0 1 646.12 554.49   L 971.21 554.49   A 0.80 0.80 0.0 0 1 971.93 555.63   Q 969.13 561.58 965.79 566.91   C 959.96 576.19 956.65 585.69 950.96 595.77   C 946.90 602.98 943.83 610.22 939.46 617.79   A 1.51 1.50 14.6 0 1 938.15 618.55   L 723.13 618.55   A 1.17 1.16 13.2 0 0 722.09 619.19   L 712.18 638.90   A 1.93 1.91 -79.2 0 1 710.65 639.95   Q 703.11 640.72 698.06 641.95   Q 690.76 643.73 685.61 644.40   Q 675.61 645.70 661.62 648.37   Z"/>
<path xmlns="http://www.w3.org/2000/svg" fill="#1d1c1b" d="M 1009.11 749.67   A 0.41 0.41 0.0 0 0 1009.48 750.27   Q 1042.47 750.18 1126.25 750.22   C 1132.50 750.22 1139.41 748.03 1144.60 744.86   Q 1150.30 741.39 1153.34 735.34   Q 1176.47 689.36 1200.19 641.65   Q 1202.00 638.00 1204.74 632.99   C 1208.13 626.79 1205.83 620.35 1198.51 619.23   Q 1193.51 618.47 1186.75 618.48   Q 1121.67 618.57 988.10 618.54   C 980.74 618.54 974.00 619.15 967.67 618.60   A 0.72 0.71 16.4 0 1 967.10 617.56   L 999.16 555.41   A 1.65 1.65 0.0 0 1 1000.63 554.51   Q 1086.69 554.46 1248.89 554.50   C 1268.57 554.51 1280.35 554.32 1295.44 561.02   C 1304.10 564.87 1310.44 570.50 1315.57 578.19   Q 1319.41 583.95 1320.41 591.55   C 1321.30 598.30 1322.11 603.61 1320.99 609.81   Q 1318.96 621.06 1314.93 629.16   Q 1272.34 714.86 1268.02 723.75   Q 1261.24 737.70 1258.03 744.02   Q 1252.64 754.62 1247.87 760.76   Q 1237.80 773.73 1224.11 783.65   Q 1195.57 804.32 1159.84 810.63   Q 1149.83 812.40 1141.00 812.41   Q 1089.13 812.44 881.68 812.43   Q 879.40 812.43 869.17 812.61   A 0.61 0.61 0.0 0 1 868.62 811.71   Q 871.76 805.98 874.40 800.66   Q 901.61 745.95 927.25 694.86   Q 936.29 676.85 944.75 660.56   Q 947.59 655.09 949.68 650.43   C 950.61 648.34 951.96 648.74 953.86 648.73   Q 1004.59 648.51 1058.91 648.64   A 0.63 0.63 0.0 0 1 1059.47 649.55   L 1009.11 749.67   Z"/>
<path xmlns="http://www.w3.org/2000/svg" fill="#1d1c1b" d="M 599.01 907.20   Q 597.78 898.04 596.83 893.41   Q 594.69 882.97 583.81 881.40   Q 578.46 880.63 569.80 879.69   A 0.19 0.19 0.0 0 1 569.79 879.32   Q 575.08 878.40 580.25 877.61   Q 586.64 876.65 589.70 874.61   C 597.96 869.10 598.31 858.94 599.11 849.75   A 0.30 0.29 2.0 0 1 599.41 849.48   L 599.73 849.48   A 0.04 0.04 0.0 0 1 599.77 849.52   Q 600.04 855.08 600.58 860.45   Q 601.43 868.86 607.23 873.97   Q 609.21 875.72 613.78 876.71   Q 621.13 878.31 628.76 879.04   A 0.29 0.29 0.0 0 1 629.02 879.33   L 629.02 879.59   A 0.08 0.08 0.0 0 1 628.95 879.67   Q 621.72 879.95 614.36 881.37   C 605.17 883.14 601.17 890.59 600.33 899.34   Q 599.69 905.98 599.37 907.23   A 0.19 0.18 49.0 0 1 599.01 907.20   Z"/>
<path xmlns="http://www.w3.org/2000/svg" fill="#1d1c1b" d="M 295.88 894.39   L 292.45 888.45   A 0.55 0.55 0.0 0 0 291.97 888.17   L 273.46 888.17   A 0.55 0.55 0.0 0 0 272.98 888.44   L 269.52 894.44   A 0.55 0.55 0.0 0 1 269.04 894.71   L 262.99 894.71   A 0.55 0.55 0.0 0 1 262.52 893.88   L 279.55 864.39   A 0.55 0.55 0.0 0 1 280.03 864.12   L 286.10 864.12   A 0.55 0.55 0.0 0 1 286.58 864.39   L 303.58 893.84   A 0.55 0.55 0.0 0 1 303.11 894.67   L 296.36 894.67   A 0.55 0.55 0.0 0 1 295.88 894.39   Z   M 282.85 882.38   Q 284.29 882.40 288.69 882.52   A 0.55 0.55 0.0 0 0 289.20 881.72   Q 286.73 876.80 283.74 870.77   Q 283.51 870.32 283.01 870.32   Q 282.51 870.31 282.28 870.75   Q 279.12 876.69 276.51 881.54   A 0.55 0.55 0.0 0 0 276.99 882.36   Q 281.40 882.36 282.85 882.38   Z"/>
<path xmlns="http://www.w3.org/2000/svg" fill="#1d1c1b" d="M 369.66 864.27   A 0.94 0.94 0.0 0 1 370.58 865.21   Q 370.56 873.41 370.74 888.71   C 370.80 894.39 366.51 894.36 361.26 894.60   Q 349.55 895.15 341.38 894.66   Q 336.05 894.34 335.92 888.78   Q 335.60 875.32 335.61 864.87   A 0.85 0.84 -89.0 0 1 336.48 864.02   L 342.39 864.19   A 0.93 0.92 -88.8 0 1 343.29 865.14   L 342.64 887.69   A 0.98 0.97 1.8 0 0 343.59 888.69   L 362.02 889.22   A 1.07 1.07 0.0 0 0 363.12 888.19   L 363.78 865.14   A 1.04 1.04 0.0 0 1 364.85 864.13   L 369.66 864.27   Z"/>
<path xmlns="http://www.w3.org/2000/svg" fill="#1d1c1b" d="M 421.07 894.72   Q 419.76 894.72 418.53 894.72   A 0.95 0.94 89.8 0 1 417.58 893.78   L 417.58 870.61   A 1.11 1.11 0.0 0 0 416.47 869.50   L 403.88 869.50   A 0.86 0.86 0.0 0 1 403.02 868.64   L 403.02 865.04   A 0.88 0.88 0.0 0 1 403.92 864.16   Q 412.18 864.30 421.06 864.05   Q 429.93 864.29 438.20 864.15   A 0.88 0.88 0.0 0 1 439.09 865.03   L 439.09 868.63   A 0.86 0.86 0.0 0 1 438.23 869.49   L 425.65 869.50   A 1.11 1.11 0.0 0 0 424.54 870.61   L 424.55 893.77   A 0.95 0.94 -89.9 0 1 423.60 894.72   Q 422.37 894.72 421.07 894.72   Z"/>
<path xmlns="http://www.w3.org/2000/svg" fill="#1d1c1b" d="M 508.6663 889.1155   A 5.62 5.62 0.0 0 1 503.0267 894.7158   L 476.7068 894.6240   A 5.62 5.62 0.0 0 1 471.1065 888.9844   L 471.1737 869.7245   A 5.62 5.62 0.0 0 1 476.8133 864.1242   L 503.1332 864.2160   A 5.62 5.62 0.0 0 1 508.7335 869.8556   L 508.6663 889.1155   Z   M 501.58 888.96   L 501.58 869.78   A 0.23 0.23 0.0 0 0 501.35 869.55   L 480.21 869.55   A 1.97 1.85 -0.0 0 0 478.24 871.40   L 478.24 887.34   A 1.97 1.85 0.0 0 0 480.21 889.19   L 501.35 889.19   A 0.23 0.23 0.0 0 0 501.58 888.96   Z"/>
<path xmlns="http://www.w3.org/2000/svg" fill="#1d1c1b" d="M 681.63 864.86   A 0.67 0.67 0.0 0 1 682.30 864.19   L 704.13 864.23   A 14.88 13.98 0.1 0 1 718.98 878.23   L 718.98 880.67   A 14.88 13.98 0.1 0 1 704.07 894.63   L 682.24 894.59   A 0.67 0.67 0.0 0 1 681.57 893.92   L 681.63 864.86   Z   M 688.81 869.99   L 689.04 888.83   A 0.41 0.41 0.0 0 0 689.45 889.23   L 702.61 889.07   A 9.33 8.34 -0.7 0 0 711.84 880.62   L 711.80 877.64   A 9.33 8.34 -0.7 0 0 702.37 869.41   L 689.21 869.58   A 0.41 0.41 0.0 0 0 688.81 869.99   Z"/>
<path xmlns="http://www.w3.org/2000/svg" fill="#1d1c1b" d="M 776.39 876.83   L 776.39 880.39   A 0.63 0.63 0.0 0 1 775.79 881.02   L 762.76 881.61   A 0.63 0.63 0.0 0 0 762.16 882.24   L 762.16 888.51   A 0.63 0.63 0.0 0 0 762.79 889.14   L 786.08 889.14   A 0.63 0.63 0.0 0 1 786.71 889.77   L 786.71 894.02   A 0.63 0.63 0.0 0 1 786.08 894.65   L 755.47 894.65   A 0.63 0.63 0.0 0 1 754.84 894.02   L 754.84 864.76   A 0.63 0.63 0.0 0 1 755.47 864.13   L 785.72 864.13   A 0.63 0.63 0.0 0 1 786.35 864.76   L 786.35 868.68   A 0.63 0.63 0.0 0 1 785.72 869.31   L 762.56 869.31   A 0.63 0.63 0.0 0 0 761.93 869.94   L 761.93 875.57   A 0.63 0.63 0.0 0 0 762.56 876.20   L 775.76 876.20   A 0.63 0.63 0.0 0 1 776.39 876.83   Z"/>
<path xmlns="http://www.w3.org/2000/svg" fill="#1d1c1b" d="M 836.44 864.09   Q 845.29 864.33 853.54 864.20   A 0.88 0.87 -0.6 0 1 854.43 865.07   L 854.43 868.66   A 0.86 0.86 0.0 0 1 853.57 869.52   L 841.02 869.52   A 1.11 1.11 0.0 0 0 839.91 870.63   L 839.91 893.73   A 0.94 0.94 0.0 0 1 838.96 894.67   Q 837.74 894.67 836.44 894.67   Q 835.14 894.67 833.91 894.67   A 0.94 0.94 0.0 0 1 832.96 893.73   L 832.97 870.63   A 1.11 1.11 0.0 0 0 831.87 869.52   L 819.32 869.51   A 0.86 0.86 0.0 0 1 818.46 868.65   L 818.46 865.06   A 0.88 0.87 0.6 0 1 819.35 864.19   Q 827.60 864.33 836.44 864.09   Z"/>
<path xmlns="http://www.w3.org/2000/svg" fill="#1d1c1b" d="M 1025.97 894.62   L 997.18 894.62   A 0.75 0.75 0.0 0 1 996.43 893.87   L 996.43 864.87   A 0.75 0.75 0.0 0 1 997.18 864.12   L 1002.93 864.12   A 0.75 0.75 0.0 0 1 1003.68 864.87   L 1003.68 888.34   A 0.75 0.75 0.0 0 0 1004.43 889.09   L 1025.97 889.09   A 0.75 0.75 0.0 0 1 1026.72 889.84   L 1026.72 893.87   A 0.75 0.75 0.0 0 1 1025.97 894.62   Z"/>
<rect xmlns="http://www.w3.org/2000/svg" fill="#1d1c1b" x="-3.60" y="-15.21" transform="translate(1062.82,879.37) rotate(0.1)" width="7.20" height="30.42" rx="0.72"/>
<path xmlns="http://www.w3.org/2000/svg" fill="#1d1c1b" d="M 1111.03 874.30   A 0.15 0.14 -69.5 0 0 1110.79 874.41   L 1110.79 893.78   A 0.96 0.96 0.0 0 1 1109.83 894.74   L 1105.12 894.74   A 1.07 1.07 0.0 0 1 1104.05 893.67   L 1104.05 865.21   A 0.85 0.85 0.0 0 1 1104.79 864.37   Q 1108.69 863.81 1109.79 864.69   C 1115.34 869.07 1119.00 871.71 1124.44 876.81   Q 1128.53 880.65 1133.31 884.69   A 0.48 0.47 -56.9 0 0 1134.04 884.53   Q 1134.40 883.79 1134.39 881.39   Q 1134.32 873.48 1133.96 865.13   A 1.05 1.04 -1.3 0 1 1135.01 864.04   L 1139.59 864.04   A 1.06 1.06 0.0 0 1 1140.65 865.10   L 1140.65 893.89   A 0.79 0.78 -90.0 0 1 1139.87 894.68   L 1135.89 894.68   A 0.77 0.72 63.1 0 1 1135.42 894.51   L 1111.03 874.30   Z"/>
<path xmlns="http://www.w3.org/2000/svg" fill="#1d1c1b" d="M 1208.23 869.98   A 0.56 0.56 0.0 0 0 1207.67 869.40   L 1187.01 869.40   A 0.82 0.81 -87.7 0 0 1186.20 870.16   Q 1185.35 880.88 1185.99 888.32   A 1.04 1.03 87.6 0 0 1187.02 889.27   L 1207.01 889.27   A 0.92 0.91 -90.0 0 0 1207.92 888.35   L 1207.92 883.29   A 0.94 0.94 0.0 0 0 1207.01 882.35   L 1197.72 882.09   A 0.90 0.89 -89.0 0 1 1196.86 881.19   L 1196.86 878.22   A 0.86 0.86 0.0 0 1 1197.68 877.36   L 1214.10 876.61   A 1.15 1.15 0.0 0 1 1215.31 877.79   Q 1215.10 886.73 1214.83 890.37   C 1214.57 893.81 1211.89 894.38 1208.80 894.51   Q 1202.45 894.78 1186.51 894.69   C 1182.60 894.67 1178.95 893.94 1178.93 889.50   C 1178.90 882.16 1179.16 878.70 1178.73 873.50   C 1178.40 869.44 1178.46 864.48 1183.79 864.27   Q 1194.71 863.83 1209.14 864.35   Q 1215.15 864.57 1215.18 871.20   A 1.45 1.45 0.0 0 1 1213.80 872.65   L 1208.81 872.88   A 0.63 0.62 89.2 0 1 1208.16 872.24   L 1208.23 869.98   Z"/>
<path xmlns="http://www.w3.org/2000/svg" fill="#1d1c1b" d="M 918.93 893.78   A 0.57 0.57 0.0 0 1 918.43 894.63   L 912.31 894.66   A 1.58 1.57 -13.4 0 1 910.91 893.80   L 908.42 888.99   A 1.53 1.52 -13.7 0 0 907.06 888.17   L 889.25 888.12   A 1.10 1.09 -75.9 0 0 888.28 888.71   L 885.48 893.98   A 1.35 1.34 14.6 0 1 884.25 894.69   L 878.89 894.59   A 0.55 0.54 15.2 0 1 878.42 893.78   L 894.67 864.88   A 1.32 1.32 0.0 0 1 895.81 864.21   L 901.22 864.18   A 1.42 1.42 0.0 0 1 902.45 864.90   L 918.93 893.78   Z   M 898.33 882.19   Q 899.52 882.20 904.13 882.42   A 0.41 0.41 0.0 0 0 904.52 881.84   Q 901.73 875.78 899.28 870.49   Q 899.07 870.03 898.48 870.02   Q 897.88 870.02 897.66 870.47   Q 895.08 875.70 892.14 881.69   A 0.41 0.41 0.0 0 0 892.52 882.27   Q 897.13 882.17 898.33 882.19   Z"/>
<rect xmlns="http://www.w3.org/2000/svg" fill="#1d1c1b" x="-3.43" y="-15.10" transform="translate(955.64,879.40) rotate(0.2)" width="6.86" height="30.20" rx="0.71"/>
<path xmlns="http://www.w3.org/2000/svg" fill="#bb9053" d="M 501.58 888.96   A 0.23 0.23 0.0 0 1 501.35 889.19   L 480.21 889.19   A 1.97 1.85 0.0 0 1 478.24 887.34   L 478.24 871.40   A 1.97 1.85 0.0 0 1 480.21 869.55   L 501.35 869.55   A 0.23 0.23 0.0 0 1 501.58 869.78   L 501.58 888.96   Z"/>
<path xmlns="http://www.w3.org/2000/svg" fill="#bb9053" d="M 688.81 869.99   A 0.41 0.41 0.0 0 1 689.21 869.58   L 702.37 869.41   A 9.33 8.34 -0.7 0 1 711.80 877.64   L 711.84 880.62   A 9.33 8.34 -0.7 0 1 702.61 889.07   L 689.45 889.23   A 0.41 0.41 0.0 0 1 689.04 888.83   L 688.81 869.99   Z"/>
<path xmlns="http://www.w3.org/2000/svg" fill="#bb9053" d="M 898.48 870.02   Q 899.07 870.03 899.28 870.49   Q 901.73 875.78 904.52 881.84   A 0.41 0.41 0.0 0 1 904.13 882.42   Q 899.52 882.20 898.33 882.19   Q 897.13 882.17 892.52 882.27   A 0.41 0.41 0.0 0 1 892.14 881.69   Q 895.08 875.70 897.66 870.47   Q 897.88 870.02 898.48 870.02   Z"/>
<path xmlns="http://www.w3.org/2000/svg" fill="#bb9053" d="M 283.01 870.32   Q 283.51 870.32 283.74 870.77   Q 286.73 876.80 289.20 881.72   A 0.55 0.55 0.0 0 1 288.69 882.52   Q 284.29 882.40 282.85 882.38   Q 281.40 882.36 276.99 882.36   A 0.55 0.55 0.0 0 1 276.51 881.54   Q 279.12 876.69 282.28 870.75   Q 282.51 870.31 283.01 870.32   Z"/>
</g></g></g></g></svg>